%TF.GenerationSoftware,KiCad,Pcbnew,5.1.9-73d0e3b20d~88~ubuntu20.04.1*%
%TF.CreationDate,2021-03-03T11:34:14+04:00*%
%TF.ProjectId,relay_board,72656c61-795f-4626-9f61-72642e6b6963,rev?*%
%TF.SameCoordinates,Original*%
%TF.FileFunction,Copper,L2,Bot*%
%TF.FilePolarity,Positive*%
%FSLAX46Y46*%
G04 Gerber Fmt 4.6, Leading zero omitted, Abs format (unit mm)*
G04 Created by KiCad (PCBNEW 5.1.9-73d0e3b20d~88~ubuntu20.04.1) date 2021-03-03 11:34:14*
%MOMM*%
%LPD*%
G01*
G04 APERTURE LIST*
%TA.AperFunction,Profile*%
%ADD10C,0.050000*%
%TD*%
%TA.AperFunction,Profile*%
%ADD11C,0.100000*%
%TD*%
%TA.AperFunction,ComponentPad*%
%ADD12O,1.500000X2.200000*%
%TD*%
%TA.AperFunction,ComponentPad*%
%ADD13O,2.000000X2.000000*%
%TD*%
%TA.AperFunction,ComponentPad*%
%ADD14O,2.500000X1.650000*%
%TD*%
%TA.AperFunction,ComponentPad*%
%ADD15R,2.500000X1.650000*%
%TD*%
%TA.AperFunction,ComponentPad*%
%ADD16O,1.650000X1.500000*%
%TD*%
%TA.AperFunction,ComponentPad*%
%ADD17O,1.800000X3.600000*%
%TD*%
%TA.AperFunction,ComponentPad*%
%ADD18C,2.100000*%
%TD*%
%TA.AperFunction,ViaPad*%
%ADD19C,0.800000*%
%TD*%
%TA.AperFunction,Conductor*%
%ADD20C,2.000000*%
%TD*%
%TA.AperFunction,Conductor*%
%ADD21C,1.750000*%
%TD*%
%TA.AperFunction,Conductor*%
%ADD22C,0.500000*%
%TD*%
G04 APERTURE END LIST*
D10*
X145750000Y-46500000D02*
X145750000Y-50500000D01*
X146750000Y-46500000D02*
X146750000Y-50500000D01*
X112750000Y-46500000D02*
X112750000Y-50500000D01*
X113750000Y-46500000D02*
X113750000Y-50500000D01*
X144250000Y-112250000D02*
X144250000Y-114750000D01*
X143250000Y-112250000D02*
X143250000Y-114750000D01*
X114500000Y-101250000D02*
G75*
G02*
X115500000Y-101250000I500000J0D01*
G01*
X115500000Y-114750000D02*
G75*
G02*
X114500000Y-114750000I-500000J0D01*
G01*
X114500000Y-101250000D02*
X114500000Y-114750000D01*
X115500000Y-114750000D02*
X115500000Y-101250000D01*
X143250000Y-101250000D02*
G75*
G02*
X144250000Y-101250000I500000J0D01*
G01*
X144250000Y-114750000D02*
G75*
G02*
X143250000Y-114750000I-500000J0D01*
G01*
X143250000Y-101250000D02*
X143250000Y-112250000D01*
X144250000Y-112250000D02*
X144250000Y-101250000D01*
X112750000Y-46500000D02*
G75*
G02*
X113750000Y-46500000I500000J0D01*
G01*
X113750000Y-61500000D02*
G75*
G02*
X112750000Y-61500000I-500000J0D01*
G01*
X112750000Y-50500000D02*
X112750000Y-61500000D01*
X113750000Y-61500000D02*
X113750000Y-50500000D01*
X145750000Y-46500000D02*
G75*
G02*
X146750000Y-46500000I500000J0D01*
G01*
X146750000Y-61500000D02*
G75*
G02*
X145750000Y-61500000I-500000J0D01*
G01*
X145750000Y-50500000D02*
X145750000Y-61500000D01*
X146750000Y-61500000D02*
X146750000Y-50500000D01*
X53750000Y-64250000D02*
X111750000Y-64250000D01*
X111750000Y-63250000D02*
X53750000Y-63250000D01*
X53750000Y-64250000D02*
G75*
G02*
X53750000Y-63250000I0J500000D01*
G01*
X111750000Y-63250000D02*
G75*
G02*
X111750000Y-64250000I0J-500000D01*
G01*
X53750000Y-101750000D02*
X111750000Y-101750000D01*
X111750000Y-100750000D02*
X53750000Y-100750000D01*
X53750000Y-101750000D02*
G75*
G02*
X53750000Y-100750000I0J500000D01*
G01*
X111750000Y-100750000D02*
G75*
G02*
X111750000Y-101750000I0J-500000D01*
G01*
X147250000Y-101750000D02*
X205250000Y-101750000D01*
X205250000Y-100750000D02*
X147250000Y-100750000D01*
X147250000Y-101750000D02*
G75*
G02*
X147250000Y-100750000I0J500000D01*
G01*
X205250000Y-100750000D02*
G75*
G02*
X205250000Y-101750000I0J-500000D01*
G01*
X147000000Y-64250000D02*
G75*
G02*
X147000000Y-63250000I0J500000D01*
G01*
X205000000Y-63250000D02*
G75*
G02*
X205000000Y-64250000I0J-500000D01*
G01*
X147000000Y-64250000D02*
X205000000Y-64250000D01*
X205000000Y-63250000D02*
X147000000Y-63250000D01*
D11*
X207600000Y-125800000D02*
X51400000Y-125800000D01*
X207600000Y-39000000D02*
X207600000Y-125800000D01*
X51400000Y-125800000D02*
X51400000Y-39000000D01*
X51400000Y-39000000D02*
X207600000Y-39000000D01*
D12*
%TO.P,J12,20*%
%TO.N,GND*%
X141110000Y-48960000D03*
%TO.P,J12,18*%
%TO.N,/COM*%
X138570000Y-48960000D03*
%TO.P,J12,16*%
%TO.N,/L16*%
X136030000Y-48960000D03*
%TO.P,J12,14*%
%TO.N,/L14*%
X133490000Y-48960000D03*
%TO.P,J12,12*%
%TO.N,/L12*%
X130950000Y-48960000D03*
%TO.P,J12,10*%
%TO.N,/L10*%
X128410000Y-48960000D03*
%TO.P,J12,8*%
%TO.N,/L8*%
X125870000Y-48960000D03*
%TO.P,J12,6*%
%TO.N,/L6*%
X123330000Y-48960000D03*
%TO.P,J12,4*%
%TO.N,/L4*%
X120790000Y-48960000D03*
%TO.P,J12,2*%
%TO.N,/L2*%
X118250000Y-48960000D03*
%TO.P,J12,19*%
%TO.N,GND*%
X141110000Y-51500000D03*
%TO.P,J12,17*%
%TO.N,/COM*%
X138570000Y-51500000D03*
%TO.P,J12,15*%
%TO.N,/L15*%
X136030000Y-51500000D03*
%TO.P,J12,13*%
%TO.N,/L13*%
X133490000Y-51500000D03*
%TO.P,J12,11*%
%TO.N,/L11*%
X130950000Y-51500000D03*
%TO.P,J12,9*%
%TO.N,/L9*%
X128410000Y-51500000D03*
%TO.P,J12,7*%
%TO.N,/L7*%
X125870000Y-51500000D03*
%TO.P,J12,5*%
%TO.N,/L5*%
X123330000Y-51500000D03*
%TO.P,J12,3*%
%TO.N,/L3*%
X120790000Y-51500000D03*
%TO.P,J12,1*%
%TO.N,/L1*%
%TA.AperFunction,ComponentPad*%
G36*
G01*
X118779500Y-52600000D02*
X117720500Y-52600000D01*
G75*
G02*
X117500000Y-52379500I0J220500D01*
G01*
X117500000Y-50620500D01*
G75*
G02*
X117720500Y-50400000I220500J0D01*
G01*
X118779500Y-50400000D01*
G75*
G02*
X119000000Y-50620500I0J-220500D01*
G01*
X119000000Y-52379500D01*
G75*
G02*
X118779500Y-52600000I-220500J0D01*
G01*
G37*
%TD.AperFunction*%
%TD*%
D13*
%TO.P,K15,14*%
%TO.N,/sheet6028DD5A/3*%
X180050000Y-110160000D03*
%TO.P,K15,21*%
%TO.N,/sheet6028DD5A/L2*%
X187550000Y-105120000D03*
%TO.P,K15,24*%
%TO.N,/sheet6028DD5A/3*%
X187550000Y-110160000D03*
%TO.P,K15,11*%
%TO.N,/sheet6028DD5A/L2*%
X180050000Y-105120000D03*
D14*
%TO.P,K15,A2*%
%TO.N,/COM*%
X187550000Y-84820000D03*
D15*
%TO.P,K15,A1*%
%TO.N,/L15*%
X180050000Y-84820000D03*
%TD*%
%TO.P,J1,1*%
%TO.N,/L1*%
%TA.AperFunction,ComponentPad*%
G36*
G01*
X126900000Y-71489500D02*
X126900000Y-70430500D01*
G75*
G02*
X127120500Y-70210000I220500J0D01*
G01*
X128679500Y-70210000D01*
G75*
G02*
X128900000Y-70430500I0J-220500D01*
G01*
X128900000Y-71489500D01*
G75*
G02*
X128679500Y-71710000I-220500J0D01*
G01*
X127120500Y-71710000D01*
G75*
G02*
X126900000Y-71489500I0J220500D01*
G01*
G37*
%TD.AperFunction*%
D16*
%TO.P,J1,3*%
%TO.N,/L3*%
X127900000Y-73500000D03*
%TO.P,J1,5*%
%TO.N,/L5*%
X127900000Y-76040000D03*
%TO.P,J1,7*%
%TO.N,/L7*%
X127900000Y-78580000D03*
%TO.P,J1,9*%
%TO.N,/L9*%
X127900000Y-81120000D03*
%TO.P,J1,11*%
%TO.N,/L11*%
X127900000Y-83660000D03*
%TO.P,J1,13*%
%TO.N,/L13*%
X127900000Y-86200000D03*
%TO.P,J1,15*%
%TO.N,/L15*%
X127900000Y-88740000D03*
%TO.P,J1,17*%
%TO.N,/COM*%
X127900000Y-91280000D03*
%TO.P,J1,19*%
%TO.N,GND*%
X127900000Y-93820000D03*
%TO.P,J1,2*%
%TO.N,/L2*%
X130440000Y-70960000D03*
%TO.P,J1,4*%
%TO.N,/L4*%
X130440000Y-73500000D03*
%TO.P,J1,6*%
%TO.N,/L6*%
X130440000Y-76040000D03*
%TO.P,J1,8*%
%TO.N,/L8*%
X130440000Y-78580000D03*
%TO.P,J1,10*%
%TO.N,/L10*%
X130440000Y-81120000D03*
%TO.P,J1,12*%
%TO.N,/L12*%
X130440000Y-83660000D03*
%TO.P,J1,14*%
%TO.N,/L14*%
X130440000Y-86200000D03*
%TO.P,J1,16*%
%TO.N,/L16*%
X130440000Y-88740000D03*
%TO.P,J1,18*%
%TO.N,/COM*%
X130440000Y-91280000D03*
%TO.P,J1,20*%
%TO.N,GND*%
X130440000Y-93820000D03*
%TD*%
D13*
%TO.P,K16,14*%
%TO.N,/sheet6028DD5A/4*%
X197290000Y-110160000D03*
%TO.P,K16,21*%
%TO.N,/sheet6028DD5A/L2*%
X204790000Y-105120000D03*
%TO.P,K16,24*%
%TO.N,/sheet6028DD5A/4*%
X204790000Y-110160000D03*
%TO.P,K16,11*%
%TO.N,/sheet6028DD5A/L2*%
X197290000Y-105120000D03*
D14*
%TO.P,K16,A2*%
%TO.N,/COM*%
X204790000Y-84820000D03*
D15*
%TO.P,K16,A1*%
%TO.N,/L16*%
X197290000Y-84820000D03*
%TD*%
D13*
%TO.P,K14,14*%
%TO.N,/sheet6028DD5A/2*%
X167150000Y-110170000D03*
%TO.P,K14,21*%
%TO.N,/sheet6028DD5A/L1*%
X174650000Y-105130000D03*
%TO.P,K14,24*%
%TO.N,/sheet6028DD5A/2*%
X174650000Y-110170000D03*
%TO.P,K14,11*%
%TO.N,/sheet6028DD5A/L1*%
X167150000Y-105130000D03*
D14*
%TO.P,K14,A2*%
%TO.N,/COM*%
X174650000Y-84830000D03*
D15*
%TO.P,K14,A1*%
%TO.N,/L14*%
X167150000Y-84830000D03*
%TD*%
D13*
%TO.P,K13,14*%
%TO.N,/sheet6028DD5A/1*%
X149920000Y-110170000D03*
%TO.P,K13,21*%
%TO.N,/sheet6028DD5A/L1*%
X157420000Y-105130000D03*
%TO.P,K13,24*%
%TO.N,/sheet6028DD5A/1*%
X157420000Y-110170000D03*
%TO.P,K13,11*%
%TO.N,/sheet6028DD5A/L1*%
X149920000Y-105130000D03*
D14*
%TO.P,K13,A2*%
%TO.N,/COM*%
X157420000Y-84830000D03*
D15*
%TO.P,K13,A1*%
%TO.N,/L13*%
X149920000Y-84830000D03*
%TD*%
D13*
%TO.P,K12,14*%
%TO.N,/3relay_block/4*%
X101550000Y-110180000D03*
%TO.P,K12,21*%
%TO.N,/3relay_block/L2*%
X109050000Y-105140000D03*
%TO.P,K12,24*%
%TO.N,/3relay_block/4*%
X109050000Y-110180000D03*
%TO.P,K12,11*%
%TO.N,/3relay_block/L2*%
X101550000Y-105140000D03*
D14*
%TO.P,K12,A2*%
%TO.N,/COM*%
X109050000Y-84840000D03*
D15*
%TO.P,K12,A1*%
%TO.N,/L12*%
X101550000Y-84840000D03*
%TD*%
D13*
%TO.P,K11,14*%
%TO.N,/3relay_block/3*%
X84300000Y-110180000D03*
%TO.P,K11,21*%
%TO.N,/3relay_block/L2*%
X91800000Y-105140000D03*
%TO.P,K11,24*%
%TO.N,/3relay_block/3*%
X91800000Y-110180000D03*
%TO.P,K11,11*%
%TO.N,/3relay_block/L2*%
X84300000Y-105140000D03*
D14*
%TO.P,K11,A2*%
%TO.N,/COM*%
X91800000Y-84840000D03*
D15*
%TO.P,K11,A1*%
%TO.N,/L11*%
X84300000Y-84840000D03*
%TD*%
D13*
%TO.P,K10,14*%
%TO.N,/3relay_block/2*%
X71400000Y-110180000D03*
%TO.P,K10,21*%
%TO.N,/3relay_block/L1*%
X78900000Y-105140000D03*
%TO.P,K10,24*%
%TO.N,/3relay_block/2*%
X78900000Y-110180000D03*
%TO.P,K10,11*%
%TO.N,/3relay_block/L1*%
X71400000Y-105140000D03*
D14*
%TO.P,K10,A2*%
%TO.N,/COM*%
X78900000Y-84840000D03*
D15*
%TO.P,K10,A1*%
%TO.N,/L10*%
X71400000Y-84840000D03*
%TD*%
D13*
%TO.P,K9,14*%
%TO.N,/3relay_block/1*%
X54170000Y-110200000D03*
%TO.P,K9,21*%
%TO.N,/3relay_block/L1*%
X61670000Y-105160000D03*
%TO.P,K9,24*%
%TO.N,/3relay_block/1*%
X61670000Y-110200000D03*
%TO.P,K9,11*%
%TO.N,/3relay_block/L1*%
X54170000Y-105160000D03*
D14*
%TO.P,K9,A2*%
%TO.N,/COM*%
X61670000Y-84860000D03*
D15*
%TO.P,K9,A1*%
%TO.N,/L9*%
X54170000Y-84860000D03*
%TD*%
D13*
%TO.P,K8,14*%
%TO.N,/sheet60201268/4*%
X61700000Y-54610000D03*
%TO.P,K8,21*%
%TO.N,/sheet60201268/L2*%
X54200000Y-59650000D03*
%TO.P,K8,24*%
%TO.N,/sheet60201268/4*%
X54200000Y-54610000D03*
%TO.P,K8,11*%
%TO.N,/sheet60201268/L2*%
X61700000Y-59650000D03*
D14*
%TO.P,K8,A2*%
%TO.N,/COM*%
X54200000Y-79950000D03*
D15*
%TO.P,K8,A1*%
%TO.N,/L8*%
X61700000Y-79950000D03*
%TD*%
D13*
%TO.P,K7,14*%
%TO.N,/sheet60201268/3*%
X78930000Y-54610000D03*
%TO.P,K7,21*%
%TO.N,/sheet60201268/L2*%
X71430000Y-59650000D03*
%TO.P,K7,24*%
%TO.N,/sheet60201268/3*%
X71430000Y-54610000D03*
%TO.P,K7,11*%
%TO.N,/sheet60201268/L2*%
X78930000Y-59650000D03*
D14*
%TO.P,K7,A2*%
%TO.N,/COM*%
X71430000Y-79950000D03*
D15*
%TO.P,K7,A1*%
%TO.N,/L7*%
X78930000Y-79950000D03*
%TD*%
D13*
%TO.P,K6,14*%
%TO.N,/sheet60201268/2*%
X91820000Y-54610000D03*
%TO.P,K6,21*%
%TO.N,/sheet60201268/L1*%
X84320000Y-59650000D03*
%TO.P,K6,24*%
%TO.N,/sheet60201268/2*%
X84320000Y-54610000D03*
%TO.P,K6,11*%
%TO.N,/sheet60201268/L1*%
X91820000Y-59650000D03*
D14*
%TO.P,K6,A2*%
%TO.N,/COM*%
X84320000Y-79950000D03*
D15*
%TO.P,K6,A1*%
%TO.N,/L6*%
X91820000Y-79950000D03*
%TD*%
D13*
%TO.P,K5,14*%
%TO.N,/sheet60201268/1*%
X109070000Y-54610000D03*
%TO.P,K5,21*%
%TO.N,/sheet60201268/L1*%
X101570000Y-59650000D03*
%TO.P,K5,24*%
%TO.N,/sheet60201268/1*%
X101570000Y-54610000D03*
%TO.P,K5,11*%
%TO.N,/sheet60201268/L1*%
X109070000Y-59650000D03*
D14*
%TO.P,K5,A2*%
%TO.N,/COM*%
X101570000Y-79950000D03*
D15*
%TO.P,K5,A1*%
%TO.N,/L5*%
X109070000Y-79950000D03*
%TD*%
D13*
%TO.P,K4,14*%
%TO.N,/4relay_block/4*%
X157440000Y-54620000D03*
%TO.P,K4,21*%
%TO.N,/4relay_block/L2*%
X149940000Y-59660000D03*
%TO.P,K4,24*%
%TO.N,/4relay_block/4*%
X149940000Y-54620000D03*
%TO.P,K4,11*%
%TO.N,/4relay_block/L2*%
X157440000Y-59660000D03*
D14*
%TO.P,K4,A2*%
%TO.N,/COM*%
X149940000Y-79960000D03*
D15*
%TO.P,K4,A1*%
%TO.N,/L4*%
X157440000Y-79960000D03*
%TD*%
D13*
%TO.P,K3,14*%
%TO.N,/4relay_block/3*%
X174670000Y-54620000D03*
%TO.P,K3,21*%
%TO.N,/4relay_block/L2*%
X167170000Y-59660000D03*
%TO.P,K3,24*%
%TO.N,/4relay_block/3*%
X167170000Y-54620000D03*
%TO.P,K3,11*%
%TO.N,/4relay_block/L2*%
X174670000Y-59660000D03*
D14*
%TO.P,K3,A2*%
%TO.N,/COM*%
X167170000Y-79960000D03*
D15*
%TO.P,K3,A1*%
%TO.N,/L3*%
X174670000Y-79960000D03*
%TD*%
D13*
%TO.P,K2,14*%
%TO.N,/4relay_block/2*%
X187570000Y-54630000D03*
%TO.P,K2,21*%
%TO.N,/4relay_block/L1*%
X180070000Y-59670000D03*
%TO.P,K2,24*%
%TO.N,/4relay_block/2*%
X180070000Y-54630000D03*
%TO.P,K2,11*%
%TO.N,/4relay_block/L1*%
X187570000Y-59670000D03*
D14*
%TO.P,K2,A2*%
%TO.N,/COM*%
X180070000Y-79970000D03*
D15*
%TO.P,K2,A1*%
%TO.N,/L2*%
X187570000Y-79970000D03*
%TD*%
D13*
%TO.P,K1,14*%
%TO.N,/4relay_block/1*%
X204810000Y-54630000D03*
%TO.P,K1,21*%
%TO.N,/4relay_block/L1*%
X197310000Y-59670000D03*
%TO.P,K1,24*%
%TO.N,/4relay_block/1*%
X197310000Y-54630000D03*
%TO.P,K1,11*%
%TO.N,/4relay_block/L1*%
X204810000Y-59670000D03*
D14*
%TO.P,K1,A2*%
%TO.N,/COM*%
X197310000Y-79970000D03*
D15*
%TO.P,K1,A1*%
%TO.N,/L1*%
X204810000Y-79970000D03*
%TD*%
D13*
%TO.P,J11,3*%
%TO.N,/sheet6028DD5A/4*%
X197480000Y-118810000D03*
%TO.P,J11,2*%
%TO.N,/sheet6028DD5A/L2*%
X192400000Y-118810000D03*
%TO.P,J11,1*%
%TO.N,/sheet6028DD5A/3*%
X187320000Y-118810000D03*
%TD*%
%TO.P,J10,3*%
%TO.N,/sheet6028DD5A/2*%
X171930000Y-118800000D03*
%TO.P,J10,2*%
%TO.N,/sheet6028DD5A/L1*%
X166850000Y-118800000D03*
%TO.P,J10,1*%
%TO.N,/sheet6028DD5A/1*%
X161770000Y-118800000D03*
%TD*%
%TO.P,J9,3*%
%TO.N,/3relay_block/4*%
X97200000Y-118800000D03*
%TO.P,J9,2*%
%TO.N,/3relay_block/L2*%
X92120000Y-118800000D03*
%TO.P,J9,1*%
%TO.N,/3relay_block/3*%
X87040000Y-118800000D03*
%TD*%
%TO.P,J8,3*%
%TO.N,/3relay_block/2*%
X71720000Y-118810000D03*
%TO.P,J8,2*%
%TO.N,/3relay_block/L1*%
X66640000Y-118810000D03*
%TO.P,J8,1*%
%TO.N,/3relay_block/1*%
X61560000Y-118810000D03*
%TD*%
%TO.P,J7,3*%
%TO.N,/sheet60201268/4*%
X61660000Y-45990000D03*
%TO.P,J7,2*%
%TO.N,/sheet60201268/L2*%
X66740000Y-45990000D03*
%TO.P,J7,1*%
%TO.N,/sheet60201268/3*%
X71820000Y-45990000D03*
%TD*%
%TO.P,J6,3*%
%TO.N,/sheet60201268/2*%
X87160000Y-45930000D03*
%TO.P,J6,2*%
%TO.N,/sheet60201268/L1*%
X92240000Y-45930000D03*
%TO.P,J6,1*%
%TO.N,/sheet60201268/1*%
X97320000Y-45930000D03*
%TD*%
%TO.P,J5,3*%
%TO.N,/4relay_block/4*%
X161780000Y-45970000D03*
%TO.P,J5,2*%
%TO.N,/4relay_block/L2*%
X166860000Y-45970000D03*
%TO.P,J5,1*%
%TO.N,/4relay_block/3*%
X171940000Y-45970000D03*
%TD*%
%TO.P,J4,3*%
%TO.N,/4relay_block/2*%
X187310000Y-45980000D03*
%TO.P,J4,2*%
%TO.N,/4relay_block/L1*%
X192390000Y-45980000D03*
%TO.P,J4,1*%
%TO.N,/4relay_block/1*%
X197470000Y-45980000D03*
%TD*%
D17*
%TO.P,J3,2*%
%TO.N,GND*%
X129540000Y-118800000D03*
%TO.P,J3,1*%
%TO.N,/COM*%
%TA.AperFunction,ComponentPad*%
G36*
G01*
X123560000Y-120350000D02*
X123560000Y-117250000D01*
G75*
G02*
X123810000Y-117000000I250000J0D01*
G01*
X125110000Y-117000000D01*
G75*
G02*
X125360000Y-117250000I0J-250000D01*
G01*
X125360000Y-120350000D01*
G75*
G02*
X125110000Y-120600000I-250000J0D01*
G01*
X123810000Y-120600000D01*
G75*
G02*
X123560000Y-120350000I0J250000D01*
G01*
G37*
%TD.AperFunction*%
%TD*%
%TO.P,J2,1*%
%TO.N,/COM*%
%TA.AperFunction,ComponentPad*%
G36*
G01*
X125610000Y-106460001D02*
X125610000Y-104859999D01*
G75*
G02*
X125859999Y-104610000I249999J0D01*
G01*
X127460001Y-104610000D01*
G75*
G02*
X127710000Y-104859999I0J-249999D01*
G01*
X127710000Y-106460001D01*
G75*
G02*
X127460001Y-106710000I-249999J0D01*
G01*
X125859999Y-106710000D01*
G75*
G02*
X125610000Y-106460001I0J249999D01*
G01*
G37*
%TD.AperFunction*%
D18*
%TO.P,J2,2*%
%TO.N,GND*%
X131260000Y-105660000D03*
%TD*%
D19*
%TO.N,/COM*%
X139465119Y-80224881D03*
%TO.N,/4relay_block/4*%
X151880000Y-54620000D03*
X153380000Y-54620000D03*
X155380000Y-54620000D03*
X157440000Y-52060000D03*
X157440000Y-50560000D03*
X158625000Y-49125000D03*
X159875000Y-47875000D03*
%TO.N,/4relay_block/3*%
X172380000Y-54620000D03*
X170880000Y-54620000D03*
X169380000Y-54620000D03*
X171940000Y-52060000D03*
X171940000Y-50560000D03*
X171940000Y-49060000D03*
%TO.N,/4relay_block/2*%
X187310000Y-48690000D03*
X187310000Y-50190000D03*
X187310000Y-52190000D03*
X185370000Y-54630000D03*
X183870000Y-54630000D03*
X182370000Y-54630000D03*
%TO.N,/4relay_block/1*%
X202870000Y-54630000D03*
X200870000Y-54630000D03*
X198870000Y-54630000D03*
X197470000Y-52530000D03*
X197470000Y-50530000D03*
X197470000Y-48530000D03*
%TO.N,/sheet60201268/4*%
X58000000Y-54610000D03*
X59390000Y-54610000D03*
X61640000Y-52360000D03*
X61660000Y-50340000D03*
X61660000Y-48340000D03*
X56390000Y-54610000D03*
%TO.N,/sheet60201268/3*%
X71820000Y-48180000D03*
X71820000Y-50180000D03*
X71820000Y-52180000D03*
X73390000Y-54610000D03*
X75390000Y-54610000D03*
X77000000Y-54610000D03*
%TO.N,/sheet60201268/2*%
X90000000Y-54610000D03*
X87160000Y-47840000D03*
X87160000Y-49840000D03*
X87160000Y-51840000D03*
X86390000Y-54610000D03*
X88000000Y-54610000D03*
%TO.N,/sheet60201268/1*%
X107390000Y-54610000D03*
X105390000Y-54610000D03*
X103390000Y-54610000D03*
X98695000Y-47305000D03*
X100000000Y-48500000D03*
X101570000Y-50180000D03*
X101570000Y-52430000D03*
%TO.N,/sheet6028DD5A/4*%
X199340000Y-110160000D03*
X200840000Y-110160000D03*
X202840000Y-110160000D03*
X197480000Y-112520000D03*
X197480000Y-114520000D03*
X197480000Y-116020000D03*
%TO.N,/sheet6028DD5A/3*%
X181840000Y-110160000D03*
X183840000Y-110160000D03*
X185840000Y-110160000D03*
X187320000Y-112680000D03*
X187320000Y-116180000D03*
X187320000Y-114500000D03*
%TO.N,/sheet6028DD5A/2*%
X169330000Y-110170000D03*
X171330000Y-110170000D03*
X172830000Y-110170000D03*
X171930000Y-112570000D03*
X171930000Y-114570000D03*
X171930000Y-116570000D03*
%TO.N,/sheet6028DD5A/1*%
X159735000Y-116765000D03*
X157985000Y-115015000D03*
X157420000Y-113080000D03*
X155330000Y-110170000D03*
X153330000Y-110170000D03*
X151830000Y-110170000D03*
%TO.N,/3relay_block/4*%
X103820000Y-110180000D03*
X105320000Y-110180000D03*
X106820000Y-110180000D03*
X101550000Y-113450000D03*
X100500000Y-115500000D03*
X99000000Y-117000000D03*
%TO.N,/3relay_block/3*%
X86320000Y-110180000D03*
X88320000Y-110180000D03*
X89820000Y-110180000D03*
X87040000Y-112960000D03*
X87040000Y-114960000D03*
X87040000Y-116460000D03*
%TO.N,/3relay_block/2*%
X73820000Y-110180000D03*
X75500000Y-110180000D03*
X77000000Y-110180000D03*
X71720000Y-112280000D03*
X71720000Y-114280000D03*
X71720000Y-116280000D03*
%TO.N,/3relay_block/1*%
X56300000Y-110200000D03*
X58000000Y-110000000D03*
X59800000Y-110200000D03*
X61560000Y-112440000D03*
X61560000Y-114440000D03*
X61560000Y-116440000D03*
%TO.N,/4relay_block/L1*%
X198830000Y-59670000D03*
X202830000Y-59670000D03*
X200830000Y-59670000D03*
X192390000Y-48610000D03*
X192390000Y-50610000D03*
X192390000Y-52610000D03*
X192390000Y-55000000D03*
X192390000Y-57500000D03*
X194500000Y-59670000D03*
X192000000Y-59500000D03*
X190000000Y-59500000D03*
X185330000Y-59670000D03*
X183830000Y-59670000D03*
X182330000Y-59670000D03*
%TO.N,/4relay_block/L2*%
X172340000Y-59660000D03*
X170840000Y-59660000D03*
X169340000Y-59660000D03*
X165340000Y-59660000D03*
X162500000Y-59500000D03*
X159340000Y-59660000D03*
X155340000Y-59660000D03*
X153340000Y-59660000D03*
X151840000Y-59660000D03*
X166860000Y-48140000D03*
X163180000Y-52180000D03*
X164930000Y-50430000D03*
X162630000Y-54870000D03*
X162600000Y-57500000D03*
%TO.N,/sheet60201268/L1*%
X107350000Y-59650000D03*
X105350000Y-59650000D03*
X103350000Y-59650000D03*
X99350000Y-59650000D03*
X93350000Y-59650000D03*
X96500000Y-59650000D03*
X96760000Y-57000000D03*
X96760000Y-54240000D03*
X96015000Y-51985000D03*
X94015000Y-49985000D03*
X92240000Y-48210000D03*
X90350000Y-59650000D03*
X88350000Y-59650000D03*
X86350000Y-59650000D03*
%TO.N,/sheet60201268/L2*%
X77350000Y-59650000D03*
X75350000Y-59650000D03*
X73350000Y-59650000D03*
X69350000Y-59650000D03*
X63350000Y-59650000D03*
X66500000Y-59650000D03*
X60000000Y-59650000D03*
X58350000Y-59650000D03*
X56350000Y-59650000D03*
X66740000Y-57500000D03*
X66740000Y-55000000D03*
X66740000Y-52260000D03*
X66740000Y-50260000D03*
X66740000Y-48260000D03*
%TO.N,/3relay_block/L1*%
X76840000Y-105160000D03*
X74840000Y-105160000D03*
X73340000Y-105160000D03*
X69340000Y-105160000D03*
X66610000Y-105160000D03*
X64340000Y-105160000D03*
X59840000Y-105160000D03*
X57840000Y-105160000D03*
X56340000Y-105160000D03*
X66640000Y-116360000D03*
X66640000Y-114360000D03*
X66640000Y-112360000D03*
X66640000Y-109860000D03*
X66640000Y-107360000D03*
%TO.N,/3relay_block/L2*%
X106860000Y-105140000D03*
X105360000Y-105140000D03*
X103860000Y-105140000D03*
X99360000Y-105140000D03*
X94360000Y-105140000D03*
X89860000Y-105140000D03*
X87860000Y-105140000D03*
X86360000Y-105140000D03*
X92475000Y-116475000D03*
X93975000Y-114975000D03*
X95725000Y-113225000D03*
X96700000Y-110800000D03*
X96700000Y-108300000D03*
X96660000Y-105140000D03*
%TO.N,/sheet6028DD5A/L1*%
X151870000Y-105130000D03*
X153370000Y-105130000D03*
X155370000Y-105130000D03*
X159500000Y-105130000D03*
X162000000Y-105130000D03*
X164500000Y-105130000D03*
X169370000Y-105130000D03*
X171370000Y-105130000D03*
X172870000Y-105130000D03*
X162500000Y-108000000D03*
X162460000Y-110540000D03*
X162795000Y-112705000D03*
X164545000Y-114455000D03*
X166295000Y-116205000D03*
%TO.N,/sheet6028DD5A/L2*%
X202880000Y-105120000D03*
X200880000Y-105120000D03*
X199380000Y-105120000D03*
X194880000Y-105120000D03*
X192000000Y-105120000D03*
X189500000Y-105120000D03*
X185380000Y-105120000D03*
X183380000Y-105120000D03*
X181880000Y-105120000D03*
X192400000Y-116100000D03*
X192400000Y-114600000D03*
X192400000Y-112600000D03*
X192400000Y-110600000D03*
X192400000Y-108100000D03*
%TD*%
D20*
%TO.N,/COM*%
X78900000Y-84840000D02*
X79430000Y-84840000D01*
X79430000Y-84840000D02*
X84320000Y-79950000D01*
X101570000Y-79950000D02*
X104160000Y-79950000D01*
X104160000Y-79950000D02*
X109050000Y-84840000D01*
X60190000Y-84860000D02*
X61670000Y-84860000D01*
X55280000Y-79950000D02*
X60190000Y-84860000D01*
X54200000Y-79950000D02*
X55280000Y-79950000D01*
X69280000Y-79950000D02*
X71430000Y-79950000D01*
X64370000Y-84860000D02*
X69280000Y-79950000D01*
X61670000Y-84860000D02*
X64370000Y-84860000D01*
X77550000Y-84840000D02*
X78900000Y-84840000D01*
X72660000Y-79950000D02*
X77550000Y-84840000D01*
X71430000Y-79950000D02*
X72660000Y-79950000D01*
X90350000Y-84840000D02*
X91800000Y-84840000D01*
X85460000Y-79950000D02*
X90350000Y-84840000D01*
X84320000Y-79950000D02*
X85460000Y-79950000D01*
X99200000Y-79950000D02*
X101570000Y-79950000D01*
X94310000Y-84840000D02*
X99200000Y-79950000D01*
X91800000Y-84840000D02*
X94310000Y-84840000D01*
X179510000Y-79970000D02*
X174650000Y-84830000D01*
X180070000Y-79970000D02*
X179510000Y-79970000D01*
X127210000Y-91280000D02*
X130440000Y-91280000D01*
X120770000Y-84840000D02*
X127210000Y-91280000D01*
X109050000Y-84840000D02*
X120770000Y-84840000D01*
X151240000Y-79960000D02*
X149940000Y-79960000D01*
X156110000Y-84830000D02*
X151240000Y-79960000D01*
X157420000Y-84830000D02*
X156110000Y-84830000D01*
X159880000Y-84830000D02*
X157420000Y-84830000D01*
X164750000Y-79960000D02*
X159880000Y-84830000D01*
X167170000Y-79960000D02*
X164750000Y-79960000D01*
X168680000Y-79960000D02*
X167170000Y-79960000D01*
X173550000Y-84830000D02*
X168680000Y-79960000D01*
X174650000Y-84830000D02*
X173550000Y-84830000D01*
X181400000Y-79970000D02*
X180070000Y-79970000D01*
X186250000Y-84820000D02*
X181400000Y-79970000D01*
X187550000Y-84820000D02*
X186250000Y-84820000D01*
X189870000Y-84820000D02*
X187550000Y-84820000D01*
X194720000Y-79970000D02*
X189870000Y-84820000D01*
X197310000Y-79970000D02*
X194720000Y-79970000D01*
X198720000Y-79970000D02*
X197310000Y-79970000D01*
X203570000Y-84820000D02*
X198720000Y-79970000D01*
X204790000Y-84820000D02*
X203570000Y-84820000D01*
X126660000Y-114640000D02*
X126660000Y-105660000D01*
X124460000Y-116840000D02*
X126660000Y-114640000D01*
X124460000Y-118800000D02*
X124460000Y-116840000D01*
X126800000Y-96200000D02*
X126800000Y-105520000D01*
X126800000Y-105520000D02*
X126660000Y-105660000D01*
X125699989Y-95099989D02*
X126800000Y-96200000D01*
X125699989Y-92050011D02*
X125699989Y-95099989D01*
X126470000Y-91280000D02*
X125699989Y-92050011D01*
X127900000Y-91280000D02*
X126470000Y-91280000D01*
D21*
X138570000Y-48960000D02*
X138570000Y-51500000D01*
D20*
X138680020Y-66200020D02*
X138680020Y-51500000D01*
X139465119Y-66985119D02*
X138680020Y-66200020D01*
X138570000Y-49942307D02*
X138680010Y-50052317D01*
X138680010Y-50052317D02*
X138680010Y-51500000D01*
X138570000Y-48960000D02*
X138570000Y-49942307D01*
X139465119Y-77974881D02*
X139465119Y-66985119D01*
X130440000Y-91280000D02*
X132148716Y-91280000D01*
X132148716Y-91280000D02*
X139465119Y-83963597D01*
X139465119Y-80224881D02*
X139465119Y-77974881D01*
X139465119Y-83963597D02*
X139465119Y-80224881D01*
D22*
%TO.N,/L16*%
X136030000Y-48960000D02*
X136030000Y-49452930D01*
X136030000Y-49452930D02*
X137230000Y-50652930D01*
X137230000Y-50652930D02*
X137230000Y-67068245D01*
X137230000Y-67068245D02*
X138015109Y-67853354D01*
X138015109Y-67853354D02*
X138015109Y-82489891D01*
X138015109Y-82489891D02*
X131765000Y-88740000D01*
X131765000Y-88740000D02*
X130440000Y-88740000D01*
%TO.N,/L14*%
X130802013Y-86200000D02*
X130440000Y-86200000D01*
X136615087Y-68433262D02*
X136615087Y-80386926D01*
X133490000Y-48960000D02*
X134690010Y-50160010D01*
X136615087Y-80386926D02*
X130802013Y-86200000D01*
X134690010Y-66508185D02*
X136615087Y-68433262D01*
X134690010Y-50160010D02*
X134690010Y-66508185D01*
%TO.N,/L12*%
X135215065Y-79264900D02*
X130819965Y-83660000D01*
X135215065Y-69013170D02*
X135215065Y-79264900D01*
X132150010Y-50160010D02*
X132150010Y-65948115D01*
X132150010Y-65948115D02*
X135215065Y-69013170D01*
X130819965Y-83660000D02*
X130440000Y-83660000D01*
X130950000Y-48960000D02*
X132150010Y-50160010D01*
%TO.N,/L10*%
X133649934Y-78132100D02*
X130662033Y-81120000D01*
X133649934Y-78125109D02*
X133649934Y-78132100D01*
X133815043Y-77960000D02*
X133649934Y-78125109D01*
X130662033Y-81120000D02*
X130440000Y-81120000D01*
X133815043Y-69593078D02*
X133815043Y-77960000D01*
X129749990Y-65528025D02*
X133815043Y-69593078D01*
X129749990Y-50299990D02*
X129749990Y-65528025D01*
X128410000Y-48960000D02*
X129749990Y-50299990D01*
%TO.N,/L8*%
X127070010Y-50160010D02*
X127070010Y-64827975D01*
X130662035Y-78580000D02*
X130440000Y-78580000D01*
X127070010Y-64827975D02*
X132415021Y-70172986D01*
X125870000Y-48960000D02*
X127070010Y-50160010D01*
X132415021Y-70172986D02*
X132415021Y-76827014D01*
X132415021Y-76827014D02*
X130662035Y-78580000D01*
%TO.N,/L6*%
X121900000Y-59487176D02*
X121900000Y-69412049D01*
X123330000Y-48462968D02*
X120877000Y-46009968D01*
X117173032Y-46009968D02*
X115649968Y-47533032D01*
X129239990Y-74839990D02*
X130440000Y-76040000D01*
X120877000Y-46009968D02*
X117173032Y-46009968D01*
X123330000Y-48960000D02*
X123330000Y-48462968D01*
X121900000Y-69412049D02*
X127327941Y-74839990D01*
X115649968Y-53237144D02*
X121900000Y-59487176D01*
X115649968Y-47533032D02*
X115649968Y-53237144D01*
X127327941Y-74839990D02*
X129239990Y-74839990D01*
%TO.N,/L4*%
X120790000Y-48960000D02*
X119239990Y-47409990D01*
X117752940Y-47409990D02*
X117049990Y-48112940D01*
X123420000Y-59027246D02*
X123420000Y-68737245D01*
X119239990Y-47409990D02*
X117752940Y-47409990D01*
X126982745Y-72299990D02*
X129239990Y-72299990D01*
X117049990Y-48112940D02*
X117049990Y-52657236D01*
X117049990Y-52657236D02*
X123420000Y-59027246D01*
X129239990Y-72299990D02*
X130440000Y-73500000D01*
X123420000Y-68737245D02*
X126982745Y-72299990D01*
%TO.N,/L2*%
X124980000Y-65500000D02*
X130440000Y-70960000D01*
X119589990Y-50299990D02*
X119589990Y-52347060D01*
X124980000Y-57737070D02*
X124980000Y-65500000D01*
X119589990Y-52347060D02*
X124980000Y-57737070D01*
X118250000Y-48960000D02*
X119589990Y-50299990D01*
%TO.N,/L15*%
X137315098Y-81096971D02*
X130872079Y-87539990D01*
X137315098Y-68143308D02*
X137315098Y-81096971D01*
X129100010Y-87539990D02*
X127900000Y-88740000D01*
X130872079Y-87539990D02*
X129100010Y-87539990D01*
X136030000Y-51500000D02*
X136030000Y-66858210D01*
X136030000Y-66858210D02*
X137315098Y-68143308D01*
%TO.N,/L13*%
X129100010Y-84999990D02*
X127900000Y-86200000D01*
X135915076Y-80094924D02*
X135850000Y-80160000D01*
X135850000Y-80160000D02*
X135850000Y-80162049D01*
X133490000Y-51500000D02*
X133490000Y-66298140D01*
X133490000Y-66298140D02*
X135915076Y-68723216D01*
X135915076Y-68723216D02*
X135915076Y-80094924D01*
X135850000Y-80162049D02*
X131012059Y-84999990D01*
X131012059Y-84999990D02*
X129100010Y-84999990D01*
%TO.N,/L11*%
X129100010Y-82459990D02*
X127900000Y-83660000D01*
X134515054Y-69303124D02*
X134515054Y-78974946D01*
X134202049Y-79270000D02*
X131012060Y-82459989D01*
X130950000Y-51500000D02*
X130950000Y-65738070D01*
X134515054Y-78974946D02*
X134220000Y-79270000D01*
X130950000Y-65738070D02*
X134515054Y-69303124D01*
X134220000Y-79270000D02*
X134202049Y-79270000D01*
X131012060Y-82459989D02*
X129100010Y-82459990D01*
%TO.N,/L9*%
X52370000Y-79330000D02*
X52370000Y-83060000D01*
X53390000Y-78310000D02*
X52370000Y-79330000D01*
X52370000Y-83060000D02*
X54170000Y-84860000D01*
X110560000Y-78310000D02*
X53390000Y-78310000D01*
X113370000Y-81120000D02*
X110560000Y-78310000D01*
X127900000Y-81120000D02*
X113370000Y-81120000D01*
X132949923Y-77842146D02*
X130872079Y-79919990D01*
X132949923Y-77830077D02*
X132949923Y-77842146D01*
X130872079Y-79919990D02*
X129100010Y-79919990D01*
X133115032Y-77664968D02*
X132949923Y-77830077D01*
X133115032Y-69883032D02*
X133115032Y-77664968D01*
X129100010Y-79919990D02*
X127900000Y-81120000D01*
X128410000Y-65178000D02*
X133115032Y-69883032D01*
X128410000Y-51500000D02*
X128410000Y-65178000D01*
%TO.N,/L7*%
X131715010Y-70462940D02*
X131715010Y-76537060D01*
X130872080Y-77379990D02*
X129100010Y-77379990D01*
X125870000Y-64617930D02*
X131715010Y-70462940D01*
X125870000Y-51500000D02*
X125870000Y-64617930D01*
X131715010Y-76537060D02*
X130872080Y-77379990D01*
X129100010Y-77379990D02*
X127900000Y-78580000D01*
%TO.N,/L5*%
X127537987Y-76040000D02*
X127900000Y-76040000D01*
X121190000Y-69692013D02*
X127537987Y-76040000D01*
X121190000Y-59767141D02*
X121190000Y-69692013D01*
X114949957Y-53527098D02*
X121190000Y-59767141D01*
X114949957Y-47243078D02*
X114949957Y-53527098D01*
X121727030Y-45309960D02*
X119616925Y-45309960D01*
X119616925Y-45309960D02*
X119616922Y-45309957D01*
X124530010Y-48112940D02*
X121727030Y-45309960D01*
X116883078Y-45309957D02*
X114949957Y-47243078D01*
X119616922Y-45309957D02*
X116883078Y-45309957D01*
X124530010Y-50299990D02*
X124530010Y-48112940D01*
X123330000Y-51500000D02*
X124530010Y-50299990D01*
%TO.N,/L3*%
X127192791Y-73500000D02*
X127900000Y-73500000D01*
X120587047Y-46709979D02*
X117462986Y-46709979D01*
X122600011Y-59197222D02*
X122600011Y-68907220D01*
X116349979Y-52947190D02*
X122600011Y-59197222D01*
X121990010Y-48112942D02*
X120587047Y-46709979D01*
X116349979Y-47822986D02*
X116349979Y-52947190D01*
X121990010Y-50299990D02*
X121990010Y-48112942D01*
X120790000Y-51500000D02*
X121990010Y-50299990D01*
X122600011Y-68907220D02*
X127192791Y-73500000D01*
X117462986Y-46709979D02*
X116349979Y-47822986D01*
%TO.N,/L1*%
X118250000Y-51997035D02*
X124190000Y-57937035D01*
X118250000Y-51500000D02*
X118250000Y-51997035D01*
X124190000Y-57937035D02*
X124190000Y-67250000D01*
X124190000Y-67250000D02*
X127900000Y-70960000D01*
D20*
%TO.N,/4relay_block/4*%
X149940000Y-54620000D02*
X151880000Y-54620000D01*
X157440000Y-50310000D02*
X158625000Y-49125000D01*
X157440000Y-54620000D02*
X157440000Y-52060000D01*
X151880000Y-54620000D02*
X153380000Y-54620000D01*
X153380000Y-54620000D02*
X155380000Y-54620000D01*
X155380000Y-54620000D02*
X157440000Y-54620000D01*
X157440000Y-52060000D02*
X157440000Y-50560000D01*
X157440000Y-50560000D02*
X157440000Y-50310000D01*
X158625000Y-49125000D02*
X159875000Y-47875000D01*
X159875000Y-47875000D02*
X161780000Y-45970000D01*
%TO.N,/4relay_block/3*%
X171940000Y-54560000D02*
X171880000Y-54620000D01*
X171940000Y-45970000D02*
X171940000Y-49060000D01*
X171880000Y-54620000D02*
X170880000Y-54620000D01*
X174670000Y-54620000D02*
X172380000Y-54620000D01*
X172380000Y-54620000D02*
X171880000Y-54620000D01*
X170880000Y-54620000D02*
X169380000Y-54620000D01*
X169380000Y-54620000D02*
X167170000Y-54620000D01*
X171940000Y-52060000D02*
X171940000Y-54560000D01*
X171940000Y-50560000D02*
X171940000Y-52060000D01*
X171940000Y-49060000D02*
X171940000Y-50560000D01*
%TO.N,/4relay_block/2*%
X187310000Y-54370000D02*
X187570000Y-54630000D01*
X187310000Y-45980000D02*
X187310000Y-48690000D01*
X187570000Y-54630000D02*
X185370000Y-54630000D01*
X187310000Y-50190000D02*
X187310000Y-52190000D01*
X187310000Y-52190000D02*
X187310000Y-54370000D01*
X185370000Y-54630000D02*
X183870000Y-54630000D01*
X183870000Y-54630000D02*
X182370000Y-54630000D01*
X182370000Y-54630000D02*
X180070000Y-54630000D01*
X187310000Y-48690000D02*
X187310000Y-50190000D01*
%TO.N,/4relay_block/1*%
X204810000Y-54630000D02*
X202870000Y-54630000D01*
X197470000Y-54470000D02*
X197310000Y-54630000D01*
X197470000Y-45980000D02*
X197470000Y-48530000D01*
X202870000Y-54630000D02*
X200870000Y-54630000D01*
X200870000Y-54630000D02*
X198870000Y-54630000D01*
X198870000Y-54630000D02*
X197310000Y-54630000D01*
X197470000Y-52530000D02*
X197470000Y-54470000D01*
X197470000Y-50530000D02*
X197470000Y-52530000D01*
X197470000Y-48530000D02*
X197470000Y-50530000D01*
%TO.N,/sheet60201268/4*%
X61660000Y-54570000D02*
X61700000Y-54610000D01*
X61660000Y-45990000D02*
X61660000Y-48340000D01*
X61700000Y-54610000D02*
X56390000Y-54610000D01*
X61660000Y-51340000D02*
X61660000Y-54570000D01*
X61660000Y-50340000D02*
X61660000Y-51340000D01*
X61660000Y-49340000D02*
X61660000Y-50340000D01*
X61660000Y-48340000D02*
X61660000Y-49340000D01*
X56390000Y-54610000D02*
X54200000Y-54610000D01*
%TO.N,/sheet60201268/3*%
X78930000Y-54610000D02*
X71430000Y-54610000D01*
X71820000Y-54220000D02*
X71430000Y-54610000D01*
X71820000Y-45990000D02*
X71820000Y-54220000D01*
%TO.N,/sheet60201268/2*%
X87160000Y-54160000D02*
X87610000Y-54610000D01*
X87160000Y-45930000D02*
X87160000Y-47840000D01*
X87610000Y-54610000D02*
X89390000Y-54610000D01*
X84320000Y-54610000D02*
X86390000Y-54610000D01*
X90390000Y-54610000D02*
X91820000Y-54610000D01*
X89390000Y-54610000D02*
X90390000Y-54610000D01*
X87160000Y-47840000D02*
X87160000Y-48840000D01*
X87160000Y-48840000D02*
X87160000Y-49840000D01*
X87160000Y-49840000D02*
X87160000Y-50840000D01*
X87160000Y-50840000D02*
X87160000Y-51840000D01*
X87160000Y-51840000D02*
X87160000Y-52840000D01*
X87160000Y-52840000D02*
X87160000Y-54160000D01*
X86390000Y-54610000D02*
X87610000Y-54610000D01*
X87610000Y-54610000D02*
X87610000Y-54610000D01*
%TO.N,/sheet60201268/1*%
X101570000Y-54610000D02*
X103390000Y-54610000D01*
X101570000Y-50180000D02*
X100695000Y-49305000D01*
X101570000Y-54610000D02*
X101570000Y-52430000D01*
X107390000Y-54610000D02*
X109070000Y-54610000D01*
X106390000Y-54610000D02*
X107390000Y-54610000D01*
X105390000Y-54610000D02*
X106390000Y-54610000D01*
X104390000Y-54610000D02*
X105390000Y-54610000D01*
X103390000Y-54610000D02*
X104390000Y-54610000D01*
X98695000Y-47305000D02*
X97320000Y-45930000D01*
X99695000Y-48305000D02*
X98695000Y-47305000D01*
X100695000Y-49305000D02*
X99695000Y-48305000D01*
X101570000Y-50180000D02*
X101570000Y-50180000D01*
X101570000Y-51430000D02*
X101570000Y-50180000D01*
X101570000Y-52430000D02*
X101570000Y-51430000D01*
%TO.N,/sheet6028DD5A/4*%
X197480000Y-110350000D02*
X197290000Y-110160000D01*
X197480000Y-118810000D02*
X197480000Y-110350000D01*
X204790000Y-110160000D02*
X197290000Y-110160000D01*
%TO.N,/sheet6028DD5A/3*%
X187320000Y-110390000D02*
X187550000Y-110160000D01*
X187320000Y-118810000D02*
X187320000Y-110390000D01*
X187550000Y-110160000D02*
X180050000Y-110160000D01*
%TO.N,/sheet6028DD5A/2*%
X171930000Y-118800000D02*
X171930000Y-110270000D01*
X171930000Y-110270000D02*
X171830000Y-110170000D01*
X171830000Y-110170000D02*
X167150000Y-110170000D01*
X174650000Y-110170000D02*
X171830000Y-110170000D01*
%TO.N,/sheet6028DD5A/1*%
X157420000Y-114450000D02*
X161770000Y-118800000D01*
X157420000Y-110170000D02*
X157420000Y-114450000D01*
X157420000Y-110170000D02*
X149920000Y-110170000D01*
%TO.N,/3relay_block/4*%
X101550000Y-110180000D02*
X109050000Y-110180000D01*
X101550000Y-114450000D02*
X97200000Y-118800000D01*
X101550000Y-110180000D02*
X101550000Y-114450000D01*
%TO.N,/3relay_block/3*%
X87040000Y-110540000D02*
X86680000Y-110180000D01*
X87040000Y-118800000D02*
X87040000Y-110540000D01*
X86680000Y-110180000D02*
X84300000Y-110180000D01*
X91800000Y-110180000D02*
X86680000Y-110180000D01*
%TO.N,/3relay_block/2*%
X78900000Y-110180000D02*
X71400000Y-110180000D01*
X71720000Y-110500000D02*
X71400000Y-110180000D01*
X71720000Y-118810000D02*
X71720000Y-110500000D01*
%TO.N,/3relay_block/1*%
X61560000Y-110310000D02*
X61670000Y-110200000D01*
X61560000Y-118810000D02*
X61560000Y-110310000D01*
X61670000Y-110200000D02*
X54170000Y-110200000D01*
%TO.N,GND*%
X131260000Y-94640000D02*
X130440000Y-93820000D01*
X131260000Y-105660000D02*
X131260000Y-94640000D01*
X130440000Y-93820000D02*
X127900000Y-93820000D01*
X131260000Y-115420000D02*
X131260000Y-105660000D01*
X129540000Y-117140000D02*
X131260000Y-115420000D01*
X129540000Y-118800000D02*
X129540000Y-117140000D01*
X141080000Y-48990000D02*
X141110000Y-48960000D01*
X142290000Y-84250000D02*
X142290000Y-66350000D01*
X141080000Y-65140000D02*
X141080000Y-48990000D01*
X142290000Y-66350000D02*
X141080000Y-65140000D01*
X132720000Y-93820000D02*
X142290000Y-84250000D01*
X130440000Y-93820000D02*
X132720000Y-93820000D01*
%TO.N,/4relay_block/L1*%
X192390000Y-59610000D02*
X192330000Y-59670000D01*
X192390000Y-45980000D02*
X192390000Y-48610000D01*
X192330000Y-59670000D02*
X192330000Y-59670000D01*
X180070000Y-59670000D02*
X182330000Y-59670000D01*
X198830000Y-59670000D02*
X200830000Y-59670000D01*
X202830000Y-59670000D02*
X204810000Y-59670000D01*
X200830000Y-59670000D02*
X202830000Y-59670000D01*
X192390000Y-48610000D02*
X192390000Y-50610000D01*
X192390000Y-50610000D02*
X192390000Y-52610000D01*
X192390000Y-52610000D02*
X192390000Y-54610000D01*
X192390000Y-54610000D02*
X192390000Y-56610000D01*
X192390000Y-56610000D02*
X192390000Y-58110000D01*
X192390000Y-58110000D02*
X192390000Y-59610000D01*
X192330000Y-59670000D02*
X193830000Y-59670000D01*
X193830000Y-59670000D02*
X195330000Y-59670000D01*
X195330000Y-59670000D02*
X198830000Y-59670000D01*
X190830000Y-59670000D02*
X192330000Y-59670000D01*
X189330000Y-59670000D02*
X190830000Y-59670000D01*
X185330000Y-59670000D02*
X189330000Y-59670000D01*
X183830000Y-59670000D02*
X185330000Y-59670000D01*
X182330000Y-59670000D02*
X183830000Y-59670000D01*
%TO.N,/4relay_block/L2*%
X162660000Y-59660000D02*
X163340000Y-59660000D01*
X149940000Y-59660000D02*
X151840000Y-59660000D01*
X162600000Y-52760000D02*
X162600000Y-56400000D01*
X166860000Y-48500000D02*
X164930000Y-50430000D01*
X162600000Y-59600000D02*
X162660000Y-59660000D01*
X166860000Y-45970000D02*
X166860000Y-48140000D01*
X172840000Y-59660000D02*
X174670000Y-59660000D01*
X171340000Y-59660000D02*
X172340000Y-59660000D01*
X169840000Y-59660000D02*
X170840000Y-59660000D01*
X172340000Y-59660000D02*
X172840000Y-59660000D01*
X170840000Y-59660000D02*
X171340000Y-59660000D01*
X169340000Y-59660000D02*
X169840000Y-59660000D01*
X165340000Y-59660000D02*
X169340000Y-59660000D01*
X163840000Y-59660000D02*
X165340000Y-59660000D01*
X162340000Y-59660000D02*
X162660000Y-59660000D01*
X160840000Y-59660000D02*
X162340000Y-59660000D01*
X159340000Y-59660000D02*
X160840000Y-59660000D01*
X155340000Y-59660000D02*
X159340000Y-59660000D01*
X153340000Y-59660000D02*
X155340000Y-59660000D01*
X151840000Y-59660000D02*
X153340000Y-59660000D01*
X166860000Y-48140000D02*
X166860000Y-48500000D01*
X163180000Y-52180000D02*
X162600000Y-52760000D01*
X164930000Y-50430000D02*
X163180000Y-52180000D01*
X162600000Y-56400000D02*
X162600000Y-57900000D01*
X162600000Y-57900000D02*
X162600000Y-59600000D01*
X163340000Y-59660000D02*
X163840000Y-59660000D01*
%TO.N,/sheet60201268/L1*%
X96760000Y-59650000D02*
X98350000Y-59650000D01*
X84320000Y-59650000D02*
X86350000Y-59650000D01*
X96760000Y-52730000D02*
X96760000Y-53240000D01*
X92240000Y-48210000D02*
X93015000Y-48985000D01*
X92240000Y-45930000D02*
X92240000Y-48210000D01*
X107350000Y-59650000D02*
X109070000Y-59650000D01*
X106350000Y-59650000D02*
X107350000Y-59650000D01*
X105350000Y-59650000D02*
X106350000Y-59650000D01*
X104350000Y-59650000D02*
X105350000Y-59650000D01*
X103350000Y-59650000D02*
X104350000Y-59650000D01*
X99350000Y-59650000D02*
X103350000Y-59650000D01*
X98350000Y-59650000D02*
X99350000Y-59650000D01*
X93350000Y-59650000D02*
X94350000Y-59650000D01*
X94350000Y-59650000D02*
X95350000Y-59650000D01*
X95350000Y-59650000D02*
X96350000Y-59650000D01*
X96350000Y-59650000D02*
X96760000Y-59650000D01*
X96760000Y-58240000D02*
X96760000Y-59650000D01*
X96760000Y-57240000D02*
X96760000Y-58240000D01*
X96760000Y-56240000D02*
X96760000Y-57240000D01*
X96760000Y-55240000D02*
X96760000Y-56240000D01*
X96760000Y-54240000D02*
X96760000Y-55240000D01*
X96760000Y-53240000D02*
X96760000Y-54240000D01*
X96015000Y-51985000D02*
X96760000Y-52730000D01*
X95015000Y-50985000D02*
X96015000Y-51985000D01*
X94015000Y-49985000D02*
X95015000Y-50985000D01*
X93015000Y-48985000D02*
X94015000Y-49985000D01*
X92240000Y-48210000D02*
X92240000Y-48210000D01*
X90350000Y-59650000D02*
X93350000Y-59650000D01*
X89350000Y-59650000D02*
X90350000Y-59650000D01*
X88350000Y-59650000D02*
X89350000Y-59650000D01*
X87350000Y-59650000D02*
X88350000Y-59650000D01*
X86350000Y-59650000D02*
X87350000Y-59650000D01*
%TO.N,/sheet60201268/L2*%
X66740000Y-59610000D02*
X66780000Y-59650000D01*
X66740000Y-45990000D02*
X66740000Y-59610000D01*
X66780000Y-59650000D02*
X67350000Y-59650000D01*
X54200000Y-59650000D02*
X66780000Y-59650000D01*
X67350000Y-59650000D02*
X78930000Y-59650000D01*
%TO.N,/3relay_block/L1*%
X78880000Y-105160000D02*
X78900000Y-105140000D01*
X66640000Y-105180000D02*
X66660000Y-105160000D01*
X66640000Y-118810000D02*
X66640000Y-105180000D01*
X66660000Y-105160000D02*
X78880000Y-105160000D01*
X54170000Y-105160000D02*
X66660000Y-105160000D01*
%TO.N,/3relay_block/L2*%
X109050000Y-105140000D02*
X96660000Y-105140000D01*
X92120000Y-116830000D02*
X92475000Y-116475000D01*
X92120000Y-118800000D02*
X92120000Y-116830000D01*
X96500000Y-112450000D02*
X92475000Y-116475000D01*
X96690000Y-105310000D02*
X96690000Y-112260000D01*
X96690000Y-112260000D02*
X96500000Y-112450000D01*
X96860000Y-105140000D02*
X96690000Y-105310000D01*
X96660000Y-105140000D02*
X84300000Y-105140000D01*
%TO.N,/sheet6028DD5A/L1*%
X174650000Y-105130000D02*
X163370000Y-105130000D01*
X167150000Y-105130000D02*
X149920000Y-105130000D01*
X162450000Y-106050000D02*
X162500000Y-106000000D01*
X162450000Y-112360000D02*
X162450000Y-106050000D01*
X166850000Y-116760000D02*
X162450000Y-112360000D01*
X166850000Y-118800000D02*
X166850000Y-116760000D01*
%TO.N,/sheet6028DD5A/L2*%
X192400000Y-105140000D02*
X192380000Y-105120000D01*
X192400000Y-118810000D02*
X192400000Y-105140000D01*
X192380000Y-105120000D02*
X180050000Y-105120000D01*
X204790000Y-105120000D02*
X192380000Y-105120000D01*
%TD*%
M02*
