M48
; DRILL file {KiCad 5.1.9-73d0e3b20d~88~ubuntu20.04.1} date Wed Mar  3 11:34:17 2021
; FORMAT={-:-/ absolute / inch / decimal}
; #@! TF.CreationDate,2021-03-03T11:34:17+04:00
; #@! TF.GenerationSoftware,Kicad,Pcbnew,5.1.9-73d0e3b20d~88~ubuntu20.04.1
FMAT,2
INCH
T1C0.0157
T2C0.0394
T3C0.0433
T4C0.0472
T5C0.0512
%
G90
G05
T1
X2.2165Y-4.3386
X2.2181Y-4.1402
X2.2185Y-2.3484
X2.2201Y-2.15
X2.2772Y-4.1402
X2.2835Y-2.15
X2.2835Y-4.3307
X2.2972Y-2.3484
X2.3382Y-2.15
X2.3543Y-4.3386
X2.3559Y-4.1402
X2.3622Y-2.3484
X2.4236Y-4.4268
X2.4236Y-4.5055
X2.4236Y-4.5843
X2.4268Y-2.0614
X2.4276Y-1.9031
X2.4276Y-1.9819
X2.4941Y-2.3484
X2.5331Y-4.1402
X2.6181Y-2.3484
X2.6224Y-4.1402
X2.6236Y-4.2268
X2.6236Y-4.3252
X2.6236Y-4.4236
X2.6236Y-4.5024
X2.6236Y-4.5811
X2.6276Y-1.9
X2.6276Y-1.9787
X2.6276Y-2.0575
X2.6276Y-2.1654
X2.6276Y-2.2638
X2.7299Y-4.1402
X2.7303Y-2.3484
X2.8236Y-4.4205
X2.8236Y-4.4992
X2.8236Y-4.578
X2.8276Y-1.8969
X2.8276Y-1.9756
X2.8276Y-2.0543
X2.8874Y-4.1402
X2.8878Y-2.3484
X2.8894Y-2.15
X2.9063Y-4.3378
X2.9465Y-4.1402
X2.9665Y-2.3484
X2.9681Y-2.15
X2.9724Y-4.3378
X3.0252Y-4.1402
X3.0315Y-2.15
X3.0315Y-4.3378
X3.0453Y-2.3484
X3.3984Y-4.3378
X3.3996Y-2.3484
X3.4Y-4.1394
X3.4012Y-2.15
X3.4268Y-4.4472
X3.4268Y-4.526
X3.4268Y-4.585
X3.4315Y-1.8835
X3.4315Y-1.9622
X3.4315Y-2.0409
X3.4591Y-4.1394
X3.4646Y-2.15
X3.4772Y-4.3378
X3.4783Y-2.3484
X3.5362Y-4.3378
X3.5378Y-4.1394
X3.5433Y-2.15
X3.5571Y-2.3484
X3.6315Y-1.898
X3.6407Y-4.5856
X3.6752Y-2.3484
X3.6998Y-4.5266
X3.7014Y-1.9679
X3.715Y-4.1394
X3.7687Y-4.4577
X3.7801Y-2.0467
X3.7992Y-2.3484
X3.8055Y-4.1394
X3.8071Y-4.2638
X3.8071Y-4.3622
X3.8094Y-2.1354
X3.8094Y-2.2441
X3.8856Y-1.8624
X3.8976Y-4.6063
X3.9114Y-2.3484
X3.9118Y-4.1394
X3.937Y-1.9094
X3.9567Y-4.5472
X3.998Y-4.4665
X3.9988Y-1.9756
X3.9988Y-2.0642
X4.0689Y-2.3484
X4.0705Y-2.15
X4.0874Y-4.3378
X4.089Y-4.1394
X4.1465Y-4.3378
X4.1476Y-2.3484
X4.148Y-4.1394
X4.1492Y-2.15
X4.2055Y-4.3378
X4.2071Y-4.1394
X4.2264Y-2.3484
X4.228Y-2.15
X5.4908Y-3.1585
X5.9776Y-4.3374
X5.978Y-2.3488
X5.9791Y-4.139
X5.9795Y-2.1504
X6.0366Y-4.3374
X6.037Y-2.3488
X6.0382Y-4.139
X6.0386Y-2.1504
X6.1154Y-4.3374
X6.1157Y-2.3488
X6.1169Y-4.139
X6.1173Y-2.1504
X6.1976Y-4.452
X6.1984Y-1.9906
X6.1984Y-2.0496
X6.2199Y-4.5281
X6.2451Y-1.9341
X6.2732Y-2.3488
X6.2795Y-4.139
X6.2888Y-4.597
X6.2943Y-1.8848
X6.378Y-4.139
X6.3961Y-4.352
X6.3976Y-2.3425
X6.3976Y-4.252
X6.4016Y-2.2638
X6.4028Y-2.1602
X6.4093Y-4.4372
X6.4244Y-2.0543
X6.4764Y-4.139
X6.4781Y-4.5061
X6.4933Y-1.9854
X6.5094Y-2.3488
X6.547Y-4.575
X6.5693Y-1.8953
X6.6665Y-4.3374
X6.6669Y-2.3488
X6.6681Y-4.139
X6.6685Y-2.1504
X6.726Y-2.3488
X6.7276Y-2.1504
X6.7453Y-4.3374
X6.7469Y-4.139
X6.7689Y-4.4319
X6.7689Y-4.5106
X6.7689Y-4.5894
X6.7693Y-1.9315
X6.7693Y-1.9906
X6.7693Y-2.0496
X6.785Y-2.3488
X6.7866Y-2.1504
X6.8043Y-4.3374
X6.8059Y-4.139
X7.1591Y-4.337
X7.1606Y-4.1386
X7.1783Y-2.3492
X7.1799Y-2.1508
X7.2197Y-4.1386
X7.2374Y-2.3492
X7.2378Y-4.337
X7.239Y-2.1508
X7.2965Y-2.3492
X7.298Y-2.1508
X7.2984Y-4.1386
X7.3165Y-4.337
X7.3744Y-1.9169
X7.3744Y-1.976
X7.3744Y-2.0547
X7.3748Y-4.4362
X7.3748Y-4.5079
X7.3748Y-4.574
X7.4606Y-4.1386
X7.4803Y-2.3425
X7.5591Y-2.3425
X7.5591Y-4.1386
X7.5744Y-1.9138
X7.5744Y-1.9925
X7.5744Y-2.0713
X7.5744Y-2.1654
X7.5744Y-2.2638
X7.5748Y-4.2559
X7.5748Y-4.3543
X7.5748Y-4.4331
X7.5748Y-4.5118
X7.5748Y-4.5709
X7.6575Y-2.3492
X7.6724Y-4.1386
X7.7744Y-1.9106
X7.7744Y-1.9894
X7.7744Y-2.0681
X7.7748Y-4.4299
X7.7748Y-4.5087
X7.7748Y-4.5677
X7.828Y-2.3492
X7.8295Y-2.1508
X7.848Y-4.337
X7.8496Y-4.1386
X7.9067Y-2.3492
X7.9071Y-4.337
X7.9083Y-2.1508
X7.9087Y-4.1386
X7.9854Y-2.3492
X7.9858Y-4.337
X7.987Y-2.1508
X7.9874Y-4.1386
T2
X4.6555Y-1.9276
X4.6555Y-2.0276
X4.7555Y-1.9276
X4.7555Y-2.0276
X4.8555Y-1.9276
X4.8555Y-2.0276
X4.9555Y-1.9276
X4.9555Y-2.0276
X5.0354Y-2.7937
X5.0354Y-2.8937
X5.0354Y-2.9937
X5.0354Y-3.0937
X5.0354Y-3.1937
X5.0354Y-3.2937
X5.0354Y-3.3937
X5.0354Y-3.4937
X5.0354Y-3.5937
X5.0354Y-3.6937
X5.0555Y-1.9276
X5.0555Y-2.0276
X5.1354Y-2.7937
X5.1354Y-2.8937
X5.1354Y-2.9937
X5.1354Y-3.0937
X5.1354Y-3.1937
X5.1354Y-3.2937
X5.1354Y-3.3937
X5.1354Y-3.4937
X5.1354Y-3.5937
X5.1354Y-3.6937
X5.1555Y-1.9276
X5.1555Y-2.0276
X5.2555Y-1.9276
X5.2555Y-2.0276
X5.3555Y-1.9276
X5.3555Y-2.0276
X5.4555Y-1.9276
X5.4555Y-2.0276
X5.5555Y-1.9276
X5.5555Y-2.0276
T3
X4.9866Y-4.1598
X5.1677Y-4.1598
T4
X2.4236Y-4.6776
X2.4276Y-1.8106
X2.6236Y-4.6776
X2.6276Y-1.8106
X2.8236Y-4.6776
X2.8276Y-1.8106
X3.4268Y-4.6772
X3.4315Y-1.8083
X3.6268Y-4.6772
X3.6315Y-1.8083
X3.8268Y-4.6772
X3.8315Y-1.8083
X4.9Y-4.6772
X5.1Y-4.6772
X6.3689Y-4.6772
X6.3693Y-1.8098
X6.5689Y-4.6772
X6.5693Y-1.8098
X6.7689Y-4.6772
X6.7693Y-1.8098
X7.3744Y-1.8102
X7.3748Y-4.6776
X7.5744Y-1.8102
X7.5748Y-4.6776
X7.7744Y-1.8102
X7.7748Y-4.6776
T5
X2.1327Y-3.3409
X2.1327Y-4.1402
X2.1327Y-4.3386
X2.1339Y-2.15
X2.1339Y-2.3484
X2.1339Y-3.1476
X2.428Y-3.3409
X2.428Y-4.1402
X2.428Y-4.3386
X2.4291Y-2.15
X2.4291Y-2.3484
X2.4291Y-3.1476
X2.811Y-3.3402
X2.811Y-4.1394
X2.811Y-4.3378
X2.8122Y-2.15
X2.8122Y-2.3484
X2.8122Y-3.1476
X3.1063Y-3.3402
X3.1063Y-4.1394
X3.1063Y-4.3378
X3.1075Y-2.15
X3.1075Y-2.3484
X3.1075Y-3.1476
X3.3189Y-3.3402
X3.3189Y-4.1394
X3.3189Y-4.3378
X3.3197Y-2.15
X3.3197Y-2.3484
X3.3197Y-3.1476
X3.6142Y-3.3402
X3.6142Y-4.1394
X3.6142Y-4.3378
X3.615Y-2.15
X3.615Y-2.3484
X3.615Y-3.1476
X3.998Y-3.3402
X3.998Y-4.1394
X3.998Y-4.3378
X3.9988Y-2.15
X3.9988Y-2.3484
X3.9988Y-3.1476
X4.2933Y-3.3402
X4.2933Y-4.1394
X4.2933Y-4.3378
X4.2941Y-2.15
X4.2941Y-2.3484
X4.2941Y-3.1476
X5.9024Y-3.3398
X5.9024Y-4.139
X5.9024Y-4.3374
X5.9031Y-2.1504
X5.9031Y-2.3488
X5.9031Y-3.148
X6.1976Y-3.3398
X6.1976Y-4.139
X6.1976Y-4.3374
X6.1984Y-2.1504
X6.1984Y-2.3488
X6.1984Y-3.148
X6.5807Y-3.3398
X6.5807Y-4.139
X6.5807Y-4.3374
X6.5815Y-2.1504
X6.5815Y-2.3488
X6.5815Y-3.148
X6.876Y-3.3398
X6.876Y-4.139
X6.876Y-4.3374
X6.8768Y-2.1504
X6.8768Y-2.3488
X6.8768Y-3.148
X7.0886Y-3.3394
X7.0886Y-4.1386
X7.0886Y-4.337
X7.0894Y-2.1508
X7.0894Y-2.3492
X7.0894Y-3.1484
X7.3839Y-3.3394
X7.3839Y-4.1386
X7.3839Y-4.337
X7.3846Y-2.1508
X7.3846Y-2.3492
X7.3846Y-3.1484
X7.7673Y-3.3394
X7.7673Y-4.1386
X7.7673Y-4.337
X7.7681Y-2.1508
X7.7681Y-2.3492
X7.7681Y-3.1484
X8.0626Y-3.3394
X8.0626Y-4.1386
X8.0626Y-4.337
X8.0634Y-2.1508
X8.0634Y-2.3492
X8.0634Y-3.1484
T0
M30
