%TF.GenerationSoftware,KiCad,Pcbnew,5.1.9-73d0e3b20d~88~ubuntu20.04.1*%
%TF.CreationDate,2021-03-03T11:34:14+04:00*%
%TF.ProjectId,relay_board,72656c61-795f-4626-9f61-72642e6b6963,rev?*%
%TF.SameCoordinates,Original*%
%TF.FileFunction,Copper,L1,Top*%
%TF.FilePolarity,Positive*%
%FSLAX46Y46*%
G04 Gerber Fmt 4.6, Leading zero omitted, Abs format (unit mm)*
G04 Created by KiCad (PCBNEW 5.1.9-73d0e3b20d~88~ubuntu20.04.1) date 2021-03-03 11:34:14*
%MOMM*%
%LPD*%
G01*
G04 APERTURE LIST*
%TA.AperFunction,Profile*%
%ADD10C,0.050000*%
%TD*%
%TA.AperFunction,Profile*%
%ADD11C,0.100000*%
%TD*%
%TA.AperFunction,ComponentPad*%
%ADD12O,1.500000X2.200000*%
%TD*%
%TA.AperFunction,ComponentPad*%
%ADD13O,2.000000X2.000000*%
%TD*%
%TA.AperFunction,ComponentPad*%
%ADD14O,2.500000X1.650000*%
%TD*%
%TA.AperFunction,ComponentPad*%
%ADD15R,2.500000X1.650000*%
%TD*%
%TA.AperFunction,ComponentPad*%
%ADD16O,1.650000X1.500000*%
%TD*%
%TA.AperFunction,ComponentPad*%
%ADD17O,1.800000X3.600000*%
%TD*%
%TA.AperFunction,ComponentPad*%
%ADD18C,2.100000*%
%TD*%
%TA.AperFunction,ViaPad*%
%ADD19C,0.800000*%
%TD*%
%TA.AperFunction,Conductor*%
%ADD20C,2.000000*%
%TD*%
%TA.AperFunction,Conductor*%
%ADD21C,0.500000*%
%TD*%
%TA.AperFunction,Conductor*%
%ADD22C,0.400000*%
%TD*%
%TA.AperFunction,Conductor*%
%ADD23C,1.750000*%
%TD*%
G04 APERTURE END LIST*
D10*
X145750000Y-46500000D02*
X145750000Y-50500000D01*
X146750000Y-46500000D02*
X146750000Y-50500000D01*
X112750000Y-46500000D02*
X112750000Y-50500000D01*
X113750000Y-46500000D02*
X113750000Y-50500000D01*
X144250000Y-112250000D02*
X144250000Y-114750000D01*
X143250000Y-112250000D02*
X143250000Y-114750000D01*
X114500000Y-101250000D02*
G75*
G02*
X115500000Y-101250000I500000J0D01*
G01*
X115500000Y-114750000D02*
G75*
G02*
X114500000Y-114750000I-500000J0D01*
G01*
X114500000Y-101250000D02*
X114500000Y-114750000D01*
X115500000Y-114750000D02*
X115500000Y-101250000D01*
X143250000Y-101250000D02*
G75*
G02*
X144250000Y-101250000I500000J0D01*
G01*
X144250000Y-114750000D02*
G75*
G02*
X143250000Y-114750000I-500000J0D01*
G01*
X143250000Y-101250000D02*
X143250000Y-112250000D01*
X144250000Y-112250000D02*
X144250000Y-101250000D01*
X112750000Y-46500000D02*
G75*
G02*
X113750000Y-46500000I500000J0D01*
G01*
X113750000Y-61500000D02*
G75*
G02*
X112750000Y-61500000I-500000J0D01*
G01*
X112750000Y-50500000D02*
X112750000Y-61500000D01*
X113750000Y-61500000D02*
X113750000Y-50500000D01*
X145750000Y-46500000D02*
G75*
G02*
X146750000Y-46500000I500000J0D01*
G01*
X146750000Y-61500000D02*
G75*
G02*
X145750000Y-61500000I-500000J0D01*
G01*
X145750000Y-50500000D02*
X145750000Y-61500000D01*
X146750000Y-61500000D02*
X146750000Y-50500000D01*
X53750000Y-64250000D02*
X111750000Y-64250000D01*
X111750000Y-63250000D02*
X53750000Y-63250000D01*
X53750000Y-64250000D02*
G75*
G02*
X53750000Y-63250000I0J500000D01*
G01*
X111750000Y-63250000D02*
G75*
G02*
X111750000Y-64250000I0J-500000D01*
G01*
X53750000Y-101750000D02*
X111750000Y-101750000D01*
X111750000Y-100750000D02*
X53750000Y-100750000D01*
X53750000Y-101750000D02*
G75*
G02*
X53750000Y-100750000I0J500000D01*
G01*
X111750000Y-100750000D02*
G75*
G02*
X111750000Y-101750000I0J-500000D01*
G01*
X147250000Y-101750000D02*
X205250000Y-101750000D01*
X205250000Y-100750000D02*
X147250000Y-100750000D01*
X147250000Y-101750000D02*
G75*
G02*
X147250000Y-100750000I0J500000D01*
G01*
X205250000Y-100750000D02*
G75*
G02*
X205250000Y-101750000I0J-500000D01*
G01*
X147000000Y-64250000D02*
G75*
G02*
X147000000Y-63250000I0J500000D01*
G01*
X205000000Y-63250000D02*
G75*
G02*
X205000000Y-64250000I0J-500000D01*
G01*
X147000000Y-64250000D02*
X205000000Y-64250000D01*
X205000000Y-63250000D02*
X147000000Y-63250000D01*
D11*
X207600000Y-125800000D02*
X51400000Y-125800000D01*
X207600000Y-39000000D02*
X207600000Y-125800000D01*
X51400000Y-125800000D02*
X51400000Y-39000000D01*
X51400000Y-39000000D02*
X207600000Y-39000000D01*
D12*
%TO.P,J12,20*%
%TO.N,GND*%
X141110000Y-48960000D03*
%TO.P,J12,18*%
%TO.N,/COM*%
X138570000Y-48960000D03*
%TO.P,J12,16*%
%TO.N,/L16*%
X136030000Y-48960000D03*
%TO.P,J12,14*%
%TO.N,/L14*%
X133490000Y-48960000D03*
%TO.P,J12,12*%
%TO.N,/L12*%
X130950000Y-48960000D03*
%TO.P,J12,10*%
%TO.N,/L10*%
X128410000Y-48960000D03*
%TO.P,J12,8*%
%TO.N,/L8*%
X125870000Y-48960000D03*
%TO.P,J12,6*%
%TO.N,/L6*%
X123330000Y-48960000D03*
%TO.P,J12,4*%
%TO.N,/L4*%
X120790000Y-48960000D03*
%TO.P,J12,2*%
%TO.N,/L2*%
X118250000Y-48960000D03*
%TO.P,J12,19*%
%TO.N,GND*%
X141110000Y-51500000D03*
%TO.P,J12,17*%
%TO.N,/COM*%
X138570000Y-51500000D03*
%TO.P,J12,15*%
%TO.N,/L15*%
X136030000Y-51500000D03*
%TO.P,J12,13*%
%TO.N,/L13*%
X133490000Y-51500000D03*
%TO.P,J12,11*%
%TO.N,/L11*%
X130950000Y-51500000D03*
%TO.P,J12,9*%
%TO.N,/L9*%
X128410000Y-51500000D03*
%TO.P,J12,7*%
%TO.N,/L7*%
X125870000Y-51500000D03*
%TO.P,J12,5*%
%TO.N,/L5*%
X123330000Y-51500000D03*
%TO.P,J12,3*%
%TO.N,/L3*%
X120790000Y-51500000D03*
%TO.P,J12,1*%
%TO.N,/L1*%
%TA.AperFunction,ComponentPad*%
G36*
G01*
X118779500Y-52600000D02*
X117720500Y-52600000D01*
G75*
G02*
X117500000Y-52379500I0J220500D01*
G01*
X117500000Y-50620500D01*
G75*
G02*
X117720500Y-50400000I220500J0D01*
G01*
X118779500Y-50400000D01*
G75*
G02*
X119000000Y-50620500I0J-220500D01*
G01*
X119000000Y-52379500D01*
G75*
G02*
X118779500Y-52600000I-220500J0D01*
G01*
G37*
%TD.AperFunction*%
%TD*%
D13*
%TO.P,K15,14*%
%TO.N,/sheet6028DD5A/3*%
X180050000Y-110160000D03*
%TO.P,K15,21*%
%TO.N,/sheet6028DD5A/L2*%
X187550000Y-105120000D03*
%TO.P,K15,24*%
%TO.N,/sheet6028DD5A/3*%
X187550000Y-110160000D03*
%TO.P,K15,11*%
%TO.N,/sheet6028DD5A/L2*%
X180050000Y-105120000D03*
D14*
%TO.P,K15,A2*%
%TO.N,/COM*%
X187550000Y-84820000D03*
D15*
%TO.P,K15,A1*%
%TO.N,/L15*%
X180050000Y-84820000D03*
%TD*%
%TO.P,J1,1*%
%TO.N,/L1*%
%TA.AperFunction,ComponentPad*%
G36*
G01*
X126900000Y-71489500D02*
X126900000Y-70430500D01*
G75*
G02*
X127120500Y-70210000I220500J0D01*
G01*
X128679500Y-70210000D01*
G75*
G02*
X128900000Y-70430500I0J-220500D01*
G01*
X128900000Y-71489500D01*
G75*
G02*
X128679500Y-71710000I-220500J0D01*
G01*
X127120500Y-71710000D01*
G75*
G02*
X126900000Y-71489500I0J220500D01*
G01*
G37*
%TD.AperFunction*%
D16*
%TO.P,J1,3*%
%TO.N,/L3*%
X127900000Y-73500000D03*
%TO.P,J1,5*%
%TO.N,/L5*%
X127900000Y-76040000D03*
%TO.P,J1,7*%
%TO.N,/L7*%
X127900000Y-78580000D03*
%TO.P,J1,9*%
%TO.N,/L9*%
X127900000Y-81120000D03*
%TO.P,J1,11*%
%TO.N,/L11*%
X127900000Y-83660000D03*
%TO.P,J1,13*%
%TO.N,/L13*%
X127900000Y-86200000D03*
%TO.P,J1,15*%
%TO.N,/L15*%
X127900000Y-88740000D03*
%TO.P,J1,17*%
%TO.N,/COM*%
X127900000Y-91280000D03*
%TO.P,J1,19*%
%TO.N,GND*%
X127900000Y-93820000D03*
%TO.P,J1,2*%
%TO.N,/L2*%
X130440000Y-70960000D03*
%TO.P,J1,4*%
%TO.N,/L4*%
X130440000Y-73500000D03*
%TO.P,J1,6*%
%TO.N,/L6*%
X130440000Y-76040000D03*
%TO.P,J1,8*%
%TO.N,/L8*%
X130440000Y-78580000D03*
%TO.P,J1,10*%
%TO.N,/L10*%
X130440000Y-81120000D03*
%TO.P,J1,12*%
%TO.N,/L12*%
X130440000Y-83660000D03*
%TO.P,J1,14*%
%TO.N,/L14*%
X130440000Y-86200000D03*
%TO.P,J1,16*%
%TO.N,/L16*%
X130440000Y-88740000D03*
%TO.P,J1,18*%
%TO.N,/COM*%
X130440000Y-91280000D03*
%TO.P,J1,20*%
%TO.N,GND*%
X130440000Y-93820000D03*
%TD*%
D13*
%TO.P,K16,14*%
%TO.N,/sheet6028DD5A/4*%
X197290000Y-110160000D03*
%TO.P,K16,21*%
%TO.N,/sheet6028DD5A/L2*%
X204790000Y-105120000D03*
%TO.P,K16,24*%
%TO.N,/sheet6028DD5A/4*%
X204790000Y-110160000D03*
%TO.P,K16,11*%
%TO.N,/sheet6028DD5A/L2*%
X197290000Y-105120000D03*
D14*
%TO.P,K16,A2*%
%TO.N,/COM*%
X204790000Y-84820000D03*
D15*
%TO.P,K16,A1*%
%TO.N,/L16*%
X197290000Y-84820000D03*
%TD*%
D13*
%TO.P,K14,14*%
%TO.N,/sheet6028DD5A/2*%
X167150000Y-110170000D03*
%TO.P,K14,21*%
%TO.N,/sheet6028DD5A/L1*%
X174650000Y-105130000D03*
%TO.P,K14,24*%
%TO.N,/sheet6028DD5A/2*%
X174650000Y-110170000D03*
%TO.P,K14,11*%
%TO.N,/sheet6028DD5A/L1*%
X167150000Y-105130000D03*
D14*
%TO.P,K14,A2*%
%TO.N,/COM*%
X174650000Y-84830000D03*
D15*
%TO.P,K14,A1*%
%TO.N,/L14*%
X167150000Y-84830000D03*
%TD*%
D13*
%TO.P,K13,14*%
%TO.N,/sheet6028DD5A/1*%
X149920000Y-110170000D03*
%TO.P,K13,21*%
%TO.N,/sheet6028DD5A/L1*%
X157420000Y-105130000D03*
%TO.P,K13,24*%
%TO.N,/sheet6028DD5A/1*%
X157420000Y-110170000D03*
%TO.P,K13,11*%
%TO.N,/sheet6028DD5A/L1*%
X149920000Y-105130000D03*
D14*
%TO.P,K13,A2*%
%TO.N,/COM*%
X157420000Y-84830000D03*
D15*
%TO.P,K13,A1*%
%TO.N,/L13*%
X149920000Y-84830000D03*
%TD*%
D13*
%TO.P,K12,14*%
%TO.N,/3relay_block/4*%
X101550000Y-110180000D03*
%TO.P,K12,21*%
%TO.N,/3relay_block/L2*%
X109050000Y-105140000D03*
%TO.P,K12,24*%
%TO.N,/3relay_block/4*%
X109050000Y-110180000D03*
%TO.P,K12,11*%
%TO.N,/3relay_block/L2*%
X101550000Y-105140000D03*
D14*
%TO.P,K12,A2*%
%TO.N,/COM*%
X109050000Y-84840000D03*
D15*
%TO.P,K12,A1*%
%TO.N,/L12*%
X101550000Y-84840000D03*
%TD*%
D13*
%TO.P,K11,14*%
%TO.N,/3relay_block/3*%
X84300000Y-110180000D03*
%TO.P,K11,21*%
%TO.N,/3relay_block/L2*%
X91800000Y-105140000D03*
%TO.P,K11,24*%
%TO.N,/3relay_block/3*%
X91800000Y-110180000D03*
%TO.P,K11,11*%
%TO.N,/3relay_block/L2*%
X84300000Y-105140000D03*
D14*
%TO.P,K11,A2*%
%TO.N,/COM*%
X91800000Y-84840000D03*
D15*
%TO.P,K11,A1*%
%TO.N,/L11*%
X84300000Y-84840000D03*
%TD*%
D13*
%TO.P,K10,14*%
%TO.N,/3relay_block/2*%
X71400000Y-110180000D03*
%TO.P,K10,21*%
%TO.N,/3relay_block/L1*%
X78900000Y-105140000D03*
%TO.P,K10,24*%
%TO.N,/3relay_block/2*%
X78900000Y-110180000D03*
%TO.P,K10,11*%
%TO.N,/3relay_block/L1*%
X71400000Y-105140000D03*
D14*
%TO.P,K10,A2*%
%TO.N,/COM*%
X78900000Y-84840000D03*
D15*
%TO.P,K10,A1*%
%TO.N,/L10*%
X71400000Y-84840000D03*
%TD*%
D13*
%TO.P,K9,14*%
%TO.N,/3relay_block/1*%
X54170000Y-110200000D03*
%TO.P,K9,21*%
%TO.N,/3relay_block/L1*%
X61670000Y-105160000D03*
%TO.P,K9,24*%
%TO.N,/3relay_block/1*%
X61670000Y-110200000D03*
%TO.P,K9,11*%
%TO.N,/3relay_block/L1*%
X54170000Y-105160000D03*
D14*
%TO.P,K9,A2*%
%TO.N,/COM*%
X61670000Y-84860000D03*
D15*
%TO.P,K9,A1*%
%TO.N,/L9*%
X54170000Y-84860000D03*
%TD*%
D13*
%TO.P,K8,14*%
%TO.N,/sheet60201268/4*%
X61700000Y-54610000D03*
%TO.P,K8,21*%
%TO.N,/sheet60201268/L2*%
X54200000Y-59650000D03*
%TO.P,K8,24*%
%TO.N,/sheet60201268/4*%
X54200000Y-54610000D03*
%TO.P,K8,11*%
%TO.N,/sheet60201268/L2*%
X61700000Y-59650000D03*
D14*
%TO.P,K8,A2*%
%TO.N,/COM*%
X54200000Y-79950000D03*
D15*
%TO.P,K8,A1*%
%TO.N,/L8*%
X61700000Y-79950000D03*
%TD*%
D13*
%TO.P,K7,14*%
%TO.N,/sheet60201268/3*%
X78930000Y-54610000D03*
%TO.P,K7,21*%
%TO.N,/sheet60201268/L2*%
X71430000Y-59650000D03*
%TO.P,K7,24*%
%TO.N,/sheet60201268/3*%
X71430000Y-54610000D03*
%TO.P,K7,11*%
%TO.N,/sheet60201268/L2*%
X78930000Y-59650000D03*
D14*
%TO.P,K7,A2*%
%TO.N,/COM*%
X71430000Y-79950000D03*
D15*
%TO.P,K7,A1*%
%TO.N,/L7*%
X78930000Y-79950000D03*
%TD*%
D13*
%TO.P,K6,14*%
%TO.N,/sheet60201268/2*%
X91820000Y-54610000D03*
%TO.P,K6,21*%
%TO.N,/sheet60201268/L1*%
X84320000Y-59650000D03*
%TO.P,K6,24*%
%TO.N,/sheet60201268/2*%
X84320000Y-54610000D03*
%TO.P,K6,11*%
%TO.N,/sheet60201268/L1*%
X91820000Y-59650000D03*
D14*
%TO.P,K6,A2*%
%TO.N,/COM*%
X84320000Y-79950000D03*
D15*
%TO.P,K6,A1*%
%TO.N,/L6*%
X91820000Y-79950000D03*
%TD*%
D13*
%TO.P,K5,14*%
%TO.N,/sheet60201268/1*%
X109070000Y-54610000D03*
%TO.P,K5,21*%
%TO.N,/sheet60201268/L1*%
X101570000Y-59650000D03*
%TO.P,K5,24*%
%TO.N,/sheet60201268/1*%
X101570000Y-54610000D03*
%TO.P,K5,11*%
%TO.N,/sheet60201268/L1*%
X109070000Y-59650000D03*
D14*
%TO.P,K5,A2*%
%TO.N,/COM*%
X101570000Y-79950000D03*
D15*
%TO.P,K5,A1*%
%TO.N,/L5*%
X109070000Y-79950000D03*
%TD*%
D13*
%TO.P,K4,14*%
%TO.N,/4relay_block/4*%
X157440000Y-54620000D03*
%TO.P,K4,21*%
%TO.N,/4relay_block/L2*%
X149940000Y-59660000D03*
%TO.P,K4,24*%
%TO.N,/4relay_block/4*%
X149940000Y-54620000D03*
%TO.P,K4,11*%
%TO.N,/4relay_block/L2*%
X157440000Y-59660000D03*
D14*
%TO.P,K4,A2*%
%TO.N,/COM*%
X149940000Y-79960000D03*
D15*
%TO.P,K4,A1*%
%TO.N,/L4*%
X157440000Y-79960000D03*
%TD*%
D13*
%TO.P,K3,14*%
%TO.N,/4relay_block/3*%
X174670000Y-54620000D03*
%TO.P,K3,21*%
%TO.N,/4relay_block/L2*%
X167170000Y-59660000D03*
%TO.P,K3,24*%
%TO.N,/4relay_block/3*%
X167170000Y-54620000D03*
%TO.P,K3,11*%
%TO.N,/4relay_block/L2*%
X174670000Y-59660000D03*
D14*
%TO.P,K3,A2*%
%TO.N,/COM*%
X167170000Y-79960000D03*
D15*
%TO.P,K3,A1*%
%TO.N,/L3*%
X174670000Y-79960000D03*
%TD*%
D13*
%TO.P,K2,14*%
%TO.N,/4relay_block/2*%
X187570000Y-54630000D03*
%TO.P,K2,21*%
%TO.N,/4relay_block/L1*%
X180070000Y-59670000D03*
%TO.P,K2,24*%
%TO.N,/4relay_block/2*%
X180070000Y-54630000D03*
%TO.P,K2,11*%
%TO.N,/4relay_block/L1*%
X187570000Y-59670000D03*
D14*
%TO.P,K2,A2*%
%TO.N,/COM*%
X180070000Y-79970000D03*
D15*
%TO.P,K2,A1*%
%TO.N,/L2*%
X187570000Y-79970000D03*
%TD*%
D13*
%TO.P,K1,14*%
%TO.N,/4relay_block/1*%
X204810000Y-54630000D03*
%TO.P,K1,21*%
%TO.N,/4relay_block/L1*%
X197310000Y-59670000D03*
%TO.P,K1,24*%
%TO.N,/4relay_block/1*%
X197310000Y-54630000D03*
%TO.P,K1,11*%
%TO.N,/4relay_block/L1*%
X204810000Y-59670000D03*
D14*
%TO.P,K1,A2*%
%TO.N,/COM*%
X197310000Y-79970000D03*
D15*
%TO.P,K1,A1*%
%TO.N,/L1*%
X204810000Y-79970000D03*
%TD*%
D13*
%TO.P,J11,3*%
%TO.N,/sheet6028DD5A/4*%
X197480000Y-118810000D03*
%TO.P,J11,2*%
%TO.N,/sheet6028DD5A/L2*%
X192400000Y-118810000D03*
%TO.P,J11,1*%
%TO.N,/sheet6028DD5A/3*%
X187320000Y-118810000D03*
%TD*%
%TO.P,J10,3*%
%TO.N,/sheet6028DD5A/2*%
X171930000Y-118800000D03*
%TO.P,J10,2*%
%TO.N,/sheet6028DD5A/L1*%
X166850000Y-118800000D03*
%TO.P,J10,1*%
%TO.N,/sheet6028DD5A/1*%
X161770000Y-118800000D03*
%TD*%
%TO.P,J9,3*%
%TO.N,/3relay_block/4*%
X97200000Y-118800000D03*
%TO.P,J9,2*%
%TO.N,/3relay_block/L2*%
X92120000Y-118800000D03*
%TO.P,J9,1*%
%TO.N,/3relay_block/3*%
X87040000Y-118800000D03*
%TD*%
%TO.P,J8,3*%
%TO.N,/3relay_block/2*%
X71720000Y-118810000D03*
%TO.P,J8,2*%
%TO.N,/3relay_block/L1*%
X66640000Y-118810000D03*
%TO.P,J8,1*%
%TO.N,/3relay_block/1*%
X61560000Y-118810000D03*
%TD*%
%TO.P,J7,3*%
%TO.N,/sheet60201268/4*%
X61660000Y-45990000D03*
%TO.P,J7,2*%
%TO.N,/sheet60201268/L2*%
X66740000Y-45990000D03*
%TO.P,J7,1*%
%TO.N,/sheet60201268/3*%
X71820000Y-45990000D03*
%TD*%
%TO.P,J6,3*%
%TO.N,/sheet60201268/2*%
X87160000Y-45930000D03*
%TO.P,J6,2*%
%TO.N,/sheet60201268/L1*%
X92240000Y-45930000D03*
%TO.P,J6,1*%
%TO.N,/sheet60201268/1*%
X97320000Y-45930000D03*
%TD*%
%TO.P,J5,3*%
%TO.N,/4relay_block/4*%
X161780000Y-45970000D03*
%TO.P,J5,2*%
%TO.N,/4relay_block/L2*%
X166860000Y-45970000D03*
%TO.P,J5,1*%
%TO.N,/4relay_block/3*%
X171940000Y-45970000D03*
%TD*%
%TO.P,J4,3*%
%TO.N,/4relay_block/2*%
X187310000Y-45980000D03*
%TO.P,J4,2*%
%TO.N,/4relay_block/L1*%
X192390000Y-45980000D03*
%TO.P,J4,1*%
%TO.N,/4relay_block/1*%
X197470000Y-45980000D03*
%TD*%
D17*
%TO.P,J3,2*%
%TO.N,GND*%
X129540000Y-118800000D03*
%TO.P,J3,1*%
%TO.N,/COM*%
%TA.AperFunction,ComponentPad*%
G36*
G01*
X123560000Y-120350000D02*
X123560000Y-117250000D01*
G75*
G02*
X123810000Y-117000000I250000J0D01*
G01*
X125110000Y-117000000D01*
G75*
G02*
X125360000Y-117250000I0J-250000D01*
G01*
X125360000Y-120350000D01*
G75*
G02*
X125110000Y-120600000I-250000J0D01*
G01*
X123810000Y-120600000D01*
G75*
G02*
X123560000Y-120350000I0J250000D01*
G01*
G37*
%TD.AperFunction*%
%TD*%
%TO.P,J2,1*%
%TO.N,/COM*%
%TA.AperFunction,ComponentPad*%
G36*
G01*
X125610000Y-106460001D02*
X125610000Y-104859999D01*
G75*
G02*
X125859999Y-104610000I249999J0D01*
G01*
X127460001Y-104610000D01*
G75*
G02*
X127710000Y-104859999I0J-249999D01*
G01*
X127710000Y-106460001D01*
G75*
G02*
X127460001Y-106710000I-249999J0D01*
G01*
X125859999Y-106710000D01*
G75*
G02*
X125610000Y-106460001I0J249999D01*
G01*
G37*
%TD.AperFunction*%
D18*
%TO.P,J2,2*%
%TO.N,GND*%
X131260000Y-105660000D03*
%TD*%
D19*
%TO.N,/COM*%
X139465119Y-80224881D03*
%TO.N,/4relay_block/4*%
X151880000Y-54620000D03*
X153380000Y-54620000D03*
X155380000Y-54620000D03*
X157440000Y-52060000D03*
X157440000Y-50560000D03*
X158625000Y-49125000D03*
X159875000Y-47875000D03*
%TO.N,/4relay_block/3*%
X172380000Y-54620000D03*
X170880000Y-54620000D03*
X169380000Y-54620000D03*
X171940000Y-52060000D03*
X171940000Y-50560000D03*
X171940000Y-49060000D03*
%TO.N,/4relay_block/2*%
X187310000Y-48690000D03*
X187310000Y-50190000D03*
X187310000Y-52190000D03*
X185370000Y-54630000D03*
X183870000Y-54630000D03*
X182370000Y-54630000D03*
%TO.N,/4relay_block/1*%
X202870000Y-54630000D03*
X200870000Y-54630000D03*
X198870000Y-54630000D03*
X197470000Y-52530000D03*
X197470000Y-50530000D03*
X197470000Y-48530000D03*
%TO.N,/sheet60201268/4*%
X58000000Y-54610000D03*
X59390000Y-54610000D03*
X61640000Y-52360000D03*
X61660000Y-50340000D03*
X61660000Y-48340000D03*
X56390000Y-54610000D03*
%TO.N,/sheet60201268/3*%
X71820000Y-48180000D03*
X71820000Y-50180000D03*
X71820000Y-52180000D03*
X73390000Y-54610000D03*
X75390000Y-54610000D03*
X77000000Y-54610000D03*
%TO.N,/sheet60201268/2*%
X90000000Y-54610000D03*
X87160000Y-47840000D03*
X87160000Y-49840000D03*
X87160000Y-51840000D03*
X86390000Y-54610000D03*
X88000000Y-54610000D03*
%TO.N,/sheet60201268/1*%
X107390000Y-54610000D03*
X105390000Y-54610000D03*
X103390000Y-54610000D03*
X98695000Y-47305000D03*
X100000000Y-48500000D03*
X101570000Y-50180000D03*
X101570000Y-52430000D03*
%TO.N,/sheet6028DD5A/4*%
X199340000Y-110160000D03*
X200840000Y-110160000D03*
X202840000Y-110160000D03*
X197480000Y-112520000D03*
X197480000Y-114520000D03*
X197480000Y-116020000D03*
%TO.N,/sheet6028DD5A/3*%
X181840000Y-110160000D03*
X183840000Y-110160000D03*
X185840000Y-110160000D03*
X187320000Y-112680000D03*
X187320000Y-116180000D03*
X187320000Y-114500000D03*
%TO.N,/sheet6028DD5A/2*%
X169330000Y-110170000D03*
X171330000Y-110170000D03*
X172830000Y-110170000D03*
X171930000Y-112570000D03*
X171930000Y-114570000D03*
X171930000Y-116570000D03*
%TO.N,/sheet6028DD5A/1*%
X159735000Y-116765000D03*
X157985000Y-115015000D03*
X157420000Y-113080000D03*
X155330000Y-110170000D03*
X153330000Y-110170000D03*
X151830000Y-110170000D03*
%TO.N,/3relay_block/4*%
X103820000Y-110180000D03*
X105320000Y-110180000D03*
X106820000Y-110180000D03*
X101550000Y-113450000D03*
X100500000Y-115500000D03*
X99000000Y-117000000D03*
%TO.N,/3relay_block/3*%
X86320000Y-110180000D03*
X88320000Y-110180000D03*
X89820000Y-110180000D03*
X87040000Y-112960000D03*
X87040000Y-114960000D03*
X87040000Y-116460000D03*
%TO.N,/3relay_block/2*%
X73820000Y-110180000D03*
X75500000Y-110180000D03*
X77000000Y-110180000D03*
X71720000Y-112280000D03*
X71720000Y-114280000D03*
X71720000Y-116280000D03*
%TO.N,/3relay_block/1*%
X56300000Y-110200000D03*
X58000000Y-110000000D03*
X59800000Y-110200000D03*
X61560000Y-112440000D03*
X61560000Y-114440000D03*
X61560000Y-116440000D03*
%TO.N,/4relay_block/L1*%
X198830000Y-59670000D03*
X202830000Y-59670000D03*
X200830000Y-59670000D03*
X192390000Y-48610000D03*
X192390000Y-50610000D03*
X192390000Y-52610000D03*
X192390000Y-55000000D03*
X192390000Y-57500000D03*
X194500000Y-59670000D03*
X192000000Y-59500000D03*
X190000000Y-59500000D03*
X185330000Y-59670000D03*
X183830000Y-59670000D03*
X182330000Y-59670000D03*
%TO.N,/4relay_block/L2*%
X172340000Y-59660000D03*
X170840000Y-59660000D03*
X169340000Y-59660000D03*
X165340000Y-59660000D03*
X162500000Y-59500000D03*
X159340000Y-59660000D03*
X155340000Y-59660000D03*
X153340000Y-59660000D03*
X151840000Y-59660000D03*
X166860000Y-48140000D03*
X163180000Y-52180000D03*
X164930000Y-50430000D03*
X162630000Y-54870000D03*
X162600000Y-57500000D03*
%TO.N,/sheet60201268/L1*%
X107350000Y-59650000D03*
X105350000Y-59650000D03*
X103350000Y-59650000D03*
X99350000Y-59650000D03*
X93350000Y-59650000D03*
X96500000Y-59650000D03*
X96760000Y-57000000D03*
X96760000Y-54240000D03*
X96015000Y-51985000D03*
X94015000Y-49985000D03*
X92240000Y-48210000D03*
X90350000Y-59650000D03*
X88350000Y-59650000D03*
X86350000Y-59650000D03*
%TO.N,/sheet60201268/L2*%
X77350000Y-59650000D03*
X75350000Y-59650000D03*
X73350000Y-59650000D03*
X69350000Y-59650000D03*
X63350000Y-59650000D03*
X66500000Y-59650000D03*
X60000000Y-59650000D03*
X58350000Y-59650000D03*
X56350000Y-59650000D03*
X66740000Y-57500000D03*
X66740000Y-55000000D03*
X66740000Y-52260000D03*
X66740000Y-50260000D03*
X66740000Y-48260000D03*
%TO.N,/3relay_block/L1*%
X76840000Y-105160000D03*
X74840000Y-105160000D03*
X73340000Y-105160000D03*
X69340000Y-105160000D03*
X66610000Y-105160000D03*
X64340000Y-105160000D03*
X59840000Y-105160000D03*
X57840000Y-105160000D03*
X56340000Y-105160000D03*
X66640000Y-116360000D03*
X66640000Y-114360000D03*
X66640000Y-112360000D03*
X66640000Y-109860000D03*
X66640000Y-107360000D03*
%TO.N,/3relay_block/L2*%
X106860000Y-105140000D03*
X105360000Y-105140000D03*
X103860000Y-105140000D03*
X99360000Y-105140000D03*
X94360000Y-105140000D03*
X89860000Y-105140000D03*
X87860000Y-105140000D03*
X86360000Y-105140000D03*
X92475000Y-116475000D03*
X93975000Y-114975000D03*
X95725000Y-113225000D03*
X96700000Y-110800000D03*
X96700000Y-108300000D03*
X96660000Y-105140000D03*
%TO.N,/sheet6028DD5A/L1*%
X151870000Y-105130000D03*
X153370000Y-105130000D03*
X155370000Y-105130000D03*
X159500000Y-105130000D03*
X162000000Y-105130000D03*
X164500000Y-105130000D03*
X169370000Y-105130000D03*
X171370000Y-105130000D03*
X172870000Y-105130000D03*
X162500000Y-108000000D03*
X162460000Y-110540000D03*
X162795000Y-112705000D03*
X164545000Y-114455000D03*
X166295000Y-116205000D03*
%TO.N,/sheet6028DD5A/L2*%
X202880000Y-105120000D03*
X200880000Y-105120000D03*
X199380000Y-105120000D03*
X194880000Y-105120000D03*
X192000000Y-105120000D03*
X189500000Y-105120000D03*
X185380000Y-105120000D03*
X183380000Y-105120000D03*
X181880000Y-105120000D03*
X192400000Y-116100000D03*
X192400000Y-114600000D03*
X192400000Y-112600000D03*
X192400000Y-110600000D03*
X192400000Y-108100000D03*
%TD*%
D20*
%TO.N,/COM*%
X139730000Y-79960000D02*
X139465119Y-80224881D01*
X149940000Y-79960000D02*
X139730000Y-79960000D01*
X130440000Y-91280000D02*
X127900000Y-91280000D01*
X133270000Y-90200000D02*
X132190000Y-91280000D01*
X197150000Y-90200000D02*
X133270000Y-90200000D01*
X132190000Y-91280000D02*
X130440000Y-91280000D01*
X202530000Y-84820000D02*
X197150000Y-90200000D01*
X204790000Y-84820000D02*
X202530000Y-84820000D01*
X198730000Y-79970000D02*
X203580000Y-84820000D01*
X203580000Y-84820000D02*
X204790000Y-84820000D01*
X197310000Y-79970000D02*
X198730000Y-79970000D01*
X194700000Y-79970000D02*
X189850000Y-84820000D01*
X189850000Y-84820000D02*
X187550000Y-84820000D01*
X197310000Y-79970000D02*
X194700000Y-79970000D01*
X186240000Y-84820000D02*
X187550000Y-84820000D01*
X181390000Y-79970000D02*
X186240000Y-84820000D01*
X180070000Y-79970000D02*
X181390000Y-79970000D01*
X179510000Y-79970000D02*
X174650000Y-84830000D01*
X180070000Y-79970000D02*
X179510000Y-79970000D01*
X168680000Y-79960000D02*
X167170000Y-79960000D01*
X173550000Y-84830000D02*
X168680000Y-79960000D01*
X174650000Y-84830000D02*
X173550000Y-84830000D01*
X159860000Y-84830000D02*
X157420000Y-84830000D01*
X164730000Y-79960000D02*
X159860000Y-84830000D01*
X167170000Y-79960000D02*
X164730000Y-79960000D01*
X151240000Y-79960000D02*
X149940000Y-79960000D01*
X156110000Y-84830000D02*
X151240000Y-79960000D01*
X157420000Y-84830000D02*
X156110000Y-84830000D01*
D21*
%TO.N,/L16*%
X197290000Y-86145000D02*
X194695000Y-88740000D01*
X194695000Y-88740000D02*
X130440000Y-88740000D01*
X197290000Y-84820000D02*
X197290000Y-86145000D01*
%TO.N,/L14*%
X167150000Y-84830000D02*
X165699990Y-86280010D01*
X165699990Y-86280010D02*
X131845010Y-86280010D01*
X131845010Y-86280010D02*
X131765000Y-86200000D01*
X131765000Y-86200000D02*
X130440000Y-86200000D01*
%TO.N,/L12*%
X110650000Y-86220000D02*
X102930000Y-86220000D01*
X102930000Y-86220000D02*
X101550000Y-84840000D01*
X112009990Y-84860010D02*
X110650000Y-86220000D01*
X128479990Y-84860010D02*
X112009990Y-84860010D01*
X129680000Y-83660000D02*
X128479990Y-84860010D01*
X130440000Y-83660000D02*
X129680000Y-83660000D01*
%TO.N,/L10*%
X85420046Y-82729989D02*
X72185011Y-82729989D01*
X71400000Y-83515000D02*
X71400000Y-84840000D01*
X126912941Y-82699989D02*
X85450046Y-82699989D01*
X130440000Y-81120000D02*
X129100010Y-82459990D01*
X129100010Y-82459990D02*
X127152940Y-82459990D01*
X127152940Y-82459990D02*
X126912941Y-82699989D01*
X85450046Y-82699989D02*
X85420046Y-82729989D01*
X72185011Y-82729989D02*
X71400000Y-83515000D01*
%TO.N,/L8*%
X129239990Y-79780010D02*
X130440000Y-78580000D01*
X127292920Y-79780010D02*
X129239990Y-79780010D01*
X125142930Y-81930000D02*
X127292920Y-79780010D01*
X63680000Y-81930000D02*
X125142930Y-81930000D01*
X61700000Y-79950000D02*
X63680000Y-81930000D01*
%TO.N,/L6*%
X123060000Y-78590000D02*
X100690000Y-78590000D01*
X99330000Y-79950000D02*
X91820000Y-79950000D01*
X126830010Y-74819990D02*
X123060000Y-78590000D01*
X129219990Y-74819990D02*
X126830010Y-74819990D01*
X100690000Y-78590000D02*
X99330000Y-79950000D01*
X130440000Y-76040000D02*
X129219990Y-74819990D01*
%TO.N,/L4*%
X155690000Y-79960000D02*
X157440000Y-79960000D01*
X130440000Y-73500000D02*
X131060000Y-73500000D01*
X135520000Y-77960000D02*
X153690000Y-77960000D01*
X153690000Y-77960000D02*
X155690000Y-79960000D01*
X131060000Y-73500000D02*
X135520000Y-77960000D01*
%TO.N,/L2*%
X154979919Y-77269989D02*
X154269908Y-76559978D01*
X183290000Y-78400000D02*
X171199964Y-78400000D01*
X154269908Y-76559978D02*
X136389978Y-76559978D01*
X130790000Y-70960000D02*
X130440000Y-70960000D01*
X136389978Y-76559978D02*
X130790000Y-70960000D01*
X170069954Y-77269989D02*
X154979919Y-77269989D01*
X171199964Y-78400000D02*
X170069954Y-77269989D01*
X187570000Y-79970000D02*
X184860000Y-79970000D01*
X184860000Y-79970000D02*
X183290000Y-78400000D01*
%TO.N,/L15*%
X180050000Y-86145000D02*
X178655010Y-87539990D01*
X129100010Y-87539990D02*
X127900000Y-88740000D01*
X180050000Y-84820000D02*
X180050000Y-86145000D01*
X178655010Y-87539990D02*
X129100010Y-87539990D01*
D22*
%TO.N,/L13*%
X128510000Y-86200000D02*
X127900000Y-86200000D01*
X149920000Y-84830000D02*
X149740000Y-85010000D01*
D21*
X128400000Y-86200000D02*
X127900000Y-86200000D01*
X131520001Y-84970001D02*
X129629999Y-84970001D01*
X129629999Y-84970001D02*
X128400000Y-86200000D01*
X131910000Y-85360000D02*
X131520001Y-84970001D01*
X131940000Y-85330000D02*
X131910000Y-85360000D01*
X149420000Y-85330000D02*
X131940000Y-85330000D01*
X149920000Y-84830000D02*
X149420000Y-85330000D01*
%TO.N,/L11*%
X127640000Y-83400000D02*
X85740000Y-83400000D01*
X85740000Y-83400000D02*
X84300000Y-84840000D01*
X127900000Y-83660000D02*
X127640000Y-83400000D01*
%TO.N,/L7*%
X80210000Y-81230000D02*
X78930000Y-79950000D01*
X124530000Y-81230000D02*
X80210000Y-81230000D01*
X127180000Y-78580000D02*
X124530000Y-81230000D01*
X127900000Y-78580000D02*
X127180000Y-78580000D01*
%TO.N,/L5*%
X123360000Y-79950000D02*
X109070000Y-79950000D01*
X127270000Y-76040000D02*
X123360000Y-79950000D01*
X127900000Y-76040000D02*
X127270000Y-76040000D01*
%TO.N,/L3*%
X154689965Y-77970000D02*
X169780000Y-77970000D01*
X171770000Y-79960000D02*
X174670000Y-79960000D01*
X169780000Y-77970000D02*
X171770000Y-79960000D01*
X153979954Y-77259989D02*
X154689965Y-77970000D01*
X135979989Y-77259989D02*
X153979954Y-77259989D01*
X131019990Y-72299990D02*
X135979989Y-77259989D01*
X129100010Y-72299990D02*
X131019990Y-72299990D01*
X127900000Y-73500000D02*
X129100010Y-72299990D01*
%TO.N,/L1*%
X129100010Y-69759990D02*
X131079990Y-69759990D01*
X183579954Y-77699989D02*
X184379965Y-78500000D01*
X131079990Y-69759990D02*
X137179967Y-75859967D01*
X127900000Y-70960000D02*
X129100010Y-69759990D01*
X137179967Y-75859967D02*
X154559862Y-75859967D01*
X154559862Y-75859967D02*
X155269873Y-76569978D01*
X184379965Y-78500000D02*
X204665000Y-78500000D01*
X155269873Y-76569978D02*
X170359908Y-76569978D01*
X170359908Y-76569978D02*
X171489917Y-77699989D01*
X204665000Y-78500000D02*
X204810000Y-78645000D01*
X171489917Y-77699989D02*
X183579954Y-77699989D01*
X204810000Y-78645000D02*
X204810000Y-79970000D01*
D20*
%TO.N,/4relay_block/4*%
X157440000Y-54620000D02*
X149940000Y-54620000D01*
X157440000Y-54620000D02*
X157440000Y-50310000D01*
X157440000Y-50310000D02*
X161780000Y-45970000D01*
%TO.N,/4relay_block/3*%
X171730000Y-54620000D02*
X174670000Y-54620000D01*
X167170000Y-54620000D02*
X171730000Y-54620000D01*
D23*
X171940000Y-54410000D02*
X171730000Y-54620000D01*
D20*
X171940000Y-54410000D02*
X172150000Y-54620000D01*
X171940000Y-45970000D02*
X171940000Y-54410000D01*
X172150000Y-54620000D02*
X174670000Y-54620000D01*
X167170000Y-54620000D02*
X172150000Y-54620000D01*
D23*
%TO.N,/4relay_block/2*%
X187310000Y-54370000D02*
X187570000Y-54630000D01*
D20*
X180070000Y-54630000D02*
X187570000Y-54630000D01*
X187310000Y-45980000D02*
X187310000Y-54370000D01*
%TO.N,/4relay_block/1*%
X197470000Y-54470000D02*
X197310000Y-54630000D01*
X197470000Y-45980000D02*
X197470000Y-54470000D01*
X197310000Y-54630000D02*
X204810000Y-54630000D01*
%TO.N,/sheet60201268/4*%
X54200000Y-54610000D02*
X56390000Y-54610000D01*
X61640000Y-46010000D02*
X61660000Y-45990000D01*
X61640000Y-54550000D02*
X61640000Y-52360000D01*
X61700000Y-54610000D02*
X61640000Y-54550000D01*
X56390000Y-54610000D02*
X57390000Y-54610000D01*
X57390000Y-54610000D02*
X58390000Y-54610000D01*
X58390000Y-54610000D02*
X59390000Y-54610000D01*
X59390000Y-54610000D02*
X61700000Y-54610000D01*
X61640000Y-52360000D02*
X61640000Y-46010000D01*
%TO.N,/sheet60201268/3*%
X71820000Y-54220000D02*
X71430000Y-54610000D01*
X71820000Y-45990000D02*
X71820000Y-48180000D01*
X78930000Y-54610000D02*
X77390000Y-54610000D01*
X71820000Y-48180000D02*
X71820000Y-49180000D01*
X71820000Y-49180000D02*
X71820000Y-50180000D01*
X71820000Y-50180000D02*
X71820000Y-51180000D01*
X71820000Y-51180000D02*
X71820000Y-52180000D01*
X71820000Y-52180000D02*
X71820000Y-54220000D01*
X73390000Y-54610000D02*
X71430000Y-54610000D01*
X74390000Y-54610000D02*
X73390000Y-54610000D01*
X75390000Y-54610000D02*
X74390000Y-54610000D01*
X76390000Y-54610000D02*
X75390000Y-54610000D01*
X77390000Y-54610000D02*
X76390000Y-54610000D01*
D23*
%TO.N,/sheet60201268/2*%
X86820000Y-54610000D02*
X91820000Y-54610000D01*
X84320000Y-54610000D02*
X86820000Y-54610000D01*
D20*
X88100000Y-54610000D02*
X84320000Y-54610000D01*
X91820000Y-54610000D02*
X88100000Y-54610000D01*
X86820000Y-54610000D02*
X88100000Y-54610000D01*
X87160000Y-54270000D02*
X86820000Y-54610000D01*
X87160000Y-45930000D02*
X87160000Y-54270000D01*
%TO.N,/sheet60201268/1*%
X109070000Y-54610000D02*
X101570000Y-54610000D01*
X97320000Y-45930000D02*
X101570000Y-50180000D01*
X101570000Y-50180000D02*
X101570000Y-54610000D01*
%TO.N,/sheet6028DD5A/4*%
X204790000Y-110160000D02*
X202840000Y-110160000D01*
X197480000Y-110350000D02*
X197290000Y-110160000D01*
X197480000Y-118810000D02*
X197480000Y-116020000D01*
X199340000Y-110160000D02*
X197290000Y-110160000D01*
X200840000Y-110160000D02*
X199340000Y-110160000D01*
X202840000Y-110160000D02*
X200840000Y-110160000D01*
X197480000Y-112520000D02*
X197480000Y-110350000D01*
X197480000Y-114520000D02*
X197480000Y-112520000D01*
X197480000Y-116020000D02*
X197480000Y-114520000D01*
%TO.N,/sheet6028DD5A/3*%
X180050000Y-110160000D02*
X181840000Y-110160000D01*
X187320000Y-110390000D02*
X187550000Y-110160000D01*
X187320000Y-118810000D02*
X187320000Y-116180000D01*
X181840000Y-110160000D02*
X183840000Y-110160000D01*
X183840000Y-110160000D02*
X185840000Y-110160000D01*
X185840000Y-110160000D02*
X187550000Y-110160000D01*
X187320000Y-112680000D02*
X187320000Y-110390000D01*
X187320000Y-114180000D02*
X187320000Y-112680000D01*
X187320000Y-116180000D02*
X187320000Y-114180000D01*
%TO.N,/sheet6028DD5A/2*%
X171930000Y-110290000D02*
X171810000Y-110170000D01*
X171930000Y-118800000D02*
X171930000Y-116570000D01*
X171810000Y-110170000D02*
X171330000Y-110170000D01*
X174650000Y-110170000D02*
X172830000Y-110170000D01*
X169330000Y-110170000D02*
X167150000Y-110170000D01*
X171330000Y-110170000D02*
X169330000Y-110170000D01*
X172830000Y-110170000D02*
X171810000Y-110170000D01*
X171930000Y-112570000D02*
X171930000Y-110290000D01*
X171930000Y-114570000D02*
X171930000Y-112570000D01*
X171930000Y-116570000D02*
X171930000Y-114570000D01*
%TO.N,/sheet6028DD5A/1*%
X149920000Y-110170000D02*
X151830000Y-110170000D01*
X157420000Y-114450000D02*
X157985000Y-115015000D01*
X157420000Y-110170000D02*
X157420000Y-113080000D01*
X159735000Y-116765000D02*
X161770000Y-118800000D01*
X157985000Y-115015000D02*
X159735000Y-116765000D01*
X157420000Y-113080000D02*
X157420000Y-114450000D01*
X155330000Y-110170000D02*
X157420000Y-110170000D01*
X153330000Y-110170000D02*
X155330000Y-110170000D01*
X151830000Y-110170000D02*
X153330000Y-110170000D01*
%TO.N,/3relay_block/4*%
X109050000Y-110180000D02*
X106820000Y-110180000D01*
X101550000Y-114450000D02*
X100500000Y-115500000D01*
X101550000Y-110180000D02*
X101550000Y-113450000D01*
X103820000Y-110180000D02*
X101550000Y-110180000D01*
X105320000Y-110180000D02*
X103820000Y-110180000D01*
X106820000Y-110180000D02*
X105320000Y-110180000D01*
X101550000Y-113450000D02*
X101550000Y-114450000D01*
X100500000Y-115500000D02*
X99000000Y-117000000D01*
X99000000Y-117000000D02*
X97200000Y-118800000D01*
%TO.N,/3relay_block/3*%
X87040000Y-110430000D02*
X86790000Y-110180000D01*
X87040000Y-118800000D02*
X87040000Y-116460000D01*
X86790000Y-110180000D02*
X88320000Y-110180000D01*
X84300000Y-110180000D02*
X86320000Y-110180000D01*
X86320000Y-110180000D02*
X86790000Y-110180000D01*
X88320000Y-110180000D02*
X89820000Y-110180000D01*
X89820000Y-110180000D02*
X91800000Y-110180000D01*
X87040000Y-112960000D02*
X87040000Y-110430000D01*
X87040000Y-114960000D02*
X87040000Y-112960000D01*
X87040000Y-116460000D02*
X87040000Y-114960000D01*
%TO.N,/3relay_block/2*%
X71400000Y-110180000D02*
X73820000Y-110180000D01*
X71720000Y-110500000D02*
X71400000Y-110180000D01*
X71720000Y-118810000D02*
X71720000Y-116280000D01*
X73820000Y-110180000D02*
X75820000Y-110180000D01*
X75820000Y-110180000D02*
X77320000Y-110180000D01*
X77320000Y-110180000D02*
X78900000Y-110180000D01*
X71720000Y-112280000D02*
X71720000Y-110500000D01*
X71720000Y-114280000D02*
X71720000Y-112280000D01*
X71720000Y-116280000D02*
X71720000Y-114280000D01*
%TO.N,/3relay_block/1*%
X54170000Y-110200000D02*
X56300000Y-110200000D01*
X61560000Y-110310000D02*
X61670000Y-110200000D01*
X61560000Y-118810000D02*
X61560000Y-116440000D01*
X56300000Y-110200000D02*
X58300000Y-110200000D01*
X58300000Y-110200000D02*
X59800000Y-110200000D01*
X59800000Y-110200000D02*
X61670000Y-110200000D01*
X61560000Y-112440000D02*
X61560000Y-110310000D01*
X61560000Y-114440000D02*
X61560000Y-112440000D01*
X61560000Y-116440000D02*
X61560000Y-114440000D01*
D23*
%TO.N,/4relay_block/L1*%
X180070000Y-59670000D02*
X180070000Y-59700000D01*
X180070000Y-59700000D02*
X180100000Y-59670000D01*
X192580000Y-59670000D02*
X204810000Y-59670000D01*
X180100000Y-59670000D02*
X192580000Y-59670000D01*
D20*
X180070000Y-59670000D02*
X204810000Y-59670000D01*
X192390000Y-59480000D02*
X192580000Y-59670000D01*
X192390000Y-45980000D02*
X192390000Y-59480000D01*
%TO.N,/4relay_block/L2*%
X162630000Y-59660000D02*
X149940000Y-59660000D01*
X174670000Y-59660000D02*
X162630000Y-59660000D01*
X149940000Y-59660000D02*
X174670000Y-59660000D01*
X166860000Y-45970000D02*
X166860000Y-48500000D01*
X166860000Y-48500000D02*
X162630000Y-52730000D01*
X162630000Y-52730000D02*
X162630000Y-54870000D01*
X162630000Y-54870000D02*
X162630000Y-59660000D01*
D23*
%TO.N,/sheet60201268/L1*%
X84320000Y-59650000D02*
X96770000Y-59650000D01*
X96770000Y-59650000D02*
X109070000Y-59650000D01*
X96760000Y-59640000D02*
X96760000Y-52730000D01*
X96770000Y-59650000D02*
X96760000Y-59640000D01*
D20*
X92240000Y-45930000D02*
X92240000Y-48210000D01*
X92240000Y-48210000D02*
X96760000Y-52730000D01*
X96760000Y-59010000D02*
X96120000Y-59650000D01*
X96760000Y-52730000D02*
X96760000Y-59010000D01*
X96120000Y-59650000D02*
X109070000Y-59650000D01*
X84320000Y-59650000D02*
X96120000Y-59650000D01*
%TO.N,/sheet60201268/L2*%
X66740000Y-45990000D02*
X66740000Y-48260000D01*
X66740000Y-59550000D02*
X66840000Y-59650000D01*
X66840000Y-59650000D02*
X66350000Y-59650000D01*
X78930000Y-59650000D02*
X77350000Y-59650000D01*
X77350000Y-59650000D02*
X76350000Y-59650000D01*
X76350000Y-59650000D02*
X75350000Y-59650000D01*
X75350000Y-59650000D02*
X74350000Y-59650000D01*
X74350000Y-59650000D02*
X73350000Y-59650000D01*
X73350000Y-59650000D02*
X69350000Y-59650000D01*
X69350000Y-59650000D02*
X68350000Y-59650000D01*
X68350000Y-59650000D02*
X66840000Y-59650000D01*
X63350000Y-59650000D02*
X60350000Y-59650000D01*
X64350000Y-59650000D02*
X63350000Y-59650000D01*
X65350000Y-59650000D02*
X64350000Y-59650000D01*
X66350000Y-59650000D02*
X65350000Y-59650000D01*
X60350000Y-59650000D02*
X59350000Y-59650000D01*
X59350000Y-59650000D02*
X58350000Y-59650000D01*
X58350000Y-59650000D02*
X57350000Y-59650000D01*
X57350000Y-59650000D02*
X56350000Y-59650000D01*
X56350000Y-59650000D02*
X54200000Y-59650000D01*
X66740000Y-58260000D02*
X66740000Y-59550000D01*
X66740000Y-57260000D02*
X66740000Y-58260000D01*
X66740000Y-56260000D02*
X66740000Y-57260000D01*
X66740000Y-55260000D02*
X66740000Y-56260000D01*
X66740000Y-54260000D02*
X66740000Y-55260000D01*
X66740000Y-53260000D02*
X66740000Y-54260000D01*
X66740000Y-52260000D02*
X66740000Y-53260000D01*
X66740000Y-51260000D02*
X66740000Y-52260000D01*
X66740000Y-50260000D02*
X66740000Y-51260000D01*
X66740000Y-49260000D02*
X66740000Y-50260000D01*
X66740000Y-48260000D02*
X66740000Y-49260000D01*
%TO.N,/3relay_block/L1*%
X78880000Y-105160000D02*
X78900000Y-105140000D01*
X66640000Y-105190000D02*
X66610000Y-105160000D01*
X66640000Y-118810000D02*
X66640000Y-116360000D01*
X66610000Y-105160000D02*
X69340000Y-105160000D01*
X54170000Y-105160000D02*
X56340000Y-105160000D01*
X76840000Y-105160000D02*
X78880000Y-105160000D01*
X74840000Y-105160000D02*
X76840000Y-105160000D01*
X73340000Y-105160000D02*
X74840000Y-105160000D01*
X69340000Y-105160000D02*
X73340000Y-105160000D01*
X66610000Y-105160000D02*
X66610000Y-105160000D01*
X64340000Y-105160000D02*
X66610000Y-105160000D01*
X59840000Y-105160000D02*
X64340000Y-105160000D01*
X57840000Y-105160000D02*
X59840000Y-105160000D01*
X56340000Y-105160000D02*
X57840000Y-105160000D01*
X66640000Y-116360000D02*
X66640000Y-114360000D01*
X66640000Y-114360000D02*
X66640000Y-112360000D01*
X66640000Y-112360000D02*
X66640000Y-109860000D01*
X66640000Y-109860000D02*
X66640000Y-107360000D01*
X66640000Y-107360000D02*
X66640000Y-105190000D01*
%TO.N,/3relay_block/L2*%
X96700000Y-105140000D02*
X96860000Y-105140000D01*
X84300000Y-105140000D02*
X86360000Y-105140000D01*
X96700000Y-112250000D02*
X96700000Y-110800000D01*
X92120000Y-116830000D02*
X92475000Y-116475000D01*
X92120000Y-118800000D02*
X92120000Y-116830000D01*
X106860000Y-105140000D02*
X109050000Y-105140000D01*
X105360000Y-105140000D02*
X106860000Y-105140000D01*
X103860000Y-105140000D02*
X105360000Y-105140000D01*
X99360000Y-105140000D02*
X103860000Y-105140000D01*
X96860000Y-105140000D02*
X99360000Y-105140000D01*
X94360000Y-105140000D02*
X96700000Y-105140000D01*
X89860000Y-105140000D02*
X94360000Y-105140000D01*
X87860000Y-105140000D02*
X89860000Y-105140000D01*
X86360000Y-105140000D02*
X87860000Y-105140000D01*
X92475000Y-116475000D02*
X93975000Y-114975000D01*
X93975000Y-114975000D02*
X95725000Y-113225000D01*
X95725000Y-113225000D02*
X96700000Y-112250000D01*
X96700000Y-110800000D02*
X96700000Y-108300000D01*
X96700000Y-108300000D02*
X96700000Y-105140000D01*
%TO.N,/sheet6028DD5A/L1*%
X162460000Y-105130000D02*
X161370000Y-105130000D01*
X174650000Y-105130000D02*
X172870000Y-105130000D01*
X162460000Y-112370000D02*
X162460000Y-110540000D01*
X166850000Y-116760000D02*
X166295000Y-116205000D01*
X166850000Y-118800000D02*
X166850000Y-116760000D01*
X151870000Y-105130000D02*
X149920000Y-105130000D01*
X153370000Y-105130000D02*
X151870000Y-105130000D01*
X155370000Y-105130000D02*
X153370000Y-105130000D01*
X159370000Y-105130000D02*
X155370000Y-105130000D01*
X161370000Y-105130000D02*
X159370000Y-105130000D01*
X163370000Y-105130000D02*
X162460000Y-105130000D01*
X165370000Y-105130000D02*
X163370000Y-105130000D01*
X169370000Y-105130000D02*
X165370000Y-105130000D01*
X171370000Y-105130000D02*
X169370000Y-105130000D01*
X172870000Y-105130000D02*
X171370000Y-105130000D01*
X162460000Y-107040000D02*
X162460000Y-105130000D01*
X162460000Y-108540000D02*
X162460000Y-107040000D01*
X162460000Y-110540000D02*
X162460000Y-108540000D01*
X162795000Y-112705000D02*
X162460000Y-112370000D01*
X164545000Y-114455000D02*
X162795000Y-112705000D01*
X166295000Y-116205000D02*
X164545000Y-114455000D01*
%TO.N,/sheet6028DD5A/L2*%
X192400000Y-105220000D02*
X192300000Y-105120000D01*
X192400000Y-118810000D02*
X192400000Y-116100000D01*
X192300000Y-105120000D02*
X190380000Y-105120000D01*
X204790000Y-105120000D02*
X202880000Y-105120000D01*
X202880000Y-105120000D02*
X200880000Y-105120000D01*
X200880000Y-105120000D02*
X199380000Y-105120000D01*
X199380000Y-105120000D02*
X194880000Y-105120000D01*
X194880000Y-105120000D02*
X192380000Y-105120000D01*
X192380000Y-105120000D02*
X192300000Y-105120000D01*
X190380000Y-105120000D02*
X185380000Y-105120000D01*
X185380000Y-105120000D02*
X183380000Y-105120000D01*
X183380000Y-105120000D02*
X181880000Y-105120000D01*
X181880000Y-105120000D02*
X180050000Y-105120000D01*
X192400000Y-116100000D02*
X192400000Y-114600000D01*
X192400000Y-114600000D02*
X192400000Y-112600000D01*
X192400000Y-112600000D02*
X192400000Y-110600000D01*
X192400000Y-110600000D02*
X192400000Y-108100000D01*
X192400000Y-108100000D02*
X192400000Y-105220000D01*
%TD*%
M02*
