%TF.GenerationSoftware,KiCad,Pcbnew,5.1.9-73d0e3b20d~88~ubuntu20.04.1*%
%TF.CreationDate,2021-03-03T11:34:14+04:00*%
%TF.ProjectId,relay_board,72656c61-795f-4626-9f61-72642e6b6963,rev?*%
%TF.SameCoordinates,Original*%
%TF.FileFunction,Soldermask,Bot*%
%TF.FilePolarity,Negative*%
%FSLAX46Y46*%
G04 Gerber Fmt 4.6, Leading zero omitted, Abs format (unit mm)*
G04 Created by KiCad (PCBNEW 5.1.9-73d0e3b20d~88~ubuntu20.04.1) date 2021-03-03 11:34:14*
%MOMM*%
%LPD*%
G01*
G04 APERTURE LIST*
%TA.AperFunction,Profile*%
%ADD10C,0.050000*%
%TD*%
%ADD11C,2.040000*%
%TA.AperFunction,Profile*%
%ADD12C,0.100000*%
%TD*%
%ADD13O,1.500000X2.200000*%
%ADD14O,2.000000X2.000000*%
%ADD15O,2.500000X1.650000*%
%ADD16R,2.500000X1.650000*%
%ADD17O,1.650000X1.500000*%
%ADD18O,1.800000X3.600000*%
%ADD19C,2.100000*%
G04 APERTURE END LIST*
D10*
X145750000Y-46500000D02*
X145750000Y-50500000D01*
X146750000Y-46500000D02*
X146750000Y-50500000D01*
X112750000Y-46500000D02*
X112750000Y-50500000D01*
X113750000Y-46500000D02*
X113750000Y-50500000D01*
X144250000Y-112250000D02*
X144250000Y-114750000D01*
X143250000Y-112250000D02*
X143250000Y-114750000D01*
X114500000Y-101250000D02*
G75*
G02*
X115500000Y-101250000I500000J0D01*
G01*
X115500000Y-114750000D02*
G75*
G02*
X114500000Y-114750000I-500000J0D01*
G01*
X114500000Y-101250000D02*
X114500000Y-114750000D01*
X115500000Y-114750000D02*
X115500000Y-101250000D01*
X143250000Y-101250000D02*
G75*
G02*
X144250000Y-101250000I500000J0D01*
G01*
X144250000Y-114750000D02*
G75*
G02*
X143250000Y-114750000I-500000J0D01*
G01*
X143250000Y-101250000D02*
X143250000Y-112250000D01*
X144250000Y-112250000D02*
X144250000Y-101250000D01*
X112750000Y-46500000D02*
G75*
G02*
X113750000Y-46500000I500000J0D01*
G01*
X113750000Y-61500000D02*
G75*
G02*
X112750000Y-61500000I-500000J0D01*
G01*
X112750000Y-50500000D02*
X112750000Y-61500000D01*
X113750000Y-61500000D02*
X113750000Y-50500000D01*
X145750000Y-46500000D02*
G75*
G02*
X146750000Y-46500000I500000J0D01*
G01*
X146750000Y-61500000D02*
G75*
G02*
X145750000Y-61500000I-500000J0D01*
G01*
X145750000Y-50500000D02*
X145750000Y-61500000D01*
X146750000Y-61500000D02*
X146750000Y-50500000D01*
X53750000Y-64250000D02*
X111750000Y-64250000D01*
X111750000Y-63250000D02*
X53750000Y-63250000D01*
X53750000Y-64250000D02*
G75*
G02*
X53750000Y-63250000I0J500000D01*
G01*
X111750000Y-63250000D02*
G75*
G02*
X111750000Y-64250000I0J-500000D01*
G01*
X53750000Y-101750000D02*
X111750000Y-101750000D01*
X111750000Y-100750000D02*
X53750000Y-100750000D01*
X53750000Y-101750000D02*
G75*
G02*
X53750000Y-100750000I0J500000D01*
G01*
X111750000Y-100750000D02*
G75*
G02*
X111750000Y-101750000I0J-500000D01*
G01*
X147250000Y-101750000D02*
X205250000Y-101750000D01*
X205250000Y-100750000D02*
X147250000Y-100750000D01*
X147250000Y-101750000D02*
G75*
G02*
X147250000Y-100750000I0J500000D01*
G01*
X205250000Y-100750000D02*
G75*
G02*
X205250000Y-101750000I0J-500000D01*
G01*
X147000000Y-64250000D02*
G75*
G02*
X147000000Y-63250000I0J500000D01*
G01*
X205000000Y-63250000D02*
G75*
G02*
X205000000Y-64250000I0J-500000D01*
G01*
X147000000Y-64250000D02*
X205000000Y-64250000D01*
X205000000Y-63250000D02*
X147000000Y-63250000D01*
D11*
X204790000Y-110160000D02*
X197290000Y-110160000D01*
X197480000Y-118810000D02*
X197480000Y-110350000D01*
X197480000Y-110350000D02*
X197290000Y-110160000D01*
X204790000Y-105120000D02*
X192380000Y-105120000D01*
X192380000Y-105120000D02*
X180050000Y-105120000D01*
X192400000Y-118810000D02*
X192400000Y-105140000D01*
X192400000Y-105140000D02*
X192380000Y-105120000D01*
X187550000Y-110160000D02*
X180050000Y-110160000D01*
X187320000Y-118810000D02*
X187320000Y-110390000D01*
X187320000Y-110390000D02*
X187550000Y-110160000D01*
X157420000Y-110170000D02*
X149920000Y-110170000D01*
X157420000Y-110170000D02*
X157420000Y-114450000D01*
X157420000Y-114450000D02*
X161770000Y-118800000D01*
X174650000Y-110170000D02*
X171830000Y-110170000D01*
X171830000Y-110170000D02*
X167150000Y-110170000D01*
X171930000Y-110270000D02*
X171830000Y-110170000D01*
X171930000Y-118800000D02*
X171930000Y-110270000D01*
X166850000Y-118800000D02*
X166850000Y-116760000D01*
X166850000Y-116760000D02*
X162450000Y-112360000D01*
X162450000Y-112360000D02*
X162450000Y-106050000D01*
X162450000Y-106050000D02*
X162500000Y-106000000D01*
X167150000Y-105130000D02*
X149920000Y-105130000D01*
X174650000Y-105130000D02*
X163370000Y-105130000D01*
X96660000Y-105140000D02*
X84300000Y-105140000D01*
X96860000Y-105140000D02*
X96690000Y-105310000D01*
X96690000Y-112260000D02*
X96500000Y-112450000D01*
X96690000Y-105310000D02*
X96690000Y-112260000D01*
X96500000Y-112450000D02*
X92475000Y-116475000D01*
X92120000Y-118800000D02*
X92120000Y-116830000D01*
X92120000Y-116830000D02*
X92475000Y-116475000D01*
X109050000Y-105140000D02*
X96660000Y-105140000D01*
X101550000Y-110180000D02*
X101550000Y-114450000D01*
X101550000Y-114450000D02*
X97200000Y-118800000D01*
X101550000Y-110180000D02*
X109050000Y-110180000D01*
X91800000Y-110180000D02*
X86680000Y-110180000D01*
X86680000Y-110180000D02*
X84300000Y-110180000D01*
X87040000Y-118800000D02*
X87040000Y-110540000D01*
X87040000Y-110540000D02*
X86680000Y-110180000D01*
X61670000Y-110200000D02*
X54170000Y-110200000D01*
X61560000Y-118810000D02*
X61560000Y-110310000D01*
X61560000Y-110310000D02*
X61670000Y-110200000D01*
X71720000Y-118810000D02*
X71720000Y-110500000D01*
X71720000Y-110500000D02*
X71400000Y-110180000D01*
X78900000Y-110180000D02*
X71400000Y-110180000D01*
X54170000Y-105160000D02*
X66660000Y-105160000D01*
X66660000Y-105160000D02*
X78880000Y-105160000D01*
X66640000Y-118810000D02*
X66640000Y-105180000D01*
X66640000Y-105180000D02*
X66660000Y-105160000D01*
X78880000Y-105160000D02*
X78900000Y-105140000D01*
X56390000Y-54610000D02*
X54200000Y-54610000D01*
X61660000Y-48340000D02*
X61660000Y-49340000D01*
X61660000Y-49340000D02*
X61660000Y-50340000D01*
X61660000Y-50340000D02*
X61660000Y-51340000D01*
X61660000Y-51340000D02*
X61660000Y-54570000D01*
X61700000Y-54610000D02*
X56390000Y-54610000D01*
X61660000Y-45990000D02*
X61660000Y-48340000D01*
X61660000Y-54570000D02*
X61700000Y-54610000D01*
X67350000Y-59650000D02*
X78930000Y-59650000D01*
X54200000Y-59650000D02*
X66780000Y-59650000D01*
X66780000Y-59650000D02*
X67350000Y-59650000D01*
X66740000Y-45990000D02*
X66740000Y-59610000D01*
X66740000Y-59610000D02*
X66780000Y-59650000D01*
X71820000Y-45990000D02*
X71820000Y-54220000D01*
X71820000Y-54220000D02*
X71430000Y-54610000D01*
X78930000Y-54610000D02*
X71430000Y-54610000D01*
X87610000Y-54610000D02*
X87610000Y-54610000D01*
X86390000Y-54610000D02*
X87610000Y-54610000D01*
X87160000Y-52840000D02*
X87160000Y-54160000D01*
X87160000Y-51840000D02*
X87160000Y-52840000D01*
X87160000Y-50840000D02*
X87160000Y-51840000D01*
X87160000Y-49840000D02*
X87160000Y-50840000D01*
X87160000Y-48840000D02*
X87160000Y-49840000D01*
X87160000Y-47840000D02*
X87160000Y-48840000D01*
X89390000Y-54610000D02*
X90390000Y-54610000D01*
X90390000Y-54610000D02*
X91820000Y-54610000D01*
X84320000Y-54610000D02*
X86390000Y-54610000D01*
X87610000Y-54610000D02*
X89390000Y-54610000D01*
X87160000Y-45930000D02*
X87160000Y-47840000D01*
X87160000Y-54160000D02*
X87610000Y-54610000D01*
X101570000Y-52430000D02*
X101570000Y-51430000D01*
X101570000Y-51430000D02*
X101570000Y-50180000D01*
X101570000Y-50180000D02*
X101570000Y-50180000D01*
X100695000Y-49305000D02*
X99695000Y-48305000D01*
X99695000Y-48305000D02*
X98695000Y-47305000D01*
X98695000Y-47305000D02*
X97320000Y-45930000D01*
X103390000Y-54610000D02*
X104390000Y-54610000D01*
X104390000Y-54610000D02*
X105390000Y-54610000D01*
X105390000Y-54610000D02*
X106390000Y-54610000D01*
X106390000Y-54610000D02*
X107390000Y-54610000D01*
X107390000Y-54610000D02*
X109070000Y-54610000D01*
X101570000Y-54610000D02*
X101570000Y-52430000D01*
X101570000Y-50180000D02*
X100695000Y-49305000D01*
X101570000Y-54610000D02*
X103390000Y-54610000D01*
X86350000Y-59650000D02*
X87350000Y-59650000D01*
X87350000Y-59650000D02*
X88350000Y-59650000D01*
X88350000Y-59650000D02*
X89350000Y-59650000D01*
X89350000Y-59650000D02*
X90350000Y-59650000D01*
X90350000Y-59650000D02*
X93350000Y-59650000D01*
X92240000Y-48210000D02*
X92240000Y-48210000D01*
X93015000Y-48985000D02*
X94015000Y-49985000D01*
X94015000Y-49985000D02*
X95015000Y-50985000D01*
X95015000Y-50985000D02*
X96015000Y-51985000D01*
X96015000Y-51985000D02*
X96760000Y-52730000D01*
X96760000Y-53240000D02*
X96760000Y-54240000D01*
X96760000Y-54240000D02*
X96760000Y-55240000D01*
X96760000Y-55240000D02*
X96760000Y-56240000D01*
X96760000Y-56240000D02*
X96760000Y-57240000D01*
X96760000Y-57240000D02*
X96760000Y-58240000D01*
X96760000Y-58240000D02*
X96760000Y-59650000D01*
X96350000Y-59650000D02*
X96760000Y-59650000D01*
X95350000Y-59650000D02*
X96350000Y-59650000D01*
X94350000Y-59650000D02*
X95350000Y-59650000D01*
X93350000Y-59650000D02*
X94350000Y-59650000D01*
X98350000Y-59650000D02*
X99350000Y-59650000D01*
X99350000Y-59650000D02*
X103350000Y-59650000D01*
X103350000Y-59650000D02*
X104350000Y-59650000D01*
X104350000Y-59650000D02*
X105350000Y-59650000D01*
X105350000Y-59650000D02*
X106350000Y-59650000D01*
X106350000Y-59650000D02*
X107350000Y-59650000D01*
X107350000Y-59650000D02*
X109070000Y-59650000D01*
X92240000Y-45930000D02*
X92240000Y-48210000D01*
X92240000Y-48210000D02*
X93015000Y-48985000D01*
X96760000Y-52730000D02*
X96760000Y-53240000D01*
X84320000Y-59650000D02*
X86350000Y-59650000D01*
X96760000Y-59650000D02*
X98350000Y-59650000D01*
X159875000Y-47875000D02*
X161780000Y-45970000D01*
X158625000Y-49125000D02*
X159875000Y-47875000D01*
X157440000Y-50560000D02*
X157440000Y-50310000D01*
X157440000Y-52060000D02*
X157440000Y-50560000D01*
X155380000Y-54620000D02*
X157440000Y-54620000D01*
X153380000Y-54620000D02*
X155380000Y-54620000D01*
X151880000Y-54620000D02*
X153380000Y-54620000D01*
X157440000Y-54620000D02*
X157440000Y-52060000D01*
X157440000Y-50310000D02*
X158625000Y-49125000D01*
X149940000Y-54620000D02*
X151880000Y-54620000D01*
X163340000Y-59660000D02*
X163840000Y-59660000D01*
X162600000Y-57900000D02*
X162600000Y-59600000D01*
X162600000Y-56400000D02*
X162600000Y-57900000D01*
X164930000Y-50430000D02*
X163180000Y-52180000D01*
X163180000Y-52180000D02*
X162600000Y-52760000D01*
X166860000Y-48140000D02*
X166860000Y-48500000D01*
X151840000Y-59660000D02*
X153340000Y-59660000D01*
X153340000Y-59660000D02*
X155340000Y-59660000D01*
X155340000Y-59660000D02*
X159340000Y-59660000D01*
X159340000Y-59660000D02*
X160840000Y-59660000D01*
X160840000Y-59660000D02*
X162340000Y-59660000D01*
X162340000Y-59660000D02*
X162660000Y-59660000D01*
X163840000Y-59660000D02*
X165340000Y-59660000D01*
X165340000Y-59660000D02*
X169340000Y-59660000D01*
X169340000Y-59660000D02*
X169840000Y-59660000D01*
X170840000Y-59660000D02*
X171340000Y-59660000D01*
X172340000Y-59660000D02*
X172840000Y-59660000D01*
X169840000Y-59660000D02*
X170840000Y-59660000D01*
X171340000Y-59660000D02*
X172340000Y-59660000D01*
X172840000Y-59660000D02*
X174670000Y-59660000D01*
X166860000Y-45970000D02*
X166860000Y-48140000D01*
X162600000Y-59600000D02*
X162660000Y-59660000D01*
X166860000Y-48500000D02*
X164930000Y-50430000D01*
X162600000Y-52760000D02*
X162600000Y-56400000D01*
X149940000Y-59660000D02*
X151840000Y-59660000D01*
X162660000Y-59660000D02*
X163340000Y-59660000D01*
X171940000Y-49060000D02*
X171940000Y-50560000D01*
X171940000Y-50560000D02*
X171940000Y-52060000D01*
X171940000Y-52060000D02*
X171940000Y-54560000D01*
X169380000Y-54620000D02*
X167170000Y-54620000D01*
X170880000Y-54620000D02*
X169380000Y-54620000D01*
X172380000Y-54620000D02*
X171880000Y-54620000D01*
X174670000Y-54620000D02*
X172380000Y-54620000D01*
X171880000Y-54620000D02*
X170880000Y-54620000D01*
X171940000Y-45970000D02*
X171940000Y-49060000D01*
X171940000Y-54560000D02*
X171880000Y-54620000D01*
X197470000Y-48530000D02*
X197470000Y-50530000D01*
X197470000Y-50530000D02*
X197470000Y-52530000D01*
X197470000Y-52530000D02*
X197470000Y-54470000D01*
X198870000Y-54630000D02*
X197310000Y-54630000D01*
X200870000Y-54630000D02*
X198870000Y-54630000D01*
X202870000Y-54630000D02*
X200870000Y-54630000D01*
X197470000Y-45980000D02*
X197470000Y-48530000D01*
X197470000Y-54470000D02*
X197310000Y-54630000D01*
X204810000Y-54630000D02*
X202870000Y-54630000D01*
X182330000Y-59670000D02*
X183830000Y-59670000D01*
X183830000Y-59670000D02*
X185330000Y-59670000D01*
X185330000Y-59670000D02*
X189330000Y-59670000D01*
X189330000Y-59670000D02*
X190830000Y-59670000D01*
X190830000Y-59670000D02*
X192330000Y-59670000D01*
X195330000Y-59670000D02*
X198830000Y-59670000D01*
X193830000Y-59670000D02*
X195330000Y-59670000D01*
X192330000Y-59670000D02*
X193830000Y-59670000D01*
X192390000Y-58110000D02*
X192390000Y-59610000D01*
X192390000Y-56610000D02*
X192390000Y-58110000D01*
X192390000Y-54610000D02*
X192390000Y-56610000D01*
X192390000Y-52610000D02*
X192390000Y-54610000D01*
X192390000Y-50610000D02*
X192390000Y-52610000D01*
X192390000Y-48610000D02*
X192390000Y-50610000D01*
X200830000Y-59670000D02*
X202830000Y-59670000D01*
X202830000Y-59670000D02*
X204810000Y-59670000D01*
X198830000Y-59670000D02*
X200830000Y-59670000D01*
X180070000Y-59670000D02*
X182330000Y-59670000D01*
X192330000Y-59670000D02*
X192330000Y-59670000D01*
X192390000Y-45980000D02*
X192390000Y-48610000D01*
X192390000Y-59610000D02*
X192330000Y-59670000D01*
X182370000Y-54630000D02*
X180070000Y-54630000D01*
X183870000Y-54630000D02*
X182370000Y-54630000D01*
X185370000Y-54630000D02*
X183870000Y-54630000D01*
X187310000Y-52190000D02*
X187310000Y-54370000D01*
X187310000Y-50190000D02*
X187310000Y-52190000D01*
X187310000Y-48690000D02*
X187310000Y-50190000D01*
X187570000Y-54630000D02*
X185370000Y-54630000D01*
X187310000Y-45980000D02*
X187310000Y-48690000D01*
X187310000Y-54370000D02*
X187570000Y-54630000D01*
D12*
X207600000Y-125800000D02*
X51400000Y-125800000D01*
X207600000Y-39000000D02*
X207600000Y-125800000D01*
X51400000Y-125800000D02*
X51400000Y-39000000D01*
X51400000Y-39000000D02*
X207600000Y-39000000D01*
D13*
%TO.C,J12*%
X141110000Y-48960000D03*
X138570000Y-48960000D03*
X136030000Y-48960000D03*
X133490000Y-48960000D03*
X130950000Y-48960000D03*
X128410000Y-48960000D03*
X125870000Y-48960000D03*
X123330000Y-48960000D03*
X120790000Y-48960000D03*
X118250000Y-48960000D03*
X141110000Y-51500000D03*
X138570000Y-51500000D03*
X136030000Y-51500000D03*
X133490000Y-51500000D03*
X130950000Y-51500000D03*
X128410000Y-51500000D03*
X125870000Y-51500000D03*
X123330000Y-51500000D03*
X120790000Y-51500000D03*
G36*
G01*
X118779500Y-52600000D02*
X117720500Y-52600000D01*
G75*
G02*
X117500000Y-52379500I0J220500D01*
G01*
X117500000Y-50620500D01*
G75*
G02*
X117720500Y-50400000I220500J0D01*
G01*
X118779500Y-50400000D01*
G75*
G02*
X119000000Y-50620500I0J-220500D01*
G01*
X119000000Y-52379500D01*
G75*
G02*
X118779500Y-52600000I-220500J0D01*
G01*
G37*
%TD*%
D14*
%TO.C,K15*%
X180050000Y-110160000D03*
X187550000Y-105120000D03*
X187550000Y-110160000D03*
X180050000Y-105120000D03*
D15*
X187550000Y-84820000D03*
D16*
X180050000Y-84820000D03*
%TD*%
%TO.C,J1*%
G36*
G01*
X126900000Y-71489500D02*
X126900000Y-70430500D01*
G75*
G02*
X127120500Y-70210000I220500J0D01*
G01*
X128679500Y-70210000D01*
G75*
G02*
X128900000Y-70430500I0J-220500D01*
G01*
X128900000Y-71489500D01*
G75*
G02*
X128679500Y-71710000I-220500J0D01*
G01*
X127120500Y-71710000D01*
G75*
G02*
X126900000Y-71489500I0J220500D01*
G01*
G37*
D17*
X127900000Y-73500000D03*
X127900000Y-76040000D03*
X127900000Y-78580000D03*
X127900000Y-81120000D03*
X127900000Y-83660000D03*
X127900000Y-86200000D03*
X127900000Y-88740000D03*
X127900000Y-91280000D03*
X127900000Y-93820000D03*
X130440000Y-70960000D03*
X130440000Y-73500000D03*
X130440000Y-76040000D03*
X130440000Y-78580000D03*
X130440000Y-81120000D03*
X130440000Y-83660000D03*
X130440000Y-86200000D03*
X130440000Y-88740000D03*
X130440000Y-91280000D03*
X130440000Y-93820000D03*
%TD*%
D14*
%TO.C,K16*%
X197290000Y-110160000D03*
X204790000Y-105120000D03*
X204790000Y-110160000D03*
X197290000Y-105120000D03*
D15*
X204790000Y-84820000D03*
D16*
X197290000Y-84820000D03*
%TD*%
D14*
%TO.C,K14*%
X167150000Y-110170000D03*
X174650000Y-105130000D03*
X174650000Y-110170000D03*
X167150000Y-105130000D03*
D15*
X174650000Y-84830000D03*
D16*
X167150000Y-84830000D03*
%TD*%
D14*
%TO.C,K13*%
X149920000Y-110170000D03*
X157420000Y-105130000D03*
X157420000Y-110170000D03*
X149920000Y-105130000D03*
D15*
X157420000Y-84830000D03*
D16*
X149920000Y-84830000D03*
%TD*%
D14*
%TO.C,K12*%
X101550000Y-110180000D03*
X109050000Y-105140000D03*
X109050000Y-110180000D03*
X101550000Y-105140000D03*
D15*
X109050000Y-84840000D03*
D16*
X101550000Y-84840000D03*
%TD*%
D14*
%TO.C,K11*%
X84300000Y-110180000D03*
X91800000Y-105140000D03*
X91800000Y-110180000D03*
X84300000Y-105140000D03*
D15*
X91800000Y-84840000D03*
D16*
X84300000Y-84840000D03*
%TD*%
D14*
%TO.C,K10*%
X71400000Y-110180000D03*
X78900000Y-105140000D03*
X78900000Y-110180000D03*
X71400000Y-105140000D03*
D15*
X78900000Y-84840000D03*
D16*
X71400000Y-84840000D03*
%TD*%
D14*
%TO.C,K9*%
X54170000Y-110200000D03*
X61670000Y-105160000D03*
X61670000Y-110200000D03*
X54170000Y-105160000D03*
D15*
X61670000Y-84860000D03*
D16*
X54170000Y-84860000D03*
%TD*%
D14*
%TO.C,K8*%
X61700000Y-54610000D03*
X54200000Y-59650000D03*
X54200000Y-54610000D03*
X61700000Y-59650000D03*
D15*
X54200000Y-79950000D03*
D16*
X61700000Y-79950000D03*
%TD*%
D14*
%TO.C,K7*%
X78930000Y-54610000D03*
X71430000Y-59650000D03*
X71430000Y-54610000D03*
X78930000Y-59650000D03*
D15*
X71430000Y-79950000D03*
D16*
X78930000Y-79950000D03*
%TD*%
D14*
%TO.C,K6*%
X91820000Y-54610000D03*
X84320000Y-59650000D03*
X84320000Y-54610000D03*
X91820000Y-59650000D03*
D15*
X84320000Y-79950000D03*
D16*
X91820000Y-79950000D03*
%TD*%
D14*
%TO.C,K5*%
X109070000Y-54610000D03*
X101570000Y-59650000D03*
X101570000Y-54610000D03*
X109070000Y-59650000D03*
D15*
X101570000Y-79950000D03*
D16*
X109070000Y-79950000D03*
%TD*%
D14*
%TO.C,K4*%
X157440000Y-54620000D03*
X149940000Y-59660000D03*
X149940000Y-54620000D03*
X157440000Y-59660000D03*
D15*
X149940000Y-79960000D03*
D16*
X157440000Y-79960000D03*
%TD*%
D14*
%TO.C,K3*%
X174670000Y-54620000D03*
X167170000Y-59660000D03*
X167170000Y-54620000D03*
X174670000Y-59660000D03*
D15*
X167170000Y-79960000D03*
D16*
X174670000Y-79960000D03*
%TD*%
D14*
%TO.C,K2*%
X187570000Y-54630000D03*
X180070000Y-59670000D03*
X180070000Y-54630000D03*
X187570000Y-59670000D03*
D15*
X180070000Y-79970000D03*
D16*
X187570000Y-79970000D03*
%TD*%
D14*
%TO.C,K1*%
X204810000Y-54630000D03*
X197310000Y-59670000D03*
X197310000Y-54630000D03*
X204810000Y-59670000D03*
D15*
X197310000Y-79970000D03*
D16*
X204810000Y-79970000D03*
%TD*%
D14*
%TO.C,J11*%
X197480000Y-118810000D03*
X192400000Y-118810000D03*
X187320000Y-118810000D03*
%TD*%
%TO.C,J10*%
X171930000Y-118800000D03*
X166850000Y-118800000D03*
X161770000Y-118800000D03*
%TD*%
%TO.C,J9*%
X97200000Y-118800000D03*
X92120000Y-118800000D03*
X87040000Y-118800000D03*
%TD*%
%TO.C,J8*%
X71720000Y-118810000D03*
X66640000Y-118810000D03*
X61560000Y-118810000D03*
%TD*%
%TO.C,J7*%
X61660000Y-45990000D03*
X66740000Y-45990000D03*
X71820000Y-45990000D03*
%TD*%
%TO.C,J6*%
X87160000Y-45930000D03*
X92240000Y-45930000D03*
X97320000Y-45930000D03*
%TD*%
%TO.C,J5*%
X161780000Y-45970000D03*
X166860000Y-45970000D03*
X171940000Y-45970000D03*
%TD*%
%TO.C,J4*%
X187310000Y-45980000D03*
X192390000Y-45980000D03*
X197470000Y-45980000D03*
%TD*%
D18*
%TO.C,J3*%
X129540000Y-118800000D03*
G36*
G01*
X123560000Y-120350000D02*
X123560000Y-117250000D01*
G75*
G02*
X123810000Y-117000000I250000J0D01*
G01*
X125110000Y-117000000D01*
G75*
G02*
X125360000Y-117250000I0J-250000D01*
G01*
X125360000Y-120350000D01*
G75*
G02*
X125110000Y-120600000I-250000J0D01*
G01*
X123810000Y-120600000D01*
G75*
G02*
X123560000Y-120350000I0J250000D01*
G01*
G37*
%TD*%
%TO.C,J2*%
G36*
G01*
X125610000Y-106460001D02*
X125610000Y-104859999D01*
G75*
G02*
X125859999Y-104610000I249999J0D01*
G01*
X127460001Y-104610000D01*
G75*
G02*
X127710000Y-104859999I0J-249999D01*
G01*
X127710000Y-106460001D01*
G75*
G02*
X127460001Y-106710000I-249999J0D01*
G01*
X125859999Y-106710000D01*
G75*
G02*
X125610000Y-106460001I0J249999D01*
G01*
G37*
D19*
X131260000Y-105660000D03*
%TD*%
M02*
