%TF.GenerationSoftware,KiCad,Pcbnew,5.1.9-73d0e3b20d~88~ubuntu20.04.1*%
%TF.CreationDate,2021-03-03T11:34:14+04:00*%
%TF.ProjectId,relay_board,72656c61-795f-4626-9f61-72642e6b6963,rev?*%
%TF.SameCoordinates,Original*%
%TF.FileFunction,Soldermask,Top*%
%TF.FilePolarity,Negative*%
%FSLAX46Y46*%
G04 Gerber Fmt 4.6, Leading zero omitted, Abs format (unit mm)*
G04 Created by KiCad (PCBNEW 5.1.9-73d0e3b20d~88~ubuntu20.04.1) date 2021-03-03 11:34:14*
%MOMM*%
%LPD*%
G01*
G04 APERTURE LIST*
%TA.AperFunction,Profile*%
%ADD10C,0.050000*%
%TD*%
%ADD11C,2.040000*%
%ADD12C,1.790000*%
%TA.AperFunction,Profile*%
%ADD13C,0.100000*%
%TD*%
%ADD14O,1.500000X2.200000*%
%ADD15O,2.000000X2.000000*%
%ADD16O,2.500000X1.650000*%
%ADD17R,2.500000X1.650000*%
%ADD18O,1.650000X1.500000*%
%ADD19O,1.800000X3.600000*%
%ADD20C,2.100000*%
G04 APERTURE END LIST*
D10*
X145750000Y-46500000D02*
X145750000Y-50500000D01*
X146750000Y-46500000D02*
X146750000Y-50500000D01*
X112750000Y-46500000D02*
X112750000Y-50500000D01*
X113750000Y-46500000D02*
X113750000Y-50500000D01*
X144250000Y-112250000D02*
X144250000Y-114750000D01*
X143250000Y-112250000D02*
X143250000Y-114750000D01*
X114500000Y-101250000D02*
G75*
G02*
X115500000Y-101250000I500000J0D01*
G01*
X115500000Y-114750000D02*
G75*
G02*
X114500000Y-114750000I-500000J0D01*
G01*
X114500000Y-101250000D02*
X114500000Y-114750000D01*
X115500000Y-114750000D02*
X115500000Y-101250000D01*
X143250000Y-101250000D02*
G75*
G02*
X144250000Y-101250000I500000J0D01*
G01*
X144250000Y-114750000D02*
G75*
G02*
X143250000Y-114750000I-500000J0D01*
G01*
X143250000Y-101250000D02*
X143250000Y-112250000D01*
X144250000Y-112250000D02*
X144250000Y-101250000D01*
X112750000Y-46500000D02*
G75*
G02*
X113750000Y-46500000I500000J0D01*
G01*
X113750000Y-61500000D02*
G75*
G02*
X112750000Y-61500000I-500000J0D01*
G01*
X112750000Y-50500000D02*
X112750000Y-61500000D01*
X113750000Y-61500000D02*
X113750000Y-50500000D01*
X145750000Y-46500000D02*
G75*
G02*
X146750000Y-46500000I500000J0D01*
G01*
X146750000Y-61500000D02*
G75*
G02*
X145750000Y-61500000I-500000J0D01*
G01*
X145750000Y-50500000D02*
X145750000Y-61500000D01*
X146750000Y-61500000D02*
X146750000Y-50500000D01*
X53750000Y-64250000D02*
X111750000Y-64250000D01*
X111750000Y-63250000D02*
X53750000Y-63250000D01*
X53750000Y-64250000D02*
G75*
G02*
X53750000Y-63250000I0J500000D01*
G01*
X111750000Y-63250000D02*
G75*
G02*
X111750000Y-64250000I0J-500000D01*
G01*
X53750000Y-101750000D02*
X111750000Y-101750000D01*
X111750000Y-100750000D02*
X53750000Y-100750000D01*
X53750000Y-101750000D02*
G75*
G02*
X53750000Y-100750000I0J500000D01*
G01*
X111750000Y-100750000D02*
G75*
G02*
X111750000Y-101750000I0J-500000D01*
G01*
X147250000Y-101750000D02*
X205250000Y-101750000D01*
X205250000Y-100750000D02*
X147250000Y-100750000D01*
X147250000Y-101750000D02*
G75*
G02*
X147250000Y-100750000I0J500000D01*
G01*
X205250000Y-100750000D02*
G75*
G02*
X205250000Y-101750000I0J-500000D01*
G01*
X147000000Y-64250000D02*
G75*
G02*
X147000000Y-63250000I0J500000D01*
G01*
X205000000Y-63250000D02*
G75*
G02*
X205000000Y-64250000I0J-500000D01*
G01*
X147000000Y-64250000D02*
X205000000Y-64250000D01*
X205000000Y-63250000D02*
X147000000Y-63250000D01*
D11*
X78880000Y-105160000D02*
X78900000Y-105140000D01*
D12*
X180070000Y-59700000D02*
X180100000Y-59670000D01*
X180070000Y-59670000D02*
X180070000Y-59700000D01*
D13*
X207600000Y-125800000D02*
X51400000Y-125800000D01*
X207600000Y-39000000D02*
X207600000Y-125800000D01*
X51400000Y-125800000D02*
X51400000Y-39000000D01*
X51400000Y-39000000D02*
X207600000Y-39000000D01*
D14*
%TO.C,J12*%
X141110000Y-48960000D03*
X138570000Y-48960000D03*
X136030000Y-48960000D03*
X133490000Y-48960000D03*
X130950000Y-48960000D03*
X128410000Y-48960000D03*
X125870000Y-48960000D03*
X123330000Y-48960000D03*
X120790000Y-48960000D03*
X118250000Y-48960000D03*
X141110000Y-51500000D03*
X138570000Y-51500000D03*
X136030000Y-51500000D03*
X133490000Y-51500000D03*
X130950000Y-51500000D03*
X128410000Y-51500000D03*
X125870000Y-51500000D03*
X123330000Y-51500000D03*
X120790000Y-51500000D03*
G36*
G01*
X118779500Y-52600000D02*
X117720500Y-52600000D01*
G75*
G02*
X117500000Y-52379500I0J220500D01*
G01*
X117500000Y-50620500D01*
G75*
G02*
X117720500Y-50400000I220500J0D01*
G01*
X118779500Y-50400000D01*
G75*
G02*
X119000000Y-50620500I0J-220500D01*
G01*
X119000000Y-52379500D01*
G75*
G02*
X118779500Y-52600000I-220500J0D01*
G01*
G37*
%TD*%
D15*
%TO.C,K15*%
X180050000Y-110160000D03*
X187550000Y-105120000D03*
X187550000Y-110160000D03*
X180050000Y-105120000D03*
D16*
X187550000Y-84820000D03*
D17*
X180050000Y-84820000D03*
%TD*%
%TO.C,J1*%
G36*
G01*
X126900000Y-71489500D02*
X126900000Y-70430500D01*
G75*
G02*
X127120500Y-70210000I220500J0D01*
G01*
X128679500Y-70210000D01*
G75*
G02*
X128900000Y-70430500I0J-220500D01*
G01*
X128900000Y-71489500D01*
G75*
G02*
X128679500Y-71710000I-220500J0D01*
G01*
X127120500Y-71710000D01*
G75*
G02*
X126900000Y-71489500I0J220500D01*
G01*
G37*
D18*
X127900000Y-73500000D03*
X127900000Y-76040000D03*
X127900000Y-78580000D03*
X127900000Y-81120000D03*
X127900000Y-83660000D03*
X127900000Y-86200000D03*
X127900000Y-88740000D03*
X127900000Y-91280000D03*
X127900000Y-93820000D03*
X130440000Y-70960000D03*
X130440000Y-73500000D03*
X130440000Y-76040000D03*
X130440000Y-78580000D03*
X130440000Y-81120000D03*
X130440000Y-83660000D03*
X130440000Y-86200000D03*
X130440000Y-88740000D03*
X130440000Y-91280000D03*
X130440000Y-93820000D03*
%TD*%
D15*
%TO.C,K16*%
X197290000Y-110160000D03*
X204790000Y-105120000D03*
X204790000Y-110160000D03*
X197290000Y-105120000D03*
D16*
X204790000Y-84820000D03*
D17*
X197290000Y-84820000D03*
%TD*%
D15*
%TO.C,K14*%
X167150000Y-110170000D03*
X174650000Y-105130000D03*
X174650000Y-110170000D03*
X167150000Y-105130000D03*
D16*
X174650000Y-84830000D03*
D17*
X167150000Y-84830000D03*
%TD*%
D15*
%TO.C,K13*%
X149920000Y-110170000D03*
X157420000Y-105130000D03*
X157420000Y-110170000D03*
X149920000Y-105130000D03*
D16*
X157420000Y-84830000D03*
D17*
X149920000Y-84830000D03*
%TD*%
D15*
%TO.C,K12*%
X101550000Y-110180000D03*
X109050000Y-105140000D03*
X109050000Y-110180000D03*
X101550000Y-105140000D03*
D16*
X109050000Y-84840000D03*
D17*
X101550000Y-84840000D03*
%TD*%
D15*
%TO.C,K11*%
X84300000Y-110180000D03*
X91800000Y-105140000D03*
X91800000Y-110180000D03*
X84300000Y-105140000D03*
D16*
X91800000Y-84840000D03*
D17*
X84300000Y-84840000D03*
%TD*%
D15*
%TO.C,K10*%
X71400000Y-110180000D03*
X78900000Y-105140000D03*
X78900000Y-110180000D03*
X71400000Y-105140000D03*
D16*
X78900000Y-84840000D03*
D17*
X71400000Y-84840000D03*
%TD*%
D15*
%TO.C,K9*%
X54170000Y-110200000D03*
X61670000Y-105160000D03*
X61670000Y-110200000D03*
X54170000Y-105160000D03*
D16*
X61670000Y-84860000D03*
D17*
X54170000Y-84860000D03*
%TD*%
D15*
%TO.C,K8*%
X61700000Y-54610000D03*
X54200000Y-59650000D03*
X54200000Y-54610000D03*
X61700000Y-59650000D03*
D16*
X54200000Y-79950000D03*
D17*
X61700000Y-79950000D03*
%TD*%
D15*
%TO.C,K7*%
X78930000Y-54610000D03*
X71430000Y-59650000D03*
X71430000Y-54610000D03*
X78930000Y-59650000D03*
D16*
X71430000Y-79950000D03*
D17*
X78930000Y-79950000D03*
%TD*%
D15*
%TO.C,K6*%
X91820000Y-54610000D03*
X84320000Y-59650000D03*
X84320000Y-54610000D03*
X91820000Y-59650000D03*
D16*
X84320000Y-79950000D03*
D17*
X91820000Y-79950000D03*
%TD*%
D15*
%TO.C,K5*%
X109070000Y-54610000D03*
X101570000Y-59650000D03*
X101570000Y-54610000D03*
X109070000Y-59650000D03*
D16*
X101570000Y-79950000D03*
D17*
X109070000Y-79950000D03*
%TD*%
D15*
%TO.C,K4*%
X157440000Y-54620000D03*
X149940000Y-59660000D03*
X149940000Y-54620000D03*
X157440000Y-59660000D03*
D16*
X149940000Y-79960000D03*
D17*
X157440000Y-79960000D03*
%TD*%
D15*
%TO.C,K3*%
X174670000Y-54620000D03*
X167170000Y-59660000D03*
X167170000Y-54620000D03*
X174670000Y-59660000D03*
D16*
X167170000Y-79960000D03*
D17*
X174670000Y-79960000D03*
%TD*%
D15*
%TO.C,K2*%
X187570000Y-54630000D03*
X180070000Y-59670000D03*
X180070000Y-54630000D03*
X187570000Y-59670000D03*
D16*
X180070000Y-79970000D03*
D17*
X187570000Y-79970000D03*
%TD*%
D15*
%TO.C,K1*%
X204810000Y-54630000D03*
X197310000Y-59670000D03*
X197310000Y-54630000D03*
X204810000Y-59670000D03*
D16*
X197310000Y-79970000D03*
D17*
X204810000Y-79970000D03*
%TD*%
D15*
%TO.C,J11*%
X197480000Y-118810000D03*
X192400000Y-118810000D03*
X187320000Y-118810000D03*
%TD*%
%TO.C,J10*%
X171930000Y-118800000D03*
X166850000Y-118800000D03*
X161770000Y-118800000D03*
%TD*%
%TO.C,J9*%
X97200000Y-118800000D03*
X92120000Y-118800000D03*
X87040000Y-118800000D03*
%TD*%
%TO.C,J8*%
X71720000Y-118810000D03*
X66640000Y-118810000D03*
X61560000Y-118810000D03*
%TD*%
%TO.C,J7*%
X61660000Y-45990000D03*
X66740000Y-45990000D03*
X71820000Y-45990000D03*
%TD*%
%TO.C,J6*%
X87160000Y-45930000D03*
X92240000Y-45930000D03*
X97320000Y-45930000D03*
%TD*%
%TO.C,J5*%
X161780000Y-45970000D03*
X166860000Y-45970000D03*
X171940000Y-45970000D03*
%TD*%
%TO.C,J4*%
X187310000Y-45980000D03*
X192390000Y-45980000D03*
X197470000Y-45980000D03*
%TD*%
D19*
%TO.C,J3*%
X129540000Y-118800000D03*
G36*
G01*
X123560000Y-120350000D02*
X123560000Y-117250000D01*
G75*
G02*
X123810000Y-117000000I250000J0D01*
G01*
X125110000Y-117000000D01*
G75*
G02*
X125360000Y-117250000I0J-250000D01*
G01*
X125360000Y-120350000D01*
G75*
G02*
X125110000Y-120600000I-250000J0D01*
G01*
X123810000Y-120600000D01*
G75*
G02*
X123560000Y-120350000I0J250000D01*
G01*
G37*
%TD*%
%TO.C,J2*%
G36*
G01*
X125610000Y-106460001D02*
X125610000Y-104859999D01*
G75*
G02*
X125859999Y-104610000I249999J0D01*
G01*
X127460001Y-104610000D01*
G75*
G02*
X127710000Y-104859999I0J-249999D01*
G01*
X127710000Y-106460001D01*
G75*
G02*
X127460001Y-106710000I-249999J0D01*
G01*
X125859999Y-106710000D01*
G75*
G02*
X125610000Y-106460001I0J249999D01*
G01*
G37*
D20*
X131260000Y-105660000D03*
%TD*%
M02*
