%TF.GenerationSoftware,KiCad,Pcbnew,5.1.9-73d0e3b20d~88~ubuntu20.04.1*%
%TF.CreationDate,2021-03-03T11:34:14+04:00*%
%TF.ProjectId,relay_board,72656c61-795f-4626-9f61-72642e6b6963,rev?*%
%TF.SameCoordinates,Original*%
%TF.FileFunction,Legend,Bot*%
%TF.FilePolarity,Positive*%
%FSLAX46Y46*%
G04 Gerber Fmt 4.6, Leading zero omitted, Abs format (unit mm)*
G04 Created by KiCad (PCBNEW 5.1.9-73d0e3b20d~88~ubuntu20.04.1) date 2021-03-03 11:34:14*
%MOMM*%
%LPD*%
G01*
G04 APERTURE LIST*
%TA.AperFunction,Profile*%
%ADD10C,0.050000*%
%TD*%
%ADD11C,0.300000*%
%TA.AperFunction,Profile*%
%ADD12C,0.100000*%
%TD*%
%ADD13C,0.150000*%
G04 APERTURE END LIST*
D10*
X145750000Y-46500000D02*
X145750000Y-50500000D01*
X146750000Y-46500000D02*
X146750000Y-50500000D01*
X112750000Y-46500000D02*
X112750000Y-50500000D01*
X113750000Y-46500000D02*
X113750000Y-50500000D01*
D11*
X197880952Y-123154761D02*
X199023809Y-123154761D01*
X198452380Y-123154761D02*
X198452380Y-121154761D01*
X198642857Y-121440476D01*
X198833333Y-121630952D01*
X199023809Y-121726190D01*
X196166666Y-121154761D02*
X196547619Y-121154761D01*
X196738095Y-121250000D01*
X196833333Y-121345238D01*
X197023809Y-121630952D01*
X197119047Y-122011904D01*
X197119047Y-122773809D01*
X197023809Y-122964285D01*
X196928571Y-123059523D01*
X196738095Y-123154761D01*
X196357142Y-123154761D01*
X196166666Y-123059523D01*
X196071428Y-122964285D01*
X195976190Y-122773809D01*
X195976190Y-122297619D01*
X196071428Y-122107142D01*
X196166666Y-122011904D01*
X196357142Y-121916666D01*
X196738095Y-121916666D01*
X196928571Y-122011904D01*
X197023809Y-122107142D01*
X197119047Y-122297619D01*
X187630952Y-123154761D02*
X188773809Y-123154761D01*
X188202380Y-123154761D02*
X188202380Y-121154761D01*
X188392857Y-121440476D01*
X188583333Y-121630952D01*
X188773809Y-121726190D01*
X185821428Y-121154761D02*
X186773809Y-121154761D01*
X186869047Y-122107142D01*
X186773809Y-122011904D01*
X186583333Y-121916666D01*
X186107142Y-121916666D01*
X185916666Y-122011904D01*
X185821428Y-122107142D01*
X185726190Y-122297619D01*
X185726190Y-122773809D01*
X185821428Y-122964285D01*
X185916666Y-123059523D01*
X186107142Y-123154761D01*
X186583333Y-123154761D01*
X186773809Y-123059523D01*
X186869047Y-122964285D01*
X172380952Y-123154761D02*
X173523809Y-123154761D01*
X172952380Y-123154761D02*
X172952380Y-121154761D01*
X173142857Y-121440476D01*
X173333333Y-121630952D01*
X173523809Y-121726190D01*
X170666666Y-121821428D02*
X170666666Y-123154761D01*
X171142857Y-121059523D02*
X171619047Y-122488095D01*
X170380952Y-122488095D01*
X162380952Y-123154761D02*
X163523809Y-123154761D01*
X162952380Y-123154761D02*
X162952380Y-121154761D01*
X163142857Y-121440476D01*
X163333333Y-121630952D01*
X163523809Y-121726190D01*
X161714285Y-121154761D02*
X160476190Y-121154761D01*
X161142857Y-121916666D01*
X160857142Y-121916666D01*
X160666666Y-122011904D01*
X160571428Y-122107142D01*
X160476190Y-122297619D01*
X160476190Y-122773809D01*
X160571428Y-122964285D01*
X160666666Y-123059523D01*
X160857142Y-123154761D01*
X161428571Y-123154761D01*
X161619047Y-123059523D01*
X161714285Y-122964285D01*
X97380952Y-123154761D02*
X98523809Y-123154761D01*
X97952380Y-123154761D02*
X97952380Y-121154761D01*
X98142857Y-121440476D01*
X98333333Y-121630952D01*
X98523809Y-121726190D01*
X96619047Y-121345238D02*
X96523809Y-121250000D01*
X96333333Y-121154761D01*
X95857142Y-121154761D01*
X95666666Y-121250000D01*
X95571428Y-121345238D01*
X95476190Y-121535714D01*
X95476190Y-121726190D01*
X95571428Y-122011904D01*
X96714285Y-123154761D01*
X95476190Y-123154761D01*
X87380952Y-122904761D02*
X88523809Y-122904761D01*
X87952380Y-122904761D02*
X87952380Y-120904761D01*
X88142857Y-121190476D01*
X88333333Y-121380952D01*
X88523809Y-121476190D01*
X85476190Y-122904761D02*
X86619047Y-122904761D01*
X86047619Y-122904761D02*
X86047619Y-120904761D01*
X86238095Y-121190476D01*
X86428571Y-121380952D01*
X86619047Y-121476190D01*
X72130952Y-122904761D02*
X73273809Y-122904761D01*
X72702380Y-122904761D02*
X72702380Y-120904761D01*
X72892857Y-121190476D01*
X73083333Y-121380952D01*
X73273809Y-121476190D01*
X70892857Y-120904761D02*
X70702380Y-120904761D01*
X70511904Y-121000000D01*
X70416666Y-121095238D01*
X70321428Y-121285714D01*
X70226190Y-121666666D01*
X70226190Y-122142857D01*
X70321428Y-122523809D01*
X70416666Y-122714285D01*
X70511904Y-122809523D01*
X70702380Y-122904761D01*
X70892857Y-122904761D01*
X71083333Y-122809523D01*
X71178571Y-122714285D01*
X71273809Y-122523809D01*
X71369047Y-122142857D01*
X71369047Y-121666666D01*
X71273809Y-121285714D01*
X71178571Y-121095238D01*
X71083333Y-121000000D01*
X70892857Y-120904761D01*
X61880952Y-122904761D02*
X61500000Y-122904761D01*
X61309523Y-122809523D01*
X61214285Y-122714285D01*
X61023809Y-122428571D01*
X60928571Y-122047619D01*
X60928571Y-121285714D01*
X61023809Y-121095238D01*
X61119047Y-121000000D01*
X61309523Y-120904761D01*
X61690476Y-120904761D01*
X61880952Y-121000000D01*
X61976190Y-121095238D01*
X62071428Y-121285714D01*
X62071428Y-121761904D01*
X61976190Y-121952380D01*
X61880952Y-122047619D01*
X61690476Y-122142857D01*
X61309523Y-122142857D01*
X61119047Y-122047619D01*
X61023809Y-121952380D01*
X60928571Y-121761904D01*
X61940476Y-42511904D02*
X62130952Y-42416666D01*
X62226190Y-42321428D01*
X62321428Y-42130952D01*
X62321428Y-42035714D01*
X62226190Y-41845238D01*
X62130952Y-41750000D01*
X61940476Y-41654761D01*
X61559523Y-41654761D01*
X61369047Y-41750000D01*
X61273809Y-41845238D01*
X61178571Y-42035714D01*
X61178571Y-42130952D01*
X61273809Y-42321428D01*
X61369047Y-42416666D01*
X61559523Y-42511904D01*
X61940476Y-42511904D01*
X62130952Y-42607142D01*
X62226190Y-42702380D01*
X62321428Y-42892857D01*
X62321428Y-43273809D01*
X62226190Y-43464285D01*
X62130952Y-43559523D01*
X61940476Y-43654761D01*
X61559523Y-43654761D01*
X61369047Y-43559523D01*
X61273809Y-43464285D01*
X61178571Y-43273809D01*
X61178571Y-42892857D01*
X61273809Y-42702380D01*
X61369047Y-42607142D01*
X61559523Y-42511904D01*
X72416666Y-41654761D02*
X71083333Y-41654761D01*
X71940476Y-43654761D01*
X86619047Y-41654761D02*
X87000000Y-41654761D01*
X87190476Y-41750000D01*
X87285714Y-41845238D01*
X87476190Y-42130952D01*
X87571428Y-42511904D01*
X87571428Y-43273809D01*
X87476190Y-43464285D01*
X87380952Y-43559523D01*
X87190476Y-43654761D01*
X86809523Y-43654761D01*
X86619047Y-43559523D01*
X86523809Y-43464285D01*
X86428571Y-43273809D01*
X86428571Y-42797619D01*
X86523809Y-42607142D01*
X86619047Y-42511904D01*
X86809523Y-42416666D01*
X87190476Y-42416666D01*
X87380952Y-42511904D01*
X87476190Y-42607142D01*
X87571428Y-42797619D01*
X96773809Y-41654761D02*
X97726190Y-41654761D01*
X97821428Y-42607142D01*
X97726190Y-42511904D01*
X97535714Y-42416666D01*
X97059523Y-42416666D01*
X96869047Y-42511904D01*
X96773809Y-42607142D01*
X96678571Y-42797619D01*
X96678571Y-43273809D01*
X96773809Y-43464285D01*
X96869047Y-43559523D01*
X97059523Y-43654761D01*
X97535714Y-43654761D01*
X97726190Y-43559523D01*
X97821428Y-43464285D01*
X161619047Y-42321428D02*
X161619047Y-43654761D01*
X162095238Y-41559523D02*
X162571428Y-42988095D01*
X161333333Y-42988095D01*
X172666666Y-41654761D02*
X171428571Y-41654761D01*
X172095238Y-42416666D01*
X171809523Y-42416666D01*
X171619047Y-42511904D01*
X171523809Y-42607142D01*
X171428571Y-42797619D01*
X171428571Y-43273809D01*
X171523809Y-43464285D01*
X171619047Y-43559523D01*
X171809523Y-43654761D01*
X172380952Y-43654761D01*
X172571428Y-43559523D01*
X172666666Y-43464285D01*
X188071428Y-41845238D02*
X187976190Y-41750000D01*
X187785714Y-41654761D01*
X187309523Y-41654761D01*
X187119047Y-41750000D01*
X187023809Y-41845238D01*
X186928571Y-42035714D01*
X186928571Y-42226190D01*
X187023809Y-42511904D01*
X188166666Y-43654761D01*
X186928571Y-43654761D01*
X197178571Y-43654761D02*
X198321428Y-43654761D01*
X197750000Y-43654761D02*
X197750000Y-41654761D01*
X197940476Y-41940476D01*
X198130952Y-42130952D01*
X198321428Y-42226190D01*
D10*
X144250000Y-112250000D02*
X144250000Y-114750000D01*
X143250000Y-112250000D02*
X143250000Y-114750000D01*
X114500000Y-101250000D02*
G75*
G02*
X115500000Y-101250000I500000J0D01*
G01*
X115500000Y-114750000D02*
G75*
G02*
X114500000Y-114750000I-500000J0D01*
G01*
X114500000Y-101250000D02*
X114500000Y-114750000D01*
X115500000Y-114750000D02*
X115500000Y-101250000D01*
X143250000Y-101250000D02*
G75*
G02*
X144250000Y-101250000I500000J0D01*
G01*
X144250000Y-114750000D02*
G75*
G02*
X143250000Y-114750000I-500000J0D01*
G01*
X143250000Y-101250000D02*
X143250000Y-112250000D01*
X144250000Y-112250000D02*
X144250000Y-101250000D01*
X112750000Y-46500000D02*
G75*
G02*
X113750000Y-46500000I500000J0D01*
G01*
X113750000Y-61500000D02*
G75*
G02*
X112750000Y-61500000I-500000J0D01*
G01*
X112750000Y-50500000D02*
X112750000Y-61500000D01*
X113750000Y-61500000D02*
X113750000Y-50500000D01*
X145750000Y-46500000D02*
G75*
G02*
X146750000Y-46500000I500000J0D01*
G01*
X146750000Y-61500000D02*
G75*
G02*
X145750000Y-61500000I-500000J0D01*
G01*
X145750000Y-50500000D02*
X145750000Y-61500000D01*
X146750000Y-61500000D02*
X146750000Y-50500000D01*
X53750000Y-64250000D02*
X111750000Y-64250000D01*
X111750000Y-63250000D02*
X53750000Y-63250000D01*
X53750000Y-64250000D02*
G75*
G02*
X53750000Y-63250000I0J500000D01*
G01*
X111750000Y-63250000D02*
G75*
G02*
X111750000Y-64250000I0J-500000D01*
G01*
X53750000Y-101750000D02*
X111750000Y-101750000D01*
X111750000Y-100750000D02*
X53750000Y-100750000D01*
X53750000Y-101750000D02*
G75*
G02*
X53750000Y-100750000I0J500000D01*
G01*
X111750000Y-100750000D02*
G75*
G02*
X111750000Y-101750000I0J-500000D01*
G01*
X147250000Y-101750000D02*
X205250000Y-101750000D01*
X205250000Y-100750000D02*
X147250000Y-100750000D01*
X147250000Y-101750000D02*
G75*
G02*
X147250000Y-100750000I0J500000D01*
G01*
X205250000Y-100750000D02*
G75*
G02*
X205250000Y-101750000I0J-500000D01*
G01*
X147000000Y-64250000D02*
G75*
G02*
X147000000Y-63250000I0J500000D01*
G01*
X205000000Y-63250000D02*
G75*
G02*
X205000000Y-64250000I0J-500000D01*
G01*
X147000000Y-64250000D02*
X205000000Y-64250000D01*
X205000000Y-63250000D02*
X147000000Y-63250000D01*
D12*
X207600000Y-125800000D02*
X51400000Y-125800000D01*
X207600000Y-39000000D02*
X207600000Y-125800000D01*
X51400000Y-125800000D02*
X51400000Y-39000000D01*
X51400000Y-39000000D02*
X207600000Y-39000000D01*
%TO.C,J2*%
D13*
X128612666Y-107652380D02*
X128612666Y-108366666D01*
X128565047Y-108509523D01*
X128469809Y-108604761D01*
X128326952Y-108652380D01*
X128231714Y-108652380D01*
X129041238Y-107747619D02*
X129088857Y-107700000D01*
X129184095Y-107652380D01*
X129422190Y-107652380D01*
X129517428Y-107700000D01*
X129565047Y-107747619D01*
X129612666Y-107842857D01*
X129612666Y-107938095D01*
X129565047Y-108080952D01*
X128993619Y-108652380D01*
X129612666Y-108652380D01*
D11*
X122642857Y-115654761D02*
X123785714Y-115654761D01*
X123214285Y-115654761D02*
X123214285Y-113654761D01*
X123404761Y-113940476D01*
X123595238Y-114130952D01*
X123785714Y-114226190D01*
X121880952Y-113845238D02*
X121785714Y-113750000D01*
X121595238Y-113654761D01*
X121119047Y-113654761D01*
X120928571Y-113750000D01*
X120833333Y-113845238D01*
X120738095Y-114035714D01*
X120738095Y-114226190D01*
X120833333Y-114511904D01*
X121976190Y-115654761D01*
X120738095Y-115654761D01*
X120071428Y-114321428D02*
X119595238Y-115654761D01*
X119119047Y-114321428D01*
X136773809Y-114000000D02*
X136964285Y-113904761D01*
X137250000Y-113904761D01*
X137535714Y-114000000D01*
X137726190Y-114190476D01*
X137821428Y-114380952D01*
X137916666Y-114761904D01*
X137916666Y-115047619D01*
X137821428Y-115428571D01*
X137726190Y-115619047D01*
X137535714Y-115809523D01*
X137250000Y-115904761D01*
X137059523Y-115904761D01*
X136773809Y-115809523D01*
X136678571Y-115714285D01*
X136678571Y-115047619D01*
X137059523Y-115047619D01*
X135821428Y-115904761D02*
X135821428Y-113904761D01*
X134678571Y-115904761D01*
X134678571Y-113904761D01*
X133726190Y-115904761D02*
X133726190Y-113904761D01*
X133250000Y-113904761D01*
X132964285Y-114000000D01*
X132773809Y-114190476D01*
X132678571Y-114380952D01*
X132583333Y-114761904D01*
X132583333Y-115047619D01*
X132678571Y-115428571D01*
X132773809Y-115619047D01*
X132964285Y-115809523D01*
X133250000Y-115904761D01*
X133726190Y-115904761D01*
%TD*%
M02*
