%TF.GenerationSoftware,KiCad,Pcbnew,5.1.9-73d0e3b20d~88~ubuntu20.04.1*%
%TF.CreationDate,2021-03-03T11:34:14+04:00*%
%TF.ProjectId,relay_board,72656c61-795f-4626-9f61-72642e6b6963,rev?*%
%TF.SameCoordinates,Original*%
%TF.FileFunction,Paste,Top*%
%TF.FilePolarity,Positive*%
%FSLAX46Y46*%
G04 Gerber Fmt 4.6, Leading zero omitted, Abs format (unit mm)*
G04 Created by KiCad (PCBNEW 5.1.9-73d0e3b20d~88~ubuntu20.04.1) date 2021-03-03 11:34:14*
%MOMM*%
%LPD*%
G01*
G04 APERTURE LIST*
%TA.AperFunction,Profile*%
%ADD10C,0.050000*%
%TD*%
%TA.AperFunction,Profile*%
%ADD11C,0.100000*%
%TD*%
G04 APERTURE END LIST*
D10*
X145750000Y-46500000D02*
X145750000Y-50500000D01*
X146750000Y-46500000D02*
X146750000Y-50500000D01*
X112750000Y-46500000D02*
X112750000Y-50500000D01*
X113750000Y-46500000D02*
X113750000Y-50500000D01*
X144250000Y-112250000D02*
X144250000Y-114750000D01*
X143250000Y-112250000D02*
X143250000Y-114750000D01*
X114500000Y-101250000D02*
G75*
G02*
X115500000Y-101250000I500000J0D01*
G01*
X115500000Y-114750000D02*
G75*
G02*
X114500000Y-114750000I-500000J0D01*
G01*
X114500000Y-101250000D02*
X114500000Y-114750000D01*
X115500000Y-114750000D02*
X115500000Y-101250000D01*
X143250000Y-101250000D02*
G75*
G02*
X144250000Y-101250000I500000J0D01*
G01*
X144250000Y-114750000D02*
G75*
G02*
X143250000Y-114750000I-500000J0D01*
G01*
X143250000Y-101250000D02*
X143250000Y-112250000D01*
X144250000Y-112250000D02*
X144250000Y-101250000D01*
X112750000Y-46500000D02*
G75*
G02*
X113750000Y-46500000I500000J0D01*
G01*
X113750000Y-61500000D02*
G75*
G02*
X112750000Y-61500000I-500000J0D01*
G01*
X112750000Y-50500000D02*
X112750000Y-61500000D01*
X113750000Y-61500000D02*
X113750000Y-50500000D01*
X145750000Y-46500000D02*
G75*
G02*
X146750000Y-46500000I500000J0D01*
G01*
X146750000Y-61500000D02*
G75*
G02*
X145750000Y-61500000I-500000J0D01*
G01*
X145750000Y-50500000D02*
X145750000Y-61500000D01*
X146750000Y-61500000D02*
X146750000Y-50500000D01*
X53750000Y-64250000D02*
X111750000Y-64250000D01*
X111750000Y-63250000D02*
X53750000Y-63250000D01*
X53750000Y-64250000D02*
G75*
G02*
X53750000Y-63250000I0J500000D01*
G01*
X111750000Y-63250000D02*
G75*
G02*
X111750000Y-64250000I0J-500000D01*
G01*
X53750000Y-101750000D02*
X111750000Y-101750000D01*
X111750000Y-100750000D02*
X53750000Y-100750000D01*
X53750000Y-101750000D02*
G75*
G02*
X53750000Y-100750000I0J500000D01*
G01*
X111750000Y-100750000D02*
G75*
G02*
X111750000Y-101750000I0J-500000D01*
G01*
X147250000Y-101750000D02*
X205250000Y-101750000D01*
X205250000Y-100750000D02*
X147250000Y-100750000D01*
X147250000Y-101750000D02*
G75*
G02*
X147250000Y-100750000I0J500000D01*
G01*
X205250000Y-100750000D02*
G75*
G02*
X205250000Y-101750000I0J-500000D01*
G01*
X147000000Y-64250000D02*
G75*
G02*
X147000000Y-63250000I0J500000D01*
G01*
X205000000Y-63250000D02*
G75*
G02*
X205000000Y-64250000I0J-500000D01*
G01*
X147000000Y-64250000D02*
X205000000Y-64250000D01*
X205000000Y-63250000D02*
X147000000Y-63250000D01*
D11*
X207600000Y-125800000D02*
X51400000Y-125800000D01*
X207600000Y-39000000D02*
X207600000Y-125800000D01*
X51400000Y-125800000D02*
X51400000Y-39000000D01*
X51400000Y-39000000D02*
X207600000Y-39000000D01*
M02*
