%TF.GenerationSoftware,KiCad,Pcbnew,5.1.9-73d0e3b20d~88~ubuntu20.04.1*%
%TF.CreationDate,2021-03-03T11:33:07+04:00*%
%TF.ProjectId,main_board,6d61696e-5f62-46f6-9172-642e6b696361,rev?*%
%TF.SameCoordinates,Original*%
%TF.FileFunction,Paste,Bot*%
%TF.FilePolarity,Positive*%
%FSLAX46Y46*%
G04 Gerber Fmt 4.6, Leading zero omitted, Abs format (unit mm)*
G04 Created by KiCad (PCBNEW 5.1.9-73d0e3b20d~88~ubuntu20.04.1) date 2021-03-03 11:33:07*
%MOMM*%
%LPD*%
G01*
G04 APERTURE LIST*
%TA.AperFunction,Profile*%
%ADD10C,0.100000*%
%TD*%
%ADD11R,0.800000X0.900000*%
%ADD12R,0.900000X0.800000*%
G04 APERTURE END LIST*
D10*
X210400000Y-29600000D02*
X54200000Y-29600000D01*
X210400000Y-29600000D02*
X210400000Y-88000000D01*
X210400000Y-88000000D02*
X54200000Y-88000000D01*
X54200000Y-29600000D02*
X54200000Y-88000000D01*
D11*
%TO.C,D23*%
X200880000Y-49940000D03*
X201830000Y-47940000D03*
X199930000Y-47940000D03*
%TD*%
%TO.C,D22*%
X198220000Y-47170000D03*
X199170000Y-45170000D03*
X197270000Y-45170000D03*
%TD*%
%TO.C,D21*%
X195566665Y-49940000D03*
X196516665Y-47940000D03*
X194616665Y-47940000D03*
%TD*%
%TO.C,D20*%
X192930000Y-47170000D03*
X193880000Y-45170000D03*
X191980000Y-45170000D03*
%TD*%
%TO.C,D19*%
X190253332Y-49940000D03*
X191203332Y-47940000D03*
X189303332Y-47940000D03*
%TD*%
%TO.C,D18*%
X187640000Y-47170000D03*
X188590000Y-45170000D03*
X186690000Y-45170000D03*
%TD*%
%TO.C,D17*%
X184939999Y-49940000D03*
X185889999Y-47940000D03*
X183989999Y-47940000D03*
%TD*%
%TO.C,D16*%
X182350000Y-47170000D03*
X183300000Y-45170000D03*
X181400000Y-45170000D03*
%TD*%
%TO.C,D15*%
X179626666Y-49940000D03*
X180576666Y-47940000D03*
X178676666Y-47940000D03*
%TD*%
%TO.C,D14*%
X177060000Y-47170000D03*
X178010000Y-45170000D03*
X176110000Y-45170000D03*
%TD*%
%TO.C,D13*%
X174313333Y-49940000D03*
X175263333Y-47940000D03*
X173363333Y-47940000D03*
%TD*%
%TO.C,D12*%
X171770000Y-47170000D03*
X172720000Y-45170000D03*
X170820000Y-45170000D03*
%TD*%
%TO.C,D11*%
X169000000Y-49940000D03*
X169950000Y-47940000D03*
X168050000Y-47940000D03*
%TD*%
%TO.C,D10*%
X166480000Y-47170000D03*
X167430000Y-45170000D03*
X165530000Y-45170000D03*
%TD*%
%TO.C,D9*%
X163420000Y-50010000D03*
X164370000Y-48010000D03*
X162470000Y-48010000D03*
%TD*%
D12*
%TO.C,D8*%
X157480000Y-41060000D03*
X159480000Y-42010000D03*
X159480000Y-40110000D03*
%TD*%
%TO.C,C55*%
G36*
G01*
X201660000Y-51980000D02*
X202000000Y-51980000D01*
G75*
G02*
X202140000Y-52120000I0J-140000D01*
G01*
X202140000Y-52400000D01*
G75*
G02*
X202000000Y-52540000I-140000J0D01*
G01*
X201660000Y-52540000D01*
G75*
G02*
X201520000Y-52400000I0J140000D01*
G01*
X201520000Y-52120000D01*
G75*
G02*
X201660000Y-51980000I140000J0D01*
G01*
G37*
G36*
G01*
X201660000Y-51020000D02*
X202000000Y-51020000D01*
G75*
G02*
X202140000Y-51160000I0J-140000D01*
G01*
X202140000Y-51440000D01*
G75*
G02*
X202000000Y-51580000I-140000J0D01*
G01*
X201660000Y-51580000D01*
G75*
G02*
X201520000Y-51440000I0J140000D01*
G01*
X201520000Y-51160000D01*
G75*
G02*
X201660000Y-51020000I140000J0D01*
G01*
G37*
%TD*%
%TO.C,C54*%
G36*
G01*
X199870000Y-51990000D02*
X200210000Y-51990000D01*
G75*
G02*
X200350000Y-52130000I0J-140000D01*
G01*
X200350000Y-52410000D01*
G75*
G02*
X200210000Y-52550000I-140000J0D01*
G01*
X199870000Y-52550000D01*
G75*
G02*
X199730000Y-52410000I0J140000D01*
G01*
X199730000Y-52130000D01*
G75*
G02*
X199870000Y-51990000I140000J0D01*
G01*
G37*
G36*
G01*
X199870000Y-51030000D02*
X200210000Y-51030000D01*
G75*
G02*
X200350000Y-51170000I0J-140000D01*
G01*
X200350000Y-51450000D01*
G75*
G02*
X200210000Y-51590000I-140000J0D01*
G01*
X199870000Y-51590000D01*
G75*
G02*
X199730000Y-51450000I0J140000D01*
G01*
X199730000Y-51170000D01*
G75*
G02*
X199870000Y-51030000I140000J0D01*
G01*
G37*
%TD*%
%TO.C,C53*%
G36*
G01*
X198890000Y-51990000D02*
X199230000Y-51990000D01*
G75*
G02*
X199370000Y-52130000I0J-140000D01*
G01*
X199370000Y-52410000D01*
G75*
G02*
X199230000Y-52550000I-140000J0D01*
G01*
X198890000Y-52550000D01*
G75*
G02*
X198750000Y-52410000I0J140000D01*
G01*
X198750000Y-52130000D01*
G75*
G02*
X198890000Y-51990000I140000J0D01*
G01*
G37*
G36*
G01*
X198890000Y-51030000D02*
X199230000Y-51030000D01*
G75*
G02*
X199370000Y-51170000I0J-140000D01*
G01*
X199370000Y-51450000D01*
G75*
G02*
X199230000Y-51590000I-140000J0D01*
G01*
X198890000Y-51590000D01*
G75*
G02*
X198750000Y-51450000I0J140000D01*
G01*
X198750000Y-51170000D01*
G75*
G02*
X198890000Y-51030000I140000J0D01*
G01*
G37*
%TD*%
%TO.C,C52*%
G36*
G01*
X197210000Y-51990000D02*
X197550000Y-51990000D01*
G75*
G02*
X197690000Y-52130000I0J-140000D01*
G01*
X197690000Y-52410000D01*
G75*
G02*
X197550000Y-52550000I-140000J0D01*
G01*
X197210000Y-52550000D01*
G75*
G02*
X197070000Y-52410000I0J140000D01*
G01*
X197070000Y-52130000D01*
G75*
G02*
X197210000Y-51990000I140000J0D01*
G01*
G37*
G36*
G01*
X197210000Y-51030000D02*
X197550000Y-51030000D01*
G75*
G02*
X197690000Y-51170000I0J-140000D01*
G01*
X197690000Y-51450000D01*
G75*
G02*
X197550000Y-51590000I-140000J0D01*
G01*
X197210000Y-51590000D01*
G75*
G02*
X197070000Y-51450000I0J140000D01*
G01*
X197070000Y-51170000D01*
G75*
G02*
X197210000Y-51030000I140000J0D01*
G01*
G37*
%TD*%
%TO.C,C51*%
G36*
G01*
X196220000Y-51990000D02*
X196560000Y-51990000D01*
G75*
G02*
X196700000Y-52130000I0J-140000D01*
G01*
X196700000Y-52410000D01*
G75*
G02*
X196560000Y-52550000I-140000J0D01*
G01*
X196220000Y-52550000D01*
G75*
G02*
X196080000Y-52410000I0J140000D01*
G01*
X196080000Y-52130000D01*
G75*
G02*
X196220000Y-51990000I140000J0D01*
G01*
G37*
G36*
G01*
X196220000Y-51030000D02*
X196560000Y-51030000D01*
G75*
G02*
X196700000Y-51170000I0J-140000D01*
G01*
X196700000Y-51450000D01*
G75*
G02*
X196560000Y-51590000I-140000J0D01*
G01*
X196220000Y-51590000D01*
G75*
G02*
X196080000Y-51450000I0J140000D01*
G01*
X196080000Y-51170000D01*
G75*
G02*
X196220000Y-51030000I140000J0D01*
G01*
G37*
%TD*%
%TO.C,C50*%
G36*
G01*
X194580000Y-51990000D02*
X194920000Y-51990000D01*
G75*
G02*
X195060000Y-52130000I0J-140000D01*
G01*
X195060000Y-52410000D01*
G75*
G02*
X194920000Y-52550000I-140000J0D01*
G01*
X194580000Y-52550000D01*
G75*
G02*
X194440000Y-52410000I0J140000D01*
G01*
X194440000Y-52130000D01*
G75*
G02*
X194580000Y-51990000I140000J0D01*
G01*
G37*
G36*
G01*
X194580000Y-51030000D02*
X194920000Y-51030000D01*
G75*
G02*
X195060000Y-51170000I0J-140000D01*
G01*
X195060000Y-51450000D01*
G75*
G02*
X194920000Y-51590000I-140000J0D01*
G01*
X194580000Y-51590000D01*
G75*
G02*
X194440000Y-51450000I0J140000D01*
G01*
X194440000Y-51170000D01*
G75*
G02*
X194580000Y-51030000I140000J0D01*
G01*
G37*
%TD*%
%TO.C,C49*%
G36*
G01*
X193590000Y-51990000D02*
X193930000Y-51990000D01*
G75*
G02*
X194070000Y-52130000I0J-140000D01*
G01*
X194070000Y-52410000D01*
G75*
G02*
X193930000Y-52550000I-140000J0D01*
G01*
X193590000Y-52550000D01*
G75*
G02*
X193450000Y-52410000I0J140000D01*
G01*
X193450000Y-52130000D01*
G75*
G02*
X193590000Y-51990000I140000J0D01*
G01*
G37*
G36*
G01*
X193590000Y-51030000D02*
X193930000Y-51030000D01*
G75*
G02*
X194070000Y-51170000I0J-140000D01*
G01*
X194070000Y-51450000D01*
G75*
G02*
X193930000Y-51590000I-140000J0D01*
G01*
X193590000Y-51590000D01*
G75*
G02*
X193450000Y-51450000I0J140000D01*
G01*
X193450000Y-51170000D01*
G75*
G02*
X193590000Y-51030000I140000J0D01*
G01*
G37*
%TD*%
%TO.C,C48*%
G36*
G01*
X191930000Y-51990000D02*
X192270000Y-51990000D01*
G75*
G02*
X192410000Y-52130000I0J-140000D01*
G01*
X192410000Y-52410000D01*
G75*
G02*
X192270000Y-52550000I-140000J0D01*
G01*
X191930000Y-52550000D01*
G75*
G02*
X191790000Y-52410000I0J140000D01*
G01*
X191790000Y-52130000D01*
G75*
G02*
X191930000Y-51990000I140000J0D01*
G01*
G37*
G36*
G01*
X191930000Y-51030000D02*
X192270000Y-51030000D01*
G75*
G02*
X192410000Y-51170000I0J-140000D01*
G01*
X192410000Y-51450000D01*
G75*
G02*
X192270000Y-51590000I-140000J0D01*
G01*
X191930000Y-51590000D01*
G75*
G02*
X191790000Y-51450000I0J140000D01*
G01*
X191790000Y-51170000D01*
G75*
G02*
X191930000Y-51030000I140000J0D01*
G01*
G37*
%TD*%
%TO.C,C47*%
G36*
G01*
X190940000Y-51990000D02*
X191280000Y-51990000D01*
G75*
G02*
X191420000Y-52130000I0J-140000D01*
G01*
X191420000Y-52410000D01*
G75*
G02*
X191280000Y-52550000I-140000J0D01*
G01*
X190940000Y-52550000D01*
G75*
G02*
X190800000Y-52410000I0J140000D01*
G01*
X190800000Y-52130000D01*
G75*
G02*
X190940000Y-51990000I140000J0D01*
G01*
G37*
G36*
G01*
X190940000Y-51030000D02*
X191280000Y-51030000D01*
G75*
G02*
X191420000Y-51170000I0J-140000D01*
G01*
X191420000Y-51450000D01*
G75*
G02*
X191280000Y-51590000I-140000J0D01*
G01*
X190940000Y-51590000D01*
G75*
G02*
X190800000Y-51450000I0J140000D01*
G01*
X190800000Y-51170000D01*
G75*
G02*
X190940000Y-51030000I140000J0D01*
G01*
G37*
%TD*%
%TO.C,C46*%
G36*
G01*
X189260000Y-51990000D02*
X189600000Y-51990000D01*
G75*
G02*
X189740000Y-52130000I0J-140000D01*
G01*
X189740000Y-52410000D01*
G75*
G02*
X189600000Y-52550000I-140000J0D01*
G01*
X189260000Y-52550000D01*
G75*
G02*
X189120000Y-52410000I0J140000D01*
G01*
X189120000Y-52130000D01*
G75*
G02*
X189260000Y-51990000I140000J0D01*
G01*
G37*
G36*
G01*
X189260000Y-51030000D02*
X189600000Y-51030000D01*
G75*
G02*
X189740000Y-51170000I0J-140000D01*
G01*
X189740000Y-51450000D01*
G75*
G02*
X189600000Y-51590000I-140000J0D01*
G01*
X189260000Y-51590000D01*
G75*
G02*
X189120000Y-51450000I0J140000D01*
G01*
X189120000Y-51170000D01*
G75*
G02*
X189260000Y-51030000I140000J0D01*
G01*
G37*
%TD*%
%TO.C,C45*%
G36*
G01*
X188280000Y-51990000D02*
X188620000Y-51990000D01*
G75*
G02*
X188760000Y-52130000I0J-140000D01*
G01*
X188760000Y-52410000D01*
G75*
G02*
X188620000Y-52550000I-140000J0D01*
G01*
X188280000Y-52550000D01*
G75*
G02*
X188140000Y-52410000I0J140000D01*
G01*
X188140000Y-52130000D01*
G75*
G02*
X188280000Y-51990000I140000J0D01*
G01*
G37*
G36*
G01*
X188280000Y-51030000D02*
X188620000Y-51030000D01*
G75*
G02*
X188760000Y-51170000I0J-140000D01*
G01*
X188760000Y-51450000D01*
G75*
G02*
X188620000Y-51590000I-140000J0D01*
G01*
X188280000Y-51590000D01*
G75*
G02*
X188140000Y-51450000I0J140000D01*
G01*
X188140000Y-51170000D01*
G75*
G02*
X188280000Y-51030000I140000J0D01*
G01*
G37*
%TD*%
%TO.C,C44*%
G36*
G01*
X186590000Y-51990000D02*
X186930000Y-51990000D01*
G75*
G02*
X187070000Y-52130000I0J-140000D01*
G01*
X187070000Y-52410000D01*
G75*
G02*
X186930000Y-52550000I-140000J0D01*
G01*
X186590000Y-52550000D01*
G75*
G02*
X186450000Y-52410000I0J140000D01*
G01*
X186450000Y-52130000D01*
G75*
G02*
X186590000Y-51990000I140000J0D01*
G01*
G37*
G36*
G01*
X186590000Y-51030000D02*
X186930000Y-51030000D01*
G75*
G02*
X187070000Y-51170000I0J-140000D01*
G01*
X187070000Y-51450000D01*
G75*
G02*
X186930000Y-51590000I-140000J0D01*
G01*
X186590000Y-51590000D01*
G75*
G02*
X186450000Y-51450000I0J140000D01*
G01*
X186450000Y-51170000D01*
G75*
G02*
X186590000Y-51030000I140000J0D01*
G01*
G37*
%TD*%
%TO.C,C43*%
G36*
G01*
X185600000Y-51990000D02*
X185940000Y-51990000D01*
G75*
G02*
X186080000Y-52130000I0J-140000D01*
G01*
X186080000Y-52410000D01*
G75*
G02*
X185940000Y-52550000I-140000J0D01*
G01*
X185600000Y-52550000D01*
G75*
G02*
X185460000Y-52410000I0J140000D01*
G01*
X185460000Y-52130000D01*
G75*
G02*
X185600000Y-51990000I140000J0D01*
G01*
G37*
G36*
G01*
X185600000Y-51030000D02*
X185940000Y-51030000D01*
G75*
G02*
X186080000Y-51170000I0J-140000D01*
G01*
X186080000Y-51450000D01*
G75*
G02*
X185940000Y-51590000I-140000J0D01*
G01*
X185600000Y-51590000D01*
G75*
G02*
X185460000Y-51450000I0J140000D01*
G01*
X185460000Y-51170000D01*
G75*
G02*
X185600000Y-51030000I140000J0D01*
G01*
G37*
%TD*%
%TO.C,C42*%
G36*
G01*
X183970000Y-51990000D02*
X184310000Y-51990000D01*
G75*
G02*
X184450000Y-52130000I0J-140000D01*
G01*
X184450000Y-52410000D01*
G75*
G02*
X184310000Y-52550000I-140000J0D01*
G01*
X183970000Y-52550000D01*
G75*
G02*
X183830000Y-52410000I0J140000D01*
G01*
X183830000Y-52130000D01*
G75*
G02*
X183970000Y-51990000I140000J0D01*
G01*
G37*
G36*
G01*
X183970000Y-51030000D02*
X184310000Y-51030000D01*
G75*
G02*
X184450000Y-51170000I0J-140000D01*
G01*
X184450000Y-51450000D01*
G75*
G02*
X184310000Y-51590000I-140000J0D01*
G01*
X183970000Y-51590000D01*
G75*
G02*
X183830000Y-51450000I0J140000D01*
G01*
X183830000Y-51170000D01*
G75*
G02*
X183970000Y-51030000I140000J0D01*
G01*
G37*
%TD*%
%TO.C,C41*%
G36*
G01*
X182980000Y-51990000D02*
X183320000Y-51990000D01*
G75*
G02*
X183460000Y-52130000I0J-140000D01*
G01*
X183460000Y-52410000D01*
G75*
G02*
X183320000Y-52550000I-140000J0D01*
G01*
X182980000Y-52550000D01*
G75*
G02*
X182840000Y-52410000I0J140000D01*
G01*
X182840000Y-52130000D01*
G75*
G02*
X182980000Y-51990000I140000J0D01*
G01*
G37*
G36*
G01*
X182980000Y-51030000D02*
X183320000Y-51030000D01*
G75*
G02*
X183460000Y-51170000I0J-140000D01*
G01*
X183460000Y-51450000D01*
G75*
G02*
X183320000Y-51590000I-140000J0D01*
G01*
X182980000Y-51590000D01*
G75*
G02*
X182840000Y-51450000I0J140000D01*
G01*
X182840000Y-51170000D01*
G75*
G02*
X182980000Y-51030000I140000J0D01*
G01*
G37*
%TD*%
%TO.C,C40*%
G36*
G01*
X181310000Y-51990000D02*
X181650000Y-51990000D01*
G75*
G02*
X181790000Y-52130000I0J-140000D01*
G01*
X181790000Y-52410000D01*
G75*
G02*
X181650000Y-52550000I-140000J0D01*
G01*
X181310000Y-52550000D01*
G75*
G02*
X181170000Y-52410000I0J140000D01*
G01*
X181170000Y-52130000D01*
G75*
G02*
X181310000Y-51990000I140000J0D01*
G01*
G37*
G36*
G01*
X181310000Y-51030000D02*
X181650000Y-51030000D01*
G75*
G02*
X181790000Y-51170000I0J-140000D01*
G01*
X181790000Y-51450000D01*
G75*
G02*
X181650000Y-51590000I-140000J0D01*
G01*
X181310000Y-51590000D01*
G75*
G02*
X181170000Y-51450000I0J140000D01*
G01*
X181170000Y-51170000D01*
G75*
G02*
X181310000Y-51030000I140000J0D01*
G01*
G37*
%TD*%
%TO.C,C39*%
G36*
G01*
X180310000Y-51990000D02*
X180650000Y-51990000D01*
G75*
G02*
X180790000Y-52130000I0J-140000D01*
G01*
X180790000Y-52410000D01*
G75*
G02*
X180650000Y-52550000I-140000J0D01*
G01*
X180310000Y-52550000D01*
G75*
G02*
X180170000Y-52410000I0J140000D01*
G01*
X180170000Y-52130000D01*
G75*
G02*
X180310000Y-51990000I140000J0D01*
G01*
G37*
G36*
G01*
X180310000Y-51030000D02*
X180650000Y-51030000D01*
G75*
G02*
X180790000Y-51170000I0J-140000D01*
G01*
X180790000Y-51450000D01*
G75*
G02*
X180650000Y-51590000I-140000J0D01*
G01*
X180310000Y-51590000D01*
G75*
G02*
X180170000Y-51450000I0J140000D01*
G01*
X180170000Y-51170000D01*
G75*
G02*
X180310000Y-51030000I140000J0D01*
G01*
G37*
%TD*%
%TO.C,C38*%
G36*
G01*
X178660000Y-51990000D02*
X179000000Y-51990000D01*
G75*
G02*
X179140000Y-52130000I0J-140000D01*
G01*
X179140000Y-52410000D01*
G75*
G02*
X179000000Y-52550000I-140000J0D01*
G01*
X178660000Y-52550000D01*
G75*
G02*
X178520000Y-52410000I0J140000D01*
G01*
X178520000Y-52130000D01*
G75*
G02*
X178660000Y-51990000I140000J0D01*
G01*
G37*
G36*
G01*
X178660000Y-51030000D02*
X179000000Y-51030000D01*
G75*
G02*
X179140000Y-51170000I0J-140000D01*
G01*
X179140000Y-51450000D01*
G75*
G02*
X179000000Y-51590000I-140000J0D01*
G01*
X178660000Y-51590000D01*
G75*
G02*
X178520000Y-51450000I0J140000D01*
G01*
X178520000Y-51170000D01*
G75*
G02*
X178660000Y-51030000I140000J0D01*
G01*
G37*
%TD*%
%TO.C,C37*%
G36*
G01*
X177670000Y-51990000D02*
X178010000Y-51990000D01*
G75*
G02*
X178150000Y-52130000I0J-140000D01*
G01*
X178150000Y-52410000D01*
G75*
G02*
X178010000Y-52550000I-140000J0D01*
G01*
X177670000Y-52550000D01*
G75*
G02*
X177530000Y-52410000I0J140000D01*
G01*
X177530000Y-52130000D01*
G75*
G02*
X177670000Y-51990000I140000J0D01*
G01*
G37*
G36*
G01*
X177670000Y-51030000D02*
X178010000Y-51030000D01*
G75*
G02*
X178150000Y-51170000I0J-140000D01*
G01*
X178150000Y-51450000D01*
G75*
G02*
X178010000Y-51590000I-140000J0D01*
G01*
X177670000Y-51590000D01*
G75*
G02*
X177530000Y-51450000I0J140000D01*
G01*
X177530000Y-51170000D01*
G75*
G02*
X177670000Y-51030000I140000J0D01*
G01*
G37*
%TD*%
%TO.C,C36*%
G36*
G01*
X176030000Y-51990000D02*
X176370000Y-51990000D01*
G75*
G02*
X176510000Y-52130000I0J-140000D01*
G01*
X176510000Y-52410000D01*
G75*
G02*
X176370000Y-52550000I-140000J0D01*
G01*
X176030000Y-52550000D01*
G75*
G02*
X175890000Y-52410000I0J140000D01*
G01*
X175890000Y-52130000D01*
G75*
G02*
X176030000Y-51990000I140000J0D01*
G01*
G37*
G36*
G01*
X176030000Y-51030000D02*
X176370000Y-51030000D01*
G75*
G02*
X176510000Y-51170000I0J-140000D01*
G01*
X176510000Y-51450000D01*
G75*
G02*
X176370000Y-51590000I-140000J0D01*
G01*
X176030000Y-51590000D01*
G75*
G02*
X175890000Y-51450000I0J140000D01*
G01*
X175890000Y-51170000D01*
G75*
G02*
X176030000Y-51030000I140000J0D01*
G01*
G37*
%TD*%
%TO.C,C35*%
G36*
G01*
X175040000Y-51990000D02*
X175380000Y-51990000D01*
G75*
G02*
X175520000Y-52130000I0J-140000D01*
G01*
X175520000Y-52410000D01*
G75*
G02*
X175380000Y-52550000I-140000J0D01*
G01*
X175040000Y-52550000D01*
G75*
G02*
X174900000Y-52410000I0J140000D01*
G01*
X174900000Y-52130000D01*
G75*
G02*
X175040000Y-51990000I140000J0D01*
G01*
G37*
G36*
G01*
X175040000Y-51030000D02*
X175380000Y-51030000D01*
G75*
G02*
X175520000Y-51170000I0J-140000D01*
G01*
X175520000Y-51450000D01*
G75*
G02*
X175380000Y-51590000I-140000J0D01*
G01*
X175040000Y-51590000D01*
G75*
G02*
X174900000Y-51450000I0J140000D01*
G01*
X174900000Y-51170000D01*
G75*
G02*
X175040000Y-51030000I140000J0D01*
G01*
G37*
%TD*%
%TO.C,C34*%
G36*
G01*
X173370000Y-51990000D02*
X173710000Y-51990000D01*
G75*
G02*
X173850000Y-52130000I0J-140000D01*
G01*
X173850000Y-52410000D01*
G75*
G02*
X173710000Y-52550000I-140000J0D01*
G01*
X173370000Y-52550000D01*
G75*
G02*
X173230000Y-52410000I0J140000D01*
G01*
X173230000Y-52130000D01*
G75*
G02*
X173370000Y-51990000I140000J0D01*
G01*
G37*
G36*
G01*
X173370000Y-51030000D02*
X173710000Y-51030000D01*
G75*
G02*
X173850000Y-51170000I0J-140000D01*
G01*
X173850000Y-51450000D01*
G75*
G02*
X173710000Y-51590000I-140000J0D01*
G01*
X173370000Y-51590000D01*
G75*
G02*
X173230000Y-51450000I0J140000D01*
G01*
X173230000Y-51170000D01*
G75*
G02*
X173370000Y-51030000I140000J0D01*
G01*
G37*
%TD*%
%TO.C,C33*%
G36*
G01*
X172380000Y-51990000D02*
X172720000Y-51990000D01*
G75*
G02*
X172860000Y-52130000I0J-140000D01*
G01*
X172860000Y-52410000D01*
G75*
G02*
X172720000Y-52550000I-140000J0D01*
G01*
X172380000Y-52550000D01*
G75*
G02*
X172240000Y-52410000I0J140000D01*
G01*
X172240000Y-52130000D01*
G75*
G02*
X172380000Y-51990000I140000J0D01*
G01*
G37*
G36*
G01*
X172380000Y-51030000D02*
X172720000Y-51030000D01*
G75*
G02*
X172860000Y-51170000I0J-140000D01*
G01*
X172860000Y-51450000D01*
G75*
G02*
X172720000Y-51590000I-140000J0D01*
G01*
X172380000Y-51590000D01*
G75*
G02*
X172240000Y-51450000I0J140000D01*
G01*
X172240000Y-51170000D01*
G75*
G02*
X172380000Y-51030000I140000J0D01*
G01*
G37*
%TD*%
%TO.C,C32*%
G36*
G01*
X170740000Y-51990000D02*
X171080000Y-51990000D01*
G75*
G02*
X171220000Y-52130000I0J-140000D01*
G01*
X171220000Y-52410000D01*
G75*
G02*
X171080000Y-52550000I-140000J0D01*
G01*
X170740000Y-52550000D01*
G75*
G02*
X170600000Y-52410000I0J140000D01*
G01*
X170600000Y-52130000D01*
G75*
G02*
X170740000Y-51990000I140000J0D01*
G01*
G37*
G36*
G01*
X170740000Y-51030000D02*
X171080000Y-51030000D01*
G75*
G02*
X171220000Y-51170000I0J-140000D01*
G01*
X171220000Y-51450000D01*
G75*
G02*
X171080000Y-51590000I-140000J0D01*
G01*
X170740000Y-51590000D01*
G75*
G02*
X170600000Y-51450000I0J140000D01*
G01*
X170600000Y-51170000D01*
G75*
G02*
X170740000Y-51030000I140000J0D01*
G01*
G37*
%TD*%
%TO.C,C31*%
G36*
G01*
X169750000Y-51990000D02*
X170090000Y-51990000D01*
G75*
G02*
X170230000Y-52130000I0J-140000D01*
G01*
X170230000Y-52410000D01*
G75*
G02*
X170090000Y-52550000I-140000J0D01*
G01*
X169750000Y-52550000D01*
G75*
G02*
X169610000Y-52410000I0J140000D01*
G01*
X169610000Y-52130000D01*
G75*
G02*
X169750000Y-51990000I140000J0D01*
G01*
G37*
G36*
G01*
X169750000Y-51030000D02*
X170090000Y-51030000D01*
G75*
G02*
X170230000Y-51170000I0J-140000D01*
G01*
X170230000Y-51450000D01*
G75*
G02*
X170090000Y-51590000I-140000J0D01*
G01*
X169750000Y-51590000D01*
G75*
G02*
X169610000Y-51450000I0J140000D01*
G01*
X169610000Y-51170000D01*
G75*
G02*
X169750000Y-51030000I140000J0D01*
G01*
G37*
%TD*%
%TO.C,C30*%
G36*
G01*
X168070000Y-51990000D02*
X168410000Y-51990000D01*
G75*
G02*
X168550000Y-52130000I0J-140000D01*
G01*
X168550000Y-52410000D01*
G75*
G02*
X168410000Y-52550000I-140000J0D01*
G01*
X168070000Y-52550000D01*
G75*
G02*
X167930000Y-52410000I0J140000D01*
G01*
X167930000Y-52130000D01*
G75*
G02*
X168070000Y-51990000I140000J0D01*
G01*
G37*
G36*
G01*
X168070000Y-51030000D02*
X168410000Y-51030000D01*
G75*
G02*
X168550000Y-51170000I0J-140000D01*
G01*
X168550000Y-51450000D01*
G75*
G02*
X168410000Y-51590000I-140000J0D01*
G01*
X168070000Y-51590000D01*
G75*
G02*
X167930000Y-51450000I0J140000D01*
G01*
X167930000Y-51170000D01*
G75*
G02*
X168070000Y-51030000I140000J0D01*
G01*
G37*
%TD*%
%TO.C,C29*%
G36*
G01*
X167080000Y-51990000D02*
X167420000Y-51990000D01*
G75*
G02*
X167560000Y-52130000I0J-140000D01*
G01*
X167560000Y-52410000D01*
G75*
G02*
X167420000Y-52550000I-140000J0D01*
G01*
X167080000Y-52550000D01*
G75*
G02*
X166940000Y-52410000I0J140000D01*
G01*
X166940000Y-52130000D01*
G75*
G02*
X167080000Y-51990000I140000J0D01*
G01*
G37*
G36*
G01*
X167080000Y-51030000D02*
X167420000Y-51030000D01*
G75*
G02*
X167560000Y-51170000I0J-140000D01*
G01*
X167560000Y-51450000D01*
G75*
G02*
X167420000Y-51590000I-140000J0D01*
G01*
X167080000Y-51590000D01*
G75*
G02*
X166940000Y-51450000I0J140000D01*
G01*
X166940000Y-51170000D01*
G75*
G02*
X167080000Y-51030000I140000J0D01*
G01*
G37*
%TD*%
%TO.C,C28*%
G36*
G01*
X165280000Y-51990000D02*
X165620000Y-51990000D01*
G75*
G02*
X165760000Y-52130000I0J-140000D01*
G01*
X165760000Y-52410000D01*
G75*
G02*
X165620000Y-52550000I-140000J0D01*
G01*
X165280000Y-52550000D01*
G75*
G02*
X165140000Y-52410000I0J140000D01*
G01*
X165140000Y-52130000D01*
G75*
G02*
X165280000Y-51990000I140000J0D01*
G01*
G37*
G36*
G01*
X165280000Y-51030000D02*
X165620000Y-51030000D01*
G75*
G02*
X165760000Y-51170000I0J-140000D01*
G01*
X165760000Y-51450000D01*
G75*
G02*
X165620000Y-51590000I-140000J0D01*
G01*
X165280000Y-51590000D01*
G75*
G02*
X165140000Y-51450000I0J140000D01*
G01*
X165140000Y-51170000D01*
G75*
G02*
X165280000Y-51030000I140000J0D01*
G01*
G37*
%TD*%
%TO.C,C27*%
G36*
G01*
X164290000Y-51990000D02*
X164630000Y-51990000D01*
G75*
G02*
X164770000Y-52130000I0J-140000D01*
G01*
X164770000Y-52410000D01*
G75*
G02*
X164630000Y-52550000I-140000J0D01*
G01*
X164290000Y-52550000D01*
G75*
G02*
X164150000Y-52410000I0J140000D01*
G01*
X164150000Y-52130000D01*
G75*
G02*
X164290000Y-51990000I140000J0D01*
G01*
G37*
G36*
G01*
X164290000Y-51030000D02*
X164630000Y-51030000D01*
G75*
G02*
X164770000Y-51170000I0J-140000D01*
G01*
X164770000Y-51450000D01*
G75*
G02*
X164630000Y-51590000I-140000J0D01*
G01*
X164290000Y-51590000D01*
G75*
G02*
X164150000Y-51450000I0J140000D01*
G01*
X164150000Y-51170000D01*
G75*
G02*
X164290000Y-51030000I140000J0D01*
G01*
G37*
%TD*%
%TO.C,C26*%
G36*
G01*
X162390000Y-51990000D02*
X162730000Y-51990000D01*
G75*
G02*
X162870000Y-52130000I0J-140000D01*
G01*
X162870000Y-52410000D01*
G75*
G02*
X162730000Y-52550000I-140000J0D01*
G01*
X162390000Y-52550000D01*
G75*
G02*
X162250000Y-52410000I0J140000D01*
G01*
X162250000Y-52130000D01*
G75*
G02*
X162390000Y-51990000I140000J0D01*
G01*
G37*
G36*
G01*
X162390000Y-51030000D02*
X162730000Y-51030000D01*
G75*
G02*
X162870000Y-51170000I0J-140000D01*
G01*
X162870000Y-51450000D01*
G75*
G02*
X162730000Y-51590000I-140000J0D01*
G01*
X162390000Y-51590000D01*
G75*
G02*
X162250000Y-51450000I0J140000D01*
G01*
X162250000Y-51170000D01*
G75*
G02*
X162390000Y-51030000I140000J0D01*
G01*
G37*
%TD*%
%TO.C,C25*%
G36*
G01*
X155240000Y-42120000D02*
X155240000Y-42460000D01*
G75*
G02*
X155100000Y-42600000I-140000J0D01*
G01*
X154820000Y-42600000D01*
G75*
G02*
X154680000Y-42460000I0J140000D01*
G01*
X154680000Y-42120000D01*
G75*
G02*
X154820000Y-41980000I140000J0D01*
G01*
X155100000Y-41980000D01*
G75*
G02*
X155240000Y-42120000I0J-140000D01*
G01*
G37*
G36*
G01*
X156200000Y-42120000D02*
X156200000Y-42460000D01*
G75*
G02*
X156060000Y-42600000I-140000J0D01*
G01*
X155780000Y-42600000D01*
G75*
G02*
X155640000Y-42460000I0J140000D01*
G01*
X155640000Y-42120000D01*
G75*
G02*
X155780000Y-41980000I140000J0D01*
G01*
X156060000Y-41980000D01*
G75*
G02*
X156200000Y-42120000I0J-140000D01*
G01*
G37*
%TD*%
%TO.C,C24*%
G36*
G01*
X155250000Y-39640000D02*
X155250000Y-39980000D01*
G75*
G02*
X155110000Y-40120000I-140000J0D01*
G01*
X154830000Y-40120000D01*
G75*
G02*
X154690000Y-39980000I0J140000D01*
G01*
X154690000Y-39640000D01*
G75*
G02*
X154830000Y-39500000I140000J0D01*
G01*
X155110000Y-39500000D01*
G75*
G02*
X155250000Y-39640000I0J-140000D01*
G01*
G37*
G36*
G01*
X156210000Y-39640000D02*
X156210000Y-39980000D01*
G75*
G02*
X156070000Y-40120000I-140000J0D01*
G01*
X155790000Y-40120000D01*
G75*
G02*
X155650000Y-39980000I0J140000D01*
G01*
X155650000Y-39640000D01*
G75*
G02*
X155790000Y-39500000I140000J0D01*
G01*
X156070000Y-39500000D01*
G75*
G02*
X156210000Y-39640000I0J-140000D01*
G01*
G37*
%TD*%
D11*
%TO.C,D4*%
X153380000Y-52320000D03*
X152430000Y-54320000D03*
X154330000Y-54320000D03*
%TD*%
%TO.C,D5*%
X156970000Y-52310000D03*
X156020000Y-54310000D03*
X157920000Y-54310000D03*
%TD*%
M02*
