M48
; DRILL file {KiCad 5.1.9-73d0e3b20d~88~ubuntu20.04.1} date Wed Mar  3 11:33:19 2021
; FORMAT={-:-/ absolute / inch / decimal}
; #@! TF.CreationDate,2021-03-03T11:33:19+04:00
; #@! TF.GenerationSoftware,Kicad,Pcbnew,5.1.9-73d0e3b20d~88~ubuntu20.04.1
FMAT,2
INCH
T1C0.0157
T2C0.0197
T3C0.0276
T4C0.0394
T5C0.0433
T6C0.0591
%
G90
G05
T1
X2.2091Y-2.8972
X2.274Y-2.8972
X2.339Y-2.8972
X2.4465Y-2.7815
X2.4929Y-2.4744
X2.5949Y-2.5035
X2.6421Y-2.5346
X2.6927Y-2.847
X2.7457Y-2.4319
X2.748Y-2.7228
X2.8429Y-2.2697
X2.9276Y-2.6512
X2.9795Y-2.4717
X3.0783Y-2.5051
X3.1283Y-2.5346
X3.1803Y-2.7815
X3.2201Y-2.7228
X3.2291Y-2.4343
X3.3276Y-2.2795
X3.4465Y-3.0205
X3.5016Y-3.0205
X3.5563Y-3.1925
X3.5563Y-3.2323
X3.5563Y-3.2736
X3.5567Y-3.0205
X3.8358Y-2.4717
X3.9366Y-2.5035
X3.9866Y-2.5346
X4.0362Y-2.6512
X4.0909Y-2.4433
X4.0992Y-2.7134
X4.1858Y-2.2654
X4.3193Y-2.4717
X4.4197Y-2.5035
X4.4697Y-2.5339
X4.5382Y-2.7228
X4.5433Y-2.8575
X4.6343Y-3.2654
X4.6713Y-3.2654
X4.7083Y-3.2638
X4.7461Y-3.2638
X5.0906Y-3.0736
X5.1457Y-3.0736
X5.2008Y-3.0736
X5.4669Y-2.5028
X5.5Y-3.2843
X5.5965Y-2.9118
X5.6862Y-2.387
X5.7331Y-2.7476
X5.7543Y-3.2768
X5.813Y-2.8043
X5.8154Y-2.6378
X5.8746Y-2.7277
X5.9083Y-2.7067
X5.935Y-2.6488
X5.989Y-1.9535
X5.9913Y-2.9118
X6.0323Y-2.5546
X6.3709Y-2.4669
X6.3843Y-2.3772
X6.535Y-2.2827
X6.6169Y-2.3303
X6.6177Y-2.3795
X6.763Y-1.9524
X6.7693Y-2.1677
X6.7724Y-2.2228
X6.776Y-2.4669
X6.7768Y-3.1224
X6.939Y-2.2827
X7.0177Y-2.3303
X7.0181Y-2.3791
X7.1013Y-3.1224
X7.1677Y-2.1685
X7.1685Y-2.2228
X7.1768Y-2.465
X7.1791Y-1.9528
X7.3386Y-2.2827
X7.4244Y-2.3303
X7.4244Y-2.3791
X7.4258Y-3.1224
X7.5752Y-2.4606
X7.5772Y-2.1693
X7.5957Y-1.9539
X7.7417Y-2.278
X7.7503Y-3.1224
X7.8244Y-2.3295
X7.8252Y-2.3791
X7.9799Y-1.9531
X8.0748Y-3.1224
T2
X6.2213Y-2.5898
X6.2213Y-2.6398
X6.2213Y-2.6898
X6.2213Y-2.7398
X6.2213Y-2.7898
X6.2213Y-2.8398
X6.2213Y-2.8898
X6.2213Y-2.9398
X6.2213Y-2.9898
X6.2213Y-3.0398
T3
X5.8272Y-2.2417
X5.9272Y-2.2417
X6.0272Y-2.2417
X6.1272Y-2.2417
X6.2272Y-2.2417
X6.3272Y-2.2417
T4
X2.3874Y-1.5516
X2.3874Y-1.6516
X2.4874Y-1.5516
X2.4874Y-1.6516
X2.5874Y-1.5516
X2.5874Y-1.6516
X2.6874Y-1.5516
X2.6874Y-1.6516
X2.7874Y-1.5516
X2.7874Y-1.6516
X2.8874Y-1.5516
X2.8874Y-1.6516
X2.9874Y-1.5516
X2.9874Y-1.6516
X3.0874Y-1.5516
X3.0874Y-1.6516
X3.1874Y-1.5516
X3.1874Y-1.6516
X3.2874Y-1.5516
X3.2874Y-1.6516
X3.7319Y-1.5496
X3.7319Y-1.6496
X3.8319Y-1.5496
X3.8319Y-1.6496
X3.9319Y-1.5496
X3.9319Y-1.6496
X4.0319Y-1.5496
X4.0319Y-1.6496
X4.1319Y-1.5496
X4.1319Y-1.6496
X4.2319Y-1.5496
X4.2319Y-1.6496
X4.3319Y-1.5496
X4.3319Y-1.6496
X4.4319Y-1.5496
X4.4319Y-1.6496
X4.5319Y-1.5496
X4.5319Y-1.6496
X4.6319Y-1.5496
X4.6319Y-1.6496
X6.4236Y-1.5535
X6.4236Y-1.6535
X6.5236Y-1.5535
X6.5236Y-1.6535
X6.6236Y-1.5535
X6.6236Y-1.6535
X6.7236Y-1.5535
X6.7236Y-1.6535
X6.8236Y-1.5535
X6.8236Y-1.6535
X6.9236Y-1.5535
X6.9236Y-1.6535
X7.0236Y-1.5535
X7.0236Y-1.6535
X7.1236Y-1.5535
X7.1236Y-1.6535
X7.2236Y-1.5535
X7.2236Y-1.6535
X7.3236Y-1.5535
X7.3236Y-1.6535
X7.4236Y-1.5535
X7.4236Y-1.6535
X7.5236Y-1.5535
X7.5236Y-1.6535
X7.6236Y-1.5535
X7.6236Y-1.6535
X7.7236Y-1.5535
X7.7236Y-1.6535
X7.8236Y-1.5535
X7.8236Y-1.6535
X7.9236Y-1.5535
X7.9236Y-1.6535
X8.0236Y-1.5535
X8.0236Y-1.6535
T5
X2.2531Y-3.0189
X2.2531Y-3.2
T6
X5.4205Y-1.5343
X5.4205Y-2.3409
T0
M30
