%TF.GenerationSoftware,KiCad,Pcbnew,5.1.9-73d0e3b20d~88~ubuntu20.04.1*%
%TF.CreationDate,2021-03-03T11:33:07+04:00*%
%TF.ProjectId,main_board,6d61696e-5f62-46f6-9172-642e6b696361,rev?*%
%TF.SameCoordinates,Original*%
%TF.FileFunction,Legend,Bot*%
%TF.FilePolarity,Positive*%
%FSLAX46Y46*%
G04 Gerber Fmt 4.6, Leading zero omitted, Abs format (unit mm)*
G04 Created by KiCad (PCBNEW 5.1.9-73d0e3b20d~88~ubuntu20.04.1) date 2021-03-03 11:33:07*
%MOMM*%
%LPD*%
G01*
G04 APERTURE LIST*
%ADD10C,0.200000*%
%ADD11C,0.150000*%
%TA.AperFunction,Profile*%
%ADD12C,0.100000*%
%TD*%
%ADD13C,0.120000*%
G04 APERTURE END LIST*
D10*
X147252857Y-70592380D02*
X147252857Y-69592380D01*
X147252857Y-70068571D02*
X146681428Y-70068571D01*
X146681428Y-70592380D02*
X146681428Y-69592380D01*
X146062380Y-70592380D02*
X146157619Y-70544761D01*
X146205238Y-70497142D01*
X146252857Y-70401904D01*
X146252857Y-70116190D01*
X146205238Y-70020952D01*
X146157619Y-69973333D01*
X146062380Y-69925714D01*
X145919523Y-69925714D01*
X145824285Y-69973333D01*
X145776666Y-70020952D01*
X145729047Y-70116190D01*
X145729047Y-70401904D01*
X145776666Y-70497142D01*
X145824285Y-70544761D01*
X145919523Y-70592380D01*
X146062380Y-70592380D01*
X145300476Y-70592380D02*
X145300476Y-69925714D01*
X145300476Y-70020952D02*
X145252857Y-69973333D01*
X145157619Y-69925714D01*
X145014761Y-69925714D01*
X144919523Y-69973333D01*
X144871904Y-70068571D01*
X144871904Y-70592380D01*
X144871904Y-70068571D02*
X144824285Y-69973333D01*
X144729047Y-69925714D01*
X144586190Y-69925714D01*
X144490952Y-69973333D01*
X144443333Y-70068571D01*
X144443333Y-70592380D01*
X143586190Y-70544761D02*
X143681428Y-70592380D01*
X143871904Y-70592380D01*
X143967142Y-70544761D01*
X144014761Y-70449523D01*
X144014761Y-70068571D01*
X143967142Y-69973333D01*
X143871904Y-69925714D01*
X143681428Y-69925714D01*
X143586190Y-69973333D01*
X143538571Y-70068571D01*
X143538571Y-70163809D01*
X144014761Y-70259047D01*
X141871904Y-70592380D02*
X142348095Y-70592380D01*
X142348095Y-69592380D01*
X141538571Y-70592380D02*
X141538571Y-69925714D01*
X141538571Y-69592380D02*
X141586190Y-69640000D01*
X141538571Y-69687619D01*
X141490952Y-69640000D01*
X141538571Y-69592380D01*
X141538571Y-69687619D01*
X140633809Y-69925714D02*
X140633809Y-70735238D01*
X140681428Y-70830476D01*
X140729047Y-70878095D01*
X140824285Y-70925714D01*
X140967142Y-70925714D01*
X141062380Y-70878095D01*
X140633809Y-70544761D02*
X140729047Y-70592380D01*
X140919523Y-70592380D01*
X141014761Y-70544761D01*
X141062380Y-70497142D01*
X141110000Y-70401904D01*
X141110000Y-70116190D01*
X141062380Y-70020952D01*
X141014761Y-69973333D01*
X140919523Y-69925714D01*
X140729047Y-69925714D01*
X140633809Y-69973333D01*
X140157619Y-70592380D02*
X140157619Y-69592380D01*
X139729047Y-70592380D02*
X139729047Y-70068571D01*
X139776666Y-69973333D01*
X139871904Y-69925714D01*
X140014761Y-69925714D01*
X140110000Y-69973333D01*
X140157619Y-70020952D01*
X139395714Y-69925714D02*
X139014761Y-69925714D01*
X139252857Y-69592380D02*
X139252857Y-70449523D01*
X139205238Y-70544761D01*
X139110000Y-70592380D01*
X139014761Y-70592380D01*
X137348095Y-70497142D02*
X137395714Y-70544761D01*
X137538571Y-70592380D01*
X137633809Y-70592380D01*
X137776666Y-70544761D01*
X137871904Y-70449523D01*
X137919523Y-70354285D01*
X137967142Y-70163809D01*
X137967142Y-70020952D01*
X137919523Y-69830476D01*
X137871904Y-69735238D01*
X137776666Y-69640000D01*
X137633809Y-69592380D01*
X137538571Y-69592380D01*
X137395714Y-69640000D01*
X137348095Y-69687619D01*
X136776666Y-70592380D02*
X136871904Y-70544761D01*
X136919523Y-70497142D01*
X136967142Y-70401904D01*
X136967142Y-70116190D01*
X136919523Y-70020952D01*
X136871904Y-69973333D01*
X136776666Y-69925714D01*
X136633809Y-69925714D01*
X136538571Y-69973333D01*
X136490952Y-70020952D01*
X136443333Y-70116190D01*
X136443333Y-70401904D01*
X136490952Y-70497142D01*
X136538571Y-70544761D01*
X136633809Y-70592380D01*
X136776666Y-70592380D01*
X136014761Y-69925714D02*
X136014761Y-70592380D01*
X136014761Y-70020952D02*
X135967142Y-69973333D01*
X135871904Y-69925714D01*
X135729047Y-69925714D01*
X135633809Y-69973333D01*
X135586190Y-70068571D01*
X135586190Y-70592380D01*
X135252857Y-69925714D02*
X134871904Y-69925714D01*
X135110000Y-69592380D02*
X135110000Y-70449523D01*
X135062380Y-70544761D01*
X134967142Y-70592380D01*
X134871904Y-70592380D01*
X134538571Y-70592380D02*
X134538571Y-69925714D01*
X134538571Y-70116190D02*
X134490952Y-70020952D01*
X134443333Y-69973333D01*
X134348095Y-69925714D01*
X134252857Y-69925714D01*
X133776666Y-70592380D02*
X133871904Y-70544761D01*
X133919523Y-70497142D01*
X133967142Y-70401904D01*
X133967142Y-70116190D01*
X133919523Y-70020952D01*
X133871904Y-69973333D01*
X133776666Y-69925714D01*
X133633809Y-69925714D01*
X133538571Y-69973333D01*
X133490952Y-70020952D01*
X133443333Y-70116190D01*
X133443333Y-70401904D01*
X133490952Y-70497142D01*
X133538571Y-70544761D01*
X133633809Y-70592380D01*
X133776666Y-70592380D01*
X132871904Y-70592380D02*
X132967142Y-70544761D01*
X133014761Y-70449523D01*
X133014761Y-69592380D01*
X132348095Y-70592380D02*
X132443333Y-70544761D01*
X132490952Y-70449523D01*
X132490952Y-69592380D01*
X131586190Y-70544761D02*
X131681428Y-70592380D01*
X131871904Y-70592380D01*
X131967142Y-70544761D01*
X132014761Y-70449523D01*
X132014761Y-70068571D01*
X131967142Y-69973333D01*
X131871904Y-69925714D01*
X131681428Y-69925714D01*
X131586190Y-69973333D01*
X131538571Y-70068571D01*
X131538571Y-70163809D01*
X132014761Y-70259047D01*
X131110000Y-70592380D02*
X131110000Y-69925714D01*
X131110000Y-70116190D02*
X131062380Y-70020952D01*
X131014761Y-69973333D01*
X130919523Y-69925714D01*
X130824285Y-69925714D01*
X143133809Y-72292380D02*
X143133809Y-71292380D01*
X142800476Y-72006666D01*
X142467142Y-71292380D01*
X142467142Y-72292380D01*
X141562380Y-72292380D02*
X141562380Y-71768571D01*
X141610000Y-71673333D01*
X141705238Y-71625714D01*
X141895714Y-71625714D01*
X141990952Y-71673333D01*
X141562380Y-72244761D02*
X141657619Y-72292380D01*
X141895714Y-72292380D01*
X141990952Y-72244761D01*
X142038571Y-72149523D01*
X142038571Y-72054285D01*
X141990952Y-71959047D01*
X141895714Y-71911428D01*
X141657619Y-71911428D01*
X141562380Y-71863809D01*
X141086190Y-72292380D02*
X141086190Y-71625714D01*
X141086190Y-71292380D02*
X141133809Y-71340000D01*
X141086190Y-71387619D01*
X141038571Y-71340000D01*
X141086190Y-71292380D01*
X141086190Y-71387619D01*
X140610000Y-71625714D02*
X140610000Y-72292380D01*
X140610000Y-71720952D02*
X140562380Y-71673333D01*
X140467142Y-71625714D01*
X140324285Y-71625714D01*
X140229047Y-71673333D01*
X140181428Y-71768571D01*
X140181428Y-72292380D01*
X138610000Y-71768571D02*
X138467142Y-71816190D01*
X138419523Y-71863809D01*
X138371904Y-71959047D01*
X138371904Y-72101904D01*
X138419523Y-72197142D01*
X138467142Y-72244761D01*
X138562380Y-72292380D01*
X138943333Y-72292380D01*
X138943333Y-71292380D01*
X138610000Y-71292380D01*
X138514761Y-71340000D01*
X138467142Y-71387619D01*
X138419523Y-71482857D01*
X138419523Y-71578095D01*
X138467142Y-71673333D01*
X138514761Y-71720952D01*
X138610000Y-71768571D01*
X138943333Y-71768571D01*
X137800476Y-72292380D02*
X137895714Y-72244761D01*
X137943333Y-72197142D01*
X137990952Y-72101904D01*
X137990952Y-71816190D01*
X137943333Y-71720952D01*
X137895714Y-71673333D01*
X137800476Y-71625714D01*
X137657619Y-71625714D01*
X137562380Y-71673333D01*
X137514761Y-71720952D01*
X137467142Y-71816190D01*
X137467142Y-72101904D01*
X137514761Y-72197142D01*
X137562380Y-72244761D01*
X137657619Y-72292380D01*
X137800476Y-72292380D01*
X136610000Y-72292380D02*
X136610000Y-71768571D01*
X136657619Y-71673333D01*
X136752857Y-71625714D01*
X136943333Y-71625714D01*
X137038571Y-71673333D01*
X136610000Y-72244761D02*
X136705238Y-72292380D01*
X136943333Y-72292380D01*
X137038571Y-72244761D01*
X137086190Y-72149523D01*
X137086190Y-72054285D01*
X137038571Y-71959047D01*
X136943333Y-71911428D01*
X136705238Y-71911428D01*
X136610000Y-71863809D01*
X136133809Y-72292380D02*
X136133809Y-71625714D01*
X136133809Y-71816190D02*
X136086190Y-71720952D01*
X136038571Y-71673333D01*
X135943333Y-71625714D01*
X135848095Y-71625714D01*
X135086190Y-72292380D02*
X135086190Y-71292380D01*
X135086190Y-72244761D02*
X135181428Y-72292380D01*
X135371904Y-72292380D01*
X135467142Y-72244761D01*
X135514761Y-72197142D01*
X135562380Y-72101904D01*
X135562380Y-71816190D01*
X135514761Y-71720952D01*
X135467142Y-71673333D01*
X135371904Y-71625714D01*
X135181428Y-71625714D01*
X135086190Y-71673333D01*
X141562380Y-73992380D02*
X141562380Y-73325714D01*
X141562380Y-73516190D02*
X141514761Y-73420952D01*
X141467142Y-73373333D01*
X141371904Y-73325714D01*
X141276666Y-73325714D01*
X140562380Y-73944761D02*
X140657619Y-73992380D01*
X140848095Y-73992380D01*
X140943333Y-73944761D01*
X140990952Y-73849523D01*
X140990952Y-73468571D01*
X140943333Y-73373333D01*
X140848095Y-73325714D01*
X140657619Y-73325714D01*
X140562380Y-73373333D01*
X140514761Y-73468571D01*
X140514761Y-73563809D01*
X140990952Y-73659047D01*
X140181428Y-73325714D02*
X139943333Y-73992380D01*
X139705238Y-73325714D01*
X138371904Y-72992380D02*
X138276666Y-72992380D01*
X138181428Y-73040000D01*
X138133809Y-73087619D01*
X138086190Y-73182857D01*
X138038571Y-73373333D01*
X138038571Y-73611428D01*
X138086190Y-73801904D01*
X138133809Y-73897142D01*
X138181428Y-73944761D01*
X138276666Y-73992380D01*
X138371904Y-73992380D01*
X138467142Y-73944761D01*
X138514761Y-73897142D01*
X138562380Y-73801904D01*
X138610000Y-73611428D01*
X138610000Y-73373333D01*
X138562380Y-73182857D01*
X138514761Y-73087619D01*
X138467142Y-73040000D01*
X138371904Y-72992380D01*
X137610000Y-73897142D02*
X137562380Y-73944761D01*
X137610000Y-73992380D01*
X137657619Y-73944761D01*
X137610000Y-73897142D01*
X137610000Y-73992380D01*
X136705238Y-73325714D02*
X136705238Y-73992380D01*
X136943333Y-72944761D02*
X137181428Y-73659047D01*
X136562380Y-73659047D01*
X143205238Y-74787619D02*
X143157619Y-74740000D01*
X143062380Y-74692380D01*
X142824285Y-74692380D01*
X142729047Y-74740000D01*
X142681428Y-74787619D01*
X142633809Y-74882857D01*
X142633809Y-74978095D01*
X142681428Y-75120952D01*
X143252857Y-75692380D01*
X142633809Y-75692380D01*
X141681428Y-75692380D02*
X142252857Y-75692380D01*
X141967142Y-75692380D02*
X141967142Y-74692380D01*
X142062380Y-74835238D01*
X142157619Y-74930476D01*
X142252857Y-74978095D01*
X141252857Y-75597142D02*
X141205238Y-75644761D01*
X141252857Y-75692380D01*
X141300476Y-75644761D01*
X141252857Y-75597142D01*
X141252857Y-75692380D01*
X140586190Y-74692380D02*
X140490952Y-74692380D01*
X140395714Y-74740000D01*
X140348095Y-74787619D01*
X140300476Y-74882857D01*
X140252857Y-75073333D01*
X140252857Y-75311428D01*
X140300476Y-75501904D01*
X140348095Y-75597142D01*
X140395714Y-75644761D01*
X140490952Y-75692380D01*
X140586190Y-75692380D01*
X140681428Y-75644761D01*
X140729047Y-75597142D01*
X140776666Y-75501904D01*
X140824285Y-75311428D01*
X140824285Y-75073333D01*
X140776666Y-74882857D01*
X140729047Y-74787619D01*
X140681428Y-74740000D01*
X140586190Y-74692380D01*
X139871904Y-74787619D02*
X139824285Y-74740000D01*
X139729047Y-74692380D01*
X139490952Y-74692380D01*
X139395714Y-74740000D01*
X139348095Y-74787619D01*
X139300476Y-74882857D01*
X139300476Y-74978095D01*
X139348095Y-75120952D01*
X139919523Y-75692380D01*
X139300476Y-75692380D01*
X138871904Y-75597142D02*
X138824285Y-75644761D01*
X138871904Y-75692380D01*
X138919523Y-75644761D01*
X138871904Y-75597142D01*
X138871904Y-75692380D01*
X138443333Y-74787619D02*
X138395714Y-74740000D01*
X138300476Y-74692380D01*
X138062380Y-74692380D01*
X137967142Y-74740000D01*
X137919523Y-74787619D01*
X137871904Y-74882857D01*
X137871904Y-74978095D01*
X137919523Y-75120952D01*
X138490952Y-75692380D01*
X137871904Y-75692380D01*
X137252857Y-74692380D02*
X137157619Y-74692380D01*
X137062380Y-74740000D01*
X137014761Y-74787619D01*
X136967142Y-74882857D01*
X136919523Y-75073333D01*
X136919523Y-75311428D01*
X136967142Y-75501904D01*
X137014761Y-75597142D01*
X137062380Y-75644761D01*
X137157619Y-75692380D01*
X137252857Y-75692380D01*
X137348095Y-75644761D01*
X137395714Y-75597142D01*
X137443333Y-75501904D01*
X137490952Y-75311428D01*
X137490952Y-75073333D01*
X137443333Y-74882857D01*
X137395714Y-74787619D01*
X137348095Y-74740000D01*
X137252857Y-74692380D01*
X136538571Y-74787619D02*
X136490952Y-74740000D01*
X136395714Y-74692380D01*
X136157619Y-74692380D01*
X136062380Y-74740000D01*
X136014761Y-74787619D01*
X135967142Y-74882857D01*
X135967142Y-74978095D01*
X136014761Y-75120952D01*
X136586190Y-75692380D01*
X135967142Y-75692380D01*
X135014761Y-75692380D02*
X135586190Y-75692380D01*
X135300476Y-75692380D02*
X135300476Y-74692380D01*
X135395714Y-74835238D01*
X135490952Y-74930476D01*
X135586190Y-74978095D01*
D11*
X82010000Y-49680000D02*
X67450000Y-49680000D01*
X82000000Y-49680000D02*
X82000000Y-52970000D01*
X67450000Y-52950000D02*
X81980000Y-52950000D01*
X71220000Y-49680000D02*
X71220000Y-52950000D01*
X67430000Y-49680000D02*
X63730000Y-49680000D01*
X76000952Y-48142380D02*
X75810476Y-48142380D01*
X75715238Y-48190000D01*
X75620000Y-48285238D01*
X75572380Y-48475714D01*
X75572380Y-48809047D01*
X75620000Y-48999523D01*
X75715238Y-49094761D01*
X75810476Y-49142380D01*
X76000952Y-49142380D01*
X76096190Y-49094761D01*
X76191428Y-48999523D01*
X76239047Y-48809047D01*
X76239047Y-48475714D01*
X76191428Y-48285238D01*
X76096190Y-48190000D01*
X76000952Y-48142380D01*
X75143809Y-48142380D02*
X75143809Y-48951904D01*
X75096190Y-49047142D01*
X75048571Y-49094761D01*
X74953333Y-49142380D01*
X74762857Y-49142380D01*
X74667619Y-49094761D01*
X74620000Y-49047142D01*
X74572380Y-48951904D01*
X74572380Y-48142380D01*
X74239047Y-48142380D02*
X73667619Y-48142380D01*
X73953333Y-49142380D02*
X73953333Y-48142380D01*
X73334285Y-49142380D02*
X73334285Y-48142380D01*
X72953333Y-48142380D01*
X72858095Y-48190000D01*
X72810476Y-48237619D01*
X72762857Y-48332857D01*
X72762857Y-48475714D01*
X72810476Y-48570952D01*
X72858095Y-48618571D01*
X72953333Y-48666190D01*
X73334285Y-48666190D01*
X72334285Y-48142380D02*
X72334285Y-48951904D01*
X72286666Y-49047142D01*
X72239047Y-49094761D01*
X72143809Y-49142380D01*
X71953333Y-49142380D01*
X71858095Y-49094761D01*
X71810476Y-49047142D01*
X71762857Y-48951904D01*
X71762857Y-48142380D01*
X71429523Y-48142380D02*
X70858095Y-48142380D01*
X71143809Y-49142380D02*
X71143809Y-48142380D01*
X70572380Y-49094761D02*
X70429523Y-49142380D01*
X70191428Y-49142380D01*
X70096190Y-49094761D01*
X70048571Y-49047142D01*
X70000952Y-48951904D01*
X70000952Y-48856666D01*
X70048571Y-48761428D01*
X70096190Y-48713809D01*
X70191428Y-48666190D01*
X70381904Y-48618571D01*
X70477142Y-48570952D01*
X70524761Y-48523333D01*
X70572380Y-48428095D01*
X70572380Y-48332857D01*
X70524761Y-48237619D01*
X70477142Y-48190000D01*
X70381904Y-48142380D01*
X70143809Y-48142380D01*
X70000952Y-48190000D01*
X63730000Y-49680000D02*
X63730000Y-52950000D01*
X63730000Y-52950000D02*
X67550000Y-52950000D01*
X80900595Y-50997380D02*
X81472023Y-50997380D01*
X81186309Y-50997380D02*
X81186309Y-49997380D01*
X81281547Y-50140238D01*
X81376785Y-50235476D01*
X81472023Y-50283095D01*
X80329166Y-50425952D02*
X80424404Y-50378333D01*
X80472023Y-50330714D01*
X80519642Y-50235476D01*
X80519642Y-50187857D01*
X80472023Y-50092619D01*
X80424404Y-50045000D01*
X80329166Y-49997380D01*
X80138690Y-49997380D01*
X80043452Y-50045000D01*
X79995833Y-50092619D01*
X79948214Y-50187857D01*
X79948214Y-50235476D01*
X79995833Y-50330714D01*
X80043452Y-50378333D01*
X80138690Y-50425952D01*
X80329166Y-50425952D01*
X80424404Y-50473571D01*
X80472023Y-50521190D01*
X80519642Y-50616428D01*
X80519642Y-50806904D01*
X80472023Y-50902142D01*
X80424404Y-50949761D01*
X80329166Y-50997380D01*
X80138690Y-50997380D01*
X80043452Y-50949761D01*
X79995833Y-50902142D01*
X79948214Y-50806904D01*
X79948214Y-50616428D01*
X79995833Y-50521190D01*
X80043452Y-50473571D01*
X80138690Y-50425952D01*
X78805357Y-50092619D02*
X78757738Y-50045000D01*
X78662500Y-49997380D01*
X78424404Y-49997380D01*
X78329166Y-50045000D01*
X78281547Y-50092619D01*
X78233928Y-50187857D01*
X78233928Y-50283095D01*
X78281547Y-50425952D01*
X78852976Y-50997380D01*
X78233928Y-50997380D01*
X77614880Y-49997380D02*
X77519642Y-49997380D01*
X77424404Y-50045000D01*
X77376785Y-50092619D01*
X77329166Y-50187857D01*
X77281547Y-50378333D01*
X77281547Y-50616428D01*
X77329166Y-50806904D01*
X77376785Y-50902142D01*
X77424404Y-50949761D01*
X77519642Y-50997380D01*
X77614880Y-50997380D01*
X77710119Y-50949761D01*
X77757738Y-50902142D01*
X77805357Y-50806904D01*
X77852976Y-50616428D01*
X77852976Y-50378333D01*
X77805357Y-50187857D01*
X77757738Y-50092619D01*
X77710119Y-50045000D01*
X77614880Y-49997380D01*
X76091071Y-50902142D02*
X76043452Y-50949761D01*
X76091071Y-50997380D01*
X76138690Y-50949761D01*
X76091071Y-50902142D01*
X76091071Y-50997380D01*
X75614880Y-50902142D02*
X75567261Y-50949761D01*
X75614880Y-50997380D01*
X75662500Y-50949761D01*
X75614880Y-50902142D01*
X75614880Y-50997380D01*
X75138690Y-50902142D02*
X75091071Y-50949761D01*
X75138690Y-50997380D01*
X75186309Y-50949761D01*
X75138690Y-50902142D01*
X75138690Y-50997380D01*
X73995833Y-49997380D02*
X73376785Y-49997380D01*
X73710119Y-50378333D01*
X73567261Y-50378333D01*
X73472023Y-50425952D01*
X73424404Y-50473571D01*
X73376785Y-50568809D01*
X73376785Y-50806904D01*
X73424404Y-50902142D01*
X73472023Y-50949761D01*
X73567261Y-50997380D01*
X73852976Y-50997380D01*
X73948214Y-50949761D01*
X73995833Y-50902142D01*
X72757738Y-49997380D02*
X72662500Y-49997380D01*
X72567261Y-50045000D01*
X72519642Y-50092619D01*
X72472023Y-50187857D01*
X72424404Y-50378333D01*
X72424404Y-50616428D01*
X72472023Y-50806904D01*
X72519642Y-50902142D01*
X72567261Y-50949761D01*
X72662500Y-50997380D01*
X72757738Y-50997380D01*
X72852976Y-50949761D01*
X72900595Y-50902142D01*
X72948214Y-50806904D01*
X72995833Y-50616428D01*
X72995833Y-50378333D01*
X72948214Y-50187857D01*
X72900595Y-50092619D01*
X72852976Y-50045000D01*
X72757738Y-49997380D01*
X71329166Y-49997380D02*
X70710119Y-49997380D01*
X71043452Y-50378333D01*
X70900595Y-50378333D01*
X70805357Y-50425952D01*
X70757738Y-50473571D01*
X70710119Y-50568809D01*
X70710119Y-50806904D01*
X70757738Y-50902142D01*
X70805357Y-50949761D01*
X70900595Y-50997380D01*
X71186309Y-50997380D01*
X71281547Y-50949761D01*
X71329166Y-50902142D01*
X70329166Y-50092619D02*
X70281547Y-50045000D01*
X70186309Y-49997380D01*
X69948214Y-49997380D01*
X69852976Y-50045000D01*
X69805357Y-50092619D01*
X69757738Y-50187857D01*
X69757738Y-50283095D01*
X69805357Y-50425952D01*
X70376785Y-50997380D01*
X69757738Y-50997380D01*
X67995833Y-50902142D02*
X68043452Y-50949761D01*
X68186309Y-50997380D01*
X68281547Y-50997380D01*
X68424404Y-50949761D01*
X68519642Y-50854523D01*
X68567261Y-50759285D01*
X68614880Y-50568809D01*
X68614880Y-50425952D01*
X68567261Y-50235476D01*
X68519642Y-50140238D01*
X68424404Y-50045000D01*
X68281547Y-49997380D01*
X68186309Y-49997380D01*
X68043452Y-50045000D01*
X67995833Y-50092619D01*
X67376785Y-49997380D02*
X67186309Y-49997380D01*
X67091071Y-50045000D01*
X66995833Y-50140238D01*
X66948214Y-50330714D01*
X66948214Y-50664047D01*
X66995833Y-50854523D01*
X67091071Y-50949761D01*
X67186309Y-50997380D01*
X67376785Y-50997380D01*
X67472023Y-50949761D01*
X67567261Y-50854523D01*
X67614880Y-50664047D01*
X67614880Y-50330714D01*
X67567261Y-50140238D01*
X67472023Y-50045000D01*
X67376785Y-49997380D01*
X66519642Y-50997380D02*
X66519642Y-49997380D01*
X66186309Y-50711666D01*
X65852976Y-49997380D01*
X65852976Y-50997380D01*
X64091071Y-50045000D02*
X64186309Y-49997380D01*
X64329166Y-49997380D01*
X64472023Y-50045000D01*
X64567261Y-50140238D01*
X64614880Y-50235476D01*
X64662500Y-50425952D01*
X64662500Y-50568809D01*
X64614880Y-50759285D01*
X64567261Y-50854523D01*
X64472023Y-50949761D01*
X64329166Y-50997380D01*
X64233928Y-50997380D01*
X64091071Y-50949761D01*
X64043452Y-50902142D01*
X64043452Y-50568809D01*
X64233928Y-50568809D01*
X63614880Y-50997380D02*
X63614880Y-49997380D01*
X63043452Y-50997380D01*
X63043452Y-49997380D01*
X62567261Y-50997380D02*
X62567261Y-49997380D01*
X62329166Y-49997380D01*
X62186309Y-50045000D01*
X62091071Y-50140238D01*
X62043452Y-50235476D01*
X61995833Y-50425952D01*
X61995833Y-50568809D01*
X62043452Y-50759285D01*
X62091071Y-50854523D01*
X62186309Y-50949761D01*
X62329166Y-50997380D01*
X62567261Y-50997380D01*
X80900595Y-52647380D02*
X81472023Y-52647380D01*
X81186309Y-52647380D02*
X81186309Y-51647380D01*
X81281547Y-51790238D01*
X81376785Y-51885476D01*
X81472023Y-51933095D01*
X80567261Y-51647380D02*
X79900595Y-51647380D01*
X80329166Y-52647380D01*
X78233928Y-52647380D02*
X78805357Y-52647380D01*
X78519642Y-52647380D02*
X78519642Y-51647380D01*
X78614880Y-51790238D01*
X78710119Y-51885476D01*
X78805357Y-51933095D01*
X77757738Y-52647380D02*
X77567261Y-52647380D01*
X77472023Y-52599761D01*
X77424404Y-52552142D01*
X77329166Y-52409285D01*
X77281547Y-52218809D01*
X77281547Y-51837857D01*
X77329166Y-51742619D01*
X77376785Y-51695000D01*
X77472023Y-51647380D01*
X77662500Y-51647380D01*
X77757738Y-51695000D01*
X77805357Y-51742619D01*
X77852976Y-51837857D01*
X77852976Y-52075952D01*
X77805357Y-52171190D01*
X77757738Y-52218809D01*
X77662500Y-52266428D01*
X77472023Y-52266428D01*
X77376785Y-52218809D01*
X77329166Y-52171190D01*
X77281547Y-52075952D01*
X76091071Y-52552142D02*
X76043452Y-52599761D01*
X76091071Y-52647380D01*
X76138690Y-52599761D01*
X76091071Y-52552142D01*
X76091071Y-52647380D01*
X75614880Y-52552142D02*
X75567261Y-52599761D01*
X75614880Y-52647380D01*
X75662500Y-52599761D01*
X75614880Y-52552142D01*
X75614880Y-52647380D01*
X75138690Y-52552142D02*
X75091071Y-52599761D01*
X75138690Y-52647380D01*
X75186309Y-52599761D01*
X75138690Y-52552142D01*
X75138690Y-52647380D01*
X73948214Y-51742619D02*
X73900595Y-51695000D01*
X73805357Y-51647380D01*
X73567261Y-51647380D01*
X73472023Y-51695000D01*
X73424404Y-51742619D01*
X73376785Y-51837857D01*
X73376785Y-51933095D01*
X73424404Y-52075952D01*
X73995833Y-52647380D01*
X73376785Y-52647380D01*
X72900595Y-52647380D02*
X72710119Y-52647380D01*
X72614880Y-52599761D01*
X72567261Y-52552142D01*
X72472023Y-52409285D01*
X72424404Y-52218809D01*
X72424404Y-51837857D01*
X72472023Y-51742619D01*
X72519642Y-51695000D01*
X72614880Y-51647380D01*
X72805357Y-51647380D01*
X72900595Y-51695000D01*
X72948214Y-51742619D01*
X72995833Y-51837857D01*
X72995833Y-52075952D01*
X72948214Y-52171190D01*
X72900595Y-52218809D01*
X72805357Y-52266428D01*
X72614880Y-52266428D01*
X72519642Y-52218809D01*
X72472023Y-52171190D01*
X72424404Y-52075952D01*
X71329166Y-51647380D02*
X70710119Y-51647380D01*
X71043452Y-52028333D01*
X70900595Y-52028333D01*
X70805357Y-52075952D01*
X70757738Y-52123571D01*
X70710119Y-52218809D01*
X70710119Y-52456904D01*
X70757738Y-52552142D01*
X70805357Y-52599761D01*
X70900595Y-52647380D01*
X71186309Y-52647380D01*
X71281547Y-52599761D01*
X71329166Y-52552142D01*
X69757738Y-52647380D02*
X70329166Y-52647380D01*
X70043452Y-52647380D02*
X70043452Y-51647380D01*
X70138690Y-51790238D01*
X70233928Y-51885476D01*
X70329166Y-51933095D01*
X67995833Y-52552142D02*
X68043452Y-52599761D01*
X68186309Y-52647380D01*
X68281547Y-52647380D01*
X68424404Y-52599761D01*
X68519642Y-52504523D01*
X68567261Y-52409285D01*
X68614880Y-52218809D01*
X68614880Y-52075952D01*
X68567261Y-51885476D01*
X68519642Y-51790238D01*
X68424404Y-51695000D01*
X68281547Y-51647380D01*
X68186309Y-51647380D01*
X68043452Y-51695000D01*
X67995833Y-51742619D01*
X67376785Y-51647380D02*
X67186309Y-51647380D01*
X67091071Y-51695000D01*
X66995833Y-51790238D01*
X66948214Y-51980714D01*
X66948214Y-52314047D01*
X66995833Y-52504523D01*
X67091071Y-52599761D01*
X67186309Y-52647380D01*
X67376785Y-52647380D01*
X67472023Y-52599761D01*
X67567261Y-52504523D01*
X67614880Y-52314047D01*
X67614880Y-51980714D01*
X67567261Y-51790238D01*
X67472023Y-51695000D01*
X67376785Y-51647380D01*
X66519642Y-52647380D02*
X66519642Y-51647380D01*
X66186309Y-52361666D01*
X65852976Y-51647380D01*
X65852976Y-52647380D01*
X64091071Y-51695000D02*
X64186309Y-51647380D01*
X64329166Y-51647380D01*
X64472023Y-51695000D01*
X64567261Y-51790238D01*
X64614880Y-51885476D01*
X64662500Y-52075952D01*
X64662500Y-52218809D01*
X64614880Y-52409285D01*
X64567261Y-52504523D01*
X64472023Y-52599761D01*
X64329166Y-52647380D01*
X64233928Y-52647380D01*
X64091071Y-52599761D01*
X64043452Y-52552142D01*
X64043452Y-52218809D01*
X64233928Y-52218809D01*
X63614880Y-52647380D02*
X63614880Y-51647380D01*
X63043452Y-52647380D01*
X63043452Y-51647380D01*
X62567261Y-52647380D02*
X62567261Y-51647380D01*
X62329166Y-51647380D01*
X62186309Y-51695000D01*
X62091071Y-51790238D01*
X62043452Y-51885476D01*
X61995833Y-52075952D01*
X61995833Y-52218809D01*
X62043452Y-52409285D01*
X62091071Y-52504523D01*
X62186309Y-52599761D01*
X62329166Y-52647380D01*
X62567261Y-52647380D01*
X95910000Y-53200000D02*
X99730000Y-53200000D01*
X95910000Y-49930000D02*
X95910000Y-53200000D01*
X99610000Y-49930000D02*
X95910000Y-49930000D01*
X114180000Y-49930000D02*
X114180000Y-53220000D01*
X99630000Y-53200000D02*
X114160000Y-53200000D01*
X103400000Y-49930000D02*
X103400000Y-53200000D01*
X113652023Y-50342619D02*
X113604404Y-50295000D01*
X113509166Y-50247380D01*
X113271071Y-50247380D01*
X113175833Y-50295000D01*
X113128214Y-50342619D01*
X113080595Y-50437857D01*
X113080595Y-50533095D01*
X113128214Y-50675952D01*
X113699642Y-51247380D01*
X113080595Y-51247380D01*
X111461547Y-50580714D02*
X111461547Y-51247380D01*
X111699642Y-50199761D02*
X111937738Y-50914047D01*
X111318690Y-50914047D01*
X110175833Y-51152142D02*
X110128214Y-51199761D01*
X110175833Y-51247380D01*
X110223452Y-51199761D01*
X110175833Y-51152142D01*
X110175833Y-51247380D01*
X109699642Y-51152142D02*
X109652023Y-51199761D01*
X109699642Y-51247380D01*
X109747261Y-51199761D01*
X109699642Y-51152142D01*
X109699642Y-51247380D01*
X109223452Y-51152142D02*
X109175833Y-51199761D01*
X109223452Y-51247380D01*
X109271071Y-51199761D01*
X109223452Y-51152142D01*
X109223452Y-51247380D01*
X107461547Y-51247380D02*
X108032976Y-51247380D01*
X107747261Y-51247380D02*
X107747261Y-50247380D01*
X107842500Y-50390238D01*
X107937738Y-50485476D01*
X108032976Y-50533095D01*
X106604404Y-50580714D02*
X106604404Y-51247380D01*
X106842500Y-50199761D02*
X107080595Y-50914047D01*
X106461547Y-50914047D01*
X104794880Y-51247380D02*
X105366309Y-51247380D01*
X105080595Y-51247380D02*
X105080595Y-50247380D01*
X105175833Y-50390238D01*
X105271071Y-50485476D01*
X105366309Y-50533095D01*
X103937738Y-50247380D02*
X104128214Y-50247380D01*
X104223452Y-50295000D01*
X104271071Y-50342619D01*
X104366309Y-50485476D01*
X104413928Y-50675952D01*
X104413928Y-51056904D01*
X104366309Y-51152142D01*
X104318690Y-51199761D01*
X104223452Y-51247380D01*
X104032976Y-51247380D01*
X103937738Y-51199761D01*
X103890119Y-51152142D01*
X103842500Y-51056904D01*
X103842500Y-50818809D01*
X103890119Y-50723571D01*
X103937738Y-50675952D01*
X104032976Y-50628333D01*
X104223452Y-50628333D01*
X104318690Y-50675952D01*
X104366309Y-50723571D01*
X104413928Y-50818809D01*
X102080595Y-51152142D02*
X102128214Y-51199761D01*
X102271071Y-51247380D01*
X102366309Y-51247380D01*
X102509166Y-51199761D01*
X102604404Y-51104523D01*
X102652023Y-51009285D01*
X102699642Y-50818809D01*
X102699642Y-50675952D01*
X102652023Y-50485476D01*
X102604404Y-50390238D01*
X102509166Y-50295000D01*
X102366309Y-50247380D01*
X102271071Y-50247380D01*
X102128214Y-50295000D01*
X102080595Y-50342619D01*
X101461547Y-50247380D02*
X101271071Y-50247380D01*
X101175833Y-50295000D01*
X101080595Y-50390238D01*
X101032976Y-50580714D01*
X101032976Y-50914047D01*
X101080595Y-51104523D01*
X101175833Y-51199761D01*
X101271071Y-51247380D01*
X101461547Y-51247380D01*
X101556785Y-51199761D01*
X101652023Y-51104523D01*
X101699642Y-50914047D01*
X101699642Y-50580714D01*
X101652023Y-50390238D01*
X101556785Y-50295000D01*
X101461547Y-50247380D01*
X100604404Y-51247380D02*
X100604404Y-50247380D01*
X100271071Y-50961666D01*
X99937738Y-50247380D01*
X99937738Y-51247380D01*
X98175833Y-50295000D02*
X98271071Y-50247380D01*
X98413928Y-50247380D01*
X98556785Y-50295000D01*
X98652023Y-50390238D01*
X98699642Y-50485476D01*
X98747261Y-50675952D01*
X98747261Y-50818809D01*
X98699642Y-51009285D01*
X98652023Y-51104523D01*
X98556785Y-51199761D01*
X98413928Y-51247380D01*
X98318690Y-51247380D01*
X98175833Y-51199761D01*
X98128214Y-51152142D01*
X98128214Y-50818809D01*
X98318690Y-50818809D01*
X97699642Y-51247380D02*
X97699642Y-50247380D01*
X97128214Y-51247380D01*
X97128214Y-50247380D01*
X96652023Y-51247380D02*
X96652023Y-50247380D01*
X96413928Y-50247380D01*
X96271071Y-50295000D01*
X96175833Y-50390238D01*
X96128214Y-50485476D01*
X96080595Y-50675952D01*
X96080595Y-50818809D01*
X96128214Y-51009285D01*
X96175833Y-51104523D01*
X96271071Y-51199761D01*
X96413928Y-51247380D01*
X96652023Y-51247380D01*
X113080595Y-52897380D02*
X113652023Y-52897380D01*
X113366309Y-52897380D02*
X113366309Y-51897380D01*
X113461547Y-52040238D01*
X113556785Y-52135476D01*
X113652023Y-52183095D01*
X111985357Y-51897380D02*
X111366309Y-51897380D01*
X111699642Y-52278333D01*
X111556785Y-52278333D01*
X111461547Y-52325952D01*
X111413928Y-52373571D01*
X111366309Y-52468809D01*
X111366309Y-52706904D01*
X111413928Y-52802142D01*
X111461547Y-52849761D01*
X111556785Y-52897380D01*
X111842500Y-52897380D01*
X111937738Y-52849761D01*
X111985357Y-52802142D01*
X110175833Y-52802142D02*
X110128214Y-52849761D01*
X110175833Y-52897380D01*
X110223452Y-52849761D01*
X110175833Y-52802142D01*
X110175833Y-52897380D01*
X109699642Y-52802142D02*
X109652023Y-52849761D01*
X109699642Y-52897380D01*
X109747261Y-52849761D01*
X109699642Y-52802142D01*
X109699642Y-52897380D01*
X109223452Y-52802142D02*
X109175833Y-52849761D01*
X109223452Y-52897380D01*
X109271071Y-52849761D01*
X109223452Y-52802142D01*
X109223452Y-52897380D01*
X107461547Y-52897380D02*
X108032976Y-52897380D01*
X107747261Y-52897380D02*
X107747261Y-51897380D01*
X107842500Y-52040238D01*
X107937738Y-52135476D01*
X108032976Y-52183095D01*
X107128214Y-51897380D02*
X106509166Y-51897380D01*
X106842500Y-52278333D01*
X106699642Y-52278333D01*
X106604404Y-52325952D01*
X106556785Y-52373571D01*
X106509166Y-52468809D01*
X106509166Y-52706904D01*
X106556785Y-52802142D01*
X106604404Y-52849761D01*
X106699642Y-52897380D01*
X106985357Y-52897380D01*
X107080595Y-52849761D01*
X107128214Y-52802142D01*
X104794880Y-52897380D02*
X105366309Y-52897380D01*
X105080595Y-52897380D02*
X105080595Y-51897380D01*
X105175833Y-52040238D01*
X105271071Y-52135476D01*
X105366309Y-52183095D01*
X103890119Y-51897380D02*
X104366309Y-51897380D01*
X104413928Y-52373571D01*
X104366309Y-52325952D01*
X104271071Y-52278333D01*
X104032976Y-52278333D01*
X103937738Y-52325952D01*
X103890119Y-52373571D01*
X103842500Y-52468809D01*
X103842500Y-52706904D01*
X103890119Y-52802142D01*
X103937738Y-52849761D01*
X104032976Y-52897380D01*
X104271071Y-52897380D01*
X104366309Y-52849761D01*
X104413928Y-52802142D01*
X102080595Y-52802142D02*
X102128214Y-52849761D01*
X102271071Y-52897380D01*
X102366309Y-52897380D01*
X102509166Y-52849761D01*
X102604404Y-52754523D01*
X102652023Y-52659285D01*
X102699642Y-52468809D01*
X102699642Y-52325952D01*
X102652023Y-52135476D01*
X102604404Y-52040238D01*
X102509166Y-51945000D01*
X102366309Y-51897380D01*
X102271071Y-51897380D01*
X102128214Y-51945000D01*
X102080595Y-51992619D01*
X101461547Y-51897380D02*
X101271071Y-51897380D01*
X101175833Y-51945000D01*
X101080595Y-52040238D01*
X101032976Y-52230714D01*
X101032976Y-52564047D01*
X101080595Y-52754523D01*
X101175833Y-52849761D01*
X101271071Y-52897380D01*
X101461547Y-52897380D01*
X101556785Y-52849761D01*
X101652023Y-52754523D01*
X101699642Y-52564047D01*
X101699642Y-52230714D01*
X101652023Y-52040238D01*
X101556785Y-51945000D01*
X101461547Y-51897380D01*
X100604404Y-52897380D02*
X100604404Y-51897380D01*
X100271071Y-52611666D01*
X99937738Y-51897380D01*
X99937738Y-52897380D01*
X98175833Y-51945000D02*
X98271071Y-51897380D01*
X98413928Y-51897380D01*
X98556785Y-51945000D01*
X98652023Y-52040238D01*
X98699642Y-52135476D01*
X98747261Y-52325952D01*
X98747261Y-52468809D01*
X98699642Y-52659285D01*
X98652023Y-52754523D01*
X98556785Y-52849761D01*
X98413928Y-52897380D01*
X98318690Y-52897380D01*
X98175833Y-52849761D01*
X98128214Y-52802142D01*
X98128214Y-52468809D01*
X98318690Y-52468809D01*
X97699642Y-52897380D02*
X97699642Y-51897380D01*
X97128214Y-52897380D01*
X97128214Y-51897380D01*
X96652023Y-52897380D02*
X96652023Y-51897380D01*
X96413928Y-51897380D01*
X96271071Y-51945000D01*
X96175833Y-52040238D01*
X96128214Y-52135476D01*
X96080595Y-52325952D01*
X96080595Y-52468809D01*
X96128214Y-52659285D01*
X96175833Y-52754523D01*
X96271071Y-52849761D01*
X96413928Y-52897380D01*
X96652023Y-52897380D01*
X114190000Y-49930000D02*
X99630000Y-49930000D01*
X108180952Y-48392380D02*
X107990476Y-48392380D01*
X107895238Y-48440000D01*
X107800000Y-48535238D01*
X107752380Y-48725714D01*
X107752380Y-49059047D01*
X107800000Y-49249523D01*
X107895238Y-49344761D01*
X107990476Y-49392380D01*
X108180952Y-49392380D01*
X108276190Y-49344761D01*
X108371428Y-49249523D01*
X108419047Y-49059047D01*
X108419047Y-48725714D01*
X108371428Y-48535238D01*
X108276190Y-48440000D01*
X108180952Y-48392380D01*
X107323809Y-48392380D02*
X107323809Y-49201904D01*
X107276190Y-49297142D01*
X107228571Y-49344761D01*
X107133333Y-49392380D01*
X106942857Y-49392380D01*
X106847619Y-49344761D01*
X106800000Y-49297142D01*
X106752380Y-49201904D01*
X106752380Y-48392380D01*
X106419047Y-48392380D02*
X105847619Y-48392380D01*
X106133333Y-49392380D02*
X106133333Y-48392380D01*
X105514285Y-49392380D02*
X105514285Y-48392380D01*
X105133333Y-48392380D01*
X105038095Y-48440000D01*
X104990476Y-48487619D01*
X104942857Y-48582857D01*
X104942857Y-48725714D01*
X104990476Y-48820952D01*
X105038095Y-48868571D01*
X105133333Y-48916190D01*
X105514285Y-48916190D01*
X104514285Y-48392380D02*
X104514285Y-49201904D01*
X104466666Y-49297142D01*
X104419047Y-49344761D01*
X104323809Y-49392380D01*
X104133333Y-49392380D01*
X104038095Y-49344761D01*
X103990476Y-49297142D01*
X103942857Y-49201904D01*
X103942857Y-48392380D01*
X103609523Y-48392380D02*
X103038095Y-48392380D01*
X103323809Y-49392380D02*
X103323809Y-48392380D01*
X102752380Y-49344761D02*
X102609523Y-49392380D01*
X102371428Y-49392380D01*
X102276190Y-49344761D01*
X102228571Y-49297142D01*
X102180952Y-49201904D01*
X102180952Y-49106666D01*
X102228571Y-49011428D01*
X102276190Y-48963809D01*
X102371428Y-48916190D01*
X102561904Y-48868571D01*
X102657142Y-48820952D01*
X102704761Y-48773333D01*
X102752380Y-48678095D01*
X102752380Y-48582857D01*
X102704761Y-48487619D01*
X102657142Y-48440000D01*
X102561904Y-48392380D01*
X102323809Y-48392380D01*
X102180952Y-48440000D01*
X193514761Y-66592380D02*
X193514761Y-65592380D01*
X193038571Y-66592380D02*
X193038571Y-65592380D01*
X192467142Y-66592380D01*
X192467142Y-65592380D01*
X191990952Y-66592380D02*
X191990952Y-65592380D01*
X191610000Y-65592380D01*
X191514761Y-65640000D01*
X191467142Y-65687619D01*
X191419523Y-65782857D01*
X191419523Y-65925714D01*
X191467142Y-66020952D01*
X191514761Y-66068571D01*
X191610000Y-66116190D01*
X191990952Y-66116190D01*
X190990952Y-65592380D02*
X190990952Y-66401904D01*
X190943333Y-66497142D01*
X190895714Y-66544761D01*
X190800476Y-66592380D01*
X190610000Y-66592380D01*
X190514761Y-66544761D01*
X190467142Y-66497142D01*
X190419523Y-66401904D01*
X190419523Y-65592380D01*
X190086190Y-65592380D02*
X189514761Y-65592380D01*
X189800476Y-66592380D02*
X189800476Y-65592380D01*
X189229047Y-66544761D02*
X189086190Y-66592380D01*
X188848095Y-66592380D01*
X188752857Y-66544761D01*
X188705238Y-66497142D01*
X188657619Y-66401904D01*
X188657619Y-66306666D01*
X188705238Y-66211428D01*
X188752857Y-66163809D01*
X188848095Y-66116190D01*
X189038571Y-66068571D01*
X189133809Y-66020952D01*
X189181428Y-65973333D01*
X189229047Y-65878095D01*
X189229047Y-65782857D01*
X189181428Y-65687619D01*
X189133809Y-65640000D01*
X189038571Y-65592380D01*
X188800476Y-65592380D01*
X188657619Y-65640000D01*
X194460000Y-67080000D02*
X194460000Y-70340000D01*
X197940000Y-67090000D02*
X197940000Y-70380000D01*
X183390000Y-70360000D02*
X197920000Y-70360000D01*
X183390000Y-67090000D02*
X183390000Y-70360000D01*
X197950000Y-67090000D02*
X183390000Y-67090000D01*
X197507261Y-67407380D02*
X197173928Y-68407380D01*
X196840595Y-67407380D01*
X195935833Y-68312142D02*
X195983452Y-68359761D01*
X196126309Y-68407380D01*
X196221547Y-68407380D01*
X196364404Y-68359761D01*
X196459642Y-68264523D01*
X196507261Y-68169285D01*
X196554880Y-67978809D01*
X196554880Y-67835952D01*
X196507261Y-67645476D01*
X196459642Y-67550238D01*
X196364404Y-67455000D01*
X196221547Y-67407380D01*
X196126309Y-67407380D01*
X195983452Y-67455000D01*
X195935833Y-67502619D01*
X194935833Y-68312142D02*
X194983452Y-68359761D01*
X195126309Y-68407380D01*
X195221547Y-68407380D01*
X195364404Y-68359761D01*
X195459642Y-68264523D01*
X195507261Y-68169285D01*
X195554880Y-67978809D01*
X195554880Y-67835952D01*
X195507261Y-67645476D01*
X195459642Y-67550238D01*
X195364404Y-67455000D01*
X195221547Y-67407380D01*
X195126309Y-67407380D01*
X194983452Y-67455000D01*
X194935833Y-67502619D01*
X193840595Y-67407380D02*
X193221547Y-67407380D01*
X193554880Y-67788333D01*
X193412023Y-67788333D01*
X193316785Y-67835952D01*
X193269166Y-67883571D01*
X193221547Y-67978809D01*
X193221547Y-68216904D01*
X193269166Y-68312142D01*
X193316785Y-68359761D01*
X193412023Y-68407380D01*
X193697738Y-68407380D01*
X193792976Y-68359761D01*
X193840595Y-68312142D01*
X192269166Y-68407380D02*
X192840595Y-68407380D01*
X192554880Y-68407380D02*
X192554880Y-67407380D01*
X192650119Y-67550238D01*
X192745357Y-67645476D01*
X192840595Y-67693095D01*
X191126309Y-67502619D02*
X191078690Y-67455000D01*
X190983452Y-67407380D01*
X190745357Y-67407380D01*
X190650119Y-67455000D01*
X190602500Y-67502619D01*
X190554880Y-67597857D01*
X190554880Y-67693095D01*
X190602500Y-67835952D01*
X191173928Y-68407380D01*
X190554880Y-68407380D01*
X190078690Y-68407380D02*
X189888214Y-68407380D01*
X189792976Y-68359761D01*
X189745357Y-68312142D01*
X189650119Y-68169285D01*
X189602500Y-67978809D01*
X189602500Y-67597857D01*
X189650119Y-67502619D01*
X189697738Y-67455000D01*
X189792976Y-67407380D01*
X189983452Y-67407380D01*
X190078690Y-67455000D01*
X190126309Y-67502619D01*
X190173928Y-67597857D01*
X190173928Y-67835952D01*
X190126309Y-67931190D01*
X190078690Y-67978809D01*
X189983452Y-68026428D01*
X189792976Y-68026428D01*
X189697738Y-67978809D01*
X189650119Y-67931190D01*
X189602500Y-67835952D01*
X188412023Y-68312142D02*
X188364404Y-68359761D01*
X188412023Y-68407380D01*
X188459642Y-68359761D01*
X188412023Y-68312142D01*
X188412023Y-68407380D01*
X187935833Y-68312142D02*
X187888214Y-68359761D01*
X187935833Y-68407380D01*
X187983452Y-68359761D01*
X187935833Y-68312142D01*
X187935833Y-68407380D01*
X187459642Y-68312142D02*
X187412023Y-68359761D01*
X187459642Y-68407380D01*
X187507261Y-68359761D01*
X187459642Y-68312142D01*
X187459642Y-68407380D01*
X186316785Y-67407380D02*
X185697738Y-67407380D01*
X186031071Y-67788333D01*
X185888214Y-67788333D01*
X185792976Y-67835952D01*
X185745357Y-67883571D01*
X185697738Y-67978809D01*
X185697738Y-68216904D01*
X185745357Y-68312142D01*
X185792976Y-68359761D01*
X185888214Y-68407380D01*
X186173928Y-68407380D01*
X186269166Y-68359761D01*
X186316785Y-68312142D01*
X183983452Y-68407380D02*
X184554880Y-68407380D01*
X184269166Y-68407380D02*
X184269166Y-67407380D01*
X184364404Y-67550238D01*
X184459642Y-67645476D01*
X184554880Y-67693095D01*
X196840595Y-69105000D02*
X196935833Y-69057380D01*
X197078690Y-69057380D01*
X197221547Y-69105000D01*
X197316785Y-69200238D01*
X197364404Y-69295476D01*
X197412023Y-69485952D01*
X197412023Y-69628809D01*
X197364404Y-69819285D01*
X197316785Y-69914523D01*
X197221547Y-70009761D01*
X197078690Y-70057380D01*
X196983452Y-70057380D01*
X196840595Y-70009761D01*
X196792976Y-69962142D01*
X196792976Y-69628809D01*
X196983452Y-69628809D01*
X196364404Y-70057380D02*
X196364404Y-69057380D01*
X195792976Y-70057380D01*
X195792976Y-69057380D01*
X195316785Y-70057380D02*
X195316785Y-69057380D01*
X195078690Y-69057380D01*
X194935833Y-69105000D01*
X194840595Y-69200238D01*
X194792976Y-69295476D01*
X194745357Y-69485952D01*
X194745357Y-69628809D01*
X194792976Y-69819285D01*
X194840595Y-69914523D01*
X194935833Y-70009761D01*
X195078690Y-70057380D01*
X195316785Y-70057380D01*
X193650119Y-69057380D02*
X193031071Y-69057380D01*
X193364404Y-69438333D01*
X193221547Y-69438333D01*
X193126309Y-69485952D01*
X193078690Y-69533571D01*
X193031071Y-69628809D01*
X193031071Y-69866904D01*
X193078690Y-69962142D01*
X193126309Y-70009761D01*
X193221547Y-70057380D01*
X193507261Y-70057380D01*
X193602500Y-70009761D01*
X193650119Y-69962142D01*
X192650119Y-69152619D02*
X192602500Y-69105000D01*
X192507261Y-69057380D01*
X192269166Y-69057380D01*
X192173928Y-69105000D01*
X192126309Y-69152619D01*
X192078690Y-69247857D01*
X192078690Y-69343095D01*
X192126309Y-69485952D01*
X192697738Y-70057380D01*
X192078690Y-70057380D01*
X190983452Y-69057380D02*
X190364404Y-69057380D01*
X190697738Y-69438333D01*
X190554880Y-69438333D01*
X190459642Y-69485952D01*
X190412023Y-69533571D01*
X190364404Y-69628809D01*
X190364404Y-69866904D01*
X190412023Y-69962142D01*
X190459642Y-70009761D01*
X190554880Y-70057380D01*
X190840595Y-70057380D01*
X190935833Y-70009761D01*
X190983452Y-69962142D01*
X189745357Y-69057380D02*
X189650119Y-69057380D01*
X189554880Y-69105000D01*
X189507261Y-69152619D01*
X189459642Y-69247857D01*
X189412023Y-69438333D01*
X189412023Y-69676428D01*
X189459642Y-69866904D01*
X189507261Y-69962142D01*
X189554880Y-70009761D01*
X189650119Y-70057380D01*
X189745357Y-70057380D01*
X189840595Y-70009761D01*
X189888214Y-69962142D01*
X189935833Y-69866904D01*
X189983452Y-69676428D01*
X189983452Y-69438333D01*
X189935833Y-69247857D01*
X189888214Y-69152619D01*
X189840595Y-69105000D01*
X189745357Y-69057380D01*
X188221547Y-69962142D02*
X188173928Y-70009761D01*
X188221547Y-70057380D01*
X188269166Y-70009761D01*
X188221547Y-69962142D01*
X188221547Y-70057380D01*
X187745357Y-69962142D02*
X187697738Y-70009761D01*
X187745357Y-70057380D01*
X187792976Y-70009761D01*
X187745357Y-69962142D01*
X187745357Y-70057380D01*
X187269166Y-69962142D02*
X187221547Y-70009761D01*
X187269166Y-70057380D01*
X187316785Y-70009761D01*
X187269166Y-69962142D01*
X187269166Y-70057380D01*
X185602500Y-69390714D02*
X185602500Y-70057380D01*
X185840595Y-69009761D02*
X186078690Y-69724047D01*
X185459642Y-69724047D01*
X184364404Y-69152619D02*
X184316785Y-69105000D01*
X184221547Y-69057380D01*
X183983452Y-69057380D01*
X183888214Y-69105000D01*
X183840595Y-69152619D01*
X183792976Y-69247857D01*
X183792976Y-69343095D01*
X183840595Y-69485952D01*
X184412023Y-70057380D01*
X183792976Y-70057380D01*
X209048571Y-52231428D02*
X209091428Y-52274285D01*
X209220000Y-52317142D01*
X209305714Y-52317142D01*
X209434285Y-52274285D01*
X209520000Y-52188571D01*
X209562857Y-52102857D01*
X209605714Y-51931428D01*
X209605714Y-51802857D01*
X209562857Y-51631428D01*
X209520000Y-51545714D01*
X209434285Y-51460000D01*
X209305714Y-51417142D01*
X209220000Y-51417142D01*
X209091428Y-51460000D01*
X209048571Y-51502857D01*
X208234285Y-51417142D02*
X208662857Y-51417142D01*
X208705714Y-51845714D01*
X208662857Y-51802857D01*
X208577142Y-51760000D01*
X208362857Y-51760000D01*
X208277142Y-51802857D01*
X208234285Y-51845714D01*
X208191428Y-51931428D01*
X208191428Y-52145714D01*
X208234285Y-52231428D01*
X208277142Y-52274285D01*
X208362857Y-52317142D01*
X208577142Y-52317142D01*
X208662857Y-52274285D01*
X208705714Y-52231428D01*
X207377142Y-51417142D02*
X207805714Y-51417142D01*
X207848571Y-51845714D01*
X207805714Y-51802857D01*
X207720000Y-51760000D01*
X207505714Y-51760000D01*
X207420000Y-51802857D01*
X207377142Y-51845714D01*
X207334285Y-51931428D01*
X207334285Y-52145714D01*
X207377142Y-52231428D01*
X207420000Y-52274285D01*
X207505714Y-52317142D01*
X207720000Y-52317142D01*
X207805714Y-52274285D01*
X207848571Y-52231428D01*
X206948571Y-52231428D02*
X206905714Y-52274285D01*
X206948571Y-52317142D01*
X206991428Y-52274285D01*
X206948571Y-52231428D01*
X206948571Y-52317142D01*
X206520000Y-52231428D02*
X206477142Y-52274285D01*
X206520000Y-52317142D01*
X206562857Y-52274285D01*
X206520000Y-52231428D01*
X206520000Y-52317142D01*
X206091428Y-52231428D02*
X206048571Y-52274285D01*
X206091428Y-52317142D01*
X206134285Y-52274285D01*
X206091428Y-52231428D01*
X206091428Y-52317142D01*
X205148571Y-52231428D02*
X205191428Y-52274285D01*
X205320000Y-52317142D01*
X205405714Y-52317142D01*
X205534285Y-52274285D01*
X205620000Y-52188571D01*
X205662857Y-52102857D01*
X205705714Y-51931428D01*
X205705714Y-51802857D01*
X205662857Y-51631428D01*
X205620000Y-51545714D01*
X205534285Y-51460000D01*
X205405714Y-51417142D01*
X205320000Y-51417142D01*
X205191428Y-51460000D01*
X205148571Y-51502857D01*
X204805714Y-51502857D02*
X204762857Y-51460000D01*
X204677142Y-51417142D01*
X204462857Y-51417142D01*
X204377142Y-51460000D01*
X204334285Y-51502857D01*
X204291428Y-51588571D01*
X204291428Y-51674285D01*
X204334285Y-51802857D01*
X204848571Y-52317142D01*
X204291428Y-52317142D01*
X203520000Y-51417142D02*
X203691428Y-51417142D01*
X203777142Y-51460000D01*
X203820000Y-51502857D01*
X203905714Y-51631428D01*
X203948571Y-51802857D01*
X203948571Y-52145714D01*
X203905714Y-52231428D01*
X203862857Y-52274285D01*
X203777142Y-52317142D01*
X203605714Y-52317142D01*
X203520000Y-52274285D01*
X203477142Y-52231428D01*
X203434285Y-52145714D01*
X203434285Y-51931428D01*
X203477142Y-51845714D01*
X203520000Y-51802857D01*
X203605714Y-51760000D01*
X203777142Y-51760000D01*
X203862857Y-51802857D01*
X203905714Y-51845714D01*
X203948571Y-51931428D01*
X209124285Y-49097142D02*
X209124285Y-48197142D01*
X208910000Y-48197142D01*
X208781428Y-48240000D01*
X208695714Y-48325714D01*
X208652857Y-48411428D01*
X208610000Y-48582857D01*
X208610000Y-48711428D01*
X208652857Y-48882857D01*
X208695714Y-48968571D01*
X208781428Y-49054285D01*
X208910000Y-49097142D01*
X209124285Y-49097142D01*
X208267142Y-48282857D02*
X208224285Y-48240000D01*
X208138571Y-48197142D01*
X207924285Y-48197142D01*
X207838571Y-48240000D01*
X207795714Y-48282857D01*
X207752857Y-48368571D01*
X207752857Y-48454285D01*
X207795714Y-48582857D01*
X208310000Y-49097142D01*
X207752857Y-49097142D01*
X207452857Y-48197142D02*
X206895714Y-48197142D01*
X207195714Y-48540000D01*
X207067142Y-48540000D01*
X206981428Y-48582857D01*
X206938571Y-48625714D01*
X206895714Y-48711428D01*
X206895714Y-48925714D01*
X206938571Y-49011428D01*
X206981428Y-49054285D01*
X207067142Y-49097142D01*
X207324285Y-49097142D01*
X207410000Y-49054285D01*
X207452857Y-49011428D01*
X206510000Y-49011428D02*
X206467142Y-49054285D01*
X206510000Y-49097142D01*
X206552857Y-49054285D01*
X206510000Y-49011428D01*
X206510000Y-49097142D01*
X206081428Y-49011428D02*
X206038571Y-49054285D01*
X206081428Y-49097142D01*
X206124285Y-49054285D01*
X206081428Y-49011428D01*
X206081428Y-49097142D01*
X205652857Y-49011428D02*
X205610000Y-49054285D01*
X205652857Y-49097142D01*
X205695714Y-49054285D01*
X205652857Y-49011428D01*
X205652857Y-49097142D01*
X205224285Y-49097142D02*
X205224285Y-48197142D01*
X205010000Y-48197142D01*
X204881428Y-48240000D01*
X204795714Y-48325714D01*
X204752857Y-48411428D01*
X204710000Y-48582857D01*
X204710000Y-48711428D01*
X204752857Y-48882857D01*
X204795714Y-48968571D01*
X204881428Y-49054285D01*
X205010000Y-49097142D01*
X205224285Y-49097142D01*
X204281428Y-49097142D02*
X204110000Y-49097142D01*
X204024285Y-49054285D01*
X203981428Y-49011428D01*
X203895714Y-48882857D01*
X203852857Y-48711428D01*
X203852857Y-48368571D01*
X203895714Y-48282857D01*
X203938571Y-48240000D01*
X204024285Y-48197142D01*
X204195714Y-48197142D01*
X204281428Y-48240000D01*
X204324285Y-48282857D01*
X204367142Y-48368571D01*
X204367142Y-48582857D01*
X204324285Y-48668571D01*
X204281428Y-48711428D01*
X204195714Y-48754285D01*
X204024285Y-48754285D01*
X203938571Y-48711428D01*
X203895714Y-48668571D01*
X203852857Y-48582857D01*
X209232857Y-46317142D02*
X209232857Y-45417142D01*
X209018571Y-45417142D01*
X208890000Y-45460000D01*
X208804285Y-45545714D01*
X208761428Y-45631428D01*
X208718571Y-45802857D01*
X208718571Y-45931428D01*
X208761428Y-46102857D01*
X208804285Y-46188571D01*
X208890000Y-46274285D01*
X209018571Y-46317142D01*
X209232857Y-46317142D01*
X208375714Y-45502857D02*
X208332857Y-45460000D01*
X208247142Y-45417142D01*
X208032857Y-45417142D01*
X207947142Y-45460000D01*
X207904285Y-45502857D01*
X207861428Y-45588571D01*
X207861428Y-45674285D01*
X207904285Y-45802857D01*
X208418571Y-46317142D01*
X207861428Y-46317142D01*
X207518571Y-45502857D02*
X207475714Y-45460000D01*
X207390000Y-45417142D01*
X207175714Y-45417142D01*
X207090000Y-45460000D01*
X207047142Y-45502857D01*
X207004285Y-45588571D01*
X207004285Y-45674285D01*
X207047142Y-45802857D01*
X207561428Y-46317142D01*
X207004285Y-46317142D01*
X206618571Y-46231428D02*
X206575714Y-46274285D01*
X206618571Y-46317142D01*
X206661428Y-46274285D01*
X206618571Y-46231428D01*
X206618571Y-46317142D01*
X206190000Y-46231428D02*
X206147142Y-46274285D01*
X206190000Y-46317142D01*
X206232857Y-46274285D01*
X206190000Y-46231428D01*
X206190000Y-46317142D01*
X205761428Y-46231428D02*
X205718571Y-46274285D01*
X205761428Y-46317142D01*
X205804285Y-46274285D01*
X205761428Y-46231428D01*
X205761428Y-46317142D01*
X205332857Y-46317142D02*
X205332857Y-45417142D01*
X205118571Y-45417142D01*
X204990000Y-45460000D01*
X204904285Y-45545714D01*
X204861428Y-45631428D01*
X204818571Y-45802857D01*
X204818571Y-45931428D01*
X204861428Y-46102857D01*
X204904285Y-46188571D01*
X204990000Y-46274285D01*
X205118571Y-46317142D01*
X205332857Y-46317142D01*
X203961428Y-46317142D02*
X204475714Y-46317142D01*
X204218571Y-46317142D02*
X204218571Y-45417142D01*
X204304285Y-45545714D01*
X204390000Y-45631428D01*
X204475714Y-45674285D01*
X203404285Y-45417142D02*
X203318571Y-45417142D01*
X203232857Y-45460000D01*
X203190000Y-45502857D01*
X203147142Y-45588571D01*
X203104285Y-45760000D01*
X203104285Y-45974285D01*
X203147142Y-46145714D01*
X203190000Y-46231428D01*
X203232857Y-46274285D01*
X203318571Y-46317142D01*
X203404285Y-46317142D01*
X203490000Y-46274285D01*
X203532857Y-46231428D01*
X203575714Y-46145714D01*
X203618571Y-45974285D01*
X203618571Y-45760000D01*
X203575714Y-45588571D01*
X203532857Y-45502857D01*
X203490000Y-45460000D01*
X203404285Y-45417142D01*
D12*
X210400000Y-29600000D02*
X54200000Y-29600000D01*
X210400000Y-29600000D02*
X210400000Y-88000000D01*
X210400000Y-88000000D02*
X54200000Y-88000000D01*
X54200000Y-29600000D02*
X54200000Y-88000000D01*
D13*
%TO.C,J8*%
X185530000Y-37730000D02*
X185530000Y-28610000D01*
X181430000Y-37730000D02*
X181430000Y-28610000D01*
X209010000Y-37730000D02*
X209010000Y-28610000D01*
X209010000Y-28610000D02*
X157950000Y-28610000D01*
X157950000Y-28610000D02*
X157950000Y-37730000D01*
X157950000Y-37730000D02*
X209010000Y-37730000D01*
X203800000Y-43350000D02*
X204300000Y-44350000D01*
X204300000Y-44350000D02*
X203300000Y-44350000D01*
X203300000Y-44350000D02*
X203800000Y-43350000D01*
%TO.C,D23*%
X202460000Y-49700000D02*
X202460000Y-48240000D01*
X199300000Y-49700000D02*
X199300000Y-47540000D01*
X199300000Y-49700000D02*
X200230000Y-49700000D01*
X202460000Y-49700000D02*
X201530000Y-49700000D01*
%TO.C,D22*%
X199800000Y-46930000D02*
X199800000Y-45470000D01*
X196640000Y-46930000D02*
X196640000Y-44770000D01*
X196640000Y-46930000D02*
X197570000Y-46930000D01*
X199800000Y-46930000D02*
X198870000Y-46930000D01*
%TO.C,D21*%
X197146665Y-49700000D02*
X197146665Y-48240000D01*
X193986665Y-49700000D02*
X193986665Y-47540000D01*
X193986665Y-49700000D02*
X194916665Y-49700000D01*
X197146665Y-49700000D02*
X196216665Y-49700000D01*
%TO.C,D20*%
X194510000Y-46930000D02*
X194510000Y-45470000D01*
X191350000Y-46930000D02*
X191350000Y-44770000D01*
X191350000Y-46930000D02*
X192280000Y-46930000D01*
X194510000Y-46930000D02*
X193580000Y-46930000D01*
%TO.C,D19*%
X191833332Y-49700000D02*
X191833332Y-48240000D01*
X188673332Y-49700000D02*
X188673332Y-47540000D01*
X188673332Y-49700000D02*
X189603332Y-49700000D01*
X191833332Y-49700000D02*
X190903332Y-49700000D01*
%TO.C,D18*%
X189220000Y-46930000D02*
X189220000Y-45470000D01*
X186060000Y-46930000D02*
X186060000Y-44770000D01*
X186060000Y-46930000D02*
X186990000Y-46930000D01*
X189220000Y-46930000D02*
X188290000Y-46930000D01*
%TO.C,D17*%
X186519999Y-49700000D02*
X186519999Y-48240000D01*
X183359999Y-49700000D02*
X183359999Y-47540000D01*
X183359999Y-49700000D02*
X184289999Y-49700000D01*
X186519999Y-49700000D02*
X185589999Y-49700000D01*
%TO.C,D16*%
X183930000Y-46930000D02*
X183930000Y-45470000D01*
X180770000Y-46930000D02*
X180770000Y-44770000D01*
X180770000Y-46930000D02*
X181700000Y-46930000D01*
X183930000Y-46930000D02*
X183000000Y-46930000D01*
%TO.C,D15*%
X181206666Y-49700000D02*
X181206666Y-48240000D01*
X178046666Y-49700000D02*
X178046666Y-47540000D01*
X178046666Y-49700000D02*
X178976666Y-49700000D01*
X181206666Y-49700000D02*
X180276666Y-49700000D01*
%TO.C,D14*%
X178640000Y-46930000D02*
X178640000Y-45470000D01*
X175480000Y-46930000D02*
X175480000Y-44770000D01*
X175480000Y-46930000D02*
X176410000Y-46930000D01*
X178640000Y-46930000D02*
X177710000Y-46930000D01*
%TO.C,D13*%
X175893333Y-49700000D02*
X175893333Y-48240000D01*
X172733333Y-49700000D02*
X172733333Y-47540000D01*
X172733333Y-49700000D02*
X173663333Y-49700000D01*
X175893333Y-49700000D02*
X174963333Y-49700000D01*
%TO.C,D12*%
X173350000Y-46930000D02*
X173350000Y-45470000D01*
X170190000Y-46930000D02*
X170190000Y-44770000D01*
X170190000Y-46930000D02*
X171120000Y-46930000D01*
X173350000Y-46930000D02*
X172420000Y-46930000D01*
%TO.C,D11*%
X170580000Y-49700000D02*
X170580000Y-48240000D01*
X167420000Y-49700000D02*
X167420000Y-47540000D01*
X167420000Y-49700000D02*
X168350000Y-49700000D01*
X170580000Y-49700000D02*
X169650000Y-49700000D01*
%TO.C,D10*%
X168060000Y-46930000D02*
X168060000Y-45470000D01*
X164900000Y-46930000D02*
X164900000Y-44770000D01*
X164900000Y-46930000D02*
X165830000Y-46930000D01*
X168060000Y-46930000D02*
X167130000Y-46930000D01*
%TO.C,D9*%
X165000000Y-49770000D02*
X165000000Y-48310000D01*
X161840000Y-49770000D02*
X161840000Y-47610000D01*
X161840000Y-49770000D02*
X162770000Y-49770000D01*
X165000000Y-49770000D02*
X164070000Y-49770000D01*
%TO.C,D8*%
X157720000Y-42640000D02*
X159180000Y-42640000D01*
X157720000Y-39480000D02*
X159880000Y-39480000D01*
X157720000Y-39480000D02*
X157720000Y-40410000D01*
X157720000Y-42640000D02*
X157720000Y-41710000D01*
%TO.C,C55*%
X202190000Y-51672164D02*
X202190000Y-51887836D01*
X201470000Y-51672164D02*
X201470000Y-51887836D01*
%TO.C,C54*%
X200400000Y-51682164D02*
X200400000Y-51897836D01*
X199680000Y-51682164D02*
X199680000Y-51897836D01*
%TO.C,C53*%
X199420000Y-51682164D02*
X199420000Y-51897836D01*
X198700000Y-51682164D02*
X198700000Y-51897836D01*
%TO.C,C52*%
X197740000Y-51682164D02*
X197740000Y-51897836D01*
X197020000Y-51682164D02*
X197020000Y-51897836D01*
%TO.C,C51*%
X196750000Y-51682164D02*
X196750000Y-51897836D01*
X196030000Y-51682164D02*
X196030000Y-51897836D01*
%TO.C,C50*%
X195110000Y-51682164D02*
X195110000Y-51897836D01*
X194390000Y-51682164D02*
X194390000Y-51897836D01*
%TO.C,C49*%
X194120000Y-51682164D02*
X194120000Y-51897836D01*
X193400000Y-51682164D02*
X193400000Y-51897836D01*
%TO.C,C48*%
X192460000Y-51682164D02*
X192460000Y-51897836D01*
X191740000Y-51682164D02*
X191740000Y-51897836D01*
%TO.C,C47*%
X191470000Y-51682164D02*
X191470000Y-51897836D01*
X190750000Y-51682164D02*
X190750000Y-51897836D01*
%TO.C,C46*%
X189790000Y-51682164D02*
X189790000Y-51897836D01*
X189070000Y-51682164D02*
X189070000Y-51897836D01*
%TO.C,C45*%
X188810000Y-51682164D02*
X188810000Y-51897836D01*
X188090000Y-51682164D02*
X188090000Y-51897836D01*
%TO.C,C44*%
X187120000Y-51682164D02*
X187120000Y-51897836D01*
X186400000Y-51682164D02*
X186400000Y-51897836D01*
%TO.C,C43*%
X186130000Y-51682164D02*
X186130000Y-51897836D01*
X185410000Y-51682164D02*
X185410000Y-51897836D01*
%TO.C,C42*%
X184500000Y-51682164D02*
X184500000Y-51897836D01*
X183780000Y-51682164D02*
X183780000Y-51897836D01*
%TO.C,C41*%
X183510000Y-51682164D02*
X183510000Y-51897836D01*
X182790000Y-51682164D02*
X182790000Y-51897836D01*
%TO.C,C40*%
X181840000Y-51682164D02*
X181840000Y-51897836D01*
X181120000Y-51682164D02*
X181120000Y-51897836D01*
%TO.C,C39*%
X180840000Y-51682164D02*
X180840000Y-51897836D01*
X180120000Y-51682164D02*
X180120000Y-51897836D01*
%TO.C,C38*%
X179190000Y-51682164D02*
X179190000Y-51897836D01*
X178470000Y-51682164D02*
X178470000Y-51897836D01*
%TO.C,C37*%
X178200000Y-51682164D02*
X178200000Y-51897836D01*
X177480000Y-51682164D02*
X177480000Y-51897836D01*
%TO.C,C36*%
X176560000Y-51682164D02*
X176560000Y-51897836D01*
X175840000Y-51682164D02*
X175840000Y-51897836D01*
%TO.C,C35*%
X175570000Y-51682164D02*
X175570000Y-51897836D01*
X174850000Y-51682164D02*
X174850000Y-51897836D01*
%TO.C,C34*%
X173900000Y-51682164D02*
X173900000Y-51897836D01*
X173180000Y-51682164D02*
X173180000Y-51897836D01*
%TO.C,C33*%
X172910000Y-51682164D02*
X172910000Y-51897836D01*
X172190000Y-51682164D02*
X172190000Y-51897836D01*
%TO.C,C32*%
X171270000Y-51682164D02*
X171270000Y-51897836D01*
X170550000Y-51682164D02*
X170550000Y-51897836D01*
%TO.C,C31*%
X170280000Y-51682164D02*
X170280000Y-51897836D01*
X169560000Y-51682164D02*
X169560000Y-51897836D01*
%TO.C,C30*%
X168600000Y-51682164D02*
X168600000Y-51897836D01*
X167880000Y-51682164D02*
X167880000Y-51897836D01*
%TO.C,C29*%
X167610000Y-51682164D02*
X167610000Y-51897836D01*
X166890000Y-51682164D02*
X166890000Y-51897836D01*
%TO.C,C28*%
X165810000Y-51682164D02*
X165810000Y-51897836D01*
X165090000Y-51682164D02*
X165090000Y-51897836D01*
%TO.C,C27*%
X164820000Y-51682164D02*
X164820000Y-51897836D01*
X164100000Y-51682164D02*
X164100000Y-51897836D01*
%TO.C,C26*%
X162920000Y-51682164D02*
X162920000Y-51897836D01*
X162200000Y-51682164D02*
X162200000Y-51897836D01*
%TO.C,C25*%
X155547836Y-42650000D02*
X155332164Y-42650000D01*
X155547836Y-41930000D02*
X155332164Y-41930000D01*
%TO.C,C24*%
X155557836Y-40170000D02*
X155342164Y-40170000D01*
X155557836Y-39450000D02*
X155342164Y-39450000D01*
%TO.C,J2*%
X122860000Y-45190000D02*
X122860000Y-36070000D01*
X122860000Y-36070000D02*
X89580000Y-36070000D01*
X89580000Y-36070000D02*
X89580000Y-45190000D01*
X89580000Y-45190000D02*
X122860000Y-45190000D01*
X108270000Y-45190000D02*
X108270000Y-43880000D01*
X108270000Y-43880000D02*
X121560000Y-43880000D01*
X121560000Y-43880000D02*
X121560000Y-37380000D01*
X121560000Y-37380000D02*
X90880000Y-37380000D01*
X90880000Y-37380000D02*
X90880000Y-43880000D01*
X90880000Y-43880000D02*
X104170000Y-43880000D01*
X104170000Y-43880000D02*
X104170000Y-43880000D01*
X104170000Y-43880000D02*
X104170000Y-45190000D01*
X117650000Y-45580000D02*
X118150000Y-46580000D01*
X118150000Y-46580000D02*
X117150000Y-46580000D01*
X117150000Y-46580000D02*
X117650000Y-45580000D01*
%TO.C,J3*%
X74120000Y-37680000D02*
X74120000Y-28560000D01*
X70020000Y-37680000D02*
X70020000Y-28560000D01*
X88710000Y-37680000D02*
X88710000Y-28560000D01*
X88710000Y-28560000D02*
X55430000Y-28560000D01*
X55430000Y-28560000D02*
X55430000Y-37680000D01*
X55430000Y-37680000D02*
X88710000Y-37680000D01*
X83500000Y-43300000D02*
X84000000Y-44300000D01*
X84000000Y-44300000D02*
X83000000Y-44300000D01*
X83000000Y-44300000D02*
X83500000Y-43300000D01*
%TO.C,D4*%
X151800000Y-52560000D02*
X152730000Y-52560000D01*
X154960000Y-52560000D02*
X154030000Y-52560000D01*
X154960000Y-52560000D02*
X154960000Y-54720000D01*
X151800000Y-52560000D02*
X151800000Y-54020000D01*
%TO.C,BT1*%
X140730000Y-58510000D02*
X140730000Y-60960000D01*
X134630000Y-60960000D02*
X134630000Y-58510000D01*
X140180000Y-61510000D02*
X135180000Y-61510000D01*
X137695231Y-30260262D02*
G75*
G03*
X134160000Y-57810000I-15231J-13999738D01*
G01*
X137664769Y-30260262D02*
G75*
G02*
X141200000Y-57810000I15231J-13999738D01*
G01*
X134136515Y-57805231D02*
G75*
G02*
X134630000Y-58510000I-256515J-704769D01*
G01*
X141223485Y-57805231D02*
G75*
G03*
X140730000Y-58510000I256515J-704769D01*
G01*
X140730000Y-60960000D02*
G75*
G02*
X140180000Y-61510000I-550000J0D01*
G01*
X134630000Y-60960000D02*
G75*
G03*
X135180000Y-61510000I550000J0D01*
G01*
%TO.C,D5*%
X155390000Y-52550000D02*
X156320000Y-52550000D01*
X158550000Y-52550000D02*
X157620000Y-52550000D01*
X158550000Y-52550000D02*
X158550000Y-54710000D01*
X155390000Y-52550000D02*
X155390000Y-54010000D01*
%TD*%
%TO.C,D8*%
D11*
X159158095Y-44542380D02*
X159158095Y-43542380D01*
X158920000Y-43542380D01*
X158777142Y-43590000D01*
X158681904Y-43685238D01*
X158634285Y-43780476D01*
X158586666Y-43970952D01*
X158586666Y-44113809D01*
X158634285Y-44304285D01*
X158681904Y-44399523D01*
X158777142Y-44494761D01*
X158920000Y-44542380D01*
X159158095Y-44542380D01*
X158015238Y-43970952D02*
X158110476Y-43923333D01*
X158158095Y-43875714D01*
X158205714Y-43780476D01*
X158205714Y-43732857D01*
X158158095Y-43637619D01*
X158110476Y-43590000D01*
X158015238Y-43542380D01*
X157824761Y-43542380D01*
X157729523Y-43590000D01*
X157681904Y-43637619D01*
X157634285Y-43732857D01*
X157634285Y-43780476D01*
X157681904Y-43875714D01*
X157729523Y-43923333D01*
X157824761Y-43970952D01*
X158015238Y-43970952D01*
X158110476Y-44018571D01*
X158158095Y-44066190D01*
X158205714Y-44161428D01*
X158205714Y-44351904D01*
X158158095Y-44447142D01*
X158110476Y-44494761D01*
X158015238Y-44542380D01*
X157824761Y-44542380D01*
X157729523Y-44494761D01*
X157681904Y-44447142D01*
X157634285Y-44351904D01*
X157634285Y-44161428D01*
X157681904Y-44066190D01*
X157729523Y-44018571D01*
X157824761Y-43970952D01*
%TO.C,C25*%
X156008571Y-43841428D02*
X156051428Y-43884285D01*
X156180000Y-43927142D01*
X156265714Y-43927142D01*
X156394285Y-43884285D01*
X156480000Y-43798571D01*
X156522857Y-43712857D01*
X156565714Y-43541428D01*
X156565714Y-43412857D01*
X156522857Y-43241428D01*
X156480000Y-43155714D01*
X156394285Y-43070000D01*
X156265714Y-43027142D01*
X156180000Y-43027142D01*
X156051428Y-43070000D01*
X156008571Y-43112857D01*
X155665714Y-43112857D02*
X155622857Y-43070000D01*
X155537142Y-43027142D01*
X155322857Y-43027142D01*
X155237142Y-43070000D01*
X155194285Y-43112857D01*
X155151428Y-43198571D01*
X155151428Y-43284285D01*
X155194285Y-43412857D01*
X155708571Y-43927142D01*
X155151428Y-43927142D01*
X154337142Y-43027142D02*
X154765714Y-43027142D01*
X154808571Y-43455714D01*
X154765714Y-43412857D01*
X154680000Y-43370000D01*
X154465714Y-43370000D01*
X154380000Y-43412857D01*
X154337142Y-43455714D01*
X154294285Y-43541428D01*
X154294285Y-43755714D01*
X154337142Y-43841428D01*
X154380000Y-43884285D01*
X154465714Y-43927142D01*
X154680000Y-43927142D01*
X154765714Y-43884285D01*
X154808571Y-43841428D01*
%TO.C,C24*%
X156028571Y-38971428D02*
X156071428Y-39014285D01*
X156200000Y-39057142D01*
X156285714Y-39057142D01*
X156414285Y-39014285D01*
X156500000Y-38928571D01*
X156542857Y-38842857D01*
X156585714Y-38671428D01*
X156585714Y-38542857D01*
X156542857Y-38371428D01*
X156500000Y-38285714D01*
X156414285Y-38200000D01*
X156285714Y-38157142D01*
X156200000Y-38157142D01*
X156071428Y-38200000D01*
X156028571Y-38242857D01*
X155685714Y-38242857D02*
X155642857Y-38200000D01*
X155557142Y-38157142D01*
X155342857Y-38157142D01*
X155257142Y-38200000D01*
X155214285Y-38242857D01*
X155171428Y-38328571D01*
X155171428Y-38414285D01*
X155214285Y-38542857D01*
X155728571Y-39057142D01*
X155171428Y-39057142D01*
X154400000Y-38457142D02*
X154400000Y-39057142D01*
X154614285Y-38114285D02*
X154828571Y-38757142D01*
X154271428Y-38757142D01*
%TO.C,J2*%
X91733333Y-45902380D02*
X91733333Y-46616666D01*
X91780952Y-46759523D01*
X91876190Y-46854761D01*
X92019047Y-46902380D01*
X92114285Y-46902380D01*
X91304761Y-45997619D02*
X91257142Y-45950000D01*
X91161904Y-45902380D01*
X90923809Y-45902380D01*
X90828571Y-45950000D01*
X90780952Y-45997619D01*
X90733333Y-46092857D01*
X90733333Y-46188095D01*
X90780952Y-46330952D01*
X91352380Y-46902380D01*
X90733333Y-46902380D01*
%TO.C,J3*%
X89052380Y-35401666D02*
X89766666Y-35401666D01*
X89909523Y-35354047D01*
X90004761Y-35258809D01*
X90052380Y-35115952D01*
X90052380Y-35020714D01*
X89052380Y-35782619D02*
X89052380Y-36401666D01*
X89433333Y-36068333D01*
X89433333Y-36211190D01*
X89480952Y-36306428D01*
X89528571Y-36354047D01*
X89623809Y-36401666D01*
X89861904Y-36401666D01*
X89957142Y-36354047D01*
X90004761Y-36306428D01*
X90052380Y-36211190D01*
X90052380Y-35925476D01*
X90004761Y-35830238D01*
X89957142Y-35782619D01*
%TO.C,J9*%
X59016000Y-75946095D02*
X58968380Y-75850857D01*
X58968380Y-75708000D01*
X59016000Y-75565142D01*
X59111238Y-75469904D01*
X59206476Y-75422285D01*
X59396952Y-75374666D01*
X59539809Y-75374666D01*
X59730285Y-75422285D01*
X59825523Y-75469904D01*
X59920761Y-75565142D01*
X59968380Y-75708000D01*
X59968380Y-75803238D01*
X59920761Y-75946095D01*
X59873142Y-75993714D01*
X59539809Y-75993714D01*
X59539809Y-75803238D01*
X59968380Y-76422285D02*
X58968380Y-76422285D01*
X59968380Y-76993714D01*
X58968380Y-76993714D01*
X59968380Y-77469904D02*
X58968380Y-77469904D01*
X58968380Y-77708000D01*
X59016000Y-77850857D01*
X59111238Y-77946095D01*
X59206476Y-77993714D01*
X59396952Y-78041333D01*
X59539809Y-78041333D01*
X59730285Y-77993714D01*
X59825523Y-77946095D01*
X59920761Y-77850857D01*
X59968380Y-77708000D01*
X59968380Y-77469904D01*
X60222380Y-80708571D02*
X60222380Y-80137142D01*
X60222380Y-80422857D02*
X59222380Y-80422857D01*
X59365238Y-80327619D01*
X59460476Y-80232380D01*
X59508095Y-80137142D01*
X59317619Y-81089523D02*
X59270000Y-81137142D01*
X59222380Y-81232380D01*
X59222380Y-81470476D01*
X59270000Y-81565714D01*
X59317619Y-81613333D01*
X59412857Y-81660952D01*
X59508095Y-81660952D01*
X59650952Y-81613333D01*
X60222380Y-81041904D01*
X60222380Y-81660952D01*
X59555714Y-81994285D02*
X60222380Y-82232380D01*
X59555714Y-82470476D01*
%TO.C,D4*%
X150982380Y-52631904D02*
X149982380Y-52631904D01*
X149982380Y-52870000D01*
X150030000Y-53012857D01*
X150125238Y-53108095D01*
X150220476Y-53155714D01*
X150410952Y-53203333D01*
X150553809Y-53203333D01*
X150744285Y-53155714D01*
X150839523Y-53108095D01*
X150934761Y-53012857D01*
X150982380Y-52870000D01*
X150982380Y-52631904D01*
X150315714Y-54060476D02*
X150982380Y-54060476D01*
X149934761Y-53822380D02*
X150649047Y-53584285D01*
X150649047Y-54203333D01*
%TO.C,BT1*%
X133208571Y-58874285D02*
X133256190Y-59017142D01*
X133303809Y-59064761D01*
X133399047Y-59112380D01*
X133541904Y-59112380D01*
X133637142Y-59064761D01*
X133684761Y-59017142D01*
X133732380Y-58921904D01*
X133732380Y-58540952D01*
X132732380Y-58540952D01*
X132732380Y-58874285D01*
X132780000Y-58969523D01*
X132827619Y-59017142D01*
X132922857Y-59064761D01*
X133018095Y-59064761D01*
X133113333Y-59017142D01*
X133160952Y-58969523D01*
X133208571Y-58874285D01*
X133208571Y-58540952D01*
X132732380Y-59398095D02*
X132732380Y-59969523D01*
X133732380Y-59683809D02*
X132732380Y-59683809D01*
X133732380Y-60826666D02*
X133732380Y-60255238D01*
X133732380Y-60540952D02*
X132732380Y-60540952D01*
X132875238Y-60445714D01*
X132970476Y-60350476D01*
X133018095Y-60255238D01*
X137787142Y-56138571D02*
X137787142Y-57281428D01*
X138358571Y-56710000D02*
X137215714Y-56710000D01*
%TO.C,D5*%
X159922380Y-52571904D02*
X158922380Y-52571904D01*
X158922380Y-52810000D01*
X158970000Y-52952857D01*
X159065238Y-53048095D01*
X159160476Y-53095714D01*
X159350952Y-53143333D01*
X159493809Y-53143333D01*
X159684285Y-53095714D01*
X159779523Y-53048095D01*
X159874761Y-52952857D01*
X159922380Y-52810000D01*
X159922380Y-52571904D01*
X158922380Y-54048095D02*
X158922380Y-53571904D01*
X159398571Y-53524285D01*
X159350952Y-53571904D01*
X159303333Y-53667142D01*
X159303333Y-53905238D01*
X159350952Y-54000476D01*
X159398571Y-54048095D01*
X159493809Y-54095714D01*
X159731904Y-54095714D01*
X159827142Y-54048095D01*
X159874761Y-54000476D01*
X159922380Y-53905238D01*
X159922380Y-53667142D01*
X159874761Y-53571904D01*
X159827142Y-53524285D01*
%TD*%
M02*
