%TF.GenerationSoftware,KiCad,Pcbnew,5.1.9-73d0e3b20d~88~ubuntu20.04.1*%
%TF.CreationDate,2021-03-03T11:33:07+04:00*%
%TF.ProjectId,main_board,6d61696e-5f62-46f6-9172-642e6b696361,rev?*%
%TF.SameCoordinates,Original*%
%TF.FileFunction,Soldermask,Top*%
%TF.FilePolarity,Negative*%
%FSLAX46Y46*%
G04 Gerber Fmt 4.6, Leading zero omitted, Abs format (unit mm)*
G04 Created by KiCad (PCBNEW 5.1.9-73d0e3b20d~88~ubuntu20.04.1) date 2021-03-03 11:33:07*
%MOMM*%
%LPD*%
G01*
G04 APERTURE LIST*
%TA.AperFunction,Profile*%
%ADD10C,0.100000*%
%TD*%
%ADD11O,1.500000X2.000000*%
%ADD12O,2.000000X1.000000*%
%ADD13O,1.500000X2.200000*%
%ADD14R,0.500000X1.000000*%
%ADD15R,0.400000X1.000000*%
%ADD16O,1.200000X2.000000*%
%ADD17C,2.100000*%
%ADD18R,0.400000X1.900000*%
%ADD19R,1.600000X5.700000*%
%ADD20R,1.300000X1.700000*%
%ADD21R,1.800000X3.500000*%
%ADD22C,3.000000*%
%ADD23R,3.000000X3.000000*%
%ADD24R,1.150000X0.600000*%
G04 APERTURE END LIST*
D10*
X210400000Y-29600000D02*
X54200000Y-29600000D01*
X210400000Y-29600000D02*
X210400000Y-88000000D01*
X210400000Y-88000000D02*
X54200000Y-88000000D01*
X54200000Y-29600000D02*
X54200000Y-88000000D01*
D11*
%TO.C,J8*%
X163160000Y-39460000D03*
X165700000Y-39460000D03*
X168240000Y-39460000D03*
X170780000Y-39460000D03*
X173320000Y-39460000D03*
X175860000Y-39460000D03*
X178400000Y-39460000D03*
X180940000Y-39460000D03*
X183480000Y-39460000D03*
X186020000Y-39460000D03*
X188560000Y-39460000D03*
X191100000Y-39460000D03*
X193640000Y-39460000D03*
X196180000Y-39460000D03*
X198720000Y-39460000D03*
X201260000Y-39460000D03*
X203800000Y-39460000D03*
X163160000Y-42000000D03*
X165700000Y-42000000D03*
X168240000Y-42000000D03*
X170780000Y-42000000D03*
X173320000Y-42000000D03*
X175860000Y-42000000D03*
X178400000Y-42000000D03*
X180940000Y-42000000D03*
X183480000Y-42000000D03*
X186020000Y-42000000D03*
X188560000Y-42000000D03*
X191100000Y-42000000D03*
X193640000Y-42000000D03*
X196180000Y-42000000D03*
X198720000Y-42000000D03*
X201260000Y-42000000D03*
G36*
G01*
X204329500Y-43000000D02*
X203270500Y-43000000D01*
G75*
G02*
X203050000Y-42779500I0J220500D01*
G01*
X203050000Y-41220500D01*
G75*
G02*
X203270500Y-41000000I220500J0D01*
G01*
X204329500Y-41000000D01*
G75*
G02*
X204550000Y-41220500I0J-220500D01*
G01*
X204550000Y-42779500D01*
G75*
G02*
X204329500Y-43000000I-220500J0D01*
G01*
G37*
%TD*%
D12*
%TO.C,J11*%
X158020000Y-77212000D03*
X158020000Y-75942000D03*
X158020000Y-74672000D03*
X158020000Y-73402000D03*
X158020000Y-72132000D03*
X158020000Y-70862000D03*
X158020000Y-69592000D03*
X158020000Y-68322000D03*
X158020000Y-67052000D03*
G36*
G01*
X157270000Y-65282000D02*
X158770000Y-65282000D01*
G75*
G02*
X159020000Y-65532000I0J-250000D01*
G01*
X159020000Y-66032000D01*
G75*
G02*
X158770000Y-66282000I-250000J0D01*
G01*
X157270000Y-66282000D01*
G75*
G02*
X157020000Y-66032000I0J250000D01*
G01*
X157020000Y-65532000D01*
G75*
G02*
X157270000Y-65282000I250000J0D01*
G01*
G37*
%TD*%
%TO.C,J2*%
G36*
G01*
X118179500Y-43000000D02*
X117120500Y-43000000D01*
G75*
G02*
X116900000Y-42779500I0J220500D01*
G01*
X116900000Y-41020500D01*
G75*
G02*
X117120500Y-40800000I220500J0D01*
G01*
X118179500Y-40800000D01*
G75*
G02*
X118400000Y-41020500I0J-220500D01*
G01*
X118400000Y-42779500D01*
G75*
G02*
X118179500Y-43000000I-220500J0D01*
G01*
G37*
D13*
X115110000Y-41900000D03*
X112570000Y-41900000D03*
X110030000Y-41900000D03*
X107490000Y-41900000D03*
X104950000Y-41900000D03*
X102410000Y-41900000D03*
X99870000Y-41900000D03*
X97330000Y-41900000D03*
X94790000Y-41900000D03*
X117650000Y-39360000D03*
X115110000Y-39360000D03*
X112570000Y-39360000D03*
X110030000Y-39360000D03*
X107490000Y-39360000D03*
X104950000Y-39360000D03*
X102410000Y-39360000D03*
X99870000Y-39360000D03*
X97330000Y-39360000D03*
X94790000Y-39360000D03*
%TD*%
%TO.C,J3*%
X60640000Y-39410000D03*
X63180000Y-39410000D03*
X65720000Y-39410000D03*
X68260000Y-39410000D03*
X70800000Y-39410000D03*
X73340000Y-39410000D03*
X75880000Y-39410000D03*
X78420000Y-39410000D03*
X80960000Y-39410000D03*
X83500000Y-39410000D03*
X60640000Y-41950000D03*
X63180000Y-41950000D03*
X65720000Y-41950000D03*
X68260000Y-41950000D03*
X70800000Y-41950000D03*
X73340000Y-41950000D03*
X75880000Y-41950000D03*
X78420000Y-41950000D03*
X80960000Y-41950000D03*
G36*
G01*
X84029500Y-43050000D02*
X82970500Y-43050000D01*
G75*
G02*
X82750000Y-42829500I0J220500D01*
G01*
X82750000Y-41070500D01*
G75*
G02*
X82970500Y-40850000I220500J0D01*
G01*
X84029500Y-40850000D01*
G75*
G02*
X84250000Y-41070500I0J-220500D01*
G01*
X84250000Y-42829500D01*
G75*
G02*
X84029500Y-43050000I-220500J0D01*
G01*
G37*
%TD*%
D14*
%TO.C,RN16*%
X198770000Y-35640000D03*
D15*
X199570000Y-35640000D03*
D14*
X201170000Y-35640000D03*
D15*
X200370000Y-35640000D03*
D14*
X198770000Y-33640000D03*
D15*
X200370000Y-33640000D03*
X199570000Y-33640000D03*
D14*
X201170000Y-33640000D03*
%TD*%
%TO.C,RN15*%
X193691426Y-35640000D03*
D15*
X194491426Y-35640000D03*
D14*
X196091426Y-35640000D03*
D15*
X195291426Y-35640000D03*
D14*
X193691426Y-33640000D03*
D15*
X195291426Y-33640000D03*
X194491426Y-33640000D03*
D14*
X196091426Y-33640000D03*
%TD*%
%TO.C,RN14*%
X201220000Y-45930000D03*
D15*
X200420000Y-45930000D03*
D14*
X198820000Y-45930000D03*
D15*
X199620000Y-45930000D03*
D14*
X201220000Y-47930000D03*
D15*
X199620000Y-47930000D03*
X200420000Y-47930000D03*
D14*
X198820000Y-47930000D03*
%TD*%
%TO.C,RN13*%
X196138568Y-45930000D03*
D15*
X195338568Y-45930000D03*
D14*
X193738568Y-45930000D03*
D15*
X194538568Y-45930000D03*
D14*
X196138568Y-47930000D03*
D15*
X194538568Y-47930000D03*
X195338568Y-47930000D03*
D14*
X193738568Y-47930000D03*
%TD*%
%TO.C,RN12*%
X188612855Y-35640000D03*
D15*
X189412855Y-35640000D03*
D14*
X191012855Y-35640000D03*
D15*
X190212855Y-35640000D03*
D14*
X188612855Y-33640000D03*
D15*
X190212855Y-33640000D03*
X189412855Y-33640000D03*
D14*
X191012855Y-33640000D03*
%TD*%
%TO.C,RN11*%
X183534284Y-35640000D03*
D15*
X184334284Y-35640000D03*
D14*
X185934284Y-35640000D03*
D15*
X185134284Y-35640000D03*
D14*
X183534284Y-33640000D03*
D15*
X185134284Y-33640000D03*
X184334284Y-33640000D03*
D14*
X185934284Y-33640000D03*
%TD*%
%TO.C,RN10*%
X191057140Y-45930000D03*
D15*
X190257140Y-45930000D03*
D14*
X188657140Y-45930000D03*
D15*
X189457140Y-45930000D03*
D14*
X191057140Y-47930000D03*
D15*
X189457140Y-47930000D03*
X190257140Y-47930000D03*
D14*
X188657140Y-47930000D03*
%TD*%
%TO.C,RN9*%
X185975712Y-45930000D03*
D15*
X185175712Y-45930000D03*
D14*
X183575712Y-45930000D03*
D15*
X184375712Y-45930000D03*
D14*
X185975712Y-47930000D03*
D15*
X184375712Y-47930000D03*
X185175712Y-47930000D03*
D14*
X183575712Y-47930000D03*
%TD*%
%TO.C,RN8*%
X178455713Y-35640000D03*
D15*
X179255713Y-35640000D03*
D14*
X180855713Y-35640000D03*
D15*
X180055713Y-35640000D03*
D14*
X178455713Y-33640000D03*
D15*
X180055713Y-33640000D03*
X179255713Y-33640000D03*
D14*
X180855713Y-33640000D03*
%TD*%
%TO.C,RN7*%
X173377142Y-35640000D03*
D15*
X174177142Y-35640000D03*
D14*
X175777142Y-35640000D03*
D15*
X174977142Y-35640000D03*
D14*
X173377142Y-33640000D03*
D15*
X174977142Y-33640000D03*
X174177142Y-33640000D03*
D14*
X175777142Y-33640000D03*
%TD*%
%TO.C,RN6*%
X180894284Y-45930000D03*
D15*
X180094284Y-45930000D03*
D14*
X178494284Y-45930000D03*
D15*
X179294284Y-45930000D03*
D14*
X180894284Y-47930000D03*
D15*
X179294284Y-47930000D03*
X180094284Y-47930000D03*
D14*
X178494284Y-47930000D03*
%TD*%
%TO.C,RN5*%
X175812856Y-45930000D03*
D15*
X175012856Y-45930000D03*
D14*
X173412856Y-45930000D03*
D15*
X174212856Y-45930000D03*
D14*
X175812856Y-47930000D03*
D15*
X174212856Y-47930000D03*
X175012856Y-47930000D03*
D14*
X173412856Y-47930000D03*
%TD*%
%TO.C,RN4*%
X168298571Y-35640000D03*
D15*
X169098571Y-35640000D03*
D14*
X170698571Y-35640000D03*
D15*
X169898571Y-35640000D03*
D14*
X168298571Y-33640000D03*
D15*
X169898571Y-33640000D03*
X169098571Y-33640000D03*
D14*
X170698571Y-33640000D03*
%TD*%
%TO.C,RN3*%
X163220000Y-35640000D03*
D15*
X164020000Y-35640000D03*
D14*
X165620000Y-35640000D03*
D15*
X164820000Y-35640000D03*
D14*
X163220000Y-33640000D03*
D15*
X164820000Y-33640000D03*
X164020000Y-33640000D03*
D14*
X165620000Y-33640000D03*
%TD*%
%TO.C,RN2*%
X170731428Y-45930000D03*
D15*
X169931428Y-45930000D03*
D14*
X168331428Y-45930000D03*
D15*
X169131428Y-45930000D03*
D14*
X170731428Y-47930000D03*
D15*
X169131428Y-47930000D03*
X169931428Y-47930000D03*
D14*
X168331428Y-47930000D03*
%TD*%
%TO.C,RN1*%
X165650000Y-45930000D03*
D15*
X164850000Y-45930000D03*
D14*
X163250000Y-45930000D03*
D15*
X164050000Y-45930000D03*
D14*
X165650000Y-47930000D03*
D15*
X164050000Y-47930000D03*
X164850000Y-47930000D03*
D14*
X163250000Y-47930000D03*
%TD*%
%TO.C,U1*%
G36*
G01*
X145210000Y-65550000D02*
X145210000Y-64225000D01*
G75*
G02*
X145285000Y-64150000I75000J0D01*
G01*
X145435000Y-64150000D01*
G75*
G02*
X145510000Y-64225000I0J-75000D01*
G01*
X145510000Y-65550000D01*
G75*
G02*
X145435000Y-65625000I-75000J0D01*
G01*
X145285000Y-65625000D01*
G75*
G02*
X145210000Y-65550000I0J75000D01*
G01*
G37*
G36*
G01*
X145710000Y-65550000D02*
X145710000Y-64225000D01*
G75*
G02*
X145785000Y-64150000I75000J0D01*
G01*
X145935000Y-64150000D01*
G75*
G02*
X146010000Y-64225000I0J-75000D01*
G01*
X146010000Y-65550000D01*
G75*
G02*
X145935000Y-65625000I-75000J0D01*
G01*
X145785000Y-65625000D01*
G75*
G02*
X145710000Y-65550000I0J75000D01*
G01*
G37*
G36*
G01*
X146210000Y-65550000D02*
X146210000Y-64225000D01*
G75*
G02*
X146285000Y-64150000I75000J0D01*
G01*
X146435000Y-64150000D01*
G75*
G02*
X146510000Y-64225000I0J-75000D01*
G01*
X146510000Y-65550000D01*
G75*
G02*
X146435000Y-65625000I-75000J0D01*
G01*
X146285000Y-65625000D01*
G75*
G02*
X146210000Y-65550000I0J75000D01*
G01*
G37*
G36*
G01*
X146710000Y-65550000D02*
X146710000Y-64225000D01*
G75*
G02*
X146785000Y-64150000I75000J0D01*
G01*
X146935000Y-64150000D01*
G75*
G02*
X147010000Y-64225000I0J-75000D01*
G01*
X147010000Y-65550000D01*
G75*
G02*
X146935000Y-65625000I-75000J0D01*
G01*
X146785000Y-65625000D01*
G75*
G02*
X146710000Y-65550000I0J75000D01*
G01*
G37*
G36*
G01*
X147210000Y-65550000D02*
X147210000Y-64225000D01*
G75*
G02*
X147285000Y-64150000I75000J0D01*
G01*
X147435000Y-64150000D01*
G75*
G02*
X147510000Y-64225000I0J-75000D01*
G01*
X147510000Y-65550000D01*
G75*
G02*
X147435000Y-65625000I-75000J0D01*
G01*
X147285000Y-65625000D01*
G75*
G02*
X147210000Y-65550000I0J75000D01*
G01*
G37*
G36*
G01*
X147710000Y-65550000D02*
X147710000Y-64225000D01*
G75*
G02*
X147785000Y-64150000I75000J0D01*
G01*
X147935000Y-64150000D01*
G75*
G02*
X148010000Y-64225000I0J-75000D01*
G01*
X148010000Y-65550000D01*
G75*
G02*
X147935000Y-65625000I-75000J0D01*
G01*
X147785000Y-65625000D01*
G75*
G02*
X147710000Y-65550000I0J75000D01*
G01*
G37*
G36*
G01*
X148210000Y-65550000D02*
X148210000Y-64225000D01*
G75*
G02*
X148285000Y-64150000I75000J0D01*
G01*
X148435000Y-64150000D01*
G75*
G02*
X148510000Y-64225000I0J-75000D01*
G01*
X148510000Y-65550000D01*
G75*
G02*
X148435000Y-65625000I-75000J0D01*
G01*
X148285000Y-65625000D01*
G75*
G02*
X148210000Y-65550000I0J75000D01*
G01*
G37*
G36*
G01*
X148710000Y-65550000D02*
X148710000Y-64225000D01*
G75*
G02*
X148785000Y-64150000I75000J0D01*
G01*
X148935000Y-64150000D01*
G75*
G02*
X149010000Y-64225000I0J-75000D01*
G01*
X149010000Y-65550000D01*
G75*
G02*
X148935000Y-65625000I-75000J0D01*
G01*
X148785000Y-65625000D01*
G75*
G02*
X148710000Y-65550000I0J75000D01*
G01*
G37*
G36*
G01*
X149210000Y-65550000D02*
X149210000Y-64225000D01*
G75*
G02*
X149285000Y-64150000I75000J0D01*
G01*
X149435000Y-64150000D01*
G75*
G02*
X149510000Y-64225000I0J-75000D01*
G01*
X149510000Y-65550000D01*
G75*
G02*
X149435000Y-65625000I-75000J0D01*
G01*
X149285000Y-65625000D01*
G75*
G02*
X149210000Y-65550000I0J75000D01*
G01*
G37*
G36*
G01*
X149710000Y-65550000D02*
X149710000Y-64225000D01*
G75*
G02*
X149785000Y-64150000I75000J0D01*
G01*
X149935000Y-64150000D01*
G75*
G02*
X150010000Y-64225000I0J-75000D01*
G01*
X150010000Y-65550000D01*
G75*
G02*
X149935000Y-65625000I-75000J0D01*
G01*
X149785000Y-65625000D01*
G75*
G02*
X149710000Y-65550000I0J75000D01*
G01*
G37*
G36*
G01*
X150210000Y-65550000D02*
X150210000Y-64225000D01*
G75*
G02*
X150285000Y-64150000I75000J0D01*
G01*
X150435000Y-64150000D01*
G75*
G02*
X150510000Y-64225000I0J-75000D01*
G01*
X150510000Y-65550000D01*
G75*
G02*
X150435000Y-65625000I-75000J0D01*
G01*
X150285000Y-65625000D01*
G75*
G02*
X150210000Y-65550000I0J75000D01*
G01*
G37*
G36*
G01*
X150710000Y-65550000D02*
X150710000Y-64225000D01*
G75*
G02*
X150785000Y-64150000I75000J0D01*
G01*
X150935000Y-64150000D01*
G75*
G02*
X151010000Y-64225000I0J-75000D01*
G01*
X151010000Y-65550000D01*
G75*
G02*
X150935000Y-65625000I-75000J0D01*
G01*
X150785000Y-65625000D01*
G75*
G02*
X150710000Y-65550000I0J75000D01*
G01*
G37*
G36*
G01*
X151535000Y-66375000D02*
X151535000Y-66225000D01*
G75*
G02*
X151610000Y-66150000I75000J0D01*
G01*
X152935000Y-66150000D01*
G75*
G02*
X153010000Y-66225000I0J-75000D01*
G01*
X153010000Y-66375000D01*
G75*
G02*
X152935000Y-66450000I-75000J0D01*
G01*
X151610000Y-66450000D01*
G75*
G02*
X151535000Y-66375000I0J75000D01*
G01*
G37*
G36*
G01*
X151535000Y-66875000D02*
X151535000Y-66725000D01*
G75*
G02*
X151610000Y-66650000I75000J0D01*
G01*
X152935000Y-66650000D01*
G75*
G02*
X153010000Y-66725000I0J-75000D01*
G01*
X153010000Y-66875000D01*
G75*
G02*
X152935000Y-66950000I-75000J0D01*
G01*
X151610000Y-66950000D01*
G75*
G02*
X151535000Y-66875000I0J75000D01*
G01*
G37*
G36*
G01*
X151535000Y-67375000D02*
X151535000Y-67225000D01*
G75*
G02*
X151610000Y-67150000I75000J0D01*
G01*
X152935000Y-67150000D01*
G75*
G02*
X153010000Y-67225000I0J-75000D01*
G01*
X153010000Y-67375000D01*
G75*
G02*
X152935000Y-67450000I-75000J0D01*
G01*
X151610000Y-67450000D01*
G75*
G02*
X151535000Y-67375000I0J75000D01*
G01*
G37*
G36*
G01*
X151535000Y-67875000D02*
X151535000Y-67725000D01*
G75*
G02*
X151610000Y-67650000I75000J0D01*
G01*
X152935000Y-67650000D01*
G75*
G02*
X153010000Y-67725000I0J-75000D01*
G01*
X153010000Y-67875000D01*
G75*
G02*
X152935000Y-67950000I-75000J0D01*
G01*
X151610000Y-67950000D01*
G75*
G02*
X151535000Y-67875000I0J75000D01*
G01*
G37*
G36*
G01*
X151535000Y-68375000D02*
X151535000Y-68225000D01*
G75*
G02*
X151610000Y-68150000I75000J0D01*
G01*
X152935000Y-68150000D01*
G75*
G02*
X153010000Y-68225000I0J-75000D01*
G01*
X153010000Y-68375000D01*
G75*
G02*
X152935000Y-68450000I-75000J0D01*
G01*
X151610000Y-68450000D01*
G75*
G02*
X151535000Y-68375000I0J75000D01*
G01*
G37*
G36*
G01*
X151535000Y-68875000D02*
X151535000Y-68725000D01*
G75*
G02*
X151610000Y-68650000I75000J0D01*
G01*
X152935000Y-68650000D01*
G75*
G02*
X153010000Y-68725000I0J-75000D01*
G01*
X153010000Y-68875000D01*
G75*
G02*
X152935000Y-68950000I-75000J0D01*
G01*
X151610000Y-68950000D01*
G75*
G02*
X151535000Y-68875000I0J75000D01*
G01*
G37*
G36*
G01*
X151535000Y-69375000D02*
X151535000Y-69225000D01*
G75*
G02*
X151610000Y-69150000I75000J0D01*
G01*
X152935000Y-69150000D01*
G75*
G02*
X153010000Y-69225000I0J-75000D01*
G01*
X153010000Y-69375000D01*
G75*
G02*
X152935000Y-69450000I-75000J0D01*
G01*
X151610000Y-69450000D01*
G75*
G02*
X151535000Y-69375000I0J75000D01*
G01*
G37*
G36*
G01*
X151535000Y-69875000D02*
X151535000Y-69725000D01*
G75*
G02*
X151610000Y-69650000I75000J0D01*
G01*
X152935000Y-69650000D01*
G75*
G02*
X153010000Y-69725000I0J-75000D01*
G01*
X153010000Y-69875000D01*
G75*
G02*
X152935000Y-69950000I-75000J0D01*
G01*
X151610000Y-69950000D01*
G75*
G02*
X151535000Y-69875000I0J75000D01*
G01*
G37*
G36*
G01*
X151535000Y-70375000D02*
X151535000Y-70225000D01*
G75*
G02*
X151610000Y-70150000I75000J0D01*
G01*
X152935000Y-70150000D01*
G75*
G02*
X153010000Y-70225000I0J-75000D01*
G01*
X153010000Y-70375000D01*
G75*
G02*
X152935000Y-70450000I-75000J0D01*
G01*
X151610000Y-70450000D01*
G75*
G02*
X151535000Y-70375000I0J75000D01*
G01*
G37*
G36*
G01*
X151535000Y-70875000D02*
X151535000Y-70725000D01*
G75*
G02*
X151610000Y-70650000I75000J0D01*
G01*
X152935000Y-70650000D01*
G75*
G02*
X153010000Y-70725000I0J-75000D01*
G01*
X153010000Y-70875000D01*
G75*
G02*
X152935000Y-70950000I-75000J0D01*
G01*
X151610000Y-70950000D01*
G75*
G02*
X151535000Y-70875000I0J75000D01*
G01*
G37*
G36*
G01*
X151535000Y-71375000D02*
X151535000Y-71225000D01*
G75*
G02*
X151610000Y-71150000I75000J0D01*
G01*
X152935000Y-71150000D01*
G75*
G02*
X153010000Y-71225000I0J-75000D01*
G01*
X153010000Y-71375000D01*
G75*
G02*
X152935000Y-71450000I-75000J0D01*
G01*
X151610000Y-71450000D01*
G75*
G02*
X151535000Y-71375000I0J75000D01*
G01*
G37*
G36*
G01*
X151535000Y-71875000D02*
X151535000Y-71725000D01*
G75*
G02*
X151610000Y-71650000I75000J0D01*
G01*
X152935000Y-71650000D01*
G75*
G02*
X153010000Y-71725000I0J-75000D01*
G01*
X153010000Y-71875000D01*
G75*
G02*
X152935000Y-71950000I-75000J0D01*
G01*
X151610000Y-71950000D01*
G75*
G02*
X151535000Y-71875000I0J75000D01*
G01*
G37*
G36*
G01*
X150710000Y-73875000D02*
X150710000Y-72550000D01*
G75*
G02*
X150785000Y-72475000I75000J0D01*
G01*
X150935000Y-72475000D01*
G75*
G02*
X151010000Y-72550000I0J-75000D01*
G01*
X151010000Y-73875000D01*
G75*
G02*
X150935000Y-73950000I-75000J0D01*
G01*
X150785000Y-73950000D01*
G75*
G02*
X150710000Y-73875000I0J75000D01*
G01*
G37*
G36*
G01*
X150210000Y-73875000D02*
X150210000Y-72550000D01*
G75*
G02*
X150285000Y-72475000I75000J0D01*
G01*
X150435000Y-72475000D01*
G75*
G02*
X150510000Y-72550000I0J-75000D01*
G01*
X150510000Y-73875000D01*
G75*
G02*
X150435000Y-73950000I-75000J0D01*
G01*
X150285000Y-73950000D01*
G75*
G02*
X150210000Y-73875000I0J75000D01*
G01*
G37*
G36*
G01*
X149710000Y-73875000D02*
X149710000Y-72550000D01*
G75*
G02*
X149785000Y-72475000I75000J0D01*
G01*
X149935000Y-72475000D01*
G75*
G02*
X150010000Y-72550000I0J-75000D01*
G01*
X150010000Y-73875000D01*
G75*
G02*
X149935000Y-73950000I-75000J0D01*
G01*
X149785000Y-73950000D01*
G75*
G02*
X149710000Y-73875000I0J75000D01*
G01*
G37*
G36*
G01*
X149210000Y-73875000D02*
X149210000Y-72550000D01*
G75*
G02*
X149285000Y-72475000I75000J0D01*
G01*
X149435000Y-72475000D01*
G75*
G02*
X149510000Y-72550000I0J-75000D01*
G01*
X149510000Y-73875000D01*
G75*
G02*
X149435000Y-73950000I-75000J0D01*
G01*
X149285000Y-73950000D01*
G75*
G02*
X149210000Y-73875000I0J75000D01*
G01*
G37*
G36*
G01*
X148710000Y-73875000D02*
X148710000Y-72550000D01*
G75*
G02*
X148785000Y-72475000I75000J0D01*
G01*
X148935000Y-72475000D01*
G75*
G02*
X149010000Y-72550000I0J-75000D01*
G01*
X149010000Y-73875000D01*
G75*
G02*
X148935000Y-73950000I-75000J0D01*
G01*
X148785000Y-73950000D01*
G75*
G02*
X148710000Y-73875000I0J75000D01*
G01*
G37*
G36*
G01*
X148210000Y-73875000D02*
X148210000Y-72550000D01*
G75*
G02*
X148285000Y-72475000I75000J0D01*
G01*
X148435000Y-72475000D01*
G75*
G02*
X148510000Y-72550000I0J-75000D01*
G01*
X148510000Y-73875000D01*
G75*
G02*
X148435000Y-73950000I-75000J0D01*
G01*
X148285000Y-73950000D01*
G75*
G02*
X148210000Y-73875000I0J75000D01*
G01*
G37*
G36*
G01*
X147710000Y-73875000D02*
X147710000Y-72550000D01*
G75*
G02*
X147785000Y-72475000I75000J0D01*
G01*
X147935000Y-72475000D01*
G75*
G02*
X148010000Y-72550000I0J-75000D01*
G01*
X148010000Y-73875000D01*
G75*
G02*
X147935000Y-73950000I-75000J0D01*
G01*
X147785000Y-73950000D01*
G75*
G02*
X147710000Y-73875000I0J75000D01*
G01*
G37*
G36*
G01*
X147210000Y-73875000D02*
X147210000Y-72550000D01*
G75*
G02*
X147285000Y-72475000I75000J0D01*
G01*
X147435000Y-72475000D01*
G75*
G02*
X147510000Y-72550000I0J-75000D01*
G01*
X147510000Y-73875000D01*
G75*
G02*
X147435000Y-73950000I-75000J0D01*
G01*
X147285000Y-73950000D01*
G75*
G02*
X147210000Y-73875000I0J75000D01*
G01*
G37*
G36*
G01*
X146710000Y-73875000D02*
X146710000Y-72550000D01*
G75*
G02*
X146785000Y-72475000I75000J0D01*
G01*
X146935000Y-72475000D01*
G75*
G02*
X147010000Y-72550000I0J-75000D01*
G01*
X147010000Y-73875000D01*
G75*
G02*
X146935000Y-73950000I-75000J0D01*
G01*
X146785000Y-73950000D01*
G75*
G02*
X146710000Y-73875000I0J75000D01*
G01*
G37*
G36*
G01*
X146210000Y-73875000D02*
X146210000Y-72550000D01*
G75*
G02*
X146285000Y-72475000I75000J0D01*
G01*
X146435000Y-72475000D01*
G75*
G02*
X146510000Y-72550000I0J-75000D01*
G01*
X146510000Y-73875000D01*
G75*
G02*
X146435000Y-73950000I-75000J0D01*
G01*
X146285000Y-73950000D01*
G75*
G02*
X146210000Y-73875000I0J75000D01*
G01*
G37*
G36*
G01*
X145710000Y-73875000D02*
X145710000Y-72550000D01*
G75*
G02*
X145785000Y-72475000I75000J0D01*
G01*
X145935000Y-72475000D01*
G75*
G02*
X146010000Y-72550000I0J-75000D01*
G01*
X146010000Y-73875000D01*
G75*
G02*
X145935000Y-73950000I-75000J0D01*
G01*
X145785000Y-73950000D01*
G75*
G02*
X145710000Y-73875000I0J75000D01*
G01*
G37*
G36*
G01*
X145210000Y-73875000D02*
X145210000Y-72550000D01*
G75*
G02*
X145285000Y-72475000I75000J0D01*
G01*
X145435000Y-72475000D01*
G75*
G02*
X145510000Y-72550000I0J-75000D01*
G01*
X145510000Y-73875000D01*
G75*
G02*
X145435000Y-73950000I-75000J0D01*
G01*
X145285000Y-73950000D01*
G75*
G02*
X145210000Y-73875000I0J75000D01*
G01*
G37*
G36*
G01*
X143210000Y-71875000D02*
X143210000Y-71725000D01*
G75*
G02*
X143285000Y-71650000I75000J0D01*
G01*
X144610000Y-71650000D01*
G75*
G02*
X144685000Y-71725000I0J-75000D01*
G01*
X144685000Y-71875000D01*
G75*
G02*
X144610000Y-71950000I-75000J0D01*
G01*
X143285000Y-71950000D01*
G75*
G02*
X143210000Y-71875000I0J75000D01*
G01*
G37*
G36*
G01*
X143210000Y-71375000D02*
X143210000Y-71225000D01*
G75*
G02*
X143285000Y-71150000I75000J0D01*
G01*
X144610000Y-71150000D01*
G75*
G02*
X144685000Y-71225000I0J-75000D01*
G01*
X144685000Y-71375000D01*
G75*
G02*
X144610000Y-71450000I-75000J0D01*
G01*
X143285000Y-71450000D01*
G75*
G02*
X143210000Y-71375000I0J75000D01*
G01*
G37*
G36*
G01*
X143210000Y-70875000D02*
X143210000Y-70725000D01*
G75*
G02*
X143285000Y-70650000I75000J0D01*
G01*
X144610000Y-70650000D01*
G75*
G02*
X144685000Y-70725000I0J-75000D01*
G01*
X144685000Y-70875000D01*
G75*
G02*
X144610000Y-70950000I-75000J0D01*
G01*
X143285000Y-70950000D01*
G75*
G02*
X143210000Y-70875000I0J75000D01*
G01*
G37*
G36*
G01*
X143210000Y-70375000D02*
X143210000Y-70225000D01*
G75*
G02*
X143285000Y-70150000I75000J0D01*
G01*
X144610000Y-70150000D01*
G75*
G02*
X144685000Y-70225000I0J-75000D01*
G01*
X144685000Y-70375000D01*
G75*
G02*
X144610000Y-70450000I-75000J0D01*
G01*
X143285000Y-70450000D01*
G75*
G02*
X143210000Y-70375000I0J75000D01*
G01*
G37*
G36*
G01*
X143210000Y-69875000D02*
X143210000Y-69725000D01*
G75*
G02*
X143285000Y-69650000I75000J0D01*
G01*
X144610000Y-69650000D01*
G75*
G02*
X144685000Y-69725000I0J-75000D01*
G01*
X144685000Y-69875000D01*
G75*
G02*
X144610000Y-69950000I-75000J0D01*
G01*
X143285000Y-69950000D01*
G75*
G02*
X143210000Y-69875000I0J75000D01*
G01*
G37*
G36*
G01*
X143210000Y-69375000D02*
X143210000Y-69225000D01*
G75*
G02*
X143285000Y-69150000I75000J0D01*
G01*
X144610000Y-69150000D01*
G75*
G02*
X144685000Y-69225000I0J-75000D01*
G01*
X144685000Y-69375000D01*
G75*
G02*
X144610000Y-69450000I-75000J0D01*
G01*
X143285000Y-69450000D01*
G75*
G02*
X143210000Y-69375000I0J75000D01*
G01*
G37*
G36*
G01*
X143210000Y-68875000D02*
X143210000Y-68725000D01*
G75*
G02*
X143285000Y-68650000I75000J0D01*
G01*
X144610000Y-68650000D01*
G75*
G02*
X144685000Y-68725000I0J-75000D01*
G01*
X144685000Y-68875000D01*
G75*
G02*
X144610000Y-68950000I-75000J0D01*
G01*
X143285000Y-68950000D01*
G75*
G02*
X143210000Y-68875000I0J75000D01*
G01*
G37*
G36*
G01*
X143210000Y-68375000D02*
X143210000Y-68225000D01*
G75*
G02*
X143285000Y-68150000I75000J0D01*
G01*
X144610000Y-68150000D01*
G75*
G02*
X144685000Y-68225000I0J-75000D01*
G01*
X144685000Y-68375000D01*
G75*
G02*
X144610000Y-68450000I-75000J0D01*
G01*
X143285000Y-68450000D01*
G75*
G02*
X143210000Y-68375000I0J75000D01*
G01*
G37*
G36*
G01*
X143210000Y-67875000D02*
X143210000Y-67725000D01*
G75*
G02*
X143285000Y-67650000I75000J0D01*
G01*
X144610000Y-67650000D01*
G75*
G02*
X144685000Y-67725000I0J-75000D01*
G01*
X144685000Y-67875000D01*
G75*
G02*
X144610000Y-67950000I-75000J0D01*
G01*
X143285000Y-67950000D01*
G75*
G02*
X143210000Y-67875000I0J75000D01*
G01*
G37*
G36*
G01*
X143210000Y-67375000D02*
X143210000Y-67225000D01*
G75*
G02*
X143285000Y-67150000I75000J0D01*
G01*
X144610000Y-67150000D01*
G75*
G02*
X144685000Y-67225000I0J-75000D01*
G01*
X144685000Y-67375000D01*
G75*
G02*
X144610000Y-67450000I-75000J0D01*
G01*
X143285000Y-67450000D01*
G75*
G02*
X143210000Y-67375000I0J75000D01*
G01*
G37*
G36*
G01*
X143210000Y-66875000D02*
X143210000Y-66725000D01*
G75*
G02*
X143285000Y-66650000I75000J0D01*
G01*
X144610000Y-66650000D01*
G75*
G02*
X144685000Y-66725000I0J-75000D01*
G01*
X144685000Y-66875000D01*
G75*
G02*
X144610000Y-66950000I-75000J0D01*
G01*
X143285000Y-66950000D01*
G75*
G02*
X143210000Y-66875000I0J75000D01*
G01*
G37*
G36*
G01*
X143210000Y-66375000D02*
X143210000Y-66225000D01*
G75*
G02*
X143285000Y-66150000I75000J0D01*
G01*
X144610000Y-66150000D01*
G75*
G02*
X144685000Y-66225000I0J-75000D01*
G01*
X144685000Y-66375000D01*
G75*
G02*
X144610000Y-66450000I-75000J0D01*
G01*
X143285000Y-66450000D01*
G75*
G02*
X143210000Y-66375000I0J75000D01*
G01*
G37*
%TD*%
%TO.C,R31*%
G36*
G01*
X140125000Y-80175000D02*
X140125000Y-79625000D01*
G75*
G02*
X140325000Y-79425000I200000J0D01*
G01*
X140725000Y-79425000D01*
G75*
G02*
X140925000Y-79625000I0J-200000D01*
G01*
X140925000Y-80175000D01*
G75*
G02*
X140725000Y-80375000I-200000J0D01*
G01*
X140325000Y-80375000D01*
G75*
G02*
X140125000Y-80175000I0J200000D01*
G01*
G37*
G36*
G01*
X138475000Y-80175000D02*
X138475000Y-79625000D01*
G75*
G02*
X138675000Y-79425000I200000J0D01*
G01*
X139075000Y-79425000D01*
G75*
G02*
X139275000Y-79625000I0J-200000D01*
G01*
X139275000Y-80175000D01*
G75*
G02*
X139075000Y-80375000I-200000J0D01*
G01*
X138675000Y-80375000D01*
G75*
G02*
X138475000Y-80175000I0J200000D01*
G01*
G37*
%TD*%
%TO.C,R30*%
G36*
G01*
X140130000Y-81965000D02*
X140130000Y-81415000D01*
G75*
G02*
X140330000Y-81215000I200000J0D01*
G01*
X140730000Y-81215000D01*
G75*
G02*
X140930000Y-81415000I0J-200000D01*
G01*
X140930000Y-81965000D01*
G75*
G02*
X140730000Y-82165000I-200000J0D01*
G01*
X140330000Y-82165000D01*
G75*
G02*
X140130000Y-81965000I0J200000D01*
G01*
G37*
G36*
G01*
X138480000Y-81965000D02*
X138480000Y-81415000D01*
G75*
G02*
X138680000Y-81215000I200000J0D01*
G01*
X139080000Y-81215000D01*
G75*
G02*
X139280000Y-81415000I0J-200000D01*
G01*
X139280000Y-81965000D01*
G75*
G02*
X139080000Y-82165000I-200000J0D01*
G01*
X138680000Y-82165000D01*
G75*
G02*
X138480000Y-81965000I0J200000D01*
G01*
G37*
%TD*%
%TO.C,R29*%
G36*
G01*
X93235000Y-80265000D02*
X93235000Y-79715000D01*
G75*
G02*
X93435000Y-79515000I200000J0D01*
G01*
X93835000Y-79515000D01*
G75*
G02*
X94035000Y-79715000I0J-200000D01*
G01*
X94035000Y-80265000D01*
G75*
G02*
X93835000Y-80465000I-200000J0D01*
G01*
X93435000Y-80465000D01*
G75*
G02*
X93235000Y-80265000I0J200000D01*
G01*
G37*
G36*
G01*
X91585000Y-80265000D02*
X91585000Y-79715000D01*
G75*
G02*
X91785000Y-79515000I200000J0D01*
G01*
X92185000Y-79515000D01*
G75*
G02*
X92385000Y-79715000I0J-200000D01*
G01*
X92385000Y-80265000D01*
G75*
G02*
X92185000Y-80465000I-200000J0D01*
G01*
X91785000Y-80465000D01*
G75*
G02*
X91585000Y-80265000I0J200000D01*
G01*
G37*
%TD*%
%TO.C,R28*%
G36*
G01*
X92385000Y-81605000D02*
X92385000Y-82155000D01*
G75*
G02*
X92185000Y-82355000I-200000J0D01*
G01*
X91785000Y-82355000D01*
G75*
G02*
X91585000Y-82155000I0J200000D01*
G01*
X91585000Y-81605000D01*
G75*
G02*
X91785000Y-81405000I200000J0D01*
G01*
X92185000Y-81405000D01*
G75*
G02*
X92385000Y-81605000I0J-200000D01*
G01*
G37*
G36*
G01*
X94035000Y-81605000D02*
X94035000Y-82155000D01*
G75*
G02*
X93835000Y-82355000I-200000J0D01*
G01*
X93435000Y-82355000D01*
G75*
G02*
X93235000Y-82155000I0J200000D01*
G01*
X93235000Y-81605000D01*
G75*
G02*
X93435000Y-81405000I200000J0D01*
G01*
X93835000Y-81405000D01*
G75*
G02*
X94035000Y-81605000I0J-200000D01*
G01*
G37*
%TD*%
%TO.C,R27*%
G36*
G01*
X77305000Y-80705000D02*
X76755000Y-80705000D01*
G75*
G02*
X76555000Y-80505000I0J200000D01*
G01*
X76555000Y-80105000D01*
G75*
G02*
X76755000Y-79905000I200000J0D01*
G01*
X77305000Y-79905000D01*
G75*
G02*
X77505000Y-80105000I0J-200000D01*
G01*
X77505000Y-80505000D01*
G75*
G02*
X77305000Y-80705000I-200000J0D01*
G01*
G37*
G36*
G01*
X77305000Y-82355000D02*
X76755000Y-82355000D01*
G75*
G02*
X76555000Y-82155000I0J200000D01*
G01*
X76555000Y-81755000D01*
G75*
G02*
X76755000Y-81555000I200000J0D01*
G01*
X77305000Y-81555000D01*
G75*
G02*
X77505000Y-81755000I0J-200000D01*
G01*
X77505000Y-82155000D01*
G75*
G02*
X77305000Y-82355000I-200000J0D01*
G01*
G37*
%TD*%
%TO.C,R26*%
G36*
G01*
X70605000Y-75115000D02*
X70605000Y-75665000D01*
G75*
G02*
X70405000Y-75865000I-200000J0D01*
G01*
X70005000Y-75865000D01*
G75*
G02*
X69805000Y-75665000I0J200000D01*
G01*
X69805000Y-75115000D01*
G75*
G02*
X70005000Y-74915000I200000J0D01*
G01*
X70405000Y-74915000D01*
G75*
G02*
X70605000Y-75115000I0J-200000D01*
G01*
G37*
G36*
G01*
X72255000Y-75115000D02*
X72255000Y-75665000D01*
G75*
G02*
X72055000Y-75865000I-200000J0D01*
G01*
X71655000Y-75865000D01*
G75*
G02*
X71455000Y-75665000I0J200000D01*
G01*
X71455000Y-75115000D01*
G75*
G02*
X71655000Y-74915000I200000J0D01*
G01*
X72055000Y-74915000D01*
G75*
G02*
X72255000Y-75115000I0J-200000D01*
G01*
G37*
%TD*%
%TO.C,R25*%
G36*
G01*
X166185000Y-64635000D02*
X166735000Y-64635000D01*
G75*
G02*
X166935000Y-64835000I0J-200000D01*
G01*
X166935000Y-65235000D01*
G75*
G02*
X166735000Y-65435000I-200000J0D01*
G01*
X166185000Y-65435000D01*
G75*
G02*
X165985000Y-65235000I0J200000D01*
G01*
X165985000Y-64835000D01*
G75*
G02*
X166185000Y-64635000I200000J0D01*
G01*
G37*
G36*
G01*
X166185000Y-62985000D02*
X166735000Y-62985000D01*
G75*
G02*
X166935000Y-63185000I0J-200000D01*
G01*
X166935000Y-63585000D01*
G75*
G02*
X166735000Y-63785000I-200000J0D01*
G01*
X166185000Y-63785000D01*
G75*
G02*
X165985000Y-63585000I0J200000D01*
G01*
X165985000Y-63185000D01*
G75*
G02*
X166185000Y-62985000I200000J0D01*
G01*
G37*
%TD*%
%TO.C,R24*%
G36*
G01*
X170105000Y-64635000D02*
X170655000Y-64635000D01*
G75*
G02*
X170855000Y-64835000I0J-200000D01*
G01*
X170855000Y-65235000D01*
G75*
G02*
X170655000Y-65435000I-200000J0D01*
G01*
X170105000Y-65435000D01*
G75*
G02*
X169905000Y-65235000I0J200000D01*
G01*
X169905000Y-64835000D01*
G75*
G02*
X170105000Y-64635000I200000J0D01*
G01*
G37*
G36*
G01*
X170105000Y-62985000D02*
X170655000Y-62985000D01*
G75*
G02*
X170855000Y-63185000I0J-200000D01*
G01*
X170855000Y-63585000D01*
G75*
G02*
X170655000Y-63785000I-200000J0D01*
G01*
X170105000Y-63785000D01*
G75*
G02*
X169905000Y-63585000I0J200000D01*
G01*
X169905000Y-63185000D01*
G75*
G02*
X170105000Y-62985000I200000J0D01*
G01*
G37*
%TD*%
%TO.C,R23*%
G36*
G01*
X112525000Y-69545000D02*
X111975000Y-69545000D01*
G75*
G02*
X111775000Y-69345000I0J200000D01*
G01*
X111775000Y-68945000D01*
G75*
G02*
X111975000Y-68745000I200000J0D01*
G01*
X112525000Y-68745000D01*
G75*
G02*
X112725000Y-68945000I0J-200000D01*
G01*
X112725000Y-69345000D01*
G75*
G02*
X112525000Y-69545000I-200000J0D01*
G01*
G37*
G36*
G01*
X112525000Y-71195000D02*
X111975000Y-71195000D01*
G75*
G02*
X111775000Y-70995000I0J200000D01*
G01*
X111775000Y-70595000D01*
G75*
G02*
X111975000Y-70395000I200000J0D01*
G01*
X112525000Y-70395000D01*
G75*
G02*
X112725000Y-70595000I0J-200000D01*
G01*
X112725000Y-70995000D01*
G75*
G02*
X112525000Y-71195000I-200000J0D01*
G01*
G37*
%TD*%
%TO.C,R22*%
G36*
G01*
X101245000Y-69545000D02*
X100695000Y-69545000D01*
G75*
G02*
X100495000Y-69345000I0J200000D01*
G01*
X100495000Y-68945000D01*
G75*
G02*
X100695000Y-68745000I200000J0D01*
G01*
X101245000Y-68745000D01*
G75*
G02*
X101445000Y-68945000I0J-200000D01*
G01*
X101445000Y-69345000D01*
G75*
G02*
X101245000Y-69545000I-200000J0D01*
G01*
G37*
G36*
G01*
X101245000Y-71195000D02*
X100695000Y-71195000D01*
G75*
G02*
X100495000Y-70995000I0J200000D01*
G01*
X100495000Y-70595000D01*
G75*
G02*
X100695000Y-70395000I200000J0D01*
G01*
X101245000Y-70395000D01*
G75*
G02*
X101445000Y-70595000I0J-200000D01*
G01*
X101445000Y-70995000D01*
G75*
G02*
X101245000Y-71195000I-200000J0D01*
G01*
G37*
%TD*%
%TO.C,R21*%
G36*
G01*
X107235000Y-69545000D02*
X106685000Y-69545000D01*
G75*
G02*
X106485000Y-69345000I0J200000D01*
G01*
X106485000Y-68945000D01*
G75*
G02*
X106685000Y-68745000I200000J0D01*
G01*
X107235000Y-68745000D01*
G75*
G02*
X107435000Y-68945000I0J-200000D01*
G01*
X107435000Y-69345000D01*
G75*
G02*
X107235000Y-69545000I-200000J0D01*
G01*
G37*
G36*
G01*
X107235000Y-71195000D02*
X106685000Y-71195000D01*
G75*
G02*
X106485000Y-70995000I0J200000D01*
G01*
X106485000Y-70595000D01*
G75*
G02*
X106685000Y-70395000I200000J0D01*
G01*
X107235000Y-70395000D01*
G75*
G02*
X107435000Y-70595000I0J-200000D01*
G01*
X107435000Y-70995000D01*
G75*
G02*
X107235000Y-71195000I-200000J0D01*
G01*
G37*
%TD*%
%TO.C,R20*%
G36*
G01*
X154165000Y-60525000D02*
X153615000Y-60525000D01*
G75*
G02*
X153415000Y-60325000I0J200000D01*
G01*
X153415000Y-59925000D01*
G75*
G02*
X153615000Y-59725000I200000J0D01*
G01*
X154165000Y-59725000D01*
G75*
G02*
X154365000Y-59925000I0J-200000D01*
G01*
X154365000Y-60325000D01*
G75*
G02*
X154165000Y-60525000I-200000J0D01*
G01*
G37*
G36*
G01*
X154165000Y-62175000D02*
X153615000Y-62175000D01*
G75*
G02*
X153415000Y-61975000I0J200000D01*
G01*
X153415000Y-61575000D01*
G75*
G02*
X153615000Y-61375000I200000J0D01*
G01*
X154165000Y-61375000D01*
G75*
G02*
X154365000Y-61575000I0J-200000D01*
G01*
X154365000Y-61975000D01*
G75*
G02*
X154165000Y-62175000I-200000J0D01*
G01*
G37*
%TD*%
%TO.C,R19*%
G36*
G01*
X168145000Y-64635000D02*
X168695000Y-64635000D01*
G75*
G02*
X168895000Y-64835000I0J-200000D01*
G01*
X168895000Y-65235000D01*
G75*
G02*
X168695000Y-65435000I-200000J0D01*
G01*
X168145000Y-65435000D01*
G75*
G02*
X167945000Y-65235000I0J200000D01*
G01*
X167945000Y-64835000D01*
G75*
G02*
X168145000Y-64635000I200000J0D01*
G01*
G37*
G36*
G01*
X168145000Y-62985000D02*
X168695000Y-62985000D01*
G75*
G02*
X168895000Y-63185000I0J-200000D01*
G01*
X168895000Y-63585000D01*
G75*
G02*
X168695000Y-63785000I-200000J0D01*
G01*
X168145000Y-63785000D01*
G75*
G02*
X167945000Y-63585000I0J200000D01*
G01*
X167945000Y-63185000D01*
G75*
G02*
X168145000Y-62985000I200000J0D01*
G01*
G37*
%TD*%
%TO.C,R18*%
G36*
G01*
X139275000Y-77755000D02*
X139275000Y-78305000D01*
G75*
G02*
X139075000Y-78505000I-200000J0D01*
G01*
X138675000Y-78505000D01*
G75*
G02*
X138475000Y-78305000I0J200000D01*
G01*
X138475000Y-77755000D01*
G75*
G02*
X138675000Y-77555000I200000J0D01*
G01*
X139075000Y-77555000D01*
G75*
G02*
X139275000Y-77755000I0J-200000D01*
G01*
G37*
G36*
G01*
X140925000Y-77755000D02*
X140925000Y-78305000D01*
G75*
G02*
X140725000Y-78505000I-200000J0D01*
G01*
X140325000Y-78505000D01*
G75*
G02*
X140125000Y-78305000I0J200000D01*
G01*
X140125000Y-77755000D01*
G75*
G02*
X140325000Y-77555000I200000J0D01*
G01*
X140725000Y-77555000D01*
G75*
G02*
X140925000Y-77755000I0J-200000D01*
G01*
G37*
%TD*%
%TO.C,R17*%
G36*
G01*
X152445000Y-60525000D02*
X151895000Y-60525000D01*
G75*
G02*
X151695000Y-60325000I0J200000D01*
G01*
X151695000Y-59925000D01*
G75*
G02*
X151895000Y-59725000I200000J0D01*
G01*
X152445000Y-59725000D01*
G75*
G02*
X152645000Y-59925000I0J-200000D01*
G01*
X152645000Y-60325000D01*
G75*
G02*
X152445000Y-60525000I-200000J0D01*
G01*
G37*
G36*
G01*
X152445000Y-62175000D02*
X151895000Y-62175000D01*
G75*
G02*
X151695000Y-61975000I0J200000D01*
G01*
X151695000Y-61575000D01*
G75*
G02*
X151895000Y-61375000I200000J0D01*
G01*
X152445000Y-61375000D01*
G75*
G02*
X152645000Y-61575000I0J-200000D01*
G01*
X152645000Y-61975000D01*
G75*
G02*
X152445000Y-62175000I-200000J0D01*
G01*
G37*
%TD*%
%TO.C,R16*%
G36*
G01*
X150725000Y-60525000D02*
X150175000Y-60525000D01*
G75*
G02*
X149975000Y-60325000I0J200000D01*
G01*
X149975000Y-59925000D01*
G75*
G02*
X150175000Y-59725000I200000J0D01*
G01*
X150725000Y-59725000D01*
G75*
G02*
X150925000Y-59925000I0J-200000D01*
G01*
X150925000Y-60325000D01*
G75*
G02*
X150725000Y-60525000I-200000J0D01*
G01*
G37*
G36*
G01*
X150725000Y-62175000D02*
X150175000Y-62175000D01*
G75*
G02*
X149975000Y-61975000I0J200000D01*
G01*
X149975000Y-61575000D01*
G75*
G02*
X150175000Y-61375000I200000J0D01*
G01*
X150725000Y-61375000D01*
G75*
G02*
X150925000Y-61575000I0J-200000D01*
G01*
X150925000Y-61975000D01*
G75*
G02*
X150725000Y-62175000I-200000J0D01*
G01*
G37*
%TD*%
%TO.C,R15*%
G36*
G01*
X155885000Y-60525000D02*
X155335000Y-60525000D01*
G75*
G02*
X155135000Y-60325000I0J200000D01*
G01*
X155135000Y-59925000D01*
G75*
G02*
X155335000Y-59725000I200000J0D01*
G01*
X155885000Y-59725000D01*
G75*
G02*
X156085000Y-59925000I0J-200000D01*
G01*
X156085000Y-60325000D01*
G75*
G02*
X155885000Y-60525000I-200000J0D01*
G01*
G37*
G36*
G01*
X155885000Y-62175000D02*
X155335000Y-62175000D01*
G75*
G02*
X155135000Y-61975000I0J200000D01*
G01*
X155135000Y-61575000D01*
G75*
G02*
X155335000Y-61375000I200000J0D01*
G01*
X155885000Y-61375000D01*
G75*
G02*
X156085000Y-61575000I0J-200000D01*
G01*
X156085000Y-61975000D01*
G75*
G02*
X155885000Y-62175000I-200000J0D01*
G01*
G37*
%TD*%
%TO.C,R14*%
G36*
G01*
X139967000Y-68415000D02*
X139967000Y-67865000D01*
G75*
G02*
X140167000Y-67665000I200000J0D01*
G01*
X140567000Y-67665000D01*
G75*
G02*
X140767000Y-67865000I0J-200000D01*
G01*
X140767000Y-68415000D01*
G75*
G02*
X140567000Y-68615000I-200000J0D01*
G01*
X140167000Y-68615000D01*
G75*
G02*
X139967000Y-68415000I0J200000D01*
G01*
G37*
G36*
G01*
X138317000Y-68415000D02*
X138317000Y-67865000D01*
G75*
G02*
X138517000Y-67665000I200000J0D01*
G01*
X138917000Y-67665000D01*
G75*
G02*
X139117000Y-67865000I0J-200000D01*
G01*
X139117000Y-68415000D01*
G75*
G02*
X138917000Y-68615000I-200000J0D01*
G01*
X138517000Y-68615000D01*
G75*
G02*
X138317000Y-68415000I0J200000D01*
G01*
G37*
%TD*%
%TO.C,R13*%
G36*
G01*
X146735000Y-61375000D02*
X147285000Y-61375000D01*
G75*
G02*
X147485000Y-61575000I0J-200000D01*
G01*
X147485000Y-61975000D01*
G75*
G02*
X147285000Y-62175000I-200000J0D01*
G01*
X146735000Y-62175000D01*
G75*
G02*
X146535000Y-61975000I0J200000D01*
G01*
X146535000Y-61575000D01*
G75*
G02*
X146735000Y-61375000I200000J0D01*
G01*
G37*
G36*
G01*
X146735000Y-59725000D02*
X147285000Y-59725000D01*
G75*
G02*
X147485000Y-59925000I0J-200000D01*
G01*
X147485000Y-60325000D01*
G75*
G02*
X147285000Y-60525000I-200000J0D01*
G01*
X146735000Y-60525000D01*
G75*
G02*
X146535000Y-60325000I0J200000D01*
G01*
X146535000Y-59925000D01*
G75*
G02*
X146735000Y-59725000I200000J0D01*
G01*
G37*
%TD*%
%TO.C,R12*%
G36*
G01*
X149005000Y-60525000D02*
X148455000Y-60525000D01*
G75*
G02*
X148255000Y-60325000I0J200000D01*
G01*
X148255000Y-59925000D01*
G75*
G02*
X148455000Y-59725000I200000J0D01*
G01*
X149005000Y-59725000D01*
G75*
G02*
X149205000Y-59925000I0J-200000D01*
G01*
X149205000Y-60325000D01*
G75*
G02*
X149005000Y-60525000I-200000J0D01*
G01*
G37*
G36*
G01*
X149005000Y-62175000D02*
X148455000Y-62175000D01*
G75*
G02*
X148255000Y-61975000I0J200000D01*
G01*
X148255000Y-61575000D01*
G75*
G02*
X148455000Y-61375000I200000J0D01*
G01*
X149005000Y-61375000D01*
G75*
G02*
X149205000Y-61575000I0J-200000D01*
G01*
X149205000Y-61975000D01*
G75*
G02*
X149005000Y-62175000I-200000J0D01*
G01*
G37*
%TD*%
%TO.C,R11*%
G36*
G01*
X140019000Y-73495000D02*
X140019000Y-72945000D01*
G75*
G02*
X140219000Y-72745000I200000J0D01*
G01*
X140619000Y-72745000D01*
G75*
G02*
X140819000Y-72945000I0J-200000D01*
G01*
X140819000Y-73495000D01*
G75*
G02*
X140619000Y-73695000I-200000J0D01*
G01*
X140219000Y-73695000D01*
G75*
G02*
X140019000Y-73495000I0J200000D01*
G01*
G37*
G36*
G01*
X138369000Y-73495000D02*
X138369000Y-72945000D01*
G75*
G02*
X138569000Y-72745000I200000J0D01*
G01*
X138969000Y-72745000D01*
G75*
G02*
X139169000Y-72945000I0J-200000D01*
G01*
X139169000Y-73495000D01*
G75*
G02*
X138969000Y-73695000I-200000J0D01*
G01*
X138569000Y-73695000D01*
G75*
G02*
X138369000Y-73495000I0J200000D01*
G01*
G37*
%TD*%
%TO.C,R10*%
G36*
G01*
X140019000Y-70193000D02*
X140019000Y-69643000D01*
G75*
G02*
X140219000Y-69443000I200000J0D01*
G01*
X140619000Y-69443000D01*
G75*
G02*
X140819000Y-69643000I0J-200000D01*
G01*
X140819000Y-70193000D01*
G75*
G02*
X140619000Y-70393000I-200000J0D01*
G01*
X140219000Y-70393000D01*
G75*
G02*
X140019000Y-70193000I0J200000D01*
G01*
G37*
G36*
G01*
X138369000Y-70193000D02*
X138369000Y-69643000D01*
G75*
G02*
X138569000Y-69443000I200000J0D01*
G01*
X138969000Y-69443000D01*
G75*
G02*
X139169000Y-69643000I0J-200000D01*
G01*
X139169000Y-70193000D01*
G75*
G02*
X138969000Y-70393000I-200000J0D01*
G01*
X138569000Y-70393000D01*
G75*
G02*
X138369000Y-70193000I0J200000D01*
G01*
G37*
%TD*%
%TO.C,C23*%
G36*
G01*
X143360000Y-83350000D02*
X143360000Y-83690000D01*
G75*
G02*
X143220000Y-83830000I-140000J0D01*
G01*
X142940000Y-83830000D01*
G75*
G02*
X142800000Y-83690000I0J140000D01*
G01*
X142800000Y-83350000D01*
G75*
G02*
X142940000Y-83210000I140000J0D01*
G01*
X143220000Y-83210000D01*
G75*
G02*
X143360000Y-83350000I0J-140000D01*
G01*
G37*
G36*
G01*
X144320000Y-83350000D02*
X144320000Y-83690000D01*
G75*
G02*
X144180000Y-83830000I-140000J0D01*
G01*
X143900000Y-83830000D01*
G75*
G02*
X143760000Y-83690000I0J140000D01*
G01*
X143760000Y-83350000D01*
G75*
G02*
X143900000Y-83210000I140000J0D01*
G01*
X144180000Y-83210000D01*
G75*
G02*
X144320000Y-83350000I0J-140000D01*
G01*
G37*
%TD*%
%TO.C,C21*%
G36*
G01*
X114390000Y-81660000D02*
X114050000Y-81660000D01*
G75*
G02*
X113910000Y-81520000I0J140000D01*
G01*
X113910000Y-81240000D01*
G75*
G02*
X114050000Y-81100000I140000J0D01*
G01*
X114390000Y-81100000D01*
G75*
G02*
X114530000Y-81240000I0J-140000D01*
G01*
X114530000Y-81520000D01*
G75*
G02*
X114390000Y-81660000I-140000J0D01*
G01*
G37*
G36*
G01*
X114390000Y-82620000D02*
X114050000Y-82620000D01*
G75*
G02*
X113910000Y-82480000I0J140000D01*
G01*
X113910000Y-82200000D01*
G75*
G02*
X114050000Y-82060000I140000J0D01*
G01*
X114390000Y-82060000D01*
G75*
G02*
X114530000Y-82200000I0J-140000D01*
G01*
X114530000Y-82480000D01*
G75*
G02*
X114390000Y-82620000I-140000J0D01*
G01*
G37*
%TD*%
%TO.C,C20*%
G36*
G01*
X81915000Y-81580000D02*
X82865000Y-81580000D01*
G75*
G02*
X83115000Y-81830000I0J-250000D01*
G01*
X83115000Y-82505000D01*
G75*
G02*
X82865000Y-82755000I-250000J0D01*
G01*
X81915000Y-82755000D01*
G75*
G02*
X81665000Y-82505000I0J250000D01*
G01*
X81665000Y-81830000D01*
G75*
G02*
X81915000Y-81580000I250000J0D01*
G01*
G37*
G36*
G01*
X81915000Y-79505000D02*
X82865000Y-79505000D01*
G75*
G02*
X83115000Y-79755000I0J-250000D01*
G01*
X83115000Y-80430000D01*
G75*
G02*
X82865000Y-80680000I-250000J0D01*
G01*
X81915000Y-80680000D01*
G75*
G02*
X81665000Y-80430000I0J250000D01*
G01*
X81665000Y-79755000D01*
G75*
G02*
X81915000Y-79505000I250000J0D01*
G01*
G37*
%TD*%
%TO.C,C17*%
G36*
G01*
X194890000Y-62670000D02*
X194890000Y-62330000D01*
G75*
G02*
X195030000Y-62190000I140000J0D01*
G01*
X195310000Y-62190000D01*
G75*
G02*
X195450000Y-62330000I0J-140000D01*
G01*
X195450000Y-62670000D01*
G75*
G02*
X195310000Y-62810000I-140000J0D01*
G01*
X195030000Y-62810000D01*
G75*
G02*
X194890000Y-62670000I0J140000D01*
G01*
G37*
G36*
G01*
X193930000Y-62670000D02*
X193930000Y-62330000D01*
G75*
G02*
X194070000Y-62190000I140000J0D01*
G01*
X194350000Y-62190000D01*
G75*
G02*
X194490000Y-62330000I0J-140000D01*
G01*
X194490000Y-62670000D01*
G75*
G02*
X194350000Y-62810000I-140000J0D01*
G01*
X194070000Y-62810000D01*
G75*
G02*
X193930000Y-62670000I0J140000D01*
G01*
G37*
%TD*%
%TO.C,C16*%
G36*
G01*
X184730000Y-62770000D02*
X184730000Y-62430000D01*
G75*
G02*
X184870000Y-62290000I140000J0D01*
G01*
X185150000Y-62290000D01*
G75*
G02*
X185290000Y-62430000I0J-140000D01*
G01*
X185290000Y-62770000D01*
G75*
G02*
X185150000Y-62910000I-140000J0D01*
G01*
X184870000Y-62910000D01*
G75*
G02*
X184730000Y-62770000I0J140000D01*
G01*
G37*
G36*
G01*
X183770000Y-62770000D02*
X183770000Y-62430000D01*
G75*
G02*
X183910000Y-62290000I140000J0D01*
G01*
X184190000Y-62290000D01*
G75*
G02*
X184330000Y-62430000I0J-140000D01*
G01*
X184330000Y-62770000D01*
G75*
G02*
X184190000Y-62910000I-140000J0D01*
G01*
X183910000Y-62910000D01*
G75*
G02*
X183770000Y-62770000I0J140000D01*
G01*
G37*
%TD*%
%TO.C,C15*%
G36*
G01*
X174620000Y-62900000D02*
X174620000Y-62560000D01*
G75*
G02*
X174760000Y-62420000I140000J0D01*
G01*
X175040000Y-62420000D01*
G75*
G02*
X175180000Y-62560000I0J-140000D01*
G01*
X175180000Y-62900000D01*
G75*
G02*
X175040000Y-63040000I-140000J0D01*
G01*
X174760000Y-63040000D01*
G75*
G02*
X174620000Y-62900000I0J140000D01*
G01*
G37*
G36*
G01*
X173660000Y-62900000D02*
X173660000Y-62560000D01*
G75*
G02*
X173800000Y-62420000I140000J0D01*
G01*
X174080000Y-62420000D01*
G75*
G02*
X174220000Y-62560000I0J-140000D01*
G01*
X174220000Y-62900000D01*
G75*
G02*
X174080000Y-63040000I-140000J0D01*
G01*
X173800000Y-63040000D01*
G75*
G02*
X173660000Y-62900000I0J140000D01*
G01*
G37*
%TD*%
%TO.C,C14*%
G36*
G01*
X164390000Y-62860000D02*
X164390000Y-62520000D01*
G75*
G02*
X164530000Y-62380000I140000J0D01*
G01*
X164810000Y-62380000D01*
G75*
G02*
X164950000Y-62520000I0J-140000D01*
G01*
X164950000Y-62860000D01*
G75*
G02*
X164810000Y-63000000I-140000J0D01*
G01*
X164530000Y-63000000D01*
G75*
G02*
X164390000Y-62860000I0J140000D01*
G01*
G37*
G36*
G01*
X163430000Y-62860000D02*
X163430000Y-62520000D01*
G75*
G02*
X163570000Y-62380000I140000J0D01*
G01*
X163850000Y-62380000D01*
G75*
G02*
X163990000Y-62520000I0J-140000D01*
G01*
X163990000Y-62860000D01*
G75*
G02*
X163850000Y-63000000I-140000J0D01*
G01*
X163570000Y-63000000D01*
G75*
G02*
X163430000Y-62860000I0J140000D01*
G01*
G37*
%TD*%
%TO.C,C13*%
G36*
G01*
X70770000Y-69600000D02*
X71110000Y-69600000D01*
G75*
G02*
X71250000Y-69740000I0J-140000D01*
G01*
X71250000Y-70020000D01*
G75*
G02*
X71110000Y-70160000I-140000J0D01*
G01*
X70770000Y-70160000D01*
G75*
G02*
X70630000Y-70020000I0J140000D01*
G01*
X70630000Y-69740000D01*
G75*
G02*
X70770000Y-69600000I140000J0D01*
G01*
G37*
G36*
G01*
X70770000Y-68640000D02*
X71110000Y-68640000D01*
G75*
G02*
X71250000Y-68780000I0J-140000D01*
G01*
X71250000Y-69060000D01*
G75*
G02*
X71110000Y-69200000I-140000J0D01*
G01*
X70770000Y-69200000D01*
G75*
G02*
X70630000Y-69060000I0J140000D01*
G01*
X70630000Y-68780000D01*
G75*
G02*
X70770000Y-68640000I140000J0D01*
G01*
G37*
%TD*%
%TO.C,C12*%
G36*
G01*
X83120000Y-69600000D02*
X83460000Y-69600000D01*
G75*
G02*
X83600000Y-69740000I0J-140000D01*
G01*
X83600000Y-70020000D01*
G75*
G02*
X83460000Y-70160000I-140000J0D01*
G01*
X83120000Y-70160000D01*
G75*
G02*
X82980000Y-70020000I0J140000D01*
G01*
X82980000Y-69740000D01*
G75*
G02*
X83120000Y-69600000I140000J0D01*
G01*
G37*
G36*
G01*
X83120000Y-68640000D02*
X83460000Y-68640000D01*
G75*
G02*
X83600000Y-68780000I0J-140000D01*
G01*
X83600000Y-69060000D01*
G75*
G02*
X83460000Y-69200000I-140000J0D01*
G01*
X83120000Y-69200000D01*
G75*
G02*
X82980000Y-69060000I0J140000D01*
G01*
X82980000Y-68780000D01*
G75*
G02*
X83120000Y-68640000I140000J0D01*
G01*
G37*
%TD*%
%TO.C,C11*%
G36*
G01*
X104900000Y-69600000D02*
X105240000Y-69600000D01*
G75*
G02*
X105380000Y-69740000I0J-140000D01*
G01*
X105380000Y-70020000D01*
G75*
G02*
X105240000Y-70160000I-140000J0D01*
G01*
X104900000Y-70160000D01*
G75*
G02*
X104760000Y-70020000I0J140000D01*
G01*
X104760000Y-69740000D01*
G75*
G02*
X104900000Y-69600000I140000J0D01*
G01*
G37*
G36*
G01*
X104900000Y-68640000D02*
X105240000Y-68640000D01*
G75*
G02*
X105380000Y-68780000I0J-140000D01*
G01*
X105380000Y-69060000D01*
G75*
G02*
X105240000Y-69200000I-140000J0D01*
G01*
X104900000Y-69200000D01*
G75*
G02*
X104760000Y-69060000I0J140000D01*
G01*
X104760000Y-68780000D01*
G75*
G02*
X104900000Y-68640000I140000J0D01*
G01*
G37*
%TD*%
%TO.C,C10*%
G36*
G01*
X117180000Y-69600000D02*
X117520000Y-69600000D01*
G75*
G02*
X117660000Y-69740000I0J-140000D01*
G01*
X117660000Y-70020000D01*
G75*
G02*
X117520000Y-70160000I-140000J0D01*
G01*
X117180000Y-70160000D01*
G75*
G02*
X117040000Y-70020000I0J140000D01*
G01*
X117040000Y-69740000D01*
G75*
G02*
X117180000Y-69600000I140000J0D01*
G01*
G37*
G36*
G01*
X117180000Y-68640000D02*
X117520000Y-68640000D01*
G75*
G02*
X117660000Y-68780000I0J-140000D01*
G01*
X117660000Y-69060000D01*
G75*
G02*
X117520000Y-69200000I-140000J0D01*
G01*
X117180000Y-69200000D01*
G75*
G02*
X117040000Y-69060000I0J140000D01*
G01*
X117040000Y-68780000D01*
G75*
G02*
X117180000Y-68640000I140000J0D01*
G01*
G37*
%TD*%
%TO.C,C9*%
G36*
G01*
X102600000Y-70295000D02*
X103100000Y-70295000D01*
G75*
G02*
X103325000Y-70520000I0J-225000D01*
G01*
X103325000Y-70970000D01*
G75*
G02*
X103100000Y-71195000I-225000J0D01*
G01*
X102600000Y-71195000D01*
G75*
G02*
X102375000Y-70970000I0J225000D01*
G01*
X102375000Y-70520000D01*
G75*
G02*
X102600000Y-70295000I225000J0D01*
G01*
G37*
G36*
G01*
X102600000Y-68745000D02*
X103100000Y-68745000D01*
G75*
G02*
X103325000Y-68970000I0J-225000D01*
G01*
X103325000Y-69420000D01*
G75*
G02*
X103100000Y-69645000I-225000J0D01*
G01*
X102600000Y-69645000D01*
G75*
G02*
X102375000Y-69420000I0J225000D01*
G01*
X102375000Y-68970000D01*
G75*
G02*
X102600000Y-68745000I225000J0D01*
G01*
G37*
%TD*%
%TO.C,C8*%
G36*
G01*
X108460000Y-70295000D02*
X108960000Y-70295000D01*
G75*
G02*
X109185000Y-70520000I0J-225000D01*
G01*
X109185000Y-70970000D01*
G75*
G02*
X108960000Y-71195000I-225000J0D01*
G01*
X108460000Y-71195000D01*
G75*
G02*
X108235000Y-70970000I0J225000D01*
G01*
X108235000Y-70520000D01*
G75*
G02*
X108460000Y-70295000I225000J0D01*
G01*
G37*
G36*
G01*
X108460000Y-68745000D02*
X108960000Y-68745000D01*
G75*
G02*
X109185000Y-68970000I0J-225000D01*
G01*
X109185000Y-69420000D01*
G75*
G02*
X108960000Y-69645000I-225000J0D01*
G01*
X108460000Y-69645000D01*
G75*
G02*
X108235000Y-69420000I0J225000D01*
G01*
X108235000Y-68970000D01*
G75*
G02*
X108460000Y-68745000I225000J0D01*
G01*
G37*
%TD*%
%TO.C,C6*%
G36*
G01*
X152530000Y-74940000D02*
X152530000Y-75280000D01*
G75*
G02*
X152390000Y-75420000I-140000J0D01*
G01*
X152110000Y-75420000D01*
G75*
G02*
X151970000Y-75280000I0J140000D01*
G01*
X151970000Y-74940000D01*
G75*
G02*
X152110000Y-74800000I140000J0D01*
G01*
X152390000Y-74800000D01*
G75*
G02*
X152530000Y-74940000I0J-140000D01*
G01*
G37*
G36*
G01*
X153490000Y-74940000D02*
X153490000Y-75280000D01*
G75*
G02*
X153350000Y-75420000I-140000J0D01*
G01*
X153070000Y-75420000D01*
G75*
G02*
X152930000Y-75280000I0J140000D01*
G01*
X152930000Y-74940000D01*
G75*
G02*
X153070000Y-74800000I140000J0D01*
G01*
X153350000Y-74800000D01*
G75*
G02*
X153490000Y-74940000I0J-140000D01*
G01*
G37*
%TD*%
%TO.C,C5*%
G36*
G01*
X154070000Y-64590000D02*
X154410000Y-64590000D01*
G75*
G02*
X154550000Y-64730000I0J-140000D01*
G01*
X154550000Y-65010000D01*
G75*
G02*
X154410000Y-65150000I-140000J0D01*
G01*
X154070000Y-65150000D01*
G75*
G02*
X153930000Y-65010000I0J140000D01*
G01*
X153930000Y-64730000D01*
G75*
G02*
X154070000Y-64590000I140000J0D01*
G01*
G37*
G36*
G01*
X154070000Y-63630000D02*
X154410000Y-63630000D01*
G75*
G02*
X154550000Y-63770000I0J-140000D01*
G01*
X154550000Y-64050000D01*
G75*
G02*
X154410000Y-64190000I-140000J0D01*
G01*
X154070000Y-64190000D01*
G75*
G02*
X153930000Y-64050000I0J140000D01*
G01*
X153930000Y-63770000D01*
G75*
G02*
X154070000Y-63630000I140000J0D01*
G01*
G37*
%TD*%
%TO.C,C4*%
G36*
G01*
X144950000Y-62700000D02*
X144950000Y-62360000D01*
G75*
G02*
X145090000Y-62220000I140000J0D01*
G01*
X145370000Y-62220000D01*
G75*
G02*
X145510000Y-62360000I0J-140000D01*
G01*
X145510000Y-62700000D01*
G75*
G02*
X145370000Y-62840000I-140000J0D01*
G01*
X145090000Y-62840000D01*
G75*
G02*
X144950000Y-62700000I0J140000D01*
G01*
G37*
G36*
G01*
X143990000Y-62700000D02*
X143990000Y-62360000D01*
G75*
G02*
X144130000Y-62220000I140000J0D01*
G01*
X144410000Y-62220000D01*
G75*
G02*
X144550000Y-62360000I0J-140000D01*
G01*
X144550000Y-62700000D01*
G75*
G02*
X144410000Y-62840000I-140000J0D01*
G01*
X144130000Y-62840000D01*
G75*
G02*
X143990000Y-62700000I0J140000D01*
G01*
G37*
%TD*%
%TO.C,C3*%
G36*
G01*
X141426000Y-71272000D02*
X141426000Y-71612000D01*
G75*
G02*
X141286000Y-71752000I-140000J0D01*
G01*
X141006000Y-71752000D01*
G75*
G02*
X140866000Y-71612000I0J140000D01*
G01*
X140866000Y-71272000D01*
G75*
G02*
X141006000Y-71132000I140000J0D01*
G01*
X141286000Y-71132000D01*
G75*
G02*
X141426000Y-71272000I0J-140000D01*
G01*
G37*
G36*
G01*
X142386000Y-71272000D02*
X142386000Y-71612000D01*
G75*
G02*
X142246000Y-71752000I-140000J0D01*
G01*
X141966000Y-71752000D01*
G75*
G02*
X141826000Y-71612000I0J140000D01*
G01*
X141826000Y-71272000D01*
G75*
G02*
X141966000Y-71132000I140000J0D01*
G01*
X142246000Y-71132000D01*
G75*
G02*
X142386000Y-71272000I0J-140000D01*
G01*
G37*
%TD*%
%TO.C,C2*%
G36*
G01*
X139286000Y-71612000D02*
X139286000Y-71272000D01*
G75*
G02*
X139426000Y-71132000I140000J0D01*
G01*
X139706000Y-71132000D01*
G75*
G02*
X139846000Y-71272000I0J-140000D01*
G01*
X139846000Y-71612000D01*
G75*
G02*
X139706000Y-71752000I-140000J0D01*
G01*
X139426000Y-71752000D01*
G75*
G02*
X139286000Y-71612000I0J140000D01*
G01*
G37*
G36*
G01*
X138326000Y-71612000D02*
X138326000Y-71272000D01*
G75*
G02*
X138466000Y-71132000I140000J0D01*
G01*
X138746000Y-71132000D01*
G75*
G02*
X138886000Y-71272000I0J-140000D01*
G01*
X138886000Y-71612000D01*
G75*
G02*
X138746000Y-71752000I-140000J0D01*
G01*
X138466000Y-71752000D01*
G75*
G02*
X138326000Y-71612000I0J140000D01*
G01*
G37*
%TD*%
%TO.C,C1*%
G36*
G01*
X92600000Y-83370000D02*
X92600000Y-83710000D01*
G75*
G02*
X92460000Y-83850000I-140000J0D01*
G01*
X92180000Y-83850000D01*
G75*
G02*
X92040000Y-83710000I0J140000D01*
G01*
X92040000Y-83370000D01*
G75*
G02*
X92180000Y-83230000I140000J0D01*
G01*
X92460000Y-83230000D01*
G75*
G02*
X92600000Y-83370000I0J-140000D01*
G01*
G37*
G36*
G01*
X93560000Y-83370000D02*
X93560000Y-83710000D01*
G75*
G02*
X93420000Y-83850000I-140000J0D01*
G01*
X93140000Y-83850000D01*
G75*
G02*
X93000000Y-83710000I0J140000D01*
G01*
X93000000Y-83370000D01*
G75*
G02*
X93140000Y-83230000I140000J0D01*
G01*
X93420000Y-83230000D01*
G75*
G02*
X93560000Y-83370000I0J-140000D01*
G01*
G37*
%TD*%
D16*
%TO.C,J1*%
X148010000Y-56940000D03*
X150550000Y-56940000D03*
X153090000Y-56940000D03*
X155630000Y-56940000D03*
X158170000Y-56940000D03*
G36*
G01*
X161310000Y-56240000D02*
X161310000Y-57640000D01*
G75*
G02*
X161010000Y-57940000I-300000J0D01*
G01*
X160410000Y-57940000D01*
G75*
G02*
X160110000Y-57640000I0J300000D01*
G01*
X160110000Y-56240000D01*
G75*
G02*
X160410000Y-55940000I300000J0D01*
G01*
X161010000Y-55940000D01*
G75*
G02*
X161310000Y-56240000I0J-300000D01*
G01*
G37*
%TD*%
%TO.C,J9*%
G36*
G01*
X58030001Y-82330000D02*
X56429999Y-82330000D01*
G75*
G02*
X56180000Y-82080001I0J249999D01*
G01*
X56180000Y-80479999D01*
G75*
G02*
X56429999Y-80230000I249999J0D01*
G01*
X58030001Y-80230000D01*
G75*
G02*
X58280000Y-80479999I0J-249999D01*
G01*
X58280000Y-82080001D01*
G75*
G02*
X58030001Y-82330000I-249999J0D01*
G01*
G37*
D17*
X57230000Y-76680000D03*
%TD*%
D18*
%TO.C,Y1*%
X140692000Y-65908000D03*
X139492000Y-65908000D03*
X138292000Y-65908000D03*
%TD*%
D19*
%TO.C,L1*%
X105670000Y-83350000D03*
X110370000Y-83350000D03*
%TD*%
%TO.C,U14*%
G36*
G01*
X144030000Y-81655000D02*
X144030000Y-81955000D01*
G75*
G02*
X143880000Y-82105000I-150000J0D01*
G01*
X142230000Y-82105000D01*
G75*
G02*
X142080000Y-81955000I0J150000D01*
G01*
X142080000Y-81655000D01*
G75*
G02*
X142230000Y-81505000I150000J0D01*
G01*
X143880000Y-81505000D01*
G75*
G02*
X144030000Y-81655000I0J-150000D01*
G01*
G37*
G36*
G01*
X144030000Y-80385000D02*
X144030000Y-80685000D01*
G75*
G02*
X143880000Y-80835000I-150000J0D01*
G01*
X142230000Y-80835000D01*
G75*
G02*
X142080000Y-80685000I0J150000D01*
G01*
X142080000Y-80385000D01*
G75*
G02*
X142230000Y-80235000I150000J0D01*
G01*
X143880000Y-80235000D01*
G75*
G02*
X144030000Y-80385000I0J-150000D01*
G01*
G37*
G36*
G01*
X144030000Y-79115000D02*
X144030000Y-79415000D01*
G75*
G02*
X143880000Y-79565000I-150000J0D01*
G01*
X142230000Y-79565000D01*
G75*
G02*
X142080000Y-79415000I0J150000D01*
G01*
X142080000Y-79115000D01*
G75*
G02*
X142230000Y-78965000I150000J0D01*
G01*
X143880000Y-78965000D01*
G75*
G02*
X144030000Y-79115000I0J-150000D01*
G01*
G37*
G36*
G01*
X144030000Y-77845000D02*
X144030000Y-78145000D01*
G75*
G02*
X143880000Y-78295000I-150000J0D01*
G01*
X142230000Y-78295000D01*
G75*
G02*
X142080000Y-78145000I0J150000D01*
G01*
X142080000Y-77845000D01*
G75*
G02*
X142230000Y-77695000I150000J0D01*
G01*
X143880000Y-77695000D01*
G75*
G02*
X144030000Y-77845000I0J-150000D01*
G01*
G37*
G36*
G01*
X148980000Y-77845000D02*
X148980000Y-78145000D01*
G75*
G02*
X148830000Y-78295000I-150000J0D01*
G01*
X147180000Y-78295000D01*
G75*
G02*
X147030000Y-78145000I0J150000D01*
G01*
X147030000Y-77845000D01*
G75*
G02*
X147180000Y-77695000I150000J0D01*
G01*
X148830000Y-77695000D01*
G75*
G02*
X148980000Y-77845000I0J-150000D01*
G01*
G37*
G36*
G01*
X148980000Y-79115000D02*
X148980000Y-79415000D01*
G75*
G02*
X148830000Y-79565000I-150000J0D01*
G01*
X147180000Y-79565000D01*
G75*
G02*
X147030000Y-79415000I0J150000D01*
G01*
X147030000Y-79115000D01*
G75*
G02*
X147180000Y-78965000I150000J0D01*
G01*
X148830000Y-78965000D01*
G75*
G02*
X148980000Y-79115000I0J-150000D01*
G01*
G37*
G36*
G01*
X148980000Y-80385000D02*
X148980000Y-80685000D01*
G75*
G02*
X148830000Y-80835000I-150000J0D01*
G01*
X147180000Y-80835000D01*
G75*
G02*
X147030000Y-80685000I0J150000D01*
G01*
X147030000Y-80385000D01*
G75*
G02*
X147180000Y-80235000I150000J0D01*
G01*
X148830000Y-80235000D01*
G75*
G02*
X148980000Y-80385000I0J-150000D01*
G01*
G37*
G36*
G01*
X148980000Y-81655000D02*
X148980000Y-81955000D01*
G75*
G02*
X148830000Y-82105000I-150000J0D01*
G01*
X147180000Y-82105000D01*
G75*
G02*
X147030000Y-81955000I0J150000D01*
G01*
X147030000Y-81655000D01*
G75*
G02*
X147180000Y-81505000I150000J0D01*
G01*
X148830000Y-81505000D01*
G75*
G02*
X148980000Y-81655000I0J-150000D01*
G01*
G37*
%TD*%
%TO.C,Q1*%
G36*
G01*
X74520000Y-84755000D02*
X74520000Y-85055000D01*
G75*
G02*
X74370000Y-85205000I-150000J0D01*
G01*
X72720000Y-85205000D01*
G75*
G02*
X72570000Y-85055000I0J150000D01*
G01*
X72570000Y-84755000D01*
G75*
G02*
X72720000Y-84605000I150000J0D01*
G01*
X74370000Y-84605000D01*
G75*
G02*
X74520000Y-84755000I0J-150000D01*
G01*
G37*
G36*
G01*
X74520000Y-83485000D02*
X74520000Y-83785000D01*
G75*
G02*
X74370000Y-83935000I-150000J0D01*
G01*
X72720000Y-83935000D01*
G75*
G02*
X72570000Y-83785000I0J150000D01*
G01*
X72570000Y-83485000D01*
G75*
G02*
X72720000Y-83335000I150000J0D01*
G01*
X74370000Y-83335000D01*
G75*
G02*
X74520000Y-83485000I0J-150000D01*
G01*
G37*
G36*
G01*
X74520000Y-82215000D02*
X74520000Y-82515000D01*
G75*
G02*
X74370000Y-82665000I-150000J0D01*
G01*
X72720000Y-82665000D01*
G75*
G02*
X72570000Y-82515000I0J150000D01*
G01*
X72570000Y-82215000D01*
G75*
G02*
X72720000Y-82065000I150000J0D01*
G01*
X74370000Y-82065000D01*
G75*
G02*
X74520000Y-82215000I0J-150000D01*
G01*
G37*
G36*
G01*
X74520000Y-80945000D02*
X74520000Y-81245000D01*
G75*
G02*
X74370000Y-81395000I-150000J0D01*
G01*
X72720000Y-81395000D01*
G75*
G02*
X72570000Y-81245000I0J150000D01*
G01*
X72570000Y-80945000D01*
G75*
G02*
X72720000Y-80795000I150000J0D01*
G01*
X74370000Y-80795000D01*
G75*
G02*
X74520000Y-80945000I0J-150000D01*
G01*
G37*
G36*
G01*
X69570000Y-80945000D02*
X69570000Y-81245000D01*
G75*
G02*
X69420000Y-81395000I-150000J0D01*
G01*
X67770000Y-81395000D01*
G75*
G02*
X67620000Y-81245000I0J150000D01*
G01*
X67620000Y-80945000D01*
G75*
G02*
X67770000Y-80795000I150000J0D01*
G01*
X69420000Y-80795000D01*
G75*
G02*
X69570000Y-80945000I0J-150000D01*
G01*
G37*
G36*
G01*
X69570000Y-82215000D02*
X69570000Y-82515000D01*
G75*
G02*
X69420000Y-82665000I-150000J0D01*
G01*
X67770000Y-82665000D01*
G75*
G02*
X67620000Y-82515000I0J150000D01*
G01*
X67620000Y-82215000D01*
G75*
G02*
X67770000Y-82065000I150000J0D01*
G01*
X69420000Y-82065000D01*
G75*
G02*
X69570000Y-82215000I0J-150000D01*
G01*
G37*
G36*
G01*
X69570000Y-83485000D02*
X69570000Y-83785000D01*
G75*
G02*
X69420000Y-83935000I-150000J0D01*
G01*
X67770000Y-83935000D01*
G75*
G02*
X67620000Y-83785000I0J150000D01*
G01*
X67620000Y-83485000D01*
G75*
G02*
X67770000Y-83335000I150000J0D01*
G01*
X69420000Y-83335000D01*
G75*
G02*
X69570000Y-83485000I0J-150000D01*
G01*
G37*
G36*
G01*
X69570000Y-84755000D02*
X69570000Y-85055000D01*
G75*
G02*
X69420000Y-85205000I-150000J0D01*
G01*
X67770000Y-85205000D01*
G75*
G02*
X67620000Y-85055000I0J150000D01*
G01*
X67620000Y-84755000D01*
G75*
G02*
X67770000Y-84605000I150000J0D01*
G01*
X69420000Y-84605000D01*
G75*
G02*
X69570000Y-84755000I0J-150000D01*
G01*
G37*
%TD*%
%TO.C,U4*%
G36*
G01*
X104922500Y-65000000D02*
X105197500Y-65000000D01*
G75*
G02*
X105335000Y-65137500I0J-137500D01*
G01*
X105335000Y-66462500D01*
G75*
G02*
X105197500Y-66600000I-137500J0D01*
G01*
X104922500Y-66600000D01*
G75*
G02*
X104785000Y-66462500I0J137500D01*
G01*
X104785000Y-65137500D01*
G75*
G02*
X104922500Y-65000000I137500J0D01*
G01*
G37*
G36*
G01*
X103652500Y-65000000D02*
X103927500Y-65000000D01*
G75*
G02*
X104065000Y-65137500I0J-137500D01*
G01*
X104065000Y-66462500D01*
G75*
G02*
X103927500Y-66600000I-137500J0D01*
G01*
X103652500Y-66600000D01*
G75*
G02*
X103515000Y-66462500I0J137500D01*
G01*
X103515000Y-65137500D01*
G75*
G02*
X103652500Y-65000000I137500J0D01*
G01*
G37*
G36*
G01*
X102382500Y-65000000D02*
X102657500Y-65000000D01*
G75*
G02*
X102795000Y-65137500I0J-137500D01*
G01*
X102795000Y-66462500D01*
G75*
G02*
X102657500Y-66600000I-137500J0D01*
G01*
X102382500Y-66600000D01*
G75*
G02*
X102245000Y-66462500I0J137500D01*
G01*
X102245000Y-65137500D01*
G75*
G02*
X102382500Y-65000000I137500J0D01*
G01*
G37*
G36*
G01*
X101112500Y-65000000D02*
X101387500Y-65000000D01*
G75*
G02*
X101525000Y-65137500I0J-137500D01*
G01*
X101525000Y-66462500D01*
G75*
G02*
X101387500Y-66600000I-137500J0D01*
G01*
X101112500Y-66600000D01*
G75*
G02*
X100975000Y-66462500I0J137500D01*
G01*
X100975000Y-65137500D01*
G75*
G02*
X101112500Y-65000000I137500J0D01*
G01*
G37*
G36*
G01*
X99842500Y-65000000D02*
X100117500Y-65000000D01*
G75*
G02*
X100255000Y-65137500I0J-137500D01*
G01*
X100255000Y-66462500D01*
G75*
G02*
X100117500Y-66600000I-137500J0D01*
G01*
X99842500Y-66600000D01*
G75*
G02*
X99705000Y-66462500I0J137500D01*
G01*
X99705000Y-65137500D01*
G75*
G02*
X99842500Y-65000000I137500J0D01*
G01*
G37*
G36*
G01*
X98572500Y-65000000D02*
X98847500Y-65000000D01*
G75*
G02*
X98985000Y-65137500I0J-137500D01*
G01*
X98985000Y-66462500D01*
G75*
G02*
X98847500Y-66600000I-137500J0D01*
G01*
X98572500Y-66600000D01*
G75*
G02*
X98435000Y-66462500I0J137500D01*
G01*
X98435000Y-65137500D01*
G75*
G02*
X98572500Y-65000000I137500J0D01*
G01*
G37*
G36*
G01*
X97302500Y-65000000D02*
X97577500Y-65000000D01*
G75*
G02*
X97715000Y-65137500I0J-137500D01*
G01*
X97715000Y-66462500D01*
G75*
G02*
X97577500Y-66600000I-137500J0D01*
G01*
X97302500Y-66600000D01*
G75*
G02*
X97165000Y-66462500I0J137500D01*
G01*
X97165000Y-65137500D01*
G75*
G02*
X97302500Y-65000000I137500J0D01*
G01*
G37*
G36*
G01*
X96032500Y-65000000D02*
X96307500Y-65000000D01*
G75*
G02*
X96445000Y-65137500I0J-137500D01*
G01*
X96445000Y-66462500D01*
G75*
G02*
X96307500Y-66600000I-137500J0D01*
G01*
X96032500Y-66600000D01*
G75*
G02*
X95895000Y-66462500I0J137500D01*
G01*
X95895000Y-65137500D01*
G75*
G02*
X96032500Y-65000000I137500J0D01*
G01*
G37*
G36*
G01*
X96032500Y-58500000D02*
X96307500Y-58500000D01*
G75*
G02*
X96445000Y-58637500I0J-137500D01*
G01*
X96445000Y-59962500D01*
G75*
G02*
X96307500Y-60100000I-137500J0D01*
G01*
X96032500Y-60100000D01*
G75*
G02*
X95895000Y-59962500I0J137500D01*
G01*
X95895000Y-58637500D01*
G75*
G02*
X96032500Y-58500000I137500J0D01*
G01*
G37*
G36*
G01*
X97302500Y-58500000D02*
X97577500Y-58500000D01*
G75*
G02*
X97715000Y-58637500I0J-137500D01*
G01*
X97715000Y-59962500D01*
G75*
G02*
X97577500Y-60100000I-137500J0D01*
G01*
X97302500Y-60100000D01*
G75*
G02*
X97165000Y-59962500I0J137500D01*
G01*
X97165000Y-58637500D01*
G75*
G02*
X97302500Y-58500000I137500J0D01*
G01*
G37*
G36*
G01*
X98572500Y-58500000D02*
X98847500Y-58500000D01*
G75*
G02*
X98985000Y-58637500I0J-137500D01*
G01*
X98985000Y-59962500D01*
G75*
G02*
X98847500Y-60100000I-137500J0D01*
G01*
X98572500Y-60100000D01*
G75*
G02*
X98435000Y-59962500I0J137500D01*
G01*
X98435000Y-58637500D01*
G75*
G02*
X98572500Y-58500000I137500J0D01*
G01*
G37*
G36*
G01*
X99842500Y-58500000D02*
X100117500Y-58500000D01*
G75*
G02*
X100255000Y-58637500I0J-137500D01*
G01*
X100255000Y-59962500D01*
G75*
G02*
X100117500Y-60100000I-137500J0D01*
G01*
X99842500Y-60100000D01*
G75*
G02*
X99705000Y-59962500I0J137500D01*
G01*
X99705000Y-58637500D01*
G75*
G02*
X99842500Y-58500000I137500J0D01*
G01*
G37*
G36*
G01*
X101112500Y-58500000D02*
X101387500Y-58500000D01*
G75*
G02*
X101525000Y-58637500I0J-137500D01*
G01*
X101525000Y-59962500D01*
G75*
G02*
X101387500Y-60100000I-137500J0D01*
G01*
X101112500Y-60100000D01*
G75*
G02*
X100975000Y-59962500I0J137500D01*
G01*
X100975000Y-58637500D01*
G75*
G02*
X101112500Y-58500000I137500J0D01*
G01*
G37*
G36*
G01*
X102382500Y-58500000D02*
X102657500Y-58500000D01*
G75*
G02*
X102795000Y-58637500I0J-137500D01*
G01*
X102795000Y-59962500D01*
G75*
G02*
X102657500Y-60100000I-137500J0D01*
G01*
X102382500Y-60100000D01*
G75*
G02*
X102245000Y-59962500I0J137500D01*
G01*
X102245000Y-58637500D01*
G75*
G02*
X102382500Y-58500000I137500J0D01*
G01*
G37*
G36*
G01*
X103652500Y-58500000D02*
X103927500Y-58500000D01*
G75*
G02*
X104065000Y-58637500I0J-137500D01*
G01*
X104065000Y-59962500D01*
G75*
G02*
X103927500Y-60100000I-137500J0D01*
G01*
X103652500Y-60100000D01*
G75*
G02*
X103515000Y-59962500I0J137500D01*
G01*
X103515000Y-58637500D01*
G75*
G02*
X103652500Y-58500000I137500J0D01*
G01*
G37*
G36*
G01*
X104922500Y-58500000D02*
X105197500Y-58500000D01*
G75*
G02*
X105335000Y-58637500I0J-137500D01*
G01*
X105335000Y-59962500D01*
G75*
G02*
X105197500Y-60100000I-137500J0D01*
G01*
X104922500Y-60100000D01*
G75*
G02*
X104785000Y-59962500I0J137500D01*
G01*
X104785000Y-58637500D01*
G75*
G02*
X104922500Y-58500000I137500J0D01*
G01*
G37*
%TD*%
%TO.C,C22*%
G36*
G01*
X116675000Y-81450000D02*
X115725000Y-81450000D01*
G75*
G02*
X115475000Y-81200000I0J250000D01*
G01*
X115475000Y-80700000D01*
G75*
G02*
X115725000Y-80450000I250000J0D01*
G01*
X116675000Y-80450000D01*
G75*
G02*
X116925000Y-80700000I0J-250000D01*
G01*
X116925000Y-81200000D01*
G75*
G02*
X116675000Y-81450000I-250000J0D01*
G01*
G37*
G36*
G01*
X116675000Y-83350000D02*
X115725000Y-83350000D01*
G75*
G02*
X115475000Y-83100000I0J250000D01*
G01*
X115475000Y-82600000D01*
G75*
G02*
X115725000Y-82350000I250000J0D01*
G01*
X116675000Y-82350000D01*
G75*
G02*
X116925000Y-82600000I0J-250000D01*
G01*
X116925000Y-83100000D01*
G75*
G02*
X116675000Y-83350000I-250000J0D01*
G01*
G37*
%TD*%
D20*
%TO.C,D24*%
X69290000Y-78790000D03*
X72790000Y-78790000D03*
%TD*%
%TO.C,U6*%
G36*
G01*
X83137500Y-65000000D02*
X83412500Y-65000000D01*
G75*
G02*
X83550000Y-65137500I0J-137500D01*
G01*
X83550000Y-66462500D01*
G75*
G02*
X83412500Y-66600000I-137500J0D01*
G01*
X83137500Y-66600000D01*
G75*
G02*
X83000000Y-66462500I0J137500D01*
G01*
X83000000Y-65137500D01*
G75*
G02*
X83137500Y-65000000I137500J0D01*
G01*
G37*
G36*
G01*
X81867500Y-65000000D02*
X82142500Y-65000000D01*
G75*
G02*
X82280000Y-65137500I0J-137500D01*
G01*
X82280000Y-66462500D01*
G75*
G02*
X82142500Y-66600000I-137500J0D01*
G01*
X81867500Y-66600000D01*
G75*
G02*
X81730000Y-66462500I0J137500D01*
G01*
X81730000Y-65137500D01*
G75*
G02*
X81867500Y-65000000I137500J0D01*
G01*
G37*
G36*
G01*
X80597500Y-65000000D02*
X80872500Y-65000000D01*
G75*
G02*
X81010000Y-65137500I0J-137500D01*
G01*
X81010000Y-66462500D01*
G75*
G02*
X80872500Y-66600000I-137500J0D01*
G01*
X80597500Y-66600000D01*
G75*
G02*
X80460000Y-66462500I0J137500D01*
G01*
X80460000Y-65137500D01*
G75*
G02*
X80597500Y-65000000I137500J0D01*
G01*
G37*
G36*
G01*
X79327500Y-65000000D02*
X79602500Y-65000000D01*
G75*
G02*
X79740000Y-65137500I0J-137500D01*
G01*
X79740000Y-66462500D01*
G75*
G02*
X79602500Y-66600000I-137500J0D01*
G01*
X79327500Y-66600000D01*
G75*
G02*
X79190000Y-66462500I0J137500D01*
G01*
X79190000Y-65137500D01*
G75*
G02*
X79327500Y-65000000I137500J0D01*
G01*
G37*
G36*
G01*
X78057500Y-65000000D02*
X78332500Y-65000000D01*
G75*
G02*
X78470000Y-65137500I0J-137500D01*
G01*
X78470000Y-66462500D01*
G75*
G02*
X78332500Y-66600000I-137500J0D01*
G01*
X78057500Y-66600000D01*
G75*
G02*
X77920000Y-66462500I0J137500D01*
G01*
X77920000Y-65137500D01*
G75*
G02*
X78057500Y-65000000I137500J0D01*
G01*
G37*
G36*
G01*
X76787500Y-65000000D02*
X77062500Y-65000000D01*
G75*
G02*
X77200000Y-65137500I0J-137500D01*
G01*
X77200000Y-66462500D01*
G75*
G02*
X77062500Y-66600000I-137500J0D01*
G01*
X76787500Y-66600000D01*
G75*
G02*
X76650000Y-66462500I0J137500D01*
G01*
X76650000Y-65137500D01*
G75*
G02*
X76787500Y-65000000I137500J0D01*
G01*
G37*
G36*
G01*
X75517500Y-65000000D02*
X75792500Y-65000000D01*
G75*
G02*
X75930000Y-65137500I0J-137500D01*
G01*
X75930000Y-66462500D01*
G75*
G02*
X75792500Y-66600000I-137500J0D01*
G01*
X75517500Y-66600000D01*
G75*
G02*
X75380000Y-66462500I0J137500D01*
G01*
X75380000Y-65137500D01*
G75*
G02*
X75517500Y-65000000I137500J0D01*
G01*
G37*
G36*
G01*
X74247500Y-65000000D02*
X74522500Y-65000000D01*
G75*
G02*
X74660000Y-65137500I0J-137500D01*
G01*
X74660000Y-66462500D01*
G75*
G02*
X74522500Y-66600000I-137500J0D01*
G01*
X74247500Y-66600000D01*
G75*
G02*
X74110000Y-66462500I0J137500D01*
G01*
X74110000Y-65137500D01*
G75*
G02*
X74247500Y-65000000I137500J0D01*
G01*
G37*
G36*
G01*
X74247500Y-58500000D02*
X74522500Y-58500000D01*
G75*
G02*
X74660000Y-58637500I0J-137500D01*
G01*
X74660000Y-59962500D01*
G75*
G02*
X74522500Y-60100000I-137500J0D01*
G01*
X74247500Y-60100000D01*
G75*
G02*
X74110000Y-59962500I0J137500D01*
G01*
X74110000Y-58637500D01*
G75*
G02*
X74247500Y-58500000I137500J0D01*
G01*
G37*
G36*
G01*
X75517500Y-58500000D02*
X75792500Y-58500000D01*
G75*
G02*
X75930000Y-58637500I0J-137500D01*
G01*
X75930000Y-59962500D01*
G75*
G02*
X75792500Y-60100000I-137500J0D01*
G01*
X75517500Y-60100000D01*
G75*
G02*
X75380000Y-59962500I0J137500D01*
G01*
X75380000Y-58637500D01*
G75*
G02*
X75517500Y-58500000I137500J0D01*
G01*
G37*
G36*
G01*
X76787500Y-58500000D02*
X77062500Y-58500000D01*
G75*
G02*
X77200000Y-58637500I0J-137500D01*
G01*
X77200000Y-59962500D01*
G75*
G02*
X77062500Y-60100000I-137500J0D01*
G01*
X76787500Y-60100000D01*
G75*
G02*
X76650000Y-59962500I0J137500D01*
G01*
X76650000Y-58637500D01*
G75*
G02*
X76787500Y-58500000I137500J0D01*
G01*
G37*
G36*
G01*
X78057500Y-58500000D02*
X78332500Y-58500000D01*
G75*
G02*
X78470000Y-58637500I0J-137500D01*
G01*
X78470000Y-59962500D01*
G75*
G02*
X78332500Y-60100000I-137500J0D01*
G01*
X78057500Y-60100000D01*
G75*
G02*
X77920000Y-59962500I0J137500D01*
G01*
X77920000Y-58637500D01*
G75*
G02*
X78057500Y-58500000I137500J0D01*
G01*
G37*
G36*
G01*
X79327500Y-58500000D02*
X79602500Y-58500000D01*
G75*
G02*
X79740000Y-58637500I0J-137500D01*
G01*
X79740000Y-59962500D01*
G75*
G02*
X79602500Y-60100000I-137500J0D01*
G01*
X79327500Y-60100000D01*
G75*
G02*
X79190000Y-59962500I0J137500D01*
G01*
X79190000Y-58637500D01*
G75*
G02*
X79327500Y-58500000I137500J0D01*
G01*
G37*
G36*
G01*
X80597500Y-58500000D02*
X80872500Y-58500000D01*
G75*
G02*
X81010000Y-58637500I0J-137500D01*
G01*
X81010000Y-59962500D01*
G75*
G02*
X80872500Y-60100000I-137500J0D01*
G01*
X80597500Y-60100000D01*
G75*
G02*
X80460000Y-59962500I0J137500D01*
G01*
X80460000Y-58637500D01*
G75*
G02*
X80597500Y-58500000I137500J0D01*
G01*
G37*
G36*
G01*
X81867500Y-58500000D02*
X82142500Y-58500000D01*
G75*
G02*
X82280000Y-58637500I0J-137500D01*
G01*
X82280000Y-59962500D01*
G75*
G02*
X82142500Y-60100000I-137500J0D01*
G01*
X81867500Y-60100000D01*
G75*
G02*
X81730000Y-59962500I0J137500D01*
G01*
X81730000Y-58637500D01*
G75*
G02*
X81867500Y-58500000I137500J0D01*
G01*
G37*
G36*
G01*
X83137500Y-58500000D02*
X83412500Y-58500000D01*
G75*
G02*
X83550000Y-58637500I0J-137500D01*
G01*
X83550000Y-59962500D01*
G75*
G02*
X83412500Y-60100000I-137500J0D01*
G01*
X83137500Y-60100000D01*
G75*
G02*
X83000000Y-59962500I0J137500D01*
G01*
X83000000Y-58637500D01*
G75*
G02*
X83137500Y-58500000I137500J0D01*
G01*
G37*
%TD*%
D21*
%TO.C,D6*%
X59450000Y-46300000D03*
X59450000Y-51300000D03*
%TD*%
D22*
%TO.C,BT1*%
X137680000Y-38970000D03*
D23*
X137680000Y-59460000D03*
%TD*%
%TO.C,U5*%
G36*
G01*
X97590000Y-47135000D02*
X97290000Y-47135000D01*
G75*
G02*
X97140000Y-46985000I0J150000D01*
G01*
X97140000Y-45235000D01*
G75*
G02*
X97290000Y-45085000I150000J0D01*
G01*
X97590000Y-45085000D01*
G75*
G02*
X97740000Y-45235000I0J-150000D01*
G01*
X97740000Y-46985000D01*
G75*
G02*
X97590000Y-47135000I-150000J0D01*
G01*
G37*
G36*
G01*
X98860000Y-47135000D02*
X98560000Y-47135000D01*
G75*
G02*
X98410000Y-46985000I0J150000D01*
G01*
X98410000Y-45235000D01*
G75*
G02*
X98560000Y-45085000I150000J0D01*
G01*
X98860000Y-45085000D01*
G75*
G02*
X99010000Y-45235000I0J-150000D01*
G01*
X99010000Y-46985000D01*
G75*
G02*
X98860000Y-47135000I-150000J0D01*
G01*
G37*
G36*
G01*
X100130000Y-47135000D02*
X99830000Y-47135000D01*
G75*
G02*
X99680000Y-46985000I0J150000D01*
G01*
X99680000Y-45235000D01*
G75*
G02*
X99830000Y-45085000I150000J0D01*
G01*
X100130000Y-45085000D01*
G75*
G02*
X100280000Y-45235000I0J-150000D01*
G01*
X100280000Y-46985000D01*
G75*
G02*
X100130000Y-47135000I-150000J0D01*
G01*
G37*
G36*
G01*
X101400000Y-47135000D02*
X101100000Y-47135000D01*
G75*
G02*
X100950000Y-46985000I0J150000D01*
G01*
X100950000Y-45235000D01*
G75*
G02*
X101100000Y-45085000I150000J0D01*
G01*
X101400000Y-45085000D01*
G75*
G02*
X101550000Y-45235000I0J-150000D01*
G01*
X101550000Y-46985000D01*
G75*
G02*
X101400000Y-47135000I-150000J0D01*
G01*
G37*
G36*
G01*
X102670000Y-47135000D02*
X102370000Y-47135000D01*
G75*
G02*
X102220000Y-46985000I0J150000D01*
G01*
X102220000Y-45235000D01*
G75*
G02*
X102370000Y-45085000I150000J0D01*
G01*
X102670000Y-45085000D01*
G75*
G02*
X102820000Y-45235000I0J-150000D01*
G01*
X102820000Y-46985000D01*
G75*
G02*
X102670000Y-47135000I-150000J0D01*
G01*
G37*
G36*
G01*
X103940000Y-47135000D02*
X103640000Y-47135000D01*
G75*
G02*
X103490000Y-46985000I0J150000D01*
G01*
X103490000Y-45235000D01*
G75*
G02*
X103640000Y-45085000I150000J0D01*
G01*
X103940000Y-45085000D01*
G75*
G02*
X104090000Y-45235000I0J-150000D01*
G01*
X104090000Y-46985000D01*
G75*
G02*
X103940000Y-47135000I-150000J0D01*
G01*
G37*
G36*
G01*
X105210000Y-47135000D02*
X104910000Y-47135000D01*
G75*
G02*
X104760000Y-46985000I0J150000D01*
G01*
X104760000Y-45235000D01*
G75*
G02*
X104910000Y-45085000I150000J0D01*
G01*
X105210000Y-45085000D01*
G75*
G02*
X105360000Y-45235000I0J-150000D01*
G01*
X105360000Y-46985000D01*
G75*
G02*
X105210000Y-47135000I-150000J0D01*
G01*
G37*
G36*
G01*
X106480000Y-47135000D02*
X106180000Y-47135000D01*
G75*
G02*
X106030000Y-46985000I0J150000D01*
G01*
X106030000Y-45235000D01*
G75*
G02*
X106180000Y-45085000I150000J0D01*
G01*
X106480000Y-45085000D01*
G75*
G02*
X106630000Y-45235000I0J-150000D01*
G01*
X106630000Y-46985000D01*
G75*
G02*
X106480000Y-47135000I-150000J0D01*
G01*
G37*
G36*
G01*
X107750000Y-47135000D02*
X107450000Y-47135000D01*
G75*
G02*
X107300000Y-46985000I0J150000D01*
G01*
X107300000Y-45235000D01*
G75*
G02*
X107450000Y-45085000I150000J0D01*
G01*
X107750000Y-45085000D01*
G75*
G02*
X107900000Y-45235000I0J-150000D01*
G01*
X107900000Y-46985000D01*
G75*
G02*
X107750000Y-47135000I-150000J0D01*
G01*
G37*
G36*
G01*
X107750000Y-56435000D02*
X107450000Y-56435000D01*
G75*
G02*
X107300000Y-56285000I0J150000D01*
G01*
X107300000Y-54535000D01*
G75*
G02*
X107450000Y-54385000I150000J0D01*
G01*
X107750000Y-54385000D01*
G75*
G02*
X107900000Y-54535000I0J-150000D01*
G01*
X107900000Y-56285000D01*
G75*
G02*
X107750000Y-56435000I-150000J0D01*
G01*
G37*
G36*
G01*
X106480000Y-56435000D02*
X106180000Y-56435000D01*
G75*
G02*
X106030000Y-56285000I0J150000D01*
G01*
X106030000Y-54535000D01*
G75*
G02*
X106180000Y-54385000I150000J0D01*
G01*
X106480000Y-54385000D01*
G75*
G02*
X106630000Y-54535000I0J-150000D01*
G01*
X106630000Y-56285000D01*
G75*
G02*
X106480000Y-56435000I-150000J0D01*
G01*
G37*
G36*
G01*
X105210000Y-56435000D02*
X104910000Y-56435000D01*
G75*
G02*
X104760000Y-56285000I0J150000D01*
G01*
X104760000Y-54535000D01*
G75*
G02*
X104910000Y-54385000I150000J0D01*
G01*
X105210000Y-54385000D01*
G75*
G02*
X105360000Y-54535000I0J-150000D01*
G01*
X105360000Y-56285000D01*
G75*
G02*
X105210000Y-56435000I-150000J0D01*
G01*
G37*
G36*
G01*
X103940000Y-56435000D02*
X103640000Y-56435000D01*
G75*
G02*
X103490000Y-56285000I0J150000D01*
G01*
X103490000Y-54535000D01*
G75*
G02*
X103640000Y-54385000I150000J0D01*
G01*
X103940000Y-54385000D01*
G75*
G02*
X104090000Y-54535000I0J-150000D01*
G01*
X104090000Y-56285000D01*
G75*
G02*
X103940000Y-56435000I-150000J0D01*
G01*
G37*
G36*
G01*
X102670000Y-56435000D02*
X102370000Y-56435000D01*
G75*
G02*
X102220000Y-56285000I0J150000D01*
G01*
X102220000Y-54535000D01*
G75*
G02*
X102370000Y-54385000I150000J0D01*
G01*
X102670000Y-54385000D01*
G75*
G02*
X102820000Y-54535000I0J-150000D01*
G01*
X102820000Y-56285000D01*
G75*
G02*
X102670000Y-56435000I-150000J0D01*
G01*
G37*
G36*
G01*
X101400000Y-56435000D02*
X101100000Y-56435000D01*
G75*
G02*
X100950000Y-56285000I0J150000D01*
G01*
X100950000Y-54535000D01*
G75*
G02*
X101100000Y-54385000I150000J0D01*
G01*
X101400000Y-54385000D01*
G75*
G02*
X101550000Y-54535000I0J-150000D01*
G01*
X101550000Y-56285000D01*
G75*
G02*
X101400000Y-56435000I-150000J0D01*
G01*
G37*
G36*
G01*
X100130000Y-56435000D02*
X99830000Y-56435000D01*
G75*
G02*
X99680000Y-56285000I0J150000D01*
G01*
X99680000Y-54535000D01*
G75*
G02*
X99830000Y-54385000I150000J0D01*
G01*
X100130000Y-54385000D01*
G75*
G02*
X100280000Y-54535000I0J-150000D01*
G01*
X100280000Y-56285000D01*
G75*
G02*
X100130000Y-56435000I-150000J0D01*
G01*
G37*
G36*
G01*
X98860000Y-56435000D02*
X98560000Y-56435000D01*
G75*
G02*
X98410000Y-56285000I0J150000D01*
G01*
X98410000Y-54535000D01*
G75*
G02*
X98560000Y-54385000I150000J0D01*
G01*
X98860000Y-54385000D01*
G75*
G02*
X99010000Y-54535000I0J-150000D01*
G01*
X99010000Y-56285000D01*
G75*
G02*
X98860000Y-56435000I-150000J0D01*
G01*
G37*
G36*
G01*
X97590000Y-56435000D02*
X97290000Y-56435000D01*
G75*
G02*
X97140000Y-56285000I0J150000D01*
G01*
X97140000Y-54535000D01*
G75*
G02*
X97290000Y-54385000I150000J0D01*
G01*
X97590000Y-54385000D01*
G75*
G02*
X97740000Y-54535000I0J-150000D01*
G01*
X97740000Y-56285000D01*
G75*
G02*
X97590000Y-56435000I-150000J0D01*
G01*
G37*
%TD*%
D21*
%TO.C,D25*%
X101040000Y-84880000D03*
X101040000Y-79880000D03*
%TD*%
%TO.C,U11*%
G36*
G01*
X174680000Y-60307500D02*
X174680000Y-60582500D01*
G75*
G02*
X174542500Y-60720000I-137500J0D01*
G01*
X173217500Y-60720000D01*
G75*
G02*
X173080000Y-60582500I0J137500D01*
G01*
X173080000Y-60307500D01*
G75*
G02*
X173217500Y-60170000I137500J0D01*
G01*
X174542500Y-60170000D01*
G75*
G02*
X174680000Y-60307500I0J-137500D01*
G01*
G37*
G36*
G01*
X174680000Y-59037500D02*
X174680000Y-59312500D01*
G75*
G02*
X174542500Y-59450000I-137500J0D01*
G01*
X173217500Y-59450000D01*
G75*
G02*
X173080000Y-59312500I0J137500D01*
G01*
X173080000Y-59037500D01*
G75*
G02*
X173217500Y-58900000I137500J0D01*
G01*
X174542500Y-58900000D01*
G75*
G02*
X174680000Y-59037500I0J-137500D01*
G01*
G37*
G36*
G01*
X174680000Y-57767500D02*
X174680000Y-58042500D01*
G75*
G02*
X174542500Y-58180000I-137500J0D01*
G01*
X173217500Y-58180000D01*
G75*
G02*
X173080000Y-58042500I0J137500D01*
G01*
X173080000Y-57767500D01*
G75*
G02*
X173217500Y-57630000I137500J0D01*
G01*
X174542500Y-57630000D01*
G75*
G02*
X174680000Y-57767500I0J-137500D01*
G01*
G37*
G36*
G01*
X174680000Y-56497500D02*
X174680000Y-56772500D01*
G75*
G02*
X174542500Y-56910000I-137500J0D01*
G01*
X173217500Y-56910000D01*
G75*
G02*
X173080000Y-56772500I0J137500D01*
G01*
X173080000Y-56497500D01*
G75*
G02*
X173217500Y-56360000I137500J0D01*
G01*
X174542500Y-56360000D01*
G75*
G02*
X174680000Y-56497500I0J-137500D01*
G01*
G37*
G36*
G01*
X174680000Y-55227500D02*
X174680000Y-55502500D01*
G75*
G02*
X174542500Y-55640000I-137500J0D01*
G01*
X173217500Y-55640000D01*
G75*
G02*
X173080000Y-55502500I0J137500D01*
G01*
X173080000Y-55227500D01*
G75*
G02*
X173217500Y-55090000I137500J0D01*
G01*
X174542500Y-55090000D01*
G75*
G02*
X174680000Y-55227500I0J-137500D01*
G01*
G37*
G36*
G01*
X174680000Y-53957500D02*
X174680000Y-54232500D01*
G75*
G02*
X174542500Y-54370000I-137500J0D01*
G01*
X173217500Y-54370000D01*
G75*
G02*
X173080000Y-54232500I0J137500D01*
G01*
X173080000Y-53957500D01*
G75*
G02*
X173217500Y-53820000I137500J0D01*
G01*
X174542500Y-53820000D01*
G75*
G02*
X174680000Y-53957500I0J-137500D01*
G01*
G37*
G36*
G01*
X174680000Y-52687500D02*
X174680000Y-52962500D01*
G75*
G02*
X174542500Y-53100000I-137500J0D01*
G01*
X173217500Y-53100000D01*
G75*
G02*
X173080000Y-52962500I0J137500D01*
G01*
X173080000Y-52687500D01*
G75*
G02*
X173217500Y-52550000I137500J0D01*
G01*
X174542500Y-52550000D01*
G75*
G02*
X174680000Y-52687500I0J-137500D01*
G01*
G37*
G36*
G01*
X174680000Y-51417500D02*
X174680000Y-51692500D01*
G75*
G02*
X174542500Y-51830000I-137500J0D01*
G01*
X173217500Y-51830000D01*
G75*
G02*
X173080000Y-51692500I0J137500D01*
G01*
X173080000Y-51417500D01*
G75*
G02*
X173217500Y-51280000I137500J0D01*
G01*
X174542500Y-51280000D01*
G75*
G02*
X174680000Y-51417500I0J-137500D01*
G01*
G37*
G36*
G01*
X181180000Y-51417500D02*
X181180000Y-51692500D01*
G75*
G02*
X181042500Y-51830000I-137500J0D01*
G01*
X179717500Y-51830000D01*
G75*
G02*
X179580000Y-51692500I0J137500D01*
G01*
X179580000Y-51417500D01*
G75*
G02*
X179717500Y-51280000I137500J0D01*
G01*
X181042500Y-51280000D01*
G75*
G02*
X181180000Y-51417500I0J-137500D01*
G01*
G37*
G36*
G01*
X181180000Y-52687500D02*
X181180000Y-52962500D01*
G75*
G02*
X181042500Y-53100000I-137500J0D01*
G01*
X179717500Y-53100000D01*
G75*
G02*
X179580000Y-52962500I0J137500D01*
G01*
X179580000Y-52687500D01*
G75*
G02*
X179717500Y-52550000I137500J0D01*
G01*
X181042500Y-52550000D01*
G75*
G02*
X181180000Y-52687500I0J-137500D01*
G01*
G37*
G36*
G01*
X181180000Y-53957500D02*
X181180000Y-54232500D01*
G75*
G02*
X181042500Y-54370000I-137500J0D01*
G01*
X179717500Y-54370000D01*
G75*
G02*
X179580000Y-54232500I0J137500D01*
G01*
X179580000Y-53957500D01*
G75*
G02*
X179717500Y-53820000I137500J0D01*
G01*
X181042500Y-53820000D01*
G75*
G02*
X181180000Y-53957500I0J-137500D01*
G01*
G37*
G36*
G01*
X181180000Y-55227500D02*
X181180000Y-55502500D01*
G75*
G02*
X181042500Y-55640000I-137500J0D01*
G01*
X179717500Y-55640000D01*
G75*
G02*
X179580000Y-55502500I0J137500D01*
G01*
X179580000Y-55227500D01*
G75*
G02*
X179717500Y-55090000I137500J0D01*
G01*
X181042500Y-55090000D01*
G75*
G02*
X181180000Y-55227500I0J-137500D01*
G01*
G37*
G36*
G01*
X181180000Y-56497500D02*
X181180000Y-56772500D01*
G75*
G02*
X181042500Y-56910000I-137500J0D01*
G01*
X179717500Y-56910000D01*
G75*
G02*
X179580000Y-56772500I0J137500D01*
G01*
X179580000Y-56497500D01*
G75*
G02*
X179717500Y-56360000I137500J0D01*
G01*
X181042500Y-56360000D01*
G75*
G02*
X181180000Y-56497500I0J-137500D01*
G01*
G37*
G36*
G01*
X181180000Y-57767500D02*
X181180000Y-58042500D01*
G75*
G02*
X181042500Y-58180000I-137500J0D01*
G01*
X179717500Y-58180000D01*
G75*
G02*
X179580000Y-58042500I0J137500D01*
G01*
X179580000Y-57767500D01*
G75*
G02*
X179717500Y-57630000I137500J0D01*
G01*
X181042500Y-57630000D01*
G75*
G02*
X181180000Y-57767500I0J-137500D01*
G01*
G37*
G36*
G01*
X181180000Y-59037500D02*
X181180000Y-59312500D01*
G75*
G02*
X181042500Y-59450000I-137500J0D01*
G01*
X179717500Y-59450000D01*
G75*
G02*
X179580000Y-59312500I0J137500D01*
G01*
X179580000Y-59037500D01*
G75*
G02*
X179717500Y-58900000I137500J0D01*
G01*
X181042500Y-58900000D01*
G75*
G02*
X181180000Y-59037500I0J-137500D01*
G01*
G37*
G36*
G01*
X181180000Y-60307500D02*
X181180000Y-60582500D01*
G75*
G02*
X181042500Y-60720000I-137500J0D01*
G01*
X179717500Y-60720000D01*
G75*
G02*
X179580000Y-60582500I0J137500D01*
G01*
X179580000Y-60307500D01*
G75*
G02*
X179717500Y-60170000I137500J0D01*
G01*
X181042500Y-60170000D01*
G75*
G02*
X181180000Y-60307500I0J-137500D01*
G01*
G37*
%TD*%
%TO.C,C18*%
G36*
G01*
X87160000Y-83750000D02*
X87160000Y-83410000D01*
G75*
G02*
X87300000Y-83270000I140000J0D01*
G01*
X87580000Y-83270000D01*
G75*
G02*
X87720000Y-83410000I0J-140000D01*
G01*
X87720000Y-83750000D01*
G75*
G02*
X87580000Y-83890000I-140000J0D01*
G01*
X87300000Y-83890000D01*
G75*
G02*
X87160000Y-83750000I0J140000D01*
G01*
G37*
G36*
G01*
X88120000Y-83750000D02*
X88120000Y-83410000D01*
G75*
G02*
X88260000Y-83270000I140000J0D01*
G01*
X88540000Y-83270000D01*
G75*
G02*
X88680000Y-83410000I0J-140000D01*
G01*
X88680000Y-83750000D01*
G75*
G02*
X88540000Y-83890000I-140000J0D01*
G01*
X88260000Y-83890000D01*
G75*
G02*
X88120000Y-83750000I0J140000D01*
G01*
G37*
%TD*%
%TO.C,U8*%
G36*
G01*
X70797500Y-65000000D02*
X71072500Y-65000000D01*
G75*
G02*
X71210000Y-65137500I0J-137500D01*
G01*
X71210000Y-66462500D01*
G75*
G02*
X71072500Y-66600000I-137500J0D01*
G01*
X70797500Y-66600000D01*
G75*
G02*
X70660000Y-66462500I0J137500D01*
G01*
X70660000Y-65137500D01*
G75*
G02*
X70797500Y-65000000I137500J0D01*
G01*
G37*
G36*
G01*
X69527500Y-65000000D02*
X69802500Y-65000000D01*
G75*
G02*
X69940000Y-65137500I0J-137500D01*
G01*
X69940000Y-66462500D01*
G75*
G02*
X69802500Y-66600000I-137500J0D01*
G01*
X69527500Y-66600000D01*
G75*
G02*
X69390000Y-66462500I0J137500D01*
G01*
X69390000Y-65137500D01*
G75*
G02*
X69527500Y-65000000I137500J0D01*
G01*
G37*
G36*
G01*
X68257500Y-65000000D02*
X68532500Y-65000000D01*
G75*
G02*
X68670000Y-65137500I0J-137500D01*
G01*
X68670000Y-66462500D01*
G75*
G02*
X68532500Y-66600000I-137500J0D01*
G01*
X68257500Y-66600000D01*
G75*
G02*
X68120000Y-66462500I0J137500D01*
G01*
X68120000Y-65137500D01*
G75*
G02*
X68257500Y-65000000I137500J0D01*
G01*
G37*
G36*
G01*
X66987500Y-65000000D02*
X67262500Y-65000000D01*
G75*
G02*
X67400000Y-65137500I0J-137500D01*
G01*
X67400000Y-66462500D01*
G75*
G02*
X67262500Y-66600000I-137500J0D01*
G01*
X66987500Y-66600000D01*
G75*
G02*
X66850000Y-66462500I0J137500D01*
G01*
X66850000Y-65137500D01*
G75*
G02*
X66987500Y-65000000I137500J0D01*
G01*
G37*
G36*
G01*
X65717500Y-65000000D02*
X65992500Y-65000000D01*
G75*
G02*
X66130000Y-65137500I0J-137500D01*
G01*
X66130000Y-66462500D01*
G75*
G02*
X65992500Y-66600000I-137500J0D01*
G01*
X65717500Y-66600000D01*
G75*
G02*
X65580000Y-66462500I0J137500D01*
G01*
X65580000Y-65137500D01*
G75*
G02*
X65717500Y-65000000I137500J0D01*
G01*
G37*
G36*
G01*
X64447500Y-65000000D02*
X64722500Y-65000000D01*
G75*
G02*
X64860000Y-65137500I0J-137500D01*
G01*
X64860000Y-66462500D01*
G75*
G02*
X64722500Y-66600000I-137500J0D01*
G01*
X64447500Y-66600000D01*
G75*
G02*
X64310000Y-66462500I0J137500D01*
G01*
X64310000Y-65137500D01*
G75*
G02*
X64447500Y-65000000I137500J0D01*
G01*
G37*
G36*
G01*
X63177500Y-65000000D02*
X63452500Y-65000000D01*
G75*
G02*
X63590000Y-65137500I0J-137500D01*
G01*
X63590000Y-66462500D01*
G75*
G02*
X63452500Y-66600000I-137500J0D01*
G01*
X63177500Y-66600000D01*
G75*
G02*
X63040000Y-66462500I0J137500D01*
G01*
X63040000Y-65137500D01*
G75*
G02*
X63177500Y-65000000I137500J0D01*
G01*
G37*
G36*
G01*
X61907500Y-65000000D02*
X62182500Y-65000000D01*
G75*
G02*
X62320000Y-65137500I0J-137500D01*
G01*
X62320000Y-66462500D01*
G75*
G02*
X62182500Y-66600000I-137500J0D01*
G01*
X61907500Y-66600000D01*
G75*
G02*
X61770000Y-66462500I0J137500D01*
G01*
X61770000Y-65137500D01*
G75*
G02*
X61907500Y-65000000I137500J0D01*
G01*
G37*
G36*
G01*
X61907500Y-58500000D02*
X62182500Y-58500000D01*
G75*
G02*
X62320000Y-58637500I0J-137500D01*
G01*
X62320000Y-59962500D01*
G75*
G02*
X62182500Y-60100000I-137500J0D01*
G01*
X61907500Y-60100000D01*
G75*
G02*
X61770000Y-59962500I0J137500D01*
G01*
X61770000Y-58637500D01*
G75*
G02*
X61907500Y-58500000I137500J0D01*
G01*
G37*
G36*
G01*
X63177500Y-58500000D02*
X63452500Y-58500000D01*
G75*
G02*
X63590000Y-58637500I0J-137500D01*
G01*
X63590000Y-59962500D01*
G75*
G02*
X63452500Y-60100000I-137500J0D01*
G01*
X63177500Y-60100000D01*
G75*
G02*
X63040000Y-59962500I0J137500D01*
G01*
X63040000Y-58637500D01*
G75*
G02*
X63177500Y-58500000I137500J0D01*
G01*
G37*
G36*
G01*
X64447500Y-58500000D02*
X64722500Y-58500000D01*
G75*
G02*
X64860000Y-58637500I0J-137500D01*
G01*
X64860000Y-59962500D01*
G75*
G02*
X64722500Y-60100000I-137500J0D01*
G01*
X64447500Y-60100000D01*
G75*
G02*
X64310000Y-59962500I0J137500D01*
G01*
X64310000Y-58637500D01*
G75*
G02*
X64447500Y-58500000I137500J0D01*
G01*
G37*
G36*
G01*
X65717500Y-58500000D02*
X65992500Y-58500000D01*
G75*
G02*
X66130000Y-58637500I0J-137500D01*
G01*
X66130000Y-59962500D01*
G75*
G02*
X65992500Y-60100000I-137500J0D01*
G01*
X65717500Y-60100000D01*
G75*
G02*
X65580000Y-59962500I0J137500D01*
G01*
X65580000Y-58637500D01*
G75*
G02*
X65717500Y-58500000I137500J0D01*
G01*
G37*
G36*
G01*
X66987500Y-58500000D02*
X67262500Y-58500000D01*
G75*
G02*
X67400000Y-58637500I0J-137500D01*
G01*
X67400000Y-59962500D01*
G75*
G02*
X67262500Y-60100000I-137500J0D01*
G01*
X66987500Y-60100000D01*
G75*
G02*
X66850000Y-59962500I0J137500D01*
G01*
X66850000Y-58637500D01*
G75*
G02*
X66987500Y-58500000I137500J0D01*
G01*
G37*
G36*
G01*
X68257500Y-58500000D02*
X68532500Y-58500000D01*
G75*
G02*
X68670000Y-58637500I0J-137500D01*
G01*
X68670000Y-59962500D01*
G75*
G02*
X68532500Y-60100000I-137500J0D01*
G01*
X68257500Y-60100000D01*
G75*
G02*
X68120000Y-59962500I0J137500D01*
G01*
X68120000Y-58637500D01*
G75*
G02*
X68257500Y-58500000I137500J0D01*
G01*
G37*
G36*
G01*
X69527500Y-58500000D02*
X69802500Y-58500000D01*
G75*
G02*
X69940000Y-58637500I0J-137500D01*
G01*
X69940000Y-59962500D01*
G75*
G02*
X69802500Y-60100000I-137500J0D01*
G01*
X69527500Y-60100000D01*
G75*
G02*
X69390000Y-59962500I0J137500D01*
G01*
X69390000Y-58637500D01*
G75*
G02*
X69527500Y-58500000I137500J0D01*
G01*
G37*
G36*
G01*
X70797500Y-58500000D02*
X71072500Y-58500000D01*
G75*
G02*
X71210000Y-58637500I0J-137500D01*
G01*
X71210000Y-59962500D01*
G75*
G02*
X71072500Y-60100000I-137500J0D01*
G01*
X70797500Y-60100000D01*
G75*
G02*
X70660000Y-59962500I0J137500D01*
G01*
X70660000Y-58637500D01*
G75*
G02*
X70797500Y-58500000I137500J0D01*
G01*
G37*
%TD*%
%TO.C,U2*%
G36*
G01*
X117202500Y-65000000D02*
X117477500Y-65000000D01*
G75*
G02*
X117615000Y-65137500I0J-137500D01*
G01*
X117615000Y-66462500D01*
G75*
G02*
X117477500Y-66600000I-137500J0D01*
G01*
X117202500Y-66600000D01*
G75*
G02*
X117065000Y-66462500I0J137500D01*
G01*
X117065000Y-65137500D01*
G75*
G02*
X117202500Y-65000000I137500J0D01*
G01*
G37*
G36*
G01*
X115932500Y-65000000D02*
X116207500Y-65000000D01*
G75*
G02*
X116345000Y-65137500I0J-137500D01*
G01*
X116345000Y-66462500D01*
G75*
G02*
X116207500Y-66600000I-137500J0D01*
G01*
X115932500Y-66600000D01*
G75*
G02*
X115795000Y-66462500I0J137500D01*
G01*
X115795000Y-65137500D01*
G75*
G02*
X115932500Y-65000000I137500J0D01*
G01*
G37*
G36*
G01*
X114662500Y-65000000D02*
X114937500Y-65000000D01*
G75*
G02*
X115075000Y-65137500I0J-137500D01*
G01*
X115075000Y-66462500D01*
G75*
G02*
X114937500Y-66600000I-137500J0D01*
G01*
X114662500Y-66600000D01*
G75*
G02*
X114525000Y-66462500I0J137500D01*
G01*
X114525000Y-65137500D01*
G75*
G02*
X114662500Y-65000000I137500J0D01*
G01*
G37*
G36*
G01*
X113392500Y-65000000D02*
X113667500Y-65000000D01*
G75*
G02*
X113805000Y-65137500I0J-137500D01*
G01*
X113805000Y-66462500D01*
G75*
G02*
X113667500Y-66600000I-137500J0D01*
G01*
X113392500Y-66600000D01*
G75*
G02*
X113255000Y-66462500I0J137500D01*
G01*
X113255000Y-65137500D01*
G75*
G02*
X113392500Y-65000000I137500J0D01*
G01*
G37*
G36*
G01*
X112122500Y-65000000D02*
X112397500Y-65000000D01*
G75*
G02*
X112535000Y-65137500I0J-137500D01*
G01*
X112535000Y-66462500D01*
G75*
G02*
X112397500Y-66600000I-137500J0D01*
G01*
X112122500Y-66600000D01*
G75*
G02*
X111985000Y-66462500I0J137500D01*
G01*
X111985000Y-65137500D01*
G75*
G02*
X112122500Y-65000000I137500J0D01*
G01*
G37*
G36*
G01*
X110852500Y-65000000D02*
X111127500Y-65000000D01*
G75*
G02*
X111265000Y-65137500I0J-137500D01*
G01*
X111265000Y-66462500D01*
G75*
G02*
X111127500Y-66600000I-137500J0D01*
G01*
X110852500Y-66600000D01*
G75*
G02*
X110715000Y-66462500I0J137500D01*
G01*
X110715000Y-65137500D01*
G75*
G02*
X110852500Y-65000000I137500J0D01*
G01*
G37*
G36*
G01*
X109582500Y-65000000D02*
X109857500Y-65000000D01*
G75*
G02*
X109995000Y-65137500I0J-137500D01*
G01*
X109995000Y-66462500D01*
G75*
G02*
X109857500Y-66600000I-137500J0D01*
G01*
X109582500Y-66600000D01*
G75*
G02*
X109445000Y-66462500I0J137500D01*
G01*
X109445000Y-65137500D01*
G75*
G02*
X109582500Y-65000000I137500J0D01*
G01*
G37*
G36*
G01*
X108312500Y-65000000D02*
X108587500Y-65000000D01*
G75*
G02*
X108725000Y-65137500I0J-137500D01*
G01*
X108725000Y-66462500D01*
G75*
G02*
X108587500Y-66600000I-137500J0D01*
G01*
X108312500Y-66600000D01*
G75*
G02*
X108175000Y-66462500I0J137500D01*
G01*
X108175000Y-65137500D01*
G75*
G02*
X108312500Y-65000000I137500J0D01*
G01*
G37*
G36*
G01*
X108312500Y-58500000D02*
X108587500Y-58500000D01*
G75*
G02*
X108725000Y-58637500I0J-137500D01*
G01*
X108725000Y-59962500D01*
G75*
G02*
X108587500Y-60100000I-137500J0D01*
G01*
X108312500Y-60100000D01*
G75*
G02*
X108175000Y-59962500I0J137500D01*
G01*
X108175000Y-58637500D01*
G75*
G02*
X108312500Y-58500000I137500J0D01*
G01*
G37*
G36*
G01*
X109582500Y-58500000D02*
X109857500Y-58500000D01*
G75*
G02*
X109995000Y-58637500I0J-137500D01*
G01*
X109995000Y-59962500D01*
G75*
G02*
X109857500Y-60100000I-137500J0D01*
G01*
X109582500Y-60100000D01*
G75*
G02*
X109445000Y-59962500I0J137500D01*
G01*
X109445000Y-58637500D01*
G75*
G02*
X109582500Y-58500000I137500J0D01*
G01*
G37*
G36*
G01*
X110852500Y-58500000D02*
X111127500Y-58500000D01*
G75*
G02*
X111265000Y-58637500I0J-137500D01*
G01*
X111265000Y-59962500D01*
G75*
G02*
X111127500Y-60100000I-137500J0D01*
G01*
X110852500Y-60100000D01*
G75*
G02*
X110715000Y-59962500I0J137500D01*
G01*
X110715000Y-58637500D01*
G75*
G02*
X110852500Y-58500000I137500J0D01*
G01*
G37*
G36*
G01*
X112122500Y-58500000D02*
X112397500Y-58500000D01*
G75*
G02*
X112535000Y-58637500I0J-137500D01*
G01*
X112535000Y-59962500D01*
G75*
G02*
X112397500Y-60100000I-137500J0D01*
G01*
X112122500Y-60100000D01*
G75*
G02*
X111985000Y-59962500I0J137500D01*
G01*
X111985000Y-58637500D01*
G75*
G02*
X112122500Y-58500000I137500J0D01*
G01*
G37*
G36*
G01*
X113392500Y-58500000D02*
X113667500Y-58500000D01*
G75*
G02*
X113805000Y-58637500I0J-137500D01*
G01*
X113805000Y-59962500D01*
G75*
G02*
X113667500Y-60100000I-137500J0D01*
G01*
X113392500Y-60100000D01*
G75*
G02*
X113255000Y-59962500I0J137500D01*
G01*
X113255000Y-58637500D01*
G75*
G02*
X113392500Y-58500000I137500J0D01*
G01*
G37*
G36*
G01*
X114662500Y-58500000D02*
X114937500Y-58500000D01*
G75*
G02*
X115075000Y-58637500I0J-137500D01*
G01*
X115075000Y-59962500D01*
G75*
G02*
X114937500Y-60100000I-137500J0D01*
G01*
X114662500Y-60100000D01*
G75*
G02*
X114525000Y-59962500I0J137500D01*
G01*
X114525000Y-58637500D01*
G75*
G02*
X114662500Y-58500000I137500J0D01*
G01*
G37*
G36*
G01*
X115932500Y-58500000D02*
X116207500Y-58500000D01*
G75*
G02*
X116345000Y-58637500I0J-137500D01*
G01*
X116345000Y-59962500D01*
G75*
G02*
X116207500Y-60100000I-137500J0D01*
G01*
X115932500Y-60100000D01*
G75*
G02*
X115795000Y-59962500I0J137500D01*
G01*
X115795000Y-58637500D01*
G75*
G02*
X115932500Y-58500000I137500J0D01*
G01*
G37*
G36*
G01*
X117202500Y-58500000D02*
X117477500Y-58500000D01*
G75*
G02*
X117615000Y-58637500I0J-137500D01*
G01*
X117615000Y-59962500D01*
G75*
G02*
X117477500Y-60100000I-137500J0D01*
G01*
X117202500Y-60100000D01*
G75*
G02*
X117065000Y-59962500I0J137500D01*
G01*
X117065000Y-58637500D01*
G75*
G02*
X117202500Y-58500000I137500J0D01*
G01*
G37*
%TD*%
%TO.C,D7*%
X93650000Y-46440000D03*
X93650000Y-51440000D03*
%TD*%
%TO.C,U12*%
G36*
G01*
X184850000Y-60307500D02*
X184850000Y-60582500D01*
G75*
G02*
X184712500Y-60720000I-137500J0D01*
G01*
X183387500Y-60720000D01*
G75*
G02*
X183250000Y-60582500I0J137500D01*
G01*
X183250000Y-60307500D01*
G75*
G02*
X183387500Y-60170000I137500J0D01*
G01*
X184712500Y-60170000D01*
G75*
G02*
X184850000Y-60307500I0J-137500D01*
G01*
G37*
G36*
G01*
X184850000Y-59037500D02*
X184850000Y-59312500D01*
G75*
G02*
X184712500Y-59450000I-137500J0D01*
G01*
X183387500Y-59450000D01*
G75*
G02*
X183250000Y-59312500I0J137500D01*
G01*
X183250000Y-59037500D01*
G75*
G02*
X183387500Y-58900000I137500J0D01*
G01*
X184712500Y-58900000D01*
G75*
G02*
X184850000Y-59037500I0J-137500D01*
G01*
G37*
G36*
G01*
X184850000Y-57767500D02*
X184850000Y-58042500D01*
G75*
G02*
X184712500Y-58180000I-137500J0D01*
G01*
X183387500Y-58180000D01*
G75*
G02*
X183250000Y-58042500I0J137500D01*
G01*
X183250000Y-57767500D01*
G75*
G02*
X183387500Y-57630000I137500J0D01*
G01*
X184712500Y-57630000D01*
G75*
G02*
X184850000Y-57767500I0J-137500D01*
G01*
G37*
G36*
G01*
X184850000Y-56497500D02*
X184850000Y-56772500D01*
G75*
G02*
X184712500Y-56910000I-137500J0D01*
G01*
X183387500Y-56910000D01*
G75*
G02*
X183250000Y-56772500I0J137500D01*
G01*
X183250000Y-56497500D01*
G75*
G02*
X183387500Y-56360000I137500J0D01*
G01*
X184712500Y-56360000D01*
G75*
G02*
X184850000Y-56497500I0J-137500D01*
G01*
G37*
G36*
G01*
X184850000Y-55227500D02*
X184850000Y-55502500D01*
G75*
G02*
X184712500Y-55640000I-137500J0D01*
G01*
X183387500Y-55640000D01*
G75*
G02*
X183250000Y-55502500I0J137500D01*
G01*
X183250000Y-55227500D01*
G75*
G02*
X183387500Y-55090000I137500J0D01*
G01*
X184712500Y-55090000D01*
G75*
G02*
X184850000Y-55227500I0J-137500D01*
G01*
G37*
G36*
G01*
X184850000Y-53957500D02*
X184850000Y-54232500D01*
G75*
G02*
X184712500Y-54370000I-137500J0D01*
G01*
X183387500Y-54370000D01*
G75*
G02*
X183250000Y-54232500I0J137500D01*
G01*
X183250000Y-53957500D01*
G75*
G02*
X183387500Y-53820000I137500J0D01*
G01*
X184712500Y-53820000D01*
G75*
G02*
X184850000Y-53957500I0J-137500D01*
G01*
G37*
G36*
G01*
X184850000Y-52687500D02*
X184850000Y-52962500D01*
G75*
G02*
X184712500Y-53100000I-137500J0D01*
G01*
X183387500Y-53100000D01*
G75*
G02*
X183250000Y-52962500I0J137500D01*
G01*
X183250000Y-52687500D01*
G75*
G02*
X183387500Y-52550000I137500J0D01*
G01*
X184712500Y-52550000D01*
G75*
G02*
X184850000Y-52687500I0J-137500D01*
G01*
G37*
G36*
G01*
X184850000Y-51417500D02*
X184850000Y-51692500D01*
G75*
G02*
X184712500Y-51830000I-137500J0D01*
G01*
X183387500Y-51830000D01*
G75*
G02*
X183250000Y-51692500I0J137500D01*
G01*
X183250000Y-51417500D01*
G75*
G02*
X183387500Y-51280000I137500J0D01*
G01*
X184712500Y-51280000D01*
G75*
G02*
X184850000Y-51417500I0J-137500D01*
G01*
G37*
G36*
G01*
X191350000Y-51417500D02*
X191350000Y-51692500D01*
G75*
G02*
X191212500Y-51830000I-137500J0D01*
G01*
X189887500Y-51830000D01*
G75*
G02*
X189750000Y-51692500I0J137500D01*
G01*
X189750000Y-51417500D01*
G75*
G02*
X189887500Y-51280000I137500J0D01*
G01*
X191212500Y-51280000D01*
G75*
G02*
X191350000Y-51417500I0J-137500D01*
G01*
G37*
G36*
G01*
X191350000Y-52687500D02*
X191350000Y-52962500D01*
G75*
G02*
X191212500Y-53100000I-137500J0D01*
G01*
X189887500Y-53100000D01*
G75*
G02*
X189750000Y-52962500I0J137500D01*
G01*
X189750000Y-52687500D01*
G75*
G02*
X189887500Y-52550000I137500J0D01*
G01*
X191212500Y-52550000D01*
G75*
G02*
X191350000Y-52687500I0J-137500D01*
G01*
G37*
G36*
G01*
X191350000Y-53957500D02*
X191350000Y-54232500D01*
G75*
G02*
X191212500Y-54370000I-137500J0D01*
G01*
X189887500Y-54370000D01*
G75*
G02*
X189750000Y-54232500I0J137500D01*
G01*
X189750000Y-53957500D01*
G75*
G02*
X189887500Y-53820000I137500J0D01*
G01*
X191212500Y-53820000D01*
G75*
G02*
X191350000Y-53957500I0J-137500D01*
G01*
G37*
G36*
G01*
X191350000Y-55227500D02*
X191350000Y-55502500D01*
G75*
G02*
X191212500Y-55640000I-137500J0D01*
G01*
X189887500Y-55640000D01*
G75*
G02*
X189750000Y-55502500I0J137500D01*
G01*
X189750000Y-55227500D01*
G75*
G02*
X189887500Y-55090000I137500J0D01*
G01*
X191212500Y-55090000D01*
G75*
G02*
X191350000Y-55227500I0J-137500D01*
G01*
G37*
G36*
G01*
X191350000Y-56497500D02*
X191350000Y-56772500D01*
G75*
G02*
X191212500Y-56910000I-137500J0D01*
G01*
X189887500Y-56910000D01*
G75*
G02*
X189750000Y-56772500I0J137500D01*
G01*
X189750000Y-56497500D01*
G75*
G02*
X189887500Y-56360000I137500J0D01*
G01*
X191212500Y-56360000D01*
G75*
G02*
X191350000Y-56497500I0J-137500D01*
G01*
G37*
G36*
G01*
X191350000Y-57767500D02*
X191350000Y-58042500D01*
G75*
G02*
X191212500Y-58180000I-137500J0D01*
G01*
X189887500Y-58180000D01*
G75*
G02*
X189750000Y-58042500I0J137500D01*
G01*
X189750000Y-57767500D01*
G75*
G02*
X189887500Y-57630000I137500J0D01*
G01*
X191212500Y-57630000D01*
G75*
G02*
X191350000Y-57767500I0J-137500D01*
G01*
G37*
G36*
G01*
X191350000Y-59037500D02*
X191350000Y-59312500D01*
G75*
G02*
X191212500Y-59450000I-137500J0D01*
G01*
X189887500Y-59450000D01*
G75*
G02*
X189750000Y-59312500I0J137500D01*
G01*
X189750000Y-59037500D01*
G75*
G02*
X189887500Y-58900000I137500J0D01*
G01*
X191212500Y-58900000D01*
G75*
G02*
X191350000Y-59037500I0J-137500D01*
G01*
G37*
G36*
G01*
X191350000Y-60307500D02*
X191350000Y-60582500D01*
G75*
G02*
X191212500Y-60720000I-137500J0D01*
G01*
X189887500Y-60720000D01*
G75*
G02*
X189750000Y-60582500I0J137500D01*
G01*
X189750000Y-60307500D01*
G75*
G02*
X189887500Y-60170000I137500J0D01*
G01*
X191212500Y-60170000D01*
G75*
G02*
X191350000Y-60307500I0J-137500D01*
G01*
G37*
%TD*%
%TO.C,F1*%
G36*
G01*
X65360001Y-82225000D02*
X62459999Y-82225000D01*
G75*
G02*
X62210000Y-81975001I0J249999D01*
G01*
X62210000Y-81174999D01*
G75*
G02*
X62459999Y-80925000I249999J0D01*
G01*
X65360001Y-80925000D01*
G75*
G02*
X65610000Y-81174999I0J-249999D01*
G01*
X65610000Y-81975001D01*
G75*
G02*
X65360001Y-82225000I-249999J0D01*
G01*
G37*
G36*
G01*
X65360001Y-77775000D02*
X62459999Y-77775000D01*
G75*
G02*
X62210000Y-77525001I0J249999D01*
G01*
X62210000Y-76724999D01*
G75*
G02*
X62459999Y-76475000I249999J0D01*
G01*
X65360001Y-76475000D01*
G75*
G02*
X65610000Y-76724999I0J-249999D01*
G01*
X65610000Y-77525001D01*
G75*
G02*
X65360001Y-77775000I-249999J0D01*
G01*
G37*
%TD*%
%TO.C,C19*%
G36*
G01*
X80060000Y-82580000D02*
X79110000Y-82580000D01*
G75*
G02*
X78860000Y-82330000I0J250000D01*
G01*
X78860000Y-81830000D01*
G75*
G02*
X79110000Y-81580000I250000J0D01*
G01*
X80060000Y-81580000D01*
G75*
G02*
X80310000Y-81830000I0J-250000D01*
G01*
X80310000Y-82330000D01*
G75*
G02*
X80060000Y-82580000I-250000J0D01*
G01*
G37*
G36*
G01*
X80060000Y-80680000D02*
X79110000Y-80680000D01*
G75*
G02*
X78860000Y-80430000I0J250000D01*
G01*
X78860000Y-79930000D01*
G75*
G02*
X79110000Y-79680000I250000J0D01*
G01*
X80060000Y-79680000D01*
G75*
G02*
X80310000Y-79930000I0J-250000D01*
G01*
X80310000Y-80430000D01*
G75*
G02*
X80060000Y-80680000I-250000J0D01*
G01*
G37*
%TD*%
%TO.C,U3*%
G36*
G01*
X109870000Y-47135000D02*
X109570000Y-47135000D01*
G75*
G02*
X109420000Y-46985000I0J150000D01*
G01*
X109420000Y-45235000D01*
G75*
G02*
X109570000Y-45085000I150000J0D01*
G01*
X109870000Y-45085000D01*
G75*
G02*
X110020000Y-45235000I0J-150000D01*
G01*
X110020000Y-46985000D01*
G75*
G02*
X109870000Y-47135000I-150000J0D01*
G01*
G37*
G36*
G01*
X111140000Y-47135000D02*
X110840000Y-47135000D01*
G75*
G02*
X110690000Y-46985000I0J150000D01*
G01*
X110690000Y-45235000D01*
G75*
G02*
X110840000Y-45085000I150000J0D01*
G01*
X111140000Y-45085000D01*
G75*
G02*
X111290000Y-45235000I0J-150000D01*
G01*
X111290000Y-46985000D01*
G75*
G02*
X111140000Y-47135000I-150000J0D01*
G01*
G37*
G36*
G01*
X112410000Y-47135000D02*
X112110000Y-47135000D01*
G75*
G02*
X111960000Y-46985000I0J150000D01*
G01*
X111960000Y-45235000D01*
G75*
G02*
X112110000Y-45085000I150000J0D01*
G01*
X112410000Y-45085000D01*
G75*
G02*
X112560000Y-45235000I0J-150000D01*
G01*
X112560000Y-46985000D01*
G75*
G02*
X112410000Y-47135000I-150000J0D01*
G01*
G37*
G36*
G01*
X113680000Y-47135000D02*
X113380000Y-47135000D01*
G75*
G02*
X113230000Y-46985000I0J150000D01*
G01*
X113230000Y-45235000D01*
G75*
G02*
X113380000Y-45085000I150000J0D01*
G01*
X113680000Y-45085000D01*
G75*
G02*
X113830000Y-45235000I0J-150000D01*
G01*
X113830000Y-46985000D01*
G75*
G02*
X113680000Y-47135000I-150000J0D01*
G01*
G37*
G36*
G01*
X114950000Y-47135000D02*
X114650000Y-47135000D01*
G75*
G02*
X114500000Y-46985000I0J150000D01*
G01*
X114500000Y-45235000D01*
G75*
G02*
X114650000Y-45085000I150000J0D01*
G01*
X114950000Y-45085000D01*
G75*
G02*
X115100000Y-45235000I0J-150000D01*
G01*
X115100000Y-46985000D01*
G75*
G02*
X114950000Y-47135000I-150000J0D01*
G01*
G37*
G36*
G01*
X116220000Y-47135000D02*
X115920000Y-47135000D01*
G75*
G02*
X115770000Y-46985000I0J150000D01*
G01*
X115770000Y-45235000D01*
G75*
G02*
X115920000Y-45085000I150000J0D01*
G01*
X116220000Y-45085000D01*
G75*
G02*
X116370000Y-45235000I0J-150000D01*
G01*
X116370000Y-46985000D01*
G75*
G02*
X116220000Y-47135000I-150000J0D01*
G01*
G37*
G36*
G01*
X117490000Y-47135000D02*
X117190000Y-47135000D01*
G75*
G02*
X117040000Y-46985000I0J150000D01*
G01*
X117040000Y-45235000D01*
G75*
G02*
X117190000Y-45085000I150000J0D01*
G01*
X117490000Y-45085000D01*
G75*
G02*
X117640000Y-45235000I0J-150000D01*
G01*
X117640000Y-46985000D01*
G75*
G02*
X117490000Y-47135000I-150000J0D01*
G01*
G37*
G36*
G01*
X118760000Y-47135000D02*
X118460000Y-47135000D01*
G75*
G02*
X118310000Y-46985000I0J150000D01*
G01*
X118310000Y-45235000D01*
G75*
G02*
X118460000Y-45085000I150000J0D01*
G01*
X118760000Y-45085000D01*
G75*
G02*
X118910000Y-45235000I0J-150000D01*
G01*
X118910000Y-46985000D01*
G75*
G02*
X118760000Y-47135000I-150000J0D01*
G01*
G37*
G36*
G01*
X120030000Y-47135000D02*
X119730000Y-47135000D01*
G75*
G02*
X119580000Y-46985000I0J150000D01*
G01*
X119580000Y-45235000D01*
G75*
G02*
X119730000Y-45085000I150000J0D01*
G01*
X120030000Y-45085000D01*
G75*
G02*
X120180000Y-45235000I0J-150000D01*
G01*
X120180000Y-46985000D01*
G75*
G02*
X120030000Y-47135000I-150000J0D01*
G01*
G37*
G36*
G01*
X120030000Y-56435000D02*
X119730000Y-56435000D01*
G75*
G02*
X119580000Y-56285000I0J150000D01*
G01*
X119580000Y-54535000D01*
G75*
G02*
X119730000Y-54385000I150000J0D01*
G01*
X120030000Y-54385000D01*
G75*
G02*
X120180000Y-54535000I0J-150000D01*
G01*
X120180000Y-56285000D01*
G75*
G02*
X120030000Y-56435000I-150000J0D01*
G01*
G37*
G36*
G01*
X118760000Y-56435000D02*
X118460000Y-56435000D01*
G75*
G02*
X118310000Y-56285000I0J150000D01*
G01*
X118310000Y-54535000D01*
G75*
G02*
X118460000Y-54385000I150000J0D01*
G01*
X118760000Y-54385000D01*
G75*
G02*
X118910000Y-54535000I0J-150000D01*
G01*
X118910000Y-56285000D01*
G75*
G02*
X118760000Y-56435000I-150000J0D01*
G01*
G37*
G36*
G01*
X117490000Y-56435000D02*
X117190000Y-56435000D01*
G75*
G02*
X117040000Y-56285000I0J150000D01*
G01*
X117040000Y-54535000D01*
G75*
G02*
X117190000Y-54385000I150000J0D01*
G01*
X117490000Y-54385000D01*
G75*
G02*
X117640000Y-54535000I0J-150000D01*
G01*
X117640000Y-56285000D01*
G75*
G02*
X117490000Y-56435000I-150000J0D01*
G01*
G37*
G36*
G01*
X116220000Y-56435000D02*
X115920000Y-56435000D01*
G75*
G02*
X115770000Y-56285000I0J150000D01*
G01*
X115770000Y-54535000D01*
G75*
G02*
X115920000Y-54385000I150000J0D01*
G01*
X116220000Y-54385000D01*
G75*
G02*
X116370000Y-54535000I0J-150000D01*
G01*
X116370000Y-56285000D01*
G75*
G02*
X116220000Y-56435000I-150000J0D01*
G01*
G37*
G36*
G01*
X114950000Y-56435000D02*
X114650000Y-56435000D01*
G75*
G02*
X114500000Y-56285000I0J150000D01*
G01*
X114500000Y-54535000D01*
G75*
G02*
X114650000Y-54385000I150000J0D01*
G01*
X114950000Y-54385000D01*
G75*
G02*
X115100000Y-54535000I0J-150000D01*
G01*
X115100000Y-56285000D01*
G75*
G02*
X114950000Y-56435000I-150000J0D01*
G01*
G37*
G36*
G01*
X113680000Y-56435000D02*
X113380000Y-56435000D01*
G75*
G02*
X113230000Y-56285000I0J150000D01*
G01*
X113230000Y-54535000D01*
G75*
G02*
X113380000Y-54385000I150000J0D01*
G01*
X113680000Y-54385000D01*
G75*
G02*
X113830000Y-54535000I0J-150000D01*
G01*
X113830000Y-56285000D01*
G75*
G02*
X113680000Y-56435000I-150000J0D01*
G01*
G37*
G36*
G01*
X112410000Y-56435000D02*
X112110000Y-56435000D01*
G75*
G02*
X111960000Y-56285000I0J150000D01*
G01*
X111960000Y-54535000D01*
G75*
G02*
X112110000Y-54385000I150000J0D01*
G01*
X112410000Y-54385000D01*
G75*
G02*
X112560000Y-54535000I0J-150000D01*
G01*
X112560000Y-56285000D01*
G75*
G02*
X112410000Y-56435000I-150000J0D01*
G01*
G37*
G36*
G01*
X111140000Y-56435000D02*
X110840000Y-56435000D01*
G75*
G02*
X110690000Y-56285000I0J150000D01*
G01*
X110690000Y-54535000D01*
G75*
G02*
X110840000Y-54385000I150000J0D01*
G01*
X111140000Y-54385000D01*
G75*
G02*
X111290000Y-54535000I0J-150000D01*
G01*
X111290000Y-56285000D01*
G75*
G02*
X111140000Y-56435000I-150000J0D01*
G01*
G37*
G36*
G01*
X109870000Y-56435000D02*
X109570000Y-56435000D01*
G75*
G02*
X109420000Y-56285000I0J150000D01*
G01*
X109420000Y-54535000D01*
G75*
G02*
X109570000Y-54385000I150000J0D01*
G01*
X109870000Y-54385000D01*
G75*
G02*
X110020000Y-54535000I0J-150000D01*
G01*
X110020000Y-56285000D01*
G75*
G02*
X109870000Y-56435000I-150000J0D01*
G01*
G37*
%TD*%
%TO.C,U7*%
G36*
G01*
X75790000Y-47135000D02*
X75490000Y-47135000D01*
G75*
G02*
X75340000Y-46985000I0J150000D01*
G01*
X75340000Y-45235000D01*
G75*
G02*
X75490000Y-45085000I150000J0D01*
G01*
X75790000Y-45085000D01*
G75*
G02*
X75940000Y-45235000I0J-150000D01*
G01*
X75940000Y-46985000D01*
G75*
G02*
X75790000Y-47135000I-150000J0D01*
G01*
G37*
G36*
G01*
X77060000Y-47135000D02*
X76760000Y-47135000D01*
G75*
G02*
X76610000Y-46985000I0J150000D01*
G01*
X76610000Y-45235000D01*
G75*
G02*
X76760000Y-45085000I150000J0D01*
G01*
X77060000Y-45085000D01*
G75*
G02*
X77210000Y-45235000I0J-150000D01*
G01*
X77210000Y-46985000D01*
G75*
G02*
X77060000Y-47135000I-150000J0D01*
G01*
G37*
G36*
G01*
X78330000Y-47135000D02*
X78030000Y-47135000D01*
G75*
G02*
X77880000Y-46985000I0J150000D01*
G01*
X77880000Y-45235000D01*
G75*
G02*
X78030000Y-45085000I150000J0D01*
G01*
X78330000Y-45085000D01*
G75*
G02*
X78480000Y-45235000I0J-150000D01*
G01*
X78480000Y-46985000D01*
G75*
G02*
X78330000Y-47135000I-150000J0D01*
G01*
G37*
G36*
G01*
X79600000Y-47135000D02*
X79300000Y-47135000D01*
G75*
G02*
X79150000Y-46985000I0J150000D01*
G01*
X79150000Y-45235000D01*
G75*
G02*
X79300000Y-45085000I150000J0D01*
G01*
X79600000Y-45085000D01*
G75*
G02*
X79750000Y-45235000I0J-150000D01*
G01*
X79750000Y-46985000D01*
G75*
G02*
X79600000Y-47135000I-150000J0D01*
G01*
G37*
G36*
G01*
X80870000Y-47135000D02*
X80570000Y-47135000D01*
G75*
G02*
X80420000Y-46985000I0J150000D01*
G01*
X80420000Y-45235000D01*
G75*
G02*
X80570000Y-45085000I150000J0D01*
G01*
X80870000Y-45085000D01*
G75*
G02*
X81020000Y-45235000I0J-150000D01*
G01*
X81020000Y-46985000D01*
G75*
G02*
X80870000Y-47135000I-150000J0D01*
G01*
G37*
G36*
G01*
X82140000Y-47135000D02*
X81840000Y-47135000D01*
G75*
G02*
X81690000Y-46985000I0J150000D01*
G01*
X81690000Y-45235000D01*
G75*
G02*
X81840000Y-45085000I150000J0D01*
G01*
X82140000Y-45085000D01*
G75*
G02*
X82290000Y-45235000I0J-150000D01*
G01*
X82290000Y-46985000D01*
G75*
G02*
X82140000Y-47135000I-150000J0D01*
G01*
G37*
G36*
G01*
X83410000Y-47135000D02*
X83110000Y-47135000D01*
G75*
G02*
X82960000Y-46985000I0J150000D01*
G01*
X82960000Y-45235000D01*
G75*
G02*
X83110000Y-45085000I150000J0D01*
G01*
X83410000Y-45085000D01*
G75*
G02*
X83560000Y-45235000I0J-150000D01*
G01*
X83560000Y-46985000D01*
G75*
G02*
X83410000Y-47135000I-150000J0D01*
G01*
G37*
G36*
G01*
X84680000Y-47135000D02*
X84380000Y-47135000D01*
G75*
G02*
X84230000Y-46985000I0J150000D01*
G01*
X84230000Y-45235000D01*
G75*
G02*
X84380000Y-45085000I150000J0D01*
G01*
X84680000Y-45085000D01*
G75*
G02*
X84830000Y-45235000I0J-150000D01*
G01*
X84830000Y-46985000D01*
G75*
G02*
X84680000Y-47135000I-150000J0D01*
G01*
G37*
G36*
G01*
X85950000Y-47135000D02*
X85650000Y-47135000D01*
G75*
G02*
X85500000Y-46985000I0J150000D01*
G01*
X85500000Y-45235000D01*
G75*
G02*
X85650000Y-45085000I150000J0D01*
G01*
X85950000Y-45085000D01*
G75*
G02*
X86100000Y-45235000I0J-150000D01*
G01*
X86100000Y-46985000D01*
G75*
G02*
X85950000Y-47135000I-150000J0D01*
G01*
G37*
G36*
G01*
X85950000Y-56435000D02*
X85650000Y-56435000D01*
G75*
G02*
X85500000Y-56285000I0J150000D01*
G01*
X85500000Y-54535000D01*
G75*
G02*
X85650000Y-54385000I150000J0D01*
G01*
X85950000Y-54385000D01*
G75*
G02*
X86100000Y-54535000I0J-150000D01*
G01*
X86100000Y-56285000D01*
G75*
G02*
X85950000Y-56435000I-150000J0D01*
G01*
G37*
G36*
G01*
X84680000Y-56435000D02*
X84380000Y-56435000D01*
G75*
G02*
X84230000Y-56285000I0J150000D01*
G01*
X84230000Y-54535000D01*
G75*
G02*
X84380000Y-54385000I150000J0D01*
G01*
X84680000Y-54385000D01*
G75*
G02*
X84830000Y-54535000I0J-150000D01*
G01*
X84830000Y-56285000D01*
G75*
G02*
X84680000Y-56435000I-150000J0D01*
G01*
G37*
G36*
G01*
X83410000Y-56435000D02*
X83110000Y-56435000D01*
G75*
G02*
X82960000Y-56285000I0J150000D01*
G01*
X82960000Y-54535000D01*
G75*
G02*
X83110000Y-54385000I150000J0D01*
G01*
X83410000Y-54385000D01*
G75*
G02*
X83560000Y-54535000I0J-150000D01*
G01*
X83560000Y-56285000D01*
G75*
G02*
X83410000Y-56435000I-150000J0D01*
G01*
G37*
G36*
G01*
X82140000Y-56435000D02*
X81840000Y-56435000D01*
G75*
G02*
X81690000Y-56285000I0J150000D01*
G01*
X81690000Y-54535000D01*
G75*
G02*
X81840000Y-54385000I150000J0D01*
G01*
X82140000Y-54385000D01*
G75*
G02*
X82290000Y-54535000I0J-150000D01*
G01*
X82290000Y-56285000D01*
G75*
G02*
X82140000Y-56435000I-150000J0D01*
G01*
G37*
G36*
G01*
X80870000Y-56435000D02*
X80570000Y-56435000D01*
G75*
G02*
X80420000Y-56285000I0J150000D01*
G01*
X80420000Y-54535000D01*
G75*
G02*
X80570000Y-54385000I150000J0D01*
G01*
X80870000Y-54385000D01*
G75*
G02*
X81020000Y-54535000I0J-150000D01*
G01*
X81020000Y-56285000D01*
G75*
G02*
X80870000Y-56435000I-150000J0D01*
G01*
G37*
G36*
G01*
X79600000Y-56435000D02*
X79300000Y-56435000D01*
G75*
G02*
X79150000Y-56285000I0J150000D01*
G01*
X79150000Y-54535000D01*
G75*
G02*
X79300000Y-54385000I150000J0D01*
G01*
X79600000Y-54385000D01*
G75*
G02*
X79750000Y-54535000I0J-150000D01*
G01*
X79750000Y-56285000D01*
G75*
G02*
X79600000Y-56435000I-150000J0D01*
G01*
G37*
G36*
G01*
X78330000Y-56435000D02*
X78030000Y-56435000D01*
G75*
G02*
X77880000Y-56285000I0J150000D01*
G01*
X77880000Y-54535000D01*
G75*
G02*
X78030000Y-54385000I150000J0D01*
G01*
X78330000Y-54385000D01*
G75*
G02*
X78480000Y-54535000I0J-150000D01*
G01*
X78480000Y-56285000D01*
G75*
G02*
X78330000Y-56435000I-150000J0D01*
G01*
G37*
G36*
G01*
X77060000Y-56435000D02*
X76760000Y-56435000D01*
G75*
G02*
X76610000Y-56285000I0J150000D01*
G01*
X76610000Y-54535000D01*
G75*
G02*
X76760000Y-54385000I150000J0D01*
G01*
X77060000Y-54385000D01*
G75*
G02*
X77210000Y-54535000I0J-150000D01*
G01*
X77210000Y-56285000D01*
G75*
G02*
X77060000Y-56435000I-150000J0D01*
G01*
G37*
G36*
G01*
X75790000Y-56435000D02*
X75490000Y-56435000D01*
G75*
G02*
X75340000Y-56285000I0J150000D01*
G01*
X75340000Y-54535000D01*
G75*
G02*
X75490000Y-54385000I150000J0D01*
G01*
X75790000Y-54385000D01*
G75*
G02*
X75940000Y-54535000I0J-150000D01*
G01*
X75940000Y-56285000D01*
G75*
G02*
X75790000Y-56435000I-150000J0D01*
G01*
G37*
%TD*%
D24*
%TO.C,PS1*%
X88420000Y-82040000D03*
X88420000Y-81090000D03*
X88420000Y-80140000D03*
X85820000Y-80140000D03*
X85820000Y-81090000D03*
X85820000Y-82040000D03*
%TD*%
%TO.C,U9*%
G36*
G01*
X63460000Y-47135000D02*
X63160000Y-47135000D01*
G75*
G02*
X63010000Y-46985000I0J150000D01*
G01*
X63010000Y-45235000D01*
G75*
G02*
X63160000Y-45085000I150000J0D01*
G01*
X63460000Y-45085000D01*
G75*
G02*
X63610000Y-45235000I0J-150000D01*
G01*
X63610000Y-46985000D01*
G75*
G02*
X63460000Y-47135000I-150000J0D01*
G01*
G37*
G36*
G01*
X64730000Y-47135000D02*
X64430000Y-47135000D01*
G75*
G02*
X64280000Y-46985000I0J150000D01*
G01*
X64280000Y-45235000D01*
G75*
G02*
X64430000Y-45085000I150000J0D01*
G01*
X64730000Y-45085000D01*
G75*
G02*
X64880000Y-45235000I0J-150000D01*
G01*
X64880000Y-46985000D01*
G75*
G02*
X64730000Y-47135000I-150000J0D01*
G01*
G37*
G36*
G01*
X66000000Y-47135000D02*
X65700000Y-47135000D01*
G75*
G02*
X65550000Y-46985000I0J150000D01*
G01*
X65550000Y-45235000D01*
G75*
G02*
X65700000Y-45085000I150000J0D01*
G01*
X66000000Y-45085000D01*
G75*
G02*
X66150000Y-45235000I0J-150000D01*
G01*
X66150000Y-46985000D01*
G75*
G02*
X66000000Y-47135000I-150000J0D01*
G01*
G37*
G36*
G01*
X67270000Y-47135000D02*
X66970000Y-47135000D01*
G75*
G02*
X66820000Y-46985000I0J150000D01*
G01*
X66820000Y-45235000D01*
G75*
G02*
X66970000Y-45085000I150000J0D01*
G01*
X67270000Y-45085000D01*
G75*
G02*
X67420000Y-45235000I0J-150000D01*
G01*
X67420000Y-46985000D01*
G75*
G02*
X67270000Y-47135000I-150000J0D01*
G01*
G37*
G36*
G01*
X68540000Y-47135000D02*
X68240000Y-47135000D01*
G75*
G02*
X68090000Y-46985000I0J150000D01*
G01*
X68090000Y-45235000D01*
G75*
G02*
X68240000Y-45085000I150000J0D01*
G01*
X68540000Y-45085000D01*
G75*
G02*
X68690000Y-45235000I0J-150000D01*
G01*
X68690000Y-46985000D01*
G75*
G02*
X68540000Y-47135000I-150000J0D01*
G01*
G37*
G36*
G01*
X69810000Y-47135000D02*
X69510000Y-47135000D01*
G75*
G02*
X69360000Y-46985000I0J150000D01*
G01*
X69360000Y-45235000D01*
G75*
G02*
X69510000Y-45085000I150000J0D01*
G01*
X69810000Y-45085000D01*
G75*
G02*
X69960000Y-45235000I0J-150000D01*
G01*
X69960000Y-46985000D01*
G75*
G02*
X69810000Y-47135000I-150000J0D01*
G01*
G37*
G36*
G01*
X71080000Y-47135000D02*
X70780000Y-47135000D01*
G75*
G02*
X70630000Y-46985000I0J150000D01*
G01*
X70630000Y-45235000D01*
G75*
G02*
X70780000Y-45085000I150000J0D01*
G01*
X71080000Y-45085000D01*
G75*
G02*
X71230000Y-45235000I0J-150000D01*
G01*
X71230000Y-46985000D01*
G75*
G02*
X71080000Y-47135000I-150000J0D01*
G01*
G37*
G36*
G01*
X72350000Y-47135000D02*
X72050000Y-47135000D01*
G75*
G02*
X71900000Y-46985000I0J150000D01*
G01*
X71900000Y-45235000D01*
G75*
G02*
X72050000Y-45085000I150000J0D01*
G01*
X72350000Y-45085000D01*
G75*
G02*
X72500000Y-45235000I0J-150000D01*
G01*
X72500000Y-46985000D01*
G75*
G02*
X72350000Y-47135000I-150000J0D01*
G01*
G37*
G36*
G01*
X73620000Y-47135000D02*
X73320000Y-47135000D01*
G75*
G02*
X73170000Y-46985000I0J150000D01*
G01*
X73170000Y-45235000D01*
G75*
G02*
X73320000Y-45085000I150000J0D01*
G01*
X73620000Y-45085000D01*
G75*
G02*
X73770000Y-45235000I0J-150000D01*
G01*
X73770000Y-46985000D01*
G75*
G02*
X73620000Y-47135000I-150000J0D01*
G01*
G37*
G36*
G01*
X73620000Y-56435000D02*
X73320000Y-56435000D01*
G75*
G02*
X73170000Y-56285000I0J150000D01*
G01*
X73170000Y-54535000D01*
G75*
G02*
X73320000Y-54385000I150000J0D01*
G01*
X73620000Y-54385000D01*
G75*
G02*
X73770000Y-54535000I0J-150000D01*
G01*
X73770000Y-56285000D01*
G75*
G02*
X73620000Y-56435000I-150000J0D01*
G01*
G37*
G36*
G01*
X72350000Y-56435000D02*
X72050000Y-56435000D01*
G75*
G02*
X71900000Y-56285000I0J150000D01*
G01*
X71900000Y-54535000D01*
G75*
G02*
X72050000Y-54385000I150000J0D01*
G01*
X72350000Y-54385000D01*
G75*
G02*
X72500000Y-54535000I0J-150000D01*
G01*
X72500000Y-56285000D01*
G75*
G02*
X72350000Y-56435000I-150000J0D01*
G01*
G37*
G36*
G01*
X71080000Y-56435000D02*
X70780000Y-56435000D01*
G75*
G02*
X70630000Y-56285000I0J150000D01*
G01*
X70630000Y-54535000D01*
G75*
G02*
X70780000Y-54385000I150000J0D01*
G01*
X71080000Y-54385000D01*
G75*
G02*
X71230000Y-54535000I0J-150000D01*
G01*
X71230000Y-56285000D01*
G75*
G02*
X71080000Y-56435000I-150000J0D01*
G01*
G37*
G36*
G01*
X69810000Y-56435000D02*
X69510000Y-56435000D01*
G75*
G02*
X69360000Y-56285000I0J150000D01*
G01*
X69360000Y-54535000D01*
G75*
G02*
X69510000Y-54385000I150000J0D01*
G01*
X69810000Y-54385000D01*
G75*
G02*
X69960000Y-54535000I0J-150000D01*
G01*
X69960000Y-56285000D01*
G75*
G02*
X69810000Y-56435000I-150000J0D01*
G01*
G37*
G36*
G01*
X68540000Y-56435000D02*
X68240000Y-56435000D01*
G75*
G02*
X68090000Y-56285000I0J150000D01*
G01*
X68090000Y-54535000D01*
G75*
G02*
X68240000Y-54385000I150000J0D01*
G01*
X68540000Y-54385000D01*
G75*
G02*
X68690000Y-54535000I0J-150000D01*
G01*
X68690000Y-56285000D01*
G75*
G02*
X68540000Y-56435000I-150000J0D01*
G01*
G37*
G36*
G01*
X67270000Y-56435000D02*
X66970000Y-56435000D01*
G75*
G02*
X66820000Y-56285000I0J150000D01*
G01*
X66820000Y-54535000D01*
G75*
G02*
X66970000Y-54385000I150000J0D01*
G01*
X67270000Y-54385000D01*
G75*
G02*
X67420000Y-54535000I0J-150000D01*
G01*
X67420000Y-56285000D01*
G75*
G02*
X67270000Y-56435000I-150000J0D01*
G01*
G37*
G36*
G01*
X66000000Y-56435000D02*
X65700000Y-56435000D01*
G75*
G02*
X65550000Y-56285000I0J150000D01*
G01*
X65550000Y-54535000D01*
G75*
G02*
X65700000Y-54385000I150000J0D01*
G01*
X66000000Y-54385000D01*
G75*
G02*
X66150000Y-54535000I0J-150000D01*
G01*
X66150000Y-56285000D01*
G75*
G02*
X66000000Y-56435000I-150000J0D01*
G01*
G37*
G36*
G01*
X64730000Y-56435000D02*
X64430000Y-56435000D01*
G75*
G02*
X64280000Y-56285000I0J150000D01*
G01*
X64280000Y-54535000D01*
G75*
G02*
X64430000Y-54385000I150000J0D01*
G01*
X64730000Y-54385000D01*
G75*
G02*
X64880000Y-54535000I0J-150000D01*
G01*
X64880000Y-56285000D01*
G75*
G02*
X64730000Y-56435000I-150000J0D01*
G01*
G37*
G36*
G01*
X63460000Y-56435000D02*
X63160000Y-56435000D01*
G75*
G02*
X63010000Y-56285000I0J150000D01*
G01*
X63010000Y-54535000D01*
G75*
G02*
X63160000Y-54385000I150000J0D01*
G01*
X63460000Y-54385000D01*
G75*
G02*
X63610000Y-54535000I0J-150000D01*
G01*
X63610000Y-56285000D01*
G75*
G02*
X63460000Y-56435000I-150000J0D01*
G01*
G37*
%TD*%
%TO.C,U13*%
G36*
G01*
X195020000Y-60307500D02*
X195020000Y-60582500D01*
G75*
G02*
X194882500Y-60720000I-137500J0D01*
G01*
X193557500Y-60720000D01*
G75*
G02*
X193420000Y-60582500I0J137500D01*
G01*
X193420000Y-60307500D01*
G75*
G02*
X193557500Y-60170000I137500J0D01*
G01*
X194882500Y-60170000D01*
G75*
G02*
X195020000Y-60307500I0J-137500D01*
G01*
G37*
G36*
G01*
X195020000Y-59037500D02*
X195020000Y-59312500D01*
G75*
G02*
X194882500Y-59450000I-137500J0D01*
G01*
X193557500Y-59450000D01*
G75*
G02*
X193420000Y-59312500I0J137500D01*
G01*
X193420000Y-59037500D01*
G75*
G02*
X193557500Y-58900000I137500J0D01*
G01*
X194882500Y-58900000D01*
G75*
G02*
X195020000Y-59037500I0J-137500D01*
G01*
G37*
G36*
G01*
X195020000Y-57767500D02*
X195020000Y-58042500D01*
G75*
G02*
X194882500Y-58180000I-137500J0D01*
G01*
X193557500Y-58180000D01*
G75*
G02*
X193420000Y-58042500I0J137500D01*
G01*
X193420000Y-57767500D01*
G75*
G02*
X193557500Y-57630000I137500J0D01*
G01*
X194882500Y-57630000D01*
G75*
G02*
X195020000Y-57767500I0J-137500D01*
G01*
G37*
G36*
G01*
X195020000Y-56497500D02*
X195020000Y-56772500D01*
G75*
G02*
X194882500Y-56910000I-137500J0D01*
G01*
X193557500Y-56910000D01*
G75*
G02*
X193420000Y-56772500I0J137500D01*
G01*
X193420000Y-56497500D01*
G75*
G02*
X193557500Y-56360000I137500J0D01*
G01*
X194882500Y-56360000D01*
G75*
G02*
X195020000Y-56497500I0J-137500D01*
G01*
G37*
G36*
G01*
X195020000Y-55227500D02*
X195020000Y-55502500D01*
G75*
G02*
X194882500Y-55640000I-137500J0D01*
G01*
X193557500Y-55640000D01*
G75*
G02*
X193420000Y-55502500I0J137500D01*
G01*
X193420000Y-55227500D01*
G75*
G02*
X193557500Y-55090000I137500J0D01*
G01*
X194882500Y-55090000D01*
G75*
G02*
X195020000Y-55227500I0J-137500D01*
G01*
G37*
G36*
G01*
X195020000Y-53957500D02*
X195020000Y-54232500D01*
G75*
G02*
X194882500Y-54370000I-137500J0D01*
G01*
X193557500Y-54370000D01*
G75*
G02*
X193420000Y-54232500I0J137500D01*
G01*
X193420000Y-53957500D01*
G75*
G02*
X193557500Y-53820000I137500J0D01*
G01*
X194882500Y-53820000D01*
G75*
G02*
X195020000Y-53957500I0J-137500D01*
G01*
G37*
G36*
G01*
X195020000Y-52687500D02*
X195020000Y-52962500D01*
G75*
G02*
X194882500Y-53100000I-137500J0D01*
G01*
X193557500Y-53100000D01*
G75*
G02*
X193420000Y-52962500I0J137500D01*
G01*
X193420000Y-52687500D01*
G75*
G02*
X193557500Y-52550000I137500J0D01*
G01*
X194882500Y-52550000D01*
G75*
G02*
X195020000Y-52687500I0J-137500D01*
G01*
G37*
G36*
G01*
X195020000Y-51417500D02*
X195020000Y-51692500D01*
G75*
G02*
X194882500Y-51830000I-137500J0D01*
G01*
X193557500Y-51830000D01*
G75*
G02*
X193420000Y-51692500I0J137500D01*
G01*
X193420000Y-51417500D01*
G75*
G02*
X193557500Y-51280000I137500J0D01*
G01*
X194882500Y-51280000D01*
G75*
G02*
X195020000Y-51417500I0J-137500D01*
G01*
G37*
G36*
G01*
X201520000Y-51417500D02*
X201520000Y-51692500D01*
G75*
G02*
X201382500Y-51830000I-137500J0D01*
G01*
X200057500Y-51830000D01*
G75*
G02*
X199920000Y-51692500I0J137500D01*
G01*
X199920000Y-51417500D01*
G75*
G02*
X200057500Y-51280000I137500J0D01*
G01*
X201382500Y-51280000D01*
G75*
G02*
X201520000Y-51417500I0J-137500D01*
G01*
G37*
G36*
G01*
X201520000Y-52687500D02*
X201520000Y-52962500D01*
G75*
G02*
X201382500Y-53100000I-137500J0D01*
G01*
X200057500Y-53100000D01*
G75*
G02*
X199920000Y-52962500I0J137500D01*
G01*
X199920000Y-52687500D01*
G75*
G02*
X200057500Y-52550000I137500J0D01*
G01*
X201382500Y-52550000D01*
G75*
G02*
X201520000Y-52687500I0J-137500D01*
G01*
G37*
G36*
G01*
X201520000Y-53957500D02*
X201520000Y-54232500D01*
G75*
G02*
X201382500Y-54370000I-137500J0D01*
G01*
X200057500Y-54370000D01*
G75*
G02*
X199920000Y-54232500I0J137500D01*
G01*
X199920000Y-53957500D01*
G75*
G02*
X200057500Y-53820000I137500J0D01*
G01*
X201382500Y-53820000D01*
G75*
G02*
X201520000Y-53957500I0J-137500D01*
G01*
G37*
G36*
G01*
X201520000Y-55227500D02*
X201520000Y-55502500D01*
G75*
G02*
X201382500Y-55640000I-137500J0D01*
G01*
X200057500Y-55640000D01*
G75*
G02*
X199920000Y-55502500I0J137500D01*
G01*
X199920000Y-55227500D01*
G75*
G02*
X200057500Y-55090000I137500J0D01*
G01*
X201382500Y-55090000D01*
G75*
G02*
X201520000Y-55227500I0J-137500D01*
G01*
G37*
G36*
G01*
X201520000Y-56497500D02*
X201520000Y-56772500D01*
G75*
G02*
X201382500Y-56910000I-137500J0D01*
G01*
X200057500Y-56910000D01*
G75*
G02*
X199920000Y-56772500I0J137500D01*
G01*
X199920000Y-56497500D01*
G75*
G02*
X200057500Y-56360000I137500J0D01*
G01*
X201382500Y-56360000D01*
G75*
G02*
X201520000Y-56497500I0J-137500D01*
G01*
G37*
G36*
G01*
X201520000Y-57767500D02*
X201520000Y-58042500D01*
G75*
G02*
X201382500Y-58180000I-137500J0D01*
G01*
X200057500Y-58180000D01*
G75*
G02*
X199920000Y-58042500I0J137500D01*
G01*
X199920000Y-57767500D01*
G75*
G02*
X200057500Y-57630000I137500J0D01*
G01*
X201382500Y-57630000D01*
G75*
G02*
X201520000Y-57767500I0J-137500D01*
G01*
G37*
G36*
G01*
X201520000Y-59037500D02*
X201520000Y-59312500D01*
G75*
G02*
X201382500Y-59450000I-137500J0D01*
G01*
X200057500Y-59450000D01*
G75*
G02*
X199920000Y-59312500I0J137500D01*
G01*
X199920000Y-59037500D01*
G75*
G02*
X200057500Y-58900000I137500J0D01*
G01*
X201382500Y-58900000D01*
G75*
G02*
X201520000Y-59037500I0J-137500D01*
G01*
G37*
G36*
G01*
X201520000Y-60307500D02*
X201520000Y-60582500D01*
G75*
G02*
X201382500Y-60720000I-137500J0D01*
G01*
X200057500Y-60720000D01*
G75*
G02*
X199920000Y-60582500I0J137500D01*
G01*
X199920000Y-60307500D01*
G75*
G02*
X200057500Y-60170000I137500J0D01*
G01*
X201382500Y-60170000D01*
G75*
G02*
X201520000Y-60307500I0J-137500D01*
G01*
G37*
%TD*%
%TO.C,U10*%
G36*
G01*
X164510000Y-60307500D02*
X164510000Y-60582500D01*
G75*
G02*
X164372500Y-60720000I-137500J0D01*
G01*
X163047500Y-60720000D01*
G75*
G02*
X162910000Y-60582500I0J137500D01*
G01*
X162910000Y-60307500D01*
G75*
G02*
X163047500Y-60170000I137500J0D01*
G01*
X164372500Y-60170000D01*
G75*
G02*
X164510000Y-60307500I0J-137500D01*
G01*
G37*
G36*
G01*
X164510000Y-59037500D02*
X164510000Y-59312500D01*
G75*
G02*
X164372500Y-59450000I-137500J0D01*
G01*
X163047500Y-59450000D01*
G75*
G02*
X162910000Y-59312500I0J137500D01*
G01*
X162910000Y-59037500D01*
G75*
G02*
X163047500Y-58900000I137500J0D01*
G01*
X164372500Y-58900000D01*
G75*
G02*
X164510000Y-59037500I0J-137500D01*
G01*
G37*
G36*
G01*
X164510000Y-57767500D02*
X164510000Y-58042500D01*
G75*
G02*
X164372500Y-58180000I-137500J0D01*
G01*
X163047500Y-58180000D01*
G75*
G02*
X162910000Y-58042500I0J137500D01*
G01*
X162910000Y-57767500D01*
G75*
G02*
X163047500Y-57630000I137500J0D01*
G01*
X164372500Y-57630000D01*
G75*
G02*
X164510000Y-57767500I0J-137500D01*
G01*
G37*
G36*
G01*
X164510000Y-56497500D02*
X164510000Y-56772500D01*
G75*
G02*
X164372500Y-56910000I-137500J0D01*
G01*
X163047500Y-56910000D01*
G75*
G02*
X162910000Y-56772500I0J137500D01*
G01*
X162910000Y-56497500D01*
G75*
G02*
X163047500Y-56360000I137500J0D01*
G01*
X164372500Y-56360000D01*
G75*
G02*
X164510000Y-56497500I0J-137500D01*
G01*
G37*
G36*
G01*
X164510000Y-55227500D02*
X164510000Y-55502500D01*
G75*
G02*
X164372500Y-55640000I-137500J0D01*
G01*
X163047500Y-55640000D01*
G75*
G02*
X162910000Y-55502500I0J137500D01*
G01*
X162910000Y-55227500D01*
G75*
G02*
X163047500Y-55090000I137500J0D01*
G01*
X164372500Y-55090000D01*
G75*
G02*
X164510000Y-55227500I0J-137500D01*
G01*
G37*
G36*
G01*
X164510000Y-53957500D02*
X164510000Y-54232500D01*
G75*
G02*
X164372500Y-54370000I-137500J0D01*
G01*
X163047500Y-54370000D01*
G75*
G02*
X162910000Y-54232500I0J137500D01*
G01*
X162910000Y-53957500D01*
G75*
G02*
X163047500Y-53820000I137500J0D01*
G01*
X164372500Y-53820000D01*
G75*
G02*
X164510000Y-53957500I0J-137500D01*
G01*
G37*
G36*
G01*
X164510000Y-52687500D02*
X164510000Y-52962500D01*
G75*
G02*
X164372500Y-53100000I-137500J0D01*
G01*
X163047500Y-53100000D01*
G75*
G02*
X162910000Y-52962500I0J137500D01*
G01*
X162910000Y-52687500D01*
G75*
G02*
X163047500Y-52550000I137500J0D01*
G01*
X164372500Y-52550000D01*
G75*
G02*
X164510000Y-52687500I0J-137500D01*
G01*
G37*
G36*
G01*
X164510000Y-51417500D02*
X164510000Y-51692500D01*
G75*
G02*
X164372500Y-51830000I-137500J0D01*
G01*
X163047500Y-51830000D01*
G75*
G02*
X162910000Y-51692500I0J137500D01*
G01*
X162910000Y-51417500D01*
G75*
G02*
X163047500Y-51280000I137500J0D01*
G01*
X164372500Y-51280000D01*
G75*
G02*
X164510000Y-51417500I0J-137500D01*
G01*
G37*
G36*
G01*
X171010000Y-51417500D02*
X171010000Y-51692500D01*
G75*
G02*
X170872500Y-51830000I-137500J0D01*
G01*
X169547500Y-51830000D01*
G75*
G02*
X169410000Y-51692500I0J137500D01*
G01*
X169410000Y-51417500D01*
G75*
G02*
X169547500Y-51280000I137500J0D01*
G01*
X170872500Y-51280000D01*
G75*
G02*
X171010000Y-51417500I0J-137500D01*
G01*
G37*
G36*
G01*
X171010000Y-52687500D02*
X171010000Y-52962500D01*
G75*
G02*
X170872500Y-53100000I-137500J0D01*
G01*
X169547500Y-53100000D01*
G75*
G02*
X169410000Y-52962500I0J137500D01*
G01*
X169410000Y-52687500D01*
G75*
G02*
X169547500Y-52550000I137500J0D01*
G01*
X170872500Y-52550000D01*
G75*
G02*
X171010000Y-52687500I0J-137500D01*
G01*
G37*
G36*
G01*
X171010000Y-53957500D02*
X171010000Y-54232500D01*
G75*
G02*
X170872500Y-54370000I-137500J0D01*
G01*
X169547500Y-54370000D01*
G75*
G02*
X169410000Y-54232500I0J137500D01*
G01*
X169410000Y-53957500D01*
G75*
G02*
X169547500Y-53820000I137500J0D01*
G01*
X170872500Y-53820000D01*
G75*
G02*
X171010000Y-53957500I0J-137500D01*
G01*
G37*
G36*
G01*
X171010000Y-55227500D02*
X171010000Y-55502500D01*
G75*
G02*
X170872500Y-55640000I-137500J0D01*
G01*
X169547500Y-55640000D01*
G75*
G02*
X169410000Y-55502500I0J137500D01*
G01*
X169410000Y-55227500D01*
G75*
G02*
X169547500Y-55090000I137500J0D01*
G01*
X170872500Y-55090000D01*
G75*
G02*
X171010000Y-55227500I0J-137500D01*
G01*
G37*
G36*
G01*
X171010000Y-56497500D02*
X171010000Y-56772500D01*
G75*
G02*
X170872500Y-56910000I-137500J0D01*
G01*
X169547500Y-56910000D01*
G75*
G02*
X169410000Y-56772500I0J137500D01*
G01*
X169410000Y-56497500D01*
G75*
G02*
X169547500Y-56360000I137500J0D01*
G01*
X170872500Y-56360000D01*
G75*
G02*
X171010000Y-56497500I0J-137500D01*
G01*
G37*
G36*
G01*
X171010000Y-57767500D02*
X171010000Y-58042500D01*
G75*
G02*
X170872500Y-58180000I-137500J0D01*
G01*
X169547500Y-58180000D01*
G75*
G02*
X169410000Y-58042500I0J137500D01*
G01*
X169410000Y-57767500D01*
G75*
G02*
X169547500Y-57630000I137500J0D01*
G01*
X170872500Y-57630000D01*
G75*
G02*
X171010000Y-57767500I0J-137500D01*
G01*
G37*
G36*
G01*
X171010000Y-59037500D02*
X171010000Y-59312500D01*
G75*
G02*
X170872500Y-59450000I-137500J0D01*
G01*
X169547500Y-59450000D01*
G75*
G02*
X169410000Y-59312500I0J137500D01*
G01*
X169410000Y-59037500D01*
G75*
G02*
X169547500Y-58900000I137500J0D01*
G01*
X170872500Y-58900000D01*
G75*
G02*
X171010000Y-59037500I0J-137500D01*
G01*
G37*
G36*
G01*
X171010000Y-60307500D02*
X171010000Y-60582500D01*
G75*
G02*
X170872500Y-60720000I-137500J0D01*
G01*
X169547500Y-60720000D01*
G75*
G02*
X169410000Y-60582500I0J137500D01*
G01*
X169410000Y-60307500D01*
G75*
G02*
X169547500Y-60170000I137500J0D01*
G01*
X170872500Y-60170000D01*
G75*
G02*
X171010000Y-60307500I0J-137500D01*
G01*
G37*
%TD*%
M02*
