%TF.GenerationSoftware,KiCad,Pcbnew,5.1.9-73d0e3b20d~88~ubuntu20.04.1*%
%TF.CreationDate,2021-03-03T11:26:58+04:00*%
%TF.ProjectId,interface_board,696e7465-7266-4616-9365-5f626f617264,rev?*%
%TF.SameCoordinates,Original*%
%TF.FileFunction,Paste,Top*%
%TF.FilePolarity,Positive*%
%FSLAX46Y46*%
G04 Gerber Fmt 4.6, Leading zero omitted, Abs format (unit mm)*
G04 Created by KiCad (PCBNEW 5.1.9-73d0e3b20d~88~ubuntu20.04.1) date 2021-03-03 11:26:58*
%MOMM*%
%LPD*%
G01*
G04 APERTURE LIST*
%TA.AperFunction,Profile*%
%ADD10C,0.050000*%
%TD*%
%TA.AperFunction,Profile*%
%ADD11C,0.100000*%
%TD*%
%ADD12R,1.500000X0.450000*%
%ADD13R,1.000000X0.500000*%
%ADD14R,1.000000X0.400000*%
%ADD15R,1.000000X2.750000*%
%ADD16R,1.060000X0.650000*%
G04 APERTURE END LIST*
D10*
X222900000Y-88100000D02*
X66700000Y-88100000D01*
D11*
X222900000Y-46100000D02*
X222900000Y-88100000D01*
X66700000Y-88100000D02*
X66700000Y-46100000D01*
X66700000Y-46100000D02*
X222900000Y-46100000D01*
%TO.C,D32*%
G36*
G01*
X177000000Y-82600000D02*
X177000000Y-81800000D01*
G75*
G02*
X177250000Y-81550000I250000J0D01*
G01*
X178075000Y-81550000D01*
G75*
G02*
X178325000Y-81800000I0J-250000D01*
G01*
X178325000Y-82600000D01*
G75*
G02*
X178075000Y-82850000I-250000J0D01*
G01*
X177250000Y-82850000D01*
G75*
G02*
X177000000Y-82600000I0J250000D01*
G01*
G37*
G36*
G01*
X175075000Y-82600000D02*
X175075000Y-81800000D01*
G75*
G02*
X175325000Y-81550000I250000J0D01*
G01*
X176150000Y-81550000D01*
G75*
G02*
X176400000Y-81800000I0J-250000D01*
G01*
X176400000Y-82600000D01*
G75*
G02*
X176150000Y-82850000I-250000J0D01*
G01*
X175325000Y-82850000D01*
G75*
G02*
X175075000Y-82600000I0J250000D01*
G01*
G37*
%TD*%
%TO.C,D31*%
G36*
G01*
X177000000Y-78274652D02*
X177000000Y-77474652D01*
G75*
G02*
X177250000Y-77224652I250000J0D01*
G01*
X178075000Y-77224652D01*
G75*
G02*
X178325000Y-77474652I0J-250000D01*
G01*
X178325000Y-78274652D01*
G75*
G02*
X178075000Y-78524652I-250000J0D01*
G01*
X177250000Y-78524652D01*
G75*
G02*
X177000000Y-78274652I0J250000D01*
G01*
G37*
G36*
G01*
X175075000Y-78274652D02*
X175075000Y-77474652D01*
G75*
G02*
X175325000Y-77224652I250000J0D01*
G01*
X176150000Y-77224652D01*
G75*
G02*
X176400000Y-77474652I0J-250000D01*
G01*
X176400000Y-78274652D01*
G75*
G02*
X176150000Y-78524652I-250000J0D01*
G01*
X175325000Y-78524652D01*
G75*
G02*
X175075000Y-78274652I0J250000D01*
G01*
G37*
%TD*%
%TO.C,D30*%
G36*
G01*
X177000000Y-73949306D02*
X177000000Y-73149306D01*
G75*
G02*
X177250000Y-72899306I250000J0D01*
G01*
X178075000Y-72899306D01*
G75*
G02*
X178325000Y-73149306I0J-250000D01*
G01*
X178325000Y-73949306D01*
G75*
G02*
X178075000Y-74199306I-250000J0D01*
G01*
X177250000Y-74199306D01*
G75*
G02*
X177000000Y-73949306I0J250000D01*
G01*
G37*
G36*
G01*
X175075000Y-73949306D02*
X175075000Y-73149306D01*
G75*
G02*
X175325000Y-72899306I250000J0D01*
G01*
X176150000Y-72899306D01*
G75*
G02*
X176400000Y-73149306I0J-250000D01*
G01*
X176400000Y-73949306D01*
G75*
G02*
X176150000Y-74199306I-250000J0D01*
G01*
X175325000Y-74199306D01*
G75*
G02*
X175075000Y-73949306I0J250000D01*
G01*
G37*
%TD*%
%TO.C,D29*%
G36*
G01*
X177000000Y-69623960D02*
X177000000Y-68823960D01*
G75*
G02*
X177250000Y-68573960I250000J0D01*
G01*
X178075000Y-68573960D01*
G75*
G02*
X178325000Y-68823960I0J-250000D01*
G01*
X178325000Y-69623960D01*
G75*
G02*
X178075000Y-69873960I-250000J0D01*
G01*
X177250000Y-69873960D01*
G75*
G02*
X177000000Y-69623960I0J250000D01*
G01*
G37*
G36*
G01*
X175075000Y-69623960D02*
X175075000Y-68823960D01*
G75*
G02*
X175325000Y-68573960I250000J0D01*
G01*
X176150000Y-68573960D01*
G75*
G02*
X176400000Y-68823960I0J-250000D01*
G01*
X176400000Y-69623960D01*
G75*
G02*
X176150000Y-69873960I-250000J0D01*
G01*
X175325000Y-69873960D01*
G75*
G02*
X175075000Y-69623960I0J250000D01*
G01*
G37*
%TD*%
%TO.C,D28*%
G36*
G01*
X177000000Y-65298614D02*
X177000000Y-64498614D01*
G75*
G02*
X177250000Y-64248614I250000J0D01*
G01*
X178075000Y-64248614D01*
G75*
G02*
X178325000Y-64498614I0J-250000D01*
G01*
X178325000Y-65298614D01*
G75*
G02*
X178075000Y-65548614I-250000J0D01*
G01*
X177250000Y-65548614D01*
G75*
G02*
X177000000Y-65298614I0J250000D01*
G01*
G37*
G36*
G01*
X175075000Y-65298614D02*
X175075000Y-64498614D01*
G75*
G02*
X175325000Y-64248614I250000J0D01*
G01*
X176150000Y-64248614D01*
G75*
G02*
X176400000Y-64498614I0J-250000D01*
G01*
X176400000Y-65298614D01*
G75*
G02*
X176150000Y-65548614I-250000J0D01*
G01*
X175325000Y-65548614D01*
G75*
G02*
X175075000Y-65298614I0J250000D01*
G01*
G37*
%TD*%
%TO.C,D27*%
G36*
G01*
X177000000Y-60973268D02*
X177000000Y-60173268D01*
G75*
G02*
X177250000Y-59923268I250000J0D01*
G01*
X178075000Y-59923268D01*
G75*
G02*
X178325000Y-60173268I0J-250000D01*
G01*
X178325000Y-60973268D01*
G75*
G02*
X178075000Y-61223268I-250000J0D01*
G01*
X177250000Y-61223268D01*
G75*
G02*
X177000000Y-60973268I0J250000D01*
G01*
G37*
G36*
G01*
X175075000Y-60973268D02*
X175075000Y-60173268D01*
G75*
G02*
X175325000Y-59923268I250000J0D01*
G01*
X176150000Y-59923268D01*
G75*
G02*
X176400000Y-60173268I0J-250000D01*
G01*
X176400000Y-60973268D01*
G75*
G02*
X176150000Y-61223268I-250000J0D01*
G01*
X175325000Y-61223268D01*
G75*
G02*
X175075000Y-60973268I0J250000D01*
G01*
G37*
%TD*%
%TO.C,D26*%
G36*
G01*
X177000000Y-56647922D02*
X177000000Y-55847922D01*
G75*
G02*
X177250000Y-55597922I250000J0D01*
G01*
X178075000Y-55597922D01*
G75*
G02*
X178325000Y-55847922I0J-250000D01*
G01*
X178325000Y-56647922D01*
G75*
G02*
X178075000Y-56897922I-250000J0D01*
G01*
X177250000Y-56897922D01*
G75*
G02*
X177000000Y-56647922I0J250000D01*
G01*
G37*
G36*
G01*
X175075000Y-56647922D02*
X175075000Y-55847922D01*
G75*
G02*
X175325000Y-55597922I250000J0D01*
G01*
X176150000Y-55597922D01*
G75*
G02*
X176400000Y-55847922I0J-250000D01*
G01*
X176400000Y-56647922D01*
G75*
G02*
X176150000Y-56897922I-250000J0D01*
G01*
X175325000Y-56897922D01*
G75*
G02*
X175075000Y-56647922I0J250000D01*
G01*
G37*
%TD*%
%TO.C,D25*%
G36*
G01*
X177000000Y-52322576D02*
X177000000Y-51522576D01*
G75*
G02*
X177250000Y-51272576I250000J0D01*
G01*
X178075000Y-51272576D01*
G75*
G02*
X178325000Y-51522576I0J-250000D01*
G01*
X178325000Y-52322576D01*
G75*
G02*
X178075000Y-52572576I-250000J0D01*
G01*
X177250000Y-52572576D01*
G75*
G02*
X177000000Y-52322576I0J250000D01*
G01*
G37*
G36*
G01*
X175075000Y-52322576D02*
X175075000Y-51522576D01*
G75*
G02*
X175325000Y-51272576I250000J0D01*
G01*
X176150000Y-51272576D01*
G75*
G02*
X176400000Y-51522576I0J-250000D01*
G01*
X176400000Y-52322576D01*
G75*
G02*
X176150000Y-52572576I-250000J0D01*
G01*
X175325000Y-52572576D01*
G75*
G02*
X175075000Y-52322576I0J250000D01*
G01*
G37*
%TD*%
%TO.C,D24*%
G36*
G01*
X147000000Y-82600000D02*
X147000000Y-81800000D01*
G75*
G02*
X147250000Y-81550000I250000J0D01*
G01*
X148075000Y-81550000D01*
G75*
G02*
X148325000Y-81800000I0J-250000D01*
G01*
X148325000Y-82600000D01*
G75*
G02*
X148075000Y-82850000I-250000J0D01*
G01*
X147250000Y-82850000D01*
G75*
G02*
X147000000Y-82600000I0J250000D01*
G01*
G37*
G36*
G01*
X145075000Y-82600000D02*
X145075000Y-81800000D01*
G75*
G02*
X145325000Y-81550000I250000J0D01*
G01*
X146150000Y-81550000D01*
G75*
G02*
X146400000Y-81800000I0J-250000D01*
G01*
X146400000Y-82600000D01*
G75*
G02*
X146150000Y-82850000I-250000J0D01*
G01*
X145325000Y-82850000D01*
G75*
G02*
X145075000Y-82600000I0J250000D01*
G01*
G37*
%TD*%
%TO.C,D23*%
G36*
G01*
X147000000Y-78271426D02*
X147000000Y-77471426D01*
G75*
G02*
X147250000Y-77221426I250000J0D01*
G01*
X148075000Y-77221426D01*
G75*
G02*
X148325000Y-77471426I0J-250000D01*
G01*
X148325000Y-78271426D01*
G75*
G02*
X148075000Y-78521426I-250000J0D01*
G01*
X147250000Y-78521426D01*
G75*
G02*
X147000000Y-78271426I0J250000D01*
G01*
G37*
G36*
G01*
X145075000Y-78271426D02*
X145075000Y-77471426D01*
G75*
G02*
X145325000Y-77221426I250000J0D01*
G01*
X146150000Y-77221426D01*
G75*
G02*
X146400000Y-77471426I0J-250000D01*
G01*
X146400000Y-78271426D01*
G75*
G02*
X146150000Y-78521426I-250000J0D01*
G01*
X145325000Y-78521426D01*
G75*
G02*
X145075000Y-78271426I0J250000D01*
G01*
G37*
%TD*%
%TO.C,D22*%
G36*
G01*
X147000000Y-73942855D02*
X147000000Y-73142855D01*
G75*
G02*
X147250000Y-72892855I250000J0D01*
G01*
X148075000Y-72892855D01*
G75*
G02*
X148325000Y-73142855I0J-250000D01*
G01*
X148325000Y-73942855D01*
G75*
G02*
X148075000Y-74192855I-250000J0D01*
G01*
X147250000Y-74192855D01*
G75*
G02*
X147000000Y-73942855I0J250000D01*
G01*
G37*
G36*
G01*
X145075000Y-73942855D02*
X145075000Y-73142855D01*
G75*
G02*
X145325000Y-72892855I250000J0D01*
G01*
X146150000Y-72892855D01*
G75*
G02*
X146400000Y-73142855I0J-250000D01*
G01*
X146400000Y-73942855D01*
G75*
G02*
X146150000Y-74192855I-250000J0D01*
G01*
X145325000Y-74192855D01*
G75*
G02*
X145075000Y-73942855I0J250000D01*
G01*
G37*
%TD*%
%TO.C,D21*%
G36*
G01*
X147000000Y-69614284D02*
X147000000Y-68814284D01*
G75*
G02*
X147250000Y-68564284I250000J0D01*
G01*
X148075000Y-68564284D01*
G75*
G02*
X148325000Y-68814284I0J-250000D01*
G01*
X148325000Y-69614284D01*
G75*
G02*
X148075000Y-69864284I-250000J0D01*
G01*
X147250000Y-69864284D01*
G75*
G02*
X147000000Y-69614284I0J250000D01*
G01*
G37*
G36*
G01*
X145075000Y-69614284D02*
X145075000Y-68814284D01*
G75*
G02*
X145325000Y-68564284I250000J0D01*
G01*
X146150000Y-68564284D01*
G75*
G02*
X146400000Y-68814284I0J-250000D01*
G01*
X146400000Y-69614284D01*
G75*
G02*
X146150000Y-69864284I-250000J0D01*
G01*
X145325000Y-69864284D01*
G75*
G02*
X145075000Y-69614284I0J250000D01*
G01*
G37*
%TD*%
%TO.C,D20*%
G36*
G01*
X147000000Y-65285713D02*
X147000000Y-64485713D01*
G75*
G02*
X147250000Y-64235713I250000J0D01*
G01*
X148075000Y-64235713D01*
G75*
G02*
X148325000Y-64485713I0J-250000D01*
G01*
X148325000Y-65285713D01*
G75*
G02*
X148075000Y-65535713I-250000J0D01*
G01*
X147250000Y-65535713D01*
G75*
G02*
X147000000Y-65285713I0J250000D01*
G01*
G37*
G36*
G01*
X145075000Y-65285713D02*
X145075000Y-64485713D01*
G75*
G02*
X145325000Y-64235713I250000J0D01*
G01*
X146150000Y-64235713D01*
G75*
G02*
X146400000Y-64485713I0J-250000D01*
G01*
X146400000Y-65285713D01*
G75*
G02*
X146150000Y-65535713I-250000J0D01*
G01*
X145325000Y-65535713D01*
G75*
G02*
X145075000Y-65285713I0J250000D01*
G01*
G37*
%TD*%
%TO.C,D19*%
G36*
G01*
X147000000Y-60957142D02*
X147000000Y-60157142D01*
G75*
G02*
X147250000Y-59907142I250000J0D01*
G01*
X148075000Y-59907142D01*
G75*
G02*
X148325000Y-60157142I0J-250000D01*
G01*
X148325000Y-60957142D01*
G75*
G02*
X148075000Y-61207142I-250000J0D01*
G01*
X147250000Y-61207142D01*
G75*
G02*
X147000000Y-60957142I0J250000D01*
G01*
G37*
G36*
G01*
X145075000Y-60957142D02*
X145075000Y-60157142D01*
G75*
G02*
X145325000Y-59907142I250000J0D01*
G01*
X146150000Y-59907142D01*
G75*
G02*
X146400000Y-60157142I0J-250000D01*
G01*
X146400000Y-60957142D01*
G75*
G02*
X146150000Y-61207142I-250000J0D01*
G01*
X145325000Y-61207142D01*
G75*
G02*
X145075000Y-60957142I0J250000D01*
G01*
G37*
%TD*%
%TO.C,D18*%
G36*
G01*
X147000000Y-56628571D02*
X147000000Y-55828571D01*
G75*
G02*
X147250000Y-55578571I250000J0D01*
G01*
X148075000Y-55578571D01*
G75*
G02*
X148325000Y-55828571I0J-250000D01*
G01*
X148325000Y-56628571D01*
G75*
G02*
X148075000Y-56878571I-250000J0D01*
G01*
X147250000Y-56878571D01*
G75*
G02*
X147000000Y-56628571I0J250000D01*
G01*
G37*
G36*
G01*
X145075000Y-56628571D02*
X145075000Y-55828571D01*
G75*
G02*
X145325000Y-55578571I250000J0D01*
G01*
X146150000Y-55578571D01*
G75*
G02*
X146400000Y-55828571I0J-250000D01*
G01*
X146400000Y-56628571D01*
G75*
G02*
X146150000Y-56878571I-250000J0D01*
G01*
X145325000Y-56878571D01*
G75*
G02*
X145075000Y-56628571I0J250000D01*
G01*
G37*
%TD*%
%TO.C,D17*%
G36*
G01*
X147000000Y-52300000D02*
X147000000Y-51500000D01*
G75*
G02*
X147250000Y-51250000I250000J0D01*
G01*
X148075000Y-51250000D01*
G75*
G02*
X148325000Y-51500000I0J-250000D01*
G01*
X148325000Y-52300000D01*
G75*
G02*
X148075000Y-52550000I-250000J0D01*
G01*
X147250000Y-52550000D01*
G75*
G02*
X147000000Y-52300000I0J250000D01*
G01*
G37*
G36*
G01*
X145075000Y-52300000D02*
X145075000Y-51500000D01*
G75*
G02*
X145325000Y-51250000I250000J0D01*
G01*
X146150000Y-51250000D01*
G75*
G02*
X146400000Y-51500000I0J-250000D01*
G01*
X146400000Y-52300000D01*
G75*
G02*
X146150000Y-52550000I-250000J0D01*
G01*
X145325000Y-52550000D01*
G75*
G02*
X145075000Y-52300000I0J250000D01*
G01*
G37*
%TD*%
%TO.C,D16*%
G36*
G01*
X117000000Y-82600000D02*
X117000000Y-81800000D01*
G75*
G02*
X117250000Y-81550000I250000J0D01*
G01*
X118075000Y-81550000D01*
G75*
G02*
X118325000Y-81800000I0J-250000D01*
G01*
X118325000Y-82600000D01*
G75*
G02*
X118075000Y-82850000I-250000J0D01*
G01*
X117250000Y-82850000D01*
G75*
G02*
X117000000Y-82600000I0J250000D01*
G01*
G37*
G36*
G01*
X115075000Y-82600000D02*
X115075000Y-81800000D01*
G75*
G02*
X115325000Y-81550000I250000J0D01*
G01*
X116150000Y-81550000D01*
G75*
G02*
X116400000Y-81800000I0J-250000D01*
G01*
X116400000Y-82600000D01*
G75*
G02*
X116150000Y-82850000I-250000J0D01*
G01*
X115325000Y-82850000D01*
G75*
G02*
X115075000Y-82600000I0J250000D01*
G01*
G37*
%TD*%
%TO.C,D15*%
G36*
G01*
X117000000Y-78282024D02*
X117000000Y-77482024D01*
G75*
G02*
X117250000Y-77232024I250000J0D01*
G01*
X118075000Y-77232024D01*
G75*
G02*
X118325000Y-77482024I0J-250000D01*
G01*
X118325000Y-78282024D01*
G75*
G02*
X118075000Y-78532024I-250000J0D01*
G01*
X117250000Y-78532024D01*
G75*
G02*
X117000000Y-78282024I0J250000D01*
G01*
G37*
G36*
G01*
X115075000Y-78282024D02*
X115075000Y-77482024D01*
G75*
G02*
X115325000Y-77232024I250000J0D01*
G01*
X116150000Y-77232024D01*
G75*
G02*
X116400000Y-77482024I0J-250000D01*
G01*
X116400000Y-78282024D01*
G75*
G02*
X116150000Y-78532024I-250000J0D01*
G01*
X115325000Y-78532024D01*
G75*
G02*
X115075000Y-78282024I0J250000D01*
G01*
G37*
%TD*%
%TO.C,D14*%
G36*
G01*
X117000000Y-73964052D02*
X117000000Y-73164052D01*
G75*
G02*
X117250000Y-72914052I250000J0D01*
G01*
X118075000Y-72914052D01*
G75*
G02*
X118325000Y-73164052I0J-250000D01*
G01*
X118325000Y-73964052D01*
G75*
G02*
X118075000Y-74214052I-250000J0D01*
G01*
X117250000Y-74214052D01*
G75*
G02*
X117000000Y-73964052I0J250000D01*
G01*
G37*
G36*
G01*
X115075000Y-73964052D02*
X115075000Y-73164052D01*
G75*
G02*
X115325000Y-72914052I250000J0D01*
G01*
X116150000Y-72914052D01*
G75*
G02*
X116400000Y-73164052I0J-250000D01*
G01*
X116400000Y-73964052D01*
G75*
G02*
X116150000Y-74214052I-250000J0D01*
G01*
X115325000Y-74214052D01*
G75*
G02*
X115075000Y-73964052I0J250000D01*
G01*
G37*
%TD*%
%TO.C,D13*%
G36*
G01*
X117000000Y-69646080D02*
X117000000Y-68846080D01*
G75*
G02*
X117250000Y-68596080I250000J0D01*
G01*
X118075000Y-68596080D01*
G75*
G02*
X118325000Y-68846080I0J-250000D01*
G01*
X118325000Y-69646080D01*
G75*
G02*
X118075000Y-69896080I-250000J0D01*
G01*
X117250000Y-69896080D01*
G75*
G02*
X117000000Y-69646080I0J250000D01*
G01*
G37*
G36*
G01*
X115075000Y-69646080D02*
X115075000Y-68846080D01*
G75*
G02*
X115325000Y-68596080I250000J0D01*
G01*
X116150000Y-68596080D01*
G75*
G02*
X116400000Y-68846080I0J-250000D01*
G01*
X116400000Y-69646080D01*
G75*
G02*
X116150000Y-69896080I-250000J0D01*
G01*
X115325000Y-69896080D01*
G75*
G02*
X115075000Y-69646080I0J250000D01*
G01*
G37*
%TD*%
%TO.C,D12*%
G36*
G01*
X117000000Y-65328108D02*
X117000000Y-64528108D01*
G75*
G02*
X117250000Y-64278108I250000J0D01*
G01*
X118075000Y-64278108D01*
G75*
G02*
X118325000Y-64528108I0J-250000D01*
G01*
X118325000Y-65328108D01*
G75*
G02*
X118075000Y-65578108I-250000J0D01*
G01*
X117250000Y-65578108D01*
G75*
G02*
X117000000Y-65328108I0J250000D01*
G01*
G37*
G36*
G01*
X115075000Y-65328108D02*
X115075000Y-64528108D01*
G75*
G02*
X115325000Y-64278108I250000J0D01*
G01*
X116150000Y-64278108D01*
G75*
G02*
X116400000Y-64528108I0J-250000D01*
G01*
X116400000Y-65328108D01*
G75*
G02*
X116150000Y-65578108I-250000J0D01*
G01*
X115325000Y-65578108D01*
G75*
G02*
X115075000Y-65328108I0J250000D01*
G01*
G37*
%TD*%
%TO.C,D11*%
G36*
G01*
X117000000Y-61010136D02*
X117000000Y-60210136D01*
G75*
G02*
X117250000Y-59960136I250000J0D01*
G01*
X118075000Y-59960136D01*
G75*
G02*
X118325000Y-60210136I0J-250000D01*
G01*
X118325000Y-61010136D01*
G75*
G02*
X118075000Y-61260136I-250000J0D01*
G01*
X117250000Y-61260136D01*
G75*
G02*
X117000000Y-61010136I0J250000D01*
G01*
G37*
G36*
G01*
X115075000Y-61010136D02*
X115075000Y-60210136D01*
G75*
G02*
X115325000Y-59960136I250000J0D01*
G01*
X116150000Y-59960136D01*
G75*
G02*
X116400000Y-60210136I0J-250000D01*
G01*
X116400000Y-61010136D01*
G75*
G02*
X116150000Y-61260136I-250000J0D01*
G01*
X115325000Y-61260136D01*
G75*
G02*
X115075000Y-61010136I0J250000D01*
G01*
G37*
%TD*%
%TO.C,D10*%
G36*
G01*
X117000000Y-56692164D02*
X117000000Y-55892164D01*
G75*
G02*
X117250000Y-55642164I250000J0D01*
G01*
X118075000Y-55642164D01*
G75*
G02*
X118325000Y-55892164I0J-250000D01*
G01*
X118325000Y-56692164D01*
G75*
G02*
X118075000Y-56942164I-250000J0D01*
G01*
X117250000Y-56942164D01*
G75*
G02*
X117000000Y-56692164I0J250000D01*
G01*
G37*
G36*
G01*
X115075000Y-56692164D02*
X115075000Y-55892164D01*
G75*
G02*
X115325000Y-55642164I250000J0D01*
G01*
X116150000Y-55642164D01*
G75*
G02*
X116400000Y-55892164I0J-250000D01*
G01*
X116400000Y-56692164D01*
G75*
G02*
X116150000Y-56942164I-250000J0D01*
G01*
X115325000Y-56942164D01*
G75*
G02*
X115075000Y-56692164I0J250000D01*
G01*
G37*
%TD*%
%TO.C,D9*%
G36*
G01*
X117000000Y-52374192D02*
X117000000Y-51574192D01*
G75*
G02*
X117250000Y-51324192I250000J0D01*
G01*
X118075000Y-51324192D01*
G75*
G02*
X118325000Y-51574192I0J-250000D01*
G01*
X118325000Y-52374192D01*
G75*
G02*
X118075000Y-52624192I-250000J0D01*
G01*
X117250000Y-52624192D01*
G75*
G02*
X117000000Y-52374192I0J250000D01*
G01*
G37*
G36*
G01*
X115075000Y-52374192D02*
X115075000Y-51574192D01*
G75*
G02*
X115325000Y-51324192I250000J0D01*
G01*
X116150000Y-51324192D01*
G75*
G02*
X116400000Y-51574192I0J-250000D01*
G01*
X116400000Y-52374192D01*
G75*
G02*
X116150000Y-52624192I-250000J0D01*
G01*
X115325000Y-52624192D01*
G75*
G02*
X115075000Y-52374192I0J250000D01*
G01*
G37*
%TD*%
%TO.C,D8*%
G36*
G01*
X87000000Y-82600000D02*
X87000000Y-81800000D01*
G75*
G02*
X87250000Y-81550000I250000J0D01*
G01*
X88075000Y-81550000D01*
G75*
G02*
X88325000Y-81800000I0J-250000D01*
G01*
X88325000Y-82600000D01*
G75*
G02*
X88075000Y-82850000I-250000J0D01*
G01*
X87250000Y-82850000D01*
G75*
G02*
X87000000Y-82600000I0J250000D01*
G01*
G37*
G36*
G01*
X85075000Y-82600000D02*
X85075000Y-81800000D01*
G75*
G02*
X85325000Y-81550000I250000J0D01*
G01*
X86150000Y-81550000D01*
G75*
G02*
X86400000Y-81800000I0J-250000D01*
G01*
X86400000Y-82600000D01*
G75*
G02*
X86150000Y-82850000I-250000J0D01*
G01*
X85325000Y-82850000D01*
G75*
G02*
X85075000Y-82600000I0J250000D01*
G01*
G37*
%TD*%
%TO.C,D7*%
G36*
G01*
X87000000Y-78285710D02*
X87000000Y-77485710D01*
G75*
G02*
X87250000Y-77235710I250000J0D01*
G01*
X88075000Y-77235710D01*
G75*
G02*
X88325000Y-77485710I0J-250000D01*
G01*
X88325000Y-78285710D01*
G75*
G02*
X88075000Y-78535710I-250000J0D01*
G01*
X87250000Y-78535710D01*
G75*
G02*
X87000000Y-78285710I0J250000D01*
G01*
G37*
G36*
G01*
X85075000Y-78285710D02*
X85075000Y-77485710D01*
G75*
G02*
X85325000Y-77235710I250000J0D01*
G01*
X86150000Y-77235710D01*
G75*
G02*
X86400000Y-77485710I0J-250000D01*
G01*
X86400000Y-78285710D01*
G75*
G02*
X86150000Y-78535710I-250000J0D01*
G01*
X85325000Y-78535710D01*
G75*
G02*
X85075000Y-78285710I0J250000D01*
G01*
G37*
%TD*%
%TO.C,D6*%
G36*
G01*
X87000000Y-73971425D02*
X87000000Y-73171425D01*
G75*
G02*
X87250000Y-72921425I250000J0D01*
G01*
X88075000Y-72921425D01*
G75*
G02*
X88325000Y-73171425I0J-250000D01*
G01*
X88325000Y-73971425D01*
G75*
G02*
X88075000Y-74221425I-250000J0D01*
G01*
X87250000Y-74221425D01*
G75*
G02*
X87000000Y-73971425I0J250000D01*
G01*
G37*
G36*
G01*
X85075000Y-73971425D02*
X85075000Y-73171425D01*
G75*
G02*
X85325000Y-72921425I250000J0D01*
G01*
X86150000Y-72921425D01*
G75*
G02*
X86400000Y-73171425I0J-250000D01*
G01*
X86400000Y-73971425D01*
G75*
G02*
X86150000Y-74221425I-250000J0D01*
G01*
X85325000Y-74221425D01*
G75*
G02*
X85075000Y-73971425I0J250000D01*
G01*
G37*
%TD*%
%TO.C,D5*%
G36*
G01*
X87000000Y-69657140D02*
X87000000Y-68857140D01*
G75*
G02*
X87250000Y-68607140I250000J0D01*
G01*
X88075000Y-68607140D01*
G75*
G02*
X88325000Y-68857140I0J-250000D01*
G01*
X88325000Y-69657140D01*
G75*
G02*
X88075000Y-69907140I-250000J0D01*
G01*
X87250000Y-69907140D01*
G75*
G02*
X87000000Y-69657140I0J250000D01*
G01*
G37*
G36*
G01*
X85075000Y-69657140D02*
X85075000Y-68857140D01*
G75*
G02*
X85325000Y-68607140I250000J0D01*
G01*
X86150000Y-68607140D01*
G75*
G02*
X86400000Y-68857140I0J-250000D01*
G01*
X86400000Y-69657140D01*
G75*
G02*
X86150000Y-69907140I-250000J0D01*
G01*
X85325000Y-69907140D01*
G75*
G02*
X85075000Y-69657140I0J250000D01*
G01*
G37*
%TD*%
%TO.C,D4*%
G36*
G01*
X87000000Y-65342855D02*
X87000000Y-64542855D01*
G75*
G02*
X87250000Y-64292855I250000J0D01*
G01*
X88075000Y-64292855D01*
G75*
G02*
X88325000Y-64542855I0J-250000D01*
G01*
X88325000Y-65342855D01*
G75*
G02*
X88075000Y-65592855I-250000J0D01*
G01*
X87250000Y-65592855D01*
G75*
G02*
X87000000Y-65342855I0J250000D01*
G01*
G37*
G36*
G01*
X85075000Y-65342855D02*
X85075000Y-64542855D01*
G75*
G02*
X85325000Y-64292855I250000J0D01*
G01*
X86150000Y-64292855D01*
G75*
G02*
X86400000Y-64542855I0J-250000D01*
G01*
X86400000Y-65342855D01*
G75*
G02*
X86150000Y-65592855I-250000J0D01*
G01*
X85325000Y-65592855D01*
G75*
G02*
X85075000Y-65342855I0J250000D01*
G01*
G37*
%TD*%
%TO.C,D3*%
G36*
G01*
X87000000Y-61028570D02*
X87000000Y-60228570D01*
G75*
G02*
X87250000Y-59978570I250000J0D01*
G01*
X88075000Y-59978570D01*
G75*
G02*
X88325000Y-60228570I0J-250000D01*
G01*
X88325000Y-61028570D01*
G75*
G02*
X88075000Y-61278570I-250000J0D01*
G01*
X87250000Y-61278570D01*
G75*
G02*
X87000000Y-61028570I0J250000D01*
G01*
G37*
G36*
G01*
X85075000Y-61028570D02*
X85075000Y-60228570D01*
G75*
G02*
X85325000Y-59978570I250000J0D01*
G01*
X86150000Y-59978570D01*
G75*
G02*
X86400000Y-60228570I0J-250000D01*
G01*
X86400000Y-61028570D01*
G75*
G02*
X86150000Y-61278570I-250000J0D01*
G01*
X85325000Y-61278570D01*
G75*
G02*
X85075000Y-61028570I0J250000D01*
G01*
G37*
%TD*%
%TO.C,D2*%
G36*
G01*
X87000000Y-56714285D02*
X87000000Y-55914285D01*
G75*
G02*
X87250000Y-55664285I250000J0D01*
G01*
X88075000Y-55664285D01*
G75*
G02*
X88325000Y-55914285I0J-250000D01*
G01*
X88325000Y-56714285D01*
G75*
G02*
X88075000Y-56964285I-250000J0D01*
G01*
X87250000Y-56964285D01*
G75*
G02*
X87000000Y-56714285I0J250000D01*
G01*
G37*
G36*
G01*
X85075000Y-56714285D02*
X85075000Y-55914285D01*
G75*
G02*
X85325000Y-55664285I250000J0D01*
G01*
X86150000Y-55664285D01*
G75*
G02*
X86400000Y-55914285I0J-250000D01*
G01*
X86400000Y-56714285D01*
G75*
G02*
X86150000Y-56964285I-250000J0D01*
G01*
X85325000Y-56964285D01*
G75*
G02*
X85075000Y-56714285I0J250000D01*
G01*
G37*
%TD*%
%TO.C,D1*%
G36*
G01*
X87000000Y-52400000D02*
X87000000Y-51600000D01*
G75*
G02*
X87250000Y-51350000I250000J0D01*
G01*
X88075000Y-51350000D01*
G75*
G02*
X88325000Y-51600000I0J-250000D01*
G01*
X88325000Y-52400000D01*
G75*
G02*
X88075000Y-52650000I-250000J0D01*
G01*
X87250000Y-52650000D01*
G75*
G02*
X87000000Y-52400000I0J250000D01*
G01*
G37*
G36*
G01*
X85075000Y-52400000D02*
X85075000Y-51600000D01*
G75*
G02*
X85325000Y-51350000I250000J0D01*
G01*
X86150000Y-51350000D01*
G75*
G02*
X86400000Y-51600000I0J-250000D01*
G01*
X86400000Y-52400000D01*
G75*
G02*
X86150000Y-52650000I-250000J0D01*
G01*
X85325000Y-52650000D01*
G75*
G02*
X85075000Y-52400000I0J250000D01*
G01*
G37*
%TD*%
%TO.C,D34*%
G36*
G01*
X76160000Y-52020000D02*
X76160000Y-52820000D01*
G75*
G02*
X75910000Y-53070000I-250000J0D01*
G01*
X75085000Y-53070000D01*
G75*
G02*
X74835000Y-52820000I0J250000D01*
G01*
X74835000Y-52020000D01*
G75*
G02*
X75085000Y-51770000I250000J0D01*
G01*
X75910000Y-51770000D01*
G75*
G02*
X76160000Y-52020000I0J-250000D01*
G01*
G37*
G36*
G01*
X78085000Y-52020000D02*
X78085000Y-52820000D01*
G75*
G02*
X77835000Y-53070000I-250000J0D01*
G01*
X77010000Y-53070000D01*
G75*
G02*
X76760000Y-52820000I0J250000D01*
G01*
X76760000Y-52020000D01*
G75*
G02*
X77010000Y-51770000I250000J0D01*
G01*
X77835000Y-51770000D01*
G75*
G02*
X78085000Y-52020000I0J-250000D01*
G01*
G37*
%TD*%
%TO.C,D33*%
G36*
G01*
X76160000Y-49910000D02*
X76160000Y-50710000D01*
G75*
G02*
X75910000Y-50960000I-250000J0D01*
G01*
X75085000Y-50960000D01*
G75*
G02*
X74835000Y-50710000I0J250000D01*
G01*
X74835000Y-49910000D01*
G75*
G02*
X75085000Y-49660000I250000J0D01*
G01*
X75910000Y-49660000D01*
G75*
G02*
X76160000Y-49910000I0J-250000D01*
G01*
G37*
G36*
G01*
X78085000Y-49910000D02*
X78085000Y-50710000D01*
G75*
G02*
X77835000Y-50960000I-250000J0D01*
G01*
X77010000Y-50960000D01*
G75*
G02*
X76760000Y-50710000I0J250000D01*
G01*
X76760000Y-49910000D01*
G75*
G02*
X77010000Y-49660000I250000J0D01*
G01*
X77835000Y-49660000D01*
G75*
G02*
X78085000Y-49910000I0J-250000D01*
G01*
G37*
%TD*%
%TO.C,R5*%
G36*
G01*
X71085000Y-50875000D02*
X71085000Y-50325000D01*
G75*
G02*
X71285000Y-50125000I200000J0D01*
G01*
X71685000Y-50125000D01*
G75*
G02*
X71885000Y-50325000I0J-200000D01*
G01*
X71885000Y-50875000D01*
G75*
G02*
X71685000Y-51075000I-200000J0D01*
G01*
X71285000Y-51075000D01*
G75*
G02*
X71085000Y-50875000I0J200000D01*
G01*
G37*
G36*
G01*
X69435000Y-50875000D02*
X69435000Y-50325000D01*
G75*
G02*
X69635000Y-50125000I200000J0D01*
G01*
X70035000Y-50125000D01*
G75*
G02*
X70235000Y-50325000I0J-200000D01*
G01*
X70235000Y-50875000D01*
G75*
G02*
X70035000Y-51075000I-200000J0D01*
G01*
X69635000Y-51075000D01*
G75*
G02*
X69435000Y-50875000I0J200000D01*
G01*
G37*
%TD*%
%TO.C,U4*%
G36*
G01*
X191150000Y-62792500D02*
X191150000Y-62517500D01*
G75*
G02*
X191287500Y-62380000I137500J0D01*
G01*
X192612500Y-62380000D01*
G75*
G02*
X192750000Y-62517500I0J-137500D01*
G01*
X192750000Y-62792500D01*
G75*
G02*
X192612500Y-62930000I-137500J0D01*
G01*
X191287500Y-62930000D01*
G75*
G02*
X191150000Y-62792500I0J137500D01*
G01*
G37*
G36*
G01*
X191150000Y-64062500D02*
X191150000Y-63787500D01*
G75*
G02*
X191287500Y-63650000I137500J0D01*
G01*
X192612500Y-63650000D01*
G75*
G02*
X192750000Y-63787500I0J-137500D01*
G01*
X192750000Y-64062500D01*
G75*
G02*
X192612500Y-64200000I-137500J0D01*
G01*
X191287500Y-64200000D01*
G75*
G02*
X191150000Y-64062500I0J137500D01*
G01*
G37*
G36*
G01*
X191150000Y-65332500D02*
X191150000Y-65057500D01*
G75*
G02*
X191287500Y-64920000I137500J0D01*
G01*
X192612500Y-64920000D01*
G75*
G02*
X192750000Y-65057500I0J-137500D01*
G01*
X192750000Y-65332500D01*
G75*
G02*
X192612500Y-65470000I-137500J0D01*
G01*
X191287500Y-65470000D01*
G75*
G02*
X191150000Y-65332500I0J137500D01*
G01*
G37*
G36*
G01*
X191150000Y-66602500D02*
X191150000Y-66327500D01*
G75*
G02*
X191287500Y-66190000I137500J0D01*
G01*
X192612500Y-66190000D01*
G75*
G02*
X192750000Y-66327500I0J-137500D01*
G01*
X192750000Y-66602500D01*
G75*
G02*
X192612500Y-66740000I-137500J0D01*
G01*
X191287500Y-66740000D01*
G75*
G02*
X191150000Y-66602500I0J137500D01*
G01*
G37*
G36*
G01*
X191150000Y-67872500D02*
X191150000Y-67597500D01*
G75*
G02*
X191287500Y-67460000I137500J0D01*
G01*
X192612500Y-67460000D01*
G75*
G02*
X192750000Y-67597500I0J-137500D01*
G01*
X192750000Y-67872500D01*
G75*
G02*
X192612500Y-68010000I-137500J0D01*
G01*
X191287500Y-68010000D01*
G75*
G02*
X191150000Y-67872500I0J137500D01*
G01*
G37*
G36*
G01*
X191150000Y-69142500D02*
X191150000Y-68867500D01*
G75*
G02*
X191287500Y-68730000I137500J0D01*
G01*
X192612500Y-68730000D01*
G75*
G02*
X192750000Y-68867500I0J-137500D01*
G01*
X192750000Y-69142500D01*
G75*
G02*
X192612500Y-69280000I-137500J0D01*
G01*
X191287500Y-69280000D01*
G75*
G02*
X191150000Y-69142500I0J137500D01*
G01*
G37*
G36*
G01*
X191150000Y-70412500D02*
X191150000Y-70137500D01*
G75*
G02*
X191287500Y-70000000I137500J0D01*
G01*
X192612500Y-70000000D01*
G75*
G02*
X192750000Y-70137500I0J-137500D01*
G01*
X192750000Y-70412500D01*
G75*
G02*
X192612500Y-70550000I-137500J0D01*
G01*
X191287500Y-70550000D01*
G75*
G02*
X191150000Y-70412500I0J137500D01*
G01*
G37*
G36*
G01*
X191150000Y-71682500D02*
X191150000Y-71407500D01*
G75*
G02*
X191287500Y-71270000I137500J0D01*
G01*
X192612500Y-71270000D01*
G75*
G02*
X192750000Y-71407500I0J-137500D01*
G01*
X192750000Y-71682500D01*
G75*
G02*
X192612500Y-71820000I-137500J0D01*
G01*
X191287500Y-71820000D01*
G75*
G02*
X191150000Y-71682500I0J137500D01*
G01*
G37*
G36*
G01*
X184650000Y-71682500D02*
X184650000Y-71407500D01*
G75*
G02*
X184787500Y-71270000I137500J0D01*
G01*
X186112500Y-71270000D01*
G75*
G02*
X186250000Y-71407500I0J-137500D01*
G01*
X186250000Y-71682500D01*
G75*
G02*
X186112500Y-71820000I-137500J0D01*
G01*
X184787500Y-71820000D01*
G75*
G02*
X184650000Y-71682500I0J137500D01*
G01*
G37*
G36*
G01*
X184650000Y-70412500D02*
X184650000Y-70137500D01*
G75*
G02*
X184787500Y-70000000I137500J0D01*
G01*
X186112500Y-70000000D01*
G75*
G02*
X186250000Y-70137500I0J-137500D01*
G01*
X186250000Y-70412500D01*
G75*
G02*
X186112500Y-70550000I-137500J0D01*
G01*
X184787500Y-70550000D01*
G75*
G02*
X184650000Y-70412500I0J137500D01*
G01*
G37*
G36*
G01*
X184650000Y-69142500D02*
X184650000Y-68867500D01*
G75*
G02*
X184787500Y-68730000I137500J0D01*
G01*
X186112500Y-68730000D01*
G75*
G02*
X186250000Y-68867500I0J-137500D01*
G01*
X186250000Y-69142500D01*
G75*
G02*
X186112500Y-69280000I-137500J0D01*
G01*
X184787500Y-69280000D01*
G75*
G02*
X184650000Y-69142500I0J137500D01*
G01*
G37*
G36*
G01*
X184650000Y-67872500D02*
X184650000Y-67597500D01*
G75*
G02*
X184787500Y-67460000I137500J0D01*
G01*
X186112500Y-67460000D01*
G75*
G02*
X186250000Y-67597500I0J-137500D01*
G01*
X186250000Y-67872500D01*
G75*
G02*
X186112500Y-68010000I-137500J0D01*
G01*
X184787500Y-68010000D01*
G75*
G02*
X184650000Y-67872500I0J137500D01*
G01*
G37*
G36*
G01*
X184650000Y-66602500D02*
X184650000Y-66327500D01*
G75*
G02*
X184787500Y-66190000I137500J0D01*
G01*
X186112500Y-66190000D01*
G75*
G02*
X186250000Y-66327500I0J-137500D01*
G01*
X186250000Y-66602500D01*
G75*
G02*
X186112500Y-66740000I-137500J0D01*
G01*
X184787500Y-66740000D01*
G75*
G02*
X184650000Y-66602500I0J137500D01*
G01*
G37*
G36*
G01*
X184650000Y-65332500D02*
X184650000Y-65057500D01*
G75*
G02*
X184787500Y-64920000I137500J0D01*
G01*
X186112500Y-64920000D01*
G75*
G02*
X186250000Y-65057500I0J-137500D01*
G01*
X186250000Y-65332500D01*
G75*
G02*
X186112500Y-65470000I-137500J0D01*
G01*
X184787500Y-65470000D01*
G75*
G02*
X184650000Y-65332500I0J137500D01*
G01*
G37*
G36*
G01*
X184650000Y-64062500D02*
X184650000Y-63787500D01*
G75*
G02*
X184787500Y-63650000I137500J0D01*
G01*
X186112500Y-63650000D01*
G75*
G02*
X186250000Y-63787500I0J-137500D01*
G01*
X186250000Y-64062500D01*
G75*
G02*
X186112500Y-64200000I-137500J0D01*
G01*
X184787500Y-64200000D01*
G75*
G02*
X184650000Y-64062500I0J137500D01*
G01*
G37*
G36*
G01*
X184650000Y-62792500D02*
X184650000Y-62517500D01*
G75*
G02*
X184787500Y-62380000I137500J0D01*
G01*
X186112500Y-62380000D01*
G75*
G02*
X186250000Y-62517500I0J-137500D01*
G01*
X186250000Y-62792500D01*
G75*
G02*
X186112500Y-62930000I-137500J0D01*
G01*
X184787500Y-62930000D01*
G75*
G02*
X184650000Y-62792500I0J137500D01*
G01*
G37*
%TD*%
%TO.C,U3*%
G36*
G01*
X161150000Y-62792500D02*
X161150000Y-62517500D01*
G75*
G02*
X161287500Y-62380000I137500J0D01*
G01*
X162612500Y-62380000D01*
G75*
G02*
X162750000Y-62517500I0J-137500D01*
G01*
X162750000Y-62792500D01*
G75*
G02*
X162612500Y-62930000I-137500J0D01*
G01*
X161287500Y-62930000D01*
G75*
G02*
X161150000Y-62792500I0J137500D01*
G01*
G37*
G36*
G01*
X161150000Y-64062500D02*
X161150000Y-63787500D01*
G75*
G02*
X161287500Y-63650000I137500J0D01*
G01*
X162612500Y-63650000D01*
G75*
G02*
X162750000Y-63787500I0J-137500D01*
G01*
X162750000Y-64062500D01*
G75*
G02*
X162612500Y-64200000I-137500J0D01*
G01*
X161287500Y-64200000D01*
G75*
G02*
X161150000Y-64062500I0J137500D01*
G01*
G37*
G36*
G01*
X161150000Y-65332500D02*
X161150000Y-65057500D01*
G75*
G02*
X161287500Y-64920000I137500J0D01*
G01*
X162612500Y-64920000D01*
G75*
G02*
X162750000Y-65057500I0J-137500D01*
G01*
X162750000Y-65332500D01*
G75*
G02*
X162612500Y-65470000I-137500J0D01*
G01*
X161287500Y-65470000D01*
G75*
G02*
X161150000Y-65332500I0J137500D01*
G01*
G37*
G36*
G01*
X161150000Y-66602500D02*
X161150000Y-66327500D01*
G75*
G02*
X161287500Y-66190000I137500J0D01*
G01*
X162612500Y-66190000D01*
G75*
G02*
X162750000Y-66327500I0J-137500D01*
G01*
X162750000Y-66602500D01*
G75*
G02*
X162612500Y-66740000I-137500J0D01*
G01*
X161287500Y-66740000D01*
G75*
G02*
X161150000Y-66602500I0J137500D01*
G01*
G37*
G36*
G01*
X161150000Y-67872500D02*
X161150000Y-67597500D01*
G75*
G02*
X161287500Y-67460000I137500J0D01*
G01*
X162612500Y-67460000D01*
G75*
G02*
X162750000Y-67597500I0J-137500D01*
G01*
X162750000Y-67872500D01*
G75*
G02*
X162612500Y-68010000I-137500J0D01*
G01*
X161287500Y-68010000D01*
G75*
G02*
X161150000Y-67872500I0J137500D01*
G01*
G37*
G36*
G01*
X161150000Y-69142500D02*
X161150000Y-68867500D01*
G75*
G02*
X161287500Y-68730000I137500J0D01*
G01*
X162612500Y-68730000D01*
G75*
G02*
X162750000Y-68867500I0J-137500D01*
G01*
X162750000Y-69142500D01*
G75*
G02*
X162612500Y-69280000I-137500J0D01*
G01*
X161287500Y-69280000D01*
G75*
G02*
X161150000Y-69142500I0J137500D01*
G01*
G37*
G36*
G01*
X161150000Y-70412500D02*
X161150000Y-70137500D01*
G75*
G02*
X161287500Y-70000000I137500J0D01*
G01*
X162612500Y-70000000D01*
G75*
G02*
X162750000Y-70137500I0J-137500D01*
G01*
X162750000Y-70412500D01*
G75*
G02*
X162612500Y-70550000I-137500J0D01*
G01*
X161287500Y-70550000D01*
G75*
G02*
X161150000Y-70412500I0J137500D01*
G01*
G37*
G36*
G01*
X161150000Y-71682500D02*
X161150000Y-71407500D01*
G75*
G02*
X161287500Y-71270000I137500J0D01*
G01*
X162612500Y-71270000D01*
G75*
G02*
X162750000Y-71407500I0J-137500D01*
G01*
X162750000Y-71682500D01*
G75*
G02*
X162612500Y-71820000I-137500J0D01*
G01*
X161287500Y-71820000D01*
G75*
G02*
X161150000Y-71682500I0J137500D01*
G01*
G37*
G36*
G01*
X154650000Y-71682500D02*
X154650000Y-71407500D01*
G75*
G02*
X154787500Y-71270000I137500J0D01*
G01*
X156112500Y-71270000D01*
G75*
G02*
X156250000Y-71407500I0J-137500D01*
G01*
X156250000Y-71682500D01*
G75*
G02*
X156112500Y-71820000I-137500J0D01*
G01*
X154787500Y-71820000D01*
G75*
G02*
X154650000Y-71682500I0J137500D01*
G01*
G37*
G36*
G01*
X154650000Y-70412500D02*
X154650000Y-70137500D01*
G75*
G02*
X154787500Y-70000000I137500J0D01*
G01*
X156112500Y-70000000D01*
G75*
G02*
X156250000Y-70137500I0J-137500D01*
G01*
X156250000Y-70412500D01*
G75*
G02*
X156112500Y-70550000I-137500J0D01*
G01*
X154787500Y-70550000D01*
G75*
G02*
X154650000Y-70412500I0J137500D01*
G01*
G37*
G36*
G01*
X154650000Y-69142500D02*
X154650000Y-68867500D01*
G75*
G02*
X154787500Y-68730000I137500J0D01*
G01*
X156112500Y-68730000D01*
G75*
G02*
X156250000Y-68867500I0J-137500D01*
G01*
X156250000Y-69142500D01*
G75*
G02*
X156112500Y-69280000I-137500J0D01*
G01*
X154787500Y-69280000D01*
G75*
G02*
X154650000Y-69142500I0J137500D01*
G01*
G37*
G36*
G01*
X154650000Y-67872500D02*
X154650000Y-67597500D01*
G75*
G02*
X154787500Y-67460000I137500J0D01*
G01*
X156112500Y-67460000D01*
G75*
G02*
X156250000Y-67597500I0J-137500D01*
G01*
X156250000Y-67872500D01*
G75*
G02*
X156112500Y-68010000I-137500J0D01*
G01*
X154787500Y-68010000D01*
G75*
G02*
X154650000Y-67872500I0J137500D01*
G01*
G37*
G36*
G01*
X154650000Y-66602500D02*
X154650000Y-66327500D01*
G75*
G02*
X154787500Y-66190000I137500J0D01*
G01*
X156112500Y-66190000D01*
G75*
G02*
X156250000Y-66327500I0J-137500D01*
G01*
X156250000Y-66602500D01*
G75*
G02*
X156112500Y-66740000I-137500J0D01*
G01*
X154787500Y-66740000D01*
G75*
G02*
X154650000Y-66602500I0J137500D01*
G01*
G37*
G36*
G01*
X154650000Y-65332500D02*
X154650000Y-65057500D01*
G75*
G02*
X154787500Y-64920000I137500J0D01*
G01*
X156112500Y-64920000D01*
G75*
G02*
X156250000Y-65057500I0J-137500D01*
G01*
X156250000Y-65332500D01*
G75*
G02*
X156112500Y-65470000I-137500J0D01*
G01*
X154787500Y-65470000D01*
G75*
G02*
X154650000Y-65332500I0J137500D01*
G01*
G37*
G36*
G01*
X154650000Y-64062500D02*
X154650000Y-63787500D01*
G75*
G02*
X154787500Y-63650000I137500J0D01*
G01*
X156112500Y-63650000D01*
G75*
G02*
X156250000Y-63787500I0J-137500D01*
G01*
X156250000Y-64062500D01*
G75*
G02*
X156112500Y-64200000I-137500J0D01*
G01*
X154787500Y-64200000D01*
G75*
G02*
X154650000Y-64062500I0J137500D01*
G01*
G37*
G36*
G01*
X154650000Y-62792500D02*
X154650000Y-62517500D01*
G75*
G02*
X154787500Y-62380000I137500J0D01*
G01*
X156112500Y-62380000D01*
G75*
G02*
X156250000Y-62517500I0J-137500D01*
G01*
X156250000Y-62792500D01*
G75*
G02*
X156112500Y-62930000I-137500J0D01*
G01*
X154787500Y-62930000D01*
G75*
G02*
X154650000Y-62792500I0J137500D01*
G01*
G37*
%TD*%
%TO.C,U2*%
G36*
G01*
X131150000Y-62792500D02*
X131150000Y-62517500D01*
G75*
G02*
X131287500Y-62380000I137500J0D01*
G01*
X132612500Y-62380000D01*
G75*
G02*
X132750000Y-62517500I0J-137500D01*
G01*
X132750000Y-62792500D01*
G75*
G02*
X132612500Y-62930000I-137500J0D01*
G01*
X131287500Y-62930000D01*
G75*
G02*
X131150000Y-62792500I0J137500D01*
G01*
G37*
G36*
G01*
X131150000Y-64062500D02*
X131150000Y-63787500D01*
G75*
G02*
X131287500Y-63650000I137500J0D01*
G01*
X132612500Y-63650000D01*
G75*
G02*
X132750000Y-63787500I0J-137500D01*
G01*
X132750000Y-64062500D01*
G75*
G02*
X132612500Y-64200000I-137500J0D01*
G01*
X131287500Y-64200000D01*
G75*
G02*
X131150000Y-64062500I0J137500D01*
G01*
G37*
G36*
G01*
X131150000Y-65332500D02*
X131150000Y-65057500D01*
G75*
G02*
X131287500Y-64920000I137500J0D01*
G01*
X132612500Y-64920000D01*
G75*
G02*
X132750000Y-65057500I0J-137500D01*
G01*
X132750000Y-65332500D01*
G75*
G02*
X132612500Y-65470000I-137500J0D01*
G01*
X131287500Y-65470000D01*
G75*
G02*
X131150000Y-65332500I0J137500D01*
G01*
G37*
G36*
G01*
X131150000Y-66602500D02*
X131150000Y-66327500D01*
G75*
G02*
X131287500Y-66190000I137500J0D01*
G01*
X132612500Y-66190000D01*
G75*
G02*
X132750000Y-66327500I0J-137500D01*
G01*
X132750000Y-66602500D01*
G75*
G02*
X132612500Y-66740000I-137500J0D01*
G01*
X131287500Y-66740000D01*
G75*
G02*
X131150000Y-66602500I0J137500D01*
G01*
G37*
G36*
G01*
X131150000Y-67872500D02*
X131150000Y-67597500D01*
G75*
G02*
X131287500Y-67460000I137500J0D01*
G01*
X132612500Y-67460000D01*
G75*
G02*
X132750000Y-67597500I0J-137500D01*
G01*
X132750000Y-67872500D01*
G75*
G02*
X132612500Y-68010000I-137500J0D01*
G01*
X131287500Y-68010000D01*
G75*
G02*
X131150000Y-67872500I0J137500D01*
G01*
G37*
G36*
G01*
X131150000Y-69142500D02*
X131150000Y-68867500D01*
G75*
G02*
X131287500Y-68730000I137500J0D01*
G01*
X132612500Y-68730000D01*
G75*
G02*
X132750000Y-68867500I0J-137500D01*
G01*
X132750000Y-69142500D01*
G75*
G02*
X132612500Y-69280000I-137500J0D01*
G01*
X131287500Y-69280000D01*
G75*
G02*
X131150000Y-69142500I0J137500D01*
G01*
G37*
G36*
G01*
X131150000Y-70412500D02*
X131150000Y-70137500D01*
G75*
G02*
X131287500Y-70000000I137500J0D01*
G01*
X132612500Y-70000000D01*
G75*
G02*
X132750000Y-70137500I0J-137500D01*
G01*
X132750000Y-70412500D01*
G75*
G02*
X132612500Y-70550000I-137500J0D01*
G01*
X131287500Y-70550000D01*
G75*
G02*
X131150000Y-70412500I0J137500D01*
G01*
G37*
G36*
G01*
X131150000Y-71682500D02*
X131150000Y-71407500D01*
G75*
G02*
X131287500Y-71270000I137500J0D01*
G01*
X132612500Y-71270000D01*
G75*
G02*
X132750000Y-71407500I0J-137500D01*
G01*
X132750000Y-71682500D01*
G75*
G02*
X132612500Y-71820000I-137500J0D01*
G01*
X131287500Y-71820000D01*
G75*
G02*
X131150000Y-71682500I0J137500D01*
G01*
G37*
G36*
G01*
X124650000Y-71682500D02*
X124650000Y-71407500D01*
G75*
G02*
X124787500Y-71270000I137500J0D01*
G01*
X126112500Y-71270000D01*
G75*
G02*
X126250000Y-71407500I0J-137500D01*
G01*
X126250000Y-71682500D01*
G75*
G02*
X126112500Y-71820000I-137500J0D01*
G01*
X124787500Y-71820000D01*
G75*
G02*
X124650000Y-71682500I0J137500D01*
G01*
G37*
G36*
G01*
X124650000Y-70412500D02*
X124650000Y-70137500D01*
G75*
G02*
X124787500Y-70000000I137500J0D01*
G01*
X126112500Y-70000000D01*
G75*
G02*
X126250000Y-70137500I0J-137500D01*
G01*
X126250000Y-70412500D01*
G75*
G02*
X126112500Y-70550000I-137500J0D01*
G01*
X124787500Y-70550000D01*
G75*
G02*
X124650000Y-70412500I0J137500D01*
G01*
G37*
G36*
G01*
X124650000Y-69142500D02*
X124650000Y-68867500D01*
G75*
G02*
X124787500Y-68730000I137500J0D01*
G01*
X126112500Y-68730000D01*
G75*
G02*
X126250000Y-68867500I0J-137500D01*
G01*
X126250000Y-69142500D01*
G75*
G02*
X126112500Y-69280000I-137500J0D01*
G01*
X124787500Y-69280000D01*
G75*
G02*
X124650000Y-69142500I0J137500D01*
G01*
G37*
G36*
G01*
X124650000Y-67872500D02*
X124650000Y-67597500D01*
G75*
G02*
X124787500Y-67460000I137500J0D01*
G01*
X126112500Y-67460000D01*
G75*
G02*
X126250000Y-67597500I0J-137500D01*
G01*
X126250000Y-67872500D01*
G75*
G02*
X126112500Y-68010000I-137500J0D01*
G01*
X124787500Y-68010000D01*
G75*
G02*
X124650000Y-67872500I0J137500D01*
G01*
G37*
G36*
G01*
X124650000Y-66602500D02*
X124650000Y-66327500D01*
G75*
G02*
X124787500Y-66190000I137500J0D01*
G01*
X126112500Y-66190000D01*
G75*
G02*
X126250000Y-66327500I0J-137500D01*
G01*
X126250000Y-66602500D01*
G75*
G02*
X126112500Y-66740000I-137500J0D01*
G01*
X124787500Y-66740000D01*
G75*
G02*
X124650000Y-66602500I0J137500D01*
G01*
G37*
G36*
G01*
X124650000Y-65332500D02*
X124650000Y-65057500D01*
G75*
G02*
X124787500Y-64920000I137500J0D01*
G01*
X126112500Y-64920000D01*
G75*
G02*
X126250000Y-65057500I0J-137500D01*
G01*
X126250000Y-65332500D01*
G75*
G02*
X126112500Y-65470000I-137500J0D01*
G01*
X124787500Y-65470000D01*
G75*
G02*
X124650000Y-65332500I0J137500D01*
G01*
G37*
G36*
G01*
X124650000Y-64062500D02*
X124650000Y-63787500D01*
G75*
G02*
X124787500Y-63650000I137500J0D01*
G01*
X126112500Y-63650000D01*
G75*
G02*
X126250000Y-63787500I0J-137500D01*
G01*
X126250000Y-64062500D01*
G75*
G02*
X126112500Y-64200000I-137500J0D01*
G01*
X124787500Y-64200000D01*
G75*
G02*
X124650000Y-64062500I0J137500D01*
G01*
G37*
G36*
G01*
X124650000Y-62792500D02*
X124650000Y-62517500D01*
G75*
G02*
X124787500Y-62380000I137500J0D01*
G01*
X126112500Y-62380000D01*
G75*
G02*
X126250000Y-62517500I0J-137500D01*
G01*
X126250000Y-62792500D01*
G75*
G02*
X126112500Y-62930000I-137500J0D01*
G01*
X124787500Y-62930000D01*
G75*
G02*
X124650000Y-62792500I0J137500D01*
G01*
G37*
%TD*%
%TO.C,U1*%
G36*
G01*
X101150000Y-62792500D02*
X101150000Y-62517500D01*
G75*
G02*
X101287500Y-62380000I137500J0D01*
G01*
X102612500Y-62380000D01*
G75*
G02*
X102750000Y-62517500I0J-137500D01*
G01*
X102750000Y-62792500D01*
G75*
G02*
X102612500Y-62930000I-137500J0D01*
G01*
X101287500Y-62930000D01*
G75*
G02*
X101150000Y-62792500I0J137500D01*
G01*
G37*
G36*
G01*
X101150000Y-64062500D02*
X101150000Y-63787500D01*
G75*
G02*
X101287500Y-63650000I137500J0D01*
G01*
X102612500Y-63650000D01*
G75*
G02*
X102750000Y-63787500I0J-137500D01*
G01*
X102750000Y-64062500D01*
G75*
G02*
X102612500Y-64200000I-137500J0D01*
G01*
X101287500Y-64200000D01*
G75*
G02*
X101150000Y-64062500I0J137500D01*
G01*
G37*
G36*
G01*
X101150000Y-65332500D02*
X101150000Y-65057500D01*
G75*
G02*
X101287500Y-64920000I137500J0D01*
G01*
X102612500Y-64920000D01*
G75*
G02*
X102750000Y-65057500I0J-137500D01*
G01*
X102750000Y-65332500D01*
G75*
G02*
X102612500Y-65470000I-137500J0D01*
G01*
X101287500Y-65470000D01*
G75*
G02*
X101150000Y-65332500I0J137500D01*
G01*
G37*
G36*
G01*
X101150000Y-66602500D02*
X101150000Y-66327500D01*
G75*
G02*
X101287500Y-66190000I137500J0D01*
G01*
X102612500Y-66190000D01*
G75*
G02*
X102750000Y-66327500I0J-137500D01*
G01*
X102750000Y-66602500D01*
G75*
G02*
X102612500Y-66740000I-137500J0D01*
G01*
X101287500Y-66740000D01*
G75*
G02*
X101150000Y-66602500I0J137500D01*
G01*
G37*
G36*
G01*
X101150000Y-67872500D02*
X101150000Y-67597500D01*
G75*
G02*
X101287500Y-67460000I137500J0D01*
G01*
X102612500Y-67460000D01*
G75*
G02*
X102750000Y-67597500I0J-137500D01*
G01*
X102750000Y-67872500D01*
G75*
G02*
X102612500Y-68010000I-137500J0D01*
G01*
X101287500Y-68010000D01*
G75*
G02*
X101150000Y-67872500I0J137500D01*
G01*
G37*
G36*
G01*
X101150000Y-69142500D02*
X101150000Y-68867500D01*
G75*
G02*
X101287500Y-68730000I137500J0D01*
G01*
X102612500Y-68730000D01*
G75*
G02*
X102750000Y-68867500I0J-137500D01*
G01*
X102750000Y-69142500D01*
G75*
G02*
X102612500Y-69280000I-137500J0D01*
G01*
X101287500Y-69280000D01*
G75*
G02*
X101150000Y-69142500I0J137500D01*
G01*
G37*
G36*
G01*
X101150000Y-70412500D02*
X101150000Y-70137500D01*
G75*
G02*
X101287500Y-70000000I137500J0D01*
G01*
X102612500Y-70000000D01*
G75*
G02*
X102750000Y-70137500I0J-137500D01*
G01*
X102750000Y-70412500D01*
G75*
G02*
X102612500Y-70550000I-137500J0D01*
G01*
X101287500Y-70550000D01*
G75*
G02*
X101150000Y-70412500I0J137500D01*
G01*
G37*
G36*
G01*
X101150000Y-71682500D02*
X101150000Y-71407500D01*
G75*
G02*
X101287500Y-71270000I137500J0D01*
G01*
X102612500Y-71270000D01*
G75*
G02*
X102750000Y-71407500I0J-137500D01*
G01*
X102750000Y-71682500D01*
G75*
G02*
X102612500Y-71820000I-137500J0D01*
G01*
X101287500Y-71820000D01*
G75*
G02*
X101150000Y-71682500I0J137500D01*
G01*
G37*
G36*
G01*
X94650000Y-71682500D02*
X94650000Y-71407500D01*
G75*
G02*
X94787500Y-71270000I137500J0D01*
G01*
X96112500Y-71270000D01*
G75*
G02*
X96250000Y-71407500I0J-137500D01*
G01*
X96250000Y-71682500D01*
G75*
G02*
X96112500Y-71820000I-137500J0D01*
G01*
X94787500Y-71820000D01*
G75*
G02*
X94650000Y-71682500I0J137500D01*
G01*
G37*
G36*
G01*
X94650000Y-70412500D02*
X94650000Y-70137500D01*
G75*
G02*
X94787500Y-70000000I137500J0D01*
G01*
X96112500Y-70000000D01*
G75*
G02*
X96250000Y-70137500I0J-137500D01*
G01*
X96250000Y-70412500D01*
G75*
G02*
X96112500Y-70550000I-137500J0D01*
G01*
X94787500Y-70550000D01*
G75*
G02*
X94650000Y-70412500I0J137500D01*
G01*
G37*
G36*
G01*
X94650000Y-69142500D02*
X94650000Y-68867500D01*
G75*
G02*
X94787500Y-68730000I137500J0D01*
G01*
X96112500Y-68730000D01*
G75*
G02*
X96250000Y-68867500I0J-137500D01*
G01*
X96250000Y-69142500D01*
G75*
G02*
X96112500Y-69280000I-137500J0D01*
G01*
X94787500Y-69280000D01*
G75*
G02*
X94650000Y-69142500I0J137500D01*
G01*
G37*
G36*
G01*
X94650000Y-67872500D02*
X94650000Y-67597500D01*
G75*
G02*
X94787500Y-67460000I137500J0D01*
G01*
X96112500Y-67460000D01*
G75*
G02*
X96250000Y-67597500I0J-137500D01*
G01*
X96250000Y-67872500D01*
G75*
G02*
X96112500Y-68010000I-137500J0D01*
G01*
X94787500Y-68010000D01*
G75*
G02*
X94650000Y-67872500I0J137500D01*
G01*
G37*
G36*
G01*
X94650000Y-66602500D02*
X94650000Y-66327500D01*
G75*
G02*
X94787500Y-66190000I137500J0D01*
G01*
X96112500Y-66190000D01*
G75*
G02*
X96250000Y-66327500I0J-137500D01*
G01*
X96250000Y-66602500D01*
G75*
G02*
X96112500Y-66740000I-137500J0D01*
G01*
X94787500Y-66740000D01*
G75*
G02*
X94650000Y-66602500I0J137500D01*
G01*
G37*
G36*
G01*
X94650000Y-65332500D02*
X94650000Y-65057500D01*
G75*
G02*
X94787500Y-64920000I137500J0D01*
G01*
X96112500Y-64920000D01*
G75*
G02*
X96250000Y-65057500I0J-137500D01*
G01*
X96250000Y-65332500D01*
G75*
G02*
X96112500Y-65470000I-137500J0D01*
G01*
X94787500Y-65470000D01*
G75*
G02*
X94650000Y-65332500I0J137500D01*
G01*
G37*
G36*
G01*
X94650000Y-64062500D02*
X94650000Y-63787500D01*
G75*
G02*
X94787500Y-63650000I137500J0D01*
G01*
X96112500Y-63650000D01*
G75*
G02*
X96250000Y-63787500I0J-137500D01*
G01*
X96250000Y-64062500D01*
G75*
G02*
X96112500Y-64200000I-137500J0D01*
G01*
X94787500Y-64200000D01*
G75*
G02*
X94650000Y-64062500I0J137500D01*
G01*
G37*
G36*
G01*
X94650000Y-62792500D02*
X94650000Y-62517500D01*
G75*
G02*
X94787500Y-62380000I137500J0D01*
G01*
X96112500Y-62380000D01*
G75*
G02*
X96250000Y-62517500I0J-137500D01*
G01*
X96250000Y-62792500D01*
G75*
G02*
X96112500Y-62930000I-137500J0D01*
G01*
X94787500Y-62930000D01*
G75*
G02*
X94650000Y-62792500I0J137500D01*
G01*
G37*
%TD*%
%TO.C,R10*%
G36*
G01*
X209412500Y-81375000D02*
X209412500Y-80825000D01*
G75*
G02*
X209612500Y-80625000I200000J0D01*
G01*
X210012500Y-80625000D01*
G75*
G02*
X210212500Y-80825000I0J-200000D01*
G01*
X210212500Y-81375000D01*
G75*
G02*
X210012500Y-81575000I-200000J0D01*
G01*
X209612500Y-81575000D01*
G75*
G02*
X209412500Y-81375000I0J200000D01*
G01*
G37*
G36*
G01*
X207762500Y-81375000D02*
X207762500Y-80825000D01*
G75*
G02*
X207962500Y-80625000I200000J0D01*
G01*
X208362500Y-80625000D01*
G75*
G02*
X208562500Y-80825000I0J-200000D01*
G01*
X208562500Y-81375000D01*
G75*
G02*
X208362500Y-81575000I-200000J0D01*
G01*
X207962500Y-81575000D01*
G75*
G02*
X207762500Y-81375000I0J200000D01*
G01*
G37*
%TD*%
%TO.C,R9*%
G36*
G01*
X209400000Y-73725000D02*
X209400000Y-73175000D01*
G75*
G02*
X209600000Y-72975000I200000J0D01*
G01*
X210000000Y-72975000D01*
G75*
G02*
X210200000Y-73175000I0J-200000D01*
G01*
X210200000Y-73725000D01*
G75*
G02*
X210000000Y-73925000I-200000J0D01*
G01*
X209600000Y-73925000D01*
G75*
G02*
X209400000Y-73725000I0J200000D01*
G01*
G37*
G36*
G01*
X207750000Y-73725000D02*
X207750000Y-73175000D01*
G75*
G02*
X207950000Y-72975000I200000J0D01*
G01*
X208350000Y-72975000D01*
G75*
G02*
X208550000Y-73175000I0J-200000D01*
G01*
X208550000Y-73725000D01*
G75*
G02*
X208350000Y-73925000I-200000J0D01*
G01*
X207950000Y-73925000D01*
G75*
G02*
X207750000Y-73725000I0J200000D01*
G01*
G37*
%TD*%
%TO.C,R8*%
G36*
G01*
X208550000Y-71550000D02*
X208550000Y-72100000D01*
G75*
G02*
X208350000Y-72300000I-200000J0D01*
G01*
X207950000Y-72300000D01*
G75*
G02*
X207750000Y-72100000I0J200000D01*
G01*
X207750000Y-71550000D01*
G75*
G02*
X207950000Y-71350000I200000J0D01*
G01*
X208350000Y-71350000D01*
G75*
G02*
X208550000Y-71550000I0J-200000D01*
G01*
G37*
G36*
G01*
X210200000Y-71550000D02*
X210200000Y-72100000D01*
G75*
G02*
X210000000Y-72300000I-200000J0D01*
G01*
X209600000Y-72300000D01*
G75*
G02*
X209400000Y-72100000I0J200000D01*
G01*
X209400000Y-71550000D01*
G75*
G02*
X209600000Y-71350000I200000J0D01*
G01*
X210000000Y-71350000D01*
G75*
G02*
X210200000Y-71550000I0J-200000D01*
G01*
G37*
%TD*%
%TO.C,R7*%
G36*
G01*
X73190000Y-79355000D02*
X73740000Y-79355000D01*
G75*
G02*
X73940000Y-79555000I0J-200000D01*
G01*
X73940000Y-79955000D01*
G75*
G02*
X73740000Y-80155000I-200000J0D01*
G01*
X73190000Y-80155000D01*
G75*
G02*
X72990000Y-79955000I0J200000D01*
G01*
X72990000Y-79555000D01*
G75*
G02*
X73190000Y-79355000I200000J0D01*
G01*
G37*
G36*
G01*
X73190000Y-77705000D02*
X73740000Y-77705000D01*
G75*
G02*
X73940000Y-77905000I0J-200000D01*
G01*
X73940000Y-78305000D01*
G75*
G02*
X73740000Y-78505000I-200000J0D01*
G01*
X73190000Y-78505000D01*
G75*
G02*
X72990000Y-78305000I0J200000D01*
G01*
X72990000Y-77905000D01*
G75*
G02*
X73190000Y-77705000I200000J0D01*
G01*
G37*
%TD*%
%TO.C,R6*%
G36*
G01*
X75485000Y-78505000D02*
X74935000Y-78505000D01*
G75*
G02*
X74735000Y-78305000I0J200000D01*
G01*
X74735000Y-77905000D01*
G75*
G02*
X74935000Y-77705000I200000J0D01*
G01*
X75485000Y-77705000D01*
G75*
G02*
X75685000Y-77905000I0J-200000D01*
G01*
X75685000Y-78305000D01*
G75*
G02*
X75485000Y-78505000I-200000J0D01*
G01*
G37*
G36*
G01*
X75485000Y-80155000D02*
X74935000Y-80155000D01*
G75*
G02*
X74735000Y-79955000I0J200000D01*
G01*
X74735000Y-79555000D01*
G75*
G02*
X74935000Y-79355000I200000J0D01*
G01*
X75485000Y-79355000D01*
G75*
G02*
X75685000Y-79555000I0J-200000D01*
G01*
X75685000Y-79955000D01*
G75*
G02*
X75485000Y-80155000I-200000J0D01*
G01*
G37*
%TD*%
%TO.C,R4*%
G36*
G01*
X71085000Y-52505000D02*
X71085000Y-51955000D01*
G75*
G02*
X71285000Y-51755000I200000J0D01*
G01*
X71685000Y-51755000D01*
G75*
G02*
X71885000Y-51955000I0J-200000D01*
G01*
X71885000Y-52505000D01*
G75*
G02*
X71685000Y-52705000I-200000J0D01*
G01*
X71285000Y-52705000D01*
G75*
G02*
X71085000Y-52505000I0J200000D01*
G01*
G37*
G36*
G01*
X69435000Y-52505000D02*
X69435000Y-51955000D01*
G75*
G02*
X69635000Y-51755000I200000J0D01*
G01*
X70035000Y-51755000D01*
G75*
G02*
X70235000Y-51955000I0J-200000D01*
G01*
X70235000Y-52505000D01*
G75*
G02*
X70035000Y-52705000I-200000J0D01*
G01*
X69635000Y-52705000D01*
G75*
G02*
X69435000Y-52505000I0J200000D01*
G01*
G37*
%TD*%
%TO.C,R3*%
G36*
G01*
X99060000Y-76545000D02*
X98510000Y-76545000D01*
G75*
G02*
X98310000Y-76345000I0J200000D01*
G01*
X98310000Y-75945000D01*
G75*
G02*
X98510000Y-75745000I200000J0D01*
G01*
X99060000Y-75745000D01*
G75*
G02*
X99260000Y-75945000I0J-200000D01*
G01*
X99260000Y-76345000D01*
G75*
G02*
X99060000Y-76545000I-200000J0D01*
G01*
G37*
G36*
G01*
X99060000Y-78195000D02*
X98510000Y-78195000D01*
G75*
G02*
X98310000Y-77995000I0J200000D01*
G01*
X98310000Y-77595000D01*
G75*
G02*
X98510000Y-77395000I200000J0D01*
G01*
X99060000Y-77395000D01*
G75*
G02*
X99260000Y-77595000I0J-200000D01*
G01*
X99260000Y-77995000D01*
G75*
G02*
X99060000Y-78195000I-200000J0D01*
G01*
G37*
%TD*%
%TO.C,R2*%
G36*
G01*
X97427500Y-76545000D02*
X96877500Y-76545000D01*
G75*
G02*
X96677500Y-76345000I0J200000D01*
G01*
X96677500Y-75945000D01*
G75*
G02*
X96877500Y-75745000I200000J0D01*
G01*
X97427500Y-75745000D01*
G75*
G02*
X97627500Y-75945000I0J-200000D01*
G01*
X97627500Y-76345000D01*
G75*
G02*
X97427500Y-76545000I-200000J0D01*
G01*
G37*
G36*
G01*
X97427500Y-78195000D02*
X96877500Y-78195000D01*
G75*
G02*
X96677500Y-77995000I0J200000D01*
G01*
X96677500Y-77595000D01*
G75*
G02*
X96877500Y-77395000I200000J0D01*
G01*
X97427500Y-77395000D01*
G75*
G02*
X97627500Y-77595000I0J-200000D01*
G01*
X97627500Y-77995000D01*
G75*
G02*
X97427500Y-78195000I-200000J0D01*
G01*
G37*
%TD*%
%TO.C,R1*%
G36*
G01*
X100142500Y-77395000D02*
X100692500Y-77395000D01*
G75*
G02*
X100892500Y-77595000I0J-200000D01*
G01*
X100892500Y-77995000D01*
G75*
G02*
X100692500Y-78195000I-200000J0D01*
G01*
X100142500Y-78195000D01*
G75*
G02*
X99942500Y-77995000I0J200000D01*
G01*
X99942500Y-77595000D01*
G75*
G02*
X100142500Y-77395000I200000J0D01*
G01*
G37*
G36*
G01*
X100142500Y-75745000D02*
X100692500Y-75745000D01*
G75*
G02*
X100892500Y-75945000I0J-200000D01*
G01*
X100892500Y-76345000D01*
G75*
G02*
X100692500Y-76545000I-200000J0D01*
G01*
X100142500Y-76545000D01*
G75*
G02*
X99942500Y-76345000I0J200000D01*
G01*
X99942500Y-75945000D01*
G75*
G02*
X100142500Y-75745000I200000J0D01*
G01*
G37*
%TD*%
%TO.C,C7*%
G36*
G01*
X71820000Y-78560000D02*
X72160000Y-78560000D01*
G75*
G02*
X72300000Y-78700000I0J-140000D01*
G01*
X72300000Y-78980000D01*
G75*
G02*
X72160000Y-79120000I-140000J0D01*
G01*
X71820000Y-79120000D01*
G75*
G02*
X71680000Y-78980000I0J140000D01*
G01*
X71680000Y-78700000D01*
G75*
G02*
X71820000Y-78560000I140000J0D01*
G01*
G37*
G36*
G01*
X71820000Y-77600000D02*
X72160000Y-77600000D01*
G75*
G02*
X72300000Y-77740000I0J-140000D01*
G01*
X72300000Y-78020000D01*
G75*
G02*
X72160000Y-78160000I-140000J0D01*
G01*
X71820000Y-78160000D01*
G75*
G02*
X71680000Y-78020000I0J140000D01*
G01*
X71680000Y-77740000D01*
G75*
G02*
X71820000Y-77600000I140000J0D01*
G01*
G37*
%TD*%
%TO.C,C6*%
G36*
G01*
X191250000Y-59970000D02*
X191250000Y-60310000D01*
G75*
G02*
X191110000Y-60450000I-140000J0D01*
G01*
X190830000Y-60450000D01*
G75*
G02*
X190690000Y-60310000I0J140000D01*
G01*
X190690000Y-59970000D01*
G75*
G02*
X190830000Y-59830000I140000J0D01*
G01*
X191110000Y-59830000D01*
G75*
G02*
X191250000Y-59970000I0J-140000D01*
G01*
G37*
G36*
G01*
X192210000Y-59970000D02*
X192210000Y-60310000D01*
G75*
G02*
X192070000Y-60450000I-140000J0D01*
G01*
X191790000Y-60450000D01*
G75*
G02*
X191650000Y-60310000I0J140000D01*
G01*
X191650000Y-59970000D01*
G75*
G02*
X191790000Y-59830000I140000J0D01*
G01*
X192070000Y-59830000D01*
G75*
G02*
X192210000Y-59970000I0J-140000D01*
G01*
G37*
%TD*%
%TO.C,C5*%
G36*
G01*
X161270000Y-60000000D02*
X161270000Y-60340000D01*
G75*
G02*
X161130000Y-60480000I-140000J0D01*
G01*
X160850000Y-60480000D01*
G75*
G02*
X160710000Y-60340000I0J140000D01*
G01*
X160710000Y-60000000D01*
G75*
G02*
X160850000Y-59860000I140000J0D01*
G01*
X161130000Y-59860000D01*
G75*
G02*
X161270000Y-60000000I0J-140000D01*
G01*
G37*
G36*
G01*
X162230000Y-60000000D02*
X162230000Y-60340000D01*
G75*
G02*
X162090000Y-60480000I-140000J0D01*
G01*
X161810000Y-60480000D01*
G75*
G02*
X161670000Y-60340000I0J140000D01*
G01*
X161670000Y-60000000D01*
G75*
G02*
X161810000Y-59860000I140000J0D01*
G01*
X162090000Y-59860000D01*
G75*
G02*
X162230000Y-60000000I0J-140000D01*
G01*
G37*
%TD*%
%TO.C,C4*%
G36*
G01*
X131250000Y-59970000D02*
X131250000Y-60310000D01*
G75*
G02*
X131110000Y-60450000I-140000J0D01*
G01*
X130830000Y-60450000D01*
G75*
G02*
X130690000Y-60310000I0J140000D01*
G01*
X130690000Y-59970000D01*
G75*
G02*
X130830000Y-59830000I140000J0D01*
G01*
X131110000Y-59830000D01*
G75*
G02*
X131250000Y-59970000I0J-140000D01*
G01*
G37*
G36*
G01*
X132210000Y-59970000D02*
X132210000Y-60310000D01*
G75*
G02*
X132070000Y-60450000I-140000J0D01*
G01*
X131790000Y-60450000D01*
G75*
G02*
X131650000Y-60310000I0J140000D01*
G01*
X131650000Y-59970000D01*
G75*
G02*
X131790000Y-59830000I140000J0D01*
G01*
X132070000Y-59830000D01*
G75*
G02*
X132210000Y-59970000I0J-140000D01*
G01*
G37*
%TD*%
%TO.C,C3*%
G36*
G01*
X101250000Y-60030000D02*
X101250000Y-60370000D01*
G75*
G02*
X101110000Y-60510000I-140000J0D01*
G01*
X100830000Y-60510000D01*
G75*
G02*
X100690000Y-60370000I0J140000D01*
G01*
X100690000Y-60030000D01*
G75*
G02*
X100830000Y-59890000I140000J0D01*
G01*
X101110000Y-59890000D01*
G75*
G02*
X101250000Y-60030000I0J-140000D01*
G01*
G37*
G36*
G01*
X102210000Y-60030000D02*
X102210000Y-60370000D01*
G75*
G02*
X102070000Y-60510000I-140000J0D01*
G01*
X101790000Y-60510000D01*
G75*
G02*
X101650000Y-60370000I0J140000D01*
G01*
X101650000Y-60030000D01*
G75*
G02*
X101790000Y-59890000I140000J0D01*
G01*
X102070000Y-59890000D01*
G75*
G02*
X102210000Y-60030000I0J-140000D01*
G01*
G37*
%TD*%
%TO.C,C2*%
G36*
G01*
X95770000Y-76645000D02*
X95270000Y-76645000D01*
G75*
G02*
X95045000Y-76420000I0J225000D01*
G01*
X95045000Y-75970000D01*
G75*
G02*
X95270000Y-75745000I225000J0D01*
G01*
X95770000Y-75745000D01*
G75*
G02*
X95995000Y-75970000I0J-225000D01*
G01*
X95995000Y-76420000D01*
G75*
G02*
X95770000Y-76645000I-225000J0D01*
G01*
G37*
G36*
G01*
X95770000Y-78195000D02*
X95270000Y-78195000D01*
G75*
G02*
X95045000Y-77970000I0J225000D01*
G01*
X95045000Y-77520000D01*
G75*
G02*
X95270000Y-77295000I225000J0D01*
G01*
X95770000Y-77295000D01*
G75*
G02*
X95995000Y-77520000I0J-225000D01*
G01*
X95995000Y-77970000D01*
G75*
G02*
X95770000Y-78195000I-225000J0D01*
G01*
G37*
%TD*%
%TO.C,C1*%
G36*
G01*
X101800000Y-77295000D02*
X102300000Y-77295000D01*
G75*
G02*
X102525000Y-77520000I0J-225000D01*
G01*
X102525000Y-77970000D01*
G75*
G02*
X102300000Y-78195000I-225000J0D01*
G01*
X101800000Y-78195000D01*
G75*
G02*
X101575000Y-77970000I0J225000D01*
G01*
X101575000Y-77520000D01*
G75*
G02*
X101800000Y-77295000I225000J0D01*
G01*
G37*
G36*
G01*
X101800000Y-75745000D02*
X102300000Y-75745000D01*
G75*
G02*
X102525000Y-75970000I0J-225000D01*
G01*
X102525000Y-76420000D01*
G75*
G02*
X102300000Y-76645000I-225000J0D01*
G01*
X101800000Y-76645000D01*
G75*
G02*
X101575000Y-76420000I0J225000D01*
G01*
X101575000Y-75970000D01*
G75*
G02*
X101800000Y-75745000I225000J0D01*
G01*
G37*
%TD*%
D12*
%TO.C,J4*%
X215125000Y-78600000D03*
X215125000Y-76000000D03*
X215125000Y-77950000D03*
X215125000Y-76650000D03*
X215125000Y-77300000D03*
%TD*%
D13*
%TO.C,RN1*%
X81600000Y-60000000D03*
D14*
X81600000Y-59200000D03*
D13*
X81600000Y-57600000D03*
D14*
X81600000Y-58400000D03*
D13*
X79600000Y-60000000D03*
D14*
X79600000Y-58400000D03*
X79600000Y-59200000D03*
D13*
X79600000Y-57600000D03*
%TD*%
%TO.C,RN2*%
X79600000Y-74800000D03*
D14*
X79600000Y-76400000D03*
X79600000Y-75600000D03*
D13*
X79600000Y-77200000D03*
D14*
X81600000Y-75600000D03*
D13*
X81600000Y-74800000D03*
D14*
X81600000Y-76400000D03*
D13*
X81600000Y-77200000D03*
%TD*%
%TO.C,RN3*%
X109600000Y-57600000D03*
D14*
X109600000Y-59200000D03*
X109600000Y-58400000D03*
D13*
X109600000Y-60000000D03*
D14*
X111600000Y-58400000D03*
D13*
X111600000Y-57600000D03*
D14*
X111600000Y-59200000D03*
D13*
X111600000Y-60000000D03*
%TD*%
%TO.C,RN4*%
X111600000Y-77200000D03*
D14*
X111600000Y-76400000D03*
D13*
X111600000Y-74800000D03*
D14*
X111600000Y-75600000D03*
D13*
X109600000Y-77200000D03*
D14*
X109600000Y-75600000D03*
X109600000Y-76400000D03*
D13*
X109600000Y-74800000D03*
%TD*%
%TO.C,RN5*%
X139600000Y-57600000D03*
D14*
X139600000Y-59200000D03*
X139600000Y-58400000D03*
D13*
X139600000Y-60000000D03*
D14*
X141600000Y-58400000D03*
D13*
X141600000Y-57600000D03*
D14*
X141600000Y-59200000D03*
D13*
X141600000Y-60000000D03*
%TD*%
%TO.C,RN6*%
X141600000Y-77100000D03*
D14*
X141600000Y-76300000D03*
D13*
X141600000Y-74700000D03*
D14*
X141600000Y-75500000D03*
D13*
X139600000Y-77100000D03*
D14*
X139600000Y-75500000D03*
X139600000Y-76300000D03*
D13*
X139600000Y-74700000D03*
%TD*%
%TO.C,RN7*%
X169500000Y-57600000D03*
D14*
X169500000Y-59200000D03*
X169500000Y-58400000D03*
D13*
X169500000Y-60000000D03*
D14*
X171500000Y-58400000D03*
D13*
X171500000Y-57600000D03*
D14*
X171500000Y-59200000D03*
D13*
X171500000Y-60000000D03*
%TD*%
%TO.C,RN8*%
X171500000Y-77100000D03*
D14*
X171500000Y-76300000D03*
D13*
X171500000Y-74700000D03*
D14*
X171500000Y-75500000D03*
D13*
X169500000Y-77100000D03*
D14*
X169500000Y-75500000D03*
X169500000Y-76300000D03*
D13*
X169500000Y-74700000D03*
%TD*%
D15*
%TO.C,SW1*%
X71100000Y-68720000D03*
X71100000Y-74480000D03*
X75100000Y-74480000D03*
X75100000Y-68720000D03*
%TD*%
D16*
%TO.C,U5*%
X210300000Y-78050000D03*
X210300000Y-77100000D03*
X210300000Y-76150000D03*
X208100000Y-76150000D03*
X208100000Y-78050000D03*
X208100000Y-77100000D03*
%TD*%
M02*
