%TF.GenerationSoftware,KiCad,Pcbnew,5.1.9-73d0e3b20d~88~ubuntu20.04.1*%
%TF.CreationDate,2021-03-03T11:26:58+04:00*%
%TF.ProjectId,interface_board,696e7465-7266-4616-9365-5f626f617264,rev?*%
%TF.SameCoordinates,Original*%
%TF.FileFunction,Soldermask,Bot*%
%TF.FilePolarity,Negative*%
%FSLAX46Y46*%
G04 Gerber Fmt 4.6, Leading zero omitted, Abs format (unit mm)*
G04 Created by KiCad (PCBNEW 5.1.9-73d0e3b20d~88~ubuntu20.04.1) date 2021-03-03 11:26:58*
%MOMM*%
%LPD*%
G01*
G04 APERTURE LIST*
%TA.AperFunction,Profile*%
%ADD10C,0.050000*%
%TD*%
%TA.AperFunction,Profile*%
%ADD11C,0.100000*%
%TD*%
%ADD12C,1.524000*%
%ADD13O,2.000000X1.000000*%
%ADD14O,1.700000X2.500000*%
%ADD15O,1.800000X2.100000*%
%ADD16R,2.000000X1.700000*%
%ADD17O,2.000000X1.700000*%
%ADD18O,1.200000X2.000000*%
G04 APERTURE END LIST*
D10*
X222900000Y-88100000D02*
X66700000Y-88100000D01*
D11*
X222900000Y-46100000D02*
X222900000Y-88100000D01*
X66700000Y-88100000D02*
X66700000Y-46100000D01*
X66700000Y-46100000D02*
X222900000Y-46100000D01*
D12*
%TO.C,D32*%
X173930000Y-82210000D03*
X179450000Y-82210000D03*
%TD*%
%TO.C,D31*%
X173930000Y-77884652D03*
X179450000Y-77884652D03*
%TD*%
%TO.C,D30*%
X173930000Y-73559306D03*
X179450000Y-73559306D03*
%TD*%
%TO.C,D29*%
X173930000Y-69233960D03*
X179450000Y-69233960D03*
%TD*%
%TO.C,D28*%
X173930000Y-64908614D03*
X179450000Y-64908614D03*
%TD*%
%TO.C,D27*%
X173930000Y-60583268D03*
X179450000Y-60583268D03*
%TD*%
%TO.C,D26*%
X173930000Y-56257922D03*
X179450000Y-56257922D03*
%TD*%
%TO.C,D25*%
X173930000Y-51932576D03*
X179450000Y-51932576D03*
%TD*%
%TO.C,D24*%
X143930000Y-82210000D03*
X149450000Y-82210000D03*
%TD*%
%TO.C,D23*%
X143930000Y-77881426D03*
X149450000Y-77881426D03*
%TD*%
%TO.C,D22*%
X143930000Y-73552855D03*
X149450000Y-73552855D03*
%TD*%
%TO.C,D21*%
X143930000Y-69224284D03*
X149450000Y-69224284D03*
%TD*%
%TO.C,D20*%
X143930000Y-64895713D03*
X149450000Y-64895713D03*
%TD*%
%TO.C,D19*%
X143930000Y-60567142D03*
X149450000Y-60567142D03*
%TD*%
%TO.C,D18*%
X143930000Y-56238571D03*
X149450000Y-56238571D03*
%TD*%
%TO.C,D17*%
X143930000Y-51910000D03*
X149450000Y-51910000D03*
%TD*%
%TO.C,D16*%
X113930000Y-82210000D03*
X119450000Y-82210000D03*
%TD*%
%TO.C,D15*%
X113930000Y-77892024D03*
X119450000Y-77892024D03*
%TD*%
%TO.C,D14*%
X113930000Y-73574052D03*
X119450000Y-73574052D03*
%TD*%
%TO.C,D13*%
X113930000Y-69256080D03*
X119450000Y-69256080D03*
%TD*%
%TO.C,D12*%
X113930000Y-64938108D03*
X119450000Y-64938108D03*
%TD*%
%TO.C,D11*%
X113930000Y-60620136D03*
X119450000Y-60620136D03*
%TD*%
%TO.C,D10*%
X113930000Y-56302164D03*
X119450000Y-56302164D03*
%TD*%
%TO.C,D9*%
X113930000Y-51984192D03*
X119450000Y-51984192D03*
%TD*%
%TO.C,D8*%
X83930000Y-82210000D03*
X89450000Y-82210000D03*
%TD*%
%TO.C,D7*%
X83930000Y-77895710D03*
X89450000Y-77895710D03*
%TD*%
%TO.C,D6*%
X83930000Y-73581425D03*
X89450000Y-73581425D03*
%TD*%
%TO.C,D5*%
X83930000Y-69267140D03*
X89450000Y-69267140D03*
%TD*%
%TO.C,D4*%
X83930000Y-64952855D03*
X89450000Y-64952855D03*
%TD*%
%TO.C,D3*%
X83930000Y-60638570D03*
X89450000Y-60638570D03*
%TD*%
%TO.C,D2*%
X83930000Y-56324285D03*
X89450000Y-56324285D03*
%TD*%
%TO.C,D1*%
X83930000Y-52010000D03*
X89450000Y-52010000D03*
%TD*%
%TO.C,D34*%
X79230000Y-52410000D03*
X73710000Y-52410000D03*
%TD*%
%TO.C,D33*%
X79230000Y-50300000D03*
X73710000Y-50300000D03*
%TD*%
D13*
%TO.C,J3*%
X203180000Y-85492000D03*
X203180000Y-84222000D03*
X203180000Y-82952000D03*
X203180000Y-81682000D03*
X203180000Y-80412000D03*
X203180000Y-79142000D03*
X203180000Y-77872000D03*
X203180000Y-76602000D03*
X203180000Y-75332000D03*
G36*
G01*
X202430000Y-73562000D02*
X203930000Y-73562000D01*
G75*
G02*
X204180000Y-73812000I0J-250000D01*
G01*
X204180000Y-74312000D01*
G75*
G02*
X203930000Y-74562000I-250000J0D01*
G01*
X202430000Y-74562000D01*
G75*
G02*
X202180000Y-74312000I0J250000D01*
G01*
X202180000Y-73812000D01*
G75*
G02*
X202430000Y-73562000I250000J0D01*
G01*
G37*
%TD*%
D14*
%TO.C,J4*%
X217025000Y-77300000D03*
D15*
X214875000Y-74500000D03*
X214875000Y-80100000D03*
%TD*%
D16*
%TO.C,J2*%
X217350000Y-53200000D03*
D17*
X217350000Y-55740000D03*
X217350000Y-58280000D03*
X217350000Y-60820000D03*
X217350000Y-63360000D03*
X217350000Y-65900000D03*
%TD*%
%TO.C,J1*%
G36*
G01*
X176670000Y-48650000D02*
X176670000Y-50050000D01*
G75*
G02*
X176370000Y-50350000I-300000J0D01*
G01*
X175770000Y-50350000D01*
G75*
G02*
X175470000Y-50050000I0J300000D01*
G01*
X175470000Y-48650000D01*
G75*
G02*
X175770000Y-48350000I300000J0D01*
G01*
X176370000Y-48350000D01*
G75*
G02*
X176670000Y-48650000I0J-300000D01*
G01*
G37*
D18*
X173530000Y-49350000D03*
X170990000Y-49350000D03*
X168450000Y-49350000D03*
X165910000Y-49350000D03*
X163370000Y-49350000D03*
%TD*%
M02*
