%TF.GenerationSoftware,KiCad,Pcbnew,5.1.9-73d0e3b20d~88~ubuntu20.04.1*%
%TF.CreationDate,2021-03-03T11:26:58+04:00*%
%TF.ProjectId,interface_board,696e7465-7266-4616-9365-5f626f617264,rev?*%
%TF.SameCoordinates,Original*%
%TF.FileFunction,Legend,Top*%
%TF.FilePolarity,Positive*%
%FSLAX46Y46*%
G04 Gerber Fmt 4.6, Leading zero omitted, Abs format (unit mm)*
G04 Created by KiCad (PCBNEW 5.1.9-73d0e3b20d~88~ubuntu20.04.1) date 2021-03-03 11:26:58*
%MOMM*%
%LPD*%
G01*
G04 APERTURE LIST*
%ADD10C,0.150000*%
%TA.AperFunction,Profile*%
%ADD11C,0.050000*%
%TD*%
%TA.AperFunction,Profile*%
%ADD12C,0.100000*%
%TD*%
%ADD13C,0.120000*%
G04 APERTURE END LIST*
D10*
X126580000Y-52266666D02*
X126580000Y-51566666D01*
X126580000Y-51900000D02*
X126980000Y-51900000D01*
X126980000Y-52266666D02*
X126980000Y-51566666D01*
X127413333Y-52266666D02*
X127346666Y-52233333D01*
X127313333Y-52200000D01*
X127280000Y-52133333D01*
X127280000Y-51933333D01*
X127313333Y-51866666D01*
X127346666Y-51833333D01*
X127413333Y-51800000D01*
X127513333Y-51800000D01*
X127580000Y-51833333D01*
X127613333Y-51866666D01*
X127646666Y-51933333D01*
X127646666Y-52133333D01*
X127613333Y-52200000D01*
X127580000Y-52233333D01*
X127513333Y-52266666D01*
X127413333Y-52266666D01*
X127946666Y-52266666D02*
X127946666Y-51800000D01*
X127946666Y-51866666D02*
X127980000Y-51833333D01*
X128046666Y-51800000D01*
X128146666Y-51800000D01*
X128213333Y-51833333D01*
X128246666Y-51900000D01*
X128246666Y-52266666D01*
X128246666Y-51900000D02*
X128280000Y-51833333D01*
X128346666Y-51800000D01*
X128446666Y-51800000D01*
X128513333Y-51833333D01*
X128546666Y-51900000D01*
X128546666Y-52266666D01*
X129146666Y-52233333D02*
X129080000Y-52266666D01*
X128946666Y-52266666D01*
X128880000Y-52233333D01*
X128846666Y-52166666D01*
X128846666Y-51900000D01*
X128880000Y-51833333D01*
X128946666Y-51800000D01*
X129080000Y-51800000D01*
X129146666Y-51833333D01*
X129180000Y-51900000D01*
X129180000Y-51966666D01*
X128846666Y-52033333D01*
X130346666Y-52266666D02*
X130013333Y-52266666D01*
X130013333Y-51566666D01*
X130580000Y-52266666D02*
X130580000Y-51800000D01*
X130580000Y-51566666D02*
X130546666Y-51600000D01*
X130580000Y-51633333D01*
X130613333Y-51600000D01*
X130580000Y-51566666D01*
X130580000Y-51633333D01*
X131213333Y-51800000D02*
X131213333Y-52366666D01*
X131180000Y-52433333D01*
X131146666Y-52466666D01*
X131080000Y-52500000D01*
X130980000Y-52500000D01*
X130913333Y-52466666D01*
X131213333Y-52233333D02*
X131146666Y-52266666D01*
X131013333Y-52266666D01*
X130946666Y-52233333D01*
X130913333Y-52200000D01*
X130880000Y-52133333D01*
X130880000Y-51933333D01*
X130913333Y-51866666D01*
X130946666Y-51833333D01*
X131013333Y-51800000D01*
X131146666Y-51800000D01*
X131213333Y-51833333D01*
X131546666Y-52266666D02*
X131546666Y-51566666D01*
X131846666Y-52266666D02*
X131846666Y-51900000D01*
X131813333Y-51833333D01*
X131746666Y-51800000D01*
X131646666Y-51800000D01*
X131580000Y-51833333D01*
X131546666Y-51866666D01*
X132080000Y-51800000D02*
X132346666Y-51800000D01*
X132180000Y-51566666D02*
X132180000Y-52166666D01*
X132213333Y-52233333D01*
X132280000Y-52266666D01*
X132346666Y-52266666D01*
X133513333Y-52200000D02*
X133480000Y-52233333D01*
X133380000Y-52266666D01*
X133313333Y-52266666D01*
X133213333Y-52233333D01*
X133146666Y-52166666D01*
X133113333Y-52100000D01*
X133080000Y-51966666D01*
X133080000Y-51866666D01*
X133113333Y-51733333D01*
X133146666Y-51666666D01*
X133213333Y-51600000D01*
X133313333Y-51566666D01*
X133380000Y-51566666D01*
X133480000Y-51600000D01*
X133513333Y-51633333D01*
X133913333Y-52266666D02*
X133846666Y-52233333D01*
X133813333Y-52200000D01*
X133780000Y-52133333D01*
X133780000Y-51933333D01*
X133813333Y-51866666D01*
X133846666Y-51833333D01*
X133913333Y-51800000D01*
X134013333Y-51800000D01*
X134080000Y-51833333D01*
X134113333Y-51866666D01*
X134146666Y-51933333D01*
X134146666Y-52133333D01*
X134113333Y-52200000D01*
X134080000Y-52233333D01*
X134013333Y-52266666D01*
X133913333Y-52266666D01*
X134446666Y-51800000D02*
X134446666Y-52266666D01*
X134446666Y-51866666D02*
X134480000Y-51833333D01*
X134546666Y-51800000D01*
X134646666Y-51800000D01*
X134713333Y-51833333D01*
X134746666Y-51900000D01*
X134746666Y-52266666D01*
X134980000Y-51800000D02*
X135246666Y-51800000D01*
X135080000Y-51566666D02*
X135080000Y-52166666D01*
X135113333Y-52233333D01*
X135180000Y-52266666D01*
X135246666Y-52266666D01*
X135480000Y-52266666D02*
X135480000Y-51800000D01*
X135480000Y-51933333D02*
X135513333Y-51866666D01*
X135546666Y-51833333D01*
X135613333Y-51800000D01*
X135680000Y-51800000D01*
X136013333Y-52266666D02*
X135946666Y-52233333D01*
X135913333Y-52200000D01*
X135880000Y-52133333D01*
X135880000Y-51933333D01*
X135913333Y-51866666D01*
X135946666Y-51833333D01*
X136013333Y-51800000D01*
X136113333Y-51800000D01*
X136180000Y-51833333D01*
X136213333Y-51866666D01*
X136246666Y-51933333D01*
X136246666Y-52133333D01*
X136213333Y-52200000D01*
X136180000Y-52233333D01*
X136113333Y-52266666D01*
X136013333Y-52266666D01*
X136646666Y-52266666D02*
X136580000Y-52233333D01*
X136546666Y-52166666D01*
X136546666Y-51566666D01*
X137013333Y-52266666D02*
X136946666Y-52233333D01*
X136913333Y-52166666D01*
X136913333Y-51566666D01*
X137546666Y-52233333D02*
X137480000Y-52266666D01*
X137346666Y-52266666D01*
X137280000Y-52233333D01*
X137246666Y-52166666D01*
X137246666Y-51900000D01*
X137280000Y-51833333D01*
X137346666Y-51800000D01*
X137480000Y-51800000D01*
X137546666Y-51833333D01*
X137580000Y-51900000D01*
X137580000Y-51966666D01*
X137246666Y-52033333D01*
X137880000Y-52266666D02*
X137880000Y-51800000D01*
X137880000Y-51933333D02*
X137913333Y-51866666D01*
X137946666Y-51833333D01*
X138013333Y-51800000D01*
X138080000Y-51800000D01*
X128380000Y-53466666D02*
X128380000Y-52766666D01*
X128713333Y-53000000D02*
X128713333Y-53466666D01*
X128713333Y-53066666D02*
X128746666Y-53033333D01*
X128813333Y-53000000D01*
X128913333Y-53000000D01*
X128980000Y-53033333D01*
X129013333Y-53100000D01*
X129013333Y-53466666D01*
X129246666Y-53000000D02*
X129513333Y-53000000D01*
X129346666Y-52766666D02*
X129346666Y-53366666D01*
X129380000Y-53433333D01*
X129446666Y-53466666D01*
X129513333Y-53466666D01*
X130013333Y-53433333D02*
X129946666Y-53466666D01*
X129813333Y-53466666D01*
X129746666Y-53433333D01*
X129713333Y-53366666D01*
X129713333Y-53100000D01*
X129746666Y-53033333D01*
X129813333Y-53000000D01*
X129946666Y-53000000D01*
X130013333Y-53033333D01*
X130046666Y-53100000D01*
X130046666Y-53166666D01*
X129713333Y-53233333D01*
X130346666Y-53466666D02*
X130346666Y-53000000D01*
X130346666Y-53133333D02*
X130380000Y-53066666D01*
X130413333Y-53033333D01*
X130480000Y-53000000D01*
X130546666Y-53000000D01*
X130680000Y-53000000D02*
X130946666Y-53000000D01*
X130780000Y-53466666D02*
X130780000Y-52866666D01*
X130813333Y-52800000D01*
X130880000Y-52766666D01*
X130946666Y-52766666D01*
X131480000Y-53466666D02*
X131480000Y-53100000D01*
X131446666Y-53033333D01*
X131380000Y-53000000D01*
X131246666Y-53000000D01*
X131180000Y-53033333D01*
X131480000Y-53433333D02*
X131413333Y-53466666D01*
X131246666Y-53466666D01*
X131180000Y-53433333D01*
X131146666Y-53366666D01*
X131146666Y-53300000D01*
X131180000Y-53233333D01*
X131246666Y-53200000D01*
X131413333Y-53200000D01*
X131480000Y-53166666D01*
X132113333Y-53433333D02*
X132046666Y-53466666D01*
X131913333Y-53466666D01*
X131846666Y-53433333D01*
X131813333Y-53400000D01*
X131780000Y-53333333D01*
X131780000Y-53133333D01*
X131813333Y-53066666D01*
X131846666Y-53033333D01*
X131913333Y-53000000D01*
X132046666Y-53000000D01*
X132113333Y-53033333D01*
X132680000Y-53433333D02*
X132613333Y-53466666D01*
X132480000Y-53466666D01*
X132413333Y-53433333D01*
X132380000Y-53366666D01*
X132380000Y-53100000D01*
X132413333Y-53033333D01*
X132480000Y-53000000D01*
X132613333Y-53000000D01*
X132680000Y-53033333D01*
X132713333Y-53100000D01*
X132713333Y-53166666D01*
X132380000Y-53233333D01*
X133546666Y-53466666D02*
X133546666Y-52766666D01*
X133546666Y-53033333D02*
X133613333Y-53000000D01*
X133746666Y-53000000D01*
X133813333Y-53033333D01*
X133846666Y-53066666D01*
X133880000Y-53133333D01*
X133880000Y-53333333D01*
X133846666Y-53400000D01*
X133813333Y-53433333D01*
X133746666Y-53466666D01*
X133613333Y-53466666D01*
X133546666Y-53433333D01*
X134280000Y-53466666D02*
X134213333Y-53433333D01*
X134180000Y-53400000D01*
X134146666Y-53333333D01*
X134146666Y-53133333D01*
X134180000Y-53066666D01*
X134213333Y-53033333D01*
X134280000Y-53000000D01*
X134380000Y-53000000D01*
X134446666Y-53033333D01*
X134480000Y-53066666D01*
X134513333Y-53133333D01*
X134513333Y-53333333D01*
X134480000Y-53400000D01*
X134446666Y-53433333D01*
X134380000Y-53466666D01*
X134280000Y-53466666D01*
X135113333Y-53466666D02*
X135113333Y-53100000D01*
X135080000Y-53033333D01*
X135013333Y-53000000D01*
X134880000Y-53000000D01*
X134813333Y-53033333D01*
X135113333Y-53433333D02*
X135046666Y-53466666D01*
X134880000Y-53466666D01*
X134813333Y-53433333D01*
X134780000Y-53366666D01*
X134780000Y-53300000D01*
X134813333Y-53233333D01*
X134880000Y-53200000D01*
X135046666Y-53200000D01*
X135113333Y-53166666D01*
X135446666Y-53466666D02*
X135446666Y-53000000D01*
X135446666Y-53133333D02*
X135480000Y-53066666D01*
X135513333Y-53033333D01*
X135580000Y-53000000D01*
X135646666Y-53000000D01*
X136180000Y-53466666D02*
X136180000Y-52766666D01*
X136180000Y-53433333D02*
X136113333Y-53466666D01*
X135980000Y-53466666D01*
X135913333Y-53433333D01*
X135880000Y-53400000D01*
X135846666Y-53333333D01*
X135846666Y-53133333D01*
X135880000Y-53066666D01*
X135913333Y-53033333D01*
X135980000Y-53000000D01*
X136113333Y-53000000D01*
X136180000Y-53033333D01*
X130563333Y-54666666D02*
X130563333Y-54200000D01*
X130563333Y-54333333D02*
X130596666Y-54266666D01*
X130630000Y-54233333D01*
X130696666Y-54200000D01*
X130763333Y-54200000D01*
X131263333Y-54633333D02*
X131196666Y-54666666D01*
X131063333Y-54666666D01*
X130996666Y-54633333D01*
X130963333Y-54566666D01*
X130963333Y-54300000D01*
X130996666Y-54233333D01*
X131063333Y-54200000D01*
X131196666Y-54200000D01*
X131263333Y-54233333D01*
X131296666Y-54300000D01*
X131296666Y-54366666D01*
X130963333Y-54433333D01*
X131530000Y-54200000D02*
X131696666Y-54666666D01*
X131863333Y-54200000D01*
X132796666Y-53966666D02*
X132863333Y-53966666D01*
X132930000Y-54000000D01*
X132963333Y-54033333D01*
X132996666Y-54100000D01*
X133030000Y-54233333D01*
X133030000Y-54400000D01*
X132996666Y-54533333D01*
X132963333Y-54600000D01*
X132930000Y-54633333D01*
X132863333Y-54666666D01*
X132796666Y-54666666D01*
X132730000Y-54633333D01*
X132696666Y-54600000D01*
X132663333Y-54533333D01*
X132630000Y-54400000D01*
X132630000Y-54233333D01*
X132663333Y-54100000D01*
X132696666Y-54033333D01*
X132730000Y-54000000D01*
X132796666Y-53966666D01*
X133330000Y-54600000D02*
X133363333Y-54633333D01*
X133330000Y-54666666D01*
X133296666Y-54633333D01*
X133330000Y-54600000D01*
X133330000Y-54666666D01*
X133963333Y-54200000D02*
X133963333Y-54666666D01*
X133796666Y-53933333D02*
X133630000Y-54433333D01*
X134063333Y-54433333D01*
X129413333Y-55233333D02*
X129446666Y-55200000D01*
X129513333Y-55166666D01*
X129680000Y-55166666D01*
X129746666Y-55200000D01*
X129780000Y-55233333D01*
X129813333Y-55300000D01*
X129813333Y-55366666D01*
X129780000Y-55466666D01*
X129380000Y-55866666D01*
X129813333Y-55866666D01*
X130480000Y-55866666D02*
X130080000Y-55866666D01*
X130280000Y-55866666D02*
X130280000Y-55166666D01*
X130213333Y-55266666D01*
X130146666Y-55333333D01*
X130080000Y-55366666D01*
X130780000Y-55800000D02*
X130813333Y-55833333D01*
X130780000Y-55866666D01*
X130746666Y-55833333D01*
X130780000Y-55800000D01*
X130780000Y-55866666D01*
X131246666Y-55166666D02*
X131313333Y-55166666D01*
X131380000Y-55200000D01*
X131413333Y-55233333D01*
X131446666Y-55300000D01*
X131480000Y-55433333D01*
X131480000Y-55600000D01*
X131446666Y-55733333D01*
X131413333Y-55800000D01*
X131380000Y-55833333D01*
X131313333Y-55866666D01*
X131246666Y-55866666D01*
X131180000Y-55833333D01*
X131146666Y-55800000D01*
X131113333Y-55733333D01*
X131080000Y-55600000D01*
X131080000Y-55433333D01*
X131113333Y-55300000D01*
X131146666Y-55233333D01*
X131180000Y-55200000D01*
X131246666Y-55166666D01*
X131746666Y-55233333D02*
X131780000Y-55200000D01*
X131846666Y-55166666D01*
X132013333Y-55166666D01*
X132080000Y-55200000D01*
X132113333Y-55233333D01*
X132146666Y-55300000D01*
X132146666Y-55366666D01*
X132113333Y-55466666D01*
X131713333Y-55866666D01*
X132146666Y-55866666D01*
X132446666Y-55800000D02*
X132480000Y-55833333D01*
X132446666Y-55866666D01*
X132413333Y-55833333D01*
X132446666Y-55800000D01*
X132446666Y-55866666D01*
X132746666Y-55233333D02*
X132780000Y-55200000D01*
X132846666Y-55166666D01*
X133013333Y-55166666D01*
X133080000Y-55200000D01*
X133113333Y-55233333D01*
X133146666Y-55300000D01*
X133146666Y-55366666D01*
X133113333Y-55466666D01*
X132713333Y-55866666D01*
X133146666Y-55866666D01*
X133580000Y-55166666D02*
X133646666Y-55166666D01*
X133713333Y-55200000D01*
X133746666Y-55233333D01*
X133780000Y-55300000D01*
X133813333Y-55433333D01*
X133813333Y-55600000D01*
X133780000Y-55733333D01*
X133746666Y-55800000D01*
X133713333Y-55833333D01*
X133646666Y-55866666D01*
X133580000Y-55866666D01*
X133513333Y-55833333D01*
X133480000Y-55800000D01*
X133446666Y-55733333D01*
X133413333Y-55600000D01*
X133413333Y-55433333D01*
X133446666Y-55300000D01*
X133480000Y-55233333D01*
X133513333Y-55200000D01*
X133580000Y-55166666D01*
X134080000Y-55233333D02*
X134113333Y-55200000D01*
X134180000Y-55166666D01*
X134346666Y-55166666D01*
X134413333Y-55200000D01*
X134446666Y-55233333D01*
X134480000Y-55300000D01*
X134480000Y-55366666D01*
X134446666Y-55466666D01*
X134046666Y-55866666D01*
X134480000Y-55866666D01*
X135146666Y-55866666D02*
X134746666Y-55866666D01*
X134946666Y-55866666D02*
X134946666Y-55166666D01*
X134880000Y-55266666D01*
X134813333Y-55333333D01*
X134746666Y-55366666D01*
D11*
X222900000Y-88100000D02*
X66700000Y-88100000D01*
D12*
X222900000Y-46100000D02*
X222900000Y-88100000D01*
X66700000Y-88100000D02*
X66700000Y-46100000D01*
X66700000Y-46100000D02*
X222900000Y-46100000D01*
D13*
%TO.C,D32*%
X174815000Y-83110000D02*
X177700000Y-83110000D01*
X174815000Y-81290000D02*
X174815000Y-83110000D01*
X177700000Y-81290000D02*
X174815000Y-81290000D01*
%TO.C,D31*%
X174815000Y-78784652D02*
X177700000Y-78784652D01*
X174815000Y-76964652D02*
X174815000Y-78784652D01*
X177700000Y-76964652D02*
X174815000Y-76964652D01*
%TO.C,D30*%
X174815000Y-74459306D02*
X177700000Y-74459306D01*
X174815000Y-72639306D02*
X174815000Y-74459306D01*
X177700000Y-72639306D02*
X174815000Y-72639306D01*
%TO.C,D29*%
X174815000Y-70133960D02*
X177700000Y-70133960D01*
X174815000Y-68313960D02*
X174815000Y-70133960D01*
X177700000Y-68313960D02*
X174815000Y-68313960D01*
%TO.C,D28*%
X174815000Y-65808614D02*
X177700000Y-65808614D01*
X174815000Y-63988614D02*
X174815000Y-65808614D01*
X177700000Y-63988614D02*
X174815000Y-63988614D01*
%TO.C,D27*%
X174815000Y-61483268D02*
X177700000Y-61483268D01*
X174815000Y-59663268D02*
X174815000Y-61483268D01*
X177700000Y-59663268D02*
X174815000Y-59663268D01*
%TO.C,D26*%
X174815000Y-57157922D02*
X177700000Y-57157922D01*
X174815000Y-55337922D02*
X174815000Y-57157922D01*
X177700000Y-55337922D02*
X174815000Y-55337922D01*
%TO.C,D25*%
X174815000Y-52832576D02*
X177700000Y-52832576D01*
X174815000Y-51012576D02*
X174815000Y-52832576D01*
X177700000Y-51012576D02*
X174815000Y-51012576D01*
%TO.C,D24*%
X144815000Y-83110000D02*
X147700000Y-83110000D01*
X144815000Y-81290000D02*
X144815000Y-83110000D01*
X147700000Y-81290000D02*
X144815000Y-81290000D01*
%TO.C,D23*%
X144815000Y-78781426D02*
X147700000Y-78781426D01*
X144815000Y-76961426D02*
X144815000Y-78781426D01*
X147700000Y-76961426D02*
X144815000Y-76961426D01*
%TO.C,D22*%
X144815000Y-74452855D02*
X147700000Y-74452855D01*
X144815000Y-72632855D02*
X144815000Y-74452855D01*
X147700000Y-72632855D02*
X144815000Y-72632855D01*
%TO.C,D21*%
X144815000Y-70124284D02*
X147700000Y-70124284D01*
X144815000Y-68304284D02*
X144815000Y-70124284D01*
X147700000Y-68304284D02*
X144815000Y-68304284D01*
%TO.C,D20*%
X144815000Y-65795713D02*
X147700000Y-65795713D01*
X144815000Y-63975713D02*
X144815000Y-65795713D01*
X147700000Y-63975713D02*
X144815000Y-63975713D01*
%TO.C,D19*%
X144815000Y-61467142D02*
X147700000Y-61467142D01*
X144815000Y-59647142D02*
X144815000Y-61467142D01*
X147700000Y-59647142D02*
X144815000Y-59647142D01*
%TO.C,D18*%
X144815000Y-57138571D02*
X147700000Y-57138571D01*
X144815000Y-55318571D02*
X144815000Y-57138571D01*
X147700000Y-55318571D02*
X144815000Y-55318571D01*
%TO.C,D17*%
X144815000Y-52810000D02*
X147700000Y-52810000D01*
X144815000Y-50990000D02*
X144815000Y-52810000D01*
X147700000Y-50990000D02*
X144815000Y-50990000D01*
%TO.C,D16*%
X114815000Y-83110000D02*
X117700000Y-83110000D01*
X114815000Y-81290000D02*
X114815000Y-83110000D01*
X117700000Y-81290000D02*
X114815000Y-81290000D01*
%TO.C,D15*%
X114815000Y-78792024D02*
X117700000Y-78792024D01*
X114815000Y-76972024D02*
X114815000Y-78792024D01*
X117700000Y-76972024D02*
X114815000Y-76972024D01*
%TO.C,D14*%
X114815000Y-74474052D02*
X117700000Y-74474052D01*
X114815000Y-72654052D02*
X114815000Y-74474052D01*
X117700000Y-72654052D02*
X114815000Y-72654052D01*
%TO.C,D13*%
X114815000Y-70156080D02*
X117700000Y-70156080D01*
X114815000Y-68336080D02*
X114815000Y-70156080D01*
X117700000Y-68336080D02*
X114815000Y-68336080D01*
%TO.C,D12*%
X114815000Y-65838108D02*
X117700000Y-65838108D01*
X114815000Y-64018108D02*
X114815000Y-65838108D01*
X117700000Y-64018108D02*
X114815000Y-64018108D01*
%TO.C,D11*%
X114815000Y-61520136D02*
X117700000Y-61520136D01*
X114815000Y-59700136D02*
X114815000Y-61520136D01*
X117700000Y-59700136D02*
X114815000Y-59700136D01*
%TO.C,D10*%
X114815000Y-57202164D02*
X117700000Y-57202164D01*
X114815000Y-55382164D02*
X114815000Y-57202164D01*
X117700000Y-55382164D02*
X114815000Y-55382164D01*
%TO.C,D9*%
X114815000Y-52884192D02*
X117700000Y-52884192D01*
X114815000Y-51064192D02*
X114815000Y-52884192D01*
X117700000Y-51064192D02*
X114815000Y-51064192D01*
%TO.C,D8*%
X84815000Y-83110000D02*
X87700000Y-83110000D01*
X84815000Y-81290000D02*
X84815000Y-83110000D01*
X87700000Y-81290000D02*
X84815000Y-81290000D01*
%TO.C,D7*%
X84815000Y-78795710D02*
X87700000Y-78795710D01*
X84815000Y-76975710D02*
X84815000Y-78795710D01*
X87700000Y-76975710D02*
X84815000Y-76975710D01*
%TO.C,D6*%
X84815000Y-74481425D02*
X87700000Y-74481425D01*
X84815000Y-72661425D02*
X84815000Y-74481425D01*
X87700000Y-72661425D02*
X84815000Y-72661425D01*
%TO.C,D5*%
X84815000Y-70167140D02*
X87700000Y-70167140D01*
X84815000Y-68347140D02*
X84815000Y-70167140D01*
X87700000Y-68347140D02*
X84815000Y-68347140D01*
%TO.C,D4*%
X84815000Y-65852855D02*
X87700000Y-65852855D01*
X84815000Y-64032855D02*
X84815000Y-65852855D01*
X87700000Y-64032855D02*
X84815000Y-64032855D01*
%TO.C,D3*%
X84815000Y-61538570D02*
X87700000Y-61538570D01*
X84815000Y-59718570D02*
X84815000Y-61538570D01*
X87700000Y-59718570D02*
X84815000Y-59718570D01*
%TO.C,D2*%
X84815000Y-57224285D02*
X87700000Y-57224285D01*
X84815000Y-55404285D02*
X84815000Y-57224285D01*
X87700000Y-55404285D02*
X84815000Y-55404285D01*
%TO.C,D1*%
X84815000Y-52910000D02*
X87700000Y-52910000D01*
X84815000Y-51090000D02*
X84815000Y-52910000D01*
X87700000Y-51090000D02*
X84815000Y-51090000D01*
%TO.C,D34*%
X78345000Y-51510000D02*
X75460000Y-51510000D01*
X78345000Y-53330000D02*
X78345000Y-51510000D01*
X75460000Y-53330000D02*
X78345000Y-53330000D01*
%TO.C,D33*%
X78345000Y-49400000D02*
X75460000Y-49400000D01*
X78345000Y-51220000D02*
X78345000Y-49400000D01*
X75460000Y-51220000D02*
X78345000Y-51220000D01*
%TO.C,R5*%
X70422742Y-51122500D02*
X70897258Y-51122500D01*
X70422742Y-50077500D02*
X70897258Y-50077500D01*
%TO.C,U4*%
X186315000Y-62120000D02*
X184650000Y-62120000D01*
X186315000Y-61840000D02*
X186315000Y-62120000D01*
X188700000Y-61840000D02*
X186315000Y-61840000D01*
X191085000Y-61840000D02*
X191085000Y-62120000D01*
X188700000Y-61840000D02*
X191085000Y-61840000D01*
X186315000Y-72360000D02*
X186315000Y-72080000D01*
X188700000Y-72360000D02*
X186315000Y-72360000D01*
X191085000Y-72360000D02*
X191085000Y-72080000D01*
X188700000Y-72360000D02*
X191085000Y-72360000D01*
%TO.C,U3*%
X156315000Y-62120000D02*
X154650000Y-62120000D01*
X156315000Y-61840000D02*
X156315000Y-62120000D01*
X158700000Y-61840000D02*
X156315000Y-61840000D01*
X161085000Y-61840000D02*
X161085000Y-62120000D01*
X158700000Y-61840000D02*
X161085000Y-61840000D01*
X156315000Y-72360000D02*
X156315000Y-72080000D01*
X158700000Y-72360000D02*
X156315000Y-72360000D01*
X161085000Y-72360000D02*
X161085000Y-72080000D01*
X158700000Y-72360000D02*
X161085000Y-72360000D01*
%TO.C,U2*%
X126315000Y-62120000D02*
X124650000Y-62120000D01*
X126315000Y-61840000D02*
X126315000Y-62120000D01*
X128700000Y-61840000D02*
X126315000Y-61840000D01*
X131085000Y-61840000D02*
X131085000Y-62120000D01*
X128700000Y-61840000D02*
X131085000Y-61840000D01*
X126315000Y-72360000D02*
X126315000Y-72080000D01*
X128700000Y-72360000D02*
X126315000Y-72360000D01*
X131085000Y-72360000D02*
X131085000Y-72080000D01*
X128700000Y-72360000D02*
X131085000Y-72360000D01*
%TO.C,U1*%
X96315000Y-62120000D02*
X94650000Y-62120000D01*
X96315000Y-61840000D02*
X96315000Y-62120000D01*
X98700000Y-61840000D02*
X96315000Y-61840000D01*
X101085000Y-61840000D02*
X101085000Y-62120000D01*
X98700000Y-61840000D02*
X101085000Y-61840000D01*
X96315000Y-72360000D02*
X96315000Y-72080000D01*
X98700000Y-72360000D02*
X96315000Y-72360000D01*
X101085000Y-72360000D02*
X101085000Y-72080000D01*
X98700000Y-72360000D02*
X101085000Y-72360000D01*
%TO.C,R10*%
X208750242Y-81622500D02*
X209224758Y-81622500D01*
X208750242Y-80577500D02*
X209224758Y-80577500D01*
%TO.C,R9*%
X208737742Y-73972500D02*
X209212258Y-73972500D01*
X208737742Y-72927500D02*
X209212258Y-72927500D01*
%TO.C,R8*%
X209212258Y-71302500D02*
X208737742Y-71302500D01*
X209212258Y-72347500D02*
X208737742Y-72347500D01*
%TO.C,R7*%
X72942500Y-78692742D02*
X72942500Y-79167258D01*
X73987500Y-78692742D02*
X73987500Y-79167258D01*
%TO.C,R6*%
X75732500Y-79167258D02*
X75732500Y-78692742D01*
X74687500Y-79167258D02*
X74687500Y-78692742D01*
%TO.C,R4*%
X70422742Y-52752500D02*
X70897258Y-52752500D01*
X70422742Y-51707500D02*
X70897258Y-51707500D01*
%TO.C,R3*%
X99307500Y-77207258D02*
X99307500Y-76732742D01*
X98262500Y-77207258D02*
X98262500Y-76732742D01*
%TO.C,R2*%
X97675000Y-77207258D02*
X97675000Y-76732742D01*
X96630000Y-77207258D02*
X96630000Y-76732742D01*
%TO.C,R1*%
X99895000Y-76732742D02*
X99895000Y-77207258D01*
X100940000Y-76732742D02*
X100940000Y-77207258D01*
%TO.C,C7*%
X71630000Y-78252164D02*
X71630000Y-78467836D01*
X72350000Y-78252164D02*
X72350000Y-78467836D01*
%TO.C,C6*%
X191557836Y-59780000D02*
X191342164Y-59780000D01*
X191557836Y-60500000D02*
X191342164Y-60500000D01*
%TO.C,C5*%
X161577836Y-59810000D02*
X161362164Y-59810000D01*
X161577836Y-60530000D02*
X161362164Y-60530000D01*
%TO.C,C4*%
X131557836Y-59780000D02*
X131342164Y-59780000D01*
X131557836Y-60500000D02*
X131342164Y-60500000D01*
%TO.C,C3*%
X101557836Y-59840000D02*
X101342164Y-59840000D01*
X101557836Y-60560000D02*
X101342164Y-60560000D01*
%TO.C,C2*%
X96030000Y-77110580D02*
X96030000Y-76829420D01*
X95010000Y-77110580D02*
X95010000Y-76829420D01*
%TO.C,C1*%
X101540000Y-76829420D02*
X101540000Y-77110580D01*
X102560000Y-76829420D02*
X102560000Y-77110580D01*
%TO.C,J4*%
X214125000Y-75300000D02*
X214125000Y-73150000D01*
X217675000Y-73150000D02*
X217675000Y-76050000D01*
X214125000Y-81450000D02*
X217675000Y-81450000D01*
X217675000Y-81450000D02*
X217675000Y-78550000D01*
X214125000Y-73150000D02*
X217675000Y-73150000D01*
X214125000Y-79300000D02*
X214125000Y-81450000D01*
X214125000Y-79000000D02*
X214125000Y-78400000D01*
X214875000Y-79000000D02*
X214125000Y-79000000D01*
%TO.C,J2*%
X216020000Y-51870000D02*
X217350000Y-51870000D01*
X216020000Y-53200000D02*
X216020000Y-51870000D01*
X216020000Y-54470000D02*
X218680000Y-54470000D01*
X218680000Y-54470000D02*
X218680000Y-67230000D01*
X216020000Y-54470000D02*
X216020000Y-67230000D01*
X216020000Y-67230000D02*
X218680000Y-67230000D01*
%TO.C,RN1*%
X81100000Y-60480000D02*
X80100000Y-60480000D01*
X81100000Y-57120000D02*
X80100000Y-57120000D01*
%TO.C,RN2*%
X81100000Y-74320000D02*
X80100000Y-74320000D01*
X81100000Y-77680000D02*
X80100000Y-77680000D01*
%TO.C,RN3*%
X111100000Y-57120000D02*
X110100000Y-57120000D01*
X111100000Y-60480000D02*
X110100000Y-60480000D01*
%TO.C,RN4*%
X111100000Y-77680000D02*
X110100000Y-77680000D01*
X111100000Y-74320000D02*
X110100000Y-74320000D01*
%TO.C,RN5*%
X141100000Y-57120000D02*
X140100000Y-57120000D01*
X141100000Y-60480000D02*
X140100000Y-60480000D01*
%TO.C,RN6*%
X141100000Y-77580000D02*
X140100000Y-77580000D01*
X141100000Y-74220000D02*
X140100000Y-74220000D01*
%TO.C,RN7*%
X171000000Y-57120000D02*
X170000000Y-57120000D01*
X171000000Y-60480000D02*
X170000000Y-60480000D01*
%TO.C,RN8*%
X171000000Y-77580000D02*
X170000000Y-77580000D01*
X171000000Y-74220000D02*
X170000000Y-74220000D01*
%TO.C,SW1*%
X75750000Y-74750000D02*
X76200000Y-74750000D01*
X76200000Y-74750000D02*
X76200000Y-68450000D01*
X76200000Y-68450000D02*
X75800000Y-68450000D01*
X74450000Y-74750000D02*
X71750000Y-74750000D01*
X71750000Y-68450000D02*
X74450000Y-68450000D01*
X70000000Y-74750000D02*
X70000000Y-68450000D01*
X70000000Y-68450000D02*
X70450000Y-68450000D01*
X70450000Y-74750000D02*
X70000000Y-74750000D01*
%TO.C,U5*%
X210100000Y-75490000D02*
X208300000Y-75490000D01*
X208300000Y-78710000D02*
X210750000Y-78710000D01*
%TD*%
%TO.C,D32*%
D10*
X175485714Y-81052380D02*
X175485714Y-80052380D01*
X175723809Y-80052380D01*
X175866666Y-80100000D01*
X175961904Y-80195238D01*
X176009523Y-80290476D01*
X176057142Y-80480952D01*
X176057142Y-80623809D01*
X176009523Y-80814285D01*
X175961904Y-80909523D01*
X175866666Y-81004761D01*
X175723809Y-81052380D01*
X175485714Y-81052380D01*
X176390476Y-80052380D02*
X177009523Y-80052380D01*
X176676190Y-80433333D01*
X176819047Y-80433333D01*
X176914285Y-80480952D01*
X176961904Y-80528571D01*
X177009523Y-80623809D01*
X177009523Y-80861904D01*
X176961904Y-80957142D01*
X176914285Y-81004761D01*
X176819047Y-81052380D01*
X176533333Y-81052380D01*
X176438095Y-81004761D01*
X176390476Y-80957142D01*
X177390476Y-80147619D02*
X177438095Y-80100000D01*
X177533333Y-80052380D01*
X177771428Y-80052380D01*
X177866666Y-80100000D01*
X177914285Y-80147619D01*
X177961904Y-80242857D01*
X177961904Y-80338095D01*
X177914285Y-80480952D01*
X177342857Y-81052380D01*
X177961904Y-81052380D01*
%TO.C,D31*%
X175485714Y-76727032D02*
X175485714Y-75727032D01*
X175723809Y-75727032D01*
X175866666Y-75774652D01*
X175961904Y-75869890D01*
X176009523Y-75965128D01*
X176057142Y-76155604D01*
X176057142Y-76298461D01*
X176009523Y-76488937D01*
X175961904Y-76584175D01*
X175866666Y-76679413D01*
X175723809Y-76727032D01*
X175485714Y-76727032D01*
X176390476Y-75727032D02*
X177009523Y-75727032D01*
X176676190Y-76107985D01*
X176819047Y-76107985D01*
X176914285Y-76155604D01*
X176961904Y-76203223D01*
X177009523Y-76298461D01*
X177009523Y-76536556D01*
X176961904Y-76631794D01*
X176914285Y-76679413D01*
X176819047Y-76727032D01*
X176533333Y-76727032D01*
X176438095Y-76679413D01*
X176390476Y-76631794D01*
X177961904Y-76727032D02*
X177390476Y-76727032D01*
X177676190Y-76727032D02*
X177676190Y-75727032D01*
X177580952Y-75869890D01*
X177485714Y-75965128D01*
X177390476Y-76012747D01*
%TO.C,D30*%
X175485714Y-72401686D02*
X175485714Y-71401686D01*
X175723809Y-71401686D01*
X175866666Y-71449306D01*
X175961904Y-71544544D01*
X176009523Y-71639782D01*
X176057142Y-71830258D01*
X176057142Y-71973115D01*
X176009523Y-72163591D01*
X175961904Y-72258829D01*
X175866666Y-72354067D01*
X175723809Y-72401686D01*
X175485714Y-72401686D01*
X176390476Y-71401686D02*
X177009523Y-71401686D01*
X176676190Y-71782639D01*
X176819047Y-71782639D01*
X176914285Y-71830258D01*
X176961904Y-71877877D01*
X177009523Y-71973115D01*
X177009523Y-72211210D01*
X176961904Y-72306448D01*
X176914285Y-72354067D01*
X176819047Y-72401686D01*
X176533333Y-72401686D01*
X176438095Y-72354067D01*
X176390476Y-72306448D01*
X177628571Y-71401686D02*
X177723809Y-71401686D01*
X177819047Y-71449306D01*
X177866666Y-71496925D01*
X177914285Y-71592163D01*
X177961904Y-71782639D01*
X177961904Y-72020734D01*
X177914285Y-72211210D01*
X177866666Y-72306448D01*
X177819047Y-72354067D01*
X177723809Y-72401686D01*
X177628571Y-72401686D01*
X177533333Y-72354067D01*
X177485714Y-72306448D01*
X177438095Y-72211210D01*
X177390476Y-72020734D01*
X177390476Y-71782639D01*
X177438095Y-71592163D01*
X177485714Y-71496925D01*
X177533333Y-71449306D01*
X177628571Y-71401686D01*
%TO.C,D29*%
X175485714Y-68076340D02*
X175485714Y-67076340D01*
X175723809Y-67076340D01*
X175866666Y-67123960D01*
X175961904Y-67219198D01*
X176009523Y-67314436D01*
X176057142Y-67504912D01*
X176057142Y-67647769D01*
X176009523Y-67838245D01*
X175961904Y-67933483D01*
X175866666Y-68028721D01*
X175723809Y-68076340D01*
X175485714Y-68076340D01*
X176438095Y-67171579D02*
X176485714Y-67123960D01*
X176580952Y-67076340D01*
X176819047Y-67076340D01*
X176914285Y-67123960D01*
X176961904Y-67171579D01*
X177009523Y-67266817D01*
X177009523Y-67362055D01*
X176961904Y-67504912D01*
X176390476Y-68076340D01*
X177009523Y-68076340D01*
X177485714Y-68076340D02*
X177676190Y-68076340D01*
X177771428Y-68028721D01*
X177819047Y-67981102D01*
X177914285Y-67838245D01*
X177961904Y-67647769D01*
X177961904Y-67266817D01*
X177914285Y-67171579D01*
X177866666Y-67123960D01*
X177771428Y-67076340D01*
X177580952Y-67076340D01*
X177485714Y-67123960D01*
X177438095Y-67171579D01*
X177390476Y-67266817D01*
X177390476Y-67504912D01*
X177438095Y-67600150D01*
X177485714Y-67647769D01*
X177580952Y-67695388D01*
X177771428Y-67695388D01*
X177866666Y-67647769D01*
X177914285Y-67600150D01*
X177961904Y-67504912D01*
%TO.C,D28*%
X175485714Y-63750994D02*
X175485714Y-62750994D01*
X175723809Y-62750994D01*
X175866666Y-62798614D01*
X175961904Y-62893852D01*
X176009523Y-62989090D01*
X176057142Y-63179566D01*
X176057142Y-63322423D01*
X176009523Y-63512899D01*
X175961904Y-63608137D01*
X175866666Y-63703375D01*
X175723809Y-63750994D01*
X175485714Y-63750994D01*
X176438095Y-62846233D02*
X176485714Y-62798614D01*
X176580952Y-62750994D01*
X176819047Y-62750994D01*
X176914285Y-62798614D01*
X176961904Y-62846233D01*
X177009523Y-62941471D01*
X177009523Y-63036709D01*
X176961904Y-63179566D01*
X176390476Y-63750994D01*
X177009523Y-63750994D01*
X177580952Y-63179566D02*
X177485714Y-63131947D01*
X177438095Y-63084328D01*
X177390476Y-62989090D01*
X177390476Y-62941471D01*
X177438095Y-62846233D01*
X177485714Y-62798614D01*
X177580952Y-62750994D01*
X177771428Y-62750994D01*
X177866666Y-62798614D01*
X177914285Y-62846233D01*
X177961904Y-62941471D01*
X177961904Y-62989090D01*
X177914285Y-63084328D01*
X177866666Y-63131947D01*
X177771428Y-63179566D01*
X177580952Y-63179566D01*
X177485714Y-63227185D01*
X177438095Y-63274804D01*
X177390476Y-63370042D01*
X177390476Y-63560518D01*
X177438095Y-63655756D01*
X177485714Y-63703375D01*
X177580952Y-63750994D01*
X177771428Y-63750994D01*
X177866666Y-63703375D01*
X177914285Y-63655756D01*
X177961904Y-63560518D01*
X177961904Y-63370042D01*
X177914285Y-63274804D01*
X177866666Y-63227185D01*
X177771428Y-63179566D01*
%TO.C,D27*%
X175485714Y-59425648D02*
X175485714Y-58425648D01*
X175723809Y-58425648D01*
X175866666Y-58473268D01*
X175961904Y-58568506D01*
X176009523Y-58663744D01*
X176057142Y-58854220D01*
X176057142Y-58997077D01*
X176009523Y-59187553D01*
X175961904Y-59282791D01*
X175866666Y-59378029D01*
X175723809Y-59425648D01*
X175485714Y-59425648D01*
X176438095Y-58520887D02*
X176485714Y-58473268D01*
X176580952Y-58425648D01*
X176819047Y-58425648D01*
X176914285Y-58473268D01*
X176961904Y-58520887D01*
X177009523Y-58616125D01*
X177009523Y-58711363D01*
X176961904Y-58854220D01*
X176390476Y-59425648D01*
X177009523Y-59425648D01*
X177342857Y-58425648D02*
X178009523Y-58425648D01*
X177580952Y-59425648D01*
%TO.C,D26*%
X175485714Y-55100302D02*
X175485714Y-54100302D01*
X175723809Y-54100302D01*
X175866666Y-54147922D01*
X175961904Y-54243160D01*
X176009523Y-54338398D01*
X176057142Y-54528874D01*
X176057142Y-54671731D01*
X176009523Y-54862207D01*
X175961904Y-54957445D01*
X175866666Y-55052683D01*
X175723809Y-55100302D01*
X175485714Y-55100302D01*
X176438095Y-54195541D02*
X176485714Y-54147922D01*
X176580952Y-54100302D01*
X176819047Y-54100302D01*
X176914285Y-54147922D01*
X176961904Y-54195541D01*
X177009523Y-54290779D01*
X177009523Y-54386017D01*
X176961904Y-54528874D01*
X176390476Y-55100302D01*
X177009523Y-55100302D01*
X177866666Y-54100302D02*
X177676190Y-54100302D01*
X177580952Y-54147922D01*
X177533333Y-54195541D01*
X177438095Y-54338398D01*
X177390476Y-54528874D01*
X177390476Y-54909826D01*
X177438095Y-55005064D01*
X177485714Y-55052683D01*
X177580952Y-55100302D01*
X177771428Y-55100302D01*
X177866666Y-55052683D01*
X177914285Y-55005064D01*
X177961904Y-54909826D01*
X177961904Y-54671731D01*
X177914285Y-54576493D01*
X177866666Y-54528874D01*
X177771428Y-54481255D01*
X177580952Y-54481255D01*
X177485714Y-54528874D01*
X177438095Y-54576493D01*
X177390476Y-54671731D01*
%TO.C,D25*%
X177710714Y-50452380D02*
X177710714Y-49452380D01*
X177948809Y-49452380D01*
X178091666Y-49500000D01*
X178186904Y-49595238D01*
X178234523Y-49690476D01*
X178282142Y-49880952D01*
X178282142Y-50023809D01*
X178234523Y-50214285D01*
X178186904Y-50309523D01*
X178091666Y-50404761D01*
X177948809Y-50452380D01*
X177710714Y-50452380D01*
X178663095Y-49547619D02*
X178710714Y-49500000D01*
X178805952Y-49452380D01*
X179044047Y-49452380D01*
X179139285Y-49500000D01*
X179186904Y-49547619D01*
X179234523Y-49642857D01*
X179234523Y-49738095D01*
X179186904Y-49880952D01*
X178615476Y-50452380D01*
X179234523Y-50452380D01*
X180139285Y-49452380D02*
X179663095Y-49452380D01*
X179615476Y-49928571D01*
X179663095Y-49880952D01*
X179758333Y-49833333D01*
X179996428Y-49833333D01*
X180091666Y-49880952D01*
X180139285Y-49928571D01*
X180186904Y-50023809D01*
X180186904Y-50261904D01*
X180139285Y-50357142D01*
X180091666Y-50404761D01*
X179996428Y-50452380D01*
X179758333Y-50452380D01*
X179663095Y-50404761D01*
X179615476Y-50357142D01*
%TO.C,D24*%
X145485714Y-81052380D02*
X145485714Y-80052380D01*
X145723809Y-80052380D01*
X145866666Y-80100000D01*
X145961904Y-80195238D01*
X146009523Y-80290476D01*
X146057142Y-80480952D01*
X146057142Y-80623809D01*
X146009523Y-80814285D01*
X145961904Y-80909523D01*
X145866666Y-81004761D01*
X145723809Y-81052380D01*
X145485714Y-81052380D01*
X146438095Y-80147619D02*
X146485714Y-80100000D01*
X146580952Y-80052380D01*
X146819047Y-80052380D01*
X146914285Y-80100000D01*
X146961904Y-80147619D01*
X147009523Y-80242857D01*
X147009523Y-80338095D01*
X146961904Y-80480952D01*
X146390476Y-81052380D01*
X147009523Y-81052380D01*
X147866666Y-80385714D02*
X147866666Y-81052380D01*
X147628571Y-80004761D02*
X147390476Y-80719047D01*
X148009523Y-80719047D01*
%TO.C,D23*%
X145485714Y-76723806D02*
X145485714Y-75723806D01*
X145723809Y-75723806D01*
X145866666Y-75771426D01*
X145961904Y-75866664D01*
X146009523Y-75961902D01*
X146057142Y-76152378D01*
X146057142Y-76295235D01*
X146009523Y-76485711D01*
X145961904Y-76580949D01*
X145866666Y-76676187D01*
X145723809Y-76723806D01*
X145485714Y-76723806D01*
X146438095Y-75819045D02*
X146485714Y-75771426D01*
X146580952Y-75723806D01*
X146819047Y-75723806D01*
X146914285Y-75771426D01*
X146961904Y-75819045D01*
X147009523Y-75914283D01*
X147009523Y-76009521D01*
X146961904Y-76152378D01*
X146390476Y-76723806D01*
X147009523Y-76723806D01*
X147342857Y-75723806D02*
X147961904Y-75723806D01*
X147628571Y-76104759D01*
X147771428Y-76104759D01*
X147866666Y-76152378D01*
X147914285Y-76199997D01*
X147961904Y-76295235D01*
X147961904Y-76533330D01*
X147914285Y-76628568D01*
X147866666Y-76676187D01*
X147771428Y-76723806D01*
X147485714Y-76723806D01*
X147390476Y-76676187D01*
X147342857Y-76628568D01*
%TO.C,D22*%
X145485714Y-72395235D02*
X145485714Y-71395235D01*
X145723809Y-71395235D01*
X145866666Y-71442855D01*
X145961904Y-71538093D01*
X146009523Y-71633331D01*
X146057142Y-71823807D01*
X146057142Y-71966664D01*
X146009523Y-72157140D01*
X145961904Y-72252378D01*
X145866666Y-72347616D01*
X145723809Y-72395235D01*
X145485714Y-72395235D01*
X146438095Y-71490474D02*
X146485714Y-71442855D01*
X146580952Y-71395235D01*
X146819047Y-71395235D01*
X146914285Y-71442855D01*
X146961904Y-71490474D01*
X147009523Y-71585712D01*
X147009523Y-71680950D01*
X146961904Y-71823807D01*
X146390476Y-72395235D01*
X147009523Y-72395235D01*
X147390476Y-71490474D02*
X147438095Y-71442855D01*
X147533333Y-71395235D01*
X147771428Y-71395235D01*
X147866666Y-71442855D01*
X147914285Y-71490474D01*
X147961904Y-71585712D01*
X147961904Y-71680950D01*
X147914285Y-71823807D01*
X147342857Y-72395235D01*
X147961904Y-72395235D01*
%TO.C,D21*%
X145485714Y-68066664D02*
X145485714Y-67066664D01*
X145723809Y-67066664D01*
X145866666Y-67114284D01*
X145961904Y-67209522D01*
X146009523Y-67304760D01*
X146057142Y-67495236D01*
X146057142Y-67638093D01*
X146009523Y-67828569D01*
X145961904Y-67923807D01*
X145866666Y-68019045D01*
X145723809Y-68066664D01*
X145485714Y-68066664D01*
X146438095Y-67161903D02*
X146485714Y-67114284D01*
X146580952Y-67066664D01*
X146819047Y-67066664D01*
X146914285Y-67114284D01*
X146961904Y-67161903D01*
X147009523Y-67257141D01*
X147009523Y-67352379D01*
X146961904Y-67495236D01*
X146390476Y-68066664D01*
X147009523Y-68066664D01*
X147961904Y-68066664D02*
X147390476Y-68066664D01*
X147676190Y-68066664D02*
X147676190Y-67066664D01*
X147580952Y-67209522D01*
X147485714Y-67304760D01*
X147390476Y-67352379D01*
%TO.C,D20*%
X145485714Y-63738093D02*
X145485714Y-62738093D01*
X145723809Y-62738093D01*
X145866666Y-62785713D01*
X145961904Y-62880951D01*
X146009523Y-62976189D01*
X146057142Y-63166665D01*
X146057142Y-63309522D01*
X146009523Y-63499998D01*
X145961904Y-63595236D01*
X145866666Y-63690474D01*
X145723809Y-63738093D01*
X145485714Y-63738093D01*
X146438095Y-62833332D02*
X146485714Y-62785713D01*
X146580952Y-62738093D01*
X146819047Y-62738093D01*
X146914285Y-62785713D01*
X146961904Y-62833332D01*
X147009523Y-62928570D01*
X147009523Y-63023808D01*
X146961904Y-63166665D01*
X146390476Y-63738093D01*
X147009523Y-63738093D01*
X147628571Y-62738093D02*
X147723809Y-62738093D01*
X147819047Y-62785713D01*
X147866666Y-62833332D01*
X147914285Y-62928570D01*
X147961904Y-63119046D01*
X147961904Y-63357141D01*
X147914285Y-63547617D01*
X147866666Y-63642855D01*
X147819047Y-63690474D01*
X147723809Y-63738093D01*
X147628571Y-63738093D01*
X147533333Y-63690474D01*
X147485714Y-63642855D01*
X147438095Y-63547617D01*
X147390476Y-63357141D01*
X147390476Y-63119046D01*
X147438095Y-62928570D01*
X147485714Y-62833332D01*
X147533333Y-62785713D01*
X147628571Y-62738093D01*
%TO.C,D19*%
X145485714Y-59409522D02*
X145485714Y-58409522D01*
X145723809Y-58409522D01*
X145866666Y-58457142D01*
X145961904Y-58552380D01*
X146009523Y-58647618D01*
X146057142Y-58838094D01*
X146057142Y-58980951D01*
X146009523Y-59171427D01*
X145961904Y-59266665D01*
X145866666Y-59361903D01*
X145723809Y-59409522D01*
X145485714Y-59409522D01*
X147009523Y-59409522D02*
X146438095Y-59409522D01*
X146723809Y-59409522D02*
X146723809Y-58409522D01*
X146628571Y-58552380D01*
X146533333Y-58647618D01*
X146438095Y-58695237D01*
X147485714Y-59409522D02*
X147676190Y-59409522D01*
X147771428Y-59361903D01*
X147819047Y-59314284D01*
X147914285Y-59171427D01*
X147961904Y-58980951D01*
X147961904Y-58599999D01*
X147914285Y-58504761D01*
X147866666Y-58457142D01*
X147771428Y-58409522D01*
X147580952Y-58409522D01*
X147485714Y-58457142D01*
X147438095Y-58504761D01*
X147390476Y-58599999D01*
X147390476Y-58838094D01*
X147438095Y-58933332D01*
X147485714Y-58980951D01*
X147580952Y-59028570D01*
X147771428Y-59028570D01*
X147866666Y-58980951D01*
X147914285Y-58933332D01*
X147961904Y-58838094D01*
%TO.C,D18*%
X145485714Y-55080951D02*
X145485714Y-54080951D01*
X145723809Y-54080951D01*
X145866666Y-54128571D01*
X145961904Y-54223809D01*
X146009523Y-54319047D01*
X146057142Y-54509523D01*
X146057142Y-54652380D01*
X146009523Y-54842856D01*
X145961904Y-54938094D01*
X145866666Y-55033332D01*
X145723809Y-55080951D01*
X145485714Y-55080951D01*
X147009523Y-55080951D02*
X146438095Y-55080951D01*
X146723809Y-55080951D02*
X146723809Y-54080951D01*
X146628571Y-54223809D01*
X146533333Y-54319047D01*
X146438095Y-54366666D01*
X147580952Y-54509523D02*
X147485714Y-54461904D01*
X147438095Y-54414285D01*
X147390476Y-54319047D01*
X147390476Y-54271428D01*
X147438095Y-54176190D01*
X147485714Y-54128571D01*
X147580952Y-54080951D01*
X147771428Y-54080951D01*
X147866666Y-54128571D01*
X147914285Y-54176190D01*
X147961904Y-54271428D01*
X147961904Y-54319047D01*
X147914285Y-54414285D01*
X147866666Y-54461904D01*
X147771428Y-54509523D01*
X147580952Y-54509523D01*
X147485714Y-54557142D01*
X147438095Y-54604761D01*
X147390476Y-54699999D01*
X147390476Y-54890475D01*
X147438095Y-54985713D01*
X147485714Y-55033332D01*
X147580952Y-55080951D01*
X147771428Y-55080951D01*
X147866666Y-55033332D01*
X147914285Y-54985713D01*
X147961904Y-54890475D01*
X147961904Y-54699999D01*
X147914285Y-54604761D01*
X147866666Y-54557142D01*
X147771428Y-54509523D01*
%TO.C,D17*%
X145485714Y-50752380D02*
X145485714Y-49752380D01*
X145723809Y-49752380D01*
X145866666Y-49800000D01*
X145961904Y-49895238D01*
X146009523Y-49990476D01*
X146057142Y-50180952D01*
X146057142Y-50323809D01*
X146009523Y-50514285D01*
X145961904Y-50609523D01*
X145866666Y-50704761D01*
X145723809Y-50752380D01*
X145485714Y-50752380D01*
X147009523Y-50752380D02*
X146438095Y-50752380D01*
X146723809Y-50752380D02*
X146723809Y-49752380D01*
X146628571Y-49895238D01*
X146533333Y-49990476D01*
X146438095Y-50038095D01*
X147342857Y-49752380D02*
X148009523Y-49752380D01*
X147580952Y-50752380D01*
%TO.C,D16*%
X115485714Y-81052380D02*
X115485714Y-80052380D01*
X115723809Y-80052380D01*
X115866666Y-80100000D01*
X115961904Y-80195238D01*
X116009523Y-80290476D01*
X116057142Y-80480952D01*
X116057142Y-80623809D01*
X116009523Y-80814285D01*
X115961904Y-80909523D01*
X115866666Y-81004761D01*
X115723809Y-81052380D01*
X115485714Y-81052380D01*
X117009523Y-81052380D02*
X116438095Y-81052380D01*
X116723809Y-81052380D02*
X116723809Y-80052380D01*
X116628571Y-80195238D01*
X116533333Y-80290476D01*
X116438095Y-80338095D01*
X117866666Y-80052380D02*
X117676190Y-80052380D01*
X117580952Y-80100000D01*
X117533333Y-80147619D01*
X117438095Y-80290476D01*
X117390476Y-80480952D01*
X117390476Y-80861904D01*
X117438095Y-80957142D01*
X117485714Y-81004761D01*
X117580952Y-81052380D01*
X117771428Y-81052380D01*
X117866666Y-81004761D01*
X117914285Y-80957142D01*
X117961904Y-80861904D01*
X117961904Y-80623809D01*
X117914285Y-80528571D01*
X117866666Y-80480952D01*
X117771428Y-80433333D01*
X117580952Y-80433333D01*
X117485714Y-80480952D01*
X117438095Y-80528571D01*
X117390476Y-80623809D01*
%TO.C,D15*%
X115485714Y-76734404D02*
X115485714Y-75734404D01*
X115723809Y-75734404D01*
X115866666Y-75782024D01*
X115961904Y-75877262D01*
X116009523Y-75972500D01*
X116057142Y-76162976D01*
X116057142Y-76305833D01*
X116009523Y-76496309D01*
X115961904Y-76591547D01*
X115866666Y-76686785D01*
X115723809Y-76734404D01*
X115485714Y-76734404D01*
X117009523Y-76734404D02*
X116438095Y-76734404D01*
X116723809Y-76734404D02*
X116723809Y-75734404D01*
X116628571Y-75877262D01*
X116533333Y-75972500D01*
X116438095Y-76020119D01*
X117914285Y-75734404D02*
X117438095Y-75734404D01*
X117390476Y-76210595D01*
X117438095Y-76162976D01*
X117533333Y-76115357D01*
X117771428Y-76115357D01*
X117866666Y-76162976D01*
X117914285Y-76210595D01*
X117961904Y-76305833D01*
X117961904Y-76543928D01*
X117914285Y-76639166D01*
X117866666Y-76686785D01*
X117771428Y-76734404D01*
X117533333Y-76734404D01*
X117438095Y-76686785D01*
X117390476Y-76639166D01*
%TO.C,D14*%
X115485714Y-72416432D02*
X115485714Y-71416432D01*
X115723809Y-71416432D01*
X115866666Y-71464052D01*
X115961904Y-71559290D01*
X116009523Y-71654528D01*
X116057142Y-71845004D01*
X116057142Y-71987861D01*
X116009523Y-72178337D01*
X115961904Y-72273575D01*
X115866666Y-72368813D01*
X115723809Y-72416432D01*
X115485714Y-72416432D01*
X117009523Y-72416432D02*
X116438095Y-72416432D01*
X116723809Y-72416432D02*
X116723809Y-71416432D01*
X116628571Y-71559290D01*
X116533333Y-71654528D01*
X116438095Y-71702147D01*
X117866666Y-71749766D02*
X117866666Y-72416432D01*
X117628571Y-71368813D02*
X117390476Y-72083099D01*
X118009523Y-72083099D01*
%TO.C,D13*%
X115485714Y-68098460D02*
X115485714Y-67098460D01*
X115723809Y-67098460D01*
X115866666Y-67146080D01*
X115961904Y-67241318D01*
X116009523Y-67336556D01*
X116057142Y-67527032D01*
X116057142Y-67669889D01*
X116009523Y-67860365D01*
X115961904Y-67955603D01*
X115866666Y-68050841D01*
X115723809Y-68098460D01*
X115485714Y-68098460D01*
X117009523Y-68098460D02*
X116438095Y-68098460D01*
X116723809Y-68098460D02*
X116723809Y-67098460D01*
X116628571Y-67241318D01*
X116533333Y-67336556D01*
X116438095Y-67384175D01*
X117342857Y-67098460D02*
X117961904Y-67098460D01*
X117628571Y-67479413D01*
X117771428Y-67479413D01*
X117866666Y-67527032D01*
X117914285Y-67574651D01*
X117961904Y-67669889D01*
X117961904Y-67907984D01*
X117914285Y-68003222D01*
X117866666Y-68050841D01*
X117771428Y-68098460D01*
X117485714Y-68098460D01*
X117390476Y-68050841D01*
X117342857Y-68003222D01*
%TO.C,D12*%
X115485714Y-63780488D02*
X115485714Y-62780488D01*
X115723809Y-62780488D01*
X115866666Y-62828108D01*
X115961904Y-62923346D01*
X116009523Y-63018584D01*
X116057142Y-63209060D01*
X116057142Y-63351917D01*
X116009523Y-63542393D01*
X115961904Y-63637631D01*
X115866666Y-63732869D01*
X115723809Y-63780488D01*
X115485714Y-63780488D01*
X117009523Y-63780488D02*
X116438095Y-63780488D01*
X116723809Y-63780488D02*
X116723809Y-62780488D01*
X116628571Y-62923346D01*
X116533333Y-63018584D01*
X116438095Y-63066203D01*
X117390476Y-62875727D02*
X117438095Y-62828108D01*
X117533333Y-62780488D01*
X117771428Y-62780488D01*
X117866666Y-62828108D01*
X117914285Y-62875727D01*
X117961904Y-62970965D01*
X117961904Y-63066203D01*
X117914285Y-63209060D01*
X117342857Y-63780488D01*
X117961904Y-63780488D01*
%TO.C,D11*%
X115485714Y-59462516D02*
X115485714Y-58462516D01*
X115723809Y-58462516D01*
X115866666Y-58510136D01*
X115961904Y-58605374D01*
X116009523Y-58700612D01*
X116057142Y-58891088D01*
X116057142Y-59033945D01*
X116009523Y-59224421D01*
X115961904Y-59319659D01*
X115866666Y-59414897D01*
X115723809Y-59462516D01*
X115485714Y-59462516D01*
X117009523Y-59462516D02*
X116438095Y-59462516D01*
X116723809Y-59462516D02*
X116723809Y-58462516D01*
X116628571Y-58605374D01*
X116533333Y-58700612D01*
X116438095Y-58748231D01*
X117961904Y-59462516D02*
X117390476Y-59462516D01*
X117676190Y-59462516D02*
X117676190Y-58462516D01*
X117580952Y-58605374D01*
X117485714Y-58700612D01*
X117390476Y-58748231D01*
%TO.C,D10*%
X115485714Y-55144544D02*
X115485714Y-54144544D01*
X115723809Y-54144544D01*
X115866666Y-54192164D01*
X115961904Y-54287402D01*
X116009523Y-54382640D01*
X116057142Y-54573116D01*
X116057142Y-54715973D01*
X116009523Y-54906449D01*
X115961904Y-55001687D01*
X115866666Y-55096925D01*
X115723809Y-55144544D01*
X115485714Y-55144544D01*
X117009523Y-55144544D02*
X116438095Y-55144544D01*
X116723809Y-55144544D02*
X116723809Y-54144544D01*
X116628571Y-54287402D01*
X116533333Y-54382640D01*
X116438095Y-54430259D01*
X117628571Y-54144544D02*
X117723809Y-54144544D01*
X117819047Y-54192164D01*
X117866666Y-54239783D01*
X117914285Y-54335021D01*
X117961904Y-54525497D01*
X117961904Y-54763592D01*
X117914285Y-54954068D01*
X117866666Y-55049306D01*
X117819047Y-55096925D01*
X117723809Y-55144544D01*
X117628571Y-55144544D01*
X117533333Y-55096925D01*
X117485714Y-55049306D01*
X117438095Y-54954068D01*
X117390476Y-54763592D01*
X117390476Y-54525497D01*
X117438095Y-54335021D01*
X117485714Y-54239783D01*
X117533333Y-54192164D01*
X117628571Y-54144544D01*
%TO.C,D9*%
X115961904Y-50826572D02*
X115961904Y-49826572D01*
X116200000Y-49826572D01*
X116342857Y-49874192D01*
X116438095Y-49969430D01*
X116485714Y-50064668D01*
X116533333Y-50255144D01*
X116533333Y-50398001D01*
X116485714Y-50588477D01*
X116438095Y-50683715D01*
X116342857Y-50778953D01*
X116200000Y-50826572D01*
X115961904Y-50826572D01*
X117009523Y-50826572D02*
X117200000Y-50826572D01*
X117295238Y-50778953D01*
X117342857Y-50731334D01*
X117438095Y-50588477D01*
X117485714Y-50398001D01*
X117485714Y-50017049D01*
X117438095Y-49921811D01*
X117390476Y-49874192D01*
X117295238Y-49826572D01*
X117104761Y-49826572D01*
X117009523Y-49874192D01*
X116961904Y-49921811D01*
X116914285Y-50017049D01*
X116914285Y-50255144D01*
X116961904Y-50350382D01*
X117009523Y-50398001D01*
X117104761Y-50445620D01*
X117295238Y-50445620D01*
X117390476Y-50398001D01*
X117438095Y-50350382D01*
X117485714Y-50255144D01*
%TO.C,D8*%
X85961904Y-81052380D02*
X85961904Y-80052380D01*
X86200000Y-80052380D01*
X86342857Y-80100000D01*
X86438095Y-80195238D01*
X86485714Y-80290476D01*
X86533333Y-80480952D01*
X86533333Y-80623809D01*
X86485714Y-80814285D01*
X86438095Y-80909523D01*
X86342857Y-81004761D01*
X86200000Y-81052380D01*
X85961904Y-81052380D01*
X87104761Y-80480952D02*
X87009523Y-80433333D01*
X86961904Y-80385714D01*
X86914285Y-80290476D01*
X86914285Y-80242857D01*
X86961904Y-80147619D01*
X87009523Y-80100000D01*
X87104761Y-80052380D01*
X87295238Y-80052380D01*
X87390476Y-80100000D01*
X87438095Y-80147619D01*
X87485714Y-80242857D01*
X87485714Y-80290476D01*
X87438095Y-80385714D01*
X87390476Y-80433333D01*
X87295238Y-80480952D01*
X87104761Y-80480952D01*
X87009523Y-80528571D01*
X86961904Y-80576190D01*
X86914285Y-80671428D01*
X86914285Y-80861904D01*
X86961904Y-80957142D01*
X87009523Y-81004761D01*
X87104761Y-81052380D01*
X87295238Y-81052380D01*
X87390476Y-81004761D01*
X87438095Y-80957142D01*
X87485714Y-80861904D01*
X87485714Y-80671428D01*
X87438095Y-80576190D01*
X87390476Y-80528571D01*
X87295238Y-80480952D01*
%TO.C,D7*%
X85961904Y-76738090D02*
X85961904Y-75738090D01*
X86200000Y-75738090D01*
X86342857Y-75785710D01*
X86438095Y-75880948D01*
X86485714Y-75976186D01*
X86533333Y-76166662D01*
X86533333Y-76309519D01*
X86485714Y-76499995D01*
X86438095Y-76595233D01*
X86342857Y-76690471D01*
X86200000Y-76738090D01*
X85961904Y-76738090D01*
X86866666Y-75738090D02*
X87533333Y-75738090D01*
X87104761Y-76738090D01*
%TO.C,D6*%
X85961904Y-72423805D02*
X85961904Y-71423805D01*
X86200000Y-71423805D01*
X86342857Y-71471425D01*
X86438095Y-71566663D01*
X86485714Y-71661901D01*
X86533333Y-71852377D01*
X86533333Y-71995234D01*
X86485714Y-72185710D01*
X86438095Y-72280948D01*
X86342857Y-72376186D01*
X86200000Y-72423805D01*
X85961904Y-72423805D01*
X87390476Y-71423805D02*
X87200000Y-71423805D01*
X87104761Y-71471425D01*
X87057142Y-71519044D01*
X86961904Y-71661901D01*
X86914285Y-71852377D01*
X86914285Y-72233329D01*
X86961904Y-72328567D01*
X87009523Y-72376186D01*
X87104761Y-72423805D01*
X87295238Y-72423805D01*
X87390476Y-72376186D01*
X87438095Y-72328567D01*
X87485714Y-72233329D01*
X87485714Y-71995234D01*
X87438095Y-71899996D01*
X87390476Y-71852377D01*
X87295238Y-71804758D01*
X87104761Y-71804758D01*
X87009523Y-71852377D01*
X86961904Y-71899996D01*
X86914285Y-71995234D01*
%TO.C,D5*%
X85961904Y-68109520D02*
X85961904Y-67109520D01*
X86200000Y-67109520D01*
X86342857Y-67157140D01*
X86438095Y-67252378D01*
X86485714Y-67347616D01*
X86533333Y-67538092D01*
X86533333Y-67680949D01*
X86485714Y-67871425D01*
X86438095Y-67966663D01*
X86342857Y-68061901D01*
X86200000Y-68109520D01*
X85961904Y-68109520D01*
X87438095Y-67109520D02*
X86961904Y-67109520D01*
X86914285Y-67585711D01*
X86961904Y-67538092D01*
X87057142Y-67490473D01*
X87295238Y-67490473D01*
X87390476Y-67538092D01*
X87438095Y-67585711D01*
X87485714Y-67680949D01*
X87485714Y-67919044D01*
X87438095Y-68014282D01*
X87390476Y-68061901D01*
X87295238Y-68109520D01*
X87057142Y-68109520D01*
X86961904Y-68061901D01*
X86914285Y-68014282D01*
%TO.C,D4*%
X85961904Y-63795235D02*
X85961904Y-62795235D01*
X86200000Y-62795235D01*
X86342857Y-62842855D01*
X86438095Y-62938093D01*
X86485714Y-63033331D01*
X86533333Y-63223807D01*
X86533333Y-63366664D01*
X86485714Y-63557140D01*
X86438095Y-63652378D01*
X86342857Y-63747616D01*
X86200000Y-63795235D01*
X85961904Y-63795235D01*
X87390476Y-63128569D02*
X87390476Y-63795235D01*
X87152380Y-62747616D02*
X86914285Y-63461902D01*
X87533333Y-63461902D01*
%TO.C,D3*%
X85961904Y-59480950D02*
X85961904Y-58480950D01*
X86200000Y-58480950D01*
X86342857Y-58528570D01*
X86438095Y-58623808D01*
X86485714Y-58719046D01*
X86533333Y-58909522D01*
X86533333Y-59052379D01*
X86485714Y-59242855D01*
X86438095Y-59338093D01*
X86342857Y-59433331D01*
X86200000Y-59480950D01*
X85961904Y-59480950D01*
X86866666Y-58480950D02*
X87485714Y-58480950D01*
X87152380Y-58861903D01*
X87295238Y-58861903D01*
X87390476Y-58909522D01*
X87438095Y-58957141D01*
X87485714Y-59052379D01*
X87485714Y-59290474D01*
X87438095Y-59385712D01*
X87390476Y-59433331D01*
X87295238Y-59480950D01*
X87009523Y-59480950D01*
X86914285Y-59433331D01*
X86866666Y-59385712D01*
%TO.C,D2*%
X85961904Y-55166665D02*
X85961904Y-54166665D01*
X86200000Y-54166665D01*
X86342857Y-54214285D01*
X86438095Y-54309523D01*
X86485714Y-54404761D01*
X86533333Y-54595237D01*
X86533333Y-54738094D01*
X86485714Y-54928570D01*
X86438095Y-55023808D01*
X86342857Y-55119046D01*
X86200000Y-55166665D01*
X85961904Y-55166665D01*
X86914285Y-54261904D02*
X86961904Y-54214285D01*
X87057142Y-54166665D01*
X87295238Y-54166665D01*
X87390476Y-54214285D01*
X87438095Y-54261904D01*
X87485714Y-54357142D01*
X87485714Y-54452380D01*
X87438095Y-54595237D01*
X86866666Y-55166665D01*
X87485714Y-55166665D01*
%TO.C,D1*%
X85961904Y-50852380D02*
X85961904Y-49852380D01*
X86200000Y-49852380D01*
X86342857Y-49900000D01*
X86438095Y-49995238D01*
X86485714Y-50090476D01*
X86533333Y-50280952D01*
X86533333Y-50423809D01*
X86485714Y-50614285D01*
X86438095Y-50709523D01*
X86342857Y-50804761D01*
X86200000Y-50852380D01*
X85961904Y-50852380D01*
X87485714Y-50852380D02*
X86914285Y-50852380D01*
X87200000Y-50852380D02*
X87200000Y-49852380D01*
X87104761Y-49995238D01*
X87009523Y-50090476D01*
X86914285Y-50138095D01*
%TO.C,D34*%
X75215714Y-54582380D02*
X75215714Y-53582380D01*
X75453809Y-53582380D01*
X75596666Y-53630000D01*
X75691904Y-53725238D01*
X75739523Y-53820476D01*
X75787142Y-54010952D01*
X75787142Y-54153809D01*
X75739523Y-54344285D01*
X75691904Y-54439523D01*
X75596666Y-54534761D01*
X75453809Y-54582380D01*
X75215714Y-54582380D01*
X76120476Y-53582380D02*
X76739523Y-53582380D01*
X76406190Y-53963333D01*
X76549047Y-53963333D01*
X76644285Y-54010952D01*
X76691904Y-54058571D01*
X76739523Y-54153809D01*
X76739523Y-54391904D01*
X76691904Y-54487142D01*
X76644285Y-54534761D01*
X76549047Y-54582380D01*
X76263333Y-54582380D01*
X76168095Y-54534761D01*
X76120476Y-54487142D01*
X77596666Y-53915714D02*
X77596666Y-54582380D01*
X77358571Y-53534761D02*
X77120476Y-54249047D01*
X77739523Y-54249047D01*
%TO.C,D33*%
X75305714Y-49122380D02*
X75305714Y-48122380D01*
X75543809Y-48122380D01*
X75686666Y-48170000D01*
X75781904Y-48265238D01*
X75829523Y-48360476D01*
X75877142Y-48550952D01*
X75877142Y-48693809D01*
X75829523Y-48884285D01*
X75781904Y-48979523D01*
X75686666Y-49074761D01*
X75543809Y-49122380D01*
X75305714Y-49122380D01*
X76210476Y-48122380D02*
X76829523Y-48122380D01*
X76496190Y-48503333D01*
X76639047Y-48503333D01*
X76734285Y-48550952D01*
X76781904Y-48598571D01*
X76829523Y-48693809D01*
X76829523Y-48931904D01*
X76781904Y-49027142D01*
X76734285Y-49074761D01*
X76639047Y-49122380D01*
X76353333Y-49122380D01*
X76258095Y-49074761D01*
X76210476Y-49027142D01*
X77162857Y-48122380D02*
X77781904Y-48122380D01*
X77448571Y-48503333D01*
X77591428Y-48503333D01*
X77686666Y-48550952D01*
X77734285Y-48598571D01*
X77781904Y-48693809D01*
X77781904Y-48931904D01*
X77734285Y-49027142D01*
X77686666Y-49074761D01*
X77591428Y-49122380D01*
X77305714Y-49122380D01*
X77210476Y-49074761D01*
X77162857Y-49027142D01*
%TO.C,R5*%
X67843333Y-51022380D02*
X67510000Y-50546190D01*
X67271904Y-51022380D02*
X67271904Y-50022380D01*
X67652857Y-50022380D01*
X67748095Y-50070000D01*
X67795714Y-50117619D01*
X67843333Y-50212857D01*
X67843333Y-50355714D01*
X67795714Y-50450952D01*
X67748095Y-50498571D01*
X67652857Y-50546190D01*
X67271904Y-50546190D01*
X68748095Y-50022380D02*
X68271904Y-50022380D01*
X68224285Y-50498571D01*
X68271904Y-50450952D01*
X68367142Y-50403333D01*
X68605238Y-50403333D01*
X68700476Y-50450952D01*
X68748095Y-50498571D01*
X68795714Y-50593809D01*
X68795714Y-50831904D01*
X68748095Y-50927142D01*
X68700476Y-50974761D01*
X68605238Y-51022380D01*
X68367142Y-51022380D01*
X68271904Y-50974761D01*
X68224285Y-50927142D01*
%TO.C,U4*%
X187938095Y-60452380D02*
X187938095Y-61261904D01*
X187985714Y-61357142D01*
X188033333Y-61404761D01*
X188128571Y-61452380D01*
X188319047Y-61452380D01*
X188414285Y-61404761D01*
X188461904Y-61357142D01*
X188509523Y-61261904D01*
X188509523Y-60452380D01*
X189414285Y-60785714D02*
X189414285Y-61452380D01*
X189176190Y-60404761D02*
X188938095Y-61119047D01*
X189557142Y-61119047D01*
%TO.C,U3*%
X157938095Y-60452380D02*
X157938095Y-61261904D01*
X157985714Y-61357142D01*
X158033333Y-61404761D01*
X158128571Y-61452380D01*
X158319047Y-61452380D01*
X158414285Y-61404761D01*
X158461904Y-61357142D01*
X158509523Y-61261904D01*
X158509523Y-60452380D01*
X158890476Y-60452380D02*
X159509523Y-60452380D01*
X159176190Y-60833333D01*
X159319047Y-60833333D01*
X159414285Y-60880952D01*
X159461904Y-60928571D01*
X159509523Y-61023809D01*
X159509523Y-61261904D01*
X159461904Y-61357142D01*
X159414285Y-61404761D01*
X159319047Y-61452380D01*
X159033333Y-61452380D01*
X158938095Y-61404761D01*
X158890476Y-61357142D01*
%TO.C,U2*%
X127938095Y-60452380D02*
X127938095Y-61261904D01*
X127985714Y-61357142D01*
X128033333Y-61404761D01*
X128128571Y-61452380D01*
X128319047Y-61452380D01*
X128414285Y-61404761D01*
X128461904Y-61357142D01*
X128509523Y-61261904D01*
X128509523Y-60452380D01*
X128938095Y-60547619D02*
X128985714Y-60500000D01*
X129080952Y-60452380D01*
X129319047Y-60452380D01*
X129414285Y-60500000D01*
X129461904Y-60547619D01*
X129509523Y-60642857D01*
X129509523Y-60738095D01*
X129461904Y-60880952D01*
X128890476Y-61452380D01*
X129509523Y-61452380D01*
%TO.C,U1*%
X97938095Y-60452380D02*
X97938095Y-61261904D01*
X97985714Y-61357142D01*
X98033333Y-61404761D01*
X98128571Y-61452380D01*
X98319047Y-61452380D01*
X98414285Y-61404761D01*
X98461904Y-61357142D01*
X98509523Y-61261904D01*
X98509523Y-60452380D01*
X99509523Y-61452380D02*
X98938095Y-61452380D01*
X99223809Y-61452380D02*
X99223809Y-60452380D01*
X99128571Y-60595238D01*
X99033333Y-60690476D01*
X98938095Y-60738095D01*
%TO.C,R10*%
X208344642Y-80122380D02*
X208011309Y-79646190D01*
X207773214Y-80122380D02*
X207773214Y-79122380D01*
X208154166Y-79122380D01*
X208249404Y-79170000D01*
X208297023Y-79217619D01*
X208344642Y-79312857D01*
X208344642Y-79455714D01*
X208297023Y-79550952D01*
X208249404Y-79598571D01*
X208154166Y-79646190D01*
X207773214Y-79646190D01*
X209297023Y-80122380D02*
X208725595Y-80122380D01*
X209011309Y-80122380D02*
X209011309Y-79122380D01*
X208916071Y-79265238D01*
X208820833Y-79360476D01*
X208725595Y-79408095D01*
X209916071Y-79122380D02*
X210011309Y-79122380D01*
X210106547Y-79170000D01*
X210154166Y-79217619D01*
X210201785Y-79312857D01*
X210249404Y-79503333D01*
X210249404Y-79741428D01*
X210201785Y-79931904D01*
X210154166Y-80027142D01*
X210106547Y-80074761D01*
X210011309Y-80122380D01*
X209916071Y-80122380D01*
X209820833Y-80074761D01*
X209773214Y-80027142D01*
X209725595Y-79931904D01*
X209677976Y-79741428D01*
X209677976Y-79503333D01*
X209725595Y-79312857D01*
X209773214Y-79217619D01*
X209820833Y-79170000D01*
X209916071Y-79122380D01*
%TO.C,R9*%
X205963333Y-73852380D02*
X205630000Y-73376190D01*
X205391904Y-73852380D02*
X205391904Y-72852380D01*
X205772857Y-72852380D01*
X205868095Y-72900000D01*
X205915714Y-72947619D01*
X205963333Y-73042857D01*
X205963333Y-73185714D01*
X205915714Y-73280952D01*
X205868095Y-73328571D01*
X205772857Y-73376190D01*
X205391904Y-73376190D01*
X206439523Y-73852380D02*
X206630000Y-73852380D01*
X206725238Y-73804761D01*
X206772857Y-73757142D01*
X206868095Y-73614285D01*
X206915714Y-73423809D01*
X206915714Y-73042857D01*
X206868095Y-72947619D01*
X206820476Y-72900000D01*
X206725238Y-72852380D01*
X206534761Y-72852380D01*
X206439523Y-72900000D01*
X206391904Y-72947619D01*
X206344285Y-73042857D01*
X206344285Y-73280952D01*
X206391904Y-73376190D01*
X206439523Y-73423809D01*
X206534761Y-73471428D01*
X206725238Y-73471428D01*
X206820476Y-73423809D01*
X206868095Y-73376190D01*
X206915714Y-73280952D01*
%TO.C,R8*%
X205933333Y-72377380D02*
X205600000Y-71901190D01*
X205361904Y-72377380D02*
X205361904Y-71377380D01*
X205742857Y-71377380D01*
X205838095Y-71425000D01*
X205885714Y-71472619D01*
X205933333Y-71567857D01*
X205933333Y-71710714D01*
X205885714Y-71805952D01*
X205838095Y-71853571D01*
X205742857Y-71901190D01*
X205361904Y-71901190D01*
X206504761Y-71805952D02*
X206409523Y-71758333D01*
X206361904Y-71710714D01*
X206314285Y-71615476D01*
X206314285Y-71567857D01*
X206361904Y-71472619D01*
X206409523Y-71425000D01*
X206504761Y-71377380D01*
X206695238Y-71377380D01*
X206790476Y-71425000D01*
X206838095Y-71472619D01*
X206885714Y-71567857D01*
X206885714Y-71615476D01*
X206838095Y-71710714D01*
X206790476Y-71758333D01*
X206695238Y-71805952D01*
X206504761Y-71805952D01*
X206409523Y-71853571D01*
X206361904Y-71901190D01*
X206314285Y-71996428D01*
X206314285Y-72186904D01*
X206361904Y-72282142D01*
X206409523Y-72329761D01*
X206504761Y-72377380D01*
X206695238Y-72377380D01*
X206790476Y-72329761D01*
X206838095Y-72282142D01*
X206885714Y-72186904D01*
X206885714Y-71996428D01*
X206838095Y-71901190D01*
X206790476Y-71853571D01*
X206695238Y-71805952D01*
%TO.C,R7*%
X73817380Y-76546666D02*
X73341190Y-76880000D01*
X73817380Y-77118095D02*
X72817380Y-77118095D01*
X72817380Y-76737142D01*
X72865000Y-76641904D01*
X72912619Y-76594285D01*
X73007857Y-76546666D01*
X73150714Y-76546666D01*
X73245952Y-76594285D01*
X73293571Y-76641904D01*
X73341190Y-76737142D01*
X73341190Y-77118095D01*
X72817380Y-76213333D02*
X72817380Y-75546666D01*
X73817380Y-75975238D01*
%TO.C,R6*%
X75572380Y-81786666D02*
X75096190Y-82120000D01*
X75572380Y-82358095D02*
X74572380Y-82358095D01*
X74572380Y-81977142D01*
X74620000Y-81881904D01*
X74667619Y-81834285D01*
X74762857Y-81786666D01*
X74905714Y-81786666D01*
X75000952Y-81834285D01*
X75048571Y-81881904D01*
X75096190Y-81977142D01*
X75096190Y-82358095D01*
X74572380Y-80929523D02*
X74572380Y-81120000D01*
X74620000Y-81215238D01*
X74667619Y-81262857D01*
X74810476Y-81358095D01*
X75000952Y-81405714D01*
X75381904Y-81405714D01*
X75477142Y-81358095D01*
X75524761Y-81310476D01*
X75572380Y-81215238D01*
X75572380Y-81024761D01*
X75524761Y-80929523D01*
X75477142Y-80881904D01*
X75381904Y-80834285D01*
X75143809Y-80834285D01*
X75048571Y-80881904D01*
X75000952Y-80929523D01*
X74953333Y-81024761D01*
X74953333Y-81215238D01*
X75000952Y-81310476D01*
X75048571Y-81358095D01*
X75143809Y-81405714D01*
%TO.C,R4*%
X67913333Y-52602380D02*
X67580000Y-52126190D01*
X67341904Y-52602380D02*
X67341904Y-51602380D01*
X67722857Y-51602380D01*
X67818095Y-51650000D01*
X67865714Y-51697619D01*
X67913333Y-51792857D01*
X67913333Y-51935714D01*
X67865714Y-52030952D01*
X67818095Y-52078571D01*
X67722857Y-52126190D01*
X67341904Y-52126190D01*
X68770476Y-51935714D02*
X68770476Y-52602380D01*
X68532380Y-51554761D02*
X68294285Y-52269047D01*
X68913333Y-52269047D01*
%TO.C,R3*%
X99352380Y-79726666D02*
X98876190Y-80060000D01*
X99352380Y-80298095D02*
X98352380Y-80298095D01*
X98352380Y-79917142D01*
X98400000Y-79821904D01*
X98447619Y-79774285D01*
X98542857Y-79726666D01*
X98685714Y-79726666D01*
X98780952Y-79774285D01*
X98828571Y-79821904D01*
X98876190Y-79917142D01*
X98876190Y-80298095D01*
X98352380Y-79393333D02*
X98352380Y-78774285D01*
X98733333Y-79107619D01*
X98733333Y-78964761D01*
X98780952Y-78869523D01*
X98828571Y-78821904D01*
X98923809Y-78774285D01*
X99161904Y-78774285D01*
X99257142Y-78821904D01*
X99304761Y-78869523D01*
X99352380Y-78964761D01*
X99352380Y-79250476D01*
X99304761Y-79345714D01*
X99257142Y-79393333D01*
%TO.C,R2*%
X97637380Y-79636666D02*
X97161190Y-79970000D01*
X97637380Y-80208095D02*
X96637380Y-80208095D01*
X96637380Y-79827142D01*
X96685000Y-79731904D01*
X96732619Y-79684285D01*
X96827857Y-79636666D01*
X96970714Y-79636666D01*
X97065952Y-79684285D01*
X97113571Y-79731904D01*
X97161190Y-79827142D01*
X97161190Y-80208095D01*
X96732619Y-79255714D02*
X96685000Y-79208095D01*
X96637380Y-79112857D01*
X96637380Y-78874761D01*
X96685000Y-78779523D01*
X96732619Y-78731904D01*
X96827857Y-78684285D01*
X96923095Y-78684285D01*
X97065952Y-78731904D01*
X97637380Y-79303333D01*
X97637380Y-78684285D01*
%TO.C,R1*%
X100997380Y-79646666D02*
X100521190Y-79980000D01*
X100997380Y-80218095D02*
X99997380Y-80218095D01*
X99997380Y-79837142D01*
X100045000Y-79741904D01*
X100092619Y-79694285D01*
X100187857Y-79646666D01*
X100330714Y-79646666D01*
X100425952Y-79694285D01*
X100473571Y-79741904D01*
X100521190Y-79837142D01*
X100521190Y-80218095D01*
X100997380Y-78694285D02*
X100997380Y-79265714D01*
X100997380Y-78980000D02*
X99997380Y-78980000D01*
X100140238Y-79075238D01*
X100235476Y-79170476D01*
X100283095Y-79265714D01*
%TO.C,C7*%
X72427142Y-81396666D02*
X72474761Y-81444285D01*
X72522380Y-81587142D01*
X72522380Y-81682380D01*
X72474761Y-81825238D01*
X72379523Y-81920476D01*
X72284285Y-81968095D01*
X72093809Y-82015714D01*
X71950952Y-82015714D01*
X71760476Y-81968095D01*
X71665238Y-81920476D01*
X71570000Y-81825238D01*
X71522380Y-81682380D01*
X71522380Y-81587142D01*
X71570000Y-81444285D01*
X71617619Y-81396666D01*
X71522380Y-81063333D02*
X71522380Y-80396666D01*
X72522380Y-80825238D01*
%TO.C,C6*%
X191403333Y-59137142D02*
X191355714Y-59184761D01*
X191212857Y-59232380D01*
X191117619Y-59232380D01*
X190974761Y-59184761D01*
X190879523Y-59089523D01*
X190831904Y-58994285D01*
X190784285Y-58803809D01*
X190784285Y-58660952D01*
X190831904Y-58470476D01*
X190879523Y-58375238D01*
X190974761Y-58280000D01*
X191117619Y-58232380D01*
X191212857Y-58232380D01*
X191355714Y-58280000D01*
X191403333Y-58327619D01*
X192260476Y-58232380D02*
X192070000Y-58232380D01*
X191974761Y-58280000D01*
X191927142Y-58327619D01*
X191831904Y-58470476D01*
X191784285Y-58660952D01*
X191784285Y-59041904D01*
X191831904Y-59137142D01*
X191879523Y-59184761D01*
X191974761Y-59232380D01*
X192165238Y-59232380D01*
X192260476Y-59184761D01*
X192308095Y-59137142D01*
X192355714Y-59041904D01*
X192355714Y-58803809D01*
X192308095Y-58708571D01*
X192260476Y-58660952D01*
X192165238Y-58613333D01*
X191974761Y-58613333D01*
X191879523Y-58660952D01*
X191831904Y-58708571D01*
X191784285Y-58803809D01*
%TO.C,C5*%
X161203333Y-59157142D02*
X161155714Y-59204761D01*
X161012857Y-59252380D01*
X160917619Y-59252380D01*
X160774761Y-59204761D01*
X160679523Y-59109523D01*
X160631904Y-59014285D01*
X160584285Y-58823809D01*
X160584285Y-58680952D01*
X160631904Y-58490476D01*
X160679523Y-58395238D01*
X160774761Y-58300000D01*
X160917619Y-58252380D01*
X161012857Y-58252380D01*
X161155714Y-58300000D01*
X161203333Y-58347619D01*
X162108095Y-58252380D02*
X161631904Y-58252380D01*
X161584285Y-58728571D01*
X161631904Y-58680952D01*
X161727142Y-58633333D01*
X161965238Y-58633333D01*
X162060476Y-58680952D01*
X162108095Y-58728571D01*
X162155714Y-58823809D01*
X162155714Y-59061904D01*
X162108095Y-59157142D01*
X162060476Y-59204761D01*
X161965238Y-59252380D01*
X161727142Y-59252380D01*
X161631904Y-59204761D01*
X161584285Y-59157142D01*
%TO.C,C4*%
X131133333Y-59217142D02*
X131085714Y-59264761D01*
X130942857Y-59312380D01*
X130847619Y-59312380D01*
X130704761Y-59264761D01*
X130609523Y-59169523D01*
X130561904Y-59074285D01*
X130514285Y-58883809D01*
X130514285Y-58740952D01*
X130561904Y-58550476D01*
X130609523Y-58455238D01*
X130704761Y-58360000D01*
X130847619Y-58312380D01*
X130942857Y-58312380D01*
X131085714Y-58360000D01*
X131133333Y-58407619D01*
X131990476Y-58645714D02*
X131990476Y-59312380D01*
X131752380Y-58264761D02*
X131514285Y-58979047D01*
X132133333Y-58979047D01*
%TO.C,C3*%
X101063333Y-59357142D02*
X101015714Y-59404761D01*
X100872857Y-59452380D01*
X100777619Y-59452380D01*
X100634761Y-59404761D01*
X100539523Y-59309523D01*
X100491904Y-59214285D01*
X100444285Y-59023809D01*
X100444285Y-58880952D01*
X100491904Y-58690476D01*
X100539523Y-58595238D01*
X100634761Y-58500000D01*
X100777619Y-58452380D01*
X100872857Y-58452380D01*
X101015714Y-58500000D01*
X101063333Y-58547619D01*
X101396666Y-58452380D02*
X102015714Y-58452380D01*
X101682380Y-58833333D01*
X101825238Y-58833333D01*
X101920476Y-58880952D01*
X101968095Y-58928571D01*
X102015714Y-59023809D01*
X102015714Y-59261904D01*
X101968095Y-59357142D01*
X101920476Y-59404761D01*
X101825238Y-59452380D01*
X101539523Y-59452380D01*
X101444285Y-59404761D01*
X101396666Y-59357142D01*
%TO.C,C2*%
X95887142Y-79626666D02*
X95934761Y-79674285D01*
X95982380Y-79817142D01*
X95982380Y-79912380D01*
X95934761Y-80055238D01*
X95839523Y-80150476D01*
X95744285Y-80198095D01*
X95553809Y-80245714D01*
X95410952Y-80245714D01*
X95220476Y-80198095D01*
X95125238Y-80150476D01*
X95030000Y-80055238D01*
X94982380Y-79912380D01*
X94982380Y-79817142D01*
X95030000Y-79674285D01*
X95077619Y-79626666D01*
X95077619Y-79245714D02*
X95030000Y-79198095D01*
X94982380Y-79102857D01*
X94982380Y-78864761D01*
X95030000Y-78769523D01*
X95077619Y-78721904D01*
X95172857Y-78674285D01*
X95268095Y-78674285D01*
X95410952Y-78721904D01*
X95982380Y-79293333D01*
X95982380Y-78674285D01*
%TO.C,C1*%
X102487142Y-79606666D02*
X102534761Y-79654285D01*
X102582380Y-79797142D01*
X102582380Y-79892380D01*
X102534761Y-80035238D01*
X102439523Y-80130476D01*
X102344285Y-80178095D01*
X102153809Y-80225714D01*
X102010952Y-80225714D01*
X101820476Y-80178095D01*
X101725238Y-80130476D01*
X101630000Y-80035238D01*
X101582380Y-79892380D01*
X101582380Y-79797142D01*
X101630000Y-79654285D01*
X101677619Y-79606666D01*
X102582380Y-78654285D02*
X102582380Y-79225714D01*
X102582380Y-78940000D02*
X101582380Y-78940000D01*
X101725238Y-79035238D01*
X101820476Y-79130476D01*
X101868095Y-79225714D01*
%TO.C,J4*%
X212552380Y-77633333D02*
X213266666Y-77633333D01*
X213409523Y-77680952D01*
X213504761Y-77776190D01*
X213552380Y-77919047D01*
X213552380Y-78014285D01*
X212885714Y-76728571D02*
X213552380Y-76728571D01*
X212504761Y-76966666D02*
X213219047Y-77204761D01*
X213219047Y-76585714D01*
%TO.C,J2*%
X217016666Y-50322380D02*
X217016666Y-51036666D01*
X216969047Y-51179523D01*
X216873809Y-51274761D01*
X216730952Y-51322380D01*
X216635714Y-51322380D01*
X217445238Y-50417619D02*
X217492857Y-50370000D01*
X217588095Y-50322380D01*
X217826190Y-50322380D01*
X217921428Y-50370000D01*
X217969047Y-50417619D01*
X218016666Y-50512857D01*
X218016666Y-50608095D01*
X217969047Y-50750952D01*
X217397619Y-51322380D01*
X218016666Y-51322380D01*
X219466785Y-66142857D02*
X219552500Y-66171428D01*
X219695357Y-66171428D01*
X219752500Y-66142857D01*
X219781071Y-66114285D01*
X219809642Y-66057142D01*
X219809642Y-66000000D01*
X219781071Y-65942857D01*
X219752500Y-65914285D01*
X219695357Y-65885714D01*
X219581071Y-65857142D01*
X219523928Y-65828571D01*
X219495357Y-65800000D01*
X219466785Y-65742857D01*
X219466785Y-65685714D01*
X219495357Y-65628571D01*
X219523928Y-65600000D01*
X219581071Y-65571428D01*
X219723928Y-65571428D01*
X219809642Y-65600000D01*
X220009642Y-65571428D02*
X220152500Y-66171428D01*
X220266785Y-65742857D01*
X220381071Y-66171428D01*
X220523928Y-65571428D01*
X220866785Y-65571428D02*
X220981071Y-65571428D01*
X221038214Y-65600000D01*
X221095357Y-65657142D01*
X221123928Y-65771428D01*
X221123928Y-65971428D01*
X221095357Y-66085714D01*
X221038214Y-66142857D01*
X220981071Y-66171428D01*
X220866785Y-66171428D01*
X220809642Y-66142857D01*
X220752500Y-66085714D01*
X220723928Y-65971428D01*
X220723928Y-65771428D01*
X220752500Y-65657142D01*
X220809642Y-65600000D01*
X220866785Y-65571428D01*
X219495357Y-63631428D02*
X219495357Y-63031428D01*
X219838214Y-63631428D01*
X219838214Y-63031428D01*
X220466785Y-63631428D02*
X220266785Y-63345714D01*
X220123928Y-63631428D02*
X220123928Y-63031428D01*
X220352500Y-63031428D01*
X220409642Y-63060000D01*
X220438214Y-63088571D01*
X220466785Y-63145714D01*
X220466785Y-63231428D01*
X220438214Y-63288571D01*
X220409642Y-63317142D01*
X220352500Y-63345714D01*
X220123928Y-63345714D01*
X220695357Y-63602857D02*
X220781071Y-63631428D01*
X220923928Y-63631428D01*
X220981071Y-63602857D01*
X221009642Y-63574285D01*
X221038214Y-63517142D01*
X221038214Y-63460000D01*
X221009642Y-63402857D01*
X220981071Y-63374285D01*
X220923928Y-63345714D01*
X220809642Y-63317142D01*
X220752500Y-63288571D01*
X220723928Y-63260000D01*
X220695357Y-63202857D01*
X220695357Y-63145714D01*
X220723928Y-63088571D01*
X220752500Y-63060000D01*
X220809642Y-63031428D01*
X220952500Y-63031428D01*
X221038214Y-63060000D01*
X221209642Y-63031428D02*
X221552500Y-63031428D01*
X221381071Y-63631428D02*
X221381071Y-63031428D01*
X219466785Y-61062857D02*
X219552500Y-61091428D01*
X219695357Y-61091428D01*
X219752500Y-61062857D01*
X219781071Y-61034285D01*
X219809642Y-60977142D01*
X219809642Y-60920000D01*
X219781071Y-60862857D01*
X219752500Y-60834285D01*
X219695357Y-60805714D01*
X219581071Y-60777142D01*
X219523928Y-60748571D01*
X219495357Y-60720000D01*
X219466785Y-60662857D01*
X219466785Y-60605714D01*
X219495357Y-60548571D01*
X219523928Y-60520000D01*
X219581071Y-60491428D01*
X219723928Y-60491428D01*
X219809642Y-60520000D01*
X220009642Y-60491428D02*
X220152500Y-61091428D01*
X220266785Y-60662857D01*
X220381071Y-61091428D01*
X220523928Y-60491428D01*
X220752500Y-61091428D02*
X220752500Y-60491428D01*
X220895357Y-60491428D01*
X220981071Y-60520000D01*
X221038214Y-60577142D01*
X221066785Y-60634285D01*
X221095357Y-60748571D01*
X221095357Y-60834285D01*
X221066785Y-60948571D01*
X221038214Y-61005714D01*
X220981071Y-61062857D01*
X220895357Y-61091428D01*
X220752500Y-61091428D01*
X221352500Y-61091428D02*
X221352500Y-60491428D01*
X221752500Y-60491428D02*
X221866785Y-60491428D01*
X221923928Y-60520000D01*
X221981071Y-60577142D01*
X222009642Y-60691428D01*
X222009642Y-60891428D01*
X221981071Y-61005714D01*
X221923928Y-61062857D01*
X221866785Y-61091428D01*
X221752500Y-61091428D01*
X221695357Y-61062857D01*
X221638214Y-61005714D01*
X221609642Y-60891428D01*
X221609642Y-60691428D01*
X221638214Y-60577142D01*
X221695357Y-60520000D01*
X221752500Y-60491428D01*
X219466785Y-55982857D02*
X219552500Y-56011428D01*
X219695357Y-56011428D01*
X219752500Y-55982857D01*
X219781071Y-55954285D01*
X219809642Y-55897142D01*
X219809642Y-55840000D01*
X219781071Y-55782857D01*
X219752500Y-55754285D01*
X219695357Y-55725714D01*
X219581071Y-55697142D01*
X219523928Y-55668571D01*
X219495357Y-55640000D01*
X219466785Y-55582857D01*
X219466785Y-55525714D01*
X219495357Y-55468571D01*
X219523928Y-55440000D01*
X219581071Y-55411428D01*
X219723928Y-55411428D01*
X219809642Y-55440000D01*
X220009642Y-55411428D02*
X220152500Y-56011428D01*
X220266785Y-55582857D01*
X220381071Y-56011428D01*
X220523928Y-55411428D01*
X221095357Y-55954285D02*
X221066785Y-55982857D01*
X220981071Y-56011428D01*
X220923928Y-56011428D01*
X220838214Y-55982857D01*
X220781071Y-55925714D01*
X220752500Y-55868571D01*
X220723928Y-55754285D01*
X220723928Y-55668571D01*
X220752500Y-55554285D01*
X220781071Y-55497142D01*
X220838214Y-55440000D01*
X220923928Y-55411428D01*
X220981071Y-55411428D01*
X221066785Y-55440000D01*
X221095357Y-55468571D01*
X221638214Y-56011428D02*
X221352500Y-56011428D01*
X221352500Y-55411428D01*
X221838214Y-56011428D02*
X221838214Y-55411428D01*
X222181071Y-56011428D02*
X221923928Y-55668571D01*
X222181071Y-55411428D02*
X221838214Y-55754285D01*
X219809642Y-57980000D02*
X219752500Y-57951428D01*
X219666785Y-57951428D01*
X219581071Y-57980000D01*
X219523928Y-58037142D01*
X219495357Y-58094285D01*
X219466785Y-58208571D01*
X219466785Y-58294285D01*
X219495357Y-58408571D01*
X219523928Y-58465714D01*
X219581071Y-58522857D01*
X219666785Y-58551428D01*
X219723928Y-58551428D01*
X219809642Y-58522857D01*
X219838214Y-58494285D01*
X219838214Y-58294285D01*
X219723928Y-58294285D01*
X220095357Y-58551428D02*
X220095357Y-57951428D01*
X220438214Y-58551428D01*
X220438214Y-57951428D01*
X220723928Y-58551428D02*
X220723928Y-57951428D01*
X220866785Y-57951428D01*
X220952500Y-57980000D01*
X221009642Y-58037142D01*
X221038214Y-58094285D01*
X221066785Y-58208571D01*
X221066785Y-58294285D01*
X221038214Y-58408571D01*
X221009642Y-58465714D01*
X220952500Y-58522857D01*
X220866785Y-58551428D01*
X220723928Y-58551428D01*
X219438214Y-52871428D02*
X219809642Y-52871428D01*
X219609642Y-53100000D01*
X219695357Y-53100000D01*
X219752500Y-53128571D01*
X219781071Y-53157142D01*
X219809642Y-53214285D01*
X219809642Y-53357142D01*
X219781071Y-53414285D01*
X219752500Y-53442857D01*
X219695357Y-53471428D01*
X219523928Y-53471428D01*
X219466785Y-53442857D01*
X219438214Y-53414285D01*
X220066785Y-53414285D02*
X220095357Y-53442857D01*
X220066785Y-53471428D01*
X220038214Y-53442857D01*
X220066785Y-53414285D01*
X220066785Y-53471428D01*
X220295357Y-52871428D02*
X220666785Y-52871428D01*
X220466785Y-53100000D01*
X220552500Y-53100000D01*
X220609642Y-53128571D01*
X220638214Y-53157142D01*
X220666785Y-53214285D01*
X220666785Y-53357142D01*
X220638214Y-53414285D01*
X220609642Y-53442857D01*
X220552500Y-53471428D01*
X220381071Y-53471428D01*
X220323928Y-53442857D01*
X220295357Y-53414285D01*
X220866785Y-53071428D02*
X221009642Y-53471428D01*
X221152500Y-53071428D01*
%TO.C,RN1*%
X80009523Y-61952380D02*
X79676190Y-61476190D01*
X79438095Y-61952380D02*
X79438095Y-60952380D01*
X79819047Y-60952380D01*
X79914285Y-61000000D01*
X79961904Y-61047619D01*
X80009523Y-61142857D01*
X80009523Y-61285714D01*
X79961904Y-61380952D01*
X79914285Y-61428571D01*
X79819047Y-61476190D01*
X79438095Y-61476190D01*
X80438095Y-61952380D02*
X80438095Y-60952380D01*
X81009523Y-61952380D01*
X81009523Y-60952380D01*
X82009523Y-61952380D02*
X81438095Y-61952380D01*
X81723809Y-61952380D02*
X81723809Y-60952380D01*
X81628571Y-61095238D01*
X81533333Y-61190476D01*
X81438095Y-61238095D01*
%TO.C,RN2*%
X79949523Y-79312380D02*
X79616190Y-78836190D01*
X79378095Y-79312380D02*
X79378095Y-78312380D01*
X79759047Y-78312380D01*
X79854285Y-78360000D01*
X79901904Y-78407619D01*
X79949523Y-78502857D01*
X79949523Y-78645714D01*
X79901904Y-78740952D01*
X79854285Y-78788571D01*
X79759047Y-78836190D01*
X79378095Y-78836190D01*
X80378095Y-79312380D02*
X80378095Y-78312380D01*
X80949523Y-79312380D01*
X80949523Y-78312380D01*
X81378095Y-78407619D02*
X81425714Y-78360000D01*
X81520952Y-78312380D01*
X81759047Y-78312380D01*
X81854285Y-78360000D01*
X81901904Y-78407619D01*
X81949523Y-78502857D01*
X81949523Y-78598095D01*
X81901904Y-78740952D01*
X81330476Y-79312380D01*
X81949523Y-79312380D01*
%TO.C,RN3*%
X109909523Y-62202380D02*
X109576190Y-61726190D01*
X109338095Y-62202380D02*
X109338095Y-61202380D01*
X109719047Y-61202380D01*
X109814285Y-61250000D01*
X109861904Y-61297619D01*
X109909523Y-61392857D01*
X109909523Y-61535714D01*
X109861904Y-61630952D01*
X109814285Y-61678571D01*
X109719047Y-61726190D01*
X109338095Y-61726190D01*
X110338095Y-62202380D02*
X110338095Y-61202380D01*
X110909523Y-62202380D01*
X110909523Y-61202380D01*
X111290476Y-61202380D02*
X111909523Y-61202380D01*
X111576190Y-61583333D01*
X111719047Y-61583333D01*
X111814285Y-61630952D01*
X111861904Y-61678571D01*
X111909523Y-61773809D01*
X111909523Y-62011904D01*
X111861904Y-62107142D01*
X111814285Y-62154761D01*
X111719047Y-62202380D01*
X111433333Y-62202380D01*
X111338095Y-62154761D01*
X111290476Y-62107142D01*
%TO.C,RN4*%
X109999523Y-79312380D02*
X109666190Y-78836190D01*
X109428095Y-79312380D02*
X109428095Y-78312380D01*
X109809047Y-78312380D01*
X109904285Y-78360000D01*
X109951904Y-78407619D01*
X109999523Y-78502857D01*
X109999523Y-78645714D01*
X109951904Y-78740952D01*
X109904285Y-78788571D01*
X109809047Y-78836190D01*
X109428095Y-78836190D01*
X110428095Y-79312380D02*
X110428095Y-78312380D01*
X110999523Y-79312380D01*
X110999523Y-78312380D01*
X111904285Y-78645714D02*
X111904285Y-79312380D01*
X111666190Y-78264761D02*
X111428095Y-78979047D01*
X112047142Y-78979047D01*
%TO.C,RN5*%
X142647619Y-58109523D02*
X143123809Y-57776190D01*
X142647619Y-57538095D02*
X143647619Y-57538095D01*
X143647619Y-57919047D01*
X143600000Y-58014285D01*
X143552380Y-58061904D01*
X143457142Y-58109523D01*
X143314285Y-58109523D01*
X143219047Y-58061904D01*
X143171428Y-58014285D01*
X143123809Y-57919047D01*
X143123809Y-57538095D01*
X142647619Y-58538095D02*
X143647619Y-58538095D01*
X142647619Y-59109523D01*
X143647619Y-59109523D01*
X143647619Y-60061904D02*
X143647619Y-59585714D01*
X143171428Y-59538095D01*
X143219047Y-59585714D01*
X143266666Y-59680952D01*
X143266666Y-59919047D01*
X143219047Y-60014285D01*
X143171428Y-60061904D01*
X143076190Y-60109523D01*
X142838095Y-60109523D01*
X142742857Y-60061904D01*
X142695238Y-60014285D01*
X142647619Y-59919047D01*
X142647619Y-59680952D01*
X142695238Y-59585714D01*
X142742857Y-59538095D01*
%TO.C,RN6*%
X142647619Y-75209523D02*
X143123809Y-74876190D01*
X142647619Y-74638095D02*
X143647619Y-74638095D01*
X143647619Y-75019047D01*
X143600000Y-75114285D01*
X143552380Y-75161904D01*
X143457142Y-75209523D01*
X143314285Y-75209523D01*
X143219047Y-75161904D01*
X143171428Y-75114285D01*
X143123809Y-75019047D01*
X143123809Y-74638095D01*
X142647619Y-75638095D02*
X143647619Y-75638095D01*
X142647619Y-76209523D01*
X143647619Y-76209523D01*
X143647619Y-77114285D02*
X143647619Y-76923809D01*
X143600000Y-76828571D01*
X143552380Y-76780952D01*
X143409523Y-76685714D01*
X143219047Y-76638095D01*
X142838095Y-76638095D01*
X142742857Y-76685714D01*
X142695238Y-76733333D01*
X142647619Y-76828571D01*
X142647619Y-77019047D01*
X142695238Y-77114285D01*
X142742857Y-77161904D01*
X142838095Y-77209523D01*
X143076190Y-77209523D01*
X143171428Y-77161904D01*
X143219047Y-77114285D01*
X143266666Y-77019047D01*
X143266666Y-76828571D01*
X143219047Y-76733333D01*
X143171428Y-76685714D01*
X143076190Y-76638095D01*
%TO.C,RN7*%
X169919523Y-62102380D02*
X169586190Y-61626190D01*
X169348095Y-62102380D02*
X169348095Y-61102380D01*
X169729047Y-61102380D01*
X169824285Y-61150000D01*
X169871904Y-61197619D01*
X169919523Y-61292857D01*
X169919523Y-61435714D01*
X169871904Y-61530952D01*
X169824285Y-61578571D01*
X169729047Y-61626190D01*
X169348095Y-61626190D01*
X170348095Y-62102380D02*
X170348095Y-61102380D01*
X170919523Y-62102380D01*
X170919523Y-61102380D01*
X171300476Y-61102380D02*
X171967142Y-61102380D01*
X171538571Y-62102380D01*
%TO.C,RN8*%
X169969523Y-79222380D02*
X169636190Y-78746190D01*
X169398095Y-79222380D02*
X169398095Y-78222380D01*
X169779047Y-78222380D01*
X169874285Y-78270000D01*
X169921904Y-78317619D01*
X169969523Y-78412857D01*
X169969523Y-78555714D01*
X169921904Y-78650952D01*
X169874285Y-78698571D01*
X169779047Y-78746190D01*
X169398095Y-78746190D01*
X170398095Y-79222380D02*
X170398095Y-78222380D01*
X170969523Y-79222380D01*
X170969523Y-78222380D01*
X171588571Y-78650952D02*
X171493333Y-78603333D01*
X171445714Y-78555714D01*
X171398095Y-78460476D01*
X171398095Y-78412857D01*
X171445714Y-78317619D01*
X171493333Y-78270000D01*
X171588571Y-78222380D01*
X171779047Y-78222380D01*
X171874285Y-78270000D01*
X171921904Y-78317619D01*
X171969523Y-78412857D01*
X171969523Y-78460476D01*
X171921904Y-78555714D01*
X171874285Y-78603333D01*
X171779047Y-78650952D01*
X171588571Y-78650952D01*
X171493333Y-78698571D01*
X171445714Y-78746190D01*
X171398095Y-78841428D01*
X171398095Y-79031904D01*
X171445714Y-79127142D01*
X171493333Y-79174761D01*
X171588571Y-79222380D01*
X171779047Y-79222380D01*
X171874285Y-79174761D01*
X171921904Y-79127142D01*
X171969523Y-79031904D01*
X171969523Y-78841428D01*
X171921904Y-78746190D01*
X171874285Y-78698571D01*
X171779047Y-78650952D01*
%TO.C,SW1*%
X71636666Y-66614761D02*
X71779523Y-66662380D01*
X72017619Y-66662380D01*
X72112857Y-66614761D01*
X72160476Y-66567142D01*
X72208095Y-66471904D01*
X72208095Y-66376666D01*
X72160476Y-66281428D01*
X72112857Y-66233809D01*
X72017619Y-66186190D01*
X71827142Y-66138571D01*
X71731904Y-66090952D01*
X71684285Y-66043333D01*
X71636666Y-65948095D01*
X71636666Y-65852857D01*
X71684285Y-65757619D01*
X71731904Y-65710000D01*
X71827142Y-65662380D01*
X72065238Y-65662380D01*
X72208095Y-65710000D01*
X72541428Y-65662380D02*
X72779523Y-66662380D01*
X72970000Y-65948095D01*
X73160476Y-66662380D01*
X73398571Y-65662380D01*
X74303333Y-66662380D02*
X73731904Y-66662380D01*
X74017619Y-66662380D02*
X74017619Y-65662380D01*
X73922380Y-65805238D01*
X73827142Y-65900476D01*
X73731904Y-65948095D01*
%TO.C,U5*%
X205438095Y-76652380D02*
X205438095Y-77461904D01*
X205485714Y-77557142D01*
X205533333Y-77604761D01*
X205628571Y-77652380D01*
X205819047Y-77652380D01*
X205914285Y-77604761D01*
X205961904Y-77557142D01*
X206009523Y-77461904D01*
X206009523Y-76652380D01*
X206961904Y-76652380D02*
X206485714Y-76652380D01*
X206438095Y-77128571D01*
X206485714Y-77080952D01*
X206580952Y-77033333D01*
X206819047Y-77033333D01*
X206914285Y-77080952D01*
X206961904Y-77128571D01*
X207009523Y-77223809D01*
X207009523Y-77461904D01*
X206961904Y-77557142D01*
X206914285Y-77604761D01*
X206819047Y-77652380D01*
X206580952Y-77652380D01*
X206485714Y-77604761D01*
X206438095Y-77557142D01*
%TD*%
M02*
