%TF.GenerationSoftware,KiCad,Pcbnew,5.1.9-73d0e3b20d~88~ubuntu20.04.1*%
%TF.CreationDate,2021-03-03T11:26:58+04:00*%
%TF.ProjectId,interface_board,696e7465-7266-4616-9365-5f626f617264,rev?*%
%TF.SameCoordinates,Original*%
%TF.FileFunction,Copper,L2,Bot*%
%TF.FilePolarity,Positive*%
%FSLAX46Y46*%
G04 Gerber Fmt 4.6, Leading zero omitted, Abs format (unit mm)*
G04 Created by KiCad (PCBNEW 5.1.9-73d0e3b20d~88~ubuntu20.04.1) date 2021-03-03 11:26:58*
%MOMM*%
%LPD*%
G01*
G04 APERTURE LIST*
%TA.AperFunction,Profile*%
%ADD10C,0.050000*%
%TD*%
%TA.AperFunction,Profile*%
%ADD11C,0.100000*%
%TD*%
%TA.AperFunction,ComponentPad*%
%ADD12C,1.524000*%
%TD*%
%TA.AperFunction,ComponentPad*%
%ADD13O,2.000000X1.000000*%
%TD*%
%TA.AperFunction,ComponentPad*%
%ADD14O,1.700000X2.500000*%
%TD*%
%TA.AperFunction,ComponentPad*%
%ADD15O,1.800000X2.100000*%
%TD*%
%TA.AperFunction,ComponentPad*%
%ADD16R,2.000000X1.700000*%
%TD*%
%TA.AperFunction,ComponentPad*%
%ADD17O,2.000000X1.700000*%
%TD*%
%TA.AperFunction,ComponentPad*%
%ADD18O,1.200000X2.000000*%
%TD*%
%TA.AperFunction,ViaPad*%
%ADD19C,0.800000*%
%TD*%
%TA.AperFunction,Conductor*%
%ADD20C,0.250000*%
%TD*%
%TA.AperFunction,Conductor*%
%ADD21C,1.000000*%
%TD*%
%TA.AperFunction,Conductor*%
%ADD22C,0.500000*%
%TD*%
%TA.AperFunction,Conductor*%
%ADD23C,0.254000*%
%TD*%
%TA.AperFunction,Conductor*%
%ADD24C,0.150000*%
%TD*%
G04 APERTURE END LIST*
D10*
X222900000Y-88100000D02*
X66700000Y-88100000D01*
D11*
X222900000Y-46100000D02*
X222900000Y-88100000D01*
X66700000Y-88100000D02*
X66700000Y-46100000D01*
X66700000Y-46100000D02*
X222900000Y-46100000D01*
D12*
%TO.P,D32,1*%
%TO.N,Net-(D32-Pad1)*%
X173930000Y-82210000D03*
%TO.P,D32,2*%
%TO.N,Net-(D32-Pad2)*%
X179450000Y-82210000D03*
%TD*%
%TO.P,D31,1*%
%TO.N,Net-(D31-Pad1)*%
X173930000Y-77884652D03*
%TO.P,D31,2*%
%TO.N,Net-(D31-Pad2)*%
X179450000Y-77884652D03*
%TD*%
%TO.P,D30,1*%
%TO.N,Net-(D30-Pad1)*%
X173930000Y-73559306D03*
%TO.P,D30,2*%
%TO.N,Net-(D30-Pad2)*%
X179450000Y-73559306D03*
%TD*%
%TO.P,D29,1*%
%TO.N,Net-(D29-Pad1)*%
X173930000Y-69233960D03*
%TO.P,D29,2*%
%TO.N,Net-(D29-Pad2)*%
X179450000Y-69233960D03*
%TD*%
%TO.P,D28,1*%
%TO.N,Net-(D28-Pad1)*%
X173930000Y-64908614D03*
%TO.P,D28,2*%
%TO.N,Net-(D28-Pad2)*%
X179450000Y-64908614D03*
%TD*%
%TO.P,D27,1*%
%TO.N,Net-(D27-Pad1)*%
X173930000Y-60583268D03*
%TO.P,D27,2*%
%TO.N,Net-(D27-Pad2)*%
X179450000Y-60583268D03*
%TD*%
%TO.P,D26,1*%
%TO.N,Net-(D26-Pad1)*%
X173930000Y-56257922D03*
%TO.P,D26,2*%
%TO.N,Net-(D26-Pad2)*%
X179450000Y-56257922D03*
%TD*%
%TO.P,D25,1*%
%TO.N,Net-(D25-Pad1)*%
X173930000Y-51932576D03*
%TO.P,D25,2*%
%TO.N,Net-(D25-Pad2)*%
X179450000Y-51932576D03*
%TD*%
%TO.P,D24,1*%
%TO.N,Net-(D24-Pad1)*%
X143930000Y-82210000D03*
%TO.P,D24,2*%
%TO.N,Net-(D24-Pad2)*%
X149450000Y-82210000D03*
%TD*%
%TO.P,D23,1*%
%TO.N,Net-(D23-Pad1)*%
X143930000Y-77881426D03*
%TO.P,D23,2*%
%TO.N,Net-(D23-Pad2)*%
X149450000Y-77881426D03*
%TD*%
%TO.P,D22,1*%
%TO.N,Net-(D22-Pad1)*%
X143930000Y-73552855D03*
%TO.P,D22,2*%
%TO.N,Net-(D22-Pad2)*%
X149450000Y-73552855D03*
%TD*%
%TO.P,D21,1*%
%TO.N,Net-(D21-Pad1)*%
X143930000Y-69224284D03*
%TO.P,D21,2*%
%TO.N,Net-(D21-Pad2)*%
X149450000Y-69224284D03*
%TD*%
%TO.P,D20,1*%
%TO.N,Net-(D20-Pad1)*%
X143930000Y-64895713D03*
%TO.P,D20,2*%
%TO.N,Net-(D20-Pad2)*%
X149450000Y-64895713D03*
%TD*%
%TO.P,D19,1*%
%TO.N,Net-(D19-Pad1)*%
X143930000Y-60567142D03*
%TO.P,D19,2*%
%TO.N,Net-(D19-Pad2)*%
X149450000Y-60567142D03*
%TD*%
%TO.P,D18,1*%
%TO.N,Net-(D18-Pad1)*%
X143930000Y-56238571D03*
%TO.P,D18,2*%
%TO.N,Net-(D18-Pad2)*%
X149450000Y-56238571D03*
%TD*%
%TO.P,D17,1*%
%TO.N,Net-(D17-Pad1)*%
X143930000Y-51910000D03*
%TO.P,D17,2*%
%TO.N,Net-(D17-Pad2)*%
X149450000Y-51910000D03*
%TD*%
%TO.P,D16,1*%
%TO.N,Net-(D16-Pad1)*%
X113930000Y-82210000D03*
%TO.P,D16,2*%
%TO.N,Net-(D16-Pad2)*%
X119450000Y-82210000D03*
%TD*%
%TO.P,D15,1*%
%TO.N,Net-(D15-Pad1)*%
X113930000Y-77892024D03*
%TO.P,D15,2*%
%TO.N,Net-(D15-Pad2)*%
X119450000Y-77892024D03*
%TD*%
%TO.P,D14,1*%
%TO.N,Net-(D14-Pad1)*%
X113930000Y-73574052D03*
%TO.P,D14,2*%
%TO.N,Net-(D14-Pad2)*%
X119450000Y-73574052D03*
%TD*%
%TO.P,D13,1*%
%TO.N,Net-(D13-Pad1)*%
X113930000Y-69256080D03*
%TO.P,D13,2*%
%TO.N,Net-(D13-Pad2)*%
X119450000Y-69256080D03*
%TD*%
%TO.P,D12,1*%
%TO.N,Net-(D12-Pad1)*%
X113930000Y-64938108D03*
%TO.P,D12,2*%
%TO.N,Net-(D12-Pad2)*%
X119450000Y-64938108D03*
%TD*%
%TO.P,D11,1*%
%TO.N,Net-(D11-Pad1)*%
X113930000Y-60620136D03*
%TO.P,D11,2*%
%TO.N,Net-(D11-Pad2)*%
X119450000Y-60620136D03*
%TD*%
%TO.P,D10,1*%
%TO.N,Net-(D10-Pad1)*%
X113930000Y-56302164D03*
%TO.P,D10,2*%
%TO.N,Net-(D10-Pad2)*%
X119450000Y-56302164D03*
%TD*%
%TO.P,D9,1*%
%TO.N,Net-(D9-Pad1)*%
X113930000Y-51984192D03*
%TO.P,D9,2*%
%TO.N,Net-(D9-Pad2)*%
X119450000Y-51984192D03*
%TD*%
%TO.P,D8,1*%
%TO.N,Net-(D8-Pad1)*%
X83930000Y-82210000D03*
%TO.P,D8,2*%
%TO.N,Net-(D8-Pad2)*%
X89450000Y-82210000D03*
%TD*%
%TO.P,D7,1*%
%TO.N,Net-(D7-Pad1)*%
X83930000Y-77895710D03*
%TO.P,D7,2*%
%TO.N,Net-(D7-Pad2)*%
X89450000Y-77895710D03*
%TD*%
%TO.P,D6,1*%
%TO.N,Net-(D6-Pad1)*%
X83930000Y-73581425D03*
%TO.P,D6,2*%
%TO.N,Net-(D6-Pad2)*%
X89450000Y-73581425D03*
%TD*%
%TO.P,D5,1*%
%TO.N,Net-(D5-Pad1)*%
X83930000Y-69267140D03*
%TO.P,D5,2*%
%TO.N,Net-(D5-Pad2)*%
X89450000Y-69267140D03*
%TD*%
%TO.P,D4,1*%
%TO.N,Net-(D4-Pad1)*%
X83930000Y-64952855D03*
%TO.P,D4,2*%
%TO.N,Net-(D4-Pad2)*%
X89450000Y-64952855D03*
%TD*%
%TO.P,D3,1*%
%TO.N,Net-(D3-Pad1)*%
X83930000Y-60638570D03*
%TO.P,D3,2*%
%TO.N,Net-(D3-Pad2)*%
X89450000Y-60638570D03*
%TD*%
%TO.P,D2,1*%
%TO.N,Net-(D2-Pad1)*%
X83930000Y-56324285D03*
%TO.P,D2,2*%
%TO.N,Net-(D2-Pad2)*%
X89450000Y-56324285D03*
%TD*%
%TO.P,D1,1*%
%TO.N,Net-(D1-Pad1)*%
X83930000Y-52010000D03*
%TO.P,D1,2*%
%TO.N,Net-(D1-Pad2)*%
X89450000Y-52010000D03*
%TD*%
%TO.P,D34,1*%
%TO.N,GND*%
X79230000Y-52410000D03*
%TO.P,D34,2*%
%TO.N,Net-(D34-Pad2)*%
X73710000Y-52410000D03*
%TD*%
%TO.P,D33,1*%
%TO.N,GND*%
X79230000Y-50300000D03*
%TO.P,D33,2*%
%TO.N,Net-(D33-Pad2)*%
X73710000Y-50300000D03*
%TD*%
D13*
%TO.P,J3,10*%
%TO.N,BTN*%
X203180000Y-85492000D03*
%TO.P,J3,9*%
%TO.N,OLEDS_PUSH_DATA*%
X203180000Y-84222000D03*
%TO.P,J3,8*%
%TO.N,SPICLK*%
X203180000Y-82952000D03*
%TO.P,J3,7*%
%TO.N,SPIMOSI*%
X203180000Y-81682000D03*
%TO.P,J3,6*%
%TO.N,LED_GREEN*%
X203180000Y-80412000D03*
%TO.P,J3,5*%
%TO.N,LED_RED*%
X203180000Y-79142000D03*
%TO.P,J3,4*%
%TO.N,USB-*%
X203180000Y-77872000D03*
%TO.P,J3,3*%
%TO.N,USB+*%
X203180000Y-76602000D03*
%TO.P,J3,2*%
%TO.N,GND*%
X203180000Y-75332000D03*
%TO.P,J3,1*%
%TO.N,VCC*%
%TA.AperFunction,ComponentPad*%
G36*
G01*
X202430000Y-73562000D02*
X203930000Y-73562000D01*
G75*
G02*
X204180000Y-73812000I0J-250000D01*
G01*
X204180000Y-74312000D01*
G75*
G02*
X203930000Y-74562000I-250000J0D01*
G01*
X202430000Y-74562000D01*
G75*
G02*
X202180000Y-74312000I0J250000D01*
G01*
X202180000Y-73812000D01*
G75*
G02*
X202430000Y-73562000I250000J0D01*
G01*
G37*
%TD.AperFunction*%
%TD*%
D14*
%TO.P,J4,6*%
%TO.N,GND*%
X217025000Y-77300000D03*
D15*
X214875000Y-74500000D03*
X214875000Y-80100000D03*
%TD*%
D16*
%TO.P,J2,1*%
%TO.N,VCC*%
X217350000Y-53200000D03*
D17*
%TO.P,J2,2*%
%TO.N,Net-(J1-Pad2)*%
X217350000Y-55740000D03*
%TO.P,J2,3*%
%TO.N,GND*%
X217350000Y-58280000D03*
%TO.P,J2,4*%
%TO.N,Net-(J1-Pad4)*%
X217350000Y-60820000D03*
%TO.P,J2,5*%
%TO.N,Net-(J1-Pad5)*%
X217350000Y-63360000D03*
%TO.P,J2,6*%
%TO.N,Net-(J1-Pad6)*%
X217350000Y-65900000D03*
%TD*%
%TO.P,J1,1*%
%TO.N,VCC*%
%TA.AperFunction,ComponentPad*%
G36*
G01*
X176670000Y-48650000D02*
X176670000Y-50050000D01*
G75*
G02*
X176370000Y-50350000I-300000J0D01*
G01*
X175770000Y-50350000D01*
G75*
G02*
X175470000Y-50050000I0J300000D01*
G01*
X175470000Y-48650000D01*
G75*
G02*
X175770000Y-48350000I300000J0D01*
G01*
X176370000Y-48350000D01*
G75*
G02*
X176670000Y-48650000I0J-300000D01*
G01*
G37*
%TD.AperFunction*%
D18*
%TO.P,J1,2*%
%TO.N,Net-(J1-Pad2)*%
X173530000Y-49350000D03*
%TO.P,J1,3*%
%TO.N,GND*%
X170990000Y-49350000D03*
%TO.P,J1,4*%
%TO.N,Net-(J1-Pad4)*%
X168450000Y-49350000D03*
%TO.P,J1,5*%
%TO.N,Net-(J1-Pad5)*%
X165910000Y-49350000D03*
%TO.P,J1,6*%
%TO.N,Net-(J1-Pad6)*%
X163370000Y-49350000D03*
%TD*%
D19*
%TO.N,GND*%
X94230000Y-73670000D03*
X98450000Y-59480000D03*
X104180000Y-73720000D03*
X170960000Y-53770000D03*
X187420000Y-53770000D03*
X210990000Y-63950000D03*
X187420000Y-79700000D03*
X217330000Y-84740000D03*
%TO.N,/Output Leds/Reset*%
X104210000Y-70300000D03*
X129980000Y-70300000D03*
X159983144Y-70541086D03*
X189820000Y-70529998D03*
%TO.N,VCC*%
X194220000Y-62660000D03*
X163890000Y-62660000D03*
X135940000Y-62660000D03*
X104150000Y-62690000D03*
%TO.N,/Output Leds/OEnable*%
X104150000Y-66500000D03*
X189850000Y-66510000D03*
X159989199Y-66000801D03*
X129960000Y-65970000D03*
%TO.N,SPICLK*%
X189850000Y-69020000D03*
X104200000Y-69030000D03*
X160001709Y-68000137D03*
X130000000Y-68050000D03*
%TO.N,OLEDS_PUSH_DATA*%
X104180000Y-67760000D03*
X189850000Y-67760000D03*
X194314847Y-71595153D03*
X159969996Y-67000628D03*
X129999998Y-67050000D03*
%TO.N,/Output Leds/ONReg1*%
X99880000Y-65840000D03*
X130000000Y-71490000D03*
%TO.N,/Output Leds/ONReg2*%
X133880000Y-71489990D03*
X160030000Y-71640000D03*
%TO.N,/Output Leds/ONReg3*%
X163840000Y-71540000D03*
X189860164Y-71657548D03*
%TD*%
D20*
%TO.N,/Output Leds/Reset*%
X129710000Y-70570000D02*
X129980000Y-70300000D01*
X104480000Y-70570000D02*
X129710000Y-70570000D01*
X104210000Y-70300000D02*
X104480000Y-70570000D01*
X130390000Y-70710000D02*
X159814230Y-70710000D01*
X159814230Y-70710000D02*
X159983144Y-70541086D01*
X129980000Y-70300000D02*
X130390000Y-70710000D01*
X189808912Y-70541086D02*
X189820000Y-70529998D01*
X159983144Y-70541086D02*
X189808912Y-70541086D01*
D21*
%TO.N,VCC*%
X195970000Y-62660000D02*
X195910000Y-62660000D01*
X203180000Y-69870000D02*
X195970000Y-62660000D01*
X195910000Y-62660000D02*
X194220000Y-62660000D01*
X163890000Y-62660000D02*
X135940000Y-62660000D01*
X194220000Y-62660000D02*
X163890000Y-62660000D01*
D22*
X135910000Y-62690000D02*
X135940000Y-62660000D01*
X104150000Y-62690000D02*
X135910000Y-62690000D01*
D21*
X213650000Y-49350000D02*
X176070000Y-49350000D01*
X217350000Y-53050000D02*
X213650000Y-49350000D01*
X217350000Y-53200000D02*
X217350000Y-53050000D01*
X203180000Y-67567955D02*
X203180000Y-70610000D01*
X217350000Y-53397955D02*
X203180000Y-67567955D01*
X217350000Y-53200000D02*
X217350000Y-53397955D01*
X203180000Y-70610000D02*
X203180000Y-69870000D01*
X203180000Y-74062000D02*
X203180000Y-70610000D01*
D20*
%TO.N,/Output Leds/OEnable*%
X189850000Y-66510000D02*
X189340801Y-66000801D01*
X189340801Y-66000801D02*
X159989199Y-66000801D01*
X129990801Y-66000801D02*
X129960000Y-65970000D01*
X159989199Y-66000801D02*
X129990801Y-66000801D01*
X118928239Y-66025109D02*
X119971761Y-66025109D01*
X129920000Y-66010000D02*
X129960000Y-65970000D01*
X118913130Y-66010000D02*
X118928239Y-66025109D01*
X114466870Y-66010000D02*
X118913130Y-66010000D01*
X114451761Y-66025109D02*
X114466870Y-66010000D01*
X119986870Y-66010000D02*
X129920000Y-66010000D01*
X113408239Y-66025109D02*
X114451761Y-66025109D01*
X113393130Y-66010000D02*
X113408239Y-66025109D01*
X119971761Y-66025109D02*
X119986870Y-66010000D01*
X104640000Y-66010000D02*
X113393130Y-66010000D01*
X104150000Y-66500000D02*
X104640000Y-66010000D01*
%TO.N,Net-(J1-Pad2)*%
X218675001Y-54414999D02*
X217350000Y-55740000D01*
X218675001Y-52089999D02*
X218675001Y-54414999D01*
X214609992Y-48024990D02*
X218675001Y-52089999D01*
X174855010Y-48024990D02*
X214609992Y-48024990D01*
X173530000Y-49350000D02*
X174855010Y-48024990D01*
%TO.N,Net-(J1-Pad4)*%
X219125011Y-51903599D02*
X219125011Y-59044989D01*
X214796393Y-47574981D02*
X219125011Y-51903599D01*
X168975020Y-47574980D02*
X214796393Y-47574981D01*
X219125011Y-59044989D02*
X217350000Y-60820000D01*
X168450000Y-48100000D02*
X168975020Y-47574980D01*
X168450000Y-49350000D02*
X168450000Y-48100000D01*
%TO.N,Net-(J1-Pad5)*%
X219575021Y-51717199D02*
X219575021Y-61134979D01*
X214977822Y-47120000D02*
X219575021Y-51717199D01*
X219575021Y-61134979D02*
X217350000Y-63360000D01*
X168140000Y-47120000D02*
X214977822Y-47120000D01*
X165910000Y-49350000D02*
X168140000Y-47120000D01*
%TO.N,Net-(J1-Pad6)*%
X220025031Y-63224969D02*
X217350000Y-65900000D01*
X220025031Y-51530799D02*
X220025031Y-63224969D01*
X215164223Y-46669991D02*
X220025031Y-51530799D01*
X166050009Y-46669991D02*
X215164223Y-46669991D01*
X163370000Y-49350000D02*
X166050009Y-46669991D01*
%TO.N,SPICLK*%
X188880000Y-68050000D02*
X130000000Y-68050000D01*
X104200000Y-69030000D02*
X105180000Y-68050000D01*
X105180000Y-68050000D02*
X130000000Y-68050000D01*
X189850000Y-69020000D02*
X188880000Y-68050000D01*
%TO.N,OLEDS_PUSH_DATA*%
X190500000Y-67760000D02*
X189850000Y-67760000D01*
X194314847Y-71574847D02*
X190500000Y-67760000D01*
X194314847Y-71595153D02*
X194314847Y-71574847D01*
X189850000Y-67760000D02*
X189090628Y-67000628D01*
X189090628Y-67000628D02*
X159969996Y-67000628D01*
X104180000Y-67760000D02*
X104890000Y-67050000D01*
X104890000Y-67050000D02*
X129999998Y-67050000D01*
X159969996Y-67000628D02*
X130049370Y-67000628D01*
X130049370Y-67000628D02*
X129999998Y-67050000D01*
%TO.N,/Output Leds/ONReg1*%
X102270000Y-71490000D02*
X130000000Y-71490000D01*
X99880000Y-69100000D02*
X102270000Y-71490000D01*
X99880000Y-65840000D02*
X99880000Y-69100000D01*
%TO.N,/Output Leds/ONReg2*%
X133880000Y-71489990D02*
X159879990Y-71489990D01*
X159879990Y-71489990D02*
X160030000Y-71640000D01*
%TO.N,/Output Leds/ONReg3*%
X189742616Y-71540000D02*
X189860164Y-71657548D01*
X163840000Y-71540000D02*
X189742616Y-71540000D01*
%TD*%
D23*
%TO.N,GND*%
X163842452Y-47802746D02*
X163612102Y-47732870D01*
X163370000Y-47709025D01*
X163127899Y-47732870D01*
X162895100Y-47803489D01*
X162680552Y-47918167D01*
X162492499Y-48072498D01*
X162338168Y-48260551D01*
X162223489Y-48475099D01*
X162152870Y-48707898D01*
X162135000Y-48889335D01*
X162135000Y-49810664D01*
X162152870Y-49992101D01*
X162223489Y-50224900D01*
X162338167Y-50439448D01*
X162492498Y-50627502D01*
X162680551Y-50781833D01*
X162895099Y-50896511D01*
X163127898Y-50967130D01*
X163370000Y-50990975D01*
X163612101Y-50967130D01*
X163844900Y-50896511D01*
X164059448Y-50781833D01*
X164247502Y-50627502D01*
X164401833Y-50439449D01*
X164516511Y-50224901D01*
X164587130Y-49992102D01*
X164605000Y-49810665D01*
X164605000Y-49189801D01*
X164675000Y-49119801D01*
X164675000Y-49810664D01*
X164692870Y-49992101D01*
X164763489Y-50224900D01*
X164878167Y-50439448D01*
X165032498Y-50627502D01*
X165220551Y-50781833D01*
X165435099Y-50896511D01*
X165667898Y-50967130D01*
X165910000Y-50990975D01*
X166152101Y-50967130D01*
X166384900Y-50896511D01*
X166599448Y-50781833D01*
X166787502Y-50627502D01*
X166941833Y-50439449D01*
X167056511Y-50224901D01*
X167127130Y-49992102D01*
X167145000Y-49810665D01*
X167145000Y-49189801D01*
X167215000Y-49119801D01*
X167215000Y-49810664D01*
X167232870Y-49992101D01*
X167303489Y-50224900D01*
X167418167Y-50439448D01*
X167572498Y-50627502D01*
X167760551Y-50781833D01*
X167975099Y-50896511D01*
X168207898Y-50967130D01*
X168450000Y-50990975D01*
X168692101Y-50967130D01*
X168924900Y-50896511D01*
X169139448Y-50781833D01*
X169327502Y-50627502D01*
X169481833Y-50439449D01*
X169596511Y-50224901D01*
X169667130Y-49992102D01*
X169685000Y-49810665D01*
X169685000Y-49477000D01*
X169755000Y-49477000D01*
X169755000Y-49877000D01*
X169803507Y-50115496D01*
X169897610Y-50339946D01*
X170033693Y-50541725D01*
X170206526Y-50713078D01*
X170409467Y-50847421D01*
X170634718Y-50939591D01*
X170672391Y-50943462D01*
X170863000Y-50818731D01*
X170863000Y-49477000D01*
X171117000Y-49477000D01*
X171117000Y-50818731D01*
X171307609Y-50943462D01*
X171345282Y-50939591D01*
X171570533Y-50847421D01*
X171773474Y-50713078D01*
X171946307Y-50541725D01*
X172082390Y-50339946D01*
X172176493Y-50115496D01*
X172225000Y-49877000D01*
X172225000Y-49477000D01*
X171117000Y-49477000D01*
X170863000Y-49477000D01*
X169755000Y-49477000D01*
X169685000Y-49477000D01*
X169685000Y-48889336D01*
X169667130Y-48707899D01*
X169596511Y-48475099D01*
X169521616Y-48334979D01*
X169914521Y-48334979D01*
X169897610Y-48360054D01*
X169803507Y-48584504D01*
X169755000Y-48823000D01*
X169755000Y-49223000D01*
X170863000Y-49223000D01*
X170863000Y-49203000D01*
X171117000Y-49203000D01*
X171117000Y-49223000D01*
X172225000Y-49223000D01*
X172225000Y-48823000D01*
X172176493Y-48584504D01*
X172082390Y-48360054D01*
X172065479Y-48334979D01*
X172458385Y-48334979D01*
X172383489Y-48475099D01*
X172312870Y-48707898D01*
X172295000Y-48889335D01*
X172295000Y-49810664D01*
X172312870Y-49992101D01*
X172383489Y-50224900D01*
X172498167Y-50439448D01*
X172652498Y-50627502D01*
X172840551Y-50781833D01*
X173012943Y-50873978D01*
X172844880Y-51042041D01*
X172691995Y-51270849D01*
X172586686Y-51525086D01*
X172533000Y-51794984D01*
X172533000Y-52070168D01*
X172586686Y-52340066D01*
X172691995Y-52594303D01*
X172844880Y-52823111D01*
X173039465Y-53017696D01*
X173268273Y-53170581D01*
X173522510Y-53275890D01*
X173792408Y-53329576D01*
X174067592Y-53329576D01*
X174337490Y-53275890D01*
X174591727Y-53170581D01*
X174820535Y-53017696D01*
X175015120Y-52823111D01*
X175168005Y-52594303D01*
X175273314Y-52340066D01*
X175327000Y-52070168D01*
X175327000Y-51794984D01*
X178053000Y-51794984D01*
X178053000Y-52070168D01*
X178106686Y-52340066D01*
X178211995Y-52594303D01*
X178364880Y-52823111D01*
X178559465Y-53017696D01*
X178788273Y-53170581D01*
X179042510Y-53275890D01*
X179312408Y-53329576D01*
X179587592Y-53329576D01*
X179857490Y-53275890D01*
X180111727Y-53170581D01*
X180340535Y-53017696D01*
X180535120Y-52823111D01*
X180688005Y-52594303D01*
X180793314Y-52340066D01*
X180847000Y-52070168D01*
X180847000Y-51794984D01*
X180793314Y-51525086D01*
X180688005Y-51270849D01*
X180535120Y-51042041D01*
X180340535Y-50847456D01*
X180111727Y-50694571D01*
X179857490Y-50589262D01*
X179587592Y-50535576D01*
X179312408Y-50535576D01*
X179042510Y-50589262D01*
X178788273Y-50694571D01*
X178559465Y-50847456D01*
X178364880Y-51042041D01*
X178211995Y-51270849D01*
X178106686Y-51525086D01*
X178053000Y-51794984D01*
X175327000Y-51794984D01*
X175273314Y-51525086D01*
X175168005Y-51270849D01*
X175015120Y-51042041D01*
X174820535Y-50847456D01*
X174591727Y-50694571D01*
X174413161Y-50620606D01*
X174561833Y-50439449D01*
X174676511Y-50224901D01*
X174747130Y-49992102D01*
X174765000Y-49810665D01*
X174765000Y-49189802D01*
X174831928Y-49122874D01*
X174831928Y-50050000D01*
X174849953Y-50233009D01*
X174903334Y-50408985D01*
X174990022Y-50571165D01*
X175106683Y-50713317D01*
X175248835Y-50829978D01*
X175411015Y-50916666D01*
X175586991Y-50970047D01*
X175770000Y-50988072D01*
X176370000Y-50988072D01*
X176553009Y-50970047D01*
X176728985Y-50916666D01*
X176891165Y-50829978D01*
X177033317Y-50713317D01*
X177149978Y-50571165D01*
X177196035Y-50485000D01*
X213179869Y-50485000D01*
X215711928Y-53017060D01*
X215711928Y-53430895D01*
X202416865Y-66725959D01*
X202373551Y-66761506D01*
X202231716Y-66934332D01*
X202152289Y-67082932D01*
X202126324Y-67131509D01*
X202107778Y-67192646D01*
X196811996Y-61896865D01*
X196776449Y-61853551D01*
X196603623Y-61711716D01*
X196406447Y-61606324D01*
X196192499Y-61541423D01*
X196025752Y-61525000D01*
X196025751Y-61525000D01*
X195970000Y-61519509D01*
X195914249Y-61525000D01*
X180483923Y-61525000D01*
X180535120Y-61473803D01*
X180688005Y-61244995D01*
X180793314Y-60990758D01*
X180847000Y-60720860D01*
X180847000Y-60445676D01*
X180793314Y-60175778D01*
X180688005Y-59921541D01*
X180535120Y-59692733D01*
X180340535Y-59498148D01*
X180111727Y-59345263D01*
X179857490Y-59239954D01*
X179587592Y-59186268D01*
X179312408Y-59186268D01*
X179042510Y-59239954D01*
X178788273Y-59345263D01*
X178559465Y-59498148D01*
X178364880Y-59692733D01*
X178211995Y-59921541D01*
X178106686Y-60175778D01*
X178053000Y-60445676D01*
X178053000Y-60720860D01*
X178106686Y-60990758D01*
X178211995Y-61244995D01*
X178364880Y-61473803D01*
X178416077Y-61525000D01*
X174963923Y-61525000D01*
X175015120Y-61473803D01*
X175168005Y-61244995D01*
X175273314Y-60990758D01*
X175327000Y-60720860D01*
X175327000Y-60445676D01*
X175273314Y-60175778D01*
X175168005Y-59921541D01*
X175015120Y-59692733D01*
X174820535Y-59498148D01*
X174591727Y-59345263D01*
X174337490Y-59239954D01*
X174067592Y-59186268D01*
X173792408Y-59186268D01*
X173522510Y-59239954D01*
X173268273Y-59345263D01*
X173039465Y-59498148D01*
X172844880Y-59692733D01*
X172691995Y-59921541D01*
X172586686Y-60175778D01*
X172533000Y-60445676D01*
X172533000Y-60720860D01*
X172586686Y-60990758D01*
X172691995Y-61244995D01*
X172844880Y-61473803D01*
X172896077Y-61525000D01*
X150467797Y-61525000D01*
X150535120Y-61457677D01*
X150688005Y-61228869D01*
X150793314Y-60974632D01*
X150847000Y-60704734D01*
X150847000Y-60429550D01*
X150793314Y-60159652D01*
X150688005Y-59905415D01*
X150535120Y-59676607D01*
X150340535Y-59482022D01*
X150111727Y-59329137D01*
X149857490Y-59223828D01*
X149587592Y-59170142D01*
X149312408Y-59170142D01*
X149042510Y-59223828D01*
X148788273Y-59329137D01*
X148559465Y-59482022D01*
X148364880Y-59676607D01*
X148211995Y-59905415D01*
X148106686Y-60159652D01*
X148053000Y-60429550D01*
X148053000Y-60704734D01*
X148106686Y-60974632D01*
X148211995Y-61228869D01*
X148364880Y-61457677D01*
X148432203Y-61525000D01*
X144947797Y-61525000D01*
X145015120Y-61457677D01*
X145168005Y-61228869D01*
X145273314Y-60974632D01*
X145327000Y-60704734D01*
X145327000Y-60429550D01*
X145273314Y-60159652D01*
X145168005Y-59905415D01*
X145015120Y-59676607D01*
X144820535Y-59482022D01*
X144591727Y-59329137D01*
X144337490Y-59223828D01*
X144067592Y-59170142D01*
X143792408Y-59170142D01*
X143522510Y-59223828D01*
X143268273Y-59329137D01*
X143039465Y-59482022D01*
X142844880Y-59676607D01*
X142691995Y-59905415D01*
X142586686Y-60159652D01*
X142533000Y-60429550D01*
X142533000Y-60704734D01*
X142586686Y-60974632D01*
X142691995Y-61228869D01*
X142844880Y-61457677D01*
X142912203Y-61525000D01*
X135884248Y-61525000D01*
X135717501Y-61541423D01*
X135503553Y-61606324D01*
X135306377Y-61711716D01*
X135192710Y-61805000D01*
X120191258Y-61805000D01*
X120340535Y-61705256D01*
X120535120Y-61510671D01*
X120688005Y-61281863D01*
X120793314Y-61027626D01*
X120847000Y-60757728D01*
X120847000Y-60482544D01*
X120793314Y-60212646D01*
X120688005Y-59958409D01*
X120535120Y-59729601D01*
X120340535Y-59535016D01*
X120111727Y-59382131D01*
X119857490Y-59276822D01*
X119587592Y-59223136D01*
X119312408Y-59223136D01*
X119042510Y-59276822D01*
X118788273Y-59382131D01*
X118559465Y-59535016D01*
X118364880Y-59729601D01*
X118211995Y-59958409D01*
X118106686Y-60212646D01*
X118053000Y-60482544D01*
X118053000Y-60757728D01*
X118106686Y-61027626D01*
X118211995Y-61281863D01*
X118364880Y-61510671D01*
X118559465Y-61705256D01*
X118708742Y-61805000D01*
X114671258Y-61805000D01*
X114820535Y-61705256D01*
X115015120Y-61510671D01*
X115168005Y-61281863D01*
X115273314Y-61027626D01*
X115327000Y-60757728D01*
X115327000Y-60482544D01*
X115273314Y-60212646D01*
X115168005Y-59958409D01*
X115015120Y-59729601D01*
X114820535Y-59535016D01*
X114591727Y-59382131D01*
X114337490Y-59276822D01*
X114067592Y-59223136D01*
X113792408Y-59223136D01*
X113522510Y-59276822D01*
X113268273Y-59382131D01*
X113039465Y-59535016D01*
X112844880Y-59729601D01*
X112691995Y-59958409D01*
X112586686Y-60212646D01*
X112533000Y-60482544D01*
X112533000Y-60757728D01*
X112586686Y-61027626D01*
X112691995Y-61281863D01*
X112844880Y-61510671D01*
X113039465Y-61705256D01*
X113188742Y-61805000D01*
X104688454Y-61805000D01*
X104640256Y-61772795D01*
X104451898Y-61694774D01*
X104251939Y-61655000D01*
X104048061Y-61655000D01*
X103848102Y-61694774D01*
X103659744Y-61772795D01*
X103490226Y-61886063D01*
X103346063Y-62030226D01*
X103232795Y-62199744D01*
X103154774Y-62388102D01*
X103115000Y-62588061D01*
X103115000Y-62791939D01*
X103154774Y-62991898D01*
X103232795Y-63180256D01*
X103346063Y-63349774D01*
X103490226Y-63493937D01*
X103659744Y-63607205D01*
X103848102Y-63685226D01*
X104048061Y-63725000D01*
X104251939Y-63725000D01*
X104451898Y-63685226D01*
X104640256Y-63607205D01*
X104688454Y-63575000D01*
X113622021Y-63575000D01*
X113522510Y-63594794D01*
X113268273Y-63700103D01*
X113039465Y-63852988D01*
X112844880Y-64047573D01*
X112691995Y-64276381D01*
X112586686Y-64530618D01*
X112533000Y-64800516D01*
X112533000Y-65075700D01*
X112567670Y-65250000D01*
X104677325Y-65250000D01*
X104640000Y-65246324D01*
X104602675Y-65250000D01*
X104602667Y-65250000D01*
X104491014Y-65260997D01*
X104347753Y-65304454D01*
X104215724Y-65375026D01*
X104106090Y-65465000D01*
X104048061Y-65465000D01*
X103848102Y-65504774D01*
X103659744Y-65582795D01*
X103490226Y-65696063D01*
X103346063Y-65840226D01*
X103232795Y-66009744D01*
X103154774Y-66198102D01*
X103115000Y-66398061D01*
X103115000Y-66601939D01*
X103154774Y-66801898D01*
X103232795Y-66990256D01*
X103341169Y-67152449D01*
X103262795Y-67269744D01*
X103184774Y-67458102D01*
X103145000Y-67658061D01*
X103145000Y-67861939D01*
X103184774Y-68061898D01*
X103262795Y-68250256D01*
X103369510Y-68409966D01*
X103282795Y-68539744D01*
X103204774Y-68728102D01*
X103165000Y-68928061D01*
X103165000Y-69131939D01*
X103204774Y-69331898D01*
X103282795Y-69520256D01*
X103384510Y-69672483D01*
X103292795Y-69809744D01*
X103214774Y-69998102D01*
X103175000Y-70198061D01*
X103175000Y-70401939D01*
X103214774Y-70601898D01*
X103267836Y-70730000D01*
X102584803Y-70730000D01*
X100640000Y-68785199D01*
X100640000Y-66543711D01*
X100683937Y-66499774D01*
X100797205Y-66330256D01*
X100875226Y-66141898D01*
X100915000Y-65941939D01*
X100915000Y-65738061D01*
X100875226Y-65538102D01*
X100797205Y-65349744D01*
X100683937Y-65180226D01*
X100539774Y-65036063D01*
X100370256Y-64922795D01*
X100181898Y-64844774D01*
X99981939Y-64805000D01*
X99778061Y-64805000D01*
X99578102Y-64844774D01*
X99389744Y-64922795D01*
X99220226Y-65036063D01*
X99076063Y-65180226D01*
X98962795Y-65349744D01*
X98884774Y-65538102D01*
X98845000Y-65738061D01*
X98845000Y-65941939D01*
X98884774Y-66141898D01*
X98962795Y-66330256D01*
X99076063Y-66499774D01*
X99120000Y-66543711D01*
X99120001Y-69062668D01*
X99116324Y-69100000D01*
X99120001Y-69137333D01*
X99123119Y-69168985D01*
X99130998Y-69248985D01*
X99174454Y-69392246D01*
X99245026Y-69524276D01*
X99316201Y-69611002D01*
X99340000Y-69640001D01*
X99368998Y-69663799D01*
X101706205Y-72001008D01*
X101729999Y-72030001D01*
X101758992Y-72053795D01*
X101758996Y-72053799D01*
X101829685Y-72111811D01*
X101845724Y-72124974D01*
X101977753Y-72195546D01*
X102121014Y-72239003D01*
X102232667Y-72250000D01*
X102232676Y-72250000D01*
X102269999Y-72253676D01*
X102307322Y-72250000D01*
X113476008Y-72250000D01*
X113268273Y-72336047D01*
X113039465Y-72488932D01*
X112844880Y-72683517D01*
X112691995Y-72912325D01*
X112586686Y-73166562D01*
X112533000Y-73436460D01*
X112533000Y-73711644D01*
X112586686Y-73981542D01*
X112691995Y-74235779D01*
X112844880Y-74464587D01*
X113039465Y-74659172D01*
X113268273Y-74812057D01*
X113522510Y-74917366D01*
X113792408Y-74971052D01*
X114067592Y-74971052D01*
X114337490Y-74917366D01*
X114591727Y-74812057D01*
X114820535Y-74659172D01*
X115015120Y-74464587D01*
X115168005Y-74235779D01*
X115273314Y-73981542D01*
X115327000Y-73711644D01*
X115327000Y-73436460D01*
X115273314Y-73166562D01*
X115168005Y-72912325D01*
X115015120Y-72683517D01*
X114820535Y-72488932D01*
X114591727Y-72336047D01*
X114383992Y-72250000D01*
X118996008Y-72250000D01*
X118788273Y-72336047D01*
X118559465Y-72488932D01*
X118364880Y-72683517D01*
X118211995Y-72912325D01*
X118106686Y-73166562D01*
X118053000Y-73436460D01*
X118053000Y-73711644D01*
X118106686Y-73981542D01*
X118211995Y-74235779D01*
X118364880Y-74464587D01*
X118559465Y-74659172D01*
X118788273Y-74812057D01*
X119042510Y-74917366D01*
X119312408Y-74971052D01*
X119587592Y-74971052D01*
X119857490Y-74917366D01*
X120111727Y-74812057D01*
X120340535Y-74659172D01*
X120535120Y-74464587D01*
X120688005Y-74235779D01*
X120793314Y-73981542D01*
X120847000Y-73711644D01*
X120847000Y-73436460D01*
X120793314Y-73166562D01*
X120688005Y-72912325D01*
X120535120Y-72683517D01*
X120340535Y-72488932D01*
X120111727Y-72336047D01*
X119903992Y-72250000D01*
X129296289Y-72250000D01*
X129340226Y-72293937D01*
X129509744Y-72407205D01*
X129698102Y-72485226D01*
X129898061Y-72525000D01*
X130101939Y-72525000D01*
X130301898Y-72485226D01*
X130490256Y-72407205D01*
X130659774Y-72293937D01*
X130803937Y-72149774D01*
X130917205Y-71980256D01*
X130995226Y-71791898D01*
X131035000Y-71591939D01*
X131035000Y-71470000D01*
X132845000Y-71470000D01*
X132845000Y-71591929D01*
X132884774Y-71791888D01*
X132962795Y-71980246D01*
X133076063Y-72149764D01*
X133220226Y-72293927D01*
X133389744Y-72407195D01*
X133578102Y-72485216D01*
X133778061Y-72524990D01*
X133981939Y-72524990D01*
X134181898Y-72485216D01*
X134370256Y-72407195D01*
X134539774Y-72293927D01*
X134583711Y-72249990D01*
X143424858Y-72249990D01*
X143268273Y-72314850D01*
X143039465Y-72467735D01*
X142844880Y-72662320D01*
X142691995Y-72891128D01*
X142586686Y-73145365D01*
X142533000Y-73415263D01*
X142533000Y-73690447D01*
X142586686Y-73960345D01*
X142691995Y-74214582D01*
X142844880Y-74443390D01*
X143039465Y-74637975D01*
X143268273Y-74790860D01*
X143522510Y-74896169D01*
X143792408Y-74949855D01*
X144067592Y-74949855D01*
X144337490Y-74896169D01*
X144591727Y-74790860D01*
X144820535Y-74637975D01*
X145015120Y-74443390D01*
X145168005Y-74214582D01*
X145273314Y-73960345D01*
X145327000Y-73690447D01*
X145327000Y-73415263D01*
X145273314Y-73145365D01*
X145168005Y-72891128D01*
X145015120Y-72662320D01*
X144820535Y-72467735D01*
X144591727Y-72314850D01*
X144435142Y-72249990D01*
X148944858Y-72249990D01*
X148788273Y-72314850D01*
X148559465Y-72467735D01*
X148364880Y-72662320D01*
X148211995Y-72891128D01*
X148106686Y-73145365D01*
X148053000Y-73415263D01*
X148053000Y-73690447D01*
X148106686Y-73960345D01*
X148211995Y-74214582D01*
X148364880Y-74443390D01*
X148559465Y-74637975D01*
X148788273Y-74790860D01*
X149042510Y-74896169D01*
X149312408Y-74949855D01*
X149587592Y-74949855D01*
X149857490Y-74896169D01*
X150111727Y-74790860D01*
X150340535Y-74637975D01*
X150535120Y-74443390D01*
X150688005Y-74214582D01*
X150793314Y-73960345D01*
X150847000Y-73690447D01*
X150847000Y-73415263D01*
X150793314Y-73145365D01*
X150688005Y-72891128D01*
X150535120Y-72662320D01*
X150340535Y-72467735D01*
X150111727Y-72314850D01*
X149955142Y-72249990D01*
X159192798Y-72249990D01*
X159226063Y-72299774D01*
X159370226Y-72443937D01*
X159539744Y-72557205D01*
X159728102Y-72635226D01*
X159928061Y-72675000D01*
X160131939Y-72675000D01*
X160331898Y-72635226D01*
X160520256Y-72557205D01*
X160689774Y-72443937D01*
X160833937Y-72299774D01*
X160947205Y-72130256D01*
X161025226Y-71941898D01*
X161065000Y-71741939D01*
X161065000Y-71538061D01*
X161025226Y-71338102D01*
X161009893Y-71301086D01*
X162832246Y-71301086D01*
X162805000Y-71438061D01*
X162805000Y-71641939D01*
X162844774Y-71841898D01*
X162922795Y-72030256D01*
X163036063Y-72199774D01*
X163180226Y-72343937D01*
X163349744Y-72457205D01*
X163538102Y-72535226D01*
X163738061Y-72575000D01*
X163941939Y-72575000D01*
X164141898Y-72535226D01*
X164330256Y-72457205D01*
X164499774Y-72343937D01*
X164543711Y-72300000D01*
X173319698Y-72300000D01*
X173268273Y-72321301D01*
X173039465Y-72474186D01*
X172844880Y-72668771D01*
X172691995Y-72897579D01*
X172586686Y-73151816D01*
X172533000Y-73421714D01*
X172533000Y-73696898D01*
X172586686Y-73966796D01*
X172691995Y-74221033D01*
X172844880Y-74449841D01*
X173039465Y-74644426D01*
X173268273Y-74797311D01*
X173522510Y-74902620D01*
X173792408Y-74956306D01*
X174067592Y-74956306D01*
X174337490Y-74902620D01*
X174591727Y-74797311D01*
X174820535Y-74644426D01*
X175015120Y-74449841D01*
X175168005Y-74221033D01*
X175273314Y-73966796D01*
X175327000Y-73696898D01*
X175327000Y-73421714D01*
X175273314Y-73151816D01*
X175168005Y-72897579D01*
X175015120Y-72668771D01*
X174820535Y-72474186D01*
X174591727Y-72321301D01*
X174540302Y-72300000D01*
X178839698Y-72300000D01*
X178788273Y-72321301D01*
X178559465Y-72474186D01*
X178364880Y-72668771D01*
X178211995Y-72897579D01*
X178106686Y-73151816D01*
X178053000Y-73421714D01*
X178053000Y-73696898D01*
X178106686Y-73966796D01*
X178211995Y-74221033D01*
X178364880Y-74449841D01*
X178559465Y-74644426D01*
X178788273Y-74797311D01*
X179042510Y-74902620D01*
X179312408Y-74956306D01*
X179587592Y-74956306D01*
X179857490Y-74902620D01*
X180111727Y-74797311D01*
X180340535Y-74644426D01*
X180535120Y-74449841D01*
X180688005Y-74221033D01*
X180793314Y-73966796D01*
X180847000Y-73696898D01*
X180847000Y-73421714D01*
X180793314Y-73151816D01*
X180688005Y-72897579D01*
X180535120Y-72668771D01*
X180340535Y-72474186D01*
X180111727Y-72321301D01*
X180060302Y-72300000D01*
X189044653Y-72300000D01*
X189056227Y-72317322D01*
X189200390Y-72461485D01*
X189369908Y-72574753D01*
X189558266Y-72652774D01*
X189758225Y-72692548D01*
X189962103Y-72692548D01*
X190162062Y-72652774D01*
X190350420Y-72574753D01*
X190519938Y-72461485D01*
X190664101Y-72317322D01*
X190777369Y-72147804D01*
X190855390Y-71959446D01*
X190895164Y-71759487D01*
X190895164Y-71555609D01*
X190855390Y-71355650D01*
X190777369Y-71167292D01*
X190708163Y-71063718D01*
X190737205Y-71020254D01*
X190815226Y-70831896D01*
X190855000Y-70631937D01*
X190855000Y-70428059D01*
X190815226Y-70228100D01*
X190737205Y-70039742D01*
X190623937Y-69870224D01*
X190543712Y-69789999D01*
X190653937Y-69679774D01*
X190767205Y-69510256D01*
X190845226Y-69321898D01*
X190868764Y-69203565D01*
X193279847Y-71614649D01*
X193279847Y-71697092D01*
X193319621Y-71897051D01*
X193397642Y-72085409D01*
X193510910Y-72254927D01*
X193655073Y-72399090D01*
X193824591Y-72512358D01*
X194012949Y-72590379D01*
X194212908Y-72630153D01*
X194416786Y-72630153D01*
X194616745Y-72590379D01*
X194805103Y-72512358D01*
X194974621Y-72399090D01*
X195118784Y-72254927D01*
X195232052Y-72085409D01*
X195310073Y-71897051D01*
X195349847Y-71697092D01*
X195349847Y-71493214D01*
X195310073Y-71293255D01*
X195232052Y-71104897D01*
X195118784Y-70935379D01*
X194974621Y-70791216D01*
X194805103Y-70677948D01*
X194616745Y-70599927D01*
X194416786Y-70560153D01*
X194374955Y-70560153D01*
X191063803Y-67249002D01*
X191040001Y-67219999D01*
X190924276Y-67125026D01*
X190792247Y-67054454D01*
X190741314Y-67039004D01*
X190767205Y-67000256D01*
X190845226Y-66811898D01*
X190885000Y-66611939D01*
X190885000Y-66408061D01*
X190845226Y-66208102D01*
X190767205Y-66019744D01*
X190653937Y-65850226D01*
X190509774Y-65706063D01*
X190340256Y-65592795D01*
X190151898Y-65514774D01*
X189951939Y-65475000D01*
X189892456Y-65475000D01*
X189880802Y-65460800D01*
X189765077Y-65365827D01*
X189633048Y-65295255D01*
X189489787Y-65251798D01*
X189378134Y-65240801D01*
X189378123Y-65240801D01*
X189340801Y-65237125D01*
X189303479Y-65240801D01*
X180808293Y-65240801D01*
X180847000Y-65046206D01*
X180847000Y-64771022D01*
X180793314Y-64501124D01*
X180688005Y-64246887D01*
X180535120Y-64018079D01*
X180340535Y-63823494D01*
X180297891Y-63795000D01*
X195499869Y-63795000D01*
X202045000Y-70340132D01*
X202045000Y-70665751D01*
X202045001Y-70665761D01*
X202045000Y-73015661D01*
X201936614Y-73073595D01*
X201802038Y-73184038D01*
X201691595Y-73318614D01*
X201609528Y-73472150D01*
X201558992Y-73638746D01*
X201541928Y-73812000D01*
X201541928Y-74312000D01*
X201558992Y-74485254D01*
X201609528Y-74651850D01*
X201680393Y-74784428D01*
X201665724Y-74807024D01*
X201585881Y-75030126D01*
X201712046Y-75205000D01*
X203053000Y-75205000D01*
X203053000Y-75200072D01*
X203155439Y-75200072D01*
X203180000Y-75202491D01*
X203204561Y-75200072D01*
X203307000Y-75200072D01*
X203307000Y-75205000D01*
X204647954Y-75205000D01*
X204774119Y-75030126D01*
X204715941Y-74867559D01*
X213354362Y-74867559D01*
X213426024Y-75160040D01*
X213553370Y-75432921D01*
X213731505Y-75675715D01*
X213953584Y-75879091D01*
X214211073Y-76035234D01*
X214494076Y-76138143D01*
X214510260Y-76141036D01*
X214748000Y-76020378D01*
X214748000Y-74627000D01*
X215002000Y-74627000D01*
X215002000Y-76020378D01*
X215239740Y-76141036D01*
X215255924Y-76138143D01*
X215538927Y-76035234D01*
X215796416Y-75879091D01*
X216018495Y-75675715D01*
X216196630Y-75432921D01*
X216323976Y-75160040D01*
X216395638Y-74867559D01*
X216252200Y-74627000D01*
X215002000Y-74627000D01*
X214748000Y-74627000D01*
X213497800Y-74627000D01*
X213354362Y-74867559D01*
X204715941Y-74867559D01*
X204694276Y-74807024D01*
X204679607Y-74784428D01*
X204750472Y-74651850D01*
X204801008Y-74485254D01*
X204818072Y-74312000D01*
X204818072Y-74132441D01*
X213354362Y-74132441D01*
X213497800Y-74373000D01*
X214748000Y-74373000D01*
X214748000Y-72979622D01*
X215002000Y-72979622D01*
X215002000Y-74373000D01*
X216252200Y-74373000D01*
X216395638Y-74132441D01*
X216323976Y-73839960D01*
X216196630Y-73567079D01*
X216018495Y-73324285D01*
X215796416Y-73120909D01*
X215538927Y-72964766D01*
X215255924Y-72861857D01*
X215239740Y-72858964D01*
X215002000Y-72979622D01*
X214748000Y-72979622D01*
X214510260Y-72858964D01*
X214494076Y-72861857D01*
X214211073Y-72964766D01*
X213953584Y-73120909D01*
X213731505Y-73324285D01*
X213553370Y-73567079D01*
X213426024Y-73839960D01*
X213354362Y-74132441D01*
X204818072Y-74132441D01*
X204818072Y-73812000D01*
X204801008Y-73638746D01*
X204750472Y-73472150D01*
X204668405Y-73318614D01*
X204557962Y-73184038D01*
X204423386Y-73073595D01*
X204315000Y-73015661D01*
X204315000Y-69925752D01*
X204320491Y-69870000D01*
X204315000Y-69814248D01*
X204315000Y-68038086D01*
X215898260Y-56454827D01*
X215959294Y-56569014D01*
X216144866Y-56795134D01*
X216370986Y-56980706D01*
X216428731Y-57011571D01*
X216208205Y-57173198D01*
X216011336Y-57387954D01*
X215860146Y-57636991D01*
X215760446Y-57910739D01*
X215758524Y-57923110D01*
X215879845Y-58153000D01*
X217223000Y-58153000D01*
X217223000Y-58133000D01*
X217477000Y-58133000D01*
X217477000Y-58153000D01*
X217497000Y-58153000D01*
X217497000Y-58407000D01*
X217477000Y-58407000D01*
X217477000Y-58427000D01*
X217223000Y-58427000D01*
X217223000Y-58407000D01*
X215879845Y-58407000D01*
X215758524Y-58636890D01*
X215760446Y-58649261D01*
X215860146Y-58923009D01*
X216011336Y-59172046D01*
X216208205Y-59386802D01*
X216428731Y-59548429D01*
X216370986Y-59579294D01*
X216144866Y-59764866D01*
X215959294Y-59990986D01*
X215821401Y-60248966D01*
X215736487Y-60528889D01*
X215707815Y-60820000D01*
X215736487Y-61111111D01*
X215821401Y-61391034D01*
X215959294Y-61649014D01*
X216144866Y-61875134D01*
X216370986Y-62060706D01*
X216425791Y-62090000D01*
X216370986Y-62119294D01*
X216144866Y-62304866D01*
X215959294Y-62530986D01*
X215821401Y-62788966D01*
X215736487Y-63068889D01*
X215707815Y-63360000D01*
X215736487Y-63651111D01*
X215821401Y-63931034D01*
X215959294Y-64189014D01*
X216144866Y-64415134D01*
X216370986Y-64600706D01*
X216425791Y-64630000D01*
X216370986Y-64659294D01*
X216144866Y-64844866D01*
X215959294Y-65070986D01*
X215821401Y-65328966D01*
X215736487Y-65608889D01*
X215707815Y-65900000D01*
X215736487Y-66191111D01*
X215821401Y-66471034D01*
X215959294Y-66729014D01*
X216144866Y-66955134D01*
X216370986Y-67140706D01*
X216628966Y-67278599D01*
X216908889Y-67363513D01*
X217127050Y-67385000D01*
X217572950Y-67385000D01*
X217791111Y-67363513D01*
X218071034Y-67278599D01*
X218329014Y-67140706D01*
X218555134Y-66955134D01*
X218740706Y-66729014D01*
X218878599Y-66471034D01*
X218963513Y-66191111D01*
X218992185Y-65900000D01*
X218963513Y-65608889D01*
X218905885Y-65418916D01*
X220536034Y-63788768D01*
X220565032Y-63764970D01*
X220597835Y-63725000D01*
X220660005Y-63649246D01*
X220730577Y-63517216D01*
X220737638Y-63493937D01*
X220774034Y-63373955D01*
X220785031Y-63262302D01*
X220785031Y-63262293D01*
X220788707Y-63224970D01*
X220785031Y-63187647D01*
X220785031Y-51568132D01*
X220788708Y-51530799D01*
X220774034Y-51381813D01*
X220730577Y-51238552D01*
X220660005Y-51106523D01*
X220588830Y-51019796D01*
X220565032Y-50990798D01*
X220536035Y-50967001D01*
X216354033Y-46785000D01*
X222215000Y-46785000D01*
X222215001Y-87440000D01*
X67385000Y-87440000D01*
X67385000Y-82072408D01*
X82533000Y-82072408D01*
X82533000Y-82347592D01*
X82586686Y-82617490D01*
X82691995Y-82871727D01*
X82844880Y-83100535D01*
X83039465Y-83295120D01*
X83268273Y-83448005D01*
X83522510Y-83553314D01*
X83792408Y-83607000D01*
X84067592Y-83607000D01*
X84337490Y-83553314D01*
X84591727Y-83448005D01*
X84820535Y-83295120D01*
X85015120Y-83100535D01*
X85168005Y-82871727D01*
X85273314Y-82617490D01*
X85327000Y-82347592D01*
X85327000Y-82072408D01*
X88053000Y-82072408D01*
X88053000Y-82347592D01*
X88106686Y-82617490D01*
X88211995Y-82871727D01*
X88364880Y-83100535D01*
X88559465Y-83295120D01*
X88788273Y-83448005D01*
X89042510Y-83553314D01*
X89312408Y-83607000D01*
X89587592Y-83607000D01*
X89857490Y-83553314D01*
X90111727Y-83448005D01*
X90340535Y-83295120D01*
X90535120Y-83100535D01*
X90688005Y-82871727D01*
X90793314Y-82617490D01*
X90847000Y-82347592D01*
X90847000Y-82072408D01*
X112533000Y-82072408D01*
X112533000Y-82347592D01*
X112586686Y-82617490D01*
X112691995Y-82871727D01*
X112844880Y-83100535D01*
X113039465Y-83295120D01*
X113268273Y-83448005D01*
X113522510Y-83553314D01*
X113792408Y-83607000D01*
X114067592Y-83607000D01*
X114337490Y-83553314D01*
X114591727Y-83448005D01*
X114820535Y-83295120D01*
X115015120Y-83100535D01*
X115168005Y-82871727D01*
X115273314Y-82617490D01*
X115327000Y-82347592D01*
X115327000Y-82072408D01*
X118053000Y-82072408D01*
X118053000Y-82347592D01*
X118106686Y-82617490D01*
X118211995Y-82871727D01*
X118364880Y-83100535D01*
X118559465Y-83295120D01*
X118788273Y-83448005D01*
X119042510Y-83553314D01*
X119312408Y-83607000D01*
X119587592Y-83607000D01*
X119857490Y-83553314D01*
X120111727Y-83448005D01*
X120340535Y-83295120D01*
X120535120Y-83100535D01*
X120688005Y-82871727D01*
X120793314Y-82617490D01*
X120847000Y-82347592D01*
X120847000Y-82072408D01*
X142533000Y-82072408D01*
X142533000Y-82347592D01*
X142586686Y-82617490D01*
X142691995Y-82871727D01*
X142844880Y-83100535D01*
X143039465Y-83295120D01*
X143268273Y-83448005D01*
X143522510Y-83553314D01*
X143792408Y-83607000D01*
X144067592Y-83607000D01*
X144337490Y-83553314D01*
X144591727Y-83448005D01*
X144820535Y-83295120D01*
X145015120Y-83100535D01*
X145168005Y-82871727D01*
X145273314Y-82617490D01*
X145327000Y-82347592D01*
X145327000Y-82072408D01*
X148053000Y-82072408D01*
X148053000Y-82347592D01*
X148106686Y-82617490D01*
X148211995Y-82871727D01*
X148364880Y-83100535D01*
X148559465Y-83295120D01*
X148788273Y-83448005D01*
X149042510Y-83553314D01*
X149312408Y-83607000D01*
X149587592Y-83607000D01*
X149857490Y-83553314D01*
X150111727Y-83448005D01*
X150340535Y-83295120D01*
X150535120Y-83100535D01*
X150688005Y-82871727D01*
X150793314Y-82617490D01*
X150847000Y-82347592D01*
X150847000Y-82072408D01*
X172533000Y-82072408D01*
X172533000Y-82347592D01*
X172586686Y-82617490D01*
X172691995Y-82871727D01*
X172844880Y-83100535D01*
X173039465Y-83295120D01*
X173268273Y-83448005D01*
X173522510Y-83553314D01*
X173792408Y-83607000D01*
X174067592Y-83607000D01*
X174337490Y-83553314D01*
X174591727Y-83448005D01*
X174820535Y-83295120D01*
X175015120Y-83100535D01*
X175168005Y-82871727D01*
X175273314Y-82617490D01*
X175327000Y-82347592D01*
X175327000Y-82072408D01*
X178053000Y-82072408D01*
X178053000Y-82347592D01*
X178106686Y-82617490D01*
X178211995Y-82871727D01*
X178364880Y-83100535D01*
X178559465Y-83295120D01*
X178788273Y-83448005D01*
X179042510Y-83553314D01*
X179312408Y-83607000D01*
X179587592Y-83607000D01*
X179857490Y-83553314D01*
X180111727Y-83448005D01*
X180340535Y-83295120D01*
X180535120Y-83100535D01*
X180688005Y-82871727D01*
X180793314Y-82617490D01*
X180847000Y-82347592D01*
X180847000Y-82072408D01*
X180793314Y-81802510D01*
X180688005Y-81548273D01*
X180535120Y-81319465D01*
X180340535Y-81124880D01*
X180111727Y-80971995D01*
X179857490Y-80866686D01*
X179587592Y-80813000D01*
X179312408Y-80813000D01*
X179042510Y-80866686D01*
X178788273Y-80971995D01*
X178559465Y-81124880D01*
X178364880Y-81319465D01*
X178211995Y-81548273D01*
X178106686Y-81802510D01*
X178053000Y-82072408D01*
X175327000Y-82072408D01*
X175273314Y-81802510D01*
X175168005Y-81548273D01*
X175015120Y-81319465D01*
X174820535Y-81124880D01*
X174591727Y-80971995D01*
X174337490Y-80866686D01*
X174067592Y-80813000D01*
X173792408Y-80813000D01*
X173522510Y-80866686D01*
X173268273Y-80971995D01*
X173039465Y-81124880D01*
X172844880Y-81319465D01*
X172691995Y-81548273D01*
X172586686Y-81802510D01*
X172533000Y-82072408D01*
X150847000Y-82072408D01*
X150793314Y-81802510D01*
X150688005Y-81548273D01*
X150535120Y-81319465D01*
X150340535Y-81124880D01*
X150111727Y-80971995D01*
X149857490Y-80866686D01*
X149587592Y-80813000D01*
X149312408Y-80813000D01*
X149042510Y-80866686D01*
X148788273Y-80971995D01*
X148559465Y-81124880D01*
X148364880Y-81319465D01*
X148211995Y-81548273D01*
X148106686Y-81802510D01*
X148053000Y-82072408D01*
X145327000Y-82072408D01*
X145273314Y-81802510D01*
X145168005Y-81548273D01*
X145015120Y-81319465D01*
X144820535Y-81124880D01*
X144591727Y-80971995D01*
X144337490Y-80866686D01*
X144067592Y-80813000D01*
X143792408Y-80813000D01*
X143522510Y-80866686D01*
X143268273Y-80971995D01*
X143039465Y-81124880D01*
X142844880Y-81319465D01*
X142691995Y-81548273D01*
X142586686Y-81802510D01*
X142533000Y-82072408D01*
X120847000Y-82072408D01*
X120793314Y-81802510D01*
X120688005Y-81548273D01*
X120535120Y-81319465D01*
X120340535Y-81124880D01*
X120111727Y-80971995D01*
X119857490Y-80866686D01*
X119587592Y-80813000D01*
X119312408Y-80813000D01*
X119042510Y-80866686D01*
X118788273Y-80971995D01*
X118559465Y-81124880D01*
X118364880Y-81319465D01*
X118211995Y-81548273D01*
X118106686Y-81802510D01*
X118053000Y-82072408D01*
X115327000Y-82072408D01*
X115273314Y-81802510D01*
X115168005Y-81548273D01*
X115015120Y-81319465D01*
X114820535Y-81124880D01*
X114591727Y-80971995D01*
X114337490Y-80866686D01*
X114067592Y-80813000D01*
X113792408Y-80813000D01*
X113522510Y-80866686D01*
X113268273Y-80971995D01*
X113039465Y-81124880D01*
X112844880Y-81319465D01*
X112691995Y-81548273D01*
X112586686Y-81802510D01*
X112533000Y-82072408D01*
X90847000Y-82072408D01*
X90793314Y-81802510D01*
X90688005Y-81548273D01*
X90535120Y-81319465D01*
X90340535Y-81124880D01*
X90111727Y-80971995D01*
X89857490Y-80866686D01*
X89587592Y-80813000D01*
X89312408Y-80813000D01*
X89042510Y-80866686D01*
X88788273Y-80971995D01*
X88559465Y-81124880D01*
X88364880Y-81319465D01*
X88211995Y-81548273D01*
X88106686Y-81802510D01*
X88053000Y-82072408D01*
X85327000Y-82072408D01*
X85273314Y-81802510D01*
X85168005Y-81548273D01*
X85015120Y-81319465D01*
X84820535Y-81124880D01*
X84591727Y-80971995D01*
X84337490Y-80866686D01*
X84067592Y-80813000D01*
X83792408Y-80813000D01*
X83522510Y-80866686D01*
X83268273Y-80971995D01*
X83039465Y-81124880D01*
X82844880Y-81319465D01*
X82691995Y-81548273D01*
X82586686Y-81802510D01*
X82533000Y-82072408D01*
X67385000Y-82072408D01*
X67385000Y-77758118D01*
X82533000Y-77758118D01*
X82533000Y-78033302D01*
X82586686Y-78303200D01*
X82691995Y-78557437D01*
X82844880Y-78786245D01*
X83039465Y-78980830D01*
X83268273Y-79133715D01*
X83522510Y-79239024D01*
X83792408Y-79292710D01*
X84067592Y-79292710D01*
X84337490Y-79239024D01*
X84591727Y-79133715D01*
X84820535Y-78980830D01*
X85015120Y-78786245D01*
X85168005Y-78557437D01*
X85273314Y-78303200D01*
X85327000Y-78033302D01*
X85327000Y-77758118D01*
X88053000Y-77758118D01*
X88053000Y-78033302D01*
X88106686Y-78303200D01*
X88211995Y-78557437D01*
X88364880Y-78786245D01*
X88559465Y-78980830D01*
X88788273Y-79133715D01*
X89042510Y-79239024D01*
X89312408Y-79292710D01*
X89587592Y-79292710D01*
X89857490Y-79239024D01*
X90111727Y-79133715D01*
X90340535Y-78980830D01*
X90535120Y-78786245D01*
X90688005Y-78557437D01*
X90793314Y-78303200D01*
X90847000Y-78033302D01*
X90847000Y-77758118D01*
X90846267Y-77754432D01*
X112533000Y-77754432D01*
X112533000Y-78029616D01*
X112586686Y-78299514D01*
X112691995Y-78553751D01*
X112844880Y-78782559D01*
X113039465Y-78977144D01*
X113268273Y-79130029D01*
X113522510Y-79235338D01*
X113792408Y-79289024D01*
X114067592Y-79289024D01*
X114337490Y-79235338D01*
X114591727Y-79130029D01*
X114820535Y-78977144D01*
X115015120Y-78782559D01*
X115168005Y-78553751D01*
X115273314Y-78299514D01*
X115327000Y-78029616D01*
X115327000Y-77754432D01*
X118053000Y-77754432D01*
X118053000Y-78029616D01*
X118106686Y-78299514D01*
X118211995Y-78553751D01*
X118364880Y-78782559D01*
X118559465Y-78977144D01*
X118788273Y-79130029D01*
X119042510Y-79235338D01*
X119312408Y-79289024D01*
X119587592Y-79289024D01*
X119857490Y-79235338D01*
X120111727Y-79130029D01*
X120340535Y-78977144D01*
X120535120Y-78782559D01*
X120688005Y-78553751D01*
X120793314Y-78299514D01*
X120847000Y-78029616D01*
X120847000Y-77754432D01*
X120844892Y-77743834D01*
X142533000Y-77743834D01*
X142533000Y-78019018D01*
X142586686Y-78288916D01*
X142691995Y-78543153D01*
X142844880Y-78771961D01*
X143039465Y-78966546D01*
X143268273Y-79119431D01*
X143522510Y-79224740D01*
X143792408Y-79278426D01*
X144067592Y-79278426D01*
X144337490Y-79224740D01*
X144591727Y-79119431D01*
X144820535Y-78966546D01*
X145015120Y-78771961D01*
X145168005Y-78543153D01*
X145273314Y-78288916D01*
X145327000Y-78019018D01*
X145327000Y-77743834D01*
X148053000Y-77743834D01*
X148053000Y-78019018D01*
X148106686Y-78288916D01*
X148211995Y-78543153D01*
X148364880Y-78771961D01*
X148559465Y-78966546D01*
X148788273Y-79119431D01*
X149042510Y-79224740D01*
X149312408Y-79278426D01*
X149587592Y-79278426D01*
X149857490Y-79224740D01*
X150111727Y-79119431D01*
X150340535Y-78966546D01*
X150535120Y-78771961D01*
X150688005Y-78543153D01*
X150793314Y-78288916D01*
X150847000Y-78019018D01*
X150847000Y-77747060D01*
X172533000Y-77747060D01*
X172533000Y-78022244D01*
X172586686Y-78292142D01*
X172691995Y-78546379D01*
X172844880Y-78775187D01*
X173039465Y-78969772D01*
X173268273Y-79122657D01*
X173522510Y-79227966D01*
X173792408Y-79281652D01*
X174067592Y-79281652D01*
X174337490Y-79227966D01*
X174591727Y-79122657D01*
X174820535Y-78969772D01*
X175015120Y-78775187D01*
X175168005Y-78546379D01*
X175273314Y-78292142D01*
X175327000Y-78022244D01*
X175327000Y-77747060D01*
X178053000Y-77747060D01*
X178053000Y-78022244D01*
X178106686Y-78292142D01*
X178211995Y-78546379D01*
X178364880Y-78775187D01*
X178559465Y-78969772D01*
X178788273Y-79122657D01*
X179042510Y-79227966D01*
X179312408Y-79281652D01*
X179587592Y-79281652D01*
X179857490Y-79227966D01*
X180111727Y-79122657D01*
X180340535Y-78969772D01*
X180535120Y-78775187D01*
X180688005Y-78546379D01*
X180793314Y-78292142D01*
X180847000Y-78022244D01*
X180847000Y-77747060D01*
X180793314Y-77477162D01*
X180688005Y-77222925D01*
X180535120Y-76994117D01*
X180340535Y-76799532D01*
X180111727Y-76646647D01*
X180003941Y-76602000D01*
X201539509Y-76602000D01*
X201561423Y-76824499D01*
X201626324Y-77038447D01*
X201731716Y-77235623D01*
X201732846Y-77237000D01*
X201731716Y-77238377D01*
X201626324Y-77435553D01*
X201561423Y-77649501D01*
X201539509Y-77872000D01*
X201561423Y-78094499D01*
X201626324Y-78308447D01*
X201731716Y-78505623D01*
X201732846Y-78507000D01*
X201731716Y-78508377D01*
X201626324Y-78705553D01*
X201561423Y-78919501D01*
X201539509Y-79142000D01*
X201561423Y-79364499D01*
X201626324Y-79578447D01*
X201731716Y-79775623D01*
X201732846Y-79777000D01*
X201731716Y-79778377D01*
X201626324Y-79975553D01*
X201561423Y-80189501D01*
X201539509Y-80412000D01*
X201561423Y-80634499D01*
X201626324Y-80848447D01*
X201731716Y-81045623D01*
X201732846Y-81047000D01*
X201731716Y-81048377D01*
X201626324Y-81245553D01*
X201561423Y-81459501D01*
X201539509Y-81682000D01*
X201561423Y-81904499D01*
X201626324Y-82118447D01*
X201731716Y-82315623D01*
X201732846Y-82317000D01*
X201731716Y-82318377D01*
X201626324Y-82515553D01*
X201561423Y-82729501D01*
X201539509Y-82952000D01*
X201561423Y-83174499D01*
X201626324Y-83388447D01*
X201731716Y-83585623D01*
X201732846Y-83587000D01*
X201731716Y-83588377D01*
X201626324Y-83785553D01*
X201561423Y-83999501D01*
X201539509Y-84222000D01*
X201561423Y-84444499D01*
X201626324Y-84658447D01*
X201731716Y-84855623D01*
X201732846Y-84857000D01*
X201731716Y-84858377D01*
X201626324Y-85055553D01*
X201561423Y-85269501D01*
X201539509Y-85492000D01*
X201561423Y-85714499D01*
X201626324Y-85928447D01*
X201731716Y-86125623D01*
X201873551Y-86298449D01*
X202046377Y-86440284D01*
X202243553Y-86545676D01*
X202457501Y-86610577D01*
X202624248Y-86627000D01*
X203735752Y-86627000D01*
X203902499Y-86610577D01*
X204116447Y-86545676D01*
X204313623Y-86440284D01*
X204486449Y-86298449D01*
X204628284Y-86125623D01*
X204733676Y-85928447D01*
X204798577Y-85714499D01*
X204820491Y-85492000D01*
X204798577Y-85269501D01*
X204733676Y-85055553D01*
X204628284Y-84858377D01*
X204627154Y-84857000D01*
X204628284Y-84855623D01*
X204733676Y-84658447D01*
X204798577Y-84444499D01*
X204820491Y-84222000D01*
X204798577Y-83999501D01*
X204733676Y-83785553D01*
X204628284Y-83588377D01*
X204627154Y-83587000D01*
X204628284Y-83585623D01*
X204733676Y-83388447D01*
X204798577Y-83174499D01*
X204820491Y-82952000D01*
X204798577Y-82729501D01*
X204733676Y-82515553D01*
X204628284Y-82318377D01*
X204627154Y-82317000D01*
X204628284Y-82315623D01*
X204733676Y-82118447D01*
X204798577Y-81904499D01*
X204820491Y-81682000D01*
X204798577Y-81459501D01*
X204733676Y-81245553D01*
X204628284Y-81048377D01*
X204627154Y-81047000D01*
X204628284Y-81045623D01*
X204733676Y-80848447D01*
X204798577Y-80634499D01*
X204815018Y-80467559D01*
X213354362Y-80467559D01*
X213426024Y-80760040D01*
X213553370Y-81032921D01*
X213731505Y-81275715D01*
X213953584Y-81479091D01*
X214211073Y-81635234D01*
X214494076Y-81738143D01*
X214510260Y-81741036D01*
X214748000Y-81620378D01*
X214748000Y-80227000D01*
X215002000Y-80227000D01*
X215002000Y-81620378D01*
X215239740Y-81741036D01*
X215255924Y-81738143D01*
X215538927Y-81635234D01*
X215796416Y-81479091D01*
X216018495Y-81275715D01*
X216196630Y-81032921D01*
X216323976Y-80760040D01*
X216395638Y-80467559D01*
X216252200Y-80227000D01*
X215002000Y-80227000D01*
X214748000Y-80227000D01*
X213497800Y-80227000D01*
X213354362Y-80467559D01*
X204815018Y-80467559D01*
X204820491Y-80412000D01*
X204798577Y-80189501D01*
X204733676Y-79975553D01*
X204628284Y-79778377D01*
X204627154Y-79777000D01*
X204628284Y-79775623D01*
X204651365Y-79732441D01*
X213354362Y-79732441D01*
X213497800Y-79973000D01*
X214748000Y-79973000D01*
X214748000Y-78579622D01*
X215002000Y-78579622D01*
X215002000Y-79973000D01*
X216252200Y-79973000D01*
X216395638Y-79732441D01*
X216323976Y-79439960D01*
X216196630Y-79167079D01*
X216018495Y-78924285D01*
X215796416Y-78720909D01*
X215538927Y-78564766D01*
X215255924Y-78461857D01*
X215239740Y-78458964D01*
X215002000Y-78579622D01*
X214748000Y-78579622D01*
X214510260Y-78458964D01*
X214494076Y-78461857D01*
X214211073Y-78564766D01*
X213953584Y-78720909D01*
X213731505Y-78924285D01*
X213553370Y-79167079D01*
X213426024Y-79439960D01*
X213354362Y-79732441D01*
X204651365Y-79732441D01*
X204733676Y-79578447D01*
X204798577Y-79364499D01*
X204820491Y-79142000D01*
X204798577Y-78919501D01*
X204733676Y-78705553D01*
X204628284Y-78508377D01*
X204627154Y-78507000D01*
X204628284Y-78505623D01*
X204733676Y-78308447D01*
X204798577Y-78094499D01*
X204820491Y-77872000D01*
X204798577Y-77649501D01*
X204733676Y-77435553D01*
X204729105Y-77427000D01*
X215540000Y-77427000D01*
X215540000Y-77827000D01*
X215593310Y-78114269D01*
X215701639Y-78385618D01*
X215860824Y-78630619D01*
X216064748Y-78839857D01*
X216305574Y-79005291D01*
X216574047Y-79120563D01*
X216668110Y-79141476D01*
X216898000Y-79020155D01*
X216898000Y-77427000D01*
X217152000Y-77427000D01*
X217152000Y-79020155D01*
X217381890Y-79141476D01*
X217475953Y-79120563D01*
X217744426Y-79005291D01*
X217985252Y-78839857D01*
X218189176Y-78630619D01*
X218348361Y-78385618D01*
X218456690Y-78114269D01*
X218510000Y-77827000D01*
X218510000Y-77427000D01*
X217152000Y-77427000D01*
X216898000Y-77427000D01*
X215540000Y-77427000D01*
X204729105Y-77427000D01*
X204628284Y-77238377D01*
X204627154Y-77237000D01*
X204628284Y-77235623D01*
X204733676Y-77038447D01*
X204798577Y-76824499D01*
X204803649Y-76773000D01*
X215540000Y-76773000D01*
X215540000Y-77173000D01*
X216898000Y-77173000D01*
X216898000Y-75579845D01*
X217152000Y-75579845D01*
X217152000Y-77173000D01*
X218510000Y-77173000D01*
X218510000Y-76773000D01*
X218456690Y-76485731D01*
X218348361Y-76214382D01*
X218189176Y-75969381D01*
X217985252Y-75760143D01*
X217744426Y-75594709D01*
X217475953Y-75479437D01*
X217381890Y-75458524D01*
X217152000Y-75579845D01*
X216898000Y-75579845D01*
X216668110Y-75458524D01*
X216574047Y-75479437D01*
X216305574Y-75594709D01*
X216064748Y-75760143D01*
X215860824Y-75969381D01*
X215701639Y-76214382D01*
X215593310Y-76485731D01*
X215540000Y-76773000D01*
X204803649Y-76773000D01*
X204820491Y-76602000D01*
X204798577Y-76379501D01*
X204733676Y-76165553D01*
X204628284Y-75968377D01*
X204624752Y-75964073D01*
X204694276Y-75856976D01*
X204774119Y-75633874D01*
X204647954Y-75459000D01*
X203307000Y-75459000D01*
X203307000Y-75467000D01*
X203053000Y-75467000D01*
X203053000Y-75459000D01*
X201712046Y-75459000D01*
X201585881Y-75633874D01*
X201665724Y-75856976D01*
X201735248Y-75964073D01*
X201731716Y-75968377D01*
X201626324Y-76165553D01*
X201561423Y-76379501D01*
X201539509Y-76602000D01*
X180003941Y-76602000D01*
X179857490Y-76541338D01*
X179587592Y-76487652D01*
X179312408Y-76487652D01*
X179042510Y-76541338D01*
X178788273Y-76646647D01*
X178559465Y-76799532D01*
X178364880Y-76994117D01*
X178211995Y-77222925D01*
X178106686Y-77477162D01*
X178053000Y-77747060D01*
X175327000Y-77747060D01*
X175273314Y-77477162D01*
X175168005Y-77222925D01*
X175015120Y-76994117D01*
X174820535Y-76799532D01*
X174591727Y-76646647D01*
X174337490Y-76541338D01*
X174067592Y-76487652D01*
X173792408Y-76487652D01*
X173522510Y-76541338D01*
X173268273Y-76646647D01*
X173039465Y-76799532D01*
X172844880Y-76994117D01*
X172691995Y-77222925D01*
X172586686Y-77477162D01*
X172533000Y-77747060D01*
X150847000Y-77747060D01*
X150847000Y-77743834D01*
X150793314Y-77473936D01*
X150688005Y-77219699D01*
X150535120Y-76990891D01*
X150340535Y-76796306D01*
X150111727Y-76643421D01*
X149857490Y-76538112D01*
X149587592Y-76484426D01*
X149312408Y-76484426D01*
X149042510Y-76538112D01*
X148788273Y-76643421D01*
X148559465Y-76796306D01*
X148364880Y-76990891D01*
X148211995Y-77219699D01*
X148106686Y-77473936D01*
X148053000Y-77743834D01*
X145327000Y-77743834D01*
X145273314Y-77473936D01*
X145168005Y-77219699D01*
X145015120Y-76990891D01*
X144820535Y-76796306D01*
X144591727Y-76643421D01*
X144337490Y-76538112D01*
X144067592Y-76484426D01*
X143792408Y-76484426D01*
X143522510Y-76538112D01*
X143268273Y-76643421D01*
X143039465Y-76796306D01*
X142844880Y-76990891D01*
X142691995Y-77219699D01*
X142586686Y-77473936D01*
X142533000Y-77743834D01*
X120844892Y-77743834D01*
X120793314Y-77484534D01*
X120688005Y-77230297D01*
X120535120Y-77001489D01*
X120340535Y-76806904D01*
X120111727Y-76654019D01*
X119857490Y-76548710D01*
X119587592Y-76495024D01*
X119312408Y-76495024D01*
X119042510Y-76548710D01*
X118788273Y-76654019D01*
X118559465Y-76806904D01*
X118364880Y-77001489D01*
X118211995Y-77230297D01*
X118106686Y-77484534D01*
X118053000Y-77754432D01*
X115327000Y-77754432D01*
X115273314Y-77484534D01*
X115168005Y-77230297D01*
X115015120Y-77001489D01*
X114820535Y-76806904D01*
X114591727Y-76654019D01*
X114337490Y-76548710D01*
X114067592Y-76495024D01*
X113792408Y-76495024D01*
X113522510Y-76548710D01*
X113268273Y-76654019D01*
X113039465Y-76806904D01*
X112844880Y-77001489D01*
X112691995Y-77230297D01*
X112586686Y-77484534D01*
X112533000Y-77754432D01*
X90846267Y-77754432D01*
X90793314Y-77488220D01*
X90688005Y-77233983D01*
X90535120Y-77005175D01*
X90340535Y-76810590D01*
X90111727Y-76657705D01*
X89857490Y-76552396D01*
X89587592Y-76498710D01*
X89312408Y-76498710D01*
X89042510Y-76552396D01*
X88788273Y-76657705D01*
X88559465Y-76810590D01*
X88364880Y-77005175D01*
X88211995Y-77233983D01*
X88106686Y-77488220D01*
X88053000Y-77758118D01*
X85327000Y-77758118D01*
X85273314Y-77488220D01*
X85168005Y-77233983D01*
X85015120Y-77005175D01*
X84820535Y-76810590D01*
X84591727Y-76657705D01*
X84337490Y-76552396D01*
X84067592Y-76498710D01*
X83792408Y-76498710D01*
X83522510Y-76552396D01*
X83268273Y-76657705D01*
X83039465Y-76810590D01*
X82844880Y-77005175D01*
X82691995Y-77233983D01*
X82586686Y-77488220D01*
X82533000Y-77758118D01*
X67385000Y-77758118D01*
X67385000Y-73443833D01*
X82533000Y-73443833D01*
X82533000Y-73719017D01*
X82586686Y-73988915D01*
X82691995Y-74243152D01*
X82844880Y-74471960D01*
X83039465Y-74666545D01*
X83268273Y-74819430D01*
X83522510Y-74924739D01*
X83792408Y-74978425D01*
X84067592Y-74978425D01*
X84337490Y-74924739D01*
X84591727Y-74819430D01*
X84820535Y-74666545D01*
X85015120Y-74471960D01*
X85168005Y-74243152D01*
X85273314Y-73988915D01*
X85327000Y-73719017D01*
X85327000Y-73443833D01*
X88053000Y-73443833D01*
X88053000Y-73719017D01*
X88106686Y-73988915D01*
X88211995Y-74243152D01*
X88364880Y-74471960D01*
X88559465Y-74666545D01*
X88788273Y-74819430D01*
X89042510Y-74924739D01*
X89312408Y-74978425D01*
X89587592Y-74978425D01*
X89857490Y-74924739D01*
X90111727Y-74819430D01*
X90340535Y-74666545D01*
X90535120Y-74471960D01*
X90688005Y-74243152D01*
X90793314Y-73988915D01*
X90847000Y-73719017D01*
X90847000Y-73443833D01*
X90793314Y-73173935D01*
X90688005Y-72919698D01*
X90535120Y-72690890D01*
X90340535Y-72496305D01*
X90111727Y-72343420D01*
X89857490Y-72238111D01*
X89587592Y-72184425D01*
X89312408Y-72184425D01*
X89042510Y-72238111D01*
X88788273Y-72343420D01*
X88559465Y-72496305D01*
X88364880Y-72690890D01*
X88211995Y-72919698D01*
X88106686Y-73173935D01*
X88053000Y-73443833D01*
X85327000Y-73443833D01*
X85273314Y-73173935D01*
X85168005Y-72919698D01*
X85015120Y-72690890D01*
X84820535Y-72496305D01*
X84591727Y-72343420D01*
X84337490Y-72238111D01*
X84067592Y-72184425D01*
X83792408Y-72184425D01*
X83522510Y-72238111D01*
X83268273Y-72343420D01*
X83039465Y-72496305D01*
X82844880Y-72690890D01*
X82691995Y-72919698D01*
X82586686Y-73173935D01*
X82533000Y-73443833D01*
X67385000Y-73443833D01*
X67385000Y-69129548D01*
X82533000Y-69129548D01*
X82533000Y-69404732D01*
X82586686Y-69674630D01*
X82691995Y-69928867D01*
X82844880Y-70157675D01*
X83039465Y-70352260D01*
X83268273Y-70505145D01*
X83522510Y-70610454D01*
X83792408Y-70664140D01*
X84067592Y-70664140D01*
X84337490Y-70610454D01*
X84591727Y-70505145D01*
X84820535Y-70352260D01*
X85015120Y-70157675D01*
X85168005Y-69928867D01*
X85273314Y-69674630D01*
X85327000Y-69404732D01*
X85327000Y-69129548D01*
X88053000Y-69129548D01*
X88053000Y-69404732D01*
X88106686Y-69674630D01*
X88211995Y-69928867D01*
X88364880Y-70157675D01*
X88559465Y-70352260D01*
X88788273Y-70505145D01*
X89042510Y-70610454D01*
X89312408Y-70664140D01*
X89587592Y-70664140D01*
X89857490Y-70610454D01*
X90111727Y-70505145D01*
X90340535Y-70352260D01*
X90535120Y-70157675D01*
X90688005Y-69928867D01*
X90793314Y-69674630D01*
X90847000Y-69404732D01*
X90847000Y-69129548D01*
X90793314Y-68859650D01*
X90688005Y-68605413D01*
X90535120Y-68376605D01*
X90340535Y-68182020D01*
X90111727Y-68029135D01*
X89857490Y-67923826D01*
X89587592Y-67870140D01*
X89312408Y-67870140D01*
X89042510Y-67923826D01*
X88788273Y-68029135D01*
X88559465Y-68182020D01*
X88364880Y-68376605D01*
X88211995Y-68605413D01*
X88106686Y-68859650D01*
X88053000Y-69129548D01*
X85327000Y-69129548D01*
X85273314Y-68859650D01*
X85168005Y-68605413D01*
X85015120Y-68376605D01*
X84820535Y-68182020D01*
X84591727Y-68029135D01*
X84337490Y-67923826D01*
X84067592Y-67870140D01*
X83792408Y-67870140D01*
X83522510Y-67923826D01*
X83268273Y-68029135D01*
X83039465Y-68182020D01*
X82844880Y-68376605D01*
X82691995Y-68605413D01*
X82586686Y-68859650D01*
X82533000Y-69129548D01*
X67385000Y-69129548D01*
X67385000Y-64815263D01*
X82533000Y-64815263D01*
X82533000Y-65090447D01*
X82586686Y-65360345D01*
X82691995Y-65614582D01*
X82844880Y-65843390D01*
X83039465Y-66037975D01*
X83268273Y-66190860D01*
X83522510Y-66296169D01*
X83792408Y-66349855D01*
X84067592Y-66349855D01*
X84337490Y-66296169D01*
X84591727Y-66190860D01*
X84820535Y-66037975D01*
X85015120Y-65843390D01*
X85168005Y-65614582D01*
X85273314Y-65360345D01*
X85327000Y-65090447D01*
X85327000Y-64815263D01*
X88053000Y-64815263D01*
X88053000Y-65090447D01*
X88106686Y-65360345D01*
X88211995Y-65614582D01*
X88364880Y-65843390D01*
X88559465Y-66037975D01*
X88788273Y-66190860D01*
X89042510Y-66296169D01*
X89312408Y-66349855D01*
X89587592Y-66349855D01*
X89857490Y-66296169D01*
X90111727Y-66190860D01*
X90340535Y-66037975D01*
X90535120Y-65843390D01*
X90688005Y-65614582D01*
X90793314Y-65360345D01*
X90847000Y-65090447D01*
X90847000Y-64815263D01*
X90793314Y-64545365D01*
X90688005Y-64291128D01*
X90535120Y-64062320D01*
X90340535Y-63867735D01*
X90111727Y-63714850D01*
X89857490Y-63609541D01*
X89587592Y-63555855D01*
X89312408Y-63555855D01*
X89042510Y-63609541D01*
X88788273Y-63714850D01*
X88559465Y-63867735D01*
X88364880Y-64062320D01*
X88211995Y-64291128D01*
X88106686Y-64545365D01*
X88053000Y-64815263D01*
X85327000Y-64815263D01*
X85273314Y-64545365D01*
X85168005Y-64291128D01*
X85015120Y-64062320D01*
X84820535Y-63867735D01*
X84591727Y-63714850D01*
X84337490Y-63609541D01*
X84067592Y-63555855D01*
X83792408Y-63555855D01*
X83522510Y-63609541D01*
X83268273Y-63714850D01*
X83039465Y-63867735D01*
X82844880Y-64062320D01*
X82691995Y-64291128D01*
X82586686Y-64545365D01*
X82533000Y-64815263D01*
X67385000Y-64815263D01*
X67385000Y-60500978D01*
X82533000Y-60500978D01*
X82533000Y-60776162D01*
X82586686Y-61046060D01*
X82691995Y-61300297D01*
X82844880Y-61529105D01*
X83039465Y-61723690D01*
X83268273Y-61876575D01*
X83522510Y-61981884D01*
X83792408Y-62035570D01*
X84067592Y-62035570D01*
X84337490Y-61981884D01*
X84591727Y-61876575D01*
X84820535Y-61723690D01*
X85015120Y-61529105D01*
X85168005Y-61300297D01*
X85273314Y-61046060D01*
X85327000Y-60776162D01*
X85327000Y-60500978D01*
X88053000Y-60500978D01*
X88053000Y-60776162D01*
X88106686Y-61046060D01*
X88211995Y-61300297D01*
X88364880Y-61529105D01*
X88559465Y-61723690D01*
X88788273Y-61876575D01*
X89042510Y-61981884D01*
X89312408Y-62035570D01*
X89587592Y-62035570D01*
X89857490Y-61981884D01*
X90111727Y-61876575D01*
X90340535Y-61723690D01*
X90535120Y-61529105D01*
X90688005Y-61300297D01*
X90793314Y-61046060D01*
X90847000Y-60776162D01*
X90847000Y-60500978D01*
X90793314Y-60231080D01*
X90688005Y-59976843D01*
X90535120Y-59748035D01*
X90340535Y-59553450D01*
X90111727Y-59400565D01*
X89857490Y-59295256D01*
X89587592Y-59241570D01*
X89312408Y-59241570D01*
X89042510Y-59295256D01*
X88788273Y-59400565D01*
X88559465Y-59553450D01*
X88364880Y-59748035D01*
X88211995Y-59976843D01*
X88106686Y-60231080D01*
X88053000Y-60500978D01*
X85327000Y-60500978D01*
X85273314Y-60231080D01*
X85168005Y-59976843D01*
X85015120Y-59748035D01*
X84820535Y-59553450D01*
X84591727Y-59400565D01*
X84337490Y-59295256D01*
X84067592Y-59241570D01*
X83792408Y-59241570D01*
X83522510Y-59295256D01*
X83268273Y-59400565D01*
X83039465Y-59553450D01*
X82844880Y-59748035D01*
X82691995Y-59976843D01*
X82586686Y-60231080D01*
X82533000Y-60500978D01*
X67385000Y-60500978D01*
X67385000Y-56186693D01*
X82533000Y-56186693D01*
X82533000Y-56461877D01*
X82586686Y-56731775D01*
X82691995Y-56986012D01*
X82844880Y-57214820D01*
X83039465Y-57409405D01*
X83268273Y-57562290D01*
X83522510Y-57667599D01*
X83792408Y-57721285D01*
X84067592Y-57721285D01*
X84337490Y-57667599D01*
X84591727Y-57562290D01*
X84820535Y-57409405D01*
X85015120Y-57214820D01*
X85168005Y-56986012D01*
X85273314Y-56731775D01*
X85327000Y-56461877D01*
X85327000Y-56186693D01*
X88053000Y-56186693D01*
X88053000Y-56461877D01*
X88106686Y-56731775D01*
X88211995Y-56986012D01*
X88364880Y-57214820D01*
X88559465Y-57409405D01*
X88788273Y-57562290D01*
X89042510Y-57667599D01*
X89312408Y-57721285D01*
X89587592Y-57721285D01*
X89857490Y-57667599D01*
X90111727Y-57562290D01*
X90340535Y-57409405D01*
X90535120Y-57214820D01*
X90688005Y-56986012D01*
X90793314Y-56731775D01*
X90847000Y-56461877D01*
X90847000Y-56186693D01*
X90842600Y-56164572D01*
X112533000Y-56164572D01*
X112533000Y-56439756D01*
X112586686Y-56709654D01*
X112691995Y-56963891D01*
X112844880Y-57192699D01*
X113039465Y-57387284D01*
X113268273Y-57540169D01*
X113522510Y-57645478D01*
X113792408Y-57699164D01*
X114067592Y-57699164D01*
X114337490Y-57645478D01*
X114591727Y-57540169D01*
X114820535Y-57387284D01*
X115015120Y-57192699D01*
X115168005Y-56963891D01*
X115273314Y-56709654D01*
X115327000Y-56439756D01*
X115327000Y-56164572D01*
X118053000Y-56164572D01*
X118053000Y-56439756D01*
X118106686Y-56709654D01*
X118211995Y-56963891D01*
X118364880Y-57192699D01*
X118559465Y-57387284D01*
X118788273Y-57540169D01*
X119042510Y-57645478D01*
X119312408Y-57699164D01*
X119587592Y-57699164D01*
X119857490Y-57645478D01*
X120111727Y-57540169D01*
X120340535Y-57387284D01*
X120535120Y-57192699D01*
X120688005Y-56963891D01*
X120793314Y-56709654D01*
X120847000Y-56439756D01*
X120847000Y-56164572D01*
X120834351Y-56100979D01*
X142533000Y-56100979D01*
X142533000Y-56376163D01*
X142586686Y-56646061D01*
X142691995Y-56900298D01*
X142844880Y-57129106D01*
X143039465Y-57323691D01*
X143268273Y-57476576D01*
X143522510Y-57581885D01*
X143792408Y-57635571D01*
X144067592Y-57635571D01*
X144337490Y-57581885D01*
X144591727Y-57476576D01*
X144820535Y-57323691D01*
X145015120Y-57129106D01*
X145168005Y-56900298D01*
X145273314Y-56646061D01*
X145327000Y-56376163D01*
X145327000Y-56100979D01*
X148053000Y-56100979D01*
X148053000Y-56376163D01*
X148106686Y-56646061D01*
X148211995Y-56900298D01*
X148364880Y-57129106D01*
X148559465Y-57323691D01*
X148788273Y-57476576D01*
X149042510Y-57581885D01*
X149312408Y-57635571D01*
X149587592Y-57635571D01*
X149857490Y-57581885D01*
X150111727Y-57476576D01*
X150340535Y-57323691D01*
X150535120Y-57129106D01*
X150688005Y-56900298D01*
X150793314Y-56646061D01*
X150847000Y-56376163D01*
X150847000Y-56120330D01*
X172533000Y-56120330D01*
X172533000Y-56395514D01*
X172586686Y-56665412D01*
X172691995Y-56919649D01*
X172844880Y-57148457D01*
X173039465Y-57343042D01*
X173268273Y-57495927D01*
X173522510Y-57601236D01*
X173792408Y-57654922D01*
X174067592Y-57654922D01*
X174337490Y-57601236D01*
X174591727Y-57495927D01*
X174820535Y-57343042D01*
X175015120Y-57148457D01*
X175168005Y-56919649D01*
X175273314Y-56665412D01*
X175327000Y-56395514D01*
X175327000Y-56120330D01*
X178053000Y-56120330D01*
X178053000Y-56395514D01*
X178106686Y-56665412D01*
X178211995Y-56919649D01*
X178364880Y-57148457D01*
X178559465Y-57343042D01*
X178788273Y-57495927D01*
X179042510Y-57601236D01*
X179312408Y-57654922D01*
X179587592Y-57654922D01*
X179857490Y-57601236D01*
X180111727Y-57495927D01*
X180340535Y-57343042D01*
X180535120Y-57148457D01*
X180688005Y-56919649D01*
X180793314Y-56665412D01*
X180847000Y-56395514D01*
X180847000Y-56120330D01*
X180793314Y-55850432D01*
X180688005Y-55596195D01*
X180535120Y-55367387D01*
X180340535Y-55172802D01*
X180111727Y-55019917D01*
X179857490Y-54914608D01*
X179587592Y-54860922D01*
X179312408Y-54860922D01*
X179042510Y-54914608D01*
X178788273Y-55019917D01*
X178559465Y-55172802D01*
X178364880Y-55367387D01*
X178211995Y-55596195D01*
X178106686Y-55850432D01*
X178053000Y-56120330D01*
X175327000Y-56120330D01*
X175273314Y-55850432D01*
X175168005Y-55596195D01*
X175015120Y-55367387D01*
X174820535Y-55172802D01*
X174591727Y-55019917D01*
X174337490Y-54914608D01*
X174067592Y-54860922D01*
X173792408Y-54860922D01*
X173522510Y-54914608D01*
X173268273Y-55019917D01*
X173039465Y-55172802D01*
X172844880Y-55367387D01*
X172691995Y-55596195D01*
X172586686Y-55850432D01*
X172533000Y-56120330D01*
X150847000Y-56120330D01*
X150847000Y-56100979D01*
X150793314Y-55831081D01*
X150688005Y-55576844D01*
X150535120Y-55348036D01*
X150340535Y-55153451D01*
X150111727Y-55000566D01*
X149857490Y-54895257D01*
X149587592Y-54841571D01*
X149312408Y-54841571D01*
X149042510Y-54895257D01*
X148788273Y-55000566D01*
X148559465Y-55153451D01*
X148364880Y-55348036D01*
X148211995Y-55576844D01*
X148106686Y-55831081D01*
X148053000Y-56100979D01*
X145327000Y-56100979D01*
X145273314Y-55831081D01*
X145168005Y-55576844D01*
X145015120Y-55348036D01*
X144820535Y-55153451D01*
X144591727Y-55000566D01*
X144337490Y-54895257D01*
X144067592Y-54841571D01*
X143792408Y-54841571D01*
X143522510Y-54895257D01*
X143268273Y-55000566D01*
X143039465Y-55153451D01*
X142844880Y-55348036D01*
X142691995Y-55576844D01*
X142586686Y-55831081D01*
X142533000Y-56100979D01*
X120834351Y-56100979D01*
X120793314Y-55894674D01*
X120688005Y-55640437D01*
X120535120Y-55411629D01*
X120340535Y-55217044D01*
X120111727Y-55064159D01*
X119857490Y-54958850D01*
X119587592Y-54905164D01*
X119312408Y-54905164D01*
X119042510Y-54958850D01*
X118788273Y-55064159D01*
X118559465Y-55217044D01*
X118364880Y-55411629D01*
X118211995Y-55640437D01*
X118106686Y-55894674D01*
X118053000Y-56164572D01*
X115327000Y-56164572D01*
X115273314Y-55894674D01*
X115168005Y-55640437D01*
X115015120Y-55411629D01*
X114820535Y-55217044D01*
X114591727Y-55064159D01*
X114337490Y-54958850D01*
X114067592Y-54905164D01*
X113792408Y-54905164D01*
X113522510Y-54958850D01*
X113268273Y-55064159D01*
X113039465Y-55217044D01*
X112844880Y-55411629D01*
X112691995Y-55640437D01*
X112586686Y-55894674D01*
X112533000Y-56164572D01*
X90842600Y-56164572D01*
X90793314Y-55916795D01*
X90688005Y-55662558D01*
X90535120Y-55433750D01*
X90340535Y-55239165D01*
X90111727Y-55086280D01*
X89857490Y-54980971D01*
X89587592Y-54927285D01*
X89312408Y-54927285D01*
X89042510Y-54980971D01*
X88788273Y-55086280D01*
X88559465Y-55239165D01*
X88364880Y-55433750D01*
X88211995Y-55662558D01*
X88106686Y-55916795D01*
X88053000Y-56186693D01*
X85327000Y-56186693D01*
X85273314Y-55916795D01*
X85168005Y-55662558D01*
X85015120Y-55433750D01*
X84820535Y-55239165D01*
X84591727Y-55086280D01*
X84337490Y-54980971D01*
X84067592Y-54927285D01*
X83792408Y-54927285D01*
X83522510Y-54980971D01*
X83268273Y-55086280D01*
X83039465Y-55239165D01*
X82844880Y-55433750D01*
X82691995Y-55662558D01*
X82586686Y-55916795D01*
X82533000Y-56186693D01*
X67385000Y-56186693D01*
X67385000Y-50162408D01*
X72313000Y-50162408D01*
X72313000Y-50437592D01*
X72366686Y-50707490D01*
X72471995Y-50961727D01*
X72624880Y-51190535D01*
X72789345Y-51355000D01*
X72624880Y-51519465D01*
X72471995Y-51748273D01*
X72366686Y-52002510D01*
X72313000Y-52272408D01*
X72313000Y-52547592D01*
X72366686Y-52817490D01*
X72471995Y-53071727D01*
X72624880Y-53300535D01*
X72819465Y-53495120D01*
X73048273Y-53648005D01*
X73302510Y-53753314D01*
X73572408Y-53807000D01*
X73847592Y-53807000D01*
X74117490Y-53753314D01*
X74371727Y-53648005D01*
X74600535Y-53495120D01*
X74720090Y-53375565D01*
X78444040Y-53375565D01*
X78511020Y-53615656D01*
X78760048Y-53732756D01*
X79027135Y-53799023D01*
X79302017Y-53811910D01*
X79574133Y-53770922D01*
X79833023Y-53677636D01*
X79948980Y-53615656D01*
X80015960Y-53375565D01*
X79230000Y-52589605D01*
X78444040Y-53375565D01*
X74720090Y-53375565D01*
X74795120Y-53300535D01*
X74948005Y-53071727D01*
X75053314Y-52817490D01*
X75107000Y-52547592D01*
X75107000Y-52482017D01*
X77828090Y-52482017D01*
X77869078Y-52754133D01*
X77962364Y-53013023D01*
X78024344Y-53128980D01*
X78264435Y-53195960D01*
X79050395Y-52410000D01*
X79409605Y-52410000D01*
X80195565Y-53195960D01*
X80435656Y-53128980D01*
X80552756Y-52879952D01*
X80619023Y-52612865D01*
X80631910Y-52337983D01*
X80590922Y-52065867D01*
X80521213Y-51872408D01*
X82533000Y-51872408D01*
X82533000Y-52147592D01*
X82586686Y-52417490D01*
X82691995Y-52671727D01*
X82844880Y-52900535D01*
X83039465Y-53095120D01*
X83268273Y-53248005D01*
X83522510Y-53353314D01*
X83792408Y-53407000D01*
X84067592Y-53407000D01*
X84337490Y-53353314D01*
X84591727Y-53248005D01*
X84820535Y-53095120D01*
X85015120Y-52900535D01*
X85168005Y-52671727D01*
X85273314Y-52417490D01*
X85327000Y-52147592D01*
X85327000Y-51872408D01*
X88053000Y-51872408D01*
X88053000Y-52147592D01*
X88106686Y-52417490D01*
X88211995Y-52671727D01*
X88364880Y-52900535D01*
X88559465Y-53095120D01*
X88788273Y-53248005D01*
X89042510Y-53353314D01*
X89312408Y-53407000D01*
X89587592Y-53407000D01*
X89857490Y-53353314D01*
X90111727Y-53248005D01*
X90340535Y-53095120D01*
X90535120Y-52900535D01*
X90688005Y-52671727D01*
X90793314Y-52417490D01*
X90847000Y-52147592D01*
X90847000Y-51872408D01*
X90841867Y-51846600D01*
X112533000Y-51846600D01*
X112533000Y-52121784D01*
X112586686Y-52391682D01*
X112691995Y-52645919D01*
X112844880Y-52874727D01*
X113039465Y-53069312D01*
X113268273Y-53222197D01*
X113522510Y-53327506D01*
X113792408Y-53381192D01*
X114067592Y-53381192D01*
X114337490Y-53327506D01*
X114591727Y-53222197D01*
X114820535Y-53069312D01*
X115015120Y-52874727D01*
X115168005Y-52645919D01*
X115273314Y-52391682D01*
X115327000Y-52121784D01*
X115327000Y-51846600D01*
X118053000Y-51846600D01*
X118053000Y-52121784D01*
X118106686Y-52391682D01*
X118211995Y-52645919D01*
X118364880Y-52874727D01*
X118559465Y-53069312D01*
X118788273Y-53222197D01*
X119042510Y-53327506D01*
X119312408Y-53381192D01*
X119587592Y-53381192D01*
X119857490Y-53327506D01*
X120111727Y-53222197D01*
X120340535Y-53069312D01*
X120535120Y-52874727D01*
X120688005Y-52645919D01*
X120793314Y-52391682D01*
X120847000Y-52121784D01*
X120847000Y-51846600D01*
X120832243Y-51772408D01*
X142533000Y-51772408D01*
X142533000Y-52047592D01*
X142586686Y-52317490D01*
X142691995Y-52571727D01*
X142844880Y-52800535D01*
X143039465Y-52995120D01*
X143268273Y-53148005D01*
X143522510Y-53253314D01*
X143792408Y-53307000D01*
X144067592Y-53307000D01*
X144337490Y-53253314D01*
X144591727Y-53148005D01*
X144820535Y-52995120D01*
X145015120Y-52800535D01*
X145168005Y-52571727D01*
X145273314Y-52317490D01*
X145327000Y-52047592D01*
X145327000Y-51772408D01*
X148053000Y-51772408D01*
X148053000Y-52047592D01*
X148106686Y-52317490D01*
X148211995Y-52571727D01*
X148364880Y-52800535D01*
X148559465Y-52995120D01*
X148788273Y-53148005D01*
X149042510Y-53253314D01*
X149312408Y-53307000D01*
X149587592Y-53307000D01*
X149857490Y-53253314D01*
X150111727Y-53148005D01*
X150340535Y-52995120D01*
X150535120Y-52800535D01*
X150688005Y-52571727D01*
X150793314Y-52317490D01*
X150847000Y-52047592D01*
X150847000Y-51772408D01*
X150793314Y-51502510D01*
X150688005Y-51248273D01*
X150535120Y-51019465D01*
X150340535Y-50824880D01*
X150111727Y-50671995D01*
X149857490Y-50566686D01*
X149587592Y-50513000D01*
X149312408Y-50513000D01*
X149042510Y-50566686D01*
X148788273Y-50671995D01*
X148559465Y-50824880D01*
X148364880Y-51019465D01*
X148211995Y-51248273D01*
X148106686Y-51502510D01*
X148053000Y-51772408D01*
X145327000Y-51772408D01*
X145273314Y-51502510D01*
X145168005Y-51248273D01*
X145015120Y-51019465D01*
X144820535Y-50824880D01*
X144591727Y-50671995D01*
X144337490Y-50566686D01*
X144067592Y-50513000D01*
X143792408Y-50513000D01*
X143522510Y-50566686D01*
X143268273Y-50671995D01*
X143039465Y-50824880D01*
X142844880Y-51019465D01*
X142691995Y-51248273D01*
X142586686Y-51502510D01*
X142533000Y-51772408D01*
X120832243Y-51772408D01*
X120793314Y-51576702D01*
X120688005Y-51322465D01*
X120535120Y-51093657D01*
X120340535Y-50899072D01*
X120111727Y-50746187D01*
X119857490Y-50640878D01*
X119587592Y-50587192D01*
X119312408Y-50587192D01*
X119042510Y-50640878D01*
X118788273Y-50746187D01*
X118559465Y-50899072D01*
X118364880Y-51093657D01*
X118211995Y-51322465D01*
X118106686Y-51576702D01*
X118053000Y-51846600D01*
X115327000Y-51846600D01*
X115273314Y-51576702D01*
X115168005Y-51322465D01*
X115015120Y-51093657D01*
X114820535Y-50899072D01*
X114591727Y-50746187D01*
X114337490Y-50640878D01*
X114067592Y-50587192D01*
X113792408Y-50587192D01*
X113522510Y-50640878D01*
X113268273Y-50746187D01*
X113039465Y-50899072D01*
X112844880Y-51093657D01*
X112691995Y-51322465D01*
X112586686Y-51576702D01*
X112533000Y-51846600D01*
X90841867Y-51846600D01*
X90793314Y-51602510D01*
X90688005Y-51348273D01*
X90535120Y-51119465D01*
X90340535Y-50924880D01*
X90111727Y-50771995D01*
X89857490Y-50666686D01*
X89587592Y-50613000D01*
X89312408Y-50613000D01*
X89042510Y-50666686D01*
X88788273Y-50771995D01*
X88559465Y-50924880D01*
X88364880Y-51119465D01*
X88211995Y-51348273D01*
X88106686Y-51602510D01*
X88053000Y-51872408D01*
X85327000Y-51872408D01*
X85273314Y-51602510D01*
X85168005Y-51348273D01*
X85015120Y-51119465D01*
X84820535Y-50924880D01*
X84591727Y-50771995D01*
X84337490Y-50666686D01*
X84067592Y-50613000D01*
X83792408Y-50613000D01*
X83522510Y-50666686D01*
X83268273Y-50771995D01*
X83039465Y-50924880D01*
X82844880Y-51119465D01*
X82691995Y-51348273D01*
X82586686Y-51602510D01*
X82533000Y-51872408D01*
X80521213Y-51872408D01*
X80497636Y-51806977D01*
X80435656Y-51691020D01*
X80195565Y-51624040D01*
X79409605Y-52410000D01*
X79050395Y-52410000D01*
X78264435Y-51624040D01*
X78024344Y-51691020D01*
X77907244Y-51940048D01*
X77840977Y-52207135D01*
X77828090Y-52482017D01*
X75107000Y-52482017D01*
X75107000Y-52272408D01*
X75053314Y-52002510D01*
X74948005Y-51748273D01*
X74795120Y-51519465D01*
X74630655Y-51355000D01*
X74720090Y-51265565D01*
X78444040Y-51265565D01*
X78468990Y-51355000D01*
X78444040Y-51444435D01*
X79230000Y-52230395D01*
X80015960Y-51444435D01*
X79991010Y-51355000D01*
X80015960Y-51265565D01*
X79230000Y-50479605D01*
X78444040Y-51265565D01*
X74720090Y-51265565D01*
X74795120Y-51190535D01*
X74948005Y-50961727D01*
X75053314Y-50707490D01*
X75107000Y-50437592D01*
X75107000Y-50372017D01*
X77828090Y-50372017D01*
X77869078Y-50644133D01*
X77962364Y-50903023D01*
X78024344Y-51018980D01*
X78264435Y-51085960D01*
X79050395Y-50300000D01*
X79409605Y-50300000D01*
X80195565Y-51085960D01*
X80435656Y-51018980D01*
X80552756Y-50769952D01*
X80619023Y-50502865D01*
X80631910Y-50227983D01*
X80590922Y-49955867D01*
X80497636Y-49696977D01*
X80435656Y-49581020D01*
X80195565Y-49514040D01*
X79409605Y-50300000D01*
X79050395Y-50300000D01*
X78264435Y-49514040D01*
X78024344Y-49581020D01*
X77907244Y-49830048D01*
X77840977Y-50097135D01*
X77828090Y-50372017D01*
X75107000Y-50372017D01*
X75107000Y-50162408D01*
X75053314Y-49892510D01*
X74948005Y-49638273D01*
X74795120Y-49409465D01*
X74720090Y-49334435D01*
X78444040Y-49334435D01*
X79230000Y-50120395D01*
X80015960Y-49334435D01*
X79948980Y-49094344D01*
X79699952Y-48977244D01*
X79432865Y-48910977D01*
X79157983Y-48898090D01*
X78885867Y-48939078D01*
X78626977Y-49032364D01*
X78511020Y-49094344D01*
X78444040Y-49334435D01*
X74720090Y-49334435D01*
X74600535Y-49214880D01*
X74371727Y-49061995D01*
X74117490Y-48956686D01*
X73847592Y-48903000D01*
X73572408Y-48903000D01*
X73302510Y-48956686D01*
X73048273Y-49061995D01*
X72819465Y-49214880D01*
X72624880Y-49409465D01*
X72471995Y-49638273D01*
X72366686Y-49892510D01*
X72313000Y-50162408D01*
X67385000Y-50162408D01*
X67385000Y-46785000D01*
X164860198Y-46785000D01*
X163842452Y-47802746D01*
%TA.AperFunction,Conductor*%
D24*
G36*
X163842452Y-47802746D02*
G01*
X163612102Y-47732870D01*
X163370000Y-47709025D01*
X163127899Y-47732870D01*
X162895100Y-47803489D01*
X162680552Y-47918167D01*
X162492499Y-48072498D01*
X162338168Y-48260551D01*
X162223489Y-48475099D01*
X162152870Y-48707898D01*
X162135000Y-48889335D01*
X162135000Y-49810664D01*
X162152870Y-49992101D01*
X162223489Y-50224900D01*
X162338167Y-50439448D01*
X162492498Y-50627502D01*
X162680551Y-50781833D01*
X162895099Y-50896511D01*
X163127898Y-50967130D01*
X163370000Y-50990975D01*
X163612101Y-50967130D01*
X163844900Y-50896511D01*
X164059448Y-50781833D01*
X164247502Y-50627502D01*
X164401833Y-50439449D01*
X164516511Y-50224901D01*
X164587130Y-49992102D01*
X164605000Y-49810665D01*
X164605000Y-49189801D01*
X164675000Y-49119801D01*
X164675000Y-49810664D01*
X164692870Y-49992101D01*
X164763489Y-50224900D01*
X164878167Y-50439448D01*
X165032498Y-50627502D01*
X165220551Y-50781833D01*
X165435099Y-50896511D01*
X165667898Y-50967130D01*
X165910000Y-50990975D01*
X166152101Y-50967130D01*
X166384900Y-50896511D01*
X166599448Y-50781833D01*
X166787502Y-50627502D01*
X166941833Y-50439449D01*
X167056511Y-50224901D01*
X167127130Y-49992102D01*
X167145000Y-49810665D01*
X167145000Y-49189801D01*
X167215000Y-49119801D01*
X167215000Y-49810664D01*
X167232870Y-49992101D01*
X167303489Y-50224900D01*
X167418167Y-50439448D01*
X167572498Y-50627502D01*
X167760551Y-50781833D01*
X167975099Y-50896511D01*
X168207898Y-50967130D01*
X168450000Y-50990975D01*
X168692101Y-50967130D01*
X168924900Y-50896511D01*
X169139448Y-50781833D01*
X169327502Y-50627502D01*
X169481833Y-50439449D01*
X169596511Y-50224901D01*
X169667130Y-49992102D01*
X169685000Y-49810665D01*
X169685000Y-49477000D01*
X169755000Y-49477000D01*
X169755000Y-49877000D01*
X169803507Y-50115496D01*
X169897610Y-50339946D01*
X170033693Y-50541725D01*
X170206526Y-50713078D01*
X170409467Y-50847421D01*
X170634718Y-50939591D01*
X170672391Y-50943462D01*
X170863000Y-50818731D01*
X170863000Y-49477000D01*
X171117000Y-49477000D01*
X171117000Y-50818731D01*
X171307609Y-50943462D01*
X171345282Y-50939591D01*
X171570533Y-50847421D01*
X171773474Y-50713078D01*
X171946307Y-50541725D01*
X172082390Y-50339946D01*
X172176493Y-50115496D01*
X172225000Y-49877000D01*
X172225000Y-49477000D01*
X171117000Y-49477000D01*
X170863000Y-49477000D01*
X169755000Y-49477000D01*
X169685000Y-49477000D01*
X169685000Y-48889336D01*
X169667130Y-48707899D01*
X169596511Y-48475099D01*
X169521616Y-48334979D01*
X169914521Y-48334979D01*
X169897610Y-48360054D01*
X169803507Y-48584504D01*
X169755000Y-48823000D01*
X169755000Y-49223000D01*
X170863000Y-49223000D01*
X170863000Y-49203000D01*
X171117000Y-49203000D01*
X171117000Y-49223000D01*
X172225000Y-49223000D01*
X172225000Y-48823000D01*
X172176493Y-48584504D01*
X172082390Y-48360054D01*
X172065479Y-48334979D01*
X172458385Y-48334979D01*
X172383489Y-48475099D01*
X172312870Y-48707898D01*
X172295000Y-48889335D01*
X172295000Y-49810664D01*
X172312870Y-49992101D01*
X172383489Y-50224900D01*
X172498167Y-50439448D01*
X172652498Y-50627502D01*
X172840551Y-50781833D01*
X173012943Y-50873978D01*
X172844880Y-51042041D01*
X172691995Y-51270849D01*
X172586686Y-51525086D01*
X172533000Y-51794984D01*
X172533000Y-52070168D01*
X172586686Y-52340066D01*
X172691995Y-52594303D01*
X172844880Y-52823111D01*
X173039465Y-53017696D01*
X173268273Y-53170581D01*
X173522510Y-53275890D01*
X173792408Y-53329576D01*
X174067592Y-53329576D01*
X174337490Y-53275890D01*
X174591727Y-53170581D01*
X174820535Y-53017696D01*
X175015120Y-52823111D01*
X175168005Y-52594303D01*
X175273314Y-52340066D01*
X175327000Y-52070168D01*
X175327000Y-51794984D01*
X178053000Y-51794984D01*
X178053000Y-52070168D01*
X178106686Y-52340066D01*
X178211995Y-52594303D01*
X178364880Y-52823111D01*
X178559465Y-53017696D01*
X178788273Y-53170581D01*
X179042510Y-53275890D01*
X179312408Y-53329576D01*
X179587592Y-53329576D01*
X179857490Y-53275890D01*
X180111727Y-53170581D01*
X180340535Y-53017696D01*
X180535120Y-52823111D01*
X180688005Y-52594303D01*
X180793314Y-52340066D01*
X180847000Y-52070168D01*
X180847000Y-51794984D01*
X180793314Y-51525086D01*
X180688005Y-51270849D01*
X180535120Y-51042041D01*
X180340535Y-50847456D01*
X180111727Y-50694571D01*
X179857490Y-50589262D01*
X179587592Y-50535576D01*
X179312408Y-50535576D01*
X179042510Y-50589262D01*
X178788273Y-50694571D01*
X178559465Y-50847456D01*
X178364880Y-51042041D01*
X178211995Y-51270849D01*
X178106686Y-51525086D01*
X178053000Y-51794984D01*
X175327000Y-51794984D01*
X175273314Y-51525086D01*
X175168005Y-51270849D01*
X175015120Y-51042041D01*
X174820535Y-50847456D01*
X174591727Y-50694571D01*
X174413161Y-50620606D01*
X174561833Y-50439449D01*
X174676511Y-50224901D01*
X174747130Y-49992102D01*
X174765000Y-49810665D01*
X174765000Y-49189802D01*
X174831928Y-49122874D01*
X174831928Y-50050000D01*
X174849953Y-50233009D01*
X174903334Y-50408985D01*
X174990022Y-50571165D01*
X175106683Y-50713317D01*
X175248835Y-50829978D01*
X175411015Y-50916666D01*
X175586991Y-50970047D01*
X175770000Y-50988072D01*
X176370000Y-50988072D01*
X176553009Y-50970047D01*
X176728985Y-50916666D01*
X176891165Y-50829978D01*
X177033317Y-50713317D01*
X177149978Y-50571165D01*
X177196035Y-50485000D01*
X213179869Y-50485000D01*
X215711928Y-53017060D01*
X215711928Y-53430895D01*
X202416865Y-66725959D01*
X202373551Y-66761506D01*
X202231716Y-66934332D01*
X202152289Y-67082932D01*
X202126324Y-67131509D01*
X202107778Y-67192646D01*
X196811996Y-61896865D01*
X196776449Y-61853551D01*
X196603623Y-61711716D01*
X196406447Y-61606324D01*
X196192499Y-61541423D01*
X196025752Y-61525000D01*
X196025751Y-61525000D01*
X195970000Y-61519509D01*
X195914249Y-61525000D01*
X180483923Y-61525000D01*
X180535120Y-61473803D01*
X180688005Y-61244995D01*
X180793314Y-60990758D01*
X180847000Y-60720860D01*
X180847000Y-60445676D01*
X180793314Y-60175778D01*
X180688005Y-59921541D01*
X180535120Y-59692733D01*
X180340535Y-59498148D01*
X180111727Y-59345263D01*
X179857490Y-59239954D01*
X179587592Y-59186268D01*
X179312408Y-59186268D01*
X179042510Y-59239954D01*
X178788273Y-59345263D01*
X178559465Y-59498148D01*
X178364880Y-59692733D01*
X178211995Y-59921541D01*
X178106686Y-60175778D01*
X178053000Y-60445676D01*
X178053000Y-60720860D01*
X178106686Y-60990758D01*
X178211995Y-61244995D01*
X178364880Y-61473803D01*
X178416077Y-61525000D01*
X174963923Y-61525000D01*
X175015120Y-61473803D01*
X175168005Y-61244995D01*
X175273314Y-60990758D01*
X175327000Y-60720860D01*
X175327000Y-60445676D01*
X175273314Y-60175778D01*
X175168005Y-59921541D01*
X175015120Y-59692733D01*
X174820535Y-59498148D01*
X174591727Y-59345263D01*
X174337490Y-59239954D01*
X174067592Y-59186268D01*
X173792408Y-59186268D01*
X173522510Y-59239954D01*
X173268273Y-59345263D01*
X173039465Y-59498148D01*
X172844880Y-59692733D01*
X172691995Y-59921541D01*
X172586686Y-60175778D01*
X172533000Y-60445676D01*
X172533000Y-60720860D01*
X172586686Y-60990758D01*
X172691995Y-61244995D01*
X172844880Y-61473803D01*
X172896077Y-61525000D01*
X150467797Y-61525000D01*
X150535120Y-61457677D01*
X150688005Y-61228869D01*
X150793314Y-60974632D01*
X150847000Y-60704734D01*
X150847000Y-60429550D01*
X150793314Y-60159652D01*
X150688005Y-59905415D01*
X150535120Y-59676607D01*
X150340535Y-59482022D01*
X150111727Y-59329137D01*
X149857490Y-59223828D01*
X149587592Y-59170142D01*
X149312408Y-59170142D01*
X149042510Y-59223828D01*
X148788273Y-59329137D01*
X148559465Y-59482022D01*
X148364880Y-59676607D01*
X148211995Y-59905415D01*
X148106686Y-60159652D01*
X148053000Y-60429550D01*
X148053000Y-60704734D01*
X148106686Y-60974632D01*
X148211995Y-61228869D01*
X148364880Y-61457677D01*
X148432203Y-61525000D01*
X144947797Y-61525000D01*
X145015120Y-61457677D01*
X145168005Y-61228869D01*
X145273314Y-60974632D01*
X145327000Y-60704734D01*
X145327000Y-60429550D01*
X145273314Y-60159652D01*
X145168005Y-59905415D01*
X145015120Y-59676607D01*
X144820535Y-59482022D01*
X144591727Y-59329137D01*
X144337490Y-59223828D01*
X144067592Y-59170142D01*
X143792408Y-59170142D01*
X143522510Y-59223828D01*
X143268273Y-59329137D01*
X143039465Y-59482022D01*
X142844880Y-59676607D01*
X142691995Y-59905415D01*
X142586686Y-60159652D01*
X142533000Y-60429550D01*
X142533000Y-60704734D01*
X142586686Y-60974632D01*
X142691995Y-61228869D01*
X142844880Y-61457677D01*
X142912203Y-61525000D01*
X135884248Y-61525000D01*
X135717501Y-61541423D01*
X135503553Y-61606324D01*
X135306377Y-61711716D01*
X135192710Y-61805000D01*
X120191258Y-61805000D01*
X120340535Y-61705256D01*
X120535120Y-61510671D01*
X120688005Y-61281863D01*
X120793314Y-61027626D01*
X120847000Y-60757728D01*
X120847000Y-60482544D01*
X120793314Y-60212646D01*
X120688005Y-59958409D01*
X120535120Y-59729601D01*
X120340535Y-59535016D01*
X120111727Y-59382131D01*
X119857490Y-59276822D01*
X119587592Y-59223136D01*
X119312408Y-59223136D01*
X119042510Y-59276822D01*
X118788273Y-59382131D01*
X118559465Y-59535016D01*
X118364880Y-59729601D01*
X118211995Y-59958409D01*
X118106686Y-60212646D01*
X118053000Y-60482544D01*
X118053000Y-60757728D01*
X118106686Y-61027626D01*
X118211995Y-61281863D01*
X118364880Y-61510671D01*
X118559465Y-61705256D01*
X118708742Y-61805000D01*
X114671258Y-61805000D01*
X114820535Y-61705256D01*
X115015120Y-61510671D01*
X115168005Y-61281863D01*
X115273314Y-61027626D01*
X115327000Y-60757728D01*
X115327000Y-60482544D01*
X115273314Y-60212646D01*
X115168005Y-59958409D01*
X115015120Y-59729601D01*
X114820535Y-59535016D01*
X114591727Y-59382131D01*
X114337490Y-59276822D01*
X114067592Y-59223136D01*
X113792408Y-59223136D01*
X113522510Y-59276822D01*
X113268273Y-59382131D01*
X113039465Y-59535016D01*
X112844880Y-59729601D01*
X112691995Y-59958409D01*
X112586686Y-60212646D01*
X112533000Y-60482544D01*
X112533000Y-60757728D01*
X112586686Y-61027626D01*
X112691995Y-61281863D01*
X112844880Y-61510671D01*
X113039465Y-61705256D01*
X113188742Y-61805000D01*
X104688454Y-61805000D01*
X104640256Y-61772795D01*
X104451898Y-61694774D01*
X104251939Y-61655000D01*
X104048061Y-61655000D01*
X103848102Y-61694774D01*
X103659744Y-61772795D01*
X103490226Y-61886063D01*
X103346063Y-62030226D01*
X103232795Y-62199744D01*
X103154774Y-62388102D01*
X103115000Y-62588061D01*
X103115000Y-62791939D01*
X103154774Y-62991898D01*
X103232795Y-63180256D01*
X103346063Y-63349774D01*
X103490226Y-63493937D01*
X103659744Y-63607205D01*
X103848102Y-63685226D01*
X104048061Y-63725000D01*
X104251939Y-63725000D01*
X104451898Y-63685226D01*
X104640256Y-63607205D01*
X104688454Y-63575000D01*
X113622021Y-63575000D01*
X113522510Y-63594794D01*
X113268273Y-63700103D01*
X113039465Y-63852988D01*
X112844880Y-64047573D01*
X112691995Y-64276381D01*
X112586686Y-64530618D01*
X112533000Y-64800516D01*
X112533000Y-65075700D01*
X112567670Y-65250000D01*
X104677325Y-65250000D01*
X104640000Y-65246324D01*
X104602675Y-65250000D01*
X104602667Y-65250000D01*
X104491014Y-65260997D01*
X104347753Y-65304454D01*
X104215724Y-65375026D01*
X104106090Y-65465000D01*
X104048061Y-65465000D01*
X103848102Y-65504774D01*
X103659744Y-65582795D01*
X103490226Y-65696063D01*
X103346063Y-65840226D01*
X103232795Y-66009744D01*
X103154774Y-66198102D01*
X103115000Y-66398061D01*
X103115000Y-66601939D01*
X103154774Y-66801898D01*
X103232795Y-66990256D01*
X103341169Y-67152449D01*
X103262795Y-67269744D01*
X103184774Y-67458102D01*
X103145000Y-67658061D01*
X103145000Y-67861939D01*
X103184774Y-68061898D01*
X103262795Y-68250256D01*
X103369510Y-68409966D01*
X103282795Y-68539744D01*
X103204774Y-68728102D01*
X103165000Y-68928061D01*
X103165000Y-69131939D01*
X103204774Y-69331898D01*
X103282795Y-69520256D01*
X103384510Y-69672483D01*
X103292795Y-69809744D01*
X103214774Y-69998102D01*
X103175000Y-70198061D01*
X103175000Y-70401939D01*
X103214774Y-70601898D01*
X103267836Y-70730000D01*
X102584803Y-70730000D01*
X100640000Y-68785199D01*
X100640000Y-66543711D01*
X100683937Y-66499774D01*
X100797205Y-66330256D01*
X100875226Y-66141898D01*
X100915000Y-65941939D01*
X100915000Y-65738061D01*
X100875226Y-65538102D01*
X100797205Y-65349744D01*
X100683937Y-65180226D01*
X100539774Y-65036063D01*
X100370256Y-64922795D01*
X100181898Y-64844774D01*
X99981939Y-64805000D01*
X99778061Y-64805000D01*
X99578102Y-64844774D01*
X99389744Y-64922795D01*
X99220226Y-65036063D01*
X99076063Y-65180226D01*
X98962795Y-65349744D01*
X98884774Y-65538102D01*
X98845000Y-65738061D01*
X98845000Y-65941939D01*
X98884774Y-66141898D01*
X98962795Y-66330256D01*
X99076063Y-66499774D01*
X99120000Y-66543711D01*
X99120001Y-69062668D01*
X99116324Y-69100000D01*
X99120001Y-69137333D01*
X99123119Y-69168985D01*
X99130998Y-69248985D01*
X99174454Y-69392246D01*
X99245026Y-69524276D01*
X99316201Y-69611002D01*
X99340000Y-69640001D01*
X99368998Y-69663799D01*
X101706205Y-72001008D01*
X101729999Y-72030001D01*
X101758992Y-72053795D01*
X101758996Y-72053799D01*
X101829685Y-72111811D01*
X101845724Y-72124974D01*
X101977753Y-72195546D01*
X102121014Y-72239003D01*
X102232667Y-72250000D01*
X102232676Y-72250000D01*
X102269999Y-72253676D01*
X102307322Y-72250000D01*
X113476008Y-72250000D01*
X113268273Y-72336047D01*
X113039465Y-72488932D01*
X112844880Y-72683517D01*
X112691995Y-72912325D01*
X112586686Y-73166562D01*
X112533000Y-73436460D01*
X112533000Y-73711644D01*
X112586686Y-73981542D01*
X112691995Y-74235779D01*
X112844880Y-74464587D01*
X113039465Y-74659172D01*
X113268273Y-74812057D01*
X113522510Y-74917366D01*
X113792408Y-74971052D01*
X114067592Y-74971052D01*
X114337490Y-74917366D01*
X114591727Y-74812057D01*
X114820535Y-74659172D01*
X115015120Y-74464587D01*
X115168005Y-74235779D01*
X115273314Y-73981542D01*
X115327000Y-73711644D01*
X115327000Y-73436460D01*
X115273314Y-73166562D01*
X115168005Y-72912325D01*
X115015120Y-72683517D01*
X114820535Y-72488932D01*
X114591727Y-72336047D01*
X114383992Y-72250000D01*
X118996008Y-72250000D01*
X118788273Y-72336047D01*
X118559465Y-72488932D01*
X118364880Y-72683517D01*
X118211995Y-72912325D01*
X118106686Y-73166562D01*
X118053000Y-73436460D01*
X118053000Y-73711644D01*
X118106686Y-73981542D01*
X118211995Y-74235779D01*
X118364880Y-74464587D01*
X118559465Y-74659172D01*
X118788273Y-74812057D01*
X119042510Y-74917366D01*
X119312408Y-74971052D01*
X119587592Y-74971052D01*
X119857490Y-74917366D01*
X120111727Y-74812057D01*
X120340535Y-74659172D01*
X120535120Y-74464587D01*
X120688005Y-74235779D01*
X120793314Y-73981542D01*
X120847000Y-73711644D01*
X120847000Y-73436460D01*
X120793314Y-73166562D01*
X120688005Y-72912325D01*
X120535120Y-72683517D01*
X120340535Y-72488932D01*
X120111727Y-72336047D01*
X119903992Y-72250000D01*
X129296289Y-72250000D01*
X129340226Y-72293937D01*
X129509744Y-72407205D01*
X129698102Y-72485226D01*
X129898061Y-72525000D01*
X130101939Y-72525000D01*
X130301898Y-72485226D01*
X130490256Y-72407205D01*
X130659774Y-72293937D01*
X130803937Y-72149774D01*
X130917205Y-71980256D01*
X130995226Y-71791898D01*
X131035000Y-71591939D01*
X131035000Y-71470000D01*
X132845000Y-71470000D01*
X132845000Y-71591929D01*
X132884774Y-71791888D01*
X132962795Y-71980246D01*
X133076063Y-72149764D01*
X133220226Y-72293927D01*
X133389744Y-72407195D01*
X133578102Y-72485216D01*
X133778061Y-72524990D01*
X133981939Y-72524990D01*
X134181898Y-72485216D01*
X134370256Y-72407195D01*
X134539774Y-72293927D01*
X134583711Y-72249990D01*
X143424858Y-72249990D01*
X143268273Y-72314850D01*
X143039465Y-72467735D01*
X142844880Y-72662320D01*
X142691995Y-72891128D01*
X142586686Y-73145365D01*
X142533000Y-73415263D01*
X142533000Y-73690447D01*
X142586686Y-73960345D01*
X142691995Y-74214582D01*
X142844880Y-74443390D01*
X143039465Y-74637975D01*
X143268273Y-74790860D01*
X143522510Y-74896169D01*
X143792408Y-74949855D01*
X144067592Y-74949855D01*
X144337490Y-74896169D01*
X144591727Y-74790860D01*
X144820535Y-74637975D01*
X145015120Y-74443390D01*
X145168005Y-74214582D01*
X145273314Y-73960345D01*
X145327000Y-73690447D01*
X145327000Y-73415263D01*
X145273314Y-73145365D01*
X145168005Y-72891128D01*
X145015120Y-72662320D01*
X144820535Y-72467735D01*
X144591727Y-72314850D01*
X144435142Y-72249990D01*
X148944858Y-72249990D01*
X148788273Y-72314850D01*
X148559465Y-72467735D01*
X148364880Y-72662320D01*
X148211995Y-72891128D01*
X148106686Y-73145365D01*
X148053000Y-73415263D01*
X148053000Y-73690447D01*
X148106686Y-73960345D01*
X148211995Y-74214582D01*
X148364880Y-74443390D01*
X148559465Y-74637975D01*
X148788273Y-74790860D01*
X149042510Y-74896169D01*
X149312408Y-74949855D01*
X149587592Y-74949855D01*
X149857490Y-74896169D01*
X150111727Y-74790860D01*
X150340535Y-74637975D01*
X150535120Y-74443390D01*
X150688005Y-74214582D01*
X150793314Y-73960345D01*
X150847000Y-73690447D01*
X150847000Y-73415263D01*
X150793314Y-73145365D01*
X150688005Y-72891128D01*
X150535120Y-72662320D01*
X150340535Y-72467735D01*
X150111727Y-72314850D01*
X149955142Y-72249990D01*
X159192798Y-72249990D01*
X159226063Y-72299774D01*
X159370226Y-72443937D01*
X159539744Y-72557205D01*
X159728102Y-72635226D01*
X159928061Y-72675000D01*
X160131939Y-72675000D01*
X160331898Y-72635226D01*
X160520256Y-72557205D01*
X160689774Y-72443937D01*
X160833937Y-72299774D01*
X160947205Y-72130256D01*
X161025226Y-71941898D01*
X161065000Y-71741939D01*
X161065000Y-71538061D01*
X161025226Y-71338102D01*
X161009893Y-71301086D01*
X162832246Y-71301086D01*
X162805000Y-71438061D01*
X162805000Y-71641939D01*
X162844774Y-71841898D01*
X162922795Y-72030256D01*
X163036063Y-72199774D01*
X163180226Y-72343937D01*
X163349744Y-72457205D01*
X163538102Y-72535226D01*
X163738061Y-72575000D01*
X163941939Y-72575000D01*
X164141898Y-72535226D01*
X164330256Y-72457205D01*
X164499774Y-72343937D01*
X164543711Y-72300000D01*
X173319698Y-72300000D01*
X173268273Y-72321301D01*
X173039465Y-72474186D01*
X172844880Y-72668771D01*
X172691995Y-72897579D01*
X172586686Y-73151816D01*
X172533000Y-73421714D01*
X172533000Y-73696898D01*
X172586686Y-73966796D01*
X172691995Y-74221033D01*
X172844880Y-74449841D01*
X173039465Y-74644426D01*
X173268273Y-74797311D01*
X173522510Y-74902620D01*
X173792408Y-74956306D01*
X174067592Y-74956306D01*
X174337490Y-74902620D01*
X174591727Y-74797311D01*
X174820535Y-74644426D01*
X175015120Y-74449841D01*
X175168005Y-74221033D01*
X175273314Y-73966796D01*
X175327000Y-73696898D01*
X175327000Y-73421714D01*
X175273314Y-73151816D01*
X175168005Y-72897579D01*
X175015120Y-72668771D01*
X174820535Y-72474186D01*
X174591727Y-72321301D01*
X174540302Y-72300000D01*
X178839698Y-72300000D01*
X178788273Y-72321301D01*
X178559465Y-72474186D01*
X178364880Y-72668771D01*
X178211995Y-72897579D01*
X178106686Y-73151816D01*
X178053000Y-73421714D01*
X178053000Y-73696898D01*
X178106686Y-73966796D01*
X178211995Y-74221033D01*
X178364880Y-74449841D01*
X178559465Y-74644426D01*
X178788273Y-74797311D01*
X179042510Y-74902620D01*
X179312408Y-74956306D01*
X179587592Y-74956306D01*
X179857490Y-74902620D01*
X180111727Y-74797311D01*
X180340535Y-74644426D01*
X180535120Y-74449841D01*
X180688005Y-74221033D01*
X180793314Y-73966796D01*
X180847000Y-73696898D01*
X180847000Y-73421714D01*
X180793314Y-73151816D01*
X180688005Y-72897579D01*
X180535120Y-72668771D01*
X180340535Y-72474186D01*
X180111727Y-72321301D01*
X180060302Y-72300000D01*
X189044653Y-72300000D01*
X189056227Y-72317322D01*
X189200390Y-72461485D01*
X189369908Y-72574753D01*
X189558266Y-72652774D01*
X189758225Y-72692548D01*
X189962103Y-72692548D01*
X190162062Y-72652774D01*
X190350420Y-72574753D01*
X190519938Y-72461485D01*
X190664101Y-72317322D01*
X190777369Y-72147804D01*
X190855390Y-71959446D01*
X190895164Y-71759487D01*
X190895164Y-71555609D01*
X190855390Y-71355650D01*
X190777369Y-71167292D01*
X190708163Y-71063718D01*
X190737205Y-71020254D01*
X190815226Y-70831896D01*
X190855000Y-70631937D01*
X190855000Y-70428059D01*
X190815226Y-70228100D01*
X190737205Y-70039742D01*
X190623937Y-69870224D01*
X190543712Y-69789999D01*
X190653937Y-69679774D01*
X190767205Y-69510256D01*
X190845226Y-69321898D01*
X190868764Y-69203565D01*
X193279847Y-71614649D01*
X193279847Y-71697092D01*
X193319621Y-71897051D01*
X193397642Y-72085409D01*
X193510910Y-72254927D01*
X193655073Y-72399090D01*
X193824591Y-72512358D01*
X194012949Y-72590379D01*
X194212908Y-72630153D01*
X194416786Y-72630153D01*
X194616745Y-72590379D01*
X194805103Y-72512358D01*
X194974621Y-72399090D01*
X195118784Y-72254927D01*
X195232052Y-72085409D01*
X195310073Y-71897051D01*
X195349847Y-71697092D01*
X195349847Y-71493214D01*
X195310073Y-71293255D01*
X195232052Y-71104897D01*
X195118784Y-70935379D01*
X194974621Y-70791216D01*
X194805103Y-70677948D01*
X194616745Y-70599927D01*
X194416786Y-70560153D01*
X194374955Y-70560153D01*
X191063803Y-67249002D01*
X191040001Y-67219999D01*
X190924276Y-67125026D01*
X190792247Y-67054454D01*
X190741314Y-67039004D01*
X190767205Y-67000256D01*
X190845226Y-66811898D01*
X190885000Y-66611939D01*
X190885000Y-66408061D01*
X190845226Y-66208102D01*
X190767205Y-66019744D01*
X190653937Y-65850226D01*
X190509774Y-65706063D01*
X190340256Y-65592795D01*
X190151898Y-65514774D01*
X189951939Y-65475000D01*
X189892456Y-65475000D01*
X189880802Y-65460800D01*
X189765077Y-65365827D01*
X189633048Y-65295255D01*
X189489787Y-65251798D01*
X189378134Y-65240801D01*
X189378123Y-65240801D01*
X189340801Y-65237125D01*
X189303479Y-65240801D01*
X180808293Y-65240801D01*
X180847000Y-65046206D01*
X180847000Y-64771022D01*
X180793314Y-64501124D01*
X180688005Y-64246887D01*
X180535120Y-64018079D01*
X180340535Y-63823494D01*
X180297891Y-63795000D01*
X195499869Y-63795000D01*
X202045000Y-70340132D01*
X202045000Y-70665751D01*
X202045001Y-70665761D01*
X202045000Y-73015661D01*
X201936614Y-73073595D01*
X201802038Y-73184038D01*
X201691595Y-73318614D01*
X201609528Y-73472150D01*
X201558992Y-73638746D01*
X201541928Y-73812000D01*
X201541928Y-74312000D01*
X201558992Y-74485254D01*
X201609528Y-74651850D01*
X201680393Y-74784428D01*
X201665724Y-74807024D01*
X201585881Y-75030126D01*
X201712046Y-75205000D01*
X203053000Y-75205000D01*
X203053000Y-75200072D01*
X203155439Y-75200072D01*
X203180000Y-75202491D01*
X203204561Y-75200072D01*
X203307000Y-75200072D01*
X203307000Y-75205000D01*
X204647954Y-75205000D01*
X204774119Y-75030126D01*
X204715941Y-74867559D01*
X213354362Y-74867559D01*
X213426024Y-75160040D01*
X213553370Y-75432921D01*
X213731505Y-75675715D01*
X213953584Y-75879091D01*
X214211073Y-76035234D01*
X214494076Y-76138143D01*
X214510260Y-76141036D01*
X214748000Y-76020378D01*
X214748000Y-74627000D01*
X215002000Y-74627000D01*
X215002000Y-76020378D01*
X215239740Y-76141036D01*
X215255924Y-76138143D01*
X215538927Y-76035234D01*
X215796416Y-75879091D01*
X216018495Y-75675715D01*
X216196630Y-75432921D01*
X216323976Y-75160040D01*
X216395638Y-74867559D01*
X216252200Y-74627000D01*
X215002000Y-74627000D01*
X214748000Y-74627000D01*
X213497800Y-74627000D01*
X213354362Y-74867559D01*
X204715941Y-74867559D01*
X204694276Y-74807024D01*
X204679607Y-74784428D01*
X204750472Y-74651850D01*
X204801008Y-74485254D01*
X204818072Y-74312000D01*
X204818072Y-74132441D01*
X213354362Y-74132441D01*
X213497800Y-74373000D01*
X214748000Y-74373000D01*
X214748000Y-72979622D01*
X215002000Y-72979622D01*
X215002000Y-74373000D01*
X216252200Y-74373000D01*
X216395638Y-74132441D01*
X216323976Y-73839960D01*
X216196630Y-73567079D01*
X216018495Y-73324285D01*
X215796416Y-73120909D01*
X215538927Y-72964766D01*
X215255924Y-72861857D01*
X215239740Y-72858964D01*
X215002000Y-72979622D01*
X214748000Y-72979622D01*
X214510260Y-72858964D01*
X214494076Y-72861857D01*
X214211073Y-72964766D01*
X213953584Y-73120909D01*
X213731505Y-73324285D01*
X213553370Y-73567079D01*
X213426024Y-73839960D01*
X213354362Y-74132441D01*
X204818072Y-74132441D01*
X204818072Y-73812000D01*
X204801008Y-73638746D01*
X204750472Y-73472150D01*
X204668405Y-73318614D01*
X204557962Y-73184038D01*
X204423386Y-73073595D01*
X204315000Y-73015661D01*
X204315000Y-69925752D01*
X204320491Y-69870000D01*
X204315000Y-69814248D01*
X204315000Y-68038086D01*
X215898260Y-56454827D01*
X215959294Y-56569014D01*
X216144866Y-56795134D01*
X216370986Y-56980706D01*
X216428731Y-57011571D01*
X216208205Y-57173198D01*
X216011336Y-57387954D01*
X215860146Y-57636991D01*
X215760446Y-57910739D01*
X215758524Y-57923110D01*
X215879845Y-58153000D01*
X217223000Y-58153000D01*
X217223000Y-58133000D01*
X217477000Y-58133000D01*
X217477000Y-58153000D01*
X217497000Y-58153000D01*
X217497000Y-58407000D01*
X217477000Y-58407000D01*
X217477000Y-58427000D01*
X217223000Y-58427000D01*
X217223000Y-58407000D01*
X215879845Y-58407000D01*
X215758524Y-58636890D01*
X215760446Y-58649261D01*
X215860146Y-58923009D01*
X216011336Y-59172046D01*
X216208205Y-59386802D01*
X216428731Y-59548429D01*
X216370986Y-59579294D01*
X216144866Y-59764866D01*
X215959294Y-59990986D01*
X215821401Y-60248966D01*
X215736487Y-60528889D01*
X215707815Y-60820000D01*
X215736487Y-61111111D01*
X215821401Y-61391034D01*
X215959294Y-61649014D01*
X216144866Y-61875134D01*
X216370986Y-62060706D01*
X216425791Y-62090000D01*
X216370986Y-62119294D01*
X216144866Y-62304866D01*
X215959294Y-62530986D01*
X215821401Y-62788966D01*
X215736487Y-63068889D01*
X215707815Y-63360000D01*
X215736487Y-63651111D01*
X215821401Y-63931034D01*
X215959294Y-64189014D01*
X216144866Y-64415134D01*
X216370986Y-64600706D01*
X216425791Y-64630000D01*
X216370986Y-64659294D01*
X216144866Y-64844866D01*
X215959294Y-65070986D01*
X215821401Y-65328966D01*
X215736487Y-65608889D01*
X215707815Y-65900000D01*
X215736487Y-66191111D01*
X215821401Y-66471034D01*
X215959294Y-66729014D01*
X216144866Y-66955134D01*
X216370986Y-67140706D01*
X216628966Y-67278599D01*
X216908889Y-67363513D01*
X217127050Y-67385000D01*
X217572950Y-67385000D01*
X217791111Y-67363513D01*
X218071034Y-67278599D01*
X218329014Y-67140706D01*
X218555134Y-66955134D01*
X218740706Y-66729014D01*
X218878599Y-66471034D01*
X218963513Y-66191111D01*
X218992185Y-65900000D01*
X218963513Y-65608889D01*
X218905885Y-65418916D01*
X220536034Y-63788768D01*
X220565032Y-63764970D01*
X220597835Y-63725000D01*
X220660005Y-63649246D01*
X220730577Y-63517216D01*
X220737638Y-63493937D01*
X220774034Y-63373955D01*
X220785031Y-63262302D01*
X220785031Y-63262293D01*
X220788707Y-63224970D01*
X220785031Y-63187647D01*
X220785031Y-51568132D01*
X220788708Y-51530799D01*
X220774034Y-51381813D01*
X220730577Y-51238552D01*
X220660005Y-51106523D01*
X220588830Y-51019796D01*
X220565032Y-50990798D01*
X220536035Y-50967001D01*
X216354033Y-46785000D01*
X222215000Y-46785000D01*
X222215001Y-87440000D01*
X67385000Y-87440000D01*
X67385000Y-82072408D01*
X82533000Y-82072408D01*
X82533000Y-82347592D01*
X82586686Y-82617490D01*
X82691995Y-82871727D01*
X82844880Y-83100535D01*
X83039465Y-83295120D01*
X83268273Y-83448005D01*
X83522510Y-83553314D01*
X83792408Y-83607000D01*
X84067592Y-83607000D01*
X84337490Y-83553314D01*
X84591727Y-83448005D01*
X84820535Y-83295120D01*
X85015120Y-83100535D01*
X85168005Y-82871727D01*
X85273314Y-82617490D01*
X85327000Y-82347592D01*
X85327000Y-82072408D01*
X88053000Y-82072408D01*
X88053000Y-82347592D01*
X88106686Y-82617490D01*
X88211995Y-82871727D01*
X88364880Y-83100535D01*
X88559465Y-83295120D01*
X88788273Y-83448005D01*
X89042510Y-83553314D01*
X89312408Y-83607000D01*
X89587592Y-83607000D01*
X89857490Y-83553314D01*
X90111727Y-83448005D01*
X90340535Y-83295120D01*
X90535120Y-83100535D01*
X90688005Y-82871727D01*
X90793314Y-82617490D01*
X90847000Y-82347592D01*
X90847000Y-82072408D01*
X112533000Y-82072408D01*
X112533000Y-82347592D01*
X112586686Y-82617490D01*
X112691995Y-82871727D01*
X112844880Y-83100535D01*
X113039465Y-83295120D01*
X113268273Y-83448005D01*
X113522510Y-83553314D01*
X113792408Y-83607000D01*
X114067592Y-83607000D01*
X114337490Y-83553314D01*
X114591727Y-83448005D01*
X114820535Y-83295120D01*
X115015120Y-83100535D01*
X115168005Y-82871727D01*
X115273314Y-82617490D01*
X115327000Y-82347592D01*
X115327000Y-82072408D01*
X118053000Y-82072408D01*
X118053000Y-82347592D01*
X118106686Y-82617490D01*
X118211995Y-82871727D01*
X118364880Y-83100535D01*
X118559465Y-83295120D01*
X118788273Y-83448005D01*
X119042510Y-83553314D01*
X119312408Y-83607000D01*
X119587592Y-83607000D01*
X119857490Y-83553314D01*
X120111727Y-83448005D01*
X120340535Y-83295120D01*
X120535120Y-83100535D01*
X120688005Y-82871727D01*
X120793314Y-82617490D01*
X120847000Y-82347592D01*
X120847000Y-82072408D01*
X142533000Y-82072408D01*
X142533000Y-82347592D01*
X142586686Y-82617490D01*
X142691995Y-82871727D01*
X142844880Y-83100535D01*
X143039465Y-83295120D01*
X143268273Y-83448005D01*
X143522510Y-83553314D01*
X143792408Y-83607000D01*
X144067592Y-83607000D01*
X144337490Y-83553314D01*
X144591727Y-83448005D01*
X144820535Y-83295120D01*
X145015120Y-83100535D01*
X145168005Y-82871727D01*
X145273314Y-82617490D01*
X145327000Y-82347592D01*
X145327000Y-82072408D01*
X148053000Y-82072408D01*
X148053000Y-82347592D01*
X148106686Y-82617490D01*
X148211995Y-82871727D01*
X148364880Y-83100535D01*
X148559465Y-83295120D01*
X148788273Y-83448005D01*
X149042510Y-83553314D01*
X149312408Y-83607000D01*
X149587592Y-83607000D01*
X149857490Y-83553314D01*
X150111727Y-83448005D01*
X150340535Y-83295120D01*
X150535120Y-83100535D01*
X150688005Y-82871727D01*
X150793314Y-82617490D01*
X150847000Y-82347592D01*
X150847000Y-82072408D01*
X172533000Y-82072408D01*
X172533000Y-82347592D01*
X172586686Y-82617490D01*
X172691995Y-82871727D01*
X172844880Y-83100535D01*
X173039465Y-83295120D01*
X173268273Y-83448005D01*
X173522510Y-83553314D01*
X173792408Y-83607000D01*
X174067592Y-83607000D01*
X174337490Y-83553314D01*
X174591727Y-83448005D01*
X174820535Y-83295120D01*
X175015120Y-83100535D01*
X175168005Y-82871727D01*
X175273314Y-82617490D01*
X175327000Y-82347592D01*
X175327000Y-82072408D01*
X178053000Y-82072408D01*
X178053000Y-82347592D01*
X178106686Y-82617490D01*
X178211995Y-82871727D01*
X178364880Y-83100535D01*
X178559465Y-83295120D01*
X178788273Y-83448005D01*
X179042510Y-83553314D01*
X179312408Y-83607000D01*
X179587592Y-83607000D01*
X179857490Y-83553314D01*
X180111727Y-83448005D01*
X180340535Y-83295120D01*
X180535120Y-83100535D01*
X180688005Y-82871727D01*
X180793314Y-82617490D01*
X180847000Y-82347592D01*
X180847000Y-82072408D01*
X180793314Y-81802510D01*
X180688005Y-81548273D01*
X180535120Y-81319465D01*
X180340535Y-81124880D01*
X180111727Y-80971995D01*
X179857490Y-80866686D01*
X179587592Y-80813000D01*
X179312408Y-80813000D01*
X179042510Y-80866686D01*
X178788273Y-80971995D01*
X178559465Y-81124880D01*
X178364880Y-81319465D01*
X178211995Y-81548273D01*
X178106686Y-81802510D01*
X178053000Y-82072408D01*
X175327000Y-82072408D01*
X175273314Y-81802510D01*
X175168005Y-81548273D01*
X175015120Y-81319465D01*
X174820535Y-81124880D01*
X174591727Y-80971995D01*
X174337490Y-80866686D01*
X174067592Y-80813000D01*
X173792408Y-80813000D01*
X173522510Y-80866686D01*
X173268273Y-80971995D01*
X173039465Y-81124880D01*
X172844880Y-81319465D01*
X172691995Y-81548273D01*
X172586686Y-81802510D01*
X172533000Y-82072408D01*
X150847000Y-82072408D01*
X150793314Y-81802510D01*
X150688005Y-81548273D01*
X150535120Y-81319465D01*
X150340535Y-81124880D01*
X150111727Y-80971995D01*
X149857490Y-80866686D01*
X149587592Y-80813000D01*
X149312408Y-80813000D01*
X149042510Y-80866686D01*
X148788273Y-80971995D01*
X148559465Y-81124880D01*
X148364880Y-81319465D01*
X148211995Y-81548273D01*
X148106686Y-81802510D01*
X148053000Y-82072408D01*
X145327000Y-82072408D01*
X145273314Y-81802510D01*
X145168005Y-81548273D01*
X145015120Y-81319465D01*
X144820535Y-81124880D01*
X144591727Y-80971995D01*
X144337490Y-80866686D01*
X144067592Y-80813000D01*
X143792408Y-80813000D01*
X143522510Y-80866686D01*
X143268273Y-80971995D01*
X143039465Y-81124880D01*
X142844880Y-81319465D01*
X142691995Y-81548273D01*
X142586686Y-81802510D01*
X142533000Y-82072408D01*
X120847000Y-82072408D01*
X120793314Y-81802510D01*
X120688005Y-81548273D01*
X120535120Y-81319465D01*
X120340535Y-81124880D01*
X120111727Y-80971995D01*
X119857490Y-80866686D01*
X119587592Y-80813000D01*
X119312408Y-80813000D01*
X119042510Y-80866686D01*
X118788273Y-80971995D01*
X118559465Y-81124880D01*
X118364880Y-81319465D01*
X118211995Y-81548273D01*
X118106686Y-81802510D01*
X118053000Y-82072408D01*
X115327000Y-82072408D01*
X115273314Y-81802510D01*
X115168005Y-81548273D01*
X115015120Y-81319465D01*
X114820535Y-81124880D01*
X114591727Y-80971995D01*
X114337490Y-80866686D01*
X114067592Y-80813000D01*
X113792408Y-80813000D01*
X113522510Y-80866686D01*
X113268273Y-80971995D01*
X113039465Y-81124880D01*
X112844880Y-81319465D01*
X112691995Y-81548273D01*
X112586686Y-81802510D01*
X112533000Y-82072408D01*
X90847000Y-82072408D01*
X90793314Y-81802510D01*
X90688005Y-81548273D01*
X90535120Y-81319465D01*
X90340535Y-81124880D01*
X90111727Y-80971995D01*
X89857490Y-80866686D01*
X89587592Y-80813000D01*
X89312408Y-80813000D01*
X89042510Y-80866686D01*
X88788273Y-80971995D01*
X88559465Y-81124880D01*
X88364880Y-81319465D01*
X88211995Y-81548273D01*
X88106686Y-81802510D01*
X88053000Y-82072408D01*
X85327000Y-82072408D01*
X85273314Y-81802510D01*
X85168005Y-81548273D01*
X85015120Y-81319465D01*
X84820535Y-81124880D01*
X84591727Y-80971995D01*
X84337490Y-80866686D01*
X84067592Y-80813000D01*
X83792408Y-80813000D01*
X83522510Y-80866686D01*
X83268273Y-80971995D01*
X83039465Y-81124880D01*
X82844880Y-81319465D01*
X82691995Y-81548273D01*
X82586686Y-81802510D01*
X82533000Y-82072408D01*
X67385000Y-82072408D01*
X67385000Y-77758118D01*
X82533000Y-77758118D01*
X82533000Y-78033302D01*
X82586686Y-78303200D01*
X82691995Y-78557437D01*
X82844880Y-78786245D01*
X83039465Y-78980830D01*
X83268273Y-79133715D01*
X83522510Y-79239024D01*
X83792408Y-79292710D01*
X84067592Y-79292710D01*
X84337490Y-79239024D01*
X84591727Y-79133715D01*
X84820535Y-78980830D01*
X85015120Y-78786245D01*
X85168005Y-78557437D01*
X85273314Y-78303200D01*
X85327000Y-78033302D01*
X85327000Y-77758118D01*
X88053000Y-77758118D01*
X88053000Y-78033302D01*
X88106686Y-78303200D01*
X88211995Y-78557437D01*
X88364880Y-78786245D01*
X88559465Y-78980830D01*
X88788273Y-79133715D01*
X89042510Y-79239024D01*
X89312408Y-79292710D01*
X89587592Y-79292710D01*
X89857490Y-79239024D01*
X90111727Y-79133715D01*
X90340535Y-78980830D01*
X90535120Y-78786245D01*
X90688005Y-78557437D01*
X90793314Y-78303200D01*
X90847000Y-78033302D01*
X90847000Y-77758118D01*
X90846267Y-77754432D01*
X112533000Y-77754432D01*
X112533000Y-78029616D01*
X112586686Y-78299514D01*
X112691995Y-78553751D01*
X112844880Y-78782559D01*
X113039465Y-78977144D01*
X113268273Y-79130029D01*
X113522510Y-79235338D01*
X113792408Y-79289024D01*
X114067592Y-79289024D01*
X114337490Y-79235338D01*
X114591727Y-79130029D01*
X114820535Y-78977144D01*
X115015120Y-78782559D01*
X115168005Y-78553751D01*
X115273314Y-78299514D01*
X115327000Y-78029616D01*
X115327000Y-77754432D01*
X118053000Y-77754432D01*
X118053000Y-78029616D01*
X118106686Y-78299514D01*
X118211995Y-78553751D01*
X118364880Y-78782559D01*
X118559465Y-78977144D01*
X118788273Y-79130029D01*
X119042510Y-79235338D01*
X119312408Y-79289024D01*
X119587592Y-79289024D01*
X119857490Y-79235338D01*
X120111727Y-79130029D01*
X120340535Y-78977144D01*
X120535120Y-78782559D01*
X120688005Y-78553751D01*
X120793314Y-78299514D01*
X120847000Y-78029616D01*
X120847000Y-77754432D01*
X120844892Y-77743834D01*
X142533000Y-77743834D01*
X142533000Y-78019018D01*
X142586686Y-78288916D01*
X142691995Y-78543153D01*
X142844880Y-78771961D01*
X143039465Y-78966546D01*
X143268273Y-79119431D01*
X143522510Y-79224740D01*
X143792408Y-79278426D01*
X144067592Y-79278426D01*
X144337490Y-79224740D01*
X144591727Y-79119431D01*
X144820535Y-78966546D01*
X145015120Y-78771961D01*
X145168005Y-78543153D01*
X145273314Y-78288916D01*
X145327000Y-78019018D01*
X145327000Y-77743834D01*
X148053000Y-77743834D01*
X148053000Y-78019018D01*
X148106686Y-78288916D01*
X148211995Y-78543153D01*
X148364880Y-78771961D01*
X148559465Y-78966546D01*
X148788273Y-79119431D01*
X149042510Y-79224740D01*
X149312408Y-79278426D01*
X149587592Y-79278426D01*
X149857490Y-79224740D01*
X150111727Y-79119431D01*
X150340535Y-78966546D01*
X150535120Y-78771961D01*
X150688005Y-78543153D01*
X150793314Y-78288916D01*
X150847000Y-78019018D01*
X150847000Y-77747060D01*
X172533000Y-77747060D01*
X172533000Y-78022244D01*
X172586686Y-78292142D01*
X172691995Y-78546379D01*
X172844880Y-78775187D01*
X173039465Y-78969772D01*
X173268273Y-79122657D01*
X173522510Y-79227966D01*
X173792408Y-79281652D01*
X174067592Y-79281652D01*
X174337490Y-79227966D01*
X174591727Y-79122657D01*
X174820535Y-78969772D01*
X175015120Y-78775187D01*
X175168005Y-78546379D01*
X175273314Y-78292142D01*
X175327000Y-78022244D01*
X175327000Y-77747060D01*
X178053000Y-77747060D01*
X178053000Y-78022244D01*
X178106686Y-78292142D01*
X178211995Y-78546379D01*
X178364880Y-78775187D01*
X178559465Y-78969772D01*
X178788273Y-79122657D01*
X179042510Y-79227966D01*
X179312408Y-79281652D01*
X179587592Y-79281652D01*
X179857490Y-79227966D01*
X180111727Y-79122657D01*
X180340535Y-78969772D01*
X180535120Y-78775187D01*
X180688005Y-78546379D01*
X180793314Y-78292142D01*
X180847000Y-78022244D01*
X180847000Y-77747060D01*
X180793314Y-77477162D01*
X180688005Y-77222925D01*
X180535120Y-76994117D01*
X180340535Y-76799532D01*
X180111727Y-76646647D01*
X180003941Y-76602000D01*
X201539509Y-76602000D01*
X201561423Y-76824499D01*
X201626324Y-77038447D01*
X201731716Y-77235623D01*
X201732846Y-77237000D01*
X201731716Y-77238377D01*
X201626324Y-77435553D01*
X201561423Y-77649501D01*
X201539509Y-77872000D01*
X201561423Y-78094499D01*
X201626324Y-78308447D01*
X201731716Y-78505623D01*
X201732846Y-78507000D01*
X201731716Y-78508377D01*
X201626324Y-78705553D01*
X201561423Y-78919501D01*
X201539509Y-79142000D01*
X201561423Y-79364499D01*
X201626324Y-79578447D01*
X201731716Y-79775623D01*
X201732846Y-79777000D01*
X201731716Y-79778377D01*
X201626324Y-79975553D01*
X201561423Y-80189501D01*
X201539509Y-80412000D01*
X201561423Y-80634499D01*
X201626324Y-80848447D01*
X201731716Y-81045623D01*
X201732846Y-81047000D01*
X201731716Y-81048377D01*
X201626324Y-81245553D01*
X201561423Y-81459501D01*
X201539509Y-81682000D01*
X201561423Y-81904499D01*
X201626324Y-82118447D01*
X201731716Y-82315623D01*
X201732846Y-82317000D01*
X201731716Y-82318377D01*
X201626324Y-82515553D01*
X201561423Y-82729501D01*
X201539509Y-82952000D01*
X201561423Y-83174499D01*
X201626324Y-83388447D01*
X201731716Y-83585623D01*
X201732846Y-83587000D01*
X201731716Y-83588377D01*
X201626324Y-83785553D01*
X201561423Y-83999501D01*
X201539509Y-84222000D01*
X201561423Y-84444499D01*
X201626324Y-84658447D01*
X201731716Y-84855623D01*
X201732846Y-84857000D01*
X201731716Y-84858377D01*
X201626324Y-85055553D01*
X201561423Y-85269501D01*
X201539509Y-85492000D01*
X201561423Y-85714499D01*
X201626324Y-85928447D01*
X201731716Y-86125623D01*
X201873551Y-86298449D01*
X202046377Y-86440284D01*
X202243553Y-86545676D01*
X202457501Y-86610577D01*
X202624248Y-86627000D01*
X203735752Y-86627000D01*
X203902499Y-86610577D01*
X204116447Y-86545676D01*
X204313623Y-86440284D01*
X204486449Y-86298449D01*
X204628284Y-86125623D01*
X204733676Y-85928447D01*
X204798577Y-85714499D01*
X204820491Y-85492000D01*
X204798577Y-85269501D01*
X204733676Y-85055553D01*
X204628284Y-84858377D01*
X204627154Y-84857000D01*
X204628284Y-84855623D01*
X204733676Y-84658447D01*
X204798577Y-84444499D01*
X204820491Y-84222000D01*
X204798577Y-83999501D01*
X204733676Y-83785553D01*
X204628284Y-83588377D01*
X204627154Y-83587000D01*
X204628284Y-83585623D01*
X204733676Y-83388447D01*
X204798577Y-83174499D01*
X204820491Y-82952000D01*
X204798577Y-82729501D01*
X204733676Y-82515553D01*
X204628284Y-82318377D01*
X204627154Y-82317000D01*
X204628284Y-82315623D01*
X204733676Y-82118447D01*
X204798577Y-81904499D01*
X204820491Y-81682000D01*
X204798577Y-81459501D01*
X204733676Y-81245553D01*
X204628284Y-81048377D01*
X204627154Y-81047000D01*
X204628284Y-81045623D01*
X204733676Y-80848447D01*
X204798577Y-80634499D01*
X204815018Y-80467559D01*
X213354362Y-80467559D01*
X213426024Y-80760040D01*
X213553370Y-81032921D01*
X213731505Y-81275715D01*
X213953584Y-81479091D01*
X214211073Y-81635234D01*
X214494076Y-81738143D01*
X214510260Y-81741036D01*
X214748000Y-81620378D01*
X214748000Y-80227000D01*
X215002000Y-80227000D01*
X215002000Y-81620378D01*
X215239740Y-81741036D01*
X215255924Y-81738143D01*
X215538927Y-81635234D01*
X215796416Y-81479091D01*
X216018495Y-81275715D01*
X216196630Y-81032921D01*
X216323976Y-80760040D01*
X216395638Y-80467559D01*
X216252200Y-80227000D01*
X215002000Y-80227000D01*
X214748000Y-80227000D01*
X213497800Y-80227000D01*
X213354362Y-80467559D01*
X204815018Y-80467559D01*
X204820491Y-80412000D01*
X204798577Y-80189501D01*
X204733676Y-79975553D01*
X204628284Y-79778377D01*
X204627154Y-79777000D01*
X204628284Y-79775623D01*
X204651365Y-79732441D01*
X213354362Y-79732441D01*
X213497800Y-79973000D01*
X214748000Y-79973000D01*
X214748000Y-78579622D01*
X215002000Y-78579622D01*
X215002000Y-79973000D01*
X216252200Y-79973000D01*
X216395638Y-79732441D01*
X216323976Y-79439960D01*
X216196630Y-79167079D01*
X216018495Y-78924285D01*
X215796416Y-78720909D01*
X215538927Y-78564766D01*
X215255924Y-78461857D01*
X215239740Y-78458964D01*
X215002000Y-78579622D01*
X214748000Y-78579622D01*
X214510260Y-78458964D01*
X214494076Y-78461857D01*
X214211073Y-78564766D01*
X213953584Y-78720909D01*
X213731505Y-78924285D01*
X213553370Y-79167079D01*
X213426024Y-79439960D01*
X213354362Y-79732441D01*
X204651365Y-79732441D01*
X204733676Y-79578447D01*
X204798577Y-79364499D01*
X204820491Y-79142000D01*
X204798577Y-78919501D01*
X204733676Y-78705553D01*
X204628284Y-78508377D01*
X204627154Y-78507000D01*
X204628284Y-78505623D01*
X204733676Y-78308447D01*
X204798577Y-78094499D01*
X204820491Y-77872000D01*
X204798577Y-77649501D01*
X204733676Y-77435553D01*
X204729105Y-77427000D01*
X215540000Y-77427000D01*
X215540000Y-77827000D01*
X215593310Y-78114269D01*
X215701639Y-78385618D01*
X215860824Y-78630619D01*
X216064748Y-78839857D01*
X216305574Y-79005291D01*
X216574047Y-79120563D01*
X216668110Y-79141476D01*
X216898000Y-79020155D01*
X216898000Y-77427000D01*
X217152000Y-77427000D01*
X217152000Y-79020155D01*
X217381890Y-79141476D01*
X217475953Y-79120563D01*
X217744426Y-79005291D01*
X217985252Y-78839857D01*
X218189176Y-78630619D01*
X218348361Y-78385618D01*
X218456690Y-78114269D01*
X218510000Y-77827000D01*
X218510000Y-77427000D01*
X217152000Y-77427000D01*
X216898000Y-77427000D01*
X215540000Y-77427000D01*
X204729105Y-77427000D01*
X204628284Y-77238377D01*
X204627154Y-77237000D01*
X204628284Y-77235623D01*
X204733676Y-77038447D01*
X204798577Y-76824499D01*
X204803649Y-76773000D01*
X215540000Y-76773000D01*
X215540000Y-77173000D01*
X216898000Y-77173000D01*
X216898000Y-75579845D01*
X217152000Y-75579845D01*
X217152000Y-77173000D01*
X218510000Y-77173000D01*
X218510000Y-76773000D01*
X218456690Y-76485731D01*
X218348361Y-76214382D01*
X218189176Y-75969381D01*
X217985252Y-75760143D01*
X217744426Y-75594709D01*
X217475953Y-75479437D01*
X217381890Y-75458524D01*
X217152000Y-75579845D01*
X216898000Y-75579845D01*
X216668110Y-75458524D01*
X216574047Y-75479437D01*
X216305574Y-75594709D01*
X216064748Y-75760143D01*
X215860824Y-75969381D01*
X215701639Y-76214382D01*
X215593310Y-76485731D01*
X215540000Y-76773000D01*
X204803649Y-76773000D01*
X204820491Y-76602000D01*
X204798577Y-76379501D01*
X204733676Y-76165553D01*
X204628284Y-75968377D01*
X204624752Y-75964073D01*
X204694276Y-75856976D01*
X204774119Y-75633874D01*
X204647954Y-75459000D01*
X203307000Y-75459000D01*
X203307000Y-75467000D01*
X203053000Y-75467000D01*
X203053000Y-75459000D01*
X201712046Y-75459000D01*
X201585881Y-75633874D01*
X201665724Y-75856976D01*
X201735248Y-75964073D01*
X201731716Y-75968377D01*
X201626324Y-76165553D01*
X201561423Y-76379501D01*
X201539509Y-76602000D01*
X180003941Y-76602000D01*
X179857490Y-76541338D01*
X179587592Y-76487652D01*
X179312408Y-76487652D01*
X179042510Y-76541338D01*
X178788273Y-76646647D01*
X178559465Y-76799532D01*
X178364880Y-76994117D01*
X178211995Y-77222925D01*
X178106686Y-77477162D01*
X178053000Y-77747060D01*
X175327000Y-77747060D01*
X175273314Y-77477162D01*
X175168005Y-77222925D01*
X175015120Y-76994117D01*
X174820535Y-76799532D01*
X174591727Y-76646647D01*
X174337490Y-76541338D01*
X174067592Y-76487652D01*
X173792408Y-76487652D01*
X173522510Y-76541338D01*
X173268273Y-76646647D01*
X173039465Y-76799532D01*
X172844880Y-76994117D01*
X172691995Y-77222925D01*
X172586686Y-77477162D01*
X172533000Y-77747060D01*
X150847000Y-77747060D01*
X150847000Y-77743834D01*
X150793314Y-77473936D01*
X150688005Y-77219699D01*
X150535120Y-76990891D01*
X150340535Y-76796306D01*
X150111727Y-76643421D01*
X149857490Y-76538112D01*
X149587592Y-76484426D01*
X149312408Y-76484426D01*
X149042510Y-76538112D01*
X148788273Y-76643421D01*
X148559465Y-76796306D01*
X148364880Y-76990891D01*
X148211995Y-77219699D01*
X148106686Y-77473936D01*
X148053000Y-77743834D01*
X145327000Y-77743834D01*
X145273314Y-77473936D01*
X145168005Y-77219699D01*
X145015120Y-76990891D01*
X144820535Y-76796306D01*
X144591727Y-76643421D01*
X144337490Y-76538112D01*
X144067592Y-76484426D01*
X143792408Y-76484426D01*
X143522510Y-76538112D01*
X143268273Y-76643421D01*
X143039465Y-76796306D01*
X142844880Y-76990891D01*
X142691995Y-77219699D01*
X142586686Y-77473936D01*
X142533000Y-77743834D01*
X120844892Y-77743834D01*
X120793314Y-77484534D01*
X120688005Y-77230297D01*
X120535120Y-77001489D01*
X120340535Y-76806904D01*
X120111727Y-76654019D01*
X119857490Y-76548710D01*
X119587592Y-76495024D01*
X119312408Y-76495024D01*
X119042510Y-76548710D01*
X118788273Y-76654019D01*
X118559465Y-76806904D01*
X118364880Y-77001489D01*
X118211995Y-77230297D01*
X118106686Y-77484534D01*
X118053000Y-77754432D01*
X115327000Y-77754432D01*
X115273314Y-77484534D01*
X115168005Y-77230297D01*
X115015120Y-77001489D01*
X114820535Y-76806904D01*
X114591727Y-76654019D01*
X114337490Y-76548710D01*
X114067592Y-76495024D01*
X113792408Y-76495024D01*
X113522510Y-76548710D01*
X113268273Y-76654019D01*
X113039465Y-76806904D01*
X112844880Y-77001489D01*
X112691995Y-77230297D01*
X112586686Y-77484534D01*
X112533000Y-77754432D01*
X90846267Y-77754432D01*
X90793314Y-77488220D01*
X90688005Y-77233983D01*
X90535120Y-77005175D01*
X90340535Y-76810590D01*
X90111727Y-76657705D01*
X89857490Y-76552396D01*
X89587592Y-76498710D01*
X89312408Y-76498710D01*
X89042510Y-76552396D01*
X88788273Y-76657705D01*
X88559465Y-76810590D01*
X88364880Y-77005175D01*
X88211995Y-77233983D01*
X88106686Y-77488220D01*
X88053000Y-77758118D01*
X85327000Y-77758118D01*
X85273314Y-77488220D01*
X85168005Y-77233983D01*
X85015120Y-77005175D01*
X84820535Y-76810590D01*
X84591727Y-76657705D01*
X84337490Y-76552396D01*
X84067592Y-76498710D01*
X83792408Y-76498710D01*
X83522510Y-76552396D01*
X83268273Y-76657705D01*
X83039465Y-76810590D01*
X82844880Y-77005175D01*
X82691995Y-77233983D01*
X82586686Y-77488220D01*
X82533000Y-77758118D01*
X67385000Y-77758118D01*
X67385000Y-73443833D01*
X82533000Y-73443833D01*
X82533000Y-73719017D01*
X82586686Y-73988915D01*
X82691995Y-74243152D01*
X82844880Y-74471960D01*
X83039465Y-74666545D01*
X83268273Y-74819430D01*
X83522510Y-74924739D01*
X83792408Y-74978425D01*
X84067592Y-74978425D01*
X84337490Y-74924739D01*
X84591727Y-74819430D01*
X84820535Y-74666545D01*
X85015120Y-74471960D01*
X85168005Y-74243152D01*
X85273314Y-73988915D01*
X85327000Y-73719017D01*
X85327000Y-73443833D01*
X88053000Y-73443833D01*
X88053000Y-73719017D01*
X88106686Y-73988915D01*
X88211995Y-74243152D01*
X88364880Y-74471960D01*
X88559465Y-74666545D01*
X88788273Y-74819430D01*
X89042510Y-74924739D01*
X89312408Y-74978425D01*
X89587592Y-74978425D01*
X89857490Y-74924739D01*
X90111727Y-74819430D01*
X90340535Y-74666545D01*
X90535120Y-74471960D01*
X90688005Y-74243152D01*
X90793314Y-73988915D01*
X90847000Y-73719017D01*
X90847000Y-73443833D01*
X90793314Y-73173935D01*
X90688005Y-72919698D01*
X90535120Y-72690890D01*
X90340535Y-72496305D01*
X90111727Y-72343420D01*
X89857490Y-72238111D01*
X89587592Y-72184425D01*
X89312408Y-72184425D01*
X89042510Y-72238111D01*
X88788273Y-72343420D01*
X88559465Y-72496305D01*
X88364880Y-72690890D01*
X88211995Y-72919698D01*
X88106686Y-73173935D01*
X88053000Y-73443833D01*
X85327000Y-73443833D01*
X85273314Y-73173935D01*
X85168005Y-72919698D01*
X85015120Y-72690890D01*
X84820535Y-72496305D01*
X84591727Y-72343420D01*
X84337490Y-72238111D01*
X84067592Y-72184425D01*
X83792408Y-72184425D01*
X83522510Y-72238111D01*
X83268273Y-72343420D01*
X83039465Y-72496305D01*
X82844880Y-72690890D01*
X82691995Y-72919698D01*
X82586686Y-73173935D01*
X82533000Y-73443833D01*
X67385000Y-73443833D01*
X67385000Y-69129548D01*
X82533000Y-69129548D01*
X82533000Y-69404732D01*
X82586686Y-69674630D01*
X82691995Y-69928867D01*
X82844880Y-70157675D01*
X83039465Y-70352260D01*
X83268273Y-70505145D01*
X83522510Y-70610454D01*
X83792408Y-70664140D01*
X84067592Y-70664140D01*
X84337490Y-70610454D01*
X84591727Y-70505145D01*
X84820535Y-70352260D01*
X85015120Y-70157675D01*
X85168005Y-69928867D01*
X85273314Y-69674630D01*
X85327000Y-69404732D01*
X85327000Y-69129548D01*
X88053000Y-69129548D01*
X88053000Y-69404732D01*
X88106686Y-69674630D01*
X88211995Y-69928867D01*
X88364880Y-70157675D01*
X88559465Y-70352260D01*
X88788273Y-70505145D01*
X89042510Y-70610454D01*
X89312408Y-70664140D01*
X89587592Y-70664140D01*
X89857490Y-70610454D01*
X90111727Y-70505145D01*
X90340535Y-70352260D01*
X90535120Y-70157675D01*
X90688005Y-69928867D01*
X90793314Y-69674630D01*
X90847000Y-69404732D01*
X90847000Y-69129548D01*
X90793314Y-68859650D01*
X90688005Y-68605413D01*
X90535120Y-68376605D01*
X90340535Y-68182020D01*
X90111727Y-68029135D01*
X89857490Y-67923826D01*
X89587592Y-67870140D01*
X89312408Y-67870140D01*
X89042510Y-67923826D01*
X88788273Y-68029135D01*
X88559465Y-68182020D01*
X88364880Y-68376605D01*
X88211995Y-68605413D01*
X88106686Y-68859650D01*
X88053000Y-69129548D01*
X85327000Y-69129548D01*
X85273314Y-68859650D01*
X85168005Y-68605413D01*
X85015120Y-68376605D01*
X84820535Y-68182020D01*
X84591727Y-68029135D01*
X84337490Y-67923826D01*
X84067592Y-67870140D01*
X83792408Y-67870140D01*
X83522510Y-67923826D01*
X83268273Y-68029135D01*
X83039465Y-68182020D01*
X82844880Y-68376605D01*
X82691995Y-68605413D01*
X82586686Y-68859650D01*
X82533000Y-69129548D01*
X67385000Y-69129548D01*
X67385000Y-64815263D01*
X82533000Y-64815263D01*
X82533000Y-65090447D01*
X82586686Y-65360345D01*
X82691995Y-65614582D01*
X82844880Y-65843390D01*
X83039465Y-66037975D01*
X83268273Y-66190860D01*
X83522510Y-66296169D01*
X83792408Y-66349855D01*
X84067592Y-66349855D01*
X84337490Y-66296169D01*
X84591727Y-66190860D01*
X84820535Y-66037975D01*
X85015120Y-65843390D01*
X85168005Y-65614582D01*
X85273314Y-65360345D01*
X85327000Y-65090447D01*
X85327000Y-64815263D01*
X88053000Y-64815263D01*
X88053000Y-65090447D01*
X88106686Y-65360345D01*
X88211995Y-65614582D01*
X88364880Y-65843390D01*
X88559465Y-66037975D01*
X88788273Y-66190860D01*
X89042510Y-66296169D01*
X89312408Y-66349855D01*
X89587592Y-66349855D01*
X89857490Y-66296169D01*
X90111727Y-66190860D01*
X90340535Y-66037975D01*
X90535120Y-65843390D01*
X90688005Y-65614582D01*
X90793314Y-65360345D01*
X90847000Y-65090447D01*
X90847000Y-64815263D01*
X90793314Y-64545365D01*
X90688005Y-64291128D01*
X90535120Y-64062320D01*
X90340535Y-63867735D01*
X90111727Y-63714850D01*
X89857490Y-63609541D01*
X89587592Y-63555855D01*
X89312408Y-63555855D01*
X89042510Y-63609541D01*
X88788273Y-63714850D01*
X88559465Y-63867735D01*
X88364880Y-64062320D01*
X88211995Y-64291128D01*
X88106686Y-64545365D01*
X88053000Y-64815263D01*
X85327000Y-64815263D01*
X85273314Y-64545365D01*
X85168005Y-64291128D01*
X85015120Y-64062320D01*
X84820535Y-63867735D01*
X84591727Y-63714850D01*
X84337490Y-63609541D01*
X84067592Y-63555855D01*
X83792408Y-63555855D01*
X83522510Y-63609541D01*
X83268273Y-63714850D01*
X83039465Y-63867735D01*
X82844880Y-64062320D01*
X82691995Y-64291128D01*
X82586686Y-64545365D01*
X82533000Y-64815263D01*
X67385000Y-64815263D01*
X67385000Y-60500978D01*
X82533000Y-60500978D01*
X82533000Y-60776162D01*
X82586686Y-61046060D01*
X82691995Y-61300297D01*
X82844880Y-61529105D01*
X83039465Y-61723690D01*
X83268273Y-61876575D01*
X83522510Y-61981884D01*
X83792408Y-62035570D01*
X84067592Y-62035570D01*
X84337490Y-61981884D01*
X84591727Y-61876575D01*
X84820535Y-61723690D01*
X85015120Y-61529105D01*
X85168005Y-61300297D01*
X85273314Y-61046060D01*
X85327000Y-60776162D01*
X85327000Y-60500978D01*
X88053000Y-60500978D01*
X88053000Y-60776162D01*
X88106686Y-61046060D01*
X88211995Y-61300297D01*
X88364880Y-61529105D01*
X88559465Y-61723690D01*
X88788273Y-61876575D01*
X89042510Y-61981884D01*
X89312408Y-62035570D01*
X89587592Y-62035570D01*
X89857490Y-61981884D01*
X90111727Y-61876575D01*
X90340535Y-61723690D01*
X90535120Y-61529105D01*
X90688005Y-61300297D01*
X90793314Y-61046060D01*
X90847000Y-60776162D01*
X90847000Y-60500978D01*
X90793314Y-60231080D01*
X90688005Y-59976843D01*
X90535120Y-59748035D01*
X90340535Y-59553450D01*
X90111727Y-59400565D01*
X89857490Y-59295256D01*
X89587592Y-59241570D01*
X89312408Y-59241570D01*
X89042510Y-59295256D01*
X88788273Y-59400565D01*
X88559465Y-59553450D01*
X88364880Y-59748035D01*
X88211995Y-59976843D01*
X88106686Y-60231080D01*
X88053000Y-60500978D01*
X85327000Y-60500978D01*
X85273314Y-60231080D01*
X85168005Y-59976843D01*
X85015120Y-59748035D01*
X84820535Y-59553450D01*
X84591727Y-59400565D01*
X84337490Y-59295256D01*
X84067592Y-59241570D01*
X83792408Y-59241570D01*
X83522510Y-59295256D01*
X83268273Y-59400565D01*
X83039465Y-59553450D01*
X82844880Y-59748035D01*
X82691995Y-59976843D01*
X82586686Y-60231080D01*
X82533000Y-60500978D01*
X67385000Y-60500978D01*
X67385000Y-56186693D01*
X82533000Y-56186693D01*
X82533000Y-56461877D01*
X82586686Y-56731775D01*
X82691995Y-56986012D01*
X82844880Y-57214820D01*
X83039465Y-57409405D01*
X83268273Y-57562290D01*
X83522510Y-57667599D01*
X83792408Y-57721285D01*
X84067592Y-57721285D01*
X84337490Y-57667599D01*
X84591727Y-57562290D01*
X84820535Y-57409405D01*
X85015120Y-57214820D01*
X85168005Y-56986012D01*
X85273314Y-56731775D01*
X85327000Y-56461877D01*
X85327000Y-56186693D01*
X88053000Y-56186693D01*
X88053000Y-56461877D01*
X88106686Y-56731775D01*
X88211995Y-56986012D01*
X88364880Y-57214820D01*
X88559465Y-57409405D01*
X88788273Y-57562290D01*
X89042510Y-57667599D01*
X89312408Y-57721285D01*
X89587592Y-57721285D01*
X89857490Y-57667599D01*
X90111727Y-57562290D01*
X90340535Y-57409405D01*
X90535120Y-57214820D01*
X90688005Y-56986012D01*
X90793314Y-56731775D01*
X90847000Y-56461877D01*
X90847000Y-56186693D01*
X90842600Y-56164572D01*
X112533000Y-56164572D01*
X112533000Y-56439756D01*
X112586686Y-56709654D01*
X112691995Y-56963891D01*
X112844880Y-57192699D01*
X113039465Y-57387284D01*
X113268273Y-57540169D01*
X113522510Y-57645478D01*
X113792408Y-57699164D01*
X114067592Y-57699164D01*
X114337490Y-57645478D01*
X114591727Y-57540169D01*
X114820535Y-57387284D01*
X115015120Y-57192699D01*
X115168005Y-56963891D01*
X115273314Y-56709654D01*
X115327000Y-56439756D01*
X115327000Y-56164572D01*
X118053000Y-56164572D01*
X118053000Y-56439756D01*
X118106686Y-56709654D01*
X118211995Y-56963891D01*
X118364880Y-57192699D01*
X118559465Y-57387284D01*
X118788273Y-57540169D01*
X119042510Y-57645478D01*
X119312408Y-57699164D01*
X119587592Y-57699164D01*
X119857490Y-57645478D01*
X120111727Y-57540169D01*
X120340535Y-57387284D01*
X120535120Y-57192699D01*
X120688005Y-56963891D01*
X120793314Y-56709654D01*
X120847000Y-56439756D01*
X120847000Y-56164572D01*
X120834351Y-56100979D01*
X142533000Y-56100979D01*
X142533000Y-56376163D01*
X142586686Y-56646061D01*
X142691995Y-56900298D01*
X142844880Y-57129106D01*
X143039465Y-57323691D01*
X143268273Y-57476576D01*
X143522510Y-57581885D01*
X143792408Y-57635571D01*
X144067592Y-57635571D01*
X144337490Y-57581885D01*
X144591727Y-57476576D01*
X144820535Y-57323691D01*
X145015120Y-57129106D01*
X145168005Y-56900298D01*
X145273314Y-56646061D01*
X145327000Y-56376163D01*
X145327000Y-56100979D01*
X148053000Y-56100979D01*
X148053000Y-56376163D01*
X148106686Y-56646061D01*
X148211995Y-56900298D01*
X148364880Y-57129106D01*
X148559465Y-57323691D01*
X148788273Y-57476576D01*
X149042510Y-57581885D01*
X149312408Y-57635571D01*
X149587592Y-57635571D01*
X149857490Y-57581885D01*
X150111727Y-57476576D01*
X150340535Y-57323691D01*
X150535120Y-57129106D01*
X150688005Y-56900298D01*
X150793314Y-56646061D01*
X150847000Y-56376163D01*
X150847000Y-56120330D01*
X172533000Y-56120330D01*
X172533000Y-56395514D01*
X172586686Y-56665412D01*
X172691995Y-56919649D01*
X172844880Y-57148457D01*
X173039465Y-57343042D01*
X173268273Y-57495927D01*
X173522510Y-57601236D01*
X173792408Y-57654922D01*
X174067592Y-57654922D01*
X174337490Y-57601236D01*
X174591727Y-57495927D01*
X174820535Y-57343042D01*
X175015120Y-57148457D01*
X175168005Y-56919649D01*
X175273314Y-56665412D01*
X175327000Y-56395514D01*
X175327000Y-56120330D01*
X178053000Y-56120330D01*
X178053000Y-56395514D01*
X178106686Y-56665412D01*
X178211995Y-56919649D01*
X178364880Y-57148457D01*
X178559465Y-57343042D01*
X178788273Y-57495927D01*
X179042510Y-57601236D01*
X179312408Y-57654922D01*
X179587592Y-57654922D01*
X179857490Y-57601236D01*
X180111727Y-57495927D01*
X180340535Y-57343042D01*
X180535120Y-57148457D01*
X180688005Y-56919649D01*
X180793314Y-56665412D01*
X180847000Y-56395514D01*
X180847000Y-56120330D01*
X180793314Y-55850432D01*
X180688005Y-55596195D01*
X180535120Y-55367387D01*
X180340535Y-55172802D01*
X180111727Y-55019917D01*
X179857490Y-54914608D01*
X179587592Y-54860922D01*
X179312408Y-54860922D01*
X179042510Y-54914608D01*
X178788273Y-55019917D01*
X178559465Y-55172802D01*
X178364880Y-55367387D01*
X178211995Y-55596195D01*
X178106686Y-55850432D01*
X178053000Y-56120330D01*
X175327000Y-56120330D01*
X175273314Y-55850432D01*
X175168005Y-55596195D01*
X175015120Y-55367387D01*
X174820535Y-55172802D01*
X174591727Y-55019917D01*
X174337490Y-54914608D01*
X174067592Y-54860922D01*
X173792408Y-54860922D01*
X173522510Y-54914608D01*
X173268273Y-55019917D01*
X173039465Y-55172802D01*
X172844880Y-55367387D01*
X172691995Y-55596195D01*
X172586686Y-55850432D01*
X172533000Y-56120330D01*
X150847000Y-56120330D01*
X150847000Y-56100979D01*
X150793314Y-55831081D01*
X150688005Y-55576844D01*
X150535120Y-55348036D01*
X150340535Y-55153451D01*
X150111727Y-55000566D01*
X149857490Y-54895257D01*
X149587592Y-54841571D01*
X149312408Y-54841571D01*
X149042510Y-54895257D01*
X148788273Y-55000566D01*
X148559465Y-55153451D01*
X148364880Y-55348036D01*
X148211995Y-55576844D01*
X148106686Y-55831081D01*
X148053000Y-56100979D01*
X145327000Y-56100979D01*
X145273314Y-55831081D01*
X145168005Y-55576844D01*
X145015120Y-55348036D01*
X144820535Y-55153451D01*
X144591727Y-55000566D01*
X144337490Y-54895257D01*
X144067592Y-54841571D01*
X143792408Y-54841571D01*
X143522510Y-54895257D01*
X143268273Y-55000566D01*
X143039465Y-55153451D01*
X142844880Y-55348036D01*
X142691995Y-55576844D01*
X142586686Y-55831081D01*
X142533000Y-56100979D01*
X120834351Y-56100979D01*
X120793314Y-55894674D01*
X120688005Y-55640437D01*
X120535120Y-55411629D01*
X120340535Y-55217044D01*
X120111727Y-55064159D01*
X119857490Y-54958850D01*
X119587592Y-54905164D01*
X119312408Y-54905164D01*
X119042510Y-54958850D01*
X118788273Y-55064159D01*
X118559465Y-55217044D01*
X118364880Y-55411629D01*
X118211995Y-55640437D01*
X118106686Y-55894674D01*
X118053000Y-56164572D01*
X115327000Y-56164572D01*
X115273314Y-55894674D01*
X115168005Y-55640437D01*
X115015120Y-55411629D01*
X114820535Y-55217044D01*
X114591727Y-55064159D01*
X114337490Y-54958850D01*
X114067592Y-54905164D01*
X113792408Y-54905164D01*
X113522510Y-54958850D01*
X113268273Y-55064159D01*
X113039465Y-55217044D01*
X112844880Y-55411629D01*
X112691995Y-55640437D01*
X112586686Y-55894674D01*
X112533000Y-56164572D01*
X90842600Y-56164572D01*
X90793314Y-55916795D01*
X90688005Y-55662558D01*
X90535120Y-55433750D01*
X90340535Y-55239165D01*
X90111727Y-55086280D01*
X89857490Y-54980971D01*
X89587592Y-54927285D01*
X89312408Y-54927285D01*
X89042510Y-54980971D01*
X88788273Y-55086280D01*
X88559465Y-55239165D01*
X88364880Y-55433750D01*
X88211995Y-55662558D01*
X88106686Y-55916795D01*
X88053000Y-56186693D01*
X85327000Y-56186693D01*
X85273314Y-55916795D01*
X85168005Y-55662558D01*
X85015120Y-55433750D01*
X84820535Y-55239165D01*
X84591727Y-55086280D01*
X84337490Y-54980971D01*
X84067592Y-54927285D01*
X83792408Y-54927285D01*
X83522510Y-54980971D01*
X83268273Y-55086280D01*
X83039465Y-55239165D01*
X82844880Y-55433750D01*
X82691995Y-55662558D01*
X82586686Y-55916795D01*
X82533000Y-56186693D01*
X67385000Y-56186693D01*
X67385000Y-50162408D01*
X72313000Y-50162408D01*
X72313000Y-50437592D01*
X72366686Y-50707490D01*
X72471995Y-50961727D01*
X72624880Y-51190535D01*
X72789345Y-51355000D01*
X72624880Y-51519465D01*
X72471995Y-51748273D01*
X72366686Y-52002510D01*
X72313000Y-52272408D01*
X72313000Y-52547592D01*
X72366686Y-52817490D01*
X72471995Y-53071727D01*
X72624880Y-53300535D01*
X72819465Y-53495120D01*
X73048273Y-53648005D01*
X73302510Y-53753314D01*
X73572408Y-53807000D01*
X73847592Y-53807000D01*
X74117490Y-53753314D01*
X74371727Y-53648005D01*
X74600535Y-53495120D01*
X74720090Y-53375565D01*
X78444040Y-53375565D01*
X78511020Y-53615656D01*
X78760048Y-53732756D01*
X79027135Y-53799023D01*
X79302017Y-53811910D01*
X79574133Y-53770922D01*
X79833023Y-53677636D01*
X79948980Y-53615656D01*
X80015960Y-53375565D01*
X79230000Y-52589605D01*
X78444040Y-53375565D01*
X74720090Y-53375565D01*
X74795120Y-53300535D01*
X74948005Y-53071727D01*
X75053314Y-52817490D01*
X75107000Y-52547592D01*
X75107000Y-52482017D01*
X77828090Y-52482017D01*
X77869078Y-52754133D01*
X77962364Y-53013023D01*
X78024344Y-53128980D01*
X78264435Y-53195960D01*
X79050395Y-52410000D01*
X79409605Y-52410000D01*
X80195565Y-53195960D01*
X80435656Y-53128980D01*
X80552756Y-52879952D01*
X80619023Y-52612865D01*
X80631910Y-52337983D01*
X80590922Y-52065867D01*
X80521213Y-51872408D01*
X82533000Y-51872408D01*
X82533000Y-52147592D01*
X82586686Y-52417490D01*
X82691995Y-52671727D01*
X82844880Y-52900535D01*
X83039465Y-53095120D01*
X83268273Y-53248005D01*
X83522510Y-53353314D01*
X83792408Y-53407000D01*
X84067592Y-53407000D01*
X84337490Y-53353314D01*
X84591727Y-53248005D01*
X84820535Y-53095120D01*
X85015120Y-52900535D01*
X85168005Y-52671727D01*
X85273314Y-52417490D01*
X85327000Y-52147592D01*
X85327000Y-51872408D01*
X88053000Y-51872408D01*
X88053000Y-52147592D01*
X88106686Y-52417490D01*
X88211995Y-52671727D01*
X88364880Y-52900535D01*
X88559465Y-53095120D01*
X88788273Y-53248005D01*
X89042510Y-53353314D01*
X89312408Y-53407000D01*
X89587592Y-53407000D01*
X89857490Y-53353314D01*
X90111727Y-53248005D01*
X90340535Y-53095120D01*
X90535120Y-52900535D01*
X90688005Y-52671727D01*
X90793314Y-52417490D01*
X90847000Y-52147592D01*
X90847000Y-51872408D01*
X90841867Y-51846600D01*
X112533000Y-51846600D01*
X112533000Y-52121784D01*
X112586686Y-52391682D01*
X112691995Y-52645919D01*
X112844880Y-52874727D01*
X113039465Y-53069312D01*
X113268273Y-53222197D01*
X113522510Y-53327506D01*
X113792408Y-53381192D01*
X114067592Y-53381192D01*
X114337490Y-53327506D01*
X114591727Y-53222197D01*
X114820535Y-53069312D01*
X115015120Y-52874727D01*
X115168005Y-52645919D01*
X115273314Y-52391682D01*
X115327000Y-52121784D01*
X115327000Y-51846600D01*
X118053000Y-51846600D01*
X118053000Y-52121784D01*
X118106686Y-52391682D01*
X118211995Y-52645919D01*
X118364880Y-52874727D01*
X118559465Y-53069312D01*
X118788273Y-53222197D01*
X119042510Y-53327506D01*
X119312408Y-53381192D01*
X119587592Y-53381192D01*
X119857490Y-53327506D01*
X120111727Y-53222197D01*
X120340535Y-53069312D01*
X120535120Y-52874727D01*
X120688005Y-52645919D01*
X120793314Y-52391682D01*
X120847000Y-52121784D01*
X120847000Y-51846600D01*
X120832243Y-51772408D01*
X142533000Y-51772408D01*
X142533000Y-52047592D01*
X142586686Y-52317490D01*
X142691995Y-52571727D01*
X142844880Y-52800535D01*
X143039465Y-52995120D01*
X143268273Y-53148005D01*
X143522510Y-53253314D01*
X143792408Y-53307000D01*
X144067592Y-53307000D01*
X144337490Y-53253314D01*
X144591727Y-53148005D01*
X144820535Y-52995120D01*
X145015120Y-52800535D01*
X145168005Y-52571727D01*
X145273314Y-52317490D01*
X145327000Y-52047592D01*
X145327000Y-51772408D01*
X148053000Y-51772408D01*
X148053000Y-52047592D01*
X148106686Y-52317490D01*
X148211995Y-52571727D01*
X148364880Y-52800535D01*
X148559465Y-52995120D01*
X148788273Y-53148005D01*
X149042510Y-53253314D01*
X149312408Y-53307000D01*
X149587592Y-53307000D01*
X149857490Y-53253314D01*
X150111727Y-53148005D01*
X150340535Y-52995120D01*
X150535120Y-52800535D01*
X150688005Y-52571727D01*
X150793314Y-52317490D01*
X150847000Y-52047592D01*
X150847000Y-51772408D01*
X150793314Y-51502510D01*
X150688005Y-51248273D01*
X150535120Y-51019465D01*
X150340535Y-50824880D01*
X150111727Y-50671995D01*
X149857490Y-50566686D01*
X149587592Y-50513000D01*
X149312408Y-50513000D01*
X149042510Y-50566686D01*
X148788273Y-50671995D01*
X148559465Y-50824880D01*
X148364880Y-51019465D01*
X148211995Y-51248273D01*
X148106686Y-51502510D01*
X148053000Y-51772408D01*
X145327000Y-51772408D01*
X145273314Y-51502510D01*
X145168005Y-51248273D01*
X145015120Y-51019465D01*
X144820535Y-50824880D01*
X144591727Y-50671995D01*
X144337490Y-50566686D01*
X144067592Y-50513000D01*
X143792408Y-50513000D01*
X143522510Y-50566686D01*
X143268273Y-50671995D01*
X143039465Y-50824880D01*
X142844880Y-51019465D01*
X142691995Y-51248273D01*
X142586686Y-51502510D01*
X142533000Y-51772408D01*
X120832243Y-51772408D01*
X120793314Y-51576702D01*
X120688005Y-51322465D01*
X120535120Y-51093657D01*
X120340535Y-50899072D01*
X120111727Y-50746187D01*
X119857490Y-50640878D01*
X119587592Y-50587192D01*
X119312408Y-50587192D01*
X119042510Y-50640878D01*
X118788273Y-50746187D01*
X118559465Y-50899072D01*
X118364880Y-51093657D01*
X118211995Y-51322465D01*
X118106686Y-51576702D01*
X118053000Y-51846600D01*
X115327000Y-51846600D01*
X115273314Y-51576702D01*
X115168005Y-51322465D01*
X115015120Y-51093657D01*
X114820535Y-50899072D01*
X114591727Y-50746187D01*
X114337490Y-50640878D01*
X114067592Y-50587192D01*
X113792408Y-50587192D01*
X113522510Y-50640878D01*
X113268273Y-50746187D01*
X113039465Y-50899072D01*
X112844880Y-51093657D01*
X112691995Y-51322465D01*
X112586686Y-51576702D01*
X112533000Y-51846600D01*
X90841867Y-51846600D01*
X90793314Y-51602510D01*
X90688005Y-51348273D01*
X90535120Y-51119465D01*
X90340535Y-50924880D01*
X90111727Y-50771995D01*
X89857490Y-50666686D01*
X89587592Y-50613000D01*
X89312408Y-50613000D01*
X89042510Y-50666686D01*
X88788273Y-50771995D01*
X88559465Y-50924880D01*
X88364880Y-51119465D01*
X88211995Y-51348273D01*
X88106686Y-51602510D01*
X88053000Y-51872408D01*
X85327000Y-51872408D01*
X85273314Y-51602510D01*
X85168005Y-51348273D01*
X85015120Y-51119465D01*
X84820535Y-50924880D01*
X84591727Y-50771995D01*
X84337490Y-50666686D01*
X84067592Y-50613000D01*
X83792408Y-50613000D01*
X83522510Y-50666686D01*
X83268273Y-50771995D01*
X83039465Y-50924880D01*
X82844880Y-51119465D01*
X82691995Y-51348273D01*
X82586686Y-51602510D01*
X82533000Y-51872408D01*
X80521213Y-51872408D01*
X80497636Y-51806977D01*
X80435656Y-51691020D01*
X80195565Y-51624040D01*
X79409605Y-52410000D01*
X79050395Y-52410000D01*
X78264435Y-51624040D01*
X78024344Y-51691020D01*
X77907244Y-51940048D01*
X77840977Y-52207135D01*
X77828090Y-52482017D01*
X75107000Y-52482017D01*
X75107000Y-52272408D01*
X75053314Y-52002510D01*
X74948005Y-51748273D01*
X74795120Y-51519465D01*
X74630655Y-51355000D01*
X74720090Y-51265565D01*
X78444040Y-51265565D01*
X78468990Y-51355000D01*
X78444040Y-51444435D01*
X79230000Y-52230395D01*
X80015960Y-51444435D01*
X79991010Y-51355000D01*
X80015960Y-51265565D01*
X79230000Y-50479605D01*
X78444040Y-51265565D01*
X74720090Y-51265565D01*
X74795120Y-51190535D01*
X74948005Y-50961727D01*
X75053314Y-50707490D01*
X75107000Y-50437592D01*
X75107000Y-50372017D01*
X77828090Y-50372017D01*
X77869078Y-50644133D01*
X77962364Y-50903023D01*
X78024344Y-51018980D01*
X78264435Y-51085960D01*
X79050395Y-50300000D01*
X79409605Y-50300000D01*
X80195565Y-51085960D01*
X80435656Y-51018980D01*
X80552756Y-50769952D01*
X80619023Y-50502865D01*
X80631910Y-50227983D01*
X80590922Y-49955867D01*
X80497636Y-49696977D01*
X80435656Y-49581020D01*
X80195565Y-49514040D01*
X79409605Y-50300000D01*
X79050395Y-50300000D01*
X78264435Y-49514040D01*
X78024344Y-49581020D01*
X77907244Y-49830048D01*
X77840977Y-50097135D01*
X77828090Y-50372017D01*
X75107000Y-50372017D01*
X75107000Y-50162408D01*
X75053314Y-49892510D01*
X74948005Y-49638273D01*
X74795120Y-49409465D01*
X74720090Y-49334435D01*
X78444040Y-49334435D01*
X79230000Y-50120395D01*
X80015960Y-49334435D01*
X79948980Y-49094344D01*
X79699952Y-48977244D01*
X79432865Y-48910977D01*
X79157983Y-48898090D01*
X78885867Y-48939078D01*
X78626977Y-49032364D01*
X78511020Y-49094344D01*
X78444040Y-49334435D01*
X74720090Y-49334435D01*
X74600535Y-49214880D01*
X74371727Y-49061995D01*
X74117490Y-48956686D01*
X73847592Y-48903000D01*
X73572408Y-48903000D01*
X73302510Y-48956686D01*
X73048273Y-49061995D01*
X72819465Y-49214880D01*
X72624880Y-49409465D01*
X72471995Y-49638273D01*
X72366686Y-49892510D01*
X72313000Y-50162408D01*
X67385000Y-50162408D01*
X67385000Y-46785000D01*
X164860198Y-46785000D01*
X163842452Y-47802746D01*
G37*
%TD.AperFunction*%
%TD*%
M02*
