M48
; DRILL file {KiCad 5.1.9-73d0e3b20d~88~ubuntu20.04.1} date Wed Mar  3 11:30:44 2021
; FORMAT={-:-/ absolute / inch / decimal}
; #@! TF.CreationDate,2021-03-03T11:30:44+04:00
; #@! TF.GenerationSoftware,Kicad,Pcbnew,5.1.9-73d0e3b20d~88~ubuntu20.04.1
FMAT,2
INCH
T1C0.0157
T2C0.0197
T3C0.0276
T4C0.0300
%
G90
G05
T1
X3.7098Y-2.9004
X3.876Y-2.3417
X3.9323Y-2.5921
X4.1004Y-2.4681
X4.1004Y-2.6181
X4.1016Y-2.6677
X4.1016Y-2.9024
X4.1024Y-2.7177
X4.1028Y-2.7677
X5.1165Y-2.5972
X5.1173Y-2.7677
X5.1181Y-2.6398
X5.1181Y-2.6791
X5.1181Y-2.8146
X5.2709Y-2.8146
X5.352Y-2.4669
X6.298Y-2.6378
X6.2985Y-2.7772
X6.2988Y-2.5985
X6.2993Y-2.6772
X6.3004Y-2.8205
X6.4504Y-2.8165
X6.4524Y-2.4669
X6.7307Y-2.1169
X7.3787Y-2.1169
X7.3787Y-3.1378
X7.4732Y-2.7768
X7.4744Y-2.6185
X7.4744Y-2.6677
X7.4744Y-2.7173
X7.4748Y-2.8212
X7.6465Y-2.4669
X7.6502Y-2.8187
X8.3067Y-2.5177
X8.5563Y-3.3362
T2
X7.9992Y-2.9158
X7.9992Y-2.9658
X7.9992Y-3.0158
X7.9992Y-3.0658
X7.9992Y-3.1158
X7.9992Y-3.1658
X7.9992Y-3.2158
X7.9992Y-3.2658
X7.9992Y-3.3158
X7.9992Y-3.3658
T3
X6.4319Y-1.9429
X6.5319Y-1.9429
X6.6319Y-1.9429
X6.7319Y-1.9429
X6.8319Y-1.9429
X6.9319Y-1.9429
X8.5571Y-2.0945
X8.5571Y-2.1945
X8.5571Y-2.2945
X8.5571Y-2.3945
X8.5571Y-2.4945
X8.5571Y-2.5945
T4
X2.902Y-1.9803
X2.902Y-2.0634
X3.1193Y-1.9803
X3.1193Y-2.0634
X3.3043Y-2.0476
X3.3043Y-2.2175
X3.3043Y-2.3873
X3.3043Y-2.5572
X3.3043Y-2.7271
X3.3043Y-2.8969
X3.3043Y-3.0668
X3.3043Y-3.2366
X3.5217Y-2.0476
X3.5217Y-2.2175
X3.5217Y-2.3873
X3.5217Y-2.5572
X3.5217Y-2.7271
X3.5217Y-2.8969
X3.5217Y-3.0668
X3.5217Y-3.2366
X4.4854Y-2.0466
X4.4854Y-2.2166
X4.4854Y-2.3866
X4.4854Y-2.5566
X4.4854Y-2.7266
X4.4854Y-2.8966
X4.4854Y-3.0666
X4.4854Y-3.2366
X4.7028Y-2.0466
X4.7028Y-2.2166
X4.7028Y-2.3866
X4.7028Y-2.5566
X4.7028Y-2.7266
X4.7028Y-2.8966
X4.7028Y-3.0666
X4.7028Y-3.2366
X5.6665Y-2.0437
X5.6665Y-2.2141
X5.6665Y-2.3845
X5.6665Y-2.5549
X5.6665Y-2.7254
X5.6665Y-2.8958
X5.6665Y-3.0662
X5.6665Y-3.2366
X5.8839Y-2.0437
X5.8839Y-2.2141
X5.8839Y-2.3845
X5.8839Y-2.5549
X5.8839Y-2.7254
X5.8839Y-2.8958
X5.8839Y-3.0662
X5.8839Y-3.2366
X6.8476Y-2.0446
X6.8476Y-2.2149
X6.8476Y-2.3852
X6.8476Y-2.5555
X6.8476Y-2.7257
X6.8476Y-2.896
X6.8476Y-3.0663
X6.8476Y-3.2366
X7.065Y-2.0446
X7.065Y-2.2149
X7.065Y-2.3852
X7.065Y-2.5555
X7.065Y-2.7257
X7.065Y-2.896
X7.065Y-3.0663
X7.065Y-3.2366
T2
G00X8.4596Y-2.9469
M15
G01X8.4596Y-2.9193
M16
G05
G00X8.4596Y-3.1673
M15
G01X8.4596Y-3.1398
M16
G05
G00X8.5443Y-3.065
M15
G01X8.5443Y-3.0217
M16
G05
T0
M30
